<svg width="36" height="48" viewBox="0 0 36 48" fill="none" xmlns="http://www.w3.org/2000/svg" xmlns:xlink="http://www.w3.org/1999/xlink">
<path d="M36,47.8L28.674,42.778L23.346,46.428L18.014,42.776L12.682,46.424L7.34,42.772L0,47.8L0,6C0,4.409 0.632,2.883 1.757,1.757C2.883,0.632 4.409,0 6,0L30,0C31.591,0 33.117,0.632 34.243,1.757C35.368,2.883 36,4.409 36,6L36,47.8ZM7.34,37.924L12.68,41.576L18.014,37.924L23.346,41.576L28.676,37.922L32,40.2L32,6C32,5.47 31.789,4.961 31.414,4.586C31.039,4.211 30.53,4 30,4L6,4C5.47,4 4.961,4.211 4.586,4.586C4.211,4.961 4,5.47 4,6L4,40.2L7.34,37.924Z" fill="#374957"/>
<rect  x="8" y="16.001" width="20" height="4" fill="#374957"/>
<rect  x="8" y="24" width="16" height="4" fill="#374957"/>
</svg>
