<svg width="48" height="42" viewBox="0 0 48 42" fill="none" xmlns="http://www.w3.org/2000/svg" xmlns:xlink="http://www.w3.org/1999/xlink">
<path d="M48,40.001L0,40.001L0,6.001C0,4.41 0.632,2.884 1.757,1.759C2.883,0.633 4.409,0.001 6,0.001L42,0.001C43.591,0.001 45.117,0.633 46.243,1.759C47.368,2.884 48,4.41 48,6.001L48,40.001ZM4,36.001L44,36.001L44,6.001C44,5.471 43.789,4.962 43.414,4.587C43.039,4.212 42.53,4.001 42,4.001L6,4.001C5.47,4.001 4.961,4.212 4.586,4.587C4.211,4.962 4,5.471 4,6.001L4,36.001Z" fill="#374957"/>
<rect  x="18" y="18.001" width="22" height="4" fill="#374957"/>
<rect  x="8" y="18.001" width="6" height="4" fill="#374957"/>
<rect  x="8" y="28.002" width="22" height="4" fill="#374957"/>
<rect  x="34" y="28.002" width="6" height="4" fill="#374957"/>
</svg>
