<svg width="48" height="48" viewBox="0 0 48 48" fill="none" xmlns="http://www.w3.org/2000/svg" xmlns:xlink="http://www.w3.org/1999/xlink">
<path d="M10,38L18.828,38L46.114,10.714C47.283,9.542 47.939,7.954 47.939,6.3C47.939,4.645 47.283,3.057 46.114,1.886C44.925,0.749 43.344,0.115 41.7,0.115C40.056,0.115 38.475,0.749 37.286,1.886L10,29.172L10,38ZM14,30.827L40.114,4.714C40.541,4.305 41.109,4.078 41.7,4.078C42.291,4.078 42.859,4.305 43.286,4.714C43.706,5.135 43.942,5.705 43.942,6.3C43.942,6.894 43.706,7.465 43.286,7.886L17.172,34L14,34L14,30.827Z" fill="#374957"/>
<path d="M47.242,15.244L44,18.486L44,32L32,32L32,44L4,44L4,6C4,5.47 4.211,4.961 4.586,4.586C4.961,4.211 5.47,4 6,4L29.516,4L32.758,0.758C33.05,0.487 33.358,0.234 33.68,0L6,0C4.409,0 2.883,0.632 1.757,1.757C0.632,2.883 0,4.409 0,6L0,48L36.828,48L48,36.828L48,14.322C47.765,14.644 47.512,14.952 47.242,15.244L47.242,15.244ZM36,43.172L36,36L43.172,36L36,43.172Z" fill="#374957"/>
</svg>
