<svg width="48" height="48" viewBox="0 0 48 48" fill="none" xmlns="http://www.w3.org/2000/svg" xmlns:xlink="http://www.w3.org/1999/xlink">
<path d="M48,45.178L35.5,32.678C42.49,24.13 41.226,11.534 32.678,4.545C24.13,-2.444 11.534,-1.181 4.545,7.368C-2.444,15.916 -1.181,28.511 7.368,35.501C14.73,41.521 25.315,41.521 32.678,35.501L45.178,48L48,45.178ZM20.055,36.024C11.235,36.024 4.086,28.874 4.086,20.055C4.086,11.235 11.235,4.086 20.055,4.086C28.874,4.086 36.023,11.235 36.023,20.055C36.014,28.87 28.87,36.014 20.055,36.024Z" fill="#374957"/>
<path d="M22.051,12.072L18.059,12.072L18.059,18.061L12.07,18.061L12.07,22.053L18.059,22.053L18.059,28.041L22.051,28.041L22.051,22.053L28.039,22.053L28.039,18.061L22.051,18.061L22.051,12.072Z" fill="#374957"/>
</svg>
