<svg width="50" height="48" viewBox="0 0 50 48" fill="none" xmlns="http://www.w3.org/2000/svg" xmlns:xlink="http://www.w3.org/1999/xlink">
<path d="M4,11.98C2.939,11.98 1.922,12.401 1.172,13.152C0.421,13.902 0,14.919 0,15.98L0,32.008C0,33.069 0.421,34.086 1.172,34.836C1.922,35.587 2.939,36.008 4,36.008L9.6,36.008L24,48L24,0L9.6,11.98L4,11.98ZM20,8.536L20,39.458L11.05,32.014L4,32.014L4,15.986L11.05,15.986L20,8.536Z" fill="#374957"/>
<path d="M40,24.001C39.999,21.347 38.946,18.803 37.071,16.925C35.197,15.047 32.653,13.99 30,13.985L28,13.985L28,17.985L30,17.985C31.594,17.985 33.123,18.618 34.25,19.745C35.377,20.872 36.01,22.401 36.01,23.995C36.01,25.589 35.377,27.117 34.25,28.245C33.123,29.372 31.594,30.005 30,30.005L28,30.005L28,34.005L30,34.005C32.651,33.999 35.192,32.944 37.067,31.069C38.941,29.194 39.996,26.652 40,24.001L40,24.001Z" fill="#374957"/>
<path d="M30,5.969L28,5.969L28,9.969L30,9.969C33.719,9.969 37.286,11.446 39.916,14.076C42.546,16.706 44.024,20.273 44.024,23.993C44.024,27.712 42.546,31.279 39.916,33.909C37.286,36.539 33.719,38.017 30,38.017L28,38.017L28,42.017L30,42.017C34.782,42.017 39.368,40.117 42.749,36.736C46.13,33.354 48.03,28.768 48.03,23.987C48.03,19.205 46.13,14.619 42.749,11.237C39.368,7.856 34.782,5.957 30,5.957L30,5.969Z" fill="#374957"/>
</svg>
