<svg width="44" height="50" viewBox="0 0 44 50" fill="none" xmlns="http://www.w3.org/2000/svg" xmlns:xlink="http://www.w3.org/1999/xlink">
<path d="M42.242,19.758L22.492,0L19.664,2.836L39.414,22.586C39.789,22.961 39.999,23.47 39.999,24C39.999,24.53 39.789,25.039 39.414,25.414L19.638,45.2L22.466,48.028L42.242,28.252C43.366,27.127 43.998,25.601 43.998,24.01C43.998,22.419 43.366,20.893 42.242,19.768L42.242,19.758Z" fill="#374957"/>
<path d="M25.07,22.586L2.524,0.038L-0.306,2.866L20.828,24L-0.328,45.156L2.5,47.986L25.07,25.414C25.445,25.039 25.655,24.53 25.655,24C25.655,23.47 25.445,22.961 25.07,22.586L25.07,22.586Z" fill="#374957"/>
</svg>
