<svg width="40" height="50" viewBox="0 0 40 50" fill="none" xmlns="http://www.w3.org/2000/svg" xmlns:xlink="http://www.w3.org/1999/xlink">
<path d="M35.898,5.289L20,0.019L4.102,5.289C2.909,5.681 1.871,6.44 1.134,7.457C0.398,8.474 0.001,9.697 0,10.953L0,24.001C0,39.049 18.4,47.359 19.188,47.705L19.896,48.019L20.632,47.775C21.424,47.511 40,41.155 40,24.001L40,10.953C39.999,9.697 39.602,8.474 38.866,7.457C38.129,6.44 37.091,5.681 35.898,5.289L35.898,5.289ZM36,24.001C36,36.527 23.302,42.433 20.094,43.723C16.88,42.117 4,34.989 4,24.001L4,10.953C4,10.534 4.132,10.126 4.377,9.787C4.623,9.448 4.97,9.195 5.368,9.065L20,4.213L34.632,9.065C35.03,9.195 35.377,9.448 35.623,9.787C35.868,10.126 36,10.534 36,10.953L36,24.001Z" fill="#374957"/>
<path d="M22,16.001L18,16.001L18,22.001L12,22.001L12,26.001L18,26.001L18,32.001L22,32.001L22,26.001L28,26.001L28,22.001L22,22.001L22,16.001Z" fill="#374957"/>
</svg>
