<svg width="48" height="36" viewBox="0 0 48 36" fill="none" xmlns="http://www.w3.org/2000/svg" xmlns:xlink="http://www.w3.org/1999/xlink">
<path d="M42,8L26,8L26,0L22,0L22,8L6,8C4.409,8 2.883,8.632 1.757,9.757C0.632,10.882 0,12.408 0,14L0,36L48,36L48,14C48,12.408 47.368,10.882 46.243,9.757C45.117,8.632 43.591,8 42,8ZM44,32L4,32L4,14C4,13.469 4.211,12.96 4.586,12.585C4.961,12.21 5.47,12 6,12L42,12C42.53,12 43.039,12.21 43.414,12.585C43.789,12.96 44,13.469 44,14L44,32Z" fill="#374957"/>
<rect  x="16" y="24" width="16" height="4" fill="#374957"/>
<rect  x="18" y="15.999" width="6" height="4" fill="#374957"/>
<rect  x="28" y="15.999" width="12" height="4" fill="#374957"/>
<rect  x="8" y="15.999" width="6" height="4" fill="#374957"/>
<rect  x="8" y="24" width="4" height="4" fill="#374957"/>
<rect  x="36" y="24" width="4" height="4" fill="#374957"/>
</svg>
