<svg width="48" height="48" viewBox="0 0 48 48" fill="none" xmlns="http://www.w3.org/2000/svg" xmlns:xlink="http://www.w3.org/1999/xlink">
<path d="M38,0L6,0C4.409,0 2.883,0.632 1.757,1.757C0.632,2.883 0,4.409 0,6L0,48L48,48L48,10L38,0ZM14,4L34,4L34,12L14,12L14,4ZM44,44L4,44L4,6C4,5.47 4.211,4.961 4.586,4.586C4.961,4.211 5.47,4 6,4L10,4L10,16L38,16L38,5.656L44,11.656L44,44Z" fill="#374957"/>
<path d="M24,20C22.418,20 20.871,20.469 19.555,21.348C18.24,22.227 17.214,23.476 16.609,24.938C16.003,26.4 15.845,28.008 16.154,29.56C16.462,31.112 17.224,32.538 18.343,33.656C19.462,34.775 20.887,35.537 22.439,35.846C23.991,36.154 25.6,35.996 27.061,35.391C28.523,34.785 29.773,33.76 30.652,32.444C31.531,31.128 32,29.582 32,28C32,25.878 31.157,23.843 29.657,22.343C28.157,20.842 26.122,20 24,20L24,20ZM24,32C23.209,32 22.436,31.765 21.778,31.325C21.12,30.886 20.607,30.261 20.304,29.53C20.002,28.799 19.923,27.995 20.077,27.219C20.231,26.443 20.612,25.73 21.172,25.171C21.731,24.612 22.444,24.231 23.22,24.076C23.996,23.922 24.8,24.001 25.531,24.304C26.262,24.607 26.886,25.119 27.326,25.777C27.765,26.435 28,27.208 28,28C28,29.06 27.579,30.078 26.828,30.828C26.078,31.578 25.061,32 24,32Z" fill="#374957"/>
</svg>
