<svg width="48" height="48" viewBox="0 0 48 48" fill="none" xmlns="http://www.w3.org/2000/svg" xmlns:xlink="http://www.w3.org/1999/xlink">
<path d="M0,6L0,22L22,22L22,0L6,0C4.409,0 2.883,0.632 1.757,1.757C0.632,2.883 0,4.409 0,6L0,6ZM18,18L4,18L4,6C4,5.47 4.211,4.961 4.586,4.586C4.961,4.211 5.47,4 6,4L18,4L18,18Z" fill="#374957"/>
<path d="M0,42C0,43.591 0.632,45.117 1.757,46.243C2.883,47.368 4.409,48 6,48L22,48L22,26L0,26L0,42ZM4,30L18,30L18,44L6,44C5.47,44 4.961,43.789 4.586,43.414C4.211,43.039 4,42.53 4,42L4,30Z" fill="#374957"/>
<path d="M26,26L26,48L42,48C43.591,48 45.117,47.368 46.243,46.243C47.368,45.117 48,43.591 48,42L48,26L26,26ZM44,42C44,42.53 43.789,43.039 43.414,43.414C43.039,43.789 42.53,44 42,44L30,44L30,30L44,30L44,42Z" fill="#374957"/>
<path d="M34,22L38,22L38,14L46,14L46,10L38,10L38,2L34,2L34,10L26,10L26,14L34,14L34,22Z" fill="#374957"/>
</svg>
