<svg width="48" height="48" viewBox="0 0 48 48" fill="none" xmlns="http://www.w3.org/2000/svg" xmlns:xlink="http://www.w3.org/1999/xlink">
<path d="M42,0L6,0C4.409,0 2.883,0.632 1.757,1.757C0.632,2.883 0,4.409 0,6L0,48L36.7,48C41.112,43.586 43.586,41.112 48,36.7L48,6C48,4.409 47.368,2.883 46.243,1.757C45.117,0.632 43.591,0 42,0L42,0ZM4,6C4,5.47 4.211,4.961 4.586,4.586C4.961,4.211 5.47,4 6,4L42,4C42.53,4 43.039,4.211 43.414,4.586C43.789,4.961 44,5.47 44,6L44,32L32,32L32,44L4,44L4,6ZM36,43.042L36,36L43.042,36L36,43.042Z" fill="#374957"/>
<path d="M13.001,10.014L8.293,22.376L10.969,22.376L12.001,19.648L16.099,19.648L17.127,22.374L19.801,22.374L15.133,10L13.001,10.014ZM12.961,17.148L14.063,14.254L15.155,17.148L12.961,17.148Z" fill="#374957"/>
<rect  x="22.313" y="10.124" width="2.5" height="12.138" fill="#374957"/>
</svg>
