<svg width="48" height="48" viewBox="0 0 48 48" fill="none" xmlns="http://www.w3.org/2000/svg" xmlns:xlink="http://www.w3.org/1999/xlink">
<path d="M47.999,48L24.035,48C19.353,47.998 14.774,46.626 10.862,44.054C6.95,41.482 3.875,37.822 2.017,33.524C0.16,29.226 -0.401,24.479 0.405,19.867C1.212,15.255 3.349,10.979 6.555,7.567C9.761,4.155 13.895,1.755 18.448,0.662C23,-0.43 27.773,-0.167 32.178,1.42C36.584,3.006 40.428,5.846 43.24,9.59C46.051,13.335 47.705,17.819 47.999,22.492L47.999,22.618L47.999,48ZM24.035,4C18.731,4 13.644,6.107 9.893,9.858C6.143,13.609 4.035,18.696 4.035,24C4.035,29.304 6.143,34.391 9.893,38.142C13.644,41.893 18.731,44 24.035,44L43.999,44L43.999,22.682C43.656,17.619 41.405,12.874 37.699,9.406C33.994,5.939 29.11,4.007 24.035,4L24.035,4Z" fill="#374957"/>
<rect  x="14" y="14" width="12" height="4" fill="#374957"/>
<rect  x="14" y="22" width="20" height="4" fill="#374957"/>
<rect  x="14" y="30" width="20" height="4" fill="#374957"/>
</svg>
