<svg width="44" height="50" viewBox="0 0 44 50" fill="none" xmlns="http://www.w3.org/2000/svg" xmlns:xlink="http://www.w3.org/1999/xlink">
<path d="M4.241,22.586L24.025,2.8L21.199,-0.026L1.413,19.758C0.288,20.883 -0.344,22.409 -0.344,24C-0.344,25.591 0.288,27.117 1.413,28.242L21.183,48.012L24.011,45.184L4.243,25.414C3.868,25.039 3.657,24.531 3.656,24.001C3.656,23.47 3.866,22.962 4.241,22.586L4.241,22.586Z" fill="#374957"/>
<path d="M44,2.834L41.166,0L18.586,22.58C18.211,22.955 18,23.464 18,23.994C18,24.524 18.211,25.033 18.586,25.408L41.168,48L44,45.168L22.828,24L44,2.834Z" fill="#374957"/>
</svg>
