<svg width="42" height="50" viewBox="0 0 42 50" fill="none" xmlns="http://www.w3.org/2000/svg" xmlns:xlink="http://www.w3.org/1999/xlink">
<path d="M19.915,48.015L18.521,46.82C16.599,45.211 -0.183,30.718 -0.183,20.116C-0.183,9.016 8.816,0.018 19.915,0.018C31.015,0.018 40.013,9.016 40.013,20.116C40.013,30.718 23.232,45.211 21.318,46.828L19.915,48.015ZM19.915,4.364C11.22,4.374 4.173,11.42 4.163,20.116C4.163,26.776 14.488,37.416 19.915,42.285C25.343,37.414 35.668,26.768 35.668,20.116C35.658,11.42 28.611,4.374 19.915,4.364Z" fill="#374957"/>
<path d="M19.916,28.082C15.516,28.082 11.949,24.515 11.949,20.116C11.949,15.716 15.516,12.149 19.916,12.149C24.316,12.149 27.883,15.716 27.883,20.116C27.883,24.515 24.316,28.082 19.916,28.082ZM19.916,16.132C17.716,16.132 15.933,17.916 15.933,20.116C15.933,22.315 17.716,24.099 19.916,24.099C22.116,24.099 23.899,22.315 23.899,20.116C23.899,17.916 22.116,16.132 19.916,16.132Z" fill="#374957"/>
</svg>
