<svg width="36" height="48" viewBox="0 0 36 48" fill="none" xmlns="http://www.w3.org/2000/svg" xmlns:xlink="http://www.w3.org/1999/xlink">
<path d="M32,16.368L32,0L4,0L4,16.368C2.834,16.78 1.824,17.542 1.108,18.551C0.392,19.559 0.005,20.763 0,22L0,30C0,34.774 1.896,39.352 5.272,42.728C8.648,46.104 13.226,48 18,48C22.774,48 27.352,46.104 30.728,42.728C34.104,39.352 36,34.774 36,30L36,22C35.995,20.763 35.608,19.559 34.892,18.551C34.176,17.542 33.166,16.78 32,16.368L32,16.368ZM8,4L28,4L28,16L8,16L8,4ZM32,30C32,33.713 30.525,37.274 27.899,39.899C25.274,42.525 21.713,44 18,44C14.287,44 10.726,42.525 8.101,39.899C5.475,37.274 4,33.713 4,30L4,22C4,21.47 4.211,20.961 4.586,20.586C4.961,20.211 5.47,20 6,20L30,20C30.53,20 31.039,20.211 31.414,20.586C31.789,20.961 32,21.47 32,22L32,30Z" fill="#374957"/>
<rect  x="20" y="7.999" width="4" height="4" fill="#374957"/>
<rect  x="12" y="7.999" width="4" height="4" fill="#374957"/>
</svg>
