<svg width="48" height="50" viewBox="0 0 48 50" fill="none" xmlns="http://www.w3.org/2000/svg" xmlns:xlink="http://www.w3.org/1999/xlink">
<path d="M40.328,26L10.838,26L8.956,10L24,10L24,6L8.484,6L8.4,5.296C8.228,3.837 7.526,2.492 6.428,1.516C5.331,0.54 3.913,0.001 2.444,0L0,0L0,4L2.444,4C2.934,4 3.407,4.18 3.773,4.505C4.139,4.831 4.373,5.279 4.43,5.766L7.6,32.702C7.772,34.161 8.473,35.507 9.571,36.483C10.669,37.46 12.087,37.999 13.556,38L40,38L40,34L13.556,34C13.066,34 12.593,33.82 12.227,33.494C11.861,33.168 11.627,32.719 11.57,32.232L11.308,30L43.672,30L45.472,20L41.41,20L40.328,26Z" fill="#374957"/>
<circle cx="14" cy="44.001" r="4" fill="#374957"/>
<circle cx="34" cy="44.001" r="4" fill="#374957"/>
<path d="M34.155,17.085L34.222,17.085C34.718,17.087 35.209,16.99 35.667,16.8C36.126,16.61 36.542,16.331 36.891,15.979L47.414,5.457L44.585,2.629L34.223,13.001L29.736,8.321L26.854,11.093L31.466,15.893C31.81,16.263 32.226,16.56 32.689,16.765C33.151,16.97 33.65,17.079 34.155,17.085L34.155,17.085Z" fill="#374957"/>
</svg>
