<svg width="44" height="50" viewBox="0 0 44 50" fill="none" xmlns="http://www.w3.org/2000/svg" xmlns:xlink="http://www.w3.org/1999/xlink">
<path d="M4.242,22.586L24.026,2.8L21.2,-0.026L1.414,19.758C0.289,20.883 -0.343,22.409 -0.343,24C-0.343,25.591 0.289,27.117 1.414,28.242L21.184,48.012L24.012,45.184L4.244,25.414C3.869,25.039 3.658,24.531 3.657,24.001C3.657,23.47 3.867,22.962 4.242,22.586L4.242,22.586Z" fill="#374957"/>
<path d="M44.001,2.834L41.167,0L18.587,22.58C18.212,22.955 18.001,23.464 18.001,23.994C18.001,24.524 18.212,25.033 18.587,25.408L41.169,48L44.001,45.168L22.829,24L44.001,2.834Z" fill="#374957"/>
</svg>
