<svg width="48" height="48" viewBox="0 0 48 48" fill="none" xmlns="http://www.w3.org/2000/svg" xmlns:xlink="http://www.w3.org/1999/xlink">
<path d="M16,0L6,0C4.409,0 2.883,0.632 1.757,1.757C0.632,2.883 0,4.409 0,6L0,16L6,16L5.958,22L9.958,22.02L10,16L16,16L16,9.968L22,10L22.02,6L16,5.968L16,0ZM12,12L4,12L4,6C4,5.47 4.211,4.961 4.586,4.586C4.961,4.211 5.47,4 6,4L12,4L12,12Z" fill="#374957"/>
<path d="M42,0L32,0L32,6L26.01,5.968L25.99,9.968L32,10L32,16L38.03,16L38,22L42,22.02L42.03,16L48,16L48,6C48,4.409 47.368,2.883 46.243,1.757C45.118,0.632 43.592,0 42,0L42,0ZM44,12L36,12L36,4L42,4C42.531,4 43.039,4.211 43.414,4.586C43.79,4.961 44,5.47 44,6L44,12Z" fill="#374957"/>
<path d="M42.042,26.01L38.042,25.99L38.01,32L32,32L32,38.032L26.01,38L26,42L32,42.032L32,48L42,48C43.591,48 45.117,47.368 46.243,46.243C47.368,45.118 48,43.592 48,42L48,32L42,32L42.042,26.01ZM44,42C44,42.531 43.789,43.039 43.414,43.414C43.039,43.79 42.53,44 42,44L36,44L36,36L44,36L44,42Z" fill="#374957"/>
<path d="M16,31.999L9.97,31.999L10,26.009L6,25.999L5.97,31.999L0,31.999L0,41.999C0,43.59 0.632,45.116 1.757,46.242C2.883,47.367 4.409,47.999 6,47.999L16,47.999L16,41.999L22,42.041L22.02,38.041L16,38.009L16,31.999ZM12,43.999L6,43.999C5.47,43.999 4.961,43.788 4.586,43.413C4.211,43.038 4,42.529 4,41.999L4,35.999L12,35.999L12,43.999Z" fill="#374957"/>
</svg>
