<svg width="48" height="48" viewBox="0 0 48 48" fill="none" xmlns="http://www.w3.org/2000/svg" xmlns:xlink="http://www.w3.org/1999/xlink">
<path d="M48,18C48,16.409 47.368,14.883 46.243,13.757C45.117,12.632 43.591,12 42,12L38,12L38,0L10,0L10,12L6,12C4.409,12 2.883,12.632 1.757,13.757C0.632,14.883 0,16.409 0,18L0,42L10,42L10,48L38,48L38,42L48,42L48,18ZM14,4L34,4L34,12L14,12L14,4ZM34,44L14,44L14,32L34,32L34,44ZM44,38L38,38L38,28L10,28L10,38L4,38L4,18C4,17.47 4.211,16.961 4.586,16.586C4.961,16.211 5.47,16 6,16L42,16C42.53,16 43.039,16.211 43.414,16.586C43.789,16.961 44,17.47 44,18L44,38Z" fill="#374957"/>
<rect  x="30" y="19.999" width="8" height="4" fill="#374957"/>
</svg>
