<svg width="48" height="50" viewBox="0 0 48 50" fill="none" xmlns="http://www.w3.org/2000/svg" xmlns:xlink="http://www.w3.org/1999/xlink">
<path d="M18,24C20.373,24 22.693,23.296 24.667,21.977C26.64,20.659 28.178,18.785 29.087,16.592C29.995,14.399 30.232,11.986 29.769,9.659C29.306,7.331 28.164,5.193 26.485,3.514C24.807,1.836 22.669,0.693 20.341,0.23C18.013,-0.233 15.601,0.005 13.408,0.913C11.215,1.821 9.341,3.36 8.022,5.333C6.704,7.306 6,9.626 6,12C6.003,15.181 7.268,18.232 9.518,20.482C11.768,22.731 14.818,23.997 18,24ZM18,4C19.582,4 21.129,4.469 22.445,5.348C23.76,6.227 24.786,7.476 25.391,8.938C25.997,10.4 26.155,12.009 25.846,13.56C25.538,15.112 24.776,16.538 23.657,17.657C22.538,18.775 21.113,19.537 19.561,19.846C18.009,20.155 16.4,19.996 14.939,19.391C13.477,18.785 12.227,17.76 11.348,16.444C10.469,15.129 10,13.582 10,12C10,9.878 10.843,7.843 12.343,6.343C13.843,4.843 15.878,4 18,4L18,4Z" fill="#374957"/>
<path d="M42,19.999L42,13.999L38,13.999L38,19.999L32,19.999L32,23.999L38,23.999L38,29.999L42,29.999L42,23.999L48,23.999L48,19.999L42,19.999Z" fill="#374957"/>
<path d="M26.086,28.001L9.914,28.001C7.286,28.004 4.766,29.05 2.907,30.908C1.049,32.767 0.003,35.287 0,37.915L0,48.001L4,48.001L4,37.915C4.002,36.347 4.625,34.844 5.734,33.735C6.843,32.626 8.346,32.003 9.914,32.001L26.086,32.001C27.654,32.003 29.157,32.626 30.266,33.735C31.375,34.844 31.998,36.347 32,37.915L32,48.001L36,48.001L36,37.915C35.997,35.287 34.951,32.767 33.093,30.908C31.234,29.05 28.714,28.004 26.086,28.001L26.086,28.001Z" fill="#374957"/>
</svg>
