<svg width="50" height="48" viewBox="0 0 50 48" fill="none" xmlns="http://www.w3.org/2000/svg" xmlns:xlink="http://www.w3.org/1999/xlink">
<path d="M4,11.98C2.939,11.98 1.922,12.401 1.172,13.152C0.421,13.902 0,14.919 0,15.98L0,32.008C0,33.069 0.421,34.086 1.172,34.836C1.922,35.587 2.939,36.008 4,36.008L9.6,36.008L24,48L24,0L9.6,11.98L4,11.98ZM20,8.536L20,39.458L11.05,32.014L4,32.014L4,15.986L11.05,15.986L20,8.536Z" fill="#374957"/>
<path d="M39.999,24.001C39.999,21.348 38.945,18.803 37.07,16.925C35.196,15.047 32.653,13.99 29.999,13.985L27.999,13.985L27.999,17.985L29.999,17.985C31.593,17.985 33.122,18.618 34.249,19.745C35.376,20.872 36.009,22.401 36.009,23.995C36.009,25.589 35.376,27.118 34.249,28.245C33.122,29.372 31.593,30.005 29.999,30.005L27.999,30.005L27.999,34.005L29.999,34.005C32.65,34 35.191,32.944 37.066,31.069C38.94,29.194 39.995,26.652 39.999,24.001L39.999,24.001Z" fill="#374957"/>
<path d="M29.999,5.969L27.999,5.969L27.999,9.969L29.999,9.969C33.718,9.969 37.285,11.446 39.915,14.076C42.546,16.706 44.023,20.273 44.023,23.993C44.023,27.712 42.546,31.279 39.915,33.909C37.285,36.539 33.718,38.017 29.999,38.017L27.999,38.017L27.999,42.017L29.999,42.017C34.781,42.017 39.367,40.117 42.748,36.736C46.129,33.354 48.029,28.768 48.029,23.987C48.029,19.205 46.129,14.619 42.748,11.237C39.367,7.856 34.781,5.957 29.999,5.957L29.999,5.969Z" fill="#374957"/>
</svg>
