<svg width="48" height="50" viewBox="0 0 48 50" fill="none" xmlns="http://www.w3.org/2000/svg" xmlns:xlink="http://www.w3.org/1999/xlink">
<path d="M21.167,41.059C19.272,42.903 16.729,43.927 14.085,43.909C11.442,43.891 8.912,42.833 7.043,40.965C5.174,39.096 4.116,36.566 4.097,33.923C4.079,31.28 5.102,28.736 6.945,26.841L15.469,18.311L12.639,15.483L4.117,24.013C1.481,26.65 0.001,30.226 0.002,33.954C0.003,37.682 1.485,41.257 4.122,43.892C6.758,46.528 10.334,48.008 14.062,48.007C17.79,48.006 21.365,46.524 24.001,43.887L32.525,35.363L29.697,32.535L21.167,41.059Z" fill="#374957"/>
<path d="M43.888,4.123C42.587,2.813 41.038,1.774 39.333,1.066C37.627,0.358 35.797,-0.004 33.95,0.001L33.95,0.001C32.105,-0.004 30.276,0.357 28.571,1.063C26.865,1.769 25.317,2.807 24.014,4.115L15.48,12.641L18.308,15.471L26.838,6.947C27.77,6.01 28.877,5.268 30.097,4.762C31.317,4.256 32.626,3.998 33.946,4.001L33.946,4.001C35.935,4.002 37.879,4.592 39.532,5.697C41.185,6.802 42.473,8.373 43.234,10.21C43.995,12.047 44.194,14.069 43.806,16.019C43.418,17.969 42.46,19.761 41.054,21.167L32.53,29.691L35.36,32.521L43.884,24.001C46.516,21.363 47.995,17.789 47.996,14.063C47.997,10.336 46.519,6.762 43.888,4.123L43.888,4.123Z" fill="#374957"/>
<path d="M34.048,22.002L13.954,22.002L13.954,26.002L34.048,26.002L34.048,22.002Z" transform="rotate(-90 24.001 24.002)" fill="#374957"/>
</svg>
