<svg width="48" height="50" viewBox="0 0 48 50" fill="none" xmlns="http://www.w3.org/2000/svg" xmlns:xlink="http://www.w3.org/1999/xlink">
<path d="M0,6L0,22L22,22L22,0L6,0C4.409,0 2.883,0.632 1.757,1.757C0.632,2.883 0,4.409 0,6L0,6ZM18,18L4,18L4,6C4,5.47 4.211,4.961 4.586,4.586C4.961,4.211 5.47,4 6,4L18,4L18,18Z" fill="#374957"/>
<path d="M0,42C0,43.592 0.632,45.118 1.757,46.243C2.883,47.368 4.409,48 6,48L22,48L22,26L0,26L0,42ZM4,30L18,30L18,44L6,44C5.47,44 4.961,43.79 4.586,43.415C4.211,43.04 4,42.531 4,42L4,30Z" fill="#374957"/>
<path d="M40,42.834L40,5.172L45.168,10.332L48,7.502L42.242,1.752C41.117,0.629 39.592,-0.001 38.003,-0.001C36.413,-0.001 34.889,0.629 33.764,1.752L28.014,7.492L30.84,10.322L36,5.164L36,42.832L30.83,37.668L28.004,40.498L33.762,46.248C34.887,47.371 36.411,48.002 38.001,48.002C39.59,48.002 41.115,47.371 42.24,46.248L48,40.508L45.174,37.678L40,42.834Z" fill="#374957"/>
</svg>
