<svg width="36" height="48" viewBox="0 0 36 48" fill="none" xmlns="http://www.w3.org/2000/svg" xmlns:xlink="http://www.w3.org/1999/xlink">
<path d="M30,0L22,0L22,2C22,3.061 21.579,4.078 20.828,4.828C20.078,5.579 19.061,6 18,6C16.939,6 15.922,5.579 15.172,4.828C14.421,4.078 14,3.061 14,2L14,0L6,0C4.409,0 2.883,0.632 1.757,1.757C0.632,2.883 0,4.409 0,6L0,48L14,48L14,46C14,44.939 14.421,43.922 15.172,43.172C15.922,42.421 16.939,42 18,42C19.061,42 20.078,42.421 20.828,43.172C21.579,43.922 22,44.939 22,46L22,48L36,48L36,6C36,4.409 35.368,2.883 34.243,1.757C33.117,0.632 31.591,0 30,0L30,0ZM25.748,44C25.306,42.281 24.305,40.758 22.902,39.67C21.5,38.582 19.775,37.992 18,37.992C16.225,37.992 14.5,38.582 13.098,39.67C11.695,40.758 10.694,42.281 10.252,44L4,44L4,34L10,34L10,30L4,30L4,6C4,5.47 4.211,4.961 4.586,4.586C4.961,4.211 5.47,4 6,4L10.252,4C10.694,5.719 11.695,7.242 13.098,8.33C14.5,9.418 16.225,10.008 18,10.008C19.775,10.008 21.5,9.418 22.902,8.33C24.305,7.242 25.306,5.719 25.748,4L30,4C30.53,4 31.039,4.211 31.414,4.586C31.789,4.961 32,5.47 32,6L32,30L26,30L26,34L32,34L32,44L25.748,44Z" fill="#374957"/>
<rect  x="14" y="30" width="8" height="4" fill="#374957"/>
</svg>
