<svg width="40" height="48" viewBox="0 0 40 48" fill="none" xmlns="http://www.w3.org/2000/svg" xmlns:xlink="http://www.w3.org/1999/xlink">
<path d="M34,48L6,48C4.415,48 2.894,47.373 1.77,46.255C0.646,45.138 0.01,43.621 0,42.036L0,11.044L20,0L40,11.044L40,42.044C39.988,43.628 39.351,45.143 38.227,46.258C37.103,47.374 35.584,48 34,48L34,48ZM4,13.384L4,42.036C4.003,42.564 4.215,43.07 4.59,43.442C4.965,43.815 5.472,44.024 6,44.024L34,44.024C34.528,44.024 35.035,43.815 35.41,43.442C35.785,43.07 35.997,42.564 36,42.036L36,13.384L20,4.548L4,13.384Z" fill="#374957"/>
<path d="M20,17.145C21.657,17.145 23,15.801 23,14.145C23,12.488 21.657,11.145 20,11.145C18.343,11.145 17,12.488 17,14.145C17,15.801 18.343,17.145 20,17.145Z" fill="#374957"/>
</svg>
