<svg width="48" height="48" viewBox="0 0 48 48" fill="none" xmlns="http://www.w3.org/2000/svg" xmlns:xlink="http://www.w3.org/1999/xlink">
<path d="M42,0L6,0C4.409,0 2.883,0.632 1.757,1.757C0.632,2.883 0,4.409 0,6L0,48L48,48L48,6C48,4.409 47.368,2.883 46.243,1.757C45.117,0.632 43.591,0 42,0L42,0ZM6,4L42,4C42.53,4 43.039,4.211 43.414,4.586C43.789,4.961 44,5.47 44,6L44,41.172L22.242,19.414C21.117,18.289 19.591,17.657 18,17.657C16.409,17.657 14.883,18.289 13.758,19.414L4,29.172L4,6C4,5.47 4.211,4.961 4.586,4.586C4.961,4.211 5.47,4 6,4L6,4ZM4,34.828L16.586,22.242C16.961,21.867 17.47,21.656 18,21.656C18.53,21.656 19.039,21.867 19.414,22.242L41.172,44L4,44L4,34.828Z" fill="#374957"/>
<path d="M32,19.999C33.187,19.999 34.347,19.647 35.333,18.987C36.32,18.328 37.089,17.391 37.543,16.295C37.997,15.198 38.116,13.992 37.885,12.828C37.653,11.664 37.082,10.595 36.243,9.756C35.404,8.917 34.334,8.345 33.171,8.114C32.007,7.882 30.8,8.001 29.704,8.455C28.608,8.909 27.67,9.678 27.011,10.665C26.352,11.652 26,12.812 26,13.999C26,15.59 26.632,17.116 27.757,18.241C28.883,19.366 30.409,19.999 32,19.999L32,19.999ZM32,11.999C32.396,11.999 32.782,12.116 33.111,12.336C33.44,12.555 33.696,12.868 33.848,13.233C33.999,13.599 34.039,14.001 33.962,14.389C33.884,14.777 33.694,15.133 33.414,15.413C33.135,15.692 32.778,15.883 32.39,15.96C32.002,16.037 31.6,15.998 31.235,15.846C30.869,15.695 30.557,15.439 30.337,15.11C30.117,14.781 30,14.394 30,13.999C30,13.468 30.211,12.959 30.586,12.584C30.961,12.209 31.47,11.999 32,11.999L32,11.999Z" fill="#374957"/>
</svg>
