<svg width="44" height="50" viewBox="0 0 44 50" fill="none" xmlns="http://www.w3.org/2000/svg" xmlns:xlink="http://www.w3.org/1999/xlink">
<path d="M42.243,19.758L22.493,0L19.665,2.836L39.415,22.586C39.79,22.961 40,23.47 40,24C40,24.53 39.79,25.039 39.415,25.414L19.639,45.2L22.467,48.028L42.243,28.252C43.367,27.127 43.999,25.601 43.999,24.01C43.999,22.419 43.367,20.893 42.243,19.768L42.243,19.758Z" fill="#374957"/>
<path d="M25.07,22.586L2.524,0.038L-0.306,2.866L20.828,24L-0.328,45.156L2.5,47.986L25.07,25.414C25.445,25.039 25.655,24.53 25.655,24C25.655,23.47 25.445,22.961 25.07,22.586L25.07,22.586Z" fill="#374957"/>
</svg>
