<svg width="48" height="48" viewBox="0 0 48 48" fill="none" xmlns="http://www.w3.org/2000/svg" xmlns:xlink="http://www.w3.org/1999/xlink">
<path d="M47.99,45.166L35.493,32.669C42.481,24.123 41.217,11.53 32.671,4.542C24.125,-2.446 11.532,-1.182 4.544,7.364C-2.444,15.91 -1.18,28.503 7.366,35.491C14.727,41.51 25.31,41.51 32.671,35.491L45.168,47.988L47.99,45.166ZM20.05,36.014C11.233,36.014 4.085,28.866 4.085,20.049C4.085,11.231 11.233,4.083 20.05,4.083C28.868,4.083 36.016,11.231 36.016,20.049C36.006,28.862 28.864,36.004 20.05,36.014Z" fill="#374957"/>
<rect  x="12.068" y="18.053" width="15.965" height="3.991" fill="#374957"/>
</svg>
