<svg width="48" height="48" viewBox="0 0 48 48" fill="none" xmlns="http://www.w3.org/2000/svg" xmlns:xlink="http://www.w3.org/1999/xlink">
<path d="M42,0L6,0C4.409,0 2.883,0.632 1.757,1.757C0.632,2.883 0,4.409 0,6L0,48L36.7,48C41.112,43.586 43.586,41.112 48,36.7L48,6C48,4.409 47.368,2.883 46.243,1.757C45.117,0.632 43.591,0 42,0L42,0ZM4,6C4,5.47 4.211,4.961 4.586,4.586C4.961,4.211 5.47,4 6,4L42,4C42.53,4 43.039,4.211 43.414,4.586C43.789,4.961 44,5.47 44,6L44,32L32,32L32,44L4,44L4,6ZM36,43.042L36,36L43.042,36L36,43.042Z" fill="#374957"/>
<path d="M21.968,10L18.034,10L18.034,22.138L20.534,22.138L20.534,17.938L21.968,17.938C23.021,17.938 24.031,17.519 24.775,16.775C25.52,16.03 25.938,15.02 25.938,13.968C25.938,12.915 25.52,11.905 24.775,11.16C24.031,10.416 23.021,9.998 21.968,9.998L21.968,10ZM21.968,15.44L20.548,15.44L20.548,12.494L21.978,12.494C22.368,12.494 22.742,12.648 23.018,12.924C23.293,13.2 23.448,13.574 23.448,13.964C23.448,14.353 23.293,14.727 23.018,15.003C22.742,15.279 22.368,15.434 21.978,15.434L21.968,15.44Z" fill="#374957"/>
<path d="M32.119,19.526C31.672,19.532 31.229,19.446 30.816,19.274C30.403,19.102 30.03,18.848 29.719,18.526L28.879,17.6L27.027,19.282L27.867,20.206C28.411,20.79 29.071,21.255 29.805,21.569C30.538,21.884 31.329,22.042 32.127,22.034C33.063,22.074 33.983,21.784 34.727,21.216C35.471,20.647 35.992,19.835 36.199,18.922C36.314,18.021 36.09,17.109 35.569,16.365C35.048,15.621 34.269,15.097 33.383,14.896C32.065,14.408 30.869,13.882 30.837,13.882C30.741,13.818 30.665,13.727 30.618,13.621C30.572,13.514 30.558,13.396 30.577,13.282C30.612,13.103 30.7,12.938 30.83,12.81C30.959,12.681 31.124,12.594 31.303,12.56C31.751,12.466 32.214,12.47 32.66,12.574C33.106,12.678 33.523,12.878 33.883,13.16L34.833,13.96L36.433,12.048L35.475,11.248C34.797,10.702 34.001,10.32 33.15,10.134C32.299,9.947 31.416,9.961 30.571,10.174C29.937,10.347 29.365,10.7 28.926,11.189C28.486,11.679 28.197,12.284 28.093,12.934C28.008,13.555 28.11,14.188 28.387,14.751C28.664,15.314 29.103,15.781 29.647,16.092C29.647,16.092 31.003,16.692 32.507,17.252C32.825,17.37 33.851,17.806 33.727,18.496C33.611,18.821 33.39,19.099 33.099,19.285C32.808,19.472 32.464,19.556 32.119,19.526L32.119,19.526Z" fill="#374957"/>
<path d="M7.996,22.043L14.522,22.043L14.522,19.543L10.496,19.543L10.496,17.269L14.224,17.269L14.224,14.769L10.496,14.769L10.496,12.493L14.522,12.493L14.522,9.993L7.996,9.993L7.996,22.043Z" fill="#374957"/>
</svg>
