<svg width="48" height="48" viewBox="0 0 48 48" fill="none" xmlns="http://www.w3.org/2000/svg" xmlns:xlink="http://www.w3.org/1999/xlink">
<path d="M24.064,38C24.853,38.001 25.633,37.847 26.362,37.546C27.09,37.244 27.752,36.802 28.308,36.244L36.146,28.4L33.318,25.58L26.052,32.848L26,0L22,0L22.052,32.816L14.812,25.576L11.984,28.4L19.822,36.238C20.379,36.797 21.04,37.24 21.768,37.542C22.496,37.845 23.276,38 24.064,38L24.064,38Z" fill="#374957"/>
<path d="M44,32L44,42C44,42.531 43.789,43.04 43.414,43.415C43.039,43.79 42.53,44 42,44L6,44C5.47,44 4.961,43.79 4.586,43.415C4.211,43.04 4,42.531 4,42L4,32L0,32L0,42C0,43.592 0.632,45.118 1.757,46.243C2.883,47.368 4.409,48 6,48L42,48C43.591,48 45.117,47.368 46.243,46.243C47.368,45.118 48,43.592 48,42L48,32L44,32Z" fill="#374957"/>
</svg>
