<svg width="48" height="48" viewBox="0 0 48 48" fill="none" xmlns="http://www.w3.org/2000/svg" xmlns:xlink="http://www.w3.org/1999/xlink">
<path d="M48,6C48,4.409 47.368,2.883 46.243,1.757C45.117,0.632 43.591,0 42,0L6,0C4.409,0 2.883,0.632 1.757,1.757C0.632,2.883 0,4.409 0,6L0,18L2,18L2,48L46,48L46,18L48,18L48,6ZM4,6C4,5.47 4.211,4.961 4.586,4.586C4.961,4.211 5.47,4 6,4L42,4C42.53,4 43.039,4.211 43.414,4.586C43.789,4.961 44,5.47 44,6L44,14L4,14L4,6ZM42,44L6,44L6,18L42,18L42,44Z" fill="#374957"/>
<rect  x="16" y="24" width="16" height="4" fill="#374957"/>
</svg>
