<svg width="50" height="48" viewBox="0 0 50 48" fill="none" xmlns="http://www.w3.org/2000/svg" xmlns:xlink="http://www.w3.org/1999/xlink">
<path d="M18,24C15.627,24 13.307,23.296 11.333,21.978C9.36,20.659 7.822,18.785 6.913,16.592C6.005,14.4 5.768,11.987 6.231,9.659C6.694,7.331 7.836,5.193 9.515,3.515C11.193,1.836 13.331,0.694 15.659,0.231C17.987,-0.232 20.399,0.005 22.592,0.913C24.785,1.822 26.659,3.36 27.978,5.333C29.296,7.307 30,9.627 30,12C29.997,15.182 28.732,18.232 26.482,20.482C24.232,22.732 21.182,23.997 18,24L18,24ZM18,4C16.418,4 14.871,4.469 13.555,5.348C12.24,6.227 11.214,7.477 10.609,8.939C10.003,10.4 9.845,12.009 10.154,13.561C10.462,15.113 11.224,16.538 12.343,17.657C13.462,18.776 14.887,19.538 16.439,19.846C17.991,20.155 19.6,19.997 21.061,19.391C22.523,18.786 23.773,17.76 24.652,16.445C25.531,15.129 26,13.582 26,12C26,9.878 25.157,7.843 23.657,6.343C22.157,4.843 20.122,4 18,4Z" fill="#374957"/>
<path d="M36,47.999L32,47.999L32,37.913C31.998,36.346 31.374,34.843 30.265,33.734C29.157,32.625 27.654,32.002 26.086,31.999L9.914,31.999C8.346,32.002 6.843,32.625 5.734,33.734C4.626,34.843 4.002,36.346 4,37.913L4,47.999L0,47.999L0,37.913C0.003,35.285 1.049,32.765 2.907,30.907C4.766,29.048 7.286,28.003 9.914,28L26.086,28C28.714,28.003 31.234,29.048 33.093,30.907C34.951,32.765 35.997,35.285 36,37.913L36,47.999Z" fill="#374957"/>
<path d="M44,15.75C42.887,15.805 41.842,16.3 41.092,17.124C40.342,17.949 39.95,19.037 40,20.15C40.051,19.037 39.658,17.949 38.909,17.124C38.159,16.3 37.113,15.805 36,15.75C34.887,15.805 33.842,16.3 33.092,17.124C32.342,17.949 31.95,19.037 32,20.15C32,24.75 40,30.416 40,30.416C40,30.416 48,24.758 48,20.15C48.051,19.037 47.658,17.949 46.909,17.124C46.159,16.3 45.113,15.805 44,15.75L44,15.75Z" fill="#374957"/>
</svg>
