<svg width="48" height="48" viewBox="0 0 48 48" fill="none" xmlns="http://www.w3.org/2000/svg" xmlns:xlink="http://www.w3.org/1999/xlink">
<path d="M24,0C18.092,0.018 12.397,2.209 8,6.156L8,0L4,0L4,10.286C4.001,11.271 4.393,12.215 5.089,12.911C5.785,13.607 6.729,13.999 7.714,14L18,14L18,10L9.758,10C13.009,6.707 17.302,4.645 21.904,4.166C26.506,3.688 31.131,4.822 34.99,7.375C38.849,9.929 41.701,13.743 43.06,18.166C44.418,22.589 44.199,27.346 42.439,31.625C40.679,35.904 37.488,39.44 33.41,41.627C29.333,43.814 24.623,44.518 20.084,43.618C15.546,42.717 11.461,40.269 8.527,36.691C5.593,33.113 3.993,28.627 4,24L0,24C0,28.747 1.408,33.387 4.045,37.334C6.682,41.28 10.43,44.357 14.816,46.173C19.201,47.99 24.027,48.465 28.682,47.539C33.338,46.613 37.614,44.327 40.971,40.971C44.327,37.614 46.613,33.338 47.539,28.682C48.465,24.027 47.99,19.201 46.173,14.816C44.357,10.43 41.28,6.682 37.334,4.045C33.387,1.408 28.747,0 24,0L24,0Z" fill="#374957"/>
<path d="M22,13.999L22,24.827L28.586,31.413L31.414,28.585L26,23.171L26,13.999L22,13.999Z" fill="#374957"/>
</svg>
