<svg width="48" height="48" viewBox="0 0 48 48" fill="none" xmlns="http://www.w3.org/2000/svg" xmlns:xlink="http://www.w3.org/1999/xlink">
<path d="M42.001,48L32.001,48L32.001,44L42.001,44C42.531,44 43.04,43.79 43.415,43.415C43.79,43.04 44.001,42.531 44.001,42L44.001,32L48.001,32L48.001,42C48.001,43.592 47.369,45.118 46.244,46.243C45.118,47.368 43.592,48 42.001,48Z" fill="#374957"/>
<path d="M4,16L0,16L0,6C0,4.409 0.632,2.883 1.757,1.757C2.883,0.632 4.409,0 6,0L16,0L16,4L6,4C5.47,4 4.961,4.211 4.586,4.586C4.211,4.961 4,5.47 4,6L4,16Z" fill="#374957"/>
<path d="M16,48L6,48C4.409,48 2.883,47.368 1.757,46.243C0.632,45.118 0,43.592 0,42L0,32L4,32L4,42C4,42.531 4.211,43.04 4.586,43.415C4.961,43.79 5.47,44 6,44L16,44L16,48Z" fill="#374957"/>
<path d="M48.001,16L44.001,16L44.001,6C44.001,5.47 43.79,4.961 43.415,4.586C43.04,4.211 42.531,4 42.001,4L32.001,4L32.001,0L42.001,0C43.592,0 45.118,0.632 46.244,1.757C47.369,2.883 48.001,4.409 48.001,6L48.001,16Z" fill="#374957"/>
<path d="M36.585,39.414L19.413,22.241C19.038,21.867 18.529,21.656 17.999,21.656C17.469,21.656 16.96,21.867 16.585,22.241L9.413,29.413L6.585,26.585L13.757,19.413C14.882,18.289 16.408,17.657 17.999,17.657C19.59,17.657 21.116,18.289 22.241,19.413L39.413,36.585L36.585,39.414Z" fill="#374957"/>
<path d="M32.001,20C30.814,20 29.654,19.649 28.668,18.989C27.681,18.33 26.912,17.393 26.458,16.297C26.004,15.2 25.885,13.994 26.116,12.83C26.348,11.666 26.919,10.597 27.758,9.758C28.597,8.919 29.667,8.347 30.83,8.116C31.994,7.884 33.201,8.003 34.297,8.457C35.393,8.911 36.331,9.68 36.99,10.667C37.649,11.654 38.001,12.814 38.001,14C38.001,15.592 37.369,17.118 36.244,18.243C35.118,19.368 33.592,20 32.001,20L32.001,20ZM32.001,12C31.605,12 31.219,12.118 30.89,12.338C30.561,12.557 30.305,12.87 30.153,13.235C30.002,13.601 29.962,14.003 30.039,14.391C30.117,14.779 30.307,15.135 30.587,15.415C30.866,15.694 31.223,15.885 31.611,15.962C31.999,16.039 32.401,16 32.766,15.848C33.132,15.697 33.444,15.441 33.664,15.112C33.884,14.783 34.001,14.396 34.001,14C34.001,13.47 33.79,12.961 33.415,12.586C33.04,12.211 32.531,12 32.001,12Z" fill="#374957"/>
</svg>
