<svg width="48" height="48" viewBox="0 0 48 48" fill="none" xmlns="http://www.w3.org/2000/svg" xmlns:xlink="http://www.w3.org/1999/xlink">
<path d="M42,0L6,0C2.686,0 0,2.686 0,6L0,48L36.7,48C41.112,43.586 43.586,41.112 48,36.7L48,6C48,2.686 45.314,0 42,0ZM4,6C4,4.895 4.895,4 6,4L42,4C43.105,4 44,4.895 44,6L44,32L32,32L32,44L4,44L4,6ZM36,43.042L36,36L43.042,36L36,43.042Z" fill="#374957"/>
<path d="M32.62,10.054L28.718,10.054L28.718,10.07L28.718,11.736L28.74,21.91L29.99,21.91C29.99,21.91 31.958,21.91 32.716,21.89C35.667,21.669 37.644,19.326 37.644,15.98C37.644,12.436 35.626,10.054 32.62,10.054ZM32.672,19.386C32.344,19.386 31.788,19.396 31.272,19.4L31.234,12.554L32.634,12.554C34.978,12.554 35.158,15.176 35.158,15.98C35.144,17.654 34.382,19.356 32.672,19.386Z" fill="#374957"/>
<path d="M11.894,10.001L7.96,10.001L7.96,22.139L10.46,22.139L10.46,17.939L11.894,17.939C14.087,17.939 15.864,16.162 15.864,13.969C15.864,11.776 14.087,9.999 11.894,9.999L11.894,10.001L11.894,10.001ZM11.894,15.441L10.474,15.441L10.474,12.495L11.904,12.495C12.716,12.495 13.374,13.152 13.375,13.964C13.375,14.776 12.717,15.435 11.906,15.435C11.905,15.435 11.904,15.435 11.904,15.435L11.894,15.441Z" fill="#374957"/>
<path d="M21.23,12.561C22.136,12.369 23.081,12.589 23.81,13.161L24.762,13.961L26.362,12.049L25.404,11.249C24.027,10.144 22.212,9.747 20.5,10.177C19.203,10.53 18.234,11.61 18.022,12.937C17.847,14.208 18.462,15.458 19.576,16.095C19.576,16.095 20.932,16.695 22.436,17.255C22.754,17.373 23.78,17.809 23.656,18.497C23.421,19.177 22.752,19.608 22.036,19.541C21.133,19.552 20.265,19.191 19.636,18.541L18.8,17.599L16.95,19.279L17.79,20.205C18.889,21.386 20.435,22.05 22.048,22.033C23.98,22.121 25.697,20.814 26.128,18.929C26.369,17.061 25.149,15.317 23.312,14.901C22,14.415 20.8,13.889 20.766,13.889C20.569,13.758 20.467,13.523 20.506,13.289C20.576,12.921 20.862,12.633 21.23,12.561Z" fill="#374957"/>
</svg>
