<svg width="40" height="48" viewBox="0 0 40 48" fill="none" xmlns="http://www.w3.org/2000/svg" xmlns:xlink="http://www.w3.org/1999/xlink">
<path d="M34,0L6,0C4.409,0 2.883,0.632 1.757,1.757C0.632,2.883 0,4.409 0,6L0,48L40,48L40,6C40,4.409 39.368,2.883 38.243,1.757C37.117,0.632 35.591,0 34,0L34,0ZM6,4L34,4C34.53,4 35.039,4.211 35.414,4.586C35.789,4.961 36,5.47 36,6L36,22L4,22L4,6C4,5.47 4.211,4.961 4.586,4.586C4.961,4.211 5.47,4 6,4ZM4,44L4,26L36,26L36,44L4,44Z" fill="#374957"/>
<rect  x="16" y="12" width="8" height="4" fill="#374957"/>
<rect  x="16" y="34" width="8" height="4" fill="#374957"/>
</svg>
