<svg width="48" height="48" viewBox="0 0 48 48" fill="none" xmlns="http://www.w3.org/2000/svg" xmlns:xlink="http://www.w3.org/1999/xlink">
<path d="M9,39L9,44L6,44C5.47,44 4.961,43.79 4.586,43.415C4.211,43.04 4,42.531 4,42L4,39L9,39ZM13,35L0,35L0,42C0,43.592 0.632,45.118 1.757,46.243C2.883,47.368 4.409,48 6,48L13,48L13,35Z" fill="#374957"/>
<path d="M44,39L44,42C44,42.531 43.789,43.04 43.414,43.415C43.039,43.79 42.53,44 42,44L39,44L39,39L44,39ZM48,35L35,35L35,48L42,48C43.591,48 45.117,47.368 46.243,46.243C47.368,45.118 48,43.592 48,42L48,35Z" fill="#374957"/>
<path d="M9,21.5L9,26.499L4,26.499L4,21.5L9,21.5ZM13,17.5L0,17.5L0,30.499L13,30.499L13,17.5Z" fill="#374957"/>
<path d="M44,21.5L44,26.499L39,26.499L39,21.5L44,21.5ZM48,17.5L35,17.5L35,30.499L48,30.499L48,17.5Z" fill="#374957"/>
<path d="M9,4L9,9L4,9L4,6C4,5.47 4.211,4.961 4.586,4.586C4.961,4.211 5.47,4 6,4L9,4ZM13,0L6,0C4.409,0 2.883,0.632 1.757,1.757C0.632,2.883 0,4.409 0,6L0,13L13,13L13,0Z" fill="#374957"/>
<path d="M26.5,39L26.5,44L21.5,44L21.5,39L26.5,39ZM30.5,35L17.5,35L17.5,48L30.5,48L30.5,35Z" fill="#374957"/>
<path d="M26.5,21.5L26.5,26.499L21.5,26.499L21.5,21.5L26.5,21.5ZM30.5,17.5L17.5,17.5L17.5,30.499L30.5,30.499L30.5,17.5Z" fill="#374957"/>
<path d="M26.5,4L26.5,9L21.5,9L21.5,4L26.5,4ZM30.5,0L17.5,0L17.5,13L30.5,13L30.5,0Z" fill="#374957"/>
<path d="M42,4C42.53,4 43.039,4.211 43.414,4.586C43.789,4.961 44,5.47 44,6L44,9L39,9L39,4L42,4ZM42,0L35,0L35,13L48,13L48,6C48,4.409 47.368,2.883 46.243,1.757C45.117,0.632 43.591,0 42,0L42,0Z" fill="#374957"/>
</svg>
