<svg width="48" height="48" viewBox="0 0 48 48" fill="none" xmlns="http://www.w3.org/2000/svg" xmlns:xlink="http://www.w3.org/1999/xlink">
<path d="M19.999,12C21.704,12.007 23.362,12.56 24.729,13.578C26.097,14.596 27.103,16.025 27.599,17.656L31.953,19.238C31.809,16.932 31.003,14.718 29.632,12.859C28.26,11.001 26.382,9.578 24.221,8.761C22.061,7.944 19.71,7.768 17.452,8.253C15.194,8.739 13.125,9.866 11.491,11.5C9.858,13.133 8.731,15.203 8.245,17.461C7.759,19.719 7.935,22.069 8.752,24.229C9.569,26.39 10.992,28.269 12.851,29.64C14.709,31.012 16.924,31.818 19.229,31.962L17.655,27.6C15.829,27.038 14.266,25.841 13.248,24.224C12.231,22.607 11.827,20.679 12.111,18.79C12.395,16.902 13.347,15.177 14.795,13.931C16.242,12.685 18.089,11.999 19.999,12L19.999,12Z" fill="#374957"/>
<path d="M20,36C16.835,36 13.742,35.062 11.111,33.304C8.479,31.545 6.429,29.047 5.218,26.123C4.007,23.199 3.69,19.982 4.307,16.879C4.924,13.775 6.448,10.924 8.686,8.686C10.924,6.449 13.774,4.925 16.878,4.308C19.982,3.69 23.199,4.007 26.123,5.218C29.046,6.429 31.545,8.48 33.303,11.111C35.061,13.742 36,16.836 36,20C36,20.234 35.974,20.462 35.964,20.694L39.884,22.12C40.329,17.998 39.485,13.84 37.467,10.218C35.449,6.597 32.357,3.69 28.618,1.9C24.879,0.11 20.676,-0.476 16.59,0.223C12.503,0.922 8.734,2.872 5.803,5.803C2.871,8.735 0.922,12.504 0.222,16.59C-0.477,20.676 0.109,24.879 1.9,28.618C3.69,32.358 6.596,35.449 10.218,37.467C13.839,39.485 17.998,40.329 22.12,39.884L20.694,35.964C20.462,35.974 20.234,36 20,36Z" fill="#374957"/>
<path d="M47.999,29.557L27.075,21.957C26.36,21.697 25.585,21.647 24.842,21.812C24.1,21.977 23.419,22.35 22.881,22.888C22.343,23.426 21.969,24.106 21.804,24.849C21.639,25.592 21.689,26.366 21.949,27.081L29.557,47.999L37.357,40.199L42.943,45.785L45.771,42.957L40.199,37.365L47.999,29.557ZM31.171,40.729L25.709,25.709L40.729,31.171L31.171,40.729Z" fill="#374957"/>
</svg>
