<svg width="48" height="46" viewBox="0 0 48 46" fill="none" xmlns="http://www.w3.org/2000/svg" xmlns:xlink="http://www.w3.org/1999/xlink">
<path d="M35.583,12.424C34.694,8.603 32.432,5.241 29.227,2.978C26.022,0.715 22.097,-0.291 18.199,0.15C14.3,0.592 10.7,2.45 8.082,5.372C5.464,8.295 4.011,12.077 3.999,16C3.996,18.557 4.613,21.077 5.799,23.342C3.641,24.499 1.932,26.343 0.942,28.582C-0.048,30.821 -0.261,33.327 0.337,35.701C0.935,38.075 2.308,40.181 4.24,41.685C6.172,43.188 8.551,44.003 10.999,44L23.999,44L23.999,40L10.999,40C9.296,40.005 7.649,39.388 6.37,38.264C5.09,37.14 4.266,35.587 4.051,33.897C3.837,32.207 4.248,30.498 5.206,29.09C6.164,27.682 7.604,26.673 9.255,26.252L12.129,25.51L10.363,23.124C8.826,21.067 7.996,18.568 7.999,16C8.022,12.972 9.188,10.065 11.265,7.861C13.342,5.657 16.175,4.32 19.196,4.118C22.217,3.915 25.204,4.863 27.556,6.77C29.908,8.677 31.452,11.402 31.879,14.4L32.079,15.916L33.593,16.116C36.265,16.467 38.74,17.707 40.62,19.638C42.5,21.569 43.674,24.078 43.952,26.758C44.23,29.439 43.596,32.135 42.153,34.41C40.71,36.686 38.542,38.409 35.999,39.3L35.999,43.474C39.467,42.582 42.536,40.551 44.711,37.706C46.887,34.861 48.044,31.367 47.996,27.786C47.948,24.205 46.698,20.743 44.447,17.958C42.196,15.172 39.074,13.223 35.583,12.424L35.583,12.424Z" fill="#374957"/>
<path d="M36.586,33.415L39.414,30.587L32.828,24.001C32.078,23.251 31.061,22.83 30,22.83C28.939,22.83 27.922,23.251 27.172,24.001L20.586,30.587L23.414,33.415L28,28.829L28,46.001L32,46.001L32,28.829L36.586,33.415Z" fill="#374957"/>
</svg>
