<svg width="48" height="48" viewBox="0 0 48 48" fill="none" xmlns="http://www.w3.org/2000/svg" xmlns:xlink="http://www.w3.org/1999/xlink">
<path d="M42,48L32,48L32,44L42,44C42.53,44 43.039,43.79 43.414,43.415C43.789,43.04 44,42.531 44,42L44,32L48,32L48,42C48,43.592 47.368,45.118 46.243,46.243C45.117,47.368 43.591,48 42,48Z" fill="#374957"/>
<path d="M4,16L0,16L0,6C0,4.409 0.632,2.883 1.757,1.757C2.883,0.632 4.409,0 6,0L16,0L16,4L6,4C5.47,4 4.961,4.211 4.586,4.586C4.211,4.961 4,5.47 4,6L4,16Z" fill="#374957"/>
<path d="M16,48L6,48C4.409,48 2.883,47.368 1.757,46.243C0.632,45.118 0,43.592 0,42L0,32L4,32L4,42C4,42.531 4.211,43.04 4.586,43.415C4.961,43.79 5.47,44 6,44L16,44L16,48Z" fill="#374957"/>
<path d="M48,16L44,16L44,6C44,5.47 43.789,4.961 43.414,4.586C43.039,4.211 42.53,4 42,4L32,4L32,0L42,0C43.591,0 45.117,0.632 46.243,1.757C47.368,2.883 48,4.409 48,6L48,16Z" fill="#374957"/>
<path d="M24,22C22.418,22 20.871,21.531 19.555,20.652C18.24,19.773 17.214,18.523 16.609,17.061C16.003,15.6 15.845,13.991 16.154,12.439C16.462,10.887 17.224,9.462 18.343,8.343C19.462,7.224 20.887,6.462 22.439,6.154C23.991,5.845 25.6,6.003 27.061,6.609C28.523,7.214 29.773,8.24 30.652,9.555C31.531,10.871 32,12.418 32,14C32,16.122 31.157,18.157 29.657,19.657C28.157,21.157 26.122,22 24,22ZM24,10C23.209,10 22.436,10.235 21.778,10.674C21.12,11.114 20.607,11.738 20.304,12.469C20.002,13.2 19.923,14.004 20.077,14.78C20.231,15.556 20.612,16.269 21.172,16.828C21.731,17.388 22.444,17.769 23.22,17.923C23.996,18.077 24.8,17.998 25.531,17.696C26.262,17.393 26.886,16.88 27.326,16.222C27.765,15.564 28,14.791 28,14C28,12.939 27.579,11.922 26.828,11.172C26.078,10.421 25.061,10 24,10L24,10Z" fill="#374957"/>
<path d="M38,40L34,40L34,32C34,31.47 33.789,30.961 33.414,30.586C33.039,30.211 32.53,30 32,30L16,30C15.47,30 14.961,30.211 14.586,30.586C14.211,30.961 14,31.47 14,32L14,40L10,40L10,32C10,30.409 10.632,28.883 11.757,27.758C12.883,26.633 14.409,26 16,26L32,26C33.591,26 35.117,26.633 36.243,27.758C37.368,28.883 38,30.409 38,32L38,40Z" fill="#374957"/>
</svg>
