<svg width="48" height="48" viewBox="0 0 48 48" fill="none" xmlns="http://www.w3.org/2000/svg" xmlns:xlink="http://www.w3.org/1999/xlink">
<path d="M4,42L4,6C4,5.47 4.211,4.961 4.586,4.586C4.961,4.211 5.47,4 6,4L16,4L16,0L6,0C4.409,0 2.883,0.632 1.757,1.757C0.632,2.883 0,4.409 0,6L0,42C0,43.591 0.632,45.117 1.757,46.243C2.883,47.368 4.409,48 6,48L16,48L16,44L6,44C5.47,44 4.961,43.789 4.586,43.414C4.211,43.039 4,42.53 4,42L4,42Z" fill="#374957"/>
<path d="M48.001,25.999L48.001,21.999L15.113,22.061L23.759,13.413L20.927,10.585L11.755,19.757C10.63,20.882 9.998,22.408 9.998,23.999C9.998,25.59 10.63,27.116 11.755,28.241L20.927,37.413L23.755,34.585L15.229,26.059L48.001,25.999Z" fill="#374957"/>
</svg>
