<svg width="48" height="48" viewBox="0 0 48 48" fill="none" xmlns="http://www.w3.org/2000/svg" xmlns:xlink="http://www.w3.org/1999/xlink">
<path d="M24,48C19.253,48 14.613,46.592 10.666,43.955C6.72,41.318 3.643,37.57 1.827,33.184C0.01,28.799 -0.465,23.973 0.461,19.318C1.387,14.662 3.673,10.386 7.029,7.029C10.386,3.673 14.662,1.387 19.318,0.461C23.973,-0.465 28.799,0.01 33.184,1.827C37.57,3.643 41.318,6.72 43.955,10.666C46.592,14.613 48,19.253 48,24C47.993,30.363 45.462,36.464 40.963,40.963C36.464,45.462 30.363,47.993 24,48L24,48ZM24,4C20.044,4 16.178,5.173 12.889,7.371C9.6,9.568 7.036,12.692 5.522,16.346C4.009,20.001 3.613,24.022 4.384,27.902C5.156,31.781 7.061,35.345 9.858,38.142C12.655,40.939 16.219,42.844 20.098,43.616C23.978,44.387 27.999,43.991 31.654,42.478C35.308,40.964 38.432,38.4 40.629,35.111C42.827,31.822 44,27.956 44,24C43.994,18.697 41.885,13.614 38.136,9.864C34.386,6.115 29.303,4.006 24,4L24,4Z" fill="#374957"/>
<path d="M25.999,29.999L21.999,29.999L21.999,28.513C21.969,27.102 22.318,25.709 23.009,24.478C23.7,23.247 24.707,22.223 25.927,21.513C26.666,21.106 27.257,20.476 27.617,19.713C27.976,18.949 28.084,18.092 27.927,17.263C27.771,16.474 27.383,15.748 26.814,15.18C26.244,14.612 25.517,14.226 24.727,14.073C24.15,13.966 23.557,13.988 22.99,14.136C22.423,14.284 21.895,14.554 21.444,14.929C20.993,15.304 20.629,15.773 20.38,16.303C20.13,16.834 20,17.413 19.999,17.999L15.999,17.999C16,16.588 16.373,15.202 17.082,13.982C17.791,12.762 18.81,11.752 20.036,11.053C21.261,10.354 22.65,9.991 24.061,10.002C25.472,10.013 26.855,10.397 28.07,11.115C29.284,11.833 30.287,12.859 30.977,14.09C31.667,15.321 32.019,16.712 31.998,18.123C31.977,19.534 31.583,20.914 30.856,22.123C30.129,23.333 29.095,24.328 27.859,25.009C27.268,25.378 26.786,25.897 26.459,26.512C26.133,27.127 25.974,27.817 25.999,28.513L25.999,29.999Z" fill="#374957"/>
<rect  x="21.999" y="34" width="4" height="4" fill="#374957"/>
</svg>
