<svg width="48" height="48" viewBox="0 0 48 48" fill="none" xmlns="http://www.w3.org/2000/svg" xmlns:xlink="http://www.w3.org/1999/xlink">
<path d="M22,22L0,22L0,6C0,4.409 0.632,2.883 1.757,1.757C2.883,0.632 4.409,0 6,0L22,0L22,22ZM4,18L18,18L18,4L6,4C5.47,4 4.961,4.211 4.586,4.586C4.211,4.961 4,5.47 4,6L4,18Z" fill="#374957"/>
<path d="M48,22L26,22L26,0L42,0C43.591,0 45.117,0.632 46.243,1.757C47.368,2.883 48,4.409 48,6L48,22ZM30,18L44,18L44,6C44,5.47 43.789,4.961 43.414,4.586C43.039,4.211 42.53,4 42,4L30,4L30,18Z" fill="#374957"/>
<path d="M22,48L6,48C4.409,48 2.883,47.368 1.757,46.243C0.632,45.117 0,43.591 0,42L0,26L22,26L22,48ZM4,30L4,42C4,42.53 4.211,43.039 4.586,43.414C4.961,43.789 5.47,44 6,44L18,44L18,30L4,30Z" fill="#374957"/>
<path d="M42,48L26,48L26,26L48,26L48,42C48,43.591 47.368,45.117 46.243,46.243C45.117,47.368 43.591,48 42,48ZM30,44L42,44C42.53,44 43.039,43.789 43.414,43.414C43.789,43.039 44,42.53 44,42L44,30L30,30L30,44Z" fill="#374957"/>
</svg>
