<svg width="48" height="36" viewBox="0 0 48 36" fill="none" xmlns="http://www.w3.org/2000/svg" xmlns:xlink="http://www.w3.org/1999/xlink">
<path d="M47.642,16.362C45.886,12.522 39,0 24,0C9,0 2.114,12.522 0.358,16.362C0.122,16.877 0,17.436 0,18.002C0,18.568 0.122,19.127 0.358,19.642C2.114,23.478 9,36 24,36C39,36 45.886,23.478 47.642,19.638C47.877,19.124 47.999,18.565 47.999,18C47.999,17.435 47.877,16.876 47.642,16.362L47.642,16.362ZM24,32C11.386,32 5.5,21.268 4,18.022C5.5,14.732 11.386,4 24,4C36.584,4 42.472,14.686 44,18C42.472,21.314 36.584,32 24,32Z" fill="#374957"/>
<path d="M24,8C22.022,8 20.089,8.587 18.444,9.686C16.8,10.785 15.518,12.346 14.761,14.174C14.004,16.001 13.806,18.012 14.192,19.951C14.578,21.891 15.53,23.673 16.929,25.072C18.327,26.47 20.109,27.422 22.049,27.808C23.989,28.194 26,27.996 27.827,27.239C29.654,26.482 31.216,25.201 32.315,23.556C33.414,21.912 34,19.978 34,18C33.997,15.349 32.942,12.808 31.068,10.933C29.193,9.058 26.651,8.004 24,8L24,8ZM24,24C22.813,24 21.653,23.649 20.667,22.989C19.68,22.33 18.911,21.393 18.457,20.297C18.003,19.2 17.884,17.994 18.115,16.83C18.347,15.666 18.918,14.597 19.757,13.758C20.596,12.919 21.666,12.347 22.829,12.116C23.993,11.884 25.2,12.003 26.296,12.457C27.392,12.911 28.33,13.68 28.989,14.667C29.648,15.654 30,16.814 30,18C30,19.592 29.368,21.118 28.243,22.243C27.117,23.368 25.591,24 24,24Z" fill="#374957"/>
</svg>
