<svg width="40" height="50" viewBox="0 0 40 50" fill="none" xmlns="http://www.w3.org/2000/svg" xmlns:xlink="http://www.w3.org/1999/xlink">
<path d="M19.896,48.019L19.188,47.705C18.4,47.359 0,39.049 0,24.001L0,10.953C0.001,9.697 0.398,8.474 1.134,7.457C1.871,6.44 2.909,5.681 4.102,5.289L20,0.019L35.898,5.289C37.091,5.681 38.129,6.44 38.866,7.457C39.602,8.474 39.999,9.697 40,10.953L40,24.001C40,41.155 21.424,47.511 20.632,47.775L19.896,48.019ZM20,4.213L5.368,9.065C4.97,9.195 4.623,9.448 4.377,9.787C4.132,10.126 4,10.534 4,10.953L4,24.001C4,34.989 16.88,42.117 20.094,43.723C23.302,42.433 36,36.527 36,24.001L36,10.953C36,10.534 35.868,10.126 35.623,9.787C35.377,9.448 35.03,9.195 34.632,9.065L20,4.213Z" fill="#374957"/>
<path d="M18.222,29.084L18.156,29.084C17.65,29.076 17.151,28.966 16.689,28.76C16.226,28.553 15.81,28.255 15.466,27.884L10.854,23.084L13.736,20.32L18.224,25L28.586,14.638L31.414,17.466L20.892,27.988C20.542,28.338 20.126,28.615 19.667,28.803C19.209,28.992 18.718,29.087 18.222,29.084Z" fill="#374957"/>
</svg>
