<svg width="48" height="46" viewBox="0 0 48 46" fill="none" xmlns="http://www.w3.org/2000/svg" xmlns:xlink="http://www.w3.org/1999/xlink">
<path d="M35.584,12.424C34.695,8.603 32.433,5.241 29.228,2.978C26.023,0.715 22.098,-0.291 18.2,0.15C14.301,0.592 10.701,2.45 8.083,5.372C5.465,8.295 4.012,12.077 4,16C3.997,18.557 4.614,21.077 5.8,23.342C3.642,24.499 1.932,26.343 0.943,28.582C-0.047,30.821 -0.26,33.327 0.338,35.701C0.936,38.075 2.309,40.181 4.241,41.685C6.173,43.188 8.552,44.003 11,44L24,44L24,40L11,40C9.297,40.005 7.65,39.388 6.371,38.264C5.091,37.14 4.267,35.587 4.052,33.897C3.838,32.207 4.249,30.498 5.207,29.09C6.165,27.682 7.605,26.673 9.256,26.252L12.13,25.51L10.364,23.124C8.827,21.067 7.997,18.568 8,16C8.022,12.972 9.189,10.065 11.266,7.861C13.343,5.657 16.176,4.32 19.197,4.118C22.218,3.915 25.205,4.863 27.557,6.77C29.909,8.677 31.453,11.402 31.88,14.4L32.08,15.916L33.594,16.116C36.266,16.467 38.741,17.707 40.621,19.638C42.501,21.569 43.675,24.078 43.953,26.758C44.231,29.439 43.597,32.135 42.154,34.41C40.711,36.686 38.543,38.409 36,39.3L36,43.474C39.468,42.582 42.537,40.551 44.712,37.706C46.888,34.861 48.045,31.367 47.997,27.786C47.949,24.205 46.699,20.743 44.448,17.958C42.197,15.172 39.075,13.223 35.584,12.424L35.584,12.424Z" fill="#374957"/>
<path d="M36.586,33.415L39.414,30.587L32.828,24.001C32.078,23.251 31.061,22.83 30,22.83C28.939,22.83 27.922,23.251 27.172,24.001L20.586,30.587L23.414,33.415L28,28.829L28,46.001L32,46.001L32,28.829L36.586,33.415Z" fill="#374957"/>
</svg>
