<svg width="32" height="48" viewBox="0 0 32 48" fill="none" xmlns="http://www.w3.org/2000/svg" xmlns:xlink="http://www.w3.org/1999/xlink">
<path d="M0,0L0,42C0,43.591 0.632,45.117 1.757,46.243C2.883,47.368 4.409,48 6,48L26,48C27.591,48 29.117,47.368 30.243,46.243C31.368,45.117 32,43.591 32,42L32,0L0,0ZM28,4L28,32L4,32L4,4L28,4ZM26,44L6,44C5.47,44 4.961,43.789 4.586,43.414C4.211,43.039 4,42.53 4,42L4,36L28,36L28,42C28,42.53 27.789,43.039 27.414,43.414C27.039,43.789 26.53,44 26,44Z" fill="#374957"/>
<rect  x="14" y="37.999" width="4" height="4" fill="#374957"/>
</svg>
