<svg width="48" height="48" viewBox="0 0 48 48" fill="none" xmlns="http://www.w3.org/2000/svg" xmlns:xlink="http://www.w3.org/1999/xlink">
<path d="M42.001,48L32.001,48L32.001,44L42.001,44C42.531,44 43.04,43.79 43.415,43.415C43.79,43.04 44.001,42.531 44.001,42L44.001,32L48.001,32L48.001,42C48.001,43.592 47.369,45.118 46.244,46.243C45.118,47.368 43.592,48 42.001,48Z" fill="#374957"/>
<path d="M4,16L0,16L0,6C0,4.409 0.632,2.883 1.757,1.757C2.883,0.632 4.409,0 6,0L16,0L16,4L6,4C5.47,4 4.961,4.211 4.586,4.586C4.211,4.961 4,5.47 4,6L4,16Z" fill="#374957"/>
<path d="M16,48L6,48C4.409,48 2.883,47.368 1.757,46.243C0.632,45.118 0,43.592 0,42L0,32L4,32L4,42C4,42.531 4.211,43.04 4.586,43.415C4.961,43.79 5.47,44 6,44L16,44L16,48Z" fill="#374957"/>
<path d="M48.001,16L44.001,16L44.001,6C44.001,5.47 43.79,4.961 43.415,4.586C43.04,4.211 42.531,4 42.001,4L32.001,4L32.001,0L42.001,0C43.592,0 45.118,0.632 46.244,1.757C47.369,2.883 48.001,4.409 48.001,6L48.001,16Z" fill="#374957"/>
<path d="M23.999,22C22.417,22 20.87,21.531 19.554,20.652C18.239,19.773 17.213,18.523 16.608,17.061C16.002,15.6 15.844,13.991 16.153,12.439C16.461,10.887 17.223,9.462 18.342,8.343C19.461,7.224 20.886,6.462 22.438,6.154C23.99,5.845 25.599,6.003 27.061,6.609C28.522,7.214 29.772,8.24 30.651,9.555C31.53,10.871 31.999,12.418 31.999,14C31.999,16.122 31.156,18.157 29.656,19.657C28.156,21.157 26.121,22 23.999,22ZM23.999,10C23.208,10 22.435,10.235 21.777,10.674C21.119,11.114 20.606,11.738 20.304,12.469C20.001,13.2 19.922,14.004 20.076,14.78C20.23,15.556 20.611,16.269 21.171,16.828C21.73,17.388 22.443,17.769 23.219,17.923C23.995,18.077 24.799,17.998 25.53,17.696C26.261,17.393 26.885,16.88 27.325,16.222C27.764,15.564 27.999,14.791 27.999,14C27.999,12.939 27.578,11.922 26.827,11.172C26.077,10.421 25.06,10 23.999,10L23.999,10Z" fill="#374957"/>
<path d="M37.999,40L33.999,40L33.999,32C33.999,31.47 33.788,30.961 33.413,30.586C33.038,30.211 32.529,30 31.999,30L15.999,30C15.469,30 14.96,30.211 14.585,30.586C14.21,30.961 13.999,31.47 13.999,32L13.999,40L9.999,40L9.999,32C9.999,30.409 10.631,28.883 11.756,27.758C12.882,26.633 14.408,26 15.999,26L31.999,26C33.59,26 35.116,26.633 36.242,27.758C37.367,28.883 37.999,30.409 37.999,32L37.999,40Z" fill="#374957"/>
</svg>
