<svg width="48" height="48" viewBox="0 0 48 48" fill="none" xmlns="http://www.w3.org/2000/svg" xmlns:xlink="http://www.w3.org/1999/xlink">
<path d="M8.618,11.217L5.544,8.659C3.761,10.797 2.365,13.23 1.42,15.849L5.182,17.209C5.969,15.026 7.132,12.998 8.618,11.217L8.618,11.217Z" fill="#374957"/>
<path d="M4,24.001C4,22.846 4.099,21.694 4.296,20.557L0.354,19.873C-0.121,22.613 -0.121,25.416 0.354,28.157L4.294,27.469C4.097,26.323 3.998,25.163 4,24.001L4,24.001Z" fill="#374957"/>
<path d="M17.014,5.253L15.616,1.505C13.007,2.478 10.588,3.9 8.468,5.705L11.068,8.753C12.831,7.25 14.843,6.065 17.014,5.253L17.014,5.253Z" fill="#374957"/>
<path d="M8.488,42.314C10.611,44.116 13.032,45.534 15.642,46.504L17.042,42.754C14.867,41.947 12.85,40.765 11.082,39.262L8.488,42.314Z" fill="#374957"/>
<path d="M5.199,30.818L1.439,32.18C2.389,34.797 3.787,37.229 5.571,39.366L8.633,36.802C7.15,35.022 5.988,32.997 5.199,30.818L5.199,30.818Z" fill="#374957"/>
<path d="M24,0C22.544,0.002 21.091,0.136 19.658,0.4L20.378,4.336C21.573,4.115 22.785,4.002 24,4L24,44C22.785,44.001 21.573,43.891 20.378,43.672L19.658,47.6C23.119,48.233 26.676,48.098 30.079,47.205C33.482,46.312 36.647,44.682 39.35,42.431C42.054,40.179 44.23,37.362 45.725,34.177C47.219,30.992 47.996,27.518 48,24C47.993,17.637 45.463,11.536 40.963,7.037C36.464,2.538 30.363,0.007 24,0L24,0Z" fill="#374957"/>
</svg>
