<svg width="48" height="48" viewBox="0 0 48 48" fill="none" xmlns="http://www.w3.org/2000/svg" xmlns:xlink="http://www.w3.org/1999/xlink">
<path d="M44,19.958L44,32L32,32L32,44L4,44L4,6C4,5.47 4.211,4.961 4.586,4.586C4.961,4.211 5.47,4 6,4L32.296,4L34.718,1.292C35.149,0.816 35.625,0.383 36.14,0L6,0C4.409,0 2.883,0.632 1.757,1.757C0.632,2.883 0,4.409 0,6L0,48L36.828,48L48,36.828L48,15.958L44,19.958ZM36,43.172L36,36L43.172,36L36,43.172Z" fill="#374957"/>
<path d="M25.458,23.639L40.68,6.625C40.851,6.434 41.06,6.28 41.293,6.171C41.526,6.063 41.779,6.004 42.036,5.997C42.292,5.99 42.548,6.035 42.787,6.13C43.025,6.225 43.242,6.368 43.424,6.549C43.6,6.725 43.739,6.933 43.834,7.162C43.929,7.391 43.978,7.636 43.978,7.884C43.978,8.132 43.929,8.378 43.834,8.607C43.739,8.836 43.6,9.044 43.424,9.219L27.36,25.285C28.297,26.316 29.007,27.532 29.444,28.855L46.244,12.055C47.346,10.95 47.966,9.453 47.966,7.892C47.966,6.331 47.346,4.834 46.244,3.729C45.678,3.163 45.002,2.718 44.258,2.421C43.514,2.125 42.718,1.983 41.917,2.005C41.117,2.027 40.329,2.212 39.602,2.55C38.876,2.887 38.226,3.368 37.692,3.965L21.42,22.151C22.858,22.346 24.237,22.854 25.458,23.639Z" fill="#374957"/>
<path d="M20,26C12,26 10,38 10,38L20,38C21.591,38 23.117,37.368 24.243,36.243C25.368,35.118 26,33.592 26,32C26,30.409 25.368,28.883 24.243,27.758C23.117,26.633 21.591,26 20,26Z" fill="#374957"/>
</svg>
