<svg width="44" height="50" viewBox="0 0 44 50" fill="none" xmlns="http://www.w3.org/2000/svg" xmlns:xlink="http://www.w3.org/1999/xlink">
<path d="M27.999,4.854L27.999,9.054C32.002,10.469 35.376,13.254 37.525,16.916C39.673,20.579 40.458,24.883 39.74,29.068C39.022,33.253 36.847,37.049 33.601,39.786C30.355,42.523 26.245,44.024 21.999,44.024C17.753,44.024 13.644,42.523 10.397,39.786C7.151,37.049 4.976,33.253 4.258,29.068C3.54,24.883 4.325,20.579 6.473,16.916C8.622,13.254 11.996,10.469 15.999,9.054L15.999,4.854C10.89,6.302 6.478,9.549 3.576,13.996C0.673,18.442 -0.522,23.789 0.209,29.048C0.94,34.308 3.548,39.126 7.553,42.612C11.558,46.099 16.689,48.02 21.999,48.02C27.309,48.02 32.44,46.099 36.445,42.612C40.45,39.126 43.058,34.308 43.79,29.048C44.521,23.789 43.325,18.442 40.423,13.996C37.52,9.549 33.108,6.302 27.999,4.854L27.999,4.854Z" fill="#374957"/>
<rect  x="19.999" y="0" width="4" height="16" fill="#374957"/>
</svg>
