<svg width="48" height="48" viewBox="0 0 48 48" fill="none" xmlns="http://www.w3.org/2000/svg" xmlns:xlink="http://www.w3.org/1999/xlink">
<path d="M12,10C12,10.53 11.789,11.039 11.414,11.414C11.039,11.789 10.53,12 10,12L0,12L0,16L10,16C11.591,16 13.117,15.368 14.243,14.243C15.368,13.117 16,11.591 16,10L16,0L12,0L12,10Z" fill="#374957"/>
<path d="M32,37.999L32,47.999L36,47.999L36,37.999C36,37.469 36.211,36.96 36.586,36.585C36.961,36.21 37.47,36 38,36L48,36L48,32L38,32C36.409,32 34.883,32.632 33.757,33.757C32.632,34.882 32,36.408 32,37.999L32,37.999Z" fill="#374957"/>
<path d="M38,12C37.47,12 36.961,11.789 36.586,11.414C36.211,11.039 36,10.53 36,10L36,0L32,0L32,10C32,11.591 32.632,13.117 33.757,14.243C34.883,15.368 36.409,16 38,16L48,16L48,12L38,12Z" fill="#374957"/>
<path d="M10,32L0,32L0,36L10,36C10.53,36 11.039,36.21 11.414,36.585C11.789,36.96 12,37.469 12,37.999L12,47.999L16,47.999L16,37.999C16,36.408 15.368,34.882 14.243,33.757C13.117,32.632 11.591,32 10,32L10,32Z" fill="#374957"/>
</svg>
