<svg width="48" height="48" viewBox="0 0 48 48" fill="none" xmlns="http://www.w3.org/2000/svg" xmlns:xlink="http://www.w3.org/1999/xlink">
<path d="M42,8L36.984,8L30.812,0L17.186,0L11.016,8L6,8C4.409,8 2.883,8.632 1.757,9.757C0.632,10.883 0,12.409 0,14L0,48L48,48L48,14C48,12.409 47.368,10.883 46.243,9.757C45.117,8.632 43.591,8 42,8L42,8ZM19.154,4L28.848,4L31.932,8L16.068,8L19.154,4ZM44,44L4,44L4,14C4,13.47 4.211,12.961 4.586,12.586C4.961,12.211 5.47,12 6,12L42,12C42.53,12 43.039,12.211 43.414,12.586C43.789,12.961 44,13.47 44,14L44,44Z" fill="#374957"/>
<path d="M24,16C21.627,16 19.307,16.704 17.333,18.022C15.36,19.341 13.822,21.215 12.913,23.408C12.005,25.601 11.768,28.013 12.231,30.341C12.694,32.669 13.836,34.807 15.515,36.485C17.193,38.164 19.331,39.306 21.659,39.769C23.987,40.232 26.399,39.995 28.592,39.087C30.785,38.178 32.659,36.64 33.978,34.667C35.296,32.693 36,30.373 36,28C35.997,24.818 34.732,21.768 32.482,19.518C30.232,17.268 27.182,16.003 24,16L24,16ZM24,36C22.418,36 20.871,35.531 19.555,34.652C18.24,33.773 17.214,32.523 16.609,31.061C16.003,29.6 15.845,27.991 16.154,26.439C16.462,24.887 17.224,23.462 18.343,22.343C19.462,21.224 20.887,20.462 22.439,20.154C23.991,19.845 25.6,20.003 27.061,20.609C28.523,21.214 29.773,22.24 30.652,23.555C31.531,24.871 32,26.418 32,28C32,30.122 31.157,32.157 29.657,33.657C28.157,35.157 26.122,36 24,36Z" fill="#374957"/>
</svg>
