<svg width="48" height="48" viewBox="0 0 48 48" fill="none" xmlns="http://www.w3.org/2000/svg" xmlns:xlink="http://www.w3.org/1999/xlink">
<path d="M2.828,0L0,2.828L8.586,11.414L4,16L14,16C14.53,16 15.039,15.789 15.414,15.414C15.789,15.039 16,14.53 16,14L16,4L11.414,8.586L2.828,0Z" fill="#374957"/>
<path d="M44,32L34,32C33.47,32 32.961,32.21 32.586,32.585C32.211,32.96 32,33.469 32,34L32,43.999L36.586,39.413L45.172,47.999L48,45.171L39.414,36.585L44,32Z" fill="#374957"/>
<path d="M34,16L44,16L39.414,11.414L48,2.828L45.172,0L36.586,8.586L32,4L32,14C32,14.53 32.211,15.039 32.586,15.414C32.961,15.789 33.47,16 34,16Z" fill="#374957"/>
<path d="M14,32L4,32L8.586,36.585L0,45.171L2.828,47.999L11.414,39.413L16,43.999L16,34C16,33.469 15.789,32.96 15.414,32.585C15.039,32.21 14.53,32 14,32Z" fill="#374957"/>
</svg>
