<svg width="48" height="48" viewBox="0 0 48 48" fill="none" xmlns="http://www.w3.org/2000/svg" xmlns:xlink="http://www.w3.org/1999/xlink">
<path d="M42,0L6,0C4.409,0 2.883,0.632 1.757,1.757C0.632,2.883 0,4.409 0,6L0,48L48,48L48,6C48,4.409 47.368,2.883 46.243,1.757C45.117,0.632 43.591,0 42,0L42,0ZM14,44L14,34C14,33.47 14.211,32.961 14.586,32.586C14.961,32.211 15.47,32 16,32L32,32C32.53,32 33.039,32.211 33.414,32.586C33.789,32.961 34,33.47 34,34L34,44L14,44ZM44,44L38,44L38,34C38,32.409 37.368,30.883 36.243,29.757C35.117,28.632 33.591,28 32,28L16,28C14.409,28 12.883,28.632 11.757,29.757C10.632,30.883 10,32.409 10,34L10,44L4,44L4,6C4,5.47 4.211,4.961 4.586,4.586C4.961,4.211 5.47,4 6,4L42,4C42.53,4 43.039,4.211 43.414,4.586C43.789,4.961 44,5.47 44,6L44,44Z" fill="#374957"/>
<path d="M24,7.999C22.418,7.999 20.871,8.468 19.555,9.347C18.24,10.226 17.214,11.475 16.609,12.937C16.003,14.399 15.845,16.007 16.154,17.559C16.462,19.111 17.224,20.537 18.343,21.655C19.462,22.774 20.887,23.536 22.439,23.845C23.991,24.153 25.6,23.995 27.061,23.39C28.523,22.784 29.773,21.759 30.652,20.443C31.531,19.127 32,17.581 32,15.999C32,13.877 31.157,11.842 29.657,10.342C28.157,8.841 26.122,7.999 24,7.999ZM24,19.999C23.209,19.999 22.436,19.764 21.778,19.324C21.12,18.885 20.607,18.26 20.304,17.529C20.002,16.798 19.923,15.994 20.077,15.218C20.231,14.442 20.612,13.73 21.172,13.17C21.731,12.611 22.444,12.23 23.22,12.075C23.996,11.921 24.8,12 25.531,12.303C26.262,12.606 26.886,13.118 27.326,13.776C27.765,14.434 28,15.207 28,15.999C28,17.059 27.579,18.077 26.828,18.827C26.078,19.577 25.061,19.999 24,19.999Z" fill="#374957"/>
</svg>
