<svg width="36" height="48" viewBox="0 0 36 48" fill="none" xmlns="http://www.w3.org/2000/svg" xmlns:xlink="http://www.w3.org/1999/xlink">
<path d="M36,48L0,48L0,6C0,4.409 0.632,2.883 1.757,1.757C2.883,0.632 4.409,0 6,0L30,0C31.591,0 33.117,0.632 34.243,1.757C35.368,2.883 36,4.409 36,6L36,48ZM4,44L32,44L32,6C32,5.47 31.789,4.961 31.414,4.586C31.039,4.211 30.53,4 30,4L6,4C5.47,4 4.961,4.211 4.586,4.586C4.211,4.961 4,5.47 4,6L4,44Z" fill="#374957"/>
<path d="M18,18C16.813,18 15.653,17.648 14.667,16.989C13.68,16.33 12.911,15.392 12.457,14.296C12.003,13.2 11.884,11.993 12.115,10.829C12.347,9.666 12.918,8.596 13.757,7.757C14.596,6.918 15.666,6.347 16.829,6.115C17.993,5.884 19.2,6.003 20.296,6.457C21.392,6.911 22.33,7.68 22.989,8.667C23.648,9.653 24,10.813 24,12C24,13.591 23.368,15.117 22.243,16.243C21.117,17.368 19.591,18 18,18ZM18,10C17.604,10 17.218,10.117 16.889,10.337C16.56,10.557 16.304,10.869 16.152,11.235C16.001,11.6 15.961,12.002 16.038,12.39C16.116,12.778 16.306,13.135 16.586,13.414C16.865,13.694 17.222,13.884 17.61,13.962C17.998,14.039 18.4,13.999 18.765,13.848C19.131,13.696 19.443,13.44 19.663,13.111C19.883,12.782 20,12.396 20,12C20,11.47 19.789,10.961 19.414,10.586C19.039,10.211 18.53,10 18,10Z" fill="#374957"/>
<path d="M18.001,39.999C16.023,39.999 14.09,39.412 12.445,38.313C10.801,37.214 9.519,35.653 8.762,33.825C8.005,31.998 7.807,29.987 8.193,28.048C8.579,26.108 9.531,24.326 10.93,22.927C12.328,21.529 14.11,20.577 16.05,20.191C17.99,19.805 20.001,20.003 21.828,20.76C23.655,21.517 25.217,22.798 26.316,24.443C27.414,26.087 28.001,28.021 28.001,29.999C27.998,32.65 26.943,35.191 25.069,37.066C23.194,38.941 20.652,39.995 18.001,39.999L18.001,39.999ZM18.001,23.999C16.814,23.999 15.654,24.35 14.668,25.01C13.681,25.669 12.912,26.606 12.458,27.702C12.004,28.799 11.885,30.005 12.116,31.169C12.348,32.333 12.919,33.402 13.758,34.241C14.597,35.08 15.667,35.652 16.83,35.883C17.994,36.115 19.201,35.996 20.297,35.542C21.393,35.088 22.331,34.319 22.99,33.332C23.649,32.345 24.001,31.185 24.001,29.999C24.001,28.407 23.369,26.881 22.244,25.756C21.118,24.631 19.592,23.999 18.001,23.999Z" fill="#374957"/>
<rect  x="15.999" y="28.001" width="4" height="4" fill="#374957"/>
</svg>
