<svg width="48" height="48" viewBox="0 0 48 48" fill="none" xmlns="http://www.w3.org/2000/svg" xmlns:xlink="http://www.w3.org/1999/xlink">
<path d="M24,40C28.242,39.995 32.309,38.308 35.308,35.308C38.308,32.309 39.995,28.242 40,24L40,16C40,11.757 38.314,7.687 35.314,4.686C32.313,1.686 28.243,0 24,0C19.757,0 15.687,1.686 12.686,4.686C9.686,7.687 8,11.757 8,16L8,24C8.005,28.242 9.692,32.309 12.692,35.308C15.691,38.308 19.758,39.995 24,40L24,40ZM12,18L20,18L20,14L12.18,14C12.65,11.205 14.095,8.667 16.259,6.837C18.423,5.006 21.166,4.002 24,4.002C26.834,4.002 29.577,5.006 31.741,6.837C33.905,8.667 35.35,11.205 35.82,14L28,14L28,18L36,18L36,22L28,22L28,26L35.82,26C35.35,28.795 33.905,31.333 31.741,33.163C29.577,34.994 26.834,35.998 24,35.998C21.166,35.998 18.423,34.994 16.259,33.163C14.095,31.333 12.65,28.795 12.18,26L20,26L20,22L12,22L12,18Z" fill="#374957"/>
<path d="M44,26C43.995,30.773 42.097,35.348 38.722,38.723C35.348,42.097 30.772,43.995 26,44L22,44C17.228,43.995 12.653,42.096 9.279,38.722C5.904,35.348 4.006,30.773 4,26L0,26C0.007,31.833 2.327,37.425 6.451,41.549C10.576,45.674 16.167,47.993 22,48L26,48C31.833,47.993 37.424,45.674 41.549,41.549C45.673,37.425 47.993,31.833 48,26L44,26Z" fill="#374957"/>
</svg>
