<svg width="48" height="48" viewBox="0 0 48 48" fill="none" xmlns="http://www.w3.org/2000/svg" xmlns:xlink="http://www.w3.org/1999/xlink">
<path d="M36,12C36,8.817 34.736,5.765 32.485,3.515C30.235,1.264 27.183,0 24,0C20.817,0 17.765,1.264 15.515,3.515C13.264,5.765 12,8.817 12,12L0,12L0,42C0,43.591 0.632,45.117 1.757,46.243C2.883,47.368 4.409,48 6,48L28,48L28,44L6,44C5.47,44 4.961,43.789 4.586,43.414C4.211,43.039 4,42.53 4,42L4,16L12,16L12,20L16,20L16,16L32,16L32,20L36,20L36,16L44,16L44,28L48,28L48,12L36,12ZM16,12C16,9.878 16.843,7.843 18.343,6.343C19.843,4.843 21.878,4 24,4C26.122,4 28.157,4.843 29.657,6.343C31.157,7.843 32,9.878 32,12L16,12Z" fill="#374957"/>
<path d="M42.001,31.999L38.001,31.999L38.001,37.999L32.001,37.999L32.001,41.999L38.001,41.999L38.001,47.999L42.001,47.999L42.001,41.999L48.001,41.999L48.001,37.999L42.001,37.999L42.001,31.999Z" fill="#374957"/>
</svg>
