<svg width="44" height="50" viewBox="0 0 44 50" fill="none" xmlns="http://www.w3.org/2000/svg" xmlns:xlink="http://www.w3.org/1999/xlink">
<path d="M28,4.854L28,9.054C32.003,10.469 35.377,13.254 37.526,16.916C39.674,20.579 40.459,24.883 39.741,29.068C39.023,33.253 36.848,37.049 33.602,39.786C30.356,42.523 26.246,44.024 22,44.024C17.754,44.024 13.644,42.523 10.398,39.786C7.152,37.049 4.977,33.253 4.259,29.068C3.541,24.883 4.326,20.579 6.474,16.916C8.623,13.254 11.997,10.469 16,9.054L16,4.854C10.891,6.302 6.479,9.549 3.577,13.996C0.674,18.442 -0.522,23.789 0.21,29.048C0.941,34.308 3.549,39.126 7.554,42.612C11.559,46.099 16.69,48.02 22,48.02C27.31,48.02 32.441,46.099 36.446,42.612C40.451,39.126 43.059,34.308 43.791,29.048C44.522,23.789 43.326,18.442 40.424,13.996C37.521,9.549 33.109,6.302 28,4.854L28,4.854Z" fill="#374957"/>
<rect  x="20" y="0" width="4" height="16" fill="#374957"/>
</svg>
