<svg width="50" height="44" viewBox="0 0 50 44" fill="none" xmlns="http://www.w3.org/2000/svg" xmlns:xlink="http://www.w3.org/1999/xlink">
<path d="M40.245,24.586L37.417,27.414L42.001,32L41.237,32C34.469,32 30.165,28.936 26.345,24.984L25.745,25.68C25.089,26.441 24.413,27.222 23.709,28.008C28.109,33.103 34.513,36.025 41.245,36.008L42.001,36.008L37.415,40.594L40.243,43.422L46.829,36.836C48.39,35.274 48.39,32.742 46.829,31.18L40.245,24.586Z" fill="#374957"/>
<path d="M41.238,12L42,12L37.416,16.586L40.244,19.414L46.83,12.828C48.391,11.266 48.391,8.734 46.83,7.172L40.244,0.586L37.416,3.414L42,8L41.236,8C31.322,8 25.902,13.34 20.984,18.956C16.126,13.47 10.286,8 -0.08,8L-0.08,12C8.848,12 13.666,16.672 18.338,22C13.666,27.328 8.848,32 -0.08,32L-0.08,36C11.536,36 17.472,29.128 22.72,23.068C27.628,17.376 32.274,12 41.238,12Z" fill="#374957"/>
</svg>
