<svg width="48" height="48" viewBox="0 0 48 48" fill="none" xmlns="http://www.w3.org/2000/svg" xmlns:xlink="http://www.w3.org/1999/xlink">
<path d="M20,12C21.705,12.007 23.363,12.56 24.73,13.578C26.098,14.596 27.104,16.025 27.6,17.656L31.954,19.238C31.81,16.932 31.004,14.718 29.633,12.859C28.261,11.001 26.383,9.578 24.222,8.761C22.062,7.944 19.711,7.768 17.453,8.253C15.195,8.739 13.125,9.866 11.492,11.5C9.859,13.133 8.732,15.203 8.246,17.461C7.76,19.719 7.936,22.069 8.753,24.229C9.57,26.39 10.993,28.269 12.852,29.64C14.71,31.012 16.925,31.818 19.23,31.962L17.656,27.6C15.83,27.038 14.267,25.841 13.249,24.224C12.232,22.607 11.828,20.679 12.112,18.79C12.396,16.902 13.348,15.177 14.796,13.931C16.243,12.685 18.09,11.999 20,12L20,12Z" fill="#374957"/>
<path d="M20,36C16.835,36 13.742,35.062 11.111,33.304C8.479,31.545 6.429,29.047 5.218,26.123C4.007,23.199 3.69,19.982 4.307,16.879C4.924,13.775 6.448,10.924 8.686,8.686C10.924,6.449 13.774,4.925 16.878,4.308C19.982,3.69 23.199,4.007 26.123,5.218C29.046,6.429 31.545,8.48 33.303,11.111C35.061,13.742 36,16.836 36,20C36,20.234 35.974,20.462 35.964,20.694L39.884,22.12C40.329,17.998 39.485,13.84 37.467,10.218C35.449,6.597 32.357,3.69 28.618,1.9C24.879,0.11 20.676,-0.476 16.59,0.223C12.503,0.922 8.734,2.872 5.803,5.803C2.871,8.735 0.922,12.504 0.222,16.59C-0.477,20.676 0.109,24.879 1.9,28.618C3.69,32.358 6.596,35.449 10.218,37.467C13.839,39.485 17.998,40.329 22.12,39.884L20.694,35.964C20.462,35.974 20.234,36 20,36Z" fill="#374957"/>
<path d="M48,29.557L27.076,21.957C26.361,21.697 25.586,21.647 24.843,21.812C24.101,21.977 23.42,22.35 22.882,22.888C22.344,23.426 21.97,24.106 21.805,24.849C21.64,25.592 21.69,26.366 21.95,27.081L29.558,47.999L37.358,40.199L42.944,45.785L45.772,42.957L40.2,37.365L48,29.557ZM31.172,40.729L25.71,25.709L40.73,31.171L31.172,40.729Z" fill="#374957"/>
</svg>
