<svg width="32" height="48" viewBox="0 0 32 48" fill="none" xmlns="http://www.w3.org/2000/svg" xmlns:xlink="http://www.w3.org/1999/xlink">
<path d="M23,6L18,6L18,0L14,0L14,6L9,6C6.614,6.003 4.326,6.952 2.639,8.639C0.952,10.326 0.003,12.614 0,15L0,32C0,36.243 1.686,40.313 4.686,43.314C7.687,46.314 11.757,48 16,48C20.243,48 24.313,46.314 27.314,43.314C30.314,40.313 32,36.243 32,32L32,15C31.997,12.614 31.048,10.326 29.361,8.639C27.674,6.952 25.386,6.003 23,6L23,6ZM28,32C28,35.183 26.736,38.235 24.485,40.485C22.235,42.736 19.183,44 16,44C12.817,44 9.765,42.736 7.515,40.485C5.264,38.235 4,35.183 4,32L4,15C4,13.674 4.527,12.402 5.464,11.464C6.402,10.527 7.674,10 9,10L23,10C24.326,10 25.598,10.527 26.536,11.464C27.473,12.402 28,13.674 28,15L28,32Z" fill="#374957"/>
<rect  x="14" y="14" width="4" height="8" fill="#374957"/>
</svg>
