<svg width="42" height="50" viewBox="0 0 42 50" fill="none" xmlns="http://www.w3.org/2000/svg" xmlns:xlink="http://www.w3.org/1999/xlink">
<path d="M19.916,48.015L18.522,46.82C16.6,45.211 -0.182,30.718 -0.182,20.116C-0.182,9.016 8.817,0.018 19.916,0.018C31.016,0.018 40.014,9.016 40.014,20.116C40.014,30.718 23.233,45.211 21.319,46.828L19.916,48.015ZM19.916,4.364C11.221,4.374 4.174,11.42 4.164,20.116C4.164,26.776 14.489,37.416 19.916,42.285C25.344,37.414 35.669,26.768 35.669,20.116C35.659,11.42 28.612,4.374 19.916,4.364Z" fill="#374957"/>
<path d="M19.916,28.082C15.516,28.082 11.949,24.515 11.949,20.116C11.949,15.716 15.516,12.149 19.916,12.149C24.316,12.149 27.883,15.716 27.883,20.116C27.883,24.515 24.316,28.082 19.916,28.082ZM19.916,16.132C17.716,16.132 15.933,17.916 15.933,20.116C15.933,22.315 17.716,24.099 19.916,24.099C22.116,24.099 23.899,22.315 23.899,20.116C23.899,17.916 22.116,16.132 19.916,16.132Z" fill="#374957"/>
</svg>
