<svg width="48" height="48" viewBox="0 0 48 48" fill="none" xmlns="http://www.w3.org/2000/svg" xmlns:xlink="http://www.w3.org/1999/xlink">
<path d="M42,4L36,4L36,0L32,0L32,4L16,4L16,0L12,0L12,4L6,4C4.409,4 2.883,4.632 1.757,5.757C0.632,6.883 0,8.409 0,10L0,48L48,48L48,10C48,8.409 47.368,6.883 46.243,5.757C45.117,4.632 43.591,4 42,4ZM4,10C4,9.47 4.211,8.961 4.586,8.586C4.961,8.211 5.47,8 6,8L42,8C42.53,8 43.039,8.211 43.414,8.586C43.789,8.961 44,9.47 44,10L44,16L4,16L4,10ZM4,44L4,20L44,20L44,44L4,44Z" fill="#374957"/>
<rect  x="30" y="26" width="4" height="4" fill="#374957"/>
<rect  x="22" y="26" width="4" height="4" fill="#374957"/>
<rect  x="14" y="26" width="4" height="4" fill="#374957"/>
<rect  x="30" y="34" width="4" height="4" fill="#374957"/>
<rect  x="22" y="34" width="4" height="4" fill="#374957"/>
<rect  x="14" y="34" width="4" height="4" fill="#374957"/>
</svg>
