<svg width="36" height="50" viewBox="0 0 36 50" fill="none" xmlns="http://www.w3.org/2000/svg" xmlns:xlink="http://www.w3.org/1999/xlink">
<path d="M36,48.001L32,48.001L32,37.915C31.998,36.347 31.375,34.844 30.266,33.735C29.157,32.626 27.654,32.003 26.086,32.001L9.914,32.001C8.346,32.003 6.843,32.626 5.734,33.735C4.625,34.844 4.002,36.347 4,37.915L4,48.001L0,48.001L0,37.915C0.003,35.287 1.049,32.767 2.907,30.908C4.766,29.05 7.286,28.004 9.914,28.001L26.086,28.001C28.714,28.004 31.234,29.05 33.093,30.908C34.951,32.767 35.997,35.287 36,37.915L36,48.001Z" fill="#374957"/>
<path d="M18,24C15.627,24 13.307,23.296 11.333,21.977C9.36,20.659 7.822,18.785 6.913,16.592C6.005,14.399 5.768,11.986 6.231,9.659C6.694,7.331 7.836,5.193 9.515,3.514C11.193,1.836 13.331,0.693 15.659,0.23C17.987,-0.233 20.399,0.005 22.592,0.913C24.785,1.821 26.659,3.36 27.978,5.333C29.296,7.306 30,9.626 30,12C29.997,15.181 28.732,18.232 26.482,20.482C24.232,22.731 21.182,23.997 18,24L18,24ZM18,4C16.418,4 14.871,4.469 13.555,5.348C12.24,6.227 11.214,7.476 10.609,8.938C10.003,10.4 9.845,12.009 10.154,13.56C10.462,15.112 11.224,16.538 12.343,17.657C13.462,18.775 14.887,19.537 16.439,19.846C17.991,20.155 19.6,19.996 21.061,19.391C22.523,18.785 23.773,17.76 24.652,16.444C25.531,15.129 26,13.582 26,12C26,9.878 25.157,7.843 23.657,6.343C22.157,4.843 20.122,4 18,4Z" fill="#374957"/>
</svg>
