<svg width="48" height="48" viewBox="0 0 48 48" fill="none" xmlns="http://www.w3.org/2000/svg" xmlns:xlink="http://www.w3.org/1999/xlink">
<path d="M44,31.999L44,41.999C44,42.529 43.789,43.038 43.414,43.413C43.039,43.788 42.53,43.999 42,43.999L6,43.999C5.47,43.999 4.961,43.788 4.586,43.413C4.211,43.038 4,42.529 4,41.999L4,31.999L0,31.999L0,41.999C0,43.59 0.632,45.116 1.757,46.241C2.883,47.367 4.409,47.999 6,47.999L42,47.999C43.591,47.999 45.117,47.367 46.243,46.241C47.368,45.116 48,43.59 48,41.999L48,31.999L44,31.999Z" fill="#374957"/>
<path d="M23.934,0C23.146,-0.003 22.366,0.151 21.637,0.451C20.909,0.751 20.247,1.191 19.69,1.748L11.852,9.586L14.68,12.414L21.948,5.148L22,38L26,38L25.948,5.176L33.186,12.414L36.014,9.586L28.176,1.748C27.618,1.191 26.957,0.751 26.229,0.451C25.501,0.151 24.721,-0.003 23.934,0L23.934,0Z" fill="#374957"/>
</svg>
