<svg width="48" height="48" viewBox="0 0 48 48" fill="none" xmlns="http://www.w3.org/2000/svg" xmlns:xlink="http://www.w3.org/1999/xlink">
<mask id="mask_0_2277_2562" style="mask-type:alpha" maskUnits="userSpaceOnUse" x="0" y="0" width="24" height="24">
<rect  x="0" y="0" width="48" height="48" fill="#D9D9D9"/>
</mask>
<g mask="url(#mask_0_2277_2562)">
<path d="M14,18C12.9,18 11.958,17.608 11.175,16.825C10.392,16.042 10,15.1 10,14C10,12.9 10.392,11.958 11.175,11.175C11.958,10.392 12.9,10 14,10C15.1,10 16.042,10.392 16.825,11.175C17.608,11.958 18,12.9 18,14C18,15.1 17.608,16.042 16.825,16.825C16.042,17.608 15.1,18 14,18ZM10,44C9.433,44 8.958,43.808 8.575,43.425C8.192,43.042 8,42.567 8,42C6.9,42 5.958,41.608 5.175,40.825C4.392,40.042 4,39.1 4,38L4,26L10,26L10,24.5C10,23.233 10.433,22.167 11.3,21.3C12.167,20.433 13.233,20 14.5,20C15.167,20 15.783,20.133 16.35,20.4C16.917,20.667 17.433,21.033 17.9,21.5L20.7,24.6C20.967,24.867 21.225,25.117 21.475,25.35C21.725,25.583 22,25.8 22.3,26L36,26L36,9.7C36,9.233 35.833,8.833 35.5,8.5C35.167,8.167 34.767,8 34.3,8C34.1,8 33.908,8.042 33.725,8.125C33.542,8.208 33.367,8.333 33.2,8.5L30.7,11C30.867,11.567 30.9,12.125 30.8,12.675C30.7,13.225 30.5,13.733 30.2,14.2L24.7,8.6C25.167,8.3 25.667,8.108 26.2,8.025C26.733,7.942 27.267,8 27.8,8.2L30.3,5.7C30.833,5.167 31.442,4.75 32.125,4.45C32.808,4.15 33.533,4 34.3,4C35.9,4 37.25,4.55 38.35,5.65C39.45,6.75 40,8.1 40,9.7L40,26L44,26L44,38C44,39.1 43.608,40.042 42.825,40.825C42.042,41.608 41.1,42 40,42C40,42.567 39.808,43.042 39.425,43.425C39.042,43.808 38.567,44 38,44L10,44ZM8,38L40,38L40,30L8,30L8,38Z" fill="#1C1B1F"/>
</g>
</svg>
