<svg width="48" height="48" viewBox="0 0 48 48" fill="none" xmlns="http://www.w3.org/2000/svg" xmlns:xlink="http://www.w3.org/1999/xlink">
<mask id="mask_0_2277_2567" style="mask-type:alpha" maskUnits="userSpaceOnUse" x="0" y="0" width="24" height="24">
<rect  x="0" y="0" width="48" height="48" fill="#D9D9D9"/>
</mask>
<g mask="url(#mask_0_2277_2567)">
<path d="M4,38L4,26C4,25.1 4.183,24.283 4.55,23.55C4.917,22.817 5.4,22.167 6,21.6L6,16C6,14.333 6.583,12.917 7.75,11.75C8.917,10.583 10.333,10 12,10L20,10C20.767,10 21.483,10.142 22.15,10.425C22.817,10.708 23.433,11.1 24,11.6C24.567,11.1 25.183,10.708 25.85,10.425C26.517,10.142 27.233,10 28,10L36,10C37.667,10 39.083,10.583 40.25,11.75C41.417,12.917 42,14.333 42,16L42,21.6C42.6,22.167 43.083,22.817 43.45,23.55C43.817,24.283 44,25.1 44,26L44,38L40,38L40,34L8,34L8,38L4,38ZM26,20L38,20L38,16C38,15.433 37.808,14.958 37.425,14.575C37.042,14.192 36.567,14 36,14L28,14C27.433,14 26.958,14.192 26.575,14.575C26.192,14.958 26,15.433 26,16L26,20ZM10,20L22,20L22,16C22,15.433 21.808,14.958 21.425,14.575C21.042,14.192 20.567,14 20,14L12,14C11.433,14 10.958,14.192 10.575,14.575C10.192,14.958 10,15.433 10,16L10,20ZM8,30L40,30L40,26C40,25.433 39.808,24.958 39.425,24.575C39.042,24.192 38.567,24 38,24L10,24C9.433,24 8.958,24.192 8.575,24.575C8.192,24.958 8,25.433 8,26L8,30Z" fill="#1C1B1F"/>
</g>
</svg>
