<svg width="20" height="20" viewBox="0 0 20 20" fill="none" xmlns="http://www.w3.org/2000/svg" xmlns:xlink="http://www.w3.org/1999/xlink">
<path d="M10,-0.001C8.022,-0.001 6.089,0.585 4.444,1.684C2.8,2.783 1.518,4.344 0.761,6.172C0.004,7.999 -0.194,10.01 0.192,11.949C0.578,13.889 1.53,15.671 2.929,17.07C4.327,18.468 6.109,19.421 8.049,19.806C9.989,20.192 12,19.994 13.827,19.237C15.654,18.48 17.216,17.199 18.315,15.554C19.414,13.91 20,11.976 20,9.999C19.997,7.347 18.942,4.806 17.068,2.931C15.193,1.056 12.651,0.002 10,-0.001L10,-0.001ZM10,15.999C8.813,15.999 7.653,15.647 6.667,14.987C5.68,14.328 4.911,13.391 4.457,12.295C4.003,11.198 3.884,9.992 4.115,8.828C4.347,7.664 4.918,6.595 5.757,5.756C6.596,4.917 7.666,4.345 8.829,4.114C9.993,3.882 11.2,4.001 12.296,4.455C13.392,4.909 14.33,5.678 14.989,6.665C15.648,7.652 16,8.812 16,9.999C16,11.59 15.368,13.116 14.243,14.241C13.117,15.366 11.591,15.999 10,15.999Z" fill="#374957"/>
<circle cx="10" cy="10.001" r="2" fill="#374957"/>
</svg>
