<svg width="48" height="50" viewBox="0 0 48 50" fill="none" xmlns="http://www.w3.org/2000/svg" xmlns:xlink="http://www.w3.org/1999/xlink">
<path d="M14,32.464L10,32.464L10,39.536L14,39.536L14,32.464Z" transform="rotate(-90 12 36)" fill="#374957"/>
<path d="M43.001,10.001L46.965,6.037C47.61,5.37 47.967,4.477 47.96,3.549C47.952,2.621 47.58,1.733 46.924,1.077C46.268,0.421 45.381,0.049 44.453,0.042C43.525,0.034 42.631,0.392 41.965,1.037L38.001,5.001L38.001,7.305L32.559,12.687C30.363,10.891 27.595,9.947 24.759,10.026C21.924,10.104 19.213,11.202 17.121,13.117C16.337,13.9 15.688,14.807 15.201,15.801C15.139,15.9 15.045,15.975 14.935,16.013C12.948,15.912 10.961,16.225 9.102,16.933C7.243,17.641 5.551,18.728 4.135,20.125C-1.777,26.039 -1.265,36.175 5.285,42.725C8.541,46.045 12.979,47.942 17.629,48.001C19.573,48.04 21.505,47.677 23.302,46.933C25.099,46.19 26.723,45.082 28.071,43.681C29.42,42.279 30.463,40.614 31.137,38.789C31.81,36.965 32.099,35.021 31.985,33.079C31.992,33.021 32.014,32.966 32.049,32.92C32.084,32.873 32.131,32.836 32.185,32.813C33.181,32.326 34.09,31.677 34.875,30.893C36.785,28.816 37.887,26.122 37.98,23.301C38.073,20.48 37.15,17.719 35.381,15.521L40.963,10.001L43.001,10.001ZM32.053,28.057C31.577,28.531 31.026,28.922 30.423,29.215C29.676,29.577 29.049,30.147 28.617,30.857C28.185,31.566 27.967,32.385 27.989,33.215C28.068,34.654 27.847,36.093 27.34,37.442C26.832,38.791 26.05,40.019 25.043,41.049C20.693,45.399 13.093,44.889 8.107,39.901C3.121,34.913 2.601,27.311 6.959,22.959C7.935,21.999 9.094,21.243 10.365,20.735C11.637,20.228 12.997,19.978 14.367,20.001C14.509,20.001 14.651,20.001 14.795,20.001C15.626,20.028 16.448,19.811 17.158,19.378C17.869,18.945 18.437,18.314 18.795,17.563C19.088,16.96 19.479,16.41 19.953,15.935C21.281,14.756 22.974,14.071 24.748,13.995C26.522,13.918 28.268,14.455 29.693,15.515L26.093,19.067L28.905,21.911L32.505,18.353C33.554,19.777 34.081,21.518 33.999,23.285C33.917,25.052 33.23,26.737 32.053,28.057L32.053,28.057Z" fill="#374957"/>
</svg>
