<svg width="48" height="48" viewBox="0 0 48 48" fill="none" xmlns="http://www.w3.org/2000/svg" xmlns:xlink="http://www.w3.org/1999/xlink">
<path d="M24,36.044C26.209,36.044 28,34.254 28,32.044C28,29.835 26.209,28.044 24,28.044C21.791,28.044 20,29.835 20,32.044C20,34.254 21.791,36.044 24,36.044Z" fill="#374957"/>
<path d="M47.884,21.706C47.749,20.273 46.615,19.139 45.182,19.002C36.611,18.172 29.828,11.388 29,2.816C28.864,1.385 27.731,0.251 26.3,0.114C25.542,0.044 24.778,0 24,0C10.745,0 0,10.745 0,24C0,37.255 10.745,48 24,48C37.255,48 48,37.255 48,24C48,23.224 47.958,22.46 47.884,21.706ZM24,42C14.059,42.16 5.87,34.231 5.71,24.29C5.55,14.349 13.479,6.16 23.42,6C25.377,15.331 32.668,22.622 42,24.578C41.679,34.289 33.716,41.996 24,42Z" fill="#374957"/>
</svg>
