<svg width="48" height="48" viewBox="0 0 48 48" fill="none" xmlns="http://www.w3.org/2000/svg" xmlns:xlink="http://www.w3.org/1999/xlink">
<path d="M26,12L22,12L22,22L14,22L14,26L26,26L26,12Z" fill="#374957"/>
<path d="M43.999,4L43.999,10.748C41.852,7.5 38.946,4.824 35.534,2.95C32.121,1.077 28.303,0.062 24.411,-0.007C20.518,-0.076 16.667,0.804 13.19,2.557C9.714,4.309 6.716,6.881 4.455,10.051C2.195,13.221 0.74,16.893 0.216,20.751C-0.308,24.609 0.115,28.537 1.449,32.195C2.782,35.852 4.985,39.131 7.869,41.747C10.752,44.363 14.229,46.238 17.999,47.21L17.999,43.078C14.89,42.11 12.064,40.399 9.766,38.091C7.469,35.783 5.769,32.95 4.816,29.836C3.863,26.722 3.684,23.423 4.295,20.225C4.907,17.026 6.29,14.026 8.325,11.483C10.359,8.941 12.984,6.934 15.971,5.636C18.957,4.339 22.216,3.79 25.463,4.038C28.709,4.286 31.847,5.323 34.602,7.059C37.357,8.795 39.646,11.178 41.271,14L33.999,14L33.999,18L43.999,18C45.06,18 46.077,17.578 46.828,16.828C47.578,16.078 47.999,15.061 47.999,14L47.999,4L43.999,4Z" fill="#374957"/>
</svg>
