<svg width="34" height="38" viewBox="0 0 34 38" fill="none" xmlns="http://www.w3.org/2000/svg" xmlns:xlink="http://www.w3.org/1999/xlink">
<path d="M12,14L0,14L0,10L8,10L8,0L12,0L12,14Z" fill="#374957"/>
<path d="M28,36C26.409,36 24.883,35.368 23.757,34.243C22.632,33.117 22,31.591 22,30L22,24C22,22.409 22.632,20.883 23.757,19.757C24.883,18.632 26.409,18 28,18C29.591,18 31.117,18.632 32.243,19.757C33.368,20.883 34,22.409 34,24L34,30C34,31.591 33.368,33.117 32.243,34.243C31.117,35.368 29.591,36 28,36ZM28,22C27.47,22 26.961,22.211 26.586,22.586C26.211,22.961 26,23.47 26,24L26,30C26,30.53 26.211,31.039 26.586,31.414C26.961,31.789 27.47,32 28,32C28.53,32 29.039,31.789 29.414,31.414C29.789,31.039 30,30.53 30,30L30,24C30,23.47 29.789,22.961 29.414,22.586C29.039,22.211 28.53,22 28,22Z" fill="#374957"/>
<path d="M20,36.001L16,36.001L16,24.829L13.414,27.415L10.586,24.587L16.586,18.587C16.866,18.307 17.222,18.117 17.61,18.04C17.998,17.963 18.4,18.002 18.765,18.154C19.131,18.305 19.443,18.561 19.663,18.89C19.882,19.219 20,19.606 20,20.001L20,36.001Z" fill="#374957"/>
</svg>
