<svg width="50" height="48" viewBox="0 0 50 48" fill="none" xmlns="http://www.w3.org/2000/svg" xmlns:xlink="http://www.w3.org/1999/xlink">
<path d="M16,38C13.878,38 11.843,37.158 10.343,35.657C8.843,34.157 8,32.122 8,30C8,27.879 8.843,25.844 10.343,24.344C11.843,22.843 13.878,22 16,22C18.122,22 20.157,22.843 21.657,24.344C23.157,25.844 24,27.879 24,30C24,32.122 23.157,34.157 21.657,35.657C20.157,37.158 18.122,38 16,38ZM16,26C14.939,26 13.922,26.422 13.172,27.172C12.421,27.922 12,28.94 12,30C12,31.061 12.421,32.079 13.172,32.829C13.922,33.579 14.939,34 16,34C17.061,34 18.078,33.579 18.828,32.829C19.579,32.079 20,31.061 20,30C20,28.94 19.579,27.922 18.828,27.172C18.078,26.422 17.061,26 16,26Z" fill="#374957"/>
<path d="M48.001,48L28.001,48L28.001,46C28.001,45.204 27.685,44.441 27.122,43.879C26.56,43.316 25.797,43 25.001,43C24.205,43 23.442,43.316 22.88,43.879C22.317,44.441 22.001,45.204 22.001,46L22.001,48L9.667,48C-1.555,47.818 -1.271,28.16 2.241,21.016C4.829,13.402 9.655,6.746 16.087,1.92C17.736,0.712 19.717,0.043 21.76,0.003C23.803,-0.037 25.809,0.555 27.503,1.698L48.001,17L48.001,48ZM31.709,44L44.001,44L44.001,20L9.667,20C8.879,19.996 8.108,20.226 7.451,20.662C6.794,21.097 6.282,21.718 5.979,22.446C4.71,25.473 4.038,28.718 4.001,32C4.038,35.283 4.71,38.527 5.979,41.554C6.282,42.282 6.794,42.903 7.451,43.339C8.108,43.774 8.879,44.005 9.667,44L18.293,44C18.739,42.57 19.63,41.319 20.837,40.431C22.044,39.543 23.503,39.064 25.001,39.064C26.499,39.064 27.959,39.543 29.165,40.431C30.372,41.319 31.263,42.57 31.709,44ZM21.943,4C20.697,3.995 19.483,4.393 18.481,5.134C14.579,8.089 11.314,11.802 8.881,16.05C9.147,16.023 9.414,16.009 9.681,16.01L39.979,16.01L25.201,4.964C24.233,4.33 23.1,3.994 21.943,4L21.943,4Z" fill="#374957"/>
</svg>
