<svg width="34" height="42" viewBox="0 0 34 42" fill="none" xmlns="http://www.w3.org/2000/svg" xmlns:xlink="http://www.w3.org/1999/xlink">
<path d="M16,0.035C11.552,0.04 7.288,1.809 4.143,4.954C0.998,8.1 -0.771,12.364 -0.775,16.811C-0.775,25.601 12.835,37.36 14.391,38.673L16.003,40.035L17.615,38.673C19.168,37.36 32.781,25.601 32.781,16.811C32.776,12.363 31.007,8.097 27.86,4.952C24.714,1.807 20.448,0.038 16,0.035L16,0.035ZM16,33.44C10.891,28.786 4.221,21.226 4.221,16.811C4.221,13.688 5.462,10.692 7.671,8.483C9.88,6.274 12.876,5.033 16,5.033C19.123,5.033 22.119,6.274 24.328,8.483C26.537,10.692 27.778,13.688 27.778,16.811C27.778,21.218 21.106,28.781 16,33.44Z" fill="#EE6611"/>
<path d="M16.001,21.664C18.759,21.664 20.996,19.428 20.996,16.669C20.996,13.911 18.759,11.674 16.001,11.674C13.242,11.674 11.006,13.911 11.006,16.669C11.006,19.428 13.242,21.664 16.001,21.664Z" fill="#EE6611"/>
</svg>
