<svg width="120" height="110" viewBox="0 0 120 110" fill="none" xmlns="http://www.w3.org/2000/svg" xmlns:xlink="http://www.w3.org/1999/xlink">
<path d="M59.948,105.833C46.151,105.833 35.942,105.83 28.107,104.868C20.303,103.909 15.083,102.02 11.138,98.415L9.114,100.63C13.717,104.835 19.651,106.851 27.741,107.845C35.802,108.835 46.229,108.833 59.948,108.833L59.948,105.833ZM0.078,53.999C0.078,66.524 0.074,76.082 1.163,83.478C2.259,90.932 4.492,96.406 9.114,100.63L11.138,98.415C7.212,94.827 5.171,90.111 4.131,83.042C3.082,75.914 3.078,66.616 3.078,53.999L0.078,53.999ZM116.818,53.999C116.818,66.616 116.814,75.914 115.765,83.042C114.725,90.111 112.684,94.827 108.758,98.415L110.781,100.63C115.403,96.406 117.636,90.932 118.733,83.478C119.821,76.082 119.818,66.524 119.818,53.999L116.818,53.999ZM59.948,108.833C73.667,108.833 84.094,108.835 92.154,107.845C100.245,106.851 106.179,104.835 110.781,100.63L108.758,98.415C104.812,102.02 99.593,103.909 91.789,104.868C83.954,105.83 73.745,105.833 59.948,105.833L59.948,108.833ZM59.948,2.166C73.745,2.166 83.954,2.169 91.789,3.131C99.593,4.09 104.812,5.979 108.758,9.584L110.781,7.369C106.179,3.164 100.245,1.147 92.154,0.154C84.094,-0.837 73.667,-0.834 59.948,-0.834L59.948,2.166ZM119.818,53.999C119.818,41.475 119.821,31.917 118.733,24.52C117.636,17.066 115.403,11.592 110.781,7.369L108.758,9.584C112.684,13.171 114.725,17.888 115.765,24.957C116.814,32.084 116.818,41.382 116.818,53.999L119.818,53.999ZM59.948,-0.834C46.229,-0.834 35.802,-0.837 27.741,0.154C19.651,1.147 13.717,3.164 9.114,7.369L11.138,9.584C15.083,5.979 20.303,4.09 28.107,3.131C35.942,2.169 46.151,2.166 59.948,2.166L59.948,-0.834ZM3.078,53.999C3.078,41.382 3.082,32.084 4.131,24.957C5.171,17.888 7.212,13.171 11.138,9.584L9.114,7.369C4.492,11.592 2.259,17.066 1.163,24.52C0.074,31.917 0.078,41.475 0.078,53.999L3.078,53.999Z" fill="#6B6B6B"/>
<path d="M93.473,32.667C93.473,37.605 89.048,41.833 83.299,41.833L83.299,44.833C90.444,44.833 96.473,39.511 96.473,32.667L93.473,32.667ZM83.299,41.833C77.55,41.833 73.125,37.605 73.125,32.667L70.125,32.667C70.125,39.511 76.153,44.833 83.299,44.833L83.299,41.833ZM73.125,32.667C73.125,27.729 77.55,23.5 83.299,23.5L83.299,20.5C76.153,20.5 70.125,25.823 70.125,32.667L73.125,32.667ZM83.299,23.5C89.048,23.5 93.473,27.729 93.473,32.667L96.473,32.667C96.473,25.823 90.444,20.5 83.299,20.5L83.299,23.5Z" fill="#6B6B6B"/>
<path d="M0.641,55.496C-0.006,56.014 -0.111,56.958 0.407,57.605C0.924,58.252 1.868,58.357 2.515,57.84L0.641,55.496ZM11.802,48.494L12.739,49.666L12.739,49.666L11.802,48.494ZM30.135,49.052L31.147,47.944L31.147,47.944L30.135,49.052ZM55.174,71.93L56.186,70.823L56.186,70.823L55.174,71.93ZM70.142,73.115L69.331,71.853L69.331,71.853L70.142,73.115ZM71.882,71.997L71.072,70.735L71.072,70.735L71.882,71.997ZM93.665,73.195L92.712,74.354L92.712,74.354L93.665,73.195ZM111.528,89.827C112.168,90.353 113.113,90.261 113.639,89.621C114.165,88.981 114.073,88.036 113.433,87.509L111.528,89.827ZM2.515,57.84L12.739,49.666L10.865,47.322L0.641,55.496L2.515,57.84ZM29.124,50.159L54.163,73.038L56.186,70.823L31.147,47.944L29.124,50.159ZM70.952,74.377L72.693,73.259L71.072,70.735L69.331,71.853L70.952,74.377ZM92.712,74.354L111.528,89.827L113.433,87.509L94.618,72.037L92.712,74.354ZM72.693,73.259C78.831,69.317 87.155,69.783 92.712,74.354L94.618,72.037C88.04,66.627 78.291,66.099 71.072,70.735L72.693,73.259ZM54.163,73.038C58.687,77.172 65.751,77.717 70.952,74.377L69.331,71.853C65.25,74.474 59.685,74.02 56.186,70.823L54.163,73.038ZM12.739,49.666C17.486,45.87 24.676,46.095 29.124,50.159L31.147,47.944C25.6,42.875 16.756,42.613 10.865,47.322L12.739,49.666Z" fill="#6B6B6B"/>
</svg>
