<svg width="48" height="48" viewBox="0 0 48 48" fill="none" xmlns="http://www.w3.org/2000/svg" xmlns:xlink="http://www.w3.org/1999/xlink">
<path d="M39,0L9,0C6.614,0.003 4.326,0.952 2.639,2.639C0.952,4.326 0.003,6.614 0,9L0,39C0.003,41.386 0.952,43.674 2.639,45.361C4.326,47.048 6.614,47.997 9,48L39,48C41.386,47.997 43.674,47.048 45.361,45.361C47.048,43.674 47.997,41.386 48,39L48,9C47.997,6.614 47.048,4.326 45.361,2.639C43.674,0.952 41.386,0.003 39,0L39,0ZM9,6L39,6C39.796,6 40.559,6.316 41.121,6.879C41.684,7.441 42,8.204 42,9L42,39C42.001,39.394 41.923,39.784 41.772,40.148C41.621,40.512 41.399,40.842 41.12,41.12L23.656,23.656C22.156,22.156 20.121,21.314 18,21.314C15.879,21.314 13.844,22.156 12.344,23.656L6,30L6,9C6,8.204 6.316,7.441 6.879,6.879C7.441,6.316 8.204,6 9,6L9,6Z" fill="#374957"/>
<path d="M31,20C33.761,20 36,17.761 36,15C36,12.238 33.761,10 31,10C28.239,10 26,12.238 26,15C26,17.761 28.239,20 31,20Z" fill="#374957"/>
</svg>
