<svg width="50" height="48" viewBox="0 0 50 48" fill="none" xmlns="http://www.w3.org/2000/svg" xmlns:xlink="http://www.w3.org/1999/xlink">
<path d="M3.524,16.75L1.96,18.764C0.51,20.628 -0.176,22.974 0.04,25.325C0.256,27.677 1.357,29.858 3.122,31.428L18.4,45.91C19.939,47.253 21.915,47.991 23.958,47.986C26.063,47.985 28.096,47.216 29.676,45.824L44.796,31.538C46.579,30.002 47.71,27.844 47.959,25.503C48.208,23.163 47.557,20.815 46.138,18.938L44.634,16.924C43.48,15.395 41.987,14.154 40.272,13.3C38.557,12.445 36.667,12 34.752,12L13.278,12C11.398,12.002 9.544,12.43 7.854,13.253C6.165,14.076 4.684,15.272 3.524,16.75L3.524,16.75ZM6.704,22.442L8.262,20.43C8.859,19.672 9.621,19.059 10.49,18.638C11.359,18.217 12.312,17.999 13.278,18L18.128,18L16.982,20.812C16.449,22.142 16.199,23.568 16.248,25L31.682,25C31.772,23.489 31.528,21.978 30.968,20.572L29.922,18L34.752,18C35.736,17.998 36.708,18.225 37.59,18.663C38.471,19.1 39.24,19.737 39.834,20.522L41.338,22.536C41.598,22.885 41.786,23.283 41.889,23.707C41.992,24.13 42.008,24.57 41.938,25L31.682,25C31.64,26.094 31.425,27.174 31.044,28.2L25.106,41.7C24.76,41.876 24.377,41.968 23.989,41.968C23.6,41.968 23.218,41.876 22.872,41.7L16.908,28.448C16.493,27.345 16.27,26.179 16.248,25L6.048,25C5.973,24.551 5.993,24.092 6.106,23.652C6.219,23.212 6.423,22.8 6.704,22.442L6.704,22.442Z" fill="#374957"/>
<path d="M32.878,0.879L30.878,2.879C30.315,3.442 29.999,4.205 29.999,5.001C29.999,5.797 30.315,6.56 30.878,7.123C31.441,7.686 32.204,8.002 33,8.002C33.796,8.002 34.559,7.686 35.122,7.123L37.122,5.123C37.685,4.56 38.001,3.797 38.001,3.001C38.001,2.205 37.685,1.442 37.122,0.879C36.559,0.316 35.796,0 35,0C34.204,0 33.441,0.316 32.878,0.879L32.878,0.879Z" fill="#374957"/>
<path d="M15,8.001C15.594,8.001 16.174,7.825 16.667,7.496C17.161,7.166 17.546,6.698 17.773,6.149C18,5.601 18.059,4.997 17.944,4.415C17.828,3.833 17.542,3.299 17.122,2.879L15.122,0.879C14.559,0.316 13.796,0 13,0C12.204,0 11.441,0.316 10.878,0.879C10.315,1.442 9.999,2.205 9.999,3.001C9.999,3.797 10.315,4.56 10.878,5.123L12.878,7.123C13.157,7.401 13.488,7.622 13.852,7.773C14.216,7.924 14.606,8.001 15,8.001L15,8.001Z" fill="#374957"/>
<path d="M21,3L21,5C21,5.796 21.316,6.559 21.879,7.121C22.441,7.684 23.204,8 24,8C24.796,8 25.559,7.684 26.121,7.121C26.684,6.559 27,5.796 27,5L27,3C27,2.204 26.684,1.441 26.121,0.879C25.559,0.316 24.796,0 24,0C23.204,0 22.441,0.316 21.879,0.879C21.316,1.441 21,2.204 21,3L21,3Z" fill="#374957"/>
</svg>
