<svg width="48" height="48" viewBox="0 0 48 48" fill="none" xmlns="http://www.w3.org/2000/svg" xmlns:xlink="http://www.w3.org/1999/xlink">
<path d="M45,12L3,12C2.204,12 1.441,11.684 0.879,11.121C0.316,10.559 0,9.796 0,9C0,8.204 0.316,7.441 0.879,6.879C1.441,6.316 2.204,6 3,6L45,6C45.796,6 46.559,6.316 47.121,6.879C47.684,7.441 48,8.204 48,9C48,9.796 47.684,10.559 47.121,11.121C46.559,11.684 45.796,12 45,12Z" fill="#374957"/>
<path d="M45,22L19,22C18.204,22 17.441,21.683 16.879,21.121C16.316,20.558 16,19.795 16,19C16,18.204 16.316,17.441 16.879,16.878C17.441,16.316 18.204,16 19,16L45,16C45.796,16 46.559,16.316 47.121,16.878C47.684,17.441 48,18.204 48,19C48,19.795 47.684,20.558 47.121,21.121C46.559,21.683 45.796,22 45,22Z" fill="#374957"/>
<path d="M45,42L3,42C2.204,42 1.441,41.684 0.879,41.121C0.316,40.559 0,39.796 0,39C0,38.204 0.316,37.441 0.879,36.879C1.441,36.316 2.204,36 3,36L45,36C45.796,36 46.559,36.316 47.121,36.879C47.684,37.441 48,38.204 48,39C48,39.796 47.684,40.559 47.121,41.121C46.559,41.684 45.796,42 45,42Z" fill="#374957"/>
<path d="M45,32L19,32C18.204,32 17.441,31.684 16.879,31.122C16.316,30.559 16,29.796 16,29C16,28.205 16.316,27.442 16.879,26.879C17.441,26.317 18.204,26 19,26L45,26C45.796,26 46.559,26.317 47.121,26.879C47.684,27.442 48,28.205 48,29C48,29.796 47.684,30.559 47.121,31.122C46.559,31.684 45.796,32 45,32Z" fill="#374957"/>
<path d="M3.414,31.49L9.362,25.542C9.77,25.133 9.999,24.578 9.999,24C9.999,23.422 9.77,22.868 9.362,22.458L3.414,16.51C3.134,16.231 2.778,16.04 2.39,15.963C2.001,15.886 1.599,15.926 1.234,16.077C0.868,16.229 0.556,16.486 0.336,16.815C0.117,17.144 0,17.531 0,17.926L0,30.074C0,30.47 0.117,30.857 0.336,31.186C0.556,31.515 0.868,31.772 1.234,31.923C1.599,32.075 2.001,32.115 2.39,32.038C2.778,31.961 3.134,31.77 3.414,31.49L3.414,31.49Z" fill="#374957"/>
</svg>
