<svg width="48" height="48" viewBox="0 0 48 48" fill="none" xmlns="http://www.w3.org/2000/svg" xmlns:xlink="http://www.w3.org/1999/xlink">
<path d="M37,6L27,6L27,3C27,2.204 26.684,1.441 26.121,0.879C25.559,0.316 24.796,0 24,0L24,0C23.204,0 22.441,0.316 21.879,0.879C21.316,1.441 21,2.204 21,3L21,6L11,6C8.083,6 5.285,7.159 3.222,9.222C1.159,11.285 0,14.083 0,17L0,31C0,33.917 1.159,36.715 3.222,38.778C5.285,40.841 8.083,42 11,42L37,42C39.917,42 42.715,40.841 44.778,38.778C46.841,36.715 48,33.917 48,31L48,17C48,14.083 46.841,11.285 44.778,9.222C42.715,7.159 39.917,6 37,6L37,6ZM42,31C42,32.326 41.473,33.598 40.536,34.536C39.598,35.473 38.326,36 37,36L11,36C9.674,36 8.402,35.473 7.464,34.536C6.527,33.598 6,32.326 6,31L6,17C6,15.674 6.527,14.402 7.464,13.464C8.402,12.527 9.674,12 11,12L37,12C38.326,12 39.598,12.527 40.536,13.464C41.473,14.402 42,15.674 42,17L42,31Z" fill="#374957"/>
<circle cx="13" cy="19" r="3" fill="#374957"/>
<circle cx="23" cy="19" r="3" fill="#374957"/>
<path d="M35,16L33,16C32.204,16 31.441,16.316 30.879,16.878C30.316,17.441 30,18.204 30,19C30,19.795 30.316,20.558 30.879,21.121C31.441,21.683 32.204,22 33,22L35,22C35.796,22 36.559,21.683 37.121,21.121C37.684,20.558 38,19.795 38,19C38,18.204 37.684,17.441 37.121,16.878C36.559,16.316 35.796,16 35,16L35,16Z" fill="#374957"/>
<path d="M23,26L13,26C12.204,26 11.441,26.317 10.879,26.879C10.316,27.442 10,28.205 10,29C10,29.796 10.316,30.559 10.879,31.122C11.441,31.684 12.204,32 13,32L23,32C23.796,32 24.559,31.684 25.121,31.122C25.684,30.559 26,29.796 26,29C26,28.205 25.684,27.442 25.121,26.879C24.559,26.317 23.796,26 23,26Z" fill="#374957"/>
<path d="M35,26L33,26C32.204,26 31.441,26.317 30.879,26.879C30.316,27.442 30,28.205 30,29C30,29.796 30.316,30.559 30.879,31.122C31.441,31.684 32.204,32 33,32L35,32C35.796,32 36.559,31.684 37.121,31.122C37.684,30.559 38,29.796 38,29C38,28.205 37.684,27.442 37.121,26.879C36.559,26.317 35.796,26 35,26Z" fill="#374957"/>
</svg>
