<svg width="48" height="48" viewBox="0 0 48 48" fill="none" xmlns="http://www.w3.org/2000/svg" xmlns:xlink="http://www.w3.org/1999/xlink">
<path d="M34.586,34.585L23.656,23.655C22.156,22.156 20.121,21.313 18,21.313C15.879,21.313 13.844,22.156 12.344,23.655L10.586,25.413C10.211,25.788 10,26.297 10,26.827L10,33.999C10,35.06 10.421,36.078 11.172,36.828C11.922,37.578 12.939,37.999 14,37.999L33.172,37.999C33.568,37.999 33.954,37.882 34.283,37.662C34.612,37.442 34.868,37.13 35.019,36.765C35.171,36.399 35.21,35.997 35.133,35.609C35.056,35.221 34.866,34.865 34.586,34.585Z" fill="#374957"/>
<path d="M32,21C34.761,21 37,18.762 37,16C37,13.239 34.761,11 32,11C29.239,11 27,13.239 27,16C27,18.762 29.239,21 32,21Z" fill="#374957"/>
<path d="M45,31C44.204,31 43.441,31.316 42.879,31.878C42.316,32.441 42,33.204 42,33.999L42,36.999C42,38.326 41.473,39.597 40.536,40.535C39.598,41.473 38.326,41.999 37,41.999L34,41.999C33.204,41.999 32.441,42.316 31.879,42.878C31.316,43.441 31,44.204 31,44.999C31,45.795 31.316,46.558 31.879,47.121C32.441,47.683 33.204,47.999 34,47.999L37,47.999C39.916,47.996 42.712,46.836 44.775,44.774C46.837,42.712 47.997,39.916 48,36.999L48,33.999C48,33.204 47.684,32.441 47.121,31.878C46.559,31.316 45.796,31 45,31Z" fill="#374957"/>
<path d="M3,17C3.796,17 4.559,16.684 5.121,16.121C5.684,15.559 6,14.796 6,14L6,11C6,9.674 6.527,8.402 7.464,7.464C8.402,6.527 9.674,6 11,6L14,6C14.796,6 15.559,5.684 16.121,5.121C16.684,4.559 17,3.796 17,3C17,2.204 16.684,1.441 16.121,0.879C15.559,0.316 14.796,0 14,0L11,0C8.084,0.003 5.288,1.163 3.225,3.225C1.163,5.288 0.003,8.084 0,11L0,14C0,14.796 0.316,15.559 0.879,16.121C1.441,16.684 2.204,17 3,17L3,17Z" fill="#374957"/>
<path d="M14,41.999L11,41.999C9.674,41.999 8.402,41.473 7.464,40.535C6.527,39.597 6,38.326 6,36.999L6,33.999C6,33.204 5.684,32.441 5.121,31.878C4.559,31.316 3.796,31 3,31C2.204,31 1.441,31.316 0.879,31.878C0.316,32.441 0,33.204 0,33.999L0,36.999C0.003,39.916 1.163,42.712 3.225,44.774C5.288,46.836 8.084,47.996 11,47.999L14,47.999C14.796,47.999 15.559,47.683 16.121,47.121C16.684,46.558 17,45.795 17,44.999C17,44.204 16.684,43.441 16.121,42.878C15.559,42.316 14.796,41.999 14,41.999L14,41.999Z" fill="#374957"/>
<path d="M37,0L34,0C33.204,0 32.441,0.316 31.879,0.879C31.316,1.441 31,2.204 31,3C31,3.796 31.316,4.559 31.879,5.121C32.441,5.684 33.204,6 34,6L37,6C38.326,6 39.598,6.527 40.536,7.464C41.473,8.402 42,9.674 42,11L42,14C42,14.796 42.316,15.559 42.879,16.121C43.441,16.684 44.204,17 45,17C45.796,17 46.559,16.684 47.121,16.121C47.684,15.559 48,14.796 48,14L48,11C47.997,8.084 46.837,5.288 44.775,3.225C42.712,1.163 39.916,0.003 37,0L37,0Z" fill="#374957"/>
</svg>
