<svg width="48" height="48" viewBox="0 0 48 48" fill="none" xmlns="http://www.w3.org/2000/svg" xmlns:xlink="http://www.w3.org/1999/xlink">
<path d="M45,36L42,36L42,33C42,32.204 41.684,31.441 41.121,30.879C40.559,30.316 39.796,30 39,30C38.204,30 37.441,30.316 36.879,30.879C36.316,31.441 36,32.204 36,33L36,36L33,36C32.204,36 31.441,36.316 30.879,36.879C30.316,37.441 30,38.204 30,39C30,39.796 30.316,40.559 30.879,41.121C31.441,41.684 32.204,42 33,42L36,42L36,45C36,45.796 36.316,46.559 36.879,47.121C37.441,47.684 38.204,48 39,48C39.796,48 40.559,47.684 41.121,47.121C41.684,46.559 42,45.796 42,45L42,42L45,42C45.796,42 46.559,41.684 47.121,41.121C47.684,40.559 48,39.796 48,39C48,38.204 47.684,37.441 47.121,36.879C46.559,36.316 45.796,36 45,36Z" fill="#374957"/>
<path d="M41,12L36,12C36,8.817 34.736,5.765 32.485,3.515C30.235,1.264 27.183,0 24,0C20.817,0 17.765,1.264 15.515,3.515C13.264,5.765 12,8.817 12,12L7,12C5.15,12.022 3.383,12.767 2.075,14.075C0.767,15.383 0.022,17.15 0,19L0,37C0.026,39.909 1.193,42.693 3.25,44.75C5.307,46.807 8.091,47.974 11,48L23,48C23.796,48 24.559,47.684 25.121,47.121C25.684,46.559 26,45.796 26,45C26,44.204 25.684,43.441 25.121,42.879C24.559,42.316 23.796,42 23,42L11,42C10.342,42.006 9.689,41.881 9.079,41.632C8.469,41.383 7.916,41.015 7.45,40.55C6.985,40.084 6.617,39.531 6.368,38.921C6.119,38.311 5.994,37.658 6,37L6,19C5.992,18.867 6.012,18.733 6.059,18.608C6.107,18.483 6.18,18.369 6.275,18.275C6.369,18.18 6.483,18.107 6.608,18.059C6.733,18.012 6.867,17.992 7,18L12,18L12,21C12.019,21.79 12.342,22.541 12.9,23.1C13.459,23.658 14.21,23.981 15,24C15.79,23.981 16.541,23.658 17.1,23.1C17.658,22.541 17.981,21.79 18,21L18,18L30,18L30,21C30,21.796 30.316,22.559 30.879,23.121C31.441,23.684 32.204,24 33,24C33.796,24 34.559,23.684 35.121,23.121C35.684,22.559 36,21.796 36,21L36,18L41,18C41.133,17.992 41.267,18.012 41.392,18.059C41.517,18.107 41.631,18.18 41.725,18.275C41.82,18.369 41.893,18.483 41.941,18.608C41.988,18.733 42.008,18.867 42,19L42,23C42,23.796 42.316,24.559 42.879,25.121C43.441,25.684 44.204,26 45,26C45.796,26 46.559,25.684 47.121,25.121C47.684,24.559 48,23.796 48,23L48,19C47.978,17.15 47.233,15.383 45.925,14.075C44.617,12.767 42.85,12.022 41,12L41,12ZM18,12C18,10.409 18.632,8.883 19.757,7.757C20.883,6.632 22.409,6 24,6C25.591,6 27.117,6.632 28.243,7.757C29.368,8.883 30,10.409 30,12L18,12Z" fill="#374957"/>
</svg>
