<svg width="48" height="48" viewBox="0 0 48 48" fill="none" xmlns="http://www.w3.org/2000/svg" xmlns:xlink="http://www.w3.org/1999/xlink">
<path d="M45,31C44.204,31 43.441,31.317 42.879,31.879C42.316,32.442 42,33.205 42,34L42,37C42,38.327 41.473,39.598 40.535,40.536C39.598,41.474 38.326,42 37,42L34,42C33.204,42 32.441,42.317 31.879,42.879C31.316,43.442 31,44.205 31,45C31,45.796 31.316,46.559 31.879,47.122C32.441,47.684 33.204,48 34,48L37,48C39.916,47.997 42.712,46.837 44.775,44.775C46.837,42.713 47.997,39.917 48,37L48,34C48,33.205 47.684,32.442 47.121,31.879C46.559,31.317 45.796,31 45,31Z" fill="#374957"/>
<path d="M14,0L11,0C8.084,0.003 5.288,1.163 3.225,3.225C1.163,5.288 0.003,8.084 0,11L0,14C0,14.796 0.316,15.559 0.879,16.121C1.441,16.684 2.204,17 3,17C3.796,17 4.559,16.684 5.121,16.121C5.684,15.559 6,14.796 6,14L6,11C6,9.674 6.527,8.402 7.464,7.464C8.402,6.527 9.674,6 11,6L14,6C14.796,6 15.559,5.684 16.121,5.121C16.684,4.559 17,3.796 17,3C17,2.204 16.684,1.441 16.121,0.879C15.559,0.316 14.796,0 14,0L14,0Z" fill="#374957"/>
<path d="M14,42L11,42C9.674,42 8.402,41.474 7.464,40.536C6.527,39.598 6,38.327 6,37L6,34C6,33.205 5.684,32.442 5.121,31.879C4.559,31.317 3.796,31 3,31C2.204,31 1.441,31.317 0.879,31.879C0.316,32.442 0,33.205 0,34L0,37C0.003,39.917 1.163,42.713 3.225,44.775C5.288,46.837 8.084,47.997 11,48L14,48C14.796,48 15.559,47.684 16.121,47.122C16.684,46.559 17,45.796 17,45C17,44.205 16.684,43.442 16.121,42.879C15.559,42.317 14.796,42 14,42L14,42Z" fill="#374957"/>
<path d="M37,0L34,0C33.204,0 32.441,0.316 31.879,0.879C31.316,1.441 31,2.204 31,3C31,3.796 31.316,4.559 31.879,5.121C32.441,5.684 33.204,6 34,6L37,6C38.326,6 39.598,6.527 40.535,7.464C41.473,8.402 42,9.674 42,11L42,14C42,14.796 42.316,15.559 42.879,16.121C43.441,16.684 44.204,17 45,17C45.796,17 46.559,16.684 47.121,16.121C47.684,15.559 48,14.796 48,14L48,11C47.997,8.084 46.837,5.288 44.775,3.225C42.712,1.163 39.916,0.003 37,0L37,0Z" fill="#374957"/>
</svg>
