<svg width="48" height="48" viewBox="0 0 48 48" fill="none" xmlns="http://www.w3.org/2000/svg" xmlns:xlink="http://www.w3.org/1999/xlink">
<path d="M37.113,22.77L28.023,22.77C27.657,22.771 27.295,22.701 26.957,22.562C26.619,22.422 26.311,22.218 26.052,21.96C25.794,21.702 25.588,21.395 25.448,21.057C25.308,20.72 25.236,20.358 25.237,19.992L25.237,10.866C25.239,9.816 25,8.778 24.539,7.834C24.077,6.891 23.405,6.065 22.575,5.422C21.781,4.796 20.854,4.361 19.866,4.149C18.877,3.937 17.853,3.955 16.873,4.2C13.055,5.15 9.559,7.097 6.74,9.84C3.921,12.584 1.881,16.027 0.828,19.817C-0.225,23.607 -0.254,27.609 0.746,31.413C1.746,35.218 3.737,38.689 6.517,41.472C9.297,44.255 12.766,46.251 16.569,47.254C20.373,48.258 24.375,48.234 28.166,47.186C31.957,46.137 35.402,44.101 38.149,41.285C40.896,38.469 42.846,34.974 43.801,31.158C44.048,30.176 44.067,29.149 43.856,28.158C43.644,27.167 43.208,26.238 42.581,25.442C41.93,24.613 41.1,23.942 40.153,23.479C39.206,23.016 38.167,22.774 37.113,22.77ZM37.979,29.688C37.285,32.478 35.863,35.034 33.858,37.094C31.853,39.155 29.336,40.645 26.566,41.414C23.796,42.182 20.871,42.201 18.091,41.468C15.311,40.736 12.775,39.277 10.744,37.243C8.712,35.209 7.257,32.671 6.528,29.89C5.799,27.109 5.822,24.185 6.594,21.415C7.366,18.646 8.86,16.131 10.923,14.129C12.986,12.126 15.544,10.708 18.335,10.018C18.382,10.006 18.43,10 18.479,10C18.625,10.006 18.766,10.06 18.879,10.154C18.987,10.239 19.074,10.347 19.135,10.47C19.196,10.593 19.229,10.729 19.231,10.866L19.231,19.988C19.23,21.142 19.457,22.284 19.899,23.35C20.34,24.416 20.988,25.384 21.804,26.199C22.62,27.015 23.588,27.661 24.654,28.102C25.72,28.543 26.863,28.769 28.017,28.768L37.107,28.768C37.248,28.769 37.386,28.802 37.513,28.864C37.639,28.927 37.75,29.017 37.837,29.128C37.904,29.203 37.952,29.293 37.977,29.391C38.001,29.488 38.002,29.59 37.979,29.688L37.979,29.688Z" fill="#374957"/>
<path d="M47.302,14.892C46.381,11.507 44.593,8.421 42.113,5.939C39.633,3.458 36.548,1.667 33.164,0.744C32.567,0.575 31.938,0.546 31.327,0.66C30.717,0.773 30.141,1.027 29.645,1.4C29.148,1.774 28.745,2.257 28.466,2.812C28.188,3.367 28.041,3.979 28.038,4.6L28.038,14C28.038,15.591 28.67,17.117 29.795,18.243C30.921,19.368 32.447,20 34.038,20L43.476,20C44.093,19.994 44.701,19.846 45.252,19.567C45.803,19.288 46.282,18.886 46.652,18.392C47.022,17.898 47.273,17.325 47.386,16.718C47.499,16.111 47.47,15.486 47.302,14.892L47.302,14.892Z" fill="#374957"/>
</svg>
