<svg width="48" height="48" viewBox="0 0 48 48" fill="none" xmlns="http://www.w3.org/2000/svg" xmlns:xlink="http://www.w3.org/1999/xlink">
<path d="M37.476,8.024L32.49,1.558C32.116,1.073 31.636,0.681 31.087,0.411C30.538,0.14 29.934,0 29.322,0L18.678,0C18.066,0 17.463,0.141 16.914,0.411C16.365,0.681 15.885,1.074 15.512,1.558L10.524,8.024C7.694,8.147 5.02,9.356 3.06,11.401C1.1,13.445 0.004,16.167 0,19L0,37C0.003,39.916 1.163,42.712 3.225,44.775C5.288,46.837 8.084,47.997 11,48L37,48C39.916,47.997 42.712,46.837 44.775,44.775C46.837,42.712 47.997,39.916 48,37L48,19C47.996,16.167 46.9,13.445 44.94,11.401C42.98,9.356 40.306,8.147 37.476,8.024ZM42,37C42,38.326 41.473,39.598 40.536,40.536C39.598,41.473 38.326,42 37,42L11,42C9.674,42 8.402,41.473 7.464,40.536C6.527,39.598 6,38.326 6,37L6,19C6,17.674 6.527,16.402 7.464,15.464C8.402,14.527 9.674,14 11,14L37,14C38.326,14 39.598,14.527 40.536,15.464C41.473,16.402 42,17.674 42,19L42,37Z" fill="#374957"/>
<path d="M24,17C21.824,17 19.698,17.645 17.889,18.854C16.08,20.063 14.67,21.78 13.837,23.79C13.005,25.8 12.787,28.012 13.211,30.146C13.636,32.28 14.683,34.24 16.222,35.778C17.76,37.317 19.72,38.364 21.854,38.789C23.988,39.213 26.2,38.995 28.21,38.163C30.219,37.33 31.937,35.92 33.146,34.111C34.355,32.302 35,30.176 35,28C34.997,25.084 33.837,22.288 31.775,20.225C29.712,18.163 26.916,17.003 24,17L24,17ZM24,33C23.011,33 22.044,32.707 21.222,32.157C20.4,31.608 19.759,30.827 19.381,29.913C19.002,29 18.903,27.994 19.096,27.025C19.289,26.055 19.765,25.164 20.464,24.464C21.164,23.765 22.055,23.289 23.025,23.096C23.994,22.903 25,23.002 25.913,23.381C26.827,23.759 27.608,24.4 28.157,25.222C28.707,26.044 29,27.011 29,28C29,29.326 28.473,30.598 27.536,31.536C26.598,32.473 25.326,33 24,33L24,33Z" fill="#374957"/>
</svg>
