<svg width="48" height="48" viewBox="0 0 48 48" fill="none" xmlns="http://www.w3.org/2000/svg" xmlns:xlink="http://www.w3.org/1999/xlink">
<path d="M22.32,23.387L20.886,21.895C20.335,21.322 19.578,20.991 18.783,20.976C17.988,20.96 17.219,21.26 16.646,21.811L16.646,21.811C16.362,22.084 16.134,22.411 15.976,22.772C15.818,23.132 15.733,23.521 15.725,23.915C15.717,24.309 15.787,24.7 15.931,25.067C16.074,25.434 16.289,25.769 16.562,26.053L18.88,28.465C19.311,28.922 19.83,29.288 20.405,29.543C20.98,29.797 21.599,29.934 22.228,29.945L22.302,29.945C23.548,29.942 24.742,29.447 25.626,28.569L33.548,20.645C34.11,20.083 34.426,19.32 34.426,18.524C34.426,17.729 34.11,16.966 33.548,16.403L33.548,16.403C33.269,16.125 32.938,15.903 32.574,15.752C32.21,15.602 31.82,15.524 31.426,15.524C31.032,15.524 30.641,15.602 30.277,15.752C29.913,15.903 29.582,16.125 29.304,16.403L22.32,23.387Z" fill="#374957"/>
<path d="M24,47.998C23.581,47.998 23.166,47.91 22.782,47.74C22,47.398 3.818,39.136 3.818,23.998L3.818,14.492C3.816,12.183 4.541,9.931 5.892,8.058C7.242,6.184 9.149,4.784 11.34,4.056L23.05,0.152C23.667,-0.052 24.334,-0.052 24.95,0.152L36.66,4.056C38.852,4.784 40.758,6.184 42.109,8.058C43.459,9.931 44.185,12.183 44.182,14.492L44.182,23.998C44.182,41.234 25.734,47.582 24.95,47.844C24.644,47.946 24.323,47.998 24,47.998L24,47.998ZM24,6.16L13.238,9.748C12.242,10.08 11.376,10.716 10.762,11.568C10.149,12.419 9.818,13.442 9.818,14.492L9.818,23.998C9.818,33.468 20.66,39.902 24.154,41.728C27.668,40.262 38.182,34.962 38.182,23.998L38.182,14.492C38.182,13.442 37.852,12.419 37.238,11.568C36.624,10.716 35.758,10.08 34.762,9.748L24,6.16Z" fill="#374957"/>
</svg>
