<svg width="40" height="42" viewBox="0 0 40 42" fill="none" xmlns="http://www.w3.org/2000/svg" xmlns:xlink="http://www.w3.org/1999/xlink">
<path d="M20,0.035C15.552,0.04 11.288,1.809 8.143,4.954C4.998,8.1 3.229,12.364 3.225,16.811C3.225,25.601 16.835,37.36 18.391,38.673L20.003,40.035L21.615,38.673C23.168,37.36 36.781,25.601 36.781,16.811C36.776,12.363 35.007,8.097 31.86,4.952C28.714,1.807 24.448,0.038 20,0.035L20,0.035ZM20,33.44C14.891,28.786 8.221,21.226 8.221,16.811C8.221,13.688 9.462,10.692 11.671,8.483C13.88,6.274 16.876,5.033 20,5.033C23.123,5.033 26.119,6.274 28.328,8.483C30.537,10.692 31.778,13.688 31.778,16.811C31.778,21.218 25.106,28.781 20,33.44Z" fill="#EE6611"/>
<path d="M20.001,21.664C22.759,21.664 24.996,19.428 24.996,16.669C24.996,13.911 22.759,11.674 20.001,11.674C17.242,11.674 15.006,13.911 15.006,16.669C15.006,19.428 17.242,21.664 20.001,21.664Z" fill="#EE6611"/>
</svg>
