<svg width="48" height="48" viewBox="0 0 48 48" fill="none" xmlns="http://www.w3.org/2000/svg" xmlns:xlink="http://www.w3.org/1999/xlink">
<path d="M37,44.001L11,44.001C8.084,43.998 5.288,42.838 3.225,40.776C1.163,38.714 0.003,35.918 0,33.001L0,15.001C0.003,12.085 1.163,9.289 3.225,7.227C5.288,5.164 8.084,4.004 11,4.001L37,4.001C39.916,4.004 42.712,5.164 44.775,7.227C46.837,9.289 47.997,12.085 48,15.001L48,33.001C47.997,35.918 46.837,38.714 44.775,40.776C42.712,42.838 39.916,43.998 37,44.001ZM11,10.001C9.674,10.001 8.402,10.528 7.464,11.466C6.527,12.403 6,13.675 6,15.001L6,33.001C6,34.327 6.527,35.599 7.464,36.537C8.402,37.474 9.674,38.001 11,38.001L37,38.001C38.326,38.001 39.598,37.474 40.536,36.537C41.473,35.599 42,34.327 42,33.001L42,15.001C42,13.675 41.473,12.403 40.536,11.466C39.598,10.528 38.326,10.001 37,10.001L11,10.001Z" fill="#374957"/>
<path d="M35,24L23,24C22.204,24 21.441,23.684 20.879,23.121C20.316,22.559 20,21.796 20,21C20,20.204 20.316,19.441 20.879,18.879C21.441,18.316 22.204,18 23,18L35,18C35.796,18 36.559,18.316 37.121,18.879C37.684,19.441 38,20.204 38,21C38,21.796 37.684,22.559 37.121,23.121C36.559,23.684 35.796,24 35,24Z" fill="#374957"/>
<path d="M25,34.001L13,34.001C12.204,34.001 11.441,33.685 10.879,33.123C10.316,32.56 10,31.797 10,31.001C10,30.206 10.316,29.443 10.879,28.88C11.441,28.317 12.204,28.001 13,28.001L25,28.001C25.796,28.001 26.559,28.317 27.121,28.88C27.684,29.443 28,30.206 28,31.001C28,31.797 27.684,32.56 27.121,33.123C26.559,33.685 25.796,34.001 25,34.001L25,34.001Z" fill="#374957"/>
<circle cx="13" cy="21" r="3" fill="#374957"/>
<circle cx="35" cy="31.018" r="3" fill="#374957"/>
</svg>
