<svg width="48" height="48" viewBox="0 0 48 48" fill="none" xmlns="http://www.w3.org/2000/svg" xmlns:xlink="http://www.w3.org/1999/xlink">
<path d="M24,48C23.606,48.001 23.216,47.923 22.853,47.773C22.489,47.622 22.158,47.401 21.88,47.122L6.528,31.778C4.465,29.715 3.307,26.917 3.307,24C3.307,21.083 4.465,18.285 6.528,16.222L21.872,0.878C22.435,0.315 23.198,-0.001 23.994,0C24.79,0 25.553,0.316 26.115,0.879C26.678,1.442 26.994,2.205 26.993,3C26.993,3.796 26.677,4.559 26.114,5.122L10.77,20.464C10.306,20.928 9.937,21.479 9.686,22.086C9.435,22.693 9.305,23.343 9.305,24C9.305,24.657 9.435,25.307 9.686,25.914C9.937,26.52 10.306,27.072 10.77,27.536L26.114,42.878C26.534,43.297 26.819,43.831 26.935,44.412C27.052,44.994 26.993,45.596 26.767,46.144C26.54,46.692 26.157,47.161 25.665,47.491C25.172,47.822 24.593,47.999 24,48L24,48Z" fill="#374957"/>
<path d="M43.084,48C42.69,48 42.3,47.923 41.936,47.772C41.572,47.622 41.241,47.401 40.962,47.122L22.8,28.95C21.49,27.636 20.754,25.856 20.754,24C20.754,22.144 21.49,20.364 22.8,19.05L40.962,0.878C41.53,0.342 42.285,0.048 43.066,0.059C43.847,0.071 44.593,0.386 45.145,0.939C45.697,1.492 46.012,2.238 46.022,3.02C46.032,3.801 45.738,4.555 45.2,5.122L27.028,23.292C26.935,23.385 26.861,23.495 26.811,23.617C26.76,23.738 26.734,23.869 26.734,24C26.734,24.132 26.76,24.262 26.811,24.383C26.861,24.505 26.935,24.615 27.028,24.708L45.2,42.878C45.62,43.297 45.906,43.831 46.022,44.413C46.138,44.995 46.079,45.597 45.852,46.146C45.626,46.694 45.242,47.162 44.75,47.492C44.257,47.822 43.677,47.999 43.084,48L43.084,48Z" fill="#374957"/>
</svg>
