<svg width="48" height="48" viewBox="0 0 48 48" fill="none" xmlns="http://www.w3.org/2000/svg" xmlns:xlink="http://www.w3.org/1999/xlink">
<path d="M42,23L42,30L36,30C34.409,30 32.883,30.632 31.757,31.757C30.632,32.883 30,34.409 30,36L30,42L9,42C8.204,42 7.441,41.684 6.879,41.121C6.316,40.559 6,39.796 6,39L6,9C6,8.204 6.316,7.441 6.879,6.879C7.441,6.316 8.204,6 9,6L27,6C27.796,6 28.559,5.684 29.121,5.121C29.684,4.559 30,3.796 30,3C30,2.204 29.684,1.441 29.121,0.879C28.559,0.316 27.796,0 27,0L9,0C6.613,0 4.324,0.948 2.636,2.636C0.948,4.324 0,6.613 0,9L0,39C0,41.387 0.948,43.676 2.636,45.364C4.324,47.052 6.613,48 9,48L32.968,48C35.354,48 37.642,47.053 39.33,45.366L45.364,39.332C47.051,37.645 47.999,35.356 48,32.97L48,23C48,22.204 47.684,21.441 47.121,20.879C46.559,20.316 45.796,20 45,20C44.204,20 43.441,20.316 42.879,20.879C42.316,21.441 42,22.204 42,23Z" fill="#374957"/>
<path d="M35.586,3.586L10.586,28.586C10.211,28.961 10,29.47 10,30L10,36C10,36.53 10.211,37.039 10.586,37.414C10.961,37.789 11.47,38 12,38L18,38C18.53,38 19.039,37.789 19.414,37.414L44.076,12.752C44.911,11.947 45.524,10.941 45.857,9.831C46.191,8.721 46.233,7.543 45.98,6.412C45.697,5.36 45.143,4.4 44.373,3.629C43.604,2.857 42.646,2.301 41.594,2.015C40.543,1.729 39.435,1.724 38.381,1.999C37.326,2.275 36.363,2.822 35.586,3.586L35.586,3.586Z" fill="#374957"/>
</svg>
