<svg width="48" height="48" viewBox="0 0 48 48" fill="none" xmlns="http://www.w3.org/2000/svg" xmlns:xlink="http://www.w3.org/1999/xlink">
<path d="M23,32C22.204,32 21.441,32.316 20.879,32.879C20.316,33.441 20,34.204 20,35L20,36.6C20,38.032 19.431,39.406 18.418,40.418C17.406,41.431 16.032,42 14.6,42L11.4,42C9.968,42 8.594,41.431 7.582,40.418C6.569,39.406 6,38.032 6,36.6L6,11.4C6,9.968 6.569,8.594 7.582,7.582C8.594,6.569 9.968,6 11.4,6L14.6,6C16.032,6 17.406,6.569 18.418,7.582C19.431,8.594 20,9.968 20,11.4L20,13C20,13.796 20.316,14.559 20.879,15.121C21.441,15.684 22.204,16 23,16C23.796,16 24.559,15.684 25.121,15.121C25.684,14.559 26,13.796 26,13L26,11.4C25.997,8.378 24.795,5.48 22.658,3.343C20.52,1.205 17.622,0.003 14.6,0L11.4,0C8.378,0.003 5.48,1.205 3.343,3.343C1.205,5.48 0.003,8.378 0,11.4L0,36.6C0.003,39.622 1.205,42.52 3.343,44.658C5.48,46.795 8.378,47.997 11.4,48L14.6,48C17.622,47.997 20.52,46.795 22.658,44.658C24.795,42.52 25.997,39.622 26,36.6L26,35C26,34.204 25.684,33.441 25.121,32.879C24.559,32.316 23.796,32 23,32Z" fill="#374957"/>
<path d="M45.122,19.049L35.95,9.877C35.671,9.598 35.341,9.377 34.976,9.226C34.612,9.076 34.222,8.998 33.828,8.998C33.434,8.998 33.044,9.076 32.68,9.227C32.316,9.378 31.986,9.599 31.707,9.878C31.144,10.44 30.829,11.204 30.829,11.999C30.829,12.393 30.907,12.783 31.057,13.147C31.208,13.511 31.429,13.842 31.708,14.121L38.53,20.943L14,20.999C13.204,20.999 12.441,21.315 11.879,21.877C11.316,22.44 11,23.203 11,23.999C11,24.794 11.316,25.557 11.879,26.12C12.441,26.682 13.204,26.999 14,26.999L14,26.999L38.636,26.943L31.702,33.876C31.139,34.439 30.823,35.202 30.823,35.998C30.823,36.793 31.138,37.557 31.701,38.119C32.264,38.682 33.027,38.999 33.822,38.999C34.618,38.999 35.381,38.683 35.944,38.12L45.116,28.949C46.427,27.635 47.164,25.856 47.165,24C47.167,22.144 46.432,20.363 45.122,19.049L45.122,19.049Z" fill="#374957"/>
</svg>
