<svg width="48" height="50" viewBox="0 0 48 50" fill="none" xmlns="http://www.w3.org/2000/svg" xmlns:xlink="http://www.w3.org/1999/xlink">
<path d="M27,16.999C27,16.203 26.684,15.44 26.121,14.877C25.559,14.315 24.796,13.999 24,13.999C23.204,13.999 22.441,14.315 21.879,14.877C21.316,15.44 21,16.203 21,16.999L21,23.379C20.491,23.956 20.159,24.668 20.045,25.429C19.93,26.191 20.038,26.969 20.354,27.67C20.671,28.372 21.183,28.967 21.83,29.385C22.477,29.802 23.23,30.025 24,30.025C24.77,30.025 25.523,29.802 26.17,29.385C26.817,28.967 27.329,28.372 27.646,27.67C27.962,26.969 28.07,26.191 27.956,25.429C27.841,24.668 27.509,23.956 27,23.379L27,16.999Z" fill="#374957"/>
<path d="M45,11C45.796,11 46.559,10.684 47.121,10.121C47.684,9.559 48,8.796 48,8C48,7.204 47.684,6.441 47.121,5.879C46.559,5.316 45.796,5 45,5C43.318,5 43,4.682 43,3C43,2.204 42.684,1.441 42.121,0.879C41.559,0.316 40.796,0 40,0C39.204,0 38.441,0.316 37.879,0.879C37.316,1.441 37,2.204 37,3C36.985,4.169 37.181,5.331 37.578,6.43L36.342,7.8C33.546,5.904 30.348,4.682 27,4.23L27,3C27,2.204 26.684,1.441 26.121,0.879C25.559,0.316 24.796,0 24,0C23.204,0 22.441,0.316 21.879,0.879C21.316,1.441 21,2.204 21,3L21,4.23C17.652,4.682 14.454,5.904 11.658,7.8L10.422,6.43C10.819,5.331 11.015,4.169 11,3C11,2.204 10.684,1.441 10.121,0.879C9.559,0.316 8.796,0 8,0C7.204,0 6.441,0.316 5.879,0.879C5.316,1.441 5,2.204 5,3C5,4.682 4.682,5 3,5C2.204,5 1.441,5.316 0.879,5.879C0.316,6.441 0,7.204 0,8C0,8.796 0.316,9.559 0.879,10.121C1.441,10.684 2.204,11 3,11C4.033,11.005 5.061,10.849 6.046,10.536L7.204,11.822C4.496,15.025 2.76,18.936 2.2,23.094C1.641,27.251 2.282,31.481 4.048,35.287C5.814,39.092 8.63,42.313 12.166,44.57C15.702,46.827 19.809,48.026 24.004,48.026C28.199,48.026 32.306,46.827 35.842,44.57C39.378,42.313 42.194,39.092 43.96,35.287C45.726,31.481 46.367,27.251 45.808,23.094C45.248,18.936 43.512,15.025 40.804,11.822L41.962,10.536C42.944,10.848 43.969,11.004 45,11L45,11ZM24,42C20.835,42 17.742,41.062 15.111,39.304C12.48,37.545 10.429,35.047 9.218,32.123C8.007,29.199 7.69,25.982 8.307,22.879C8.925,19.775 10.449,16.924 12.686,14.686C14.924,12.449 17.775,10.925 20.879,10.307C23.982,9.69 27.199,10.007 30.123,11.218C33.047,12.429 35.545,14.48 37.304,17.111C39.062,19.742 40,22.836 40,26C39.995,30.242 38.308,34.309 35.308,37.308C32.309,40.308 28.242,41.995 24,42L24,42Z" fill="#374957"/>
</svg>
