<svg width="48" height="48" viewBox="0 0 48 48" fill="none" xmlns="http://www.w3.org/2000/svg" xmlns:xlink="http://www.w3.org/1999/xlink">
<path d="M16.948,0C14.773,0 12.646,0.645 10.837,1.854C9.028,3.063 7.618,4.78 6.786,6.79C5.953,8.8 5.735,11.012 6.16,13.146C6.584,15.28 7.632,17.24 9.17,18.778C10.708,20.317 12.668,21.364 14.802,21.789C16.936,22.213 19.148,21.995 21.158,21.163C23.168,20.33 24.886,18.92 26.094,17.111C27.303,15.302 27.948,13.176 27.948,11C27.945,8.084 26.785,5.288 24.723,3.225C22.661,1.163 19.865,0.003 16.948,0L16.948,0ZM16.948,16C15.959,16 14.993,15.707 14.17,15.157C13.348,14.608 12.707,13.827 12.329,12.913C11.95,12 11.851,10.994 12.044,10.025C12.237,9.055 12.713,8.164 13.413,7.464C14.112,6.765 15.003,6.289 15.973,6.096C16.943,5.903 17.948,6.002 18.862,6.381C19.775,6.759 20.556,7.4 21.106,8.222C21.655,9.044 21.948,10.011 21.948,11C21.948,11.657 21.819,12.307 21.568,12.913C21.316,13.52 20.948,14.071 20.484,14.536C20.019,15 19.468,15.368 18.862,15.619C18.255,15.871 17.605,16 16.948,16Z" fill="#374957"/>
<path d="M17.944,28.702C18.096,29.483 17.932,30.292 17.487,30.952C17.043,31.612 16.355,32.068 15.574,32.22C12.878,32.752 10.449,34.203 8.703,36.325C6.957,38.447 6.002,41.11 6,43.858L6,45C6,45.796 5.684,46.559 5.121,47.122C4.559,47.684 3.796,48 3,48C2.204,48 1.441,47.684 0.879,47.122C0.316,46.559 0,45.796 0,45L0,43.858C0.004,39.718 1.444,35.708 4.075,32.511C6.706,29.315 10.364,27.13 14.426,26.33C14.813,26.255 15.211,26.257 15.597,26.335C15.983,26.413 16.35,26.567 16.676,26.787C17.003,27.008 17.283,27.29 17.501,27.619C17.718,27.947 17.869,28.315 17.944,28.702L17.944,28.702Z" fill="#374957"/>
<path d="M34,19.999C31.231,19.999 28.524,20.82 26.222,22.358C23.92,23.897 22.125,26.083 21.066,28.641C20.006,31.199 19.729,34.014 20.269,36.73C20.809,39.446 22.143,41.94 24.101,43.898C26.058,45.856 28.553,47.19 31.269,47.73C33.984,48.27 36.799,47.993 39.358,46.933C41.916,45.873 44.102,44.079 45.641,41.777C47.179,39.474 48,36.768 48,33.999C48,30.286 46.525,26.725 43.9,24.099C41.274,21.474 37.713,19.999 34,19.999ZM40.488,40.489C40.259,40.89 39.941,41.233 39.558,41.491C39.175,41.749 38.737,41.915 38.279,41.976C37.822,42.037 37.356,41.992 36.919,41.843C36.481,41.695 36.084,41.448 35.758,41.121L30.878,36.241C30.599,35.962 30.379,35.631 30.228,35.267C30.077,34.903 30,34.513 30,34.119L30,27.119C30,26.323 30.316,25.56 30.879,24.997C31.441,24.435 32.204,24.119 33,24.119C33.796,24.119 34.559,24.435 35.121,24.997C35.684,25.56 36,26.323 36,27.119L36,32.875L39.876,36.751C40.374,37.22 40.704,37.841 40.814,38.516C40.925,39.192 40.81,39.885 40.488,40.489L40.488,40.489Z" fill="#374957"/>
</svg>
