<svg width="48" height="48" viewBox="0 0 48 48" fill="none" xmlns="http://www.w3.org/2000/svg" xmlns:xlink="http://www.w3.org/1999/xlink">
<path d="M24,0C19.253,0 14.613,1.408 10.666,4.045C6.72,6.682 3.643,10.43 1.827,14.816C0.01,19.201 -0.465,24.027 0.461,28.682C1.387,33.338 3.673,37.614 7.029,40.971C10.386,44.327 14.662,46.613 19.318,47.539C23.973,48.465 28.799,47.99 33.184,46.173C37.57,44.357 41.318,41.28 43.955,37.334C46.592,33.387 48,28.747 48,24C47.993,17.637 45.462,11.536 40.963,7.037C36.464,2.538 30.363,0.007 24,0L24,0ZM24,42C20.44,42 16.96,40.944 14,38.966C11.04,36.989 8.733,34.177 7.37,30.888C6.008,27.599 5.651,23.98 6.346,20.488C7.04,16.997 8.755,13.789 11.272,11.272C13.789,8.755 16.997,7.04 20.488,6.346C23.98,5.651 27.599,6.008 30.888,7.37C34.177,8.733 36.989,11.04 38.966,14C40.944,16.96 42,20.44 42,24C41.995,28.772 40.097,33.348 36.722,36.722C33.348,40.097 28.772,41.995 24,42L24,42Z" fill="#374957"/>
<circle cx="24.011" cy="35" r="3" fill="#374957"/>
<path d="M25.515,9.973C24.291,9.754 23.035,9.806 21.833,10.124C20.632,10.443 19.516,11.022 18.562,11.819C17.609,12.616 16.842,13.613 16.315,14.739C15.789,15.865 15.515,17.092 15.515,18.335C15.515,19.131 15.831,19.894 16.393,20.457C16.956,21.019 17.719,21.335 18.515,21.335C19.31,21.335 20.073,21.019 20.636,20.457C21.199,19.894 21.515,19.131 21.515,18.335C21.516,17.895 21.635,17.463 21.857,17.084C22.08,16.704 22.399,16.39 22.782,16.173C23.165,15.956 23.598,15.845 24.039,15.85C24.479,15.855 24.91,15.976 25.288,16.201C25.666,16.426 25.978,16.747 26.192,17.132C26.406,17.517 26.514,17.951 26.506,18.391C26.498,18.831 26.374,19.261 26.146,19.638C25.918,20.014 25.595,20.324 25.209,20.535C23.971,21.054 22.919,21.934 22.192,23.062C21.464,24.189 21.095,25.51 21.133,26.851C21.133,27.647 21.449,28.41 22.011,28.973C22.574,29.535 23.337,29.851 24.133,29.851C24.928,29.851 25.691,29.535 26.254,28.973C26.817,28.41 27.133,27.647 27.133,26.851C27.131,26.705 27.141,26.559 27.165,26.415C27.445,26.16 27.762,25.948 28.107,25.789C29.643,24.942 30.88,23.641 31.646,22.063C32.413,20.485 32.673,18.709 32.39,16.977C32.107,15.246 31.295,13.645 30.065,12.394C28.836,11.142 27.249,10.303 25.523,9.989L25.515,9.973Z" fill="#374957"/>
</svg>
