<svg width="48" height="48" viewBox="0 0 48 48" fill="none" xmlns="http://www.w3.org/2000/svg" xmlns:xlink="http://www.w3.org/1999/xlink">
<path d="M42,30L36,30C34.409,30 32.883,30.632 31.757,31.757C30.632,32.883 30,34.409 30,36L30,42L9,42C8.204,42 7.441,41.684 6.879,41.121C6.316,40.559 6,39.796 6,39L6,9C6,8.204 6.316,7.441 6.879,6.879C7.441,6.316 8.204,6 9,6L29,6C29.796,6 30.559,5.684 31.121,5.121C31.684,4.559 32,3.796 32,3C32,2.204 31.684,1.441 31.121,0.879C30.559,0.316 29.796,0 29,0L9,0C6.613,0 4.324,0.948 2.636,2.636C0.948,4.324 0,6.613 0,9L0,39C0,41.387 0.948,43.676 2.636,45.364C4.324,47.052 6.613,48 9,48L32.97,48C35.356,47.999 37.645,47.051 39.332,45.364L45.364,39.332C47.051,37.645 47.999,35.356 48,32.97L48,23.012C48,22.216 47.684,21.453 47.121,20.891C46.559,20.328 45.796,20.012 45,20.012C44.204,20.012 43.441,20.328 42.879,20.891C42.316,21.453 42,22.216 42,23.012L42,30Z" fill="#374957"/>
<path d="M41.926,2C41.125,2.023 40.338,2.209 39.612,2.546C38.885,2.883 38.235,3.364 37.7,3.96L21.428,22.146C23.255,22.412 24.971,23.181 26.387,24.366C27.802,25.551 28.861,27.106 29.444,28.858L46.244,12.058C47.346,10.953 47.965,9.455 47.965,7.895C47.965,6.334 47.346,4.837 46.244,3.732C45.677,3.169 45.002,2.725 44.26,2.428C43.519,2.13 42.725,1.985 41.926,2Z" fill="#374957"/>
<path d="M18.576,26.134C13.942,27.026 11.646,32.186 10.65,35.402C10.556,35.701 10.534,36.019 10.586,36.329C10.638,36.639 10.762,36.932 10.948,37.185C11.134,37.438 11.377,37.644 11.658,37.785C11.938,37.927 12.248,38 12.562,38L20,38C20.834,38 21.659,37.826 22.423,37.489C23.186,37.153 23.871,36.66 24.433,36.044C24.995,35.428 25.423,34.701 25.689,33.911C25.954,33.12 26.052,32.282 25.976,31.452C25.87,30.603 25.589,29.785 25.152,29.05C24.715,28.314 24.131,27.677 23.437,27.178C22.742,26.678 21.952,26.328 21.115,26.148C20.279,25.969 19.414,25.964 18.576,26.134L18.576,26.134Z" fill="#374957"/>
</svg>
