<svg width="48" height="48" viewBox="0 0 48 48" fill="none" xmlns="http://www.w3.org/2000/svg" xmlns:xlink="http://www.w3.org/1999/xlink">
<path d="M40.428,8.784L25.468,0.384C25.02,0.133 24.514,0 24,0C23.486,0 22.98,0.133 22.532,0.384L7.572,8.784C6.489,9.394 5.588,10.28 4.96,11.352C4.333,12.424 4.001,13.644 4,14.886L4,35C4.004,38.447 5.375,41.751 7.812,44.188C10.249,46.625 13.553,47.996 17,48L31,48C34.447,47.996 37.751,46.625 40.188,44.188C42.625,41.751 43.996,38.447 44,35L44,14.886C43.999,13.644 43.667,12.424 43.039,11.352C42.412,10.28 41.511,9.394 40.428,8.784L40.428,8.784ZM38,35C38,36.857 37.263,38.637 35.95,39.95C34.637,41.263 32.857,42 31,42L17,42C15.143,42 13.363,41.263 12.05,39.95C10.737,38.637 10,36.857 10,35L10,14.886C10,14.709 10.047,14.534 10.137,14.381C10.226,14.228 10.355,14.101 10.51,14.014L24,6.442L37.488,14.014C37.643,14.101 37.772,14.227 37.862,14.381C37.952,14.534 38,14.708 38,14.886L38,35Z" fill="#374957"/>
<circle cx="24" cy="18" r="4" fill="#374957"/>
</svg>
