<svg width="48" height="48" viewBox="0 0 48 48" fill="none" xmlns="http://www.w3.org/2000/svg" xmlns:xlink="http://www.w3.org/1999/xlink">
<path d="M44.966,22.768C44.354,11.51 33.956,2 22.262,2L22.016,2C21.565,1.382 20.975,0.879 20.293,0.531C19.611,0.184 18.857,0.002 18.092,0L14.726,0C12.412,0.003 10.194,0.923 8.558,2.559C6.922,4.196 6.002,6.414 6,8.728L6,39.272C6.002,41.586 6.922,43.804 8.558,45.441C10.194,47.077 12.412,47.997 14.726,48L18.092,48C18.857,47.998 19.611,47.816 20.293,47.469C20.975,47.121 21.565,46.618 22.016,46L22.908,46C25.918,45.999 28.896,45.386 31.662,44.2C34.428,43.013 36.924,41.278 39,39.098C41.061,36.931 42.655,34.363 43.681,31.553C44.708,28.744 45.145,25.754 44.966,22.768L44.966,22.768ZM34.634,34.968C33.129,36.566 31.312,37.838 29.294,38.704C27.277,39.569 25.103,40.011 22.908,40L20,40C19.379,40 18.774,40.192 18.267,40.55C17.76,40.908 17.377,41.415 17.17,42L14.726,42C14.003,41.999 13.31,41.711 12.799,41.2C12.288,40.688 12.001,39.995 12,39.272L12,38L13,38C13.796,38 14.559,37.684 15.121,37.121C15.684,36.559 16,35.796 16,35C16,34.204 15.684,33.441 15.121,32.879C14.559,32.316 13.796,32 13,32L12,32L12,27L13,27C13.796,27 14.559,26.684 15.121,26.121C15.684,25.559 16,24.796 16,24C16,23.204 15.684,22.441 15.121,21.879C14.559,21.316 13.796,21 13,21L12,21L12,16L13,16C13.796,16 14.559,15.684 15.121,15.121C15.684,14.559 16,13.796 16,13C16,12.204 15.684,11.441 15.121,10.879C14.559,10.316 13.796,10 13,10L12,10L12,8.728C12.001,8.005 12.288,7.312 12.799,6.8C13.31,6.289 14.003,6.001 14.726,6L17.17,6C17.377,6.585 17.76,7.092 18.267,7.45C18.774,7.808 19.379,8 20,8L22.262,8C30.726,8 38.538,15.054 38.974,23.094C39.105,25.266 38.787,27.441 38.041,29.485C37.294,31.528 36.134,33.396 34.634,34.972L34.634,34.968Z" fill="#374957"/>
<path d="M24,16.001C23.47,16.001 22.961,16.212 22.586,16.587C22.211,16.962 22,17.471 22,18.001L22,30.031C22.003,30.541 22.201,31.03 22.553,31.399C22.905,31.768 23.385,31.988 23.894,32.015C25.885,31.995 27.8,31.252 29.285,29.925C30.769,28.598 31.72,26.777 31.962,24.801C32.072,23.689 31.948,22.566 31.598,21.504C31.248,20.443 30.68,19.466 29.93,18.638C29.18,17.809 28.265,17.146 27.244,16.692C26.223,16.238 25.118,16.003 24,16.001L24,16.001Z" fill="#374957"/>
</svg>
