<svg width="48" height="48" viewBox="0 0 48 48" fill="none" xmlns="http://www.w3.org/2000/svg" xmlns:xlink="http://www.w3.org/1999/xlink">
<path d="M23.999,15.275C22.274,15.275 20.587,15.787 19.152,16.746C17.717,17.705 16.598,19.068 15.938,20.662C15.277,22.257 15.104,24.011 15.441,25.704C15.778,27.396 16.609,28.951 17.829,30.172C19.05,31.392 20.604,32.223 22.297,32.56C23.99,32.896 25.744,32.724 27.339,32.063C28.933,31.403 30.296,30.284 31.255,28.849C32.214,27.414 32.725,25.727 32.725,24.001C32.723,21.688 31.803,19.47 30.167,17.834C28.531,16.198 26.313,15.278 23.999,15.275L23.999,15.275ZM23.999,26.727C23.46,26.727 22.933,26.568 22.485,26.268C22.037,25.968 21.687,25.543 21.481,25.045C21.275,24.546 21.221,23.998 21.326,23.47C21.431,22.941 21.691,22.455 22.072,22.074C22.453,21.693 22.939,21.433 23.468,21.328C23.996,21.223 24.545,21.277 25.043,21.483C25.541,21.689 25.966,22.039 26.266,22.487C26.566,22.935 26.725,23.462 26.725,24.001C26.725,24.724 26.438,25.417 25.926,25.928C25.415,26.439 24.722,26.727 23.999,26.727L23.999,26.727Z" fill="#374957"/>
<path d="M44,24C43.997,20.935 43.284,17.913 41.918,15.17L42.946,14.456C43.599,14.001 44.044,13.306 44.184,12.522C44.324,11.739 44.147,10.933 43.692,10.28L43.692,10.28C43.237,9.627 42.542,9.182 41.759,9.042C40.975,8.902 40.169,9.079 39.516,9.534L38.486,10.25C35.432,7.027 31.39,4.915 27,4.25L27,3C27,2.204 26.684,1.441 26.121,0.879C25.559,0.316 24.796,0 24,0C23.204,0 22.441,0.316 21.879,0.879C21.316,1.441 21,2.204 21,3L21,4.25C16.61,4.915 12.568,7.027 9.514,10.25L8.484,9.534C7.831,9.079 7.025,8.902 6.242,9.042C5.458,9.182 4.763,9.627 4.308,10.28L4.308,10.28C3.853,10.933 3.676,11.739 3.816,12.522C3.956,13.306 4.401,14.001 5.054,14.456L6.082,15.17C4.713,17.912 4,20.935 4,24C4,27.065 4.713,30.088 6.082,32.83L5.054,33.544C4.401,33.999 3.956,34.694 3.816,35.478C3.676,36.261 3.853,37.067 4.308,37.72L4.308,37.72C4.763,38.373 5.458,38.818 6.242,38.958C7.025,39.098 7.831,38.921 8.484,38.466L9.514,37.75C12.568,40.973 16.61,43.085 21,43.75L21,45C21,45.796 21.316,46.559 21.879,47.121C22.441,47.684 23.204,48 24,48C24.796,48 25.559,47.684 26.121,47.121C26.684,46.559 27,45.796 27,45L27,43.75C31.39,43.085 35.432,40.973 38.486,37.75L39.516,38.466C40.169,38.921 40.975,39.098 41.759,38.958C42.542,38.818 43.237,38.373 43.692,37.72C44.147,37.067 44.324,36.261 44.184,35.478C44.044,34.694 43.599,33.999 42.946,33.544L41.918,32.83C43.284,30.087 43.997,27.065 44,24L44,24ZM24,38C21.231,38 18.524,37.179 16.222,35.641C13.92,34.102 12.125,31.916 11.066,29.358C10.006,26.799 9.729,23.984 10.269,21.269C10.809,18.553 12.143,16.058 14.101,14.1C16.058,12.143 18.553,10.809 21.269,10.269C23.985,9.729 26.799,10.006 29.358,11.066C31.916,12.125 34.102,13.92 35.641,16.222C37.179,18.524 38,21.231 38,24C37.995,27.712 36.519,31.27 33.894,33.894C31.27,36.519 27.712,37.995 24,38L24,38Z" fill="#374957"/>
</svg>
