<svg width="48" height="48" viewBox="0 0 48 48" fill="none" xmlns="http://www.w3.org/2000/svg" xmlns:xlink="http://www.w3.org/1999/xlink">
<path d="M40,21.998C35.582,21.998 32,25.58 32,29.998L32,39.998C32,44.416 35.582,47.998 40,47.998C44.418,47.998 48,44.416 48,39.998L48,29.998C48,25.58 44.418,21.998 40,21.998ZM42,39.998C42,41.103 41.105,41.998 40,41.998C38.895,41.998 38,41.103 38,39.998L38,29.998C38,28.894 38.895,27.998 40,27.998C41.105,27.998 42,28.894 42,29.998L42,39.998Z" fill="#374957"/>
<path d="M21,29.998C19.976,30.008 18.961,30.195 18,30.55L18,30.164C18.001,28.969 18.97,27.999 20.166,27.998L23,27.998C24.657,27.998 26,26.655 26,24.998C26,23.341 24.657,21.998 23,21.998L20.166,21.998C15.658,22.004 12.006,25.657 12,30.164C12,30.164 12.021,39.401 12.062,39.598C12.404,44.546 16.693,48.279 21.641,47.937C26.588,47.594 30.322,43.306 29.979,38.358C29.653,33.643 25.727,29.987 21,29.998ZM21,41.998C19.343,41.998 18,40.655 18,38.998C18,37.341 19.343,35.998 21,35.998C22.657,35.998 24,37.341 24,38.998C24,40.655 22.657,41.998 21,41.998Z" fill="#374957"/>
<path d="M44.585,5.415L41.939,8.061C33.135,-1.847 17.966,-2.743 8.057,6.061C-0.336,13.519 -2.437,25.799 2.999,35.623C3.791,37.078 5.613,37.616 7.068,36.824C8.524,36.032 9.061,34.21 8.269,32.755C8.262,32.741 8.255,32.728 8.247,32.715C3.429,24.03 6.564,13.083 15.249,8.265C22.737,4.111 32.116,5.813 37.667,12.333L35.413,14.587C34.632,15.368 34.632,16.635 35.414,17.416C35.788,17.791 36.297,18.001 36.827,18.001L45.999,18.001C47.104,18.001 47.999,17.106 47.999,16.001L47.999,6.829C47.999,5.725 47.103,4.829 45.999,4.83C45.469,4.83 44.96,5.04 44.585,5.415Z" fill="#374957"/>
</svg>
