<svg width="48" height="48" viewBox="0 0 48 48" fill="none" xmlns="http://www.w3.org/2000/svg" xmlns:xlink="http://www.w3.org/1999/xlink">
<circle cx="22" cy="26" r="4" fill="#374957"/>
<path d="M15.122,28.878C14.559,28.316 13.796,28 13,28C12.204,28 11.441,28.316 10.878,28.878C10.315,29.441 9.999,30.205 9.999,31C9.999,31.796 10.315,32.56 10.878,33.122L14.878,37.122C15.157,37.401 15.487,37.622 15.852,37.773C16.216,37.924 16.606,38.001 17,38.001C17.394,38.001 17.784,37.924 18.148,37.773C18.513,37.622 18.843,37.401 19.122,37.122C19.401,36.844 19.622,36.513 19.773,36.149C19.923,35.785 20.001,35.395 20.001,35C20.001,34.606 19.923,34.216 19.773,33.852C19.622,33.488 19.401,33.157 19.122,32.878L15.122,28.878Z" fill="#374957"/>
<path d="M46.758,1.242C45.962,0.447 44.883,0 43.758,0C42.632,0 41.553,0.447 40.758,1.242L40.242,1.758C38.823,3.181 37.716,4.884 36.992,6.758L33.426,10.332C31.039,8.644 28.143,7.829 25.226,8.026C22.309,8.222 19.549,9.417 17.41,11.41C17.058,11.761 16.731,12.136 16.432,12.532C16.156,12.936 15.801,13.279 15.388,13.541C14.976,13.803 14.514,13.978 14.032,14.056C10.407,14.307 6.995,15.857 4.422,18.422C-1.88,24.724 -1.366,35.494 5.57,42.422C9.016,45.929 13.711,47.928 18.628,47.98C20.653,48.007 22.664,47.632 24.543,46.877C26.423,46.122 28.134,45.001 29.578,43.58C32.145,41.004 33.695,37.588 33.944,33.96C34.023,33.479 34.199,33.02 34.46,32.609C34.722,32.198 35.065,31.845 35.468,31.57C35.867,31.273 36.245,30.949 36.6,30.6C38.593,28.461 39.788,25.701 39.984,22.784C40.18,19.867 39.366,16.971 37.678,14.584L41.234,11C43.108,10.276 44.811,9.169 46.234,7.75L46.75,7.234C47.545,6.438 47.992,5.359 47.992,4.234C47.992,3.109 47.545,2.03 46.75,1.234L46.758,1.242ZM32.348,26.348C32.19,26.506 32.021,26.653 31.844,26.788C30.757,27.563 29.848,28.561 29.179,29.716C28.509,30.871 28.094,32.156 27.962,33.484C27.82,35.687 26.888,37.766 25.336,39.336C21.372,43.3 14.408,42.784 9.812,38.188C5.216,33.592 4.702,26.626 8.664,22.664C10.233,21.113 12.311,20.18 14.514,20.038C15.842,19.906 17.127,19.491 18.282,18.822C19.438,18.152 20.436,17.243 21.212,16.156C21.347,15.978 21.494,15.81 21.652,15.652C22.206,15.114 22.861,14.69 23.58,14.407C24.299,14.123 25.067,13.985 25.84,14C26.941,14.015 28.026,14.268 29.02,14.742L26.878,16.882C26.315,17.445 25.999,18.208 25.999,19.004C25.999,19.398 26.076,19.788 26.227,20.152C26.378,20.517 26.599,20.847 26.878,21.126C27.156,21.405 27.487,21.626 27.851,21.777C28.215,21.927 28.606,22.005 29,22.005C29.796,22.005 30.559,21.689 31.122,21.126L33.274,18.974C33.894,20.15 34.138,21.488 33.973,22.807C33.807,24.126 33.24,25.362 32.348,26.348Z" fill="#374957"/>
</svg>
