<svg width="48" height="48" viewBox="0 0 48 48" fill="none" xmlns="http://www.w3.org/2000/svg" xmlns:xlink="http://www.w3.org/1999/xlink">
<path d="M31,0L29.624,0C28.828,0 28.065,0.316 27.503,0.879C26.94,1.441 26.624,2.204 26.624,3C26.634,3.351 26.573,3.7 26.445,4.027C26.318,4.354 26.126,4.652 25.881,4.904C25.637,5.155 25.344,5.355 25.021,5.492C24.697,5.628 24.35,5.698 23.999,5.698C23.648,5.698 23.301,5.628 22.977,5.492C22.654,5.355 22.361,5.155 22.117,4.904C21.872,4.652 21.68,4.354 21.553,4.027C21.425,3.7 21.364,3.351 21.374,3C21.374,2.204 21.058,1.441 20.495,0.879C19.933,0.316 19.17,0 18.374,0L17,0C14.084,0.003 11.288,1.163 9.225,3.225C7.163,5.288 6.003,8.084 6,11L6,41C6,42.857 6.737,44.637 8.05,45.95C9.363,47.263 11.143,48 13,48L18.374,48C19.17,48 19.933,47.684 20.495,47.121C21.058,46.559 21.374,45.796 21.374,45C21.364,44.649 21.425,44.3 21.553,43.973C21.68,43.646 21.872,43.348 22.117,43.096C22.361,42.845 22.654,42.645 22.977,42.508C23.301,42.372 23.648,42.302 23.999,42.302C24.35,42.302 24.697,42.372 25.021,42.508C25.344,42.645 25.637,42.845 25.881,43.096C26.126,43.348 26.318,43.646 26.445,43.973C26.573,44.3 26.634,44.649 26.624,45C26.624,45.796 26.94,46.559 27.503,47.121C28.065,47.684 28.828,48 29.624,48L35,48C36.857,48 38.637,47.263 39.95,45.95C41.263,44.637 42,42.857 42,41L42,11C41.997,8.084 40.837,5.288 38.775,3.225C36.712,1.163 33.916,0.003 31,0L31,0ZM35,42L32.1,42C31.504,40.329 30.405,38.883 28.955,37.861C27.505,36.838 25.774,36.29 24,36.29C22.226,36.29 20.495,36.838 19.045,37.861C17.595,38.883 16.496,40.329 15.9,42L13,42C12.735,42 12.48,41.895 12.293,41.707C12.105,41.52 12,41.265 12,41L12,32L13,32C13.796,32 14.559,31.684 15.121,31.121C15.684,30.559 16,29.796 16,29C16,28.204 15.684,27.441 15.121,26.879C14.559,26.316 13.796,26 13,26L12,26L12,11C12,9.858 12.391,8.75 13.109,7.861C13.826,6.972 14.826,6.356 15.942,6.114C16.555,7.757 17.655,9.173 19.095,10.173C20.535,11.173 22.247,11.709 24,11.709C25.753,11.709 27.465,11.173 28.905,10.173C30.345,9.173 31.445,7.757 32.058,6.114C33.174,6.356 34.174,6.972 34.891,7.861C35.609,8.75 36,9.858 36,11L36,26L35,26C34.204,26 33.441,26.316 32.879,26.879C32.316,27.441 32,28.204 32,29L32,29C32,29.796 32.316,30.559 32.879,31.121C33.441,31.684 34.204,32 35,32L36,32L36,41C36,41.265 35.895,41.52 35.707,41.707C35.52,41.895 35.265,42 35,42Z" fill="#374957"/>
<path d="M25,25.999L23,25.999C21.343,25.999 20,27.342 20,28.999C20,30.656 21.343,31.999 23,31.999L25,31.999C26.657,31.999 28,30.656 28,28.999C28,27.342 26.657,25.999 25,25.999Z" fill="#374957"/>
</svg>
