<svg width="48" height="48" viewBox="0 0 48 48" fill="none" xmlns="http://www.w3.org/2000/svg" xmlns:xlink="http://www.w3.org/1999/xlink">
<path d="M35.4,6L12.6,6C8.8,6 5.4,8 3.4,11.4C1.2,15.2 0,19.6 0,24C0,33.8 4,44 10.6,44C14.2,44 17.2,41.2 18.6,36.6C18.8,36.2 19,36 19.4,36L28.6,36C29,36 29.4,36.2 29.4,36.6C31.4,43 35.2,44 37.2,44C44,44 48,33.8 48,24C48,19.6 46.8,15.2 44.6,11.2C42.8,8 39.2,6 35.4,6ZM37.4,38C36.8,38 36,37 35.4,34.8C34.4,32 31.8,30 28.8,30L19.4,30C16.4,30 13.8,32 12.8,34.8C12.2,36.8 11.2,38 10.6,38C9.4,37.8 6,32.8 6,24C6,20.6 7,17.2 8.6,14.2C9.4,12.8 11,12 12.6,12L35.4,12C37,12 38.6,12.8 39.4,14.2C41.2,17.2 42,20.6 42,24C42,32.8 38.6,37.8 37.4,38Z" fill="#374957"/>
<path d="M21,18L20,18L20,17C20,15.4 18.6,14 17,14C15.4,14 14,15.4 14,17L14,18L13,18C11.4,18 10,19.4 10,21C10,22.6 11.4,24 13,24L14,24L14,25C14,26.6 15.4,28 17,28C18.6,28 20,26.6 20,25L20,24L21,24C22.6,24 24,22.6 24,21C24,19.4 22.6,18 21,18Z" fill="#374957"/>
<circle cx="34" cy="20" r="4" fill="#374957"/>
</svg>
