<svg width="48" height="50" viewBox="0 0 48 50" fill="none" xmlns="http://www.w3.org/2000/svg" xmlns:xlink="http://www.w3.org/1999/xlink">
<path d="M44.8,3.185C41.176,-0.429 34.8,-2.333 23.966,5.201C13.142,-2.331 6.756,-0.429 3.14,3.185C-0.476,6.799 -2.38,13.181 5.156,24.001C-2.38,34.821 -0.474,41.201 3.14,44.817C4.137,45.844 5.333,46.658 6.655,47.208C7.976,47.758 9.396,48.033 10.828,48.017C14.228,48.017 18.542,46.617 23.966,42.829C29.392,46.607 33.702,48.019 37.104,48.019C38.536,48.036 39.956,47.761 41.278,47.211C42.599,46.661 43.795,45.847 44.792,44.819C48.4,41.201 50.314,34.821 42.776,24.001C50.314,13.181 48.4,6.801 44.8,3.185L44.8,3.185ZM36.944,6.017C37.609,5.995 38.271,6.11 38.89,6.353C39.509,6.596 40.071,6.963 40.544,7.431C43.254,10.139 41.714,14.631 38.898,19.031C37.486,17.389 35.924,15.681 34.098,13.863C32.272,12.045 30.57,10.485 28.928,9.073C31.279,7.356 34.047,6.301 36.944,6.017L36.944,6.017ZM35.234,24.001C33.298,26.343 31.318,28.429 29.858,29.889C28.398,31.349 26.308,33.329 23.966,35.263C21.624,33.329 19.536,31.351 18.076,29.889C16.616,28.427 14.634,26.343 12.7,24.001C14.634,21.659 16.614,19.573 18.076,18.113C19.538,16.653 21.622,14.671 23.966,12.737C26.31,14.671 28.396,16.651 29.858,18.113C31.32,19.575 33.298,21.659 35.234,24.001ZM7.388,7.431C7.86,6.963 8.423,6.596 9.042,6.353C9.661,6.11 10.323,5.995 10.988,6.017C13.884,6.302 16.651,7.359 19,9.077C17.356,10.489 15.648,12.049 13.83,13.867C12.012,15.685 10.446,17.401 9.034,19.035C6.22,14.627 4.678,10.139 7.388,7.431L7.388,7.431ZM7.388,40.571C4.678,37.863 6.22,33.371 9.034,28.971C10.446,30.613 12.008,32.321 13.834,34.139C15.66,35.957 17.358,37.539 18.992,38.939C14.58,41.743 10.096,43.277 7.388,40.571L7.388,40.571ZM40.544,40.571C37.834,43.279 33.344,41.743 28.944,38.935C30.58,37.535 32.296,35.945 34.106,34.135C35.916,32.325 37.486,30.609 38.906,28.967C41.714,33.375 43.254,37.863 40.544,40.571L40.544,40.571Z" fill="#374957"/>
<circle cx="24" cy="24" r="4" fill="#374957"/>
</svg>
