<svg width="50" height="50" viewBox="0 0 50 50" fill="none" xmlns="http://www.w3.org/2000/svg" xmlns:xlink="http://www.w3.org/1999/xlink">
<path d="M2.112,45.223L6.134,46.473C6.182,46.493 6.224,46.521 6.274,46.537C6.324,46.553 6.374,46.549 6.424,46.563L10.624,47.867C11.384,48.102 12.206,48.026 12.91,47.655C13.614,47.284 14.142,46.649 14.378,45.889C14.613,45.129 14.537,44.306 14.166,43.602C13.795,42.898 13.16,42.37 12.4,42.135L11.112,41.735L12.4,38.001C14.63,38.006 16.801,37.287 18.588,35.953C20.375,34.618 21.681,32.74 22.31,30.601L24,25.623L25.636,30.443C26.25,32.614 27.554,34.526 29.352,35.89C31.15,37.254 33.343,37.995 35.6,38.001L36.894,41.739L35.606,42.139C34.846,42.374 34.21,42.902 33.839,43.606C33.468,44.31 33.392,45.133 33.628,45.893C33.863,46.653 34.391,47.288 35.095,47.659C35.799,48.03 36.622,48.106 37.382,47.871L41.582,46.567C41.632,46.553 41.682,46.567 41.732,46.541C41.782,46.515 41.824,46.497 41.872,46.477L45.894,45.227C46.277,45.116 46.634,44.93 46.944,44.679C47.254,44.429 47.512,44.119 47.701,43.768C47.89,43.417 48.007,43.032 48.046,42.635C48.084,42.238 48.044,41.838 47.926,41.457C47.807,41.076 47.615,40.722 47.358,40.417C47.102,40.111 46.788,39.86 46.433,39.678C46.078,39.495 45.691,39.385 45.294,39.354C44.896,39.323 44.496,39.371 44.118,39.497L42.626,39.959L41.34,36.247C43.201,35.051 44.622,33.28 45.387,31.204C46.151,29.127 46.217,26.858 45.576,24.741L42.192,14.741C41.69,13.066 40.549,11.656 39.017,10.815C37.484,9.974 35.682,9.769 34,10.245L26.9,12.213C25.801,12.522 24.802,13.112 24,13.923C23.198,13.113 22.2,12.523 21.104,12.211L14,10.247C12.334,9.766 10.547,9.957 9.021,10.78C7.495,11.603 6.353,12.991 5.84,14.647L2.382,24.889C1.782,26.99 1.874,29.229 2.646,31.274C3.417,33.319 4.827,35.061 6.666,36.243L5.38,39.955L3.888,39.493C3.509,39.367 3.109,39.319 2.712,39.35C2.314,39.381 1.927,39.491 1.572,39.674C1.218,39.856 0.903,40.107 0.647,40.413C0.391,40.718 0.198,41.072 0.08,41.453C-0.038,41.834 -0.079,42.234 -0.041,42.631C-0.002,43.028 0.115,43.413 0.304,43.764C0.494,44.115 0.751,44.425 1.061,44.675C1.371,44.926 1.729,45.112 2.112,45.223L2.112,45.223ZM28.082,18.321C28.126,18.242 28.186,18.173 28.257,18.118C28.329,18.063 28.41,18.023 28.498,18.001L35.598,16.033C35.657,16.014 35.718,16.003 35.78,16.001C35.941,16.006 36.096,16.065 36.221,16.167C36.346,16.269 36.434,16.41 36.472,16.567L38.314,22.001L29.114,22.001L28.038,18.827C28.01,18.744 28,18.656 28.007,18.569C28.015,18.482 28.04,18.398 28.082,18.321L28.082,18.321ZM12.214,16.001C12.277,16.001 12.34,16.01 12.402,16.027L19.502,18.001C19.589,18.024 19.672,18.065 19.743,18.121C19.815,18.177 19.874,18.247 19.918,18.327C19.992,18.449 20.021,18.593 20,18.735L18.894,22.001L9.694,22.001L11.56,16.481C11.603,16.342 11.69,16.22 11.808,16.134C11.926,16.047 12.068,16.001 12.214,16.001L12.214,16.001Z" fill="#374957"/>
<path d="M33,8.001C33.394,8.001 33.785,7.924 34.149,7.773C34.513,7.622 34.844,7.401 35.122,7.123L37.122,5.123C37.685,4.56 38.001,3.797 38.001,3.001C38.001,2.205 37.685,1.442 37.122,0.879C36.56,0.316 35.796,0 35,0C34.204,0 33.441,0.316 32.878,0.879L30.878,2.879C30.459,3.299 30.173,3.833 30.057,4.415C29.941,4.997 30,5.601 30.227,6.149C30.455,6.698 30.839,7.166 31.333,7.496C31.827,7.825 32.407,8.001 33,8.001L33,8.001Z" fill="#374957"/>
<path d="M12.878,7.123C13.441,7.686 14.204,8.002 15,8.002C15.796,8.002 16.559,7.686 17.122,7.123C17.685,6.56 18.001,5.797 18.001,5.001C18.001,4.205 17.685,3.442 17.122,2.879L15.122,0.879C14.559,0.316 13.796,0 13,0C12.204,0 11.441,0.316 10.878,0.879C10.315,1.442 9.999,2.205 9.999,3.001C9.999,3.797 10.315,4.56 10.878,5.123L12.878,7.123Z" fill="#374957"/>
<path d="M24,8C24.796,8 25.559,7.684 26.121,7.121C26.684,6.559 27,5.796 27,5L27,3C27,2.204 26.684,1.441 26.121,0.879C25.559,0.316 24.796,0 24,0C23.204,0 22.441,0.316 21.879,0.879C21.316,1.441 21,2.204 21,3L21,5C21,5.796 21.316,6.559 21.879,7.121C22.441,7.684 23.204,8 24,8Z" fill="#374957"/>
</svg>
