<svg width="48" height="50" viewBox="0 0 48 50" fill="none" xmlns="http://www.w3.org/2000/svg" xmlns:xlink="http://www.w3.org/1999/xlink">
<path d="M29,13.999L19,13.999C18.204,13.999 17.441,14.315 16.879,14.877C16.316,15.44 16,16.203 16,16.999C16,17.794 16.316,18.557 16.879,19.12C17.441,19.682 18.204,19.999 19,19.999L29,19.999C29.796,19.999 30.559,19.682 31.121,19.12C31.684,18.557 32,17.794 32,16.999C32,16.203 31.684,15.44 31.121,14.877C30.559,14.315 29.796,13.999 29,13.999Z" fill="#374957"/>
<path d="M25,24L19,24C18.204,24 17.441,24.316 16.879,24.879C16.316,25.441 16,26.204 16,27C16,27.796 16.316,28.559 16.879,29.121C17.441,29.684 18.204,30 19,30L25,30C25.796,30 26.559,29.684 27.121,29.121C27.684,28.559 28,27.796 28,27C28,26.204 27.684,25.441 27.121,24.879C26.559,24.316 25.796,24 25,24L25,24Z" fill="#374957"/>
<path d="M31,0L17,0C14.084,0.003 11.288,1.163 9.225,3.225C7.163,5.288 6.003,8.084 6,11L6,45C6,45.511 6.13,46.015 6.379,46.461C6.628,46.908 6.988,47.284 7.423,47.553C7.858,47.822 8.354,47.975 8.865,47.998C9.376,48.021 9.885,47.913 10.342,47.684L16.906,44.4L22.506,47.6C22.959,47.859 23.472,47.995 23.994,47.995C24.516,47.995 25.029,47.859 25.482,47.6L31.082,44.4L37.646,47.684C38.104,47.916 38.614,48.026 39.126,48.004C39.639,47.983 40.137,47.83 40.574,47.561C41.011,47.291 41.372,46.915 41.621,46.466C41.871,46.018 42.001,45.513 42,45L42,11C41.997,8.084 40.837,5.288 38.775,3.225C36.712,1.163 33.916,0.003 31,0L31,0ZM36,40.146L32.34,38.316C31.898,38.095 31.409,37.987 30.915,38C30.422,38.014 29.939,38.149 29.51,38.394L24,41.544L18.49,38.4C18.061,38.155 17.578,38.02 17.085,38.006C16.591,37.993 16.102,38.101 15.66,38.322L12,40.146L12,11C12,9.674 12.527,8.402 13.464,7.464C14.402,6.527 15.674,6 17,6L31,6C32.326,6 33.598,6.527 34.536,7.464C35.473,8.402 36,9.674 36,11L36,40.146Z" fill="#374957"/>
</svg>
