<svg width="48" height="48" viewBox="0 0 48 48" fill="none" xmlns="http://www.w3.org/2000/svg" xmlns:xlink="http://www.w3.org/1999/xlink">
<path d="M24,0C18.13,0.017 12.468,2.18 8.08,6.08L5.414,3.414C5.135,3.134 4.778,2.944 4.39,2.867C4.003,2.79 3.6,2.829 3.235,2.981C2.87,3.132 2.557,3.388 2.338,3.717C2.118,4.046 2,4.432 2,4.828L2,14C2,14.53 2.211,15.039 2.586,15.414C2.961,15.789 3.47,16 4,16L13.172,16C13.568,16 13.954,15.883 14.283,15.663C14.612,15.443 14.868,15.131 15.02,14.765C15.171,14.4 15.211,13.998 15.134,13.61C15.056,13.222 14.866,12.866 14.586,12.586L12.316,10.316C14.965,8.053 18.214,6.608 21.669,6.155C25.123,5.702 28.635,6.261 31.777,7.765C34.92,9.269 37.559,11.653 39.373,14.627C41.188,17.601 42.101,21.037 42,24.52C41.872,29.02 40.062,33.308 36.927,36.539C33.793,39.77 29.562,41.709 25.068,41.974C20.574,42.239 16.144,40.811 12.651,37.971C9.159,35.131 6.857,31.085 6.2,26.632C6.107,25.908 5.754,25.242 5.207,24.758C4.66,24.274 3.957,24.005 3.226,24L3.226,24C2.803,23.995 2.383,24.08 1.995,24.249C1.606,24.419 1.259,24.67 0.975,24.985C0.692,25.299 0.479,25.671 0.35,26.075C0.222,26.479 0.181,26.905 0.23,27.326C1.063,33.218 4.051,38.592 8.617,42.407C13.183,46.223 19.002,48.209 24.948,47.982C30.964,47.692 36.656,45.172 40.914,40.914C45.173,36.655 47.693,30.963 47.982,24.948C48.106,21.72 47.578,18.5 46.429,15.481C45.28,12.461 43.534,9.705 41.295,7.376C39.056,5.047 36.371,3.193 33.399,1.926C30.428,0.659 27.231,0.004 24,0L24,0Z" fill="#374957"/>
<path d="M23,13.999C22.204,13.999 21.441,14.315 20.879,14.877C20.316,15.44 20,16.203 20,16.999L20,25.585C20,26.646 20.422,27.663 21.172,28.413L24.758,31.999C25.324,32.545 26.082,32.848 26.868,32.841C27.655,32.834 28.407,32.518 28.963,31.962C29.52,31.406 29.835,30.654 29.842,29.867C29.849,29.08 29.546,28.323 29,27.757L26,24.757L26,16.999C26,16.203 25.684,15.44 25.121,14.877C24.559,14.315 23.796,13.999 23,13.999Z" fill="#374957"/>
</svg>
