<svg width="48" height="48" viewBox="0 0 48 48" fill="none" xmlns="http://www.w3.org/2000/svg" xmlns:xlink="http://www.w3.org/1999/xlink">
<path d="M25.499,14.002C22.892,14.131 20.88,16.344 20.999,18.952C21.118,16.344 19.106,14.131 16.499,14.002C13.892,14.131 11.88,16.344 11.999,18.952C11.999,22.846 17.075,27.482 19.599,29.512C20.417,30.17 21.582,30.17 22.399,29.512C24.927,27.482 29.999,22.846 29.999,18.952C30.118,16.344 28.106,14.131 25.499,14.002Z" fill="#374957"/>
<path d="M47.124,42.877L37.838,33.589C44.786,24.306 42.892,11.148 33.609,4.2C24.325,-2.748 11.167,-0.854 4.22,8.43C-2.728,17.713 -0.835,30.871 8.449,37.819C15.907,43.4 26.151,43.4 33.609,37.819L42.896,47.108C44.064,48.276 45.956,48.276 47.124,47.108C48.291,45.941 48.291,44.048 47.124,42.881L47.124,42.877ZM6.163,21.085C6.163,12.833 12.852,6.143 21.104,6.143C29.356,6.143 36.045,12.833 36.045,21.085C36.045,29.336 29.356,36.026 21.104,36.026C12.856,36.017 6.172,29.333 6.163,21.085Z" fill="#374957"/>
</svg>
