<svg width="50" height="48" viewBox="0 0 50 48" fill="none" xmlns="http://www.w3.org/2000/svg" xmlns:xlink="http://www.w3.org/1999/xlink">
<path d="M21.088,14L45.088,14C45.884,14 46.647,13.684 47.209,13.122C47.772,12.559 48.088,11.796 48.088,11C48.088,10.205 47.772,9.442 47.209,8.879C46.647,8.317 45.884,8 45.088,8L21.088,8C20.292,8 19.529,8.317 18.967,8.879C18.404,9.442 18.088,10.205 18.088,11C18.088,11.796 18.404,12.559 18.967,13.122C19.529,13.684 20.292,14 21.088,14L21.088,14Z" fill="#374957"/>
<path d="M45.088,22L21.088,22C20.292,22 19.529,22.316 18.967,22.878C18.404,23.441 18.088,24.204 18.088,25C18.088,25.795 18.404,26.558 18.967,27.121C19.529,27.683 20.292,28 21.088,28L45.088,28C45.884,28 46.647,27.683 47.209,27.121C47.772,26.558 48.088,25.795 48.088,25C48.088,24.204 47.772,23.441 47.209,22.878C46.647,22.316 45.884,22 45.088,22Z" fill="#374957"/>
<path d="M45.088,36L21.088,36C20.292,36 19.529,36.316 18.967,36.879C18.404,37.441 18.088,38.204 18.088,39C18.088,39.796 18.404,40.559 18.967,41.121C19.529,41.684 20.292,42 21.088,42L45.088,42C45.884,42 46.647,41.684 47.209,41.121C47.772,40.559 48.088,39.796 48.088,39C48.088,38.204 47.772,37.441 47.209,36.879C46.647,36.316 45.884,36 45.088,36Z" fill="#374957"/>
<path d="M10.261,14C10.656,14 11.043,13.882 11.371,13.663C11.7,13.443 11.957,13.13 12.108,12.765C12.259,12.4 12.299,11.998 12.222,11.61C12.145,11.222 11.954,10.865 11.675,10.586L7.503,6.414C7.128,6.039 6.619,5.828 6.089,5.828C5.558,5.828 5.05,6.039 4.675,6.414L0.503,10.586C0.223,10.865 0.033,11.222 -0.045,11.61C-0.122,11.998 -0.082,12.4 0.069,12.765C0.221,13.13 0.477,13.443 0.806,13.663C1.134,13.882 1.521,14 1.917,14L3.089,14L3.089,36L1.917,36C1.521,36 1.134,36.117 0.806,36.337C0.477,36.557 0.221,36.869 0.069,37.234C-0.082,37.6 -0.122,38.002 -0.045,38.39C0.033,38.778 0.223,39.134 0.503,39.414L4.601,43.51C4.976,43.885 5.484,44.095 6.015,44.095C6.545,44.095 7.054,43.885 7.429,43.51L11.525,39.414C11.804,39.134 11.995,38.777 12.072,38.389C12.149,38.001 12.109,37.599 11.958,37.234C11.806,36.868 11.549,36.556 11.22,36.336C10.891,36.117 10.504,35.999 10.109,36L9.089,36L9.089,14L10.261,14Z" fill="#374957"/>
</svg>
