<svg width="48" height="48" viewBox="0 0 48 48" fill="none" xmlns="http://www.w3.org/2000/svg" xmlns:xlink="http://www.w3.org/1999/xlink">
<path d="M38.167,18.068C34.593,18.517 31.06,19.253 27.603,20.268C28.983,16.124 32.769,13.978 38.003,13.978C38.552,14.019 39.103,13.945 39.622,13.763C40.142,13.581 40.618,13.293 41.021,12.919C41.424,12.544 41.745,12.091 41.965,11.586C42.185,11.082 42.298,10.537 42.298,9.987C42.297,9.437 42.184,8.892 41.963,8.388C41.743,7.884 41.421,7.43 41.018,7.056C40.614,6.682 40.138,6.395 39.619,6.213C39.099,6.032 38.548,5.959 37.999,6C31.371,6 26.999,11.4 26.999,18L26.999,3C26.999,2.204 26.683,1.441 26.121,0.879C25.558,0.316 24.795,0 23.999,0C23.204,0 22.441,0.316 21.878,0.879C21.315,1.441 20.999,2.204 20.999,3L20.999,18C20.999,11.4 16.627,6 9.999,6C9.456,5.97 8.913,6.051 8.403,6.239C7.892,6.426 7.425,6.715 7.03,7.089C6.636,7.463 6.321,7.913 6.106,8.413C5.891,8.912 5.78,9.45 5.78,9.994C5.78,10.538 5.891,11.076 6.106,11.575C6.321,12.075 6.636,12.525 7.03,12.899C7.425,13.273 7.892,13.562 8.403,13.749C8.913,13.937 9.456,14.018 9.999,13.988C15.229,13.988 19.015,16.134 20.399,20.278C16.943,19.263 13.41,18.527 9.835,18.078C8.664,17.925 7.473,18.027 6.344,18.376C5.216,18.725 4.176,19.314 3.295,20.102C2.236,21.071 1.395,22.254 0.827,23.572C0.259,24.891 -0.023,26.315 -0.001,27.75C-0.001,46.54 10.951,48 14.307,48C16.717,47.877 19.022,46.974 20.873,45.426C21.743,44.628 22.832,44.108 23.999,43.934C25.167,44.109 26.256,44.628 27.127,45.426C28.978,46.974 31.283,47.878 33.693,48C37.047,48 47.999,46.54 47.999,27.75C48.024,26.313 47.743,24.888 47.175,23.568C46.608,22.247 45.767,21.063 44.707,20.092C43.827,19.303 42.787,18.714 41.659,18.365C40.53,18.016 39.339,17.914 38.167,18.068ZM33.693,42C32.525,41.825 31.435,41.306 30.563,40.508C28.712,38.961 26.409,38.057 23.999,37.934C21.589,38.058 19.285,38.961 17.433,40.508C16.563,41.306 15.475,41.826 14.307,42C7.441,42 5.999,34.25 5.999,27.75C5.98,27.165 6.081,26.582 6.299,26.038C6.516,25.494 6.844,25.001 7.261,24.59C7.505,24.367 7.795,24.2 8.111,24.102C8.426,24.003 8.76,23.975 9.087,24.02C13.793,24.601 18.412,25.75 22.841,27.442C23.208,27.594 23.602,27.673 23.999,27.673C24.397,27.673 24.79,27.594 25.157,27.442C29.588,25.75 34.207,24.601 38.913,24.02C39.24,23.975 39.574,24.003 39.889,24.102C40.204,24.2 40.494,24.367 40.737,24.59C41.155,25.001 41.483,25.494 41.7,26.038C41.917,26.582 42.019,27.165 41.999,27.75C41.999,34.25 40.557,42 33.693,42Z" fill="#374957"/>
<path d="M35.66,29.046C30.618,30.2 24,32.296 24,32.296C28.018,32.722 32.112,36.398 34.228,36.986C36.446,37.602 37.282,35.298 37.962,31.536C38.04,31.21 38.037,30.87 37.952,30.546C37.867,30.221 37.704,29.923 37.476,29.677C37.248,29.43 36.964,29.244 36.647,29.134C36.33,29.024 35.991,28.994 35.66,29.046L35.66,29.046Z" fill="#374957"/>
<path d="M10.038,31.536C10.718,35.298 11.554,37.602 13.772,36.986C15.888,36.398 19.972,32.722 24,32.296C24,32.296 17.382,30.192 12.34,29.046C12.008,28.994 11.669,29.024 11.353,29.134C11.036,29.244 10.751,29.43 10.524,29.677C10.296,29.923 10.132,30.221 10.048,30.546C9.963,30.87 9.959,31.21 10.038,31.536Z" fill="#374957"/>
</svg>
