<svg width="50" height="48" viewBox="0 0 50 48" fill="none" xmlns="http://www.w3.org/2000/svg" xmlns:xlink="http://www.w3.org/1999/xlink">
<path d="M26.48,0.126C24.443,-0.083 22.387,-0.033 20.362,0.274C18.801,0.537 17.749,2.015 18.013,3.576C18.046,3.778 18.166,4.17 18.166,4.17C18.597,5.561 19.989,6.421 21.426,6.182C22.279,6.061 23.139,6 24,6L24,42C23.139,42 22.279,41.939 21.426,41.818C19.989,41.579 18.597,42.438 18.166,43.83L18.092,44.082C17.635,45.59 18.487,47.184 19.995,47.641C20.107,47.675 20.22,47.702 20.334,47.722C21.548,47.907 22.773,48 24,48C37.255,48.013 48.011,37.279 48.024,24.024C48.037,11.711 38.729,1.386 26.48,0.126Z" fill="#374957"/>
<path d="M6.012,34.154L5.774,34.29C4.394,35.055 3.897,36.794 4.662,38.173C4.719,38.276 4.782,38.375 4.852,38.47C6.048,40.049 7.434,41.476 8.978,42.718C10.228,43.682 12.022,43.45 12.986,42.2C13.055,42.11 13.318,41.684 13.318,41.684C14.055,40.451 13.766,38.862 12.642,37.968C11.548,37.077 10.562,36.061 9.706,34.94C8.845,33.79 7.266,33.454 6.012,34.154Z" fill="#374957"/>
<path d="M13.318,6.32L13.178,6.086C12.37,4.731 10.616,4.287 9.26,5.095C9.162,5.153 9.068,5.217 8.978,5.286C7.433,6.528 6.045,7.956 4.848,9.536C3.919,10.811 4.199,12.597 5.473,13.527C5.568,13.596 6,13.85 6,13.85C7.255,14.552 8.835,14.216 9.696,13.064C10.555,11.944 11.542,10.928 12.636,10.036C13.763,9.144 14.055,7.555 13.318,6.32Z" fill="#374957"/>
<path d="M6,24.001C6,23.295 6.041,22.591 6.122,21.89C6.306,20.466 5.406,19.125 4.018,18.754L3.752,18.684C2.204,18.291 0.63,19.227 0.237,20.776C0.203,20.91 0.178,21.047 0.164,21.184C-0.055,23.058 -0.055,24.951 0.164,26.824C0.331,28.413 1.754,29.565 3.342,29.399C3.484,29.384 4.03,29.252 4.03,29.252C5.417,28.882 6.316,27.542 6.132,26.118C6.047,25.416 6.003,24.708 6,24.001Z" fill="#374957"/>
</svg>
