<svg width="48" height="50" viewBox="0 0 48 50" fill="none" xmlns="http://www.w3.org/2000/svg" xmlns:xlink="http://www.w3.org/1999/xlink">
<path d="M27,18L24,18L24,15C24,13.343 22.657,12 21,12C19.343,12 18,13.343 18,15L18,18L15,18C13.343,18 12,19.343 12,21C12,22.657 13.343,24 15,24L18,24L18,27C18,28.657 19.343,30 21,30C22.657,30 24,28.657 24,27L24,24L27,24C28.657,24 30,22.657 30,21C30,19.343 28.657,18 27,18Z" fill="#374957"/>
<path d="M47.124,42.896L37.839,33.608C44.793,24.321 42.902,11.155 33.615,4.201C24.328,-2.754 11.162,-0.863 4.208,8.424C-2.746,17.711 -0.855,30.877 8.431,37.831C15.893,43.419 26.143,43.421 33.607,37.837L42.897,47.127C44.064,48.294 45.957,48.294 47.124,47.127C48.292,45.959 48.292,44.067 47.124,42.899L47.124,42.896ZM21.104,36.044C12.853,36.044 6.163,29.355 6.163,21.103C6.163,12.851 12.853,6.162 21.104,6.162C29.356,6.162 36.046,12.851 36.046,21.103C36.037,29.351 29.353,36.036 21.104,36.044Z" fill="#374957"/>
</svg>
