<svg width="48" height="48" viewBox="0 0 48 48" fill="none" xmlns="http://www.w3.org/2000/svg" xmlns:xlink="http://www.w3.org/1999/xlink">
<path d="M24,38C27.712,37.996 31.27,36.519 33.895,33.895C36.519,31.27 37.996,27.712 38,24L38,14C38,10.287 36.525,6.726 33.899,4.1C31.274,1.475 27.713,0 24,0C20.287,0 16.726,1.475 14.101,4.1C11.475,6.726 10,10.287 10,14L10,24C10.004,27.712 11.481,31.27 14.105,33.895C16.73,36.519 20.288,37.996 24,38ZM24,6C26.122,6 28.157,6.843 29.657,8.343C31.157,9.843 32,11.878 32,14L32,16L29,16C28.204,16 27.441,16.316 26.879,16.879C26.316,17.441 26,18.204 26,19C26,19.796 26.316,20.559 26.879,21.121C27.441,21.684 28.204,22 29,22L32,22L32,24C32,26.122 31.157,28.157 29.657,29.657C28.157,31.157 26.122,32 24,32C21.878,32 19.843,31.157 18.343,29.657C16.843,28.157 16,26.122 16,24L16,22L19,22C19.796,22 20.559,21.684 21.121,21.121C21.684,20.559 22,19.796 22,19C22,18.204 21.684,17.441 21.121,16.879C20.559,16.316 19.796,16 19,16L16,16L16,14C16,11.878 16.843,9.843 18.343,8.343C19.843,6.843 21.878,6 24,6L24,6Z" fill="#374957"/>
<path d="M45,23C44.204,23 43.441,23.317 42.879,23.879C42.316,24.442 42,25.205 42,26L42,26.778C41.995,30.814 40.39,34.683 37.536,37.537C34.683,40.39 30.814,41.996 26.778,42L21.222,42C17.186,41.995 13.318,40.39 10.464,37.536C7.611,34.683 6.005,30.814 6,26.778L6,26C6,25.205 5.684,24.442 5.121,23.879C4.559,23.317 3.796,23 3,23C2.204,23 1.441,23.317 0.879,23.879C0.316,24.442 0,25.205 0,26L0,26.778C0.006,32.405 2.244,37.799 6.223,41.778C10.201,45.756 15.596,47.994 21.222,48L26.778,48C32.404,47.994 37.799,45.756 41.777,41.778C45.756,37.799 47.994,32.405 48,26.778L48,26C48,25.205 47.684,24.442 47.121,23.879C46.559,23.317 45.796,23 45,23Z" fill="#374957"/>
</svg>
