<svg width="48" height="50" viewBox="0 0 48 50" fill="none" xmlns="http://www.w3.org/2000/svg" xmlns:xlink="http://www.w3.org/1999/xlink">
<path d="M40,22.001C37.878,22.001 35.843,22.844 34.343,24.344C32.843,25.845 32,27.879 32,30.001L32,40.001C32,42.123 32.843,44.158 34.343,45.658C35.843,47.158 37.878,48.001 40,48.001C42.122,48.001 44.157,47.158 45.657,45.658C47.157,44.158 48,42.123 48,40.001L48,30.001C48,27.879 47.157,25.845 45.657,24.344C44.157,22.844 42.122,22.001 40,22.001L40,22.001ZM42,40.001C42,40.532 41.789,41.04 41.414,41.415C41.039,41.791 40.53,42.001 40,42.001C39.47,42.001 38.961,41.791 38.586,41.415C38.211,41.04 38,40.532 38,40.001L38,30.001C38,29.471 38.211,28.962 38.586,28.587C38.961,28.212 39.47,28.001 40,28.001C40.53,28.001 41.039,28.212 41.414,28.587C41.789,28.962 42,29.471 42,30.001L42,40.001Z" fill="#374957"/>
<path d="M44.586,5.415L41.94,8.061C38.017,3.645 32.603,0.832 26.734,0.158C20.866,-0.515 14.955,1 10.134,4.413C5.312,7.825 1.919,12.896 0.602,18.655C-0.714,24.413 0.14,30.455 3,35.623C3.191,35.968 3.448,36.271 3.757,36.516C4.065,36.762 4.419,36.944 4.798,37.052C5.176,37.161 5.573,37.194 5.964,37.149C6.356,37.104 6.735,36.983 7.079,36.792C7.424,36.601 7.727,36.344 7.973,36.035C8.218,35.727 8.4,35.373 8.508,34.995C8.617,34.616 8.65,34.219 8.605,33.828C8.561,33.436 8.439,33.058 8.248,32.713C6.086,28.812 5.451,24.248 6.465,19.905C7.479,15.562 10.071,11.751 13.737,9.211C17.403,6.671 21.882,5.585 26.304,6.162C30.726,6.738 34.776,8.938 37.668,12.333L35.414,14.587C35.135,14.867 34.944,15.223 34.867,15.611C34.79,15.999 34.829,16.401 34.981,16.766C35.132,17.132 35.388,17.444 35.717,17.664C36.046,17.884 36.433,18.001 36.828,18.001L46,18.001C46.531,18.001 47.039,17.79 47.414,17.415C47.789,17.04 48,16.531 48,16.001L48,6.829C48,6.433 47.883,6.047 47.663,5.718C47.443,5.389 47.131,5.133 46.765,4.982C46.4,4.83 45.998,4.791 45.61,4.868C45.222,4.945 44.866,5.135 44.586,5.415L44.586,5.415Z" fill="#374957"/>
<path d="M25.148,22.227C24.6,22 23.996,21.941 23.414,22.056C22.832,22.172 22.298,22.458 21.878,22.877L14.378,30.377C13.815,30.94 13.499,31.703 13.499,32.499C13.499,33.295 13.815,34.059 14.378,34.621C14.941,35.184 15.704,35.5 16.5,35.5C17.296,35.5 18.059,35.184 18.622,34.621L21,32.241L21,44.999C21,45.795 21.316,46.558 21.879,47.121C22.441,47.683 23.204,47.999 24,47.999C24.796,47.999 25.559,47.683 26.121,47.121C26.684,46.558 27,45.795 27,44.999L27,24.999C27,24.406 26.824,23.826 26.494,23.332C26.165,22.839 25.696,22.454 25.148,22.227L25.148,22.227Z" fill="#374957"/>
</svg>
