<svg width="48" height="48" viewBox="0 0 48 48" fill="none" xmlns="http://www.w3.org/2000/svg" xmlns:xlink="http://www.w3.org/1999/xlink">
<path d="M24,0C19.253,0 14.613,1.408 10.666,4.045C6.72,6.682 3.643,10.43 1.827,14.816C0.01,19.201 -0.465,24.027 0.461,28.682C1.387,33.338 3.673,37.614 7.029,40.971C10.386,44.327 14.662,46.613 19.318,47.539C23.973,48.465 28.799,47.99 33.184,46.173C37.57,44.357 41.318,41.28 43.955,37.334C46.592,33.387 48,28.747 48,24C47.993,17.637 45.462,11.536 40.963,7.037C36.464,2.538 30.363,0.007 24,0L24,0ZM24,42C20.44,42 16.96,40.944 14,38.966C11.04,36.989 8.733,34.177 7.37,30.888C6.008,27.599 5.651,23.98 6.346,20.488C7.04,16.997 8.755,13.789 11.272,11.272C13.789,8.755 16.997,7.04 20.488,6.346C23.98,5.651 27.599,6.008 30.888,7.37C34.177,8.733 36.989,11.04 38.966,14C40.944,16.96 42,20.44 42,24C41.994,28.772 40.096,33.347 36.722,36.721C33.347,40.096 28.772,41.994 24,42L24,42Z" fill="#374957"/>
<path d="M23.09,19.091L22.49,19.091C21.704,19.071 20.939,19.346 20.345,19.862C19.752,20.377 19.372,21.096 19.28,21.877C19.228,22.658 19.483,23.429 19.991,24.024C20.499,24.62 21.22,24.993 22,25.065L22,34.365C22,35.16 22.316,35.924 22.879,36.486C23.441,37.049 24.205,37.365 25,37.365C25.796,37.365 26.559,37.049 27.121,36.486C27.684,35.924 28,35.16 28,34.365L28,24.001C28,22.699 27.483,21.45 26.562,20.529C25.641,19.608 24.392,19.091 23.09,19.091L23.09,19.091Z" fill="#374957"/>
<path d="M23.661,16.933C24.339,16.933 25.003,16.732 25.567,16.354C26.132,15.977 26.572,15.441 26.831,14.814C27.091,14.187 27.159,13.497 27.027,12.831C26.894,12.166 26.567,11.554 26.087,11.074C25.607,10.594 24.996,10.267 24.33,10.135C23.664,10.002 22.974,10.07 22.347,10.33C21.72,10.59 21.184,11.03 20.807,11.594C20.43,12.159 20.229,12.822 20.229,13.501C20.228,13.952 20.317,14.398 20.489,14.815C20.662,15.231 20.914,15.609 21.233,15.928C21.552,16.247 21.93,16.5 22.347,16.672C22.763,16.845 23.21,16.933 23.661,16.933L23.661,16.933Z" fill="#374957"/>
</svg>
