<svg width="48" height="48" viewBox="0 0 48 48" fill="none" xmlns="http://www.w3.org/2000/svg" xmlns:xlink="http://www.w3.org/1999/xlink">
<path d="M45.634,28.708C46.386,27.97 46.983,27.088 47.389,26.115C47.795,25.143 48.003,24.098 48,23.044C48,21.615 47.605,20.214 46.86,18.995C46.114,17.775 45.046,16.786 43.774,16.134C42.84,11.579 40.363,7.486 36.76,4.546C33.157,1.606 28.649,0.001 23.999,0.001C19.349,0.001 14.841,1.606 11.238,4.546C7.635,7.486 5.158,11.579 4.224,16.134C2.952,16.786 1.885,17.776 1.14,18.995C0.395,20.214 0,21.615 0,23.044C0.002,24.914 0.66,26.723 1.859,28.157C3.058,29.591 4.723,30.559 6.562,30.892C7.265,32.259 8.132,33.535 9.144,34.692C6.654,37.439 4.984,40.829 4.322,44.476C4.253,44.864 4.26,45.262 4.345,45.647C4.429,46.032 4.588,46.397 4.814,46.72C5.039,47.043 5.326,47.319 5.658,47.532C5.989,47.744 6.36,47.889 6.748,47.958C6.924,47.987 7.102,48.001 7.28,48C7.983,47.999 8.664,47.751 9.202,47.299C9.741,46.847 10.104,46.221 10.228,45.528C10.695,42.965 11.873,40.584 13.628,38.658C16.689,40.753 20.292,41.914 24,42C27.711,41.915 31.317,40.754 34.38,38.658C36.135,40.584 37.313,42.965 37.78,45.528C37.904,46.219 38.265,46.845 38.803,47.297C39.34,47.748 40.018,47.997 40.72,48C40.898,48 41.076,47.984 41.252,47.954C41.64,47.885 42.011,47.74 42.342,47.528C42.674,47.315 42.961,47.039 43.186,46.716C43.412,46.393 43.571,46.028 43.655,45.643C43.74,45.258 43.747,44.86 43.678,44.472C43.016,40.825 41.346,37.435 38.856,34.688C39.868,33.531 40.735,32.255 41.438,30.888C43.026,30.606 44.49,29.846 45.634,28.708L45.634,28.708ZM40,25.016L39.978,25.016L39.654,25.016C38.993,24.967 38.334,25.136 37.779,25.497C37.223,25.859 36.801,26.392 36.578,27.016C35.557,29.558 33.83,31.754 31.601,33.346C29.373,34.938 26.735,35.859 24,36C21.262,35.859 18.621,34.936 16.391,33.341C14.16,31.746 12.433,29.546 11.414,27C11.207,26.416 10.825,25.91 10.319,25.552C9.813,25.193 9.208,25.001 8.588,25C8.504,25 8.422,25 8.338,25.01L8.002,25.01L7.98,25.01C7.457,25.011 6.955,24.805 6.584,24.437C6.213,24.068 6.003,23.567 6,23.044C6.001,22.631 6.148,22.231 6.413,21.914C6.679,21.597 7.047,21.384 7.454,21.31C8.091,21.194 8.674,20.874 9.115,20.399C9.555,19.924 9.83,19.319 9.898,18.674C10.286,14.963 12.128,11.557 15.02,9.2C15.058,10.962 15.612,12.673 16.615,14.122C17.617,15.571 19.024,16.693 20.659,17.349C22.294,18.005 24.086,18.166 25.811,17.812C27.537,17.458 29.121,16.605 30.366,15.358C30.657,15.082 30.89,14.751 31.05,14.384C31.211,14.016 31.297,13.62 31.302,13.219C31.307,12.819 31.231,12.421 31.08,12.049C30.929,11.678 30.705,11.341 30.421,11.057C30.137,10.774 29.799,10.551 29.427,10.4C29.056,10.25 28.658,10.176 28.257,10.182C27.856,10.188 27.46,10.274 27.093,10.436C26.726,10.597 26.395,10.831 26.12,11.122C25.549,11.668 24.789,11.973 23.999,11.973C23.209,11.973 22.449,11.668 21.878,11.122C21.458,10.703 21.172,10.168 21.056,9.586C20.94,9.004 21,8.4 21.227,7.852C21.454,7.304 21.839,6.835 22.333,6.505C22.826,6.176 23.406,6 24,6C27.502,5.992 30.883,7.283 33.488,9.625C36.092,11.966 37.735,15.191 38.098,18.674C38.166,19.319 38.442,19.925 38.883,20.4C39.324,20.875 39.908,21.195 40.546,21.31C40.953,21.384 41.321,21.597 41.587,21.914C41.852,22.231 41.999,22.631 42,23.044C42.001,23.305 41.949,23.563 41.849,23.803C41.749,24.044 41.601,24.262 41.416,24.444C41.229,24.629 41.008,24.774 40.765,24.872C40.522,24.97 40.262,25.019 40,25.016Z" fill="#374957"/>
<circle cx="19" cy="23" r="3" fill="#374957"/>
<circle cx="29" cy="23" r="3" fill="#374957"/>
</svg>
