<svg width="48" height="50" viewBox="0 0 48 50" fill="none" xmlns="http://www.w3.org/2000/svg" xmlns:xlink="http://www.w3.org/1999/xlink">
<path d="M43.53,11.637L30.384,2.075C28.625,0.801 26.523,0.085 24.352,0.021L24.304,0.021L24.266,0.021L24.216,0.021C24.074,0.021 23.934,0.021 23.794,0.021L23.722,0.021L23.684,0.021L23.652,0.021C21.478,0.083 19.374,0.8 17.614,2.077L4.47,11.637C3.088,12.646 1.962,13.967 1.186,15.493C0.409,17.018 0.003,18.705 0,20.417C0.004,21.896 0.594,23.314 1.64,24.361C2.686,25.407 4.104,25.997 5.584,26.001L21,26.001L21,45.001C21,45.796 21.316,46.56 21.879,47.122C22.441,47.685 23.204,48.001 24,48.001C24.796,48.001 25.559,47.685 26.121,47.122C26.684,46.56 27,45.796 27,45.001L27,26.001L42.416,26.001C43.896,25.997 45.314,25.407 46.36,24.361C47.406,23.314 47.996,21.896 48,20.417C47.997,18.705 47.591,17.018 46.814,15.493C46.038,13.967 44.912,12.646 43.53,11.637L43.53,11.637ZM29.276,20.001L18.724,20.001L18.724,19.677C18.723,18.764 18.992,17.871 19.498,17.111C19.54,17.047 19.578,16.985 19.616,16.921L24,9.123L28.384,16.923C28.422,16.987 28.46,17.049 28.502,17.113C29.008,17.873 29.277,18.766 29.276,19.679L29.276,20.001ZM8,16.489L16.412,10.369L14.434,13.889C13.314,15.611 12.72,17.622 12.722,19.677L12.722,20.001L6.018,20.001C6.079,19.308 6.287,18.636 6.629,18.03C6.971,17.425 7.438,16.899 8,16.489ZM35.276,20.001L35.276,19.677C35.278,17.622 34.684,15.611 33.564,13.889L31.584,10.369L40,16.489C40.562,16.899 41.029,17.425 41.371,18.03C41.713,18.636 41.921,19.308 41.982,20.001L35.276,20.001Z" fill="#374957"/>
<path d="M9.182,36.001L6,36.001L6,31.001C6,30.206 5.684,29.443 5.121,28.88C4.559,28.317 3.796,28.001 3,28.001C2.204,28.001 1.441,28.317 0.879,28.88C0.316,29.443 0,30.206 0,31.001L0,45.001C0,45.797 0.316,46.56 0.879,47.123C1.441,47.685 2.204,48.001 3,48.001C3.796,48.001 4.559,47.685 5.121,47.123C5.684,46.56 6,45.797 6,45.001L6,42.001L9.182,42.001C9.399,42.002 9.607,42.088 9.76,42.241C9.913,42.395 9.999,42.602 10,42.819L10,45.001C10,45.797 10.316,46.56 10.879,47.123C11.441,47.685 12.204,48.001 13,48.001C13.796,48.001 14.559,47.685 15.121,47.123C15.684,46.56 16,45.797 16,45.001L16,42.819C15.998,41.012 15.279,39.279 14.001,38.001C12.723,36.722 10.99,36.003 9.182,36.001L9.182,36.001Z" fill="#374957"/>
<path d="M45,28.001C44.204,28.001 43.441,28.317 42.879,28.88C42.316,29.443 42,30.206 42,31.001L42,36.001L38.818,36.001C37.01,36.003 35.277,36.722 33.999,38.001C32.721,39.279 32.002,41.012 32,42.819L32,45.001C32,45.797 32.316,46.56 32.879,47.123C33.441,47.685 34.204,48.001 35,48.001C35.796,48.001 36.559,47.685 37.121,47.123C37.684,46.56 38,45.797 38,45.001L38,42.819C38.001,42.602 38.087,42.395 38.24,42.241C38.393,42.088 38.601,42.002 38.818,42.001L42,42.001L42,45.001C42,45.797 42.316,46.56 42.879,47.123C43.441,47.685 44.204,48.001 45,48.001C45.796,48.001 46.559,47.685 47.121,47.123C47.684,46.56 48,45.797 48,45.001L48,31.001C48,30.206 47.684,29.443 47.121,28.88C46.559,28.317 45.796,28.001 45,28.001Z" fill="#374957"/>
</svg>
