<svg width="48" height="48" viewBox="0 0 48 48" fill="none" xmlns="http://www.w3.org/2000/svg" xmlns:xlink="http://www.w3.org/1999/xlink">
<path d="M30,19.001L27,19.001L27,16.001C27,15.206 26.684,14.443 26.121,13.88C25.559,13.317 24.796,13.001 24,13.001C23.204,13.001 22.441,13.317 21.879,13.88C21.316,14.443 21,15.206 21,16.001L21,19.001L18,19.001C17.204,19.001 16.441,19.317 15.879,19.88C15.316,20.443 15,21.206 15,22.001C15,22.797 15.316,23.56 15.879,24.123C16.441,24.685 17.204,25.001 18,25.001L21,25.001L21,28.001C21,28.797 21.316,29.56 21.879,30.123C22.441,30.685 23.204,31.001 24,31.001C24.796,31.001 25.559,30.685 26.121,30.123C26.684,29.56 27,28.797 27,28.001L27,25.001L30,25.001C30.796,25.001 31.559,24.685 32.121,24.123C32.684,23.56 33,22.797 33,22.001C33,21.206 32.684,20.443 32.121,19.88C31.559,19.317 30.796,19.001 30,19.001Z" fill="#374957"/>
<path d="M23.999,47.998C23.58,47.998 23.165,47.91 22.781,47.74C21.999,47.398 3.817,39.136 3.817,23.998L3.817,14.492C3.815,12.183 4.54,9.931 5.891,8.058C7.241,6.184 9.148,4.784 11.339,4.056L23.049,0.152C23.666,-0.052 24.333,-0.052 24.949,0.152L36.659,4.056C38.851,4.784 40.757,6.184 42.108,8.058C43.458,9.931 44.184,12.183 44.181,14.492L44.181,23.998C44.181,41.234 25.733,47.582 24.949,47.844C24.643,47.946 24.322,47.998 23.999,47.998L23.999,47.998ZM23.999,6.16L13.237,9.748C12.242,10.08 11.375,10.716 10.761,11.568C10.148,12.419 9.817,13.442 9.817,14.492L9.817,23.998C9.817,33.468 20.659,39.902 24.153,41.728C27.667,40.262 38.181,34.962 38.181,23.998L38.181,14.492C38.181,13.442 37.851,12.419 37.237,11.568C36.623,10.716 35.757,10.08 34.761,9.748L23.999,6.16Z" fill="#374957"/>
</svg>
