<svg width="48" height="50" viewBox="0 0 48 50" fill="none" xmlns="http://www.w3.org/2000/svg" xmlns:xlink="http://www.w3.org/1999/xlink">
<circle cx="14" cy="44.001" r="4" fill="#374957"/>
<circle cx="34" cy="44.001" r="4" fill="#374957"/>
<path d="M39.5,26.324C39.21,27.38 38.581,28.312 37.71,28.976C36.839,29.64 35.773,30 34.678,30L14.434,30C14.27,29.999 14.113,29.936 13.993,29.826C13.873,29.715 13.798,29.563 13.784,29.4L12.072,16L21,16C21.796,16 22.559,15.684 23.121,15.121C23.684,14.559 24,13.796 24,13C24,12.204 23.684,11.441 23.121,10.879C22.559,10.316 21.796,10 21,10L11.306,10L10.782,5.878C10.592,4.259 9.814,2.766 8.596,1.682C7.378,0.599 5.804,0 4.174,0L3,0C2.204,0 1.441,0.316 0.879,0.879C0.316,1.441 0,2.204 0,3C0,3.796 0.316,4.559 0.879,5.121C1.441,5.684 2.204,6 3,6L4.174,6C4.338,6.001 4.495,6.064 4.615,6.174C4.735,6.285 4.81,6.437 4.824,6.6L7.824,30.12C8.014,31.74 8.792,33.234 10.01,34.318C11.229,35.402 12.803,36 14.434,36L34.678,36C37.086,35.999 39.427,35.207 41.342,33.747C43.257,32.286 44.64,30.238 45.278,27.916L45.31,27.796C45.432,27.351 45.451,26.885 45.363,26.432C45.276,25.979 45.085,25.552 44.806,25.185C44.527,24.818 44.167,24.52 43.755,24.314C43.342,24.109 42.887,24.001 42.426,24C41.77,24 41.131,24.215 40.609,24.612C40.087,25.01 39.709,25.567 39.534,26.2L39.5,26.324Z" fill="#374957"/>
<path d="M45,6L42,6L42,3C42,2.204 41.684,1.441 41.121,0.879C40.559,0.316 39.796,0 39,0C38.204,0 37.441,0.316 36.879,0.879C36.316,1.441 36,2.204 36,3L36,6L33,6C32.204,6 31.441,6.316 30.879,6.879C30.316,7.441 30,8.204 30,9C30,9.796 30.316,10.559 30.879,11.121C31.441,11.684 32.204,12 33,12L36,12L36,15C36,15.796 36.316,16.559 36.879,17.121C37.441,17.684 38.204,18 39,18C39.796,18 40.559,17.684 41.121,17.121C41.684,16.559 42,15.796 42,15L42,12L45,12C45.796,12 46.559,11.684 47.121,11.121C47.684,10.559 48,9.796 48,9C48,8.204 47.684,7.441 47.121,6.879C46.559,6.316 45.796,6 45,6Z" fill="#374957"/>
</svg>
