<svg width="48" height="48" viewBox="0 0 48 48" fill="none" xmlns="http://www.w3.org/2000/svg" xmlns:xlink="http://www.w3.org/1999/xlink">
<path d="M44.586,25.4L43.122,26.864L35.95,19.684C34.617,18.412 32.845,17.703 31.002,17.703C29.16,17.703 27.388,18.412 26.054,19.684L25.706,20.03C25.519,20.217 25.264,20.323 24.999,20.323C24.734,20.323 24.48,20.217 24.292,20.03L16.092,11.83C15.524,11.293 14.77,11 13.988,11.011C13.207,11.022 12.461,11.338 11.909,11.891C11.357,12.444 11.043,13.19 11.032,13.971C11.022,14.752 11.317,15.507 11.854,16.074L20.054,24.274C21.388,25.546 23.159,26.256 25.002,26.256C26.845,26.256 28.617,25.546 29.95,24.274L30.298,23.928C30.486,23.74 30.74,23.635 31.005,23.635C31.27,23.635 31.525,23.74 31.712,23.928L38.882,31.098L37.416,32.564C37.137,32.844 36.946,33.2 36.869,33.588C36.792,33.976 36.831,34.378 36.983,34.743C37.134,35.109 37.39,35.421 37.719,35.641C38.048,35.86 38.435,35.978 38.83,35.978L45,35.978C45.796,35.978 46.559,35.662 47.122,35.099C47.684,34.537 48,33.774 48,32.978L48,26.8C47.997,26.406 47.878,26.021 47.657,25.694C47.436,25.367 47.124,25.113 46.759,24.964C46.394,24.814 45.993,24.776 45.607,24.853C45.22,24.931 44.865,25.121 44.586,25.4L44.586,25.4Z" fill="#374957"/>
<path d="M45,42L11,42C9.674,42 8.402,41.473 7.464,40.536C6.527,39.598 6,38.326 6,37L6,3C6,2.204 5.684,1.441 5.121,0.879C4.559,0.316 3.796,0 3,0C2.204,0 1.441,0.316 0.879,0.879C0.316,1.441 0,2.204 0,3L0,37C0.003,39.916 1.163,42.712 3.225,44.775C5.288,46.837 8.084,47.997 11,48L45,48C45.796,48 46.559,47.684 47.121,47.121C47.684,46.559 48,45.796 48,45C48,44.204 47.684,43.441 47.121,42.879C46.559,42.316 45.796,42 45,42Z" fill="#374957"/>
</svg>
