<svg width="50" height="48" viewBox="0 0 50 48" fill="none" xmlns="http://www.w3.org/2000/svg" xmlns:xlink="http://www.w3.org/1999/xlink">
<path d="M45,42L11,42C9.674,42 8.402,41.473 7.464,40.536C6.527,39.598 6,38.326 6,37L6,3C6,2.204 5.684,1.441 5.121,0.879C4.559,0.316 3.796,0 3,0C2.204,0 1.441,0.316 0.879,0.879C0.316,1.441 0,2.204 0,3L0,37C0.003,39.916 1.163,42.712 3.225,44.775C5.288,46.837 8.084,47.997 11,48L45,48C45.796,48 46.559,47.684 47.121,47.121C47.684,46.559 48,45.796 48,45C48,44.204 47.684,43.441 47.121,42.879C46.559,42.316 45.796,42 45,42Z" fill="#374957"/>
<path d="M19,18C18.204,18 17.441,18.316 16.879,18.879C16.316,19.441 16,20.204 16,21L16,35C16,35.796 16.316,36.559 16.879,37.121C17.441,37.684 18.204,38 19,38C19.796,38 20.559,37.684 21.121,37.121C21.684,36.559 22,35.796 22,35L22,21C22,20.204 21.684,19.441 21.121,18.879C20.559,18.316 19.796,18 19,18Z" fill="#374957"/>
<path d="M28,27L28,35C28,35.796 28.316,36.559 28.879,37.121C29.441,37.684 30.204,38 31,38C31.796,38 32.559,37.684 33.121,37.121C33.684,36.559 34,35.796 34,35L34,27C34,26.204 33.684,25.441 33.121,24.879C32.559,24.316 31.796,24 31,24C30.204,24 29.441,24.316 28.879,24.879C28.316,25.441 28,26.204 28,27L28,27Z" fill="#374957"/>
<path d="M40,19L40,35C40,35.796 40.316,36.559 40.879,37.121C41.441,37.684 42.204,38 43,38C43.796,38 44.559,37.684 45.121,37.121C45.684,36.559 46,35.796 46,35L46,19C46,18.204 45.684,17.441 45.121,16.879C44.559,16.316 43.796,16 43,16C42.204,16 41.441,16.316 40.879,16.879C40.316,17.441 40,18.204 40,19Z" fill="#374957"/>
<path d="M12,15C12.681,15.001 13.342,14.769 13.872,14.342L18.428,10.7C19.348,9.961 20.509,9.589 21.687,9.654C22.865,9.719 23.977,10.217 24.81,11.052C26.733,12.95 29.294,14.064 31.994,14.175C34.694,14.286 37.338,13.386 39.41,11.652L46.938,5.282C47.259,5.034 47.526,4.724 47.723,4.37C47.921,4.016 48.045,3.625 48.087,3.222C48.129,2.819 48.09,2.411 47.97,2.024C47.851,1.637 47.654,1.277 47.392,0.968C47.13,0.659 46.808,0.406 46.445,0.225C46.082,0.044 45.687,-0.062 45.282,-0.086C44.878,-0.111 44.472,-0.053 44.091,0.084C43.709,0.221 43.359,0.434 43.062,0.71L35.536,7.08C34.614,7.848 33.439,8.246 32.24,8.194C31.041,8.142 29.904,7.645 29.052,6.8C27.176,4.919 24.672,3.797 22.019,3.649C19.367,3.501 16.753,4.339 14.68,6L10.126,9.658C9.641,10.046 9.288,10.576 9.117,11.173C8.946,11.771 8.964,12.406 9.17,12.993C9.376,13.579 9.759,14.087 10.266,14.447C10.773,14.806 11.379,15 12,15L12,15Z" fill="#374957"/>
</svg>
