<svg width="48" height="50" viewBox="0 0 48 50" fill="none" xmlns="http://www.w3.org/2000/svg" xmlns:xlink="http://www.w3.org/1999/xlink">
<path d="M27,6L27,3C27,2.204 26.684,1.441 26.121,0.879C25.558,0.316 24.795,0 24,0L24,0C23.204,0 22.441,0.316 21.878,0.879C21.316,1.441 21,2.204 21,3L21,6C17.023,6.004 13.21,7.586 10.398,10.398C7.586,13.21 6.004,17.023 6,21L6,29.364C5.937,34.007 7.629,38.502 10.738,41.951C13.847,45.399 18.143,47.547 22.768,47.964C25.229,48.13 27.699,47.789 30.024,46.962C32.348,46.134 34.478,44.838 36.281,43.154C38.084,41.47 39.522,39.433 40.506,37.171C41.489,34.908 41.998,32.467 42,30L42,21C41.995,17.023 40.414,13.21 37.602,10.398C34.79,7.586 30.977,6.004 27,6L27,6ZM36,30C36,33.183 34.735,36.235 32.485,38.485C30.235,40.736 27.182,42 24,42C20.817,42 17.765,40.736 15.514,38.485C13.264,36.235 12,33.183 12,30L12,21C12.002,18.614 12.951,16.326 14.639,14.639C16.326,12.952 18.614,12.003 21,12L27,12C29.386,12.003 31.673,12.952 33.361,14.639C35.048,16.326 35.997,18.614 36,21L36,30Z" fill="#374957"/>
<path d="M24,16C23.204,16 22.441,16.316 21.879,16.878C21.316,17.441 21,18.204 21,19L21,22.999C21,23.795 21.316,24.558 21.879,25.121C22.441,25.683 23.204,25.999 24,25.999C24.796,25.999 25.559,25.683 26.121,25.121C26.684,24.558 27,23.795 27,22.999L27,19C27,18.204 26.684,17.441 26.121,16.878C25.559,16.316 24.796,16 24,16L24,16Z" fill="#374957"/>
</svg>
