<svg width="48" height="48" viewBox="0 0 48 48" fill="none" xmlns="http://www.w3.org/2000/svg" xmlns:xlink="http://www.w3.org/1999/xlink">
<path d="M20.964,39C20.169,39 19.407,38.684 18.844,38.122L9.672,28.95C8.362,27.636 7.626,25.856 7.626,24C7.626,22.144 8.362,20.364 9.672,19.05L18.844,9.878C19.407,9.315 20.17,8.999 20.966,9C21.762,9 22.525,9.316 23.087,9.879C23.65,10.442 23.966,11.205 23.966,12C23.965,12.796 23.649,13.559 23.086,14.122L13.914,23.292C13.821,23.385 13.747,23.495 13.697,23.616C13.647,23.738 13.621,23.868 13.621,24C13.621,24.131 13.647,24.262 13.697,24.383C13.747,24.505 13.821,24.615 13.914,24.708L23.086,33.878C23.506,34.297 23.792,34.832 23.908,35.414C24.024,35.996 23.964,36.6 23.737,37.148C23.51,37.696 23.125,38.165 22.632,38.495C22.138,38.824 21.558,39 20.964,39L20.964,39Z" fill="#374957"/>
<path d="M34.964,39C34.169,39 33.407,38.684 32.844,38.122L20.844,26.122C20.565,25.843 20.344,25.512 20.193,25.148C20.043,24.784 19.965,24.394 19.965,24C19.965,23.606 20.043,23.215 20.193,22.851C20.344,22.487 20.565,22.156 20.844,21.878L32.844,9.878C33.123,9.599 33.454,9.378 33.818,9.228C34.182,9.077 34.572,8.999 34.966,9C35.36,9 35.75,9.077 36.114,9.228C36.478,9.379 36.809,9.6 37.087,9.879C37.366,10.157 37.587,10.488 37.737,10.852C37.888,11.216 37.966,11.606 37.965,12C37.965,12.394 37.888,12.785 37.737,13.149C37.586,13.513 37.365,13.843 37.086,14.122L27.2,24L37.078,33.878C37.498,34.297 37.783,34.831 37.899,35.412C38.016,35.994 37.957,36.596 37.731,37.144C37.504,37.692 37.121,38.161 36.629,38.491C36.136,38.822 35.557,38.999 34.964,39Z" fill="#374957"/>
</svg>
