<svg width="48" height="48" viewBox="0 0 48 48" fill="none" xmlns="http://www.w3.org/2000/svg" xmlns:xlink="http://www.w3.org/1999/xlink">
<path d="M16.188,2.656C15.939,2.157 15.556,1.738 15.082,1.445C14.608,1.152 14.061,0.996 13.504,0.996C12.946,0.996 12.4,1.152 11.926,1.445C11.452,1.738 11.069,2.157 10.82,2.656L0.32,23.656C0.091,24.113 -0.017,24.621 0.006,25.132C0.029,25.643 0.182,26.139 0.45,26.574C0.719,27.009 1.094,27.368 1.54,27.617C1.986,27.867 2.489,27.998 3,27.998L3,27.998C3.557,27.998 4.103,27.843 4.577,27.55C5.051,27.258 5.435,26.839 5.684,26.34L6.858,23.998L20.15,23.998L21.32,26.34C21.569,26.838 21.951,27.257 22.425,27.549C22.898,27.842 23.443,27.998 24,27.998L24,27.998C24.511,27.998 25.014,27.868 25.461,27.619C25.908,27.37 26.284,27.011 26.553,26.576C26.822,26.141 26.975,25.644 26.998,25.133C27.021,24.622 26.913,24.114 26.684,23.656L16.188,2.656ZM9.858,17.998L13.504,10.706L17.15,17.998L9.858,17.998Z" fill="#374957"/>
<path d="M26,47C25.606,47 25.216,46.923 24.852,46.772C24.488,46.622 24.157,46.401 23.878,46.122L13.878,36.122C13.315,35.559 12.999,34.796 12.999,34C12.999,33.204 13.315,32.441 13.878,31.878C14.441,31.315 15.204,30.999 16,30.999C16.796,30.999 17.559,31.315 18.122,31.878L26,39.758L42.878,22.878C43.441,22.315 44.204,21.999 45,21.999C45.796,21.999 46.559,22.315 47.122,22.878C47.685,23.441 48.001,24.204 48.001,25C48.001,25.796 47.685,26.559 47.122,27.122L28.122,46.122C27.843,46.401 27.512,46.622 27.148,46.772C26.784,46.923 26.394,47 26,47Z" fill="#374957"/>
</svg>
