<svg width="48" height="50" viewBox="0 0 48 50" fill="none" xmlns="http://www.w3.org/2000/svg" xmlns:xlink="http://www.w3.org/1999/xlink">
<circle cx="14" cy="44.001" r="4" fill="#374957"/>
<circle cx="34" cy="44.001" r="4" fill="#374957"/>
<path d="M39.5,26.326C39.21,27.382 38.581,28.313 37.71,28.977C36.839,29.64 35.775,30 34.68,30L14.434,30C14.27,29.999 14.113,29.936 13.993,29.826C13.873,29.715 13.798,29.563 13.784,29.4L12.072,16L19,16C19.796,16 20.559,15.684 21.121,15.121C21.684,14.559 22,13.796 22,13C22,12.204 21.684,11.441 21.121,10.879C20.559,10.316 19.796,10 19,10L11.306,10L10.782,5.878C10.592,4.259 9.814,2.766 8.596,1.682C7.378,0.599 5.804,0 4.174,0L3,0C2.204,0 1.441,0.316 0.879,0.879C0.316,1.441 0,2.204 0,3C0,3.796 0.316,4.559 0.879,5.121C1.441,5.684 2.204,6 3,6L4.174,6C4.338,6.001 4.495,6.064 4.615,6.174C4.735,6.285 4.81,6.437 4.824,6.6L7.824,30.12C8.014,31.74 8.792,33.234 10.01,34.318C11.229,35.402 12.803,36 14.434,36L34.678,36C37.086,35.999 39.427,35.207 41.342,33.747C43.257,32.286 44.64,30.238 45.278,27.916L45.31,27.796C45.432,27.351 45.451,26.885 45.363,26.432C45.276,25.979 45.085,25.552 44.806,25.185C44.527,24.818 44.167,24.52 43.755,24.314C43.342,24.109 42.887,24.001 42.426,24C41.77,24 41.131,24.215 40.609,24.612C40.087,25.01 39.709,25.567 39.534,26.2L39.5,26.326Z" fill="#374957"/>
<path d="M42.826,4.972L34.238,13.56L32.536,11.798C32.263,11.514 31.937,11.287 31.576,11.129C31.215,10.971 30.826,10.886 30.433,10.878C30.039,10.87 29.647,10.94 29.28,11.083C28.913,11.227 28.578,11.441 28.294,11.714C28.01,11.987 27.783,12.314 27.625,12.675C27.467,13.036 27.381,13.424 27.374,13.818C27.358,14.613 27.659,15.383 28.21,15.956L30.736,18.584C31.174,19.049 31.7,19.422 32.284,19.681C32.868,19.94 33.498,20.08 34.136,20.092L34.216,20.092C35.484,20.089 36.699,19.586 37.598,18.692L47.066,9.222C47.353,8.946 47.581,8.615 47.738,8.249C47.896,7.883 47.978,7.489 47.982,7.091C47.985,6.692 47.909,6.297 47.759,5.928C47.608,5.56 47.385,5.225 47.103,4.943C46.822,4.661 46.487,4.439 46.118,4.288C45.749,4.137 45.354,4.061 44.956,4.065C44.558,4.068 44.164,4.151 43.798,4.308C43.432,4.465 43.101,4.694 42.824,4.98L42.826,4.972Z" fill="#374957"/>
</svg>
