<svg width="48" height="48" viewBox="0 0 48 48" fill="none" xmlns="http://www.w3.org/2000/svg" xmlns:xlink="http://www.w3.org/1999/xlink">
<path d="M27,4.23L27,3C27,2.204 26.684,1.441 26.121,0.879C25.558,0.316 24.795,0 24,0C23.204,0 22.441,0.316 21.878,0.879C21.316,1.441 21,2.204 21,3L21,4.23C17.184,4.745 13.572,6.255 10.525,8.609C7.478,10.962 5.105,14.076 3.643,17.638C2.18,21.199 1.681,25.083 2.196,28.898C2.71,32.714 4.219,36.327 6.572,39.374C5.744,40.055 5.082,40.915 4.636,41.89C4.19,42.865 3.973,43.928 4,45C4,45.796 4.316,46.559 4.878,47.121C5.441,47.684 6.204,48 7,48C7.795,48 8.558,47.684 9.121,47.121C9.684,46.559 10,45.796 10,45C9.969,44.703 10.043,44.404 10.209,44.156C10.376,43.908 10.623,43.725 10.91,43.64C14.687,46.468 19.278,47.997 23.997,47.997C28.715,47.997 33.307,46.468 37.084,43.64C37.371,43.724 37.62,43.906 37.788,44.154C37.955,44.403 38.03,44.702 38,45C38,45.796 38.316,46.559 38.878,47.121C39.441,47.684 40.204,48 41,48C41.795,48 42.558,47.684 43.121,47.121C43.684,46.559 44,45.796 44,45C44.027,43.928 43.809,42.865 43.363,41.89C42.918,40.915 42.256,40.055 41.428,39.374C43.78,36.327 45.29,32.714 45.804,28.898C46.318,25.083 45.819,21.199 44.357,17.638C42.895,14.076 40.521,10.962 37.474,8.609C34.427,6.255 30.815,4.745 27,4.23L27,4.23ZM8,26C8,22.835 8.938,19.742 10.696,17.111C12.454,14.48 14.953,12.429 17.877,11.218C20.8,10.007 24.017,9.69 27.121,10.307C30.225,10.925 33.076,12.449 35.313,14.686C37.551,16.924 39.075,19.775 39.692,22.879C40.31,25.982 39.993,29.199 38.782,32.123C37.571,35.047 35.52,37.545 32.889,39.304C30.258,41.062 27.164,42 24,42C19.758,41.995 15.691,40.308 12.691,37.308C9.692,34.309 8.004,30.242 8,26L8,26Z" fill="#374957"/>
<path d="M39,0C38.204,0 37.441,0.316 36.879,0.879C36.316,1.441 36,2.204 36,3C36,3.796 36.316,4.559 36.879,5.121C37.441,5.684 38.204,6 39,6C39.398,5.969 39.798,6.026 40.172,6.167C40.546,6.308 40.884,6.53 41.162,6.816C41.441,7.102 41.653,7.446 41.783,7.824C41.914,8.201 41.96,8.603 41.918,9C41.918,9.796 42.234,10.559 42.797,11.121C43.359,11.684 44.122,12 44.918,12C45.714,12 46.477,11.684 47.039,11.121C47.602,10.559 47.918,9.796 47.918,9C47.964,7.813 47.766,6.628 47.335,5.521C46.905,4.414 46.251,3.406 45.414,2.562C44.578,1.718 43.577,1.055 42.474,0.614C41.37,0.174 40.188,-0.036 39,0L39,0Z" fill="#374957"/>
<path d="M6.082,9C6.04,8.603 6.086,8.201 6.216,7.824C6.347,7.446 6.559,7.102 6.837,6.816C7.116,6.53 7.454,6.308 7.828,6.167C8.201,6.026 8.602,5.969 9,6C9.795,6 10.558,5.684 11.121,5.121C11.684,4.559 12,3.796 12,3C12,2.204 11.684,1.441 11.121,0.879C10.558,0.316 9.795,0 9,0C7.812,-0.036 6.63,0.174 5.526,0.614C4.423,1.055 3.422,1.718 2.585,2.562C1.749,3.406 1.095,4.414 0.665,5.521C0.234,6.628 0.035,7.813 0.082,9C0.082,9.796 0.398,10.559 0.96,11.121C1.523,11.684 2.286,12 3.082,12C3.877,12 4.64,11.684 5.203,11.121C5.766,10.559 6.082,9.796 6.082,9Z" fill="#374957"/>
<path d="M27.061,24.758L27.061,17C27.061,16.204 26.744,15.441 26.182,14.879C25.619,14.316 24.856,14 24.061,14C23.265,14 22.502,14.316 21.939,14.879C21.377,15.441 21.061,16.204 21.061,17L21.061,25.586C21.061,26.647 21.482,27.664 22.233,28.414L25.819,32C26.384,32.546 27.142,32.849 27.929,32.842C28.715,32.835 29.468,32.52 30.024,31.963C30.58,31.407 30.896,30.655 30.903,29.868C30.909,29.082 30.607,28.324 30.061,27.758L27.061,24.758Z" fill="#374957"/>
</svg>
