<svg width="48" height="48" viewBox="0 0 48 48" fill="none" xmlns="http://www.w3.org/2000/svg" xmlns:xlink="http://www.w3.org/1999/xlink">
<path d="M15.4,10.253C15.151,9.754 14.768,9.335 14.294,9.042C13.82,8.749 13.273,8.593 12.716,8.593C12.158,8.593 11.612,8.749 11.138,9.042C10.664,9.335 10.281,9.754 10.032,10.253L0.32,29.653C0.09,30.11 -0.018,30.619 0.004,31.13C0.026,31.641 0.179,32.138 0.447,32.574C0.716,33.009 1.092,33.369 1.538,33.618C1.985,33.868 2.488,33.999 3,33.999L3,33.999C3.558,33.999 4.104,33.844 4.579,33.551C5.053,33.258 5.437,32.838 5.686,32.339L6.87,29.999L18.566,29.999L19.736,32.339C19.985,32.838 20.368,33.258 20.843,33.551C21.317,33.844 21.864,33.999 22.422,33.999L22.422,33.999C22.935,34.001 23.44,33.871 23.888,33.621C24.336,33.372 24.713,33.012 24.983,32.576C25.253,32.14 25.406,31.641 25.428,31.129C25.45,30.617 25.341,30.107 25.11,29.649L15.4,10.253ZM9.87,23.999L12.718,18.303L15.566,23.999L9.87,23.999Z" fill="#374957"/>
<path d="M45,13C44.39,13.002 43.795,13.191 43.294,13.54C42.794,13.89 42.412,14.383 42.2,14.956C40.887,14.332 39.453,14.006 38,14C35.348,14 32.804,15.053 30.929,16.928C29.054,18.804 28,21.347 28,23.999C28,26.652 29.054,29.195 30.929,31.071C32.804,32.946 35.348,34 38,34C39.453,33.993 40.887,33.667 42.2,33.044C42.45,33.695 42.92,34.239 43.528,34.581C44.136,34.923 44.845,35.043 45.532,34.92C46.218,34.796 46.841,34.437 47.291,33.904C47.742,33.371 47.992,32.697 48,31.999L48,16C48,15.204 47.684,14.441 47.121,13.878C46.559,13.316 45.796,13 45,13ZM38,27.999C37.209,27.999 36.435,27.765 35.778,27.325C35.12,26.886 34.607,26.261 34.304,25.53C34.002,24.799 33.923,23.995 34.077,23.219C34.231,22.443 34.612,21.73 35.172,21.171C35.731,20.612 36.444,20.231 37.22,20.076C37.996,19.922 38.8,20.001 39.531,20.304C40.262,20.607 40.886,21.119 41.326,21.777C41.765,22.435 42,23.208 42,23.999C42,25.06 41.579,26.078 40.828,26.828C40.078,27.578 39.061,27.999 38,27.999Z" fill="#374957"/>
</svg>
