<svg width="48" height="48" viewBox="0 0 48 48" fill="none" xmlns="http://www.w3.org/2000/svg" xmlns:xlink="http://www.w3.org/1999/xlink">
<path d="M48,22.492C47.71,17.812 46.057,13.32 43.245,9.569C40.433,5.818 36.585,2.971 32.175,1.381C27.765,-0.21 22.985,-0.476 18.426,0.617C13.867,1.709 9.727,4.112 6.517,7.529C3.307,10.946 1.166,15.227 0.36,19.845C-0.446,24.464 0.116,29.217 1.978,33.52C3.841,37.822 6.921,41.486 10.84,44.059C14.759,46.632 19.346,48.002 24.034,48L37,48C39.916,47.996 42.712,46.836 44.774,44.774C46.836,42.712 47.996,39.916 48,37L48,22.68L48,22.492ZM42,37C42,38.326 41.473,39.597 40.536,40.535C39.598,41.473 38.326,42 37,42L24.034,42C21.493,41.998 18.981,41.461 16.661,40.423C14.342,39.386 12.267,37.871 10.572,35.978C8.87,34.086 7.592,31.852 6.823,29.425C6.055,26.999 5.815,24.436 6.118,21.91C6.596,17.926 8.387,14.215 11.207,11.361C14.027,8.507 17.716,6.672 21.694,6.146C22.472,6.048 23.256,6 24.04,6C28.232,5.988 32.295,7.45 35.518,10.132C37.397,11.692 38.94,13.617 40.054,15.791C41.168,17.964 41.83,20.341 42,22.778L42,37Z" fill="#374957"/>
<path d="M19,22L25,22C25.796,22 26.559,21.684 27.121,21.122C27.684,20.559 28,19.796 28,19C28,18.205 27.684,17.442 27.121,16.879C26.559,16.317 25.796,16 25,16L19,16C18.204,16 17.441,16.317 16.879,16.879C16.316,17.442 16,18.205 16,19C16,19.796 16.316,20.559 16.879,21.122C17.441,21.684 18.204,22 19,22Z" fill="#374957"/>
<path d="M33,26L19,26C18.204,26 17.441,26.316 16.879,26.878C16.316,27.441 16,28.204 16,29C16,29.795 16.316,30.558 16.879,31.121C17.441,31.683 18.204,32 19,32L33,32C33.796,32 34.559,31.683 35.121,31.121C35.684,30.558 36,29.795 36,29C36,28.204 35.684,27.441 35.121,26.878C34.559,26.316 33.796,26 33,26Z" fill="#374957"/>
</svg>
