<svg width="50" height="48" viewBox="0 0 50 48" fill="none" xmlns="http://www.w3.org/2000/svg" xmlns:xlink="http://www.w3.org/1999/xlink">
<path d="M24,37.978C28.772,37.973 33.348,36.075 36.722,32.7C40.097,29.326 41.995,24.75 42,19.978L42,3C42,2.204 41.684,1.441 41.121,0.879C40.559,0.316 39.796,0 39,0C38.204,0 37.441,0.316 36.879,0.879C36.316,1.441 36,2.204 36,3L36,19.978C36,23.161 34.736,26.213 32.485,28.463C30.235,30.714 27.183,31.978 24,31.978C20.817,31.978 17.765,30.714 15.515,28.463C13.264,26.213 12,23.161 12,19.978L12,3C12,2.204 11.684,1.441 11.121,0.879C10.559,0.316 9.796,0 9,0C8.204,0 7.441,0.316 6.879,0.879C6.316,1.441 6,2.204 6,3L6,19.978C6.005,24.75 7.903,29.326 11.278,32.7C14.652,36.075 19.228,37.973 24,37.978Z" fill="#374957"/>
<path d="M45.088,42L3,42C2.204,42 1.441,42.316 0.879,42.879C0.316,43.441 0,44.204 0,45C0,45.796 0.316,46.559 0.879,47.121C1.441,47.684 2.204,48 3,48L45.088,48C45.884,48 46.647,47.684 47.209,47.121C47.772,46.559 48.088,45.796 48.088,45C48.088,44.204 47.772,43.441 47.209,42.879C46.647,42.316 45.884,42 45.088,42Z" fill="#374957"/>
</svg>
