<svg width="48" height="48" viewBox="0 0 48 48" fill="none" xmlns="http://www.w3.org/2000/svg" xmlns:xlink="http://www.w3.org/1999/xlink">
<path d="M45,42L11,42C9.674,42 8.402,41.473 7.464,40.536C6.527,39.598 6,38.326 6,37L6,3C6,2.204 5.684,1.441 5.121,0.879C4.559,0.316 3.796,0 3,0C2.204,0 1.441,0.316 0.879,0.879C0.316,1.441 0,2.204 0,3L0,37C0.003,39.916 1.163,42.712 3.225,44.775C5.288,46.837 8.084,47.997 11,48L45,48C45.796,48 46.559,47.684 47.121,47.121C47.684,46.559 48,45.796 48,45C48,44.204 47.684,43.441 47.121,42.879C46.559,42.316 45.796,42 45,42Z" fill="#374957"/>
<path d="M44.999,7.952L38.827,7.952C38.432,7.952 38.045,8.07 37.717,8.289C37.388,8.509 37.131,8.821 36.98,9.187C36.829,9.552 36.789,9.954 36.866,10.342C36.943,10.73 37.134,11.086 37.413,11.366L38.879,12.83L31.705,20C31.613,20.093 31.502,20.167 31.381,20.218C31.259,20.268 31.129,20.294 30.997,20.294C30.866,20.294 30.736,20.268 30.614,20.218C30.493,20.167 30.382,20.093 30.289,20L29.949,19.66C28.616,18.386 26.843,17.676 24.999,17.676C23.156,17.676 21.383,18.386 20.049,19.66L11.849,27.86C11.563,28.137 11.334,28.468 11.177,28.834C11.02,29.2 10.937,29.594 10.934,29.992C10.93,30.39 11.006,30.785 11.157,31.154C11.308,31.523 11.531,31.858 11.812,32.139C12.094,32.421 12.429,32.644 12.798,32.795C13.166,32.946 13.561,33.021 13.96,33.018C14.358,33.014 14.752,32.932 15.118,32.775C15.484,32.617 15.815,32.389 16.091,32.102L24.291,23.902C24.384,23.809 24.495,23.735 24.616,23.685C24.738,23.634 24.868,23.608 24.999,23.608C25.131,23.608 25.261,23.634 25.383,23.685C25.504,23.735 25.615,23.809 25.707,23.902L26.047,24.242C27.381,25.515 29.154,26.225 30.997,26.225C32.841,26.225 34.614,25.515 35.947,24.242L43.119,17.072L44.583,18.538C44.863,18.818 45.22,19.009 45.608,19.087C45.996,19.165 46.399,19.125 46.764,18.974C47.13,18.822 47.443,18.566 47.663,18.236C47.883,17.907 48,17.52 47.999,17.124L47.999,10.952C47.999,10.157 47.683,9.393 47.121,8.831C46.558,8.268 45.795,7.952 44.999,7.952Z" fill="#374957"/>
</svg>
