<svg width="48" height="48" viewBox="0 0 48 48" fill="none" xmlns="http://www.w3.org/2000/svg" xmlns:xlink="http://www.w3.org/1999/xlink">
<path d="M34.048,24C38.188,20.339 40.966,15.384 41.93,9.942C42.112,8.716 42.028,7.466 41.683,6.276C41.337,5.086 40.74,3.984 39.93,3.046C39.107,2.09 38.088,1.323 36.942,0.797C35.796,0.272 34.55,0 33.29,0L14.762,0C13.501,0.001 12.255,0.273 11.11,0.799C9.964,1.325 8.946,2.092 8.124,3.048C7.313,3.987 6.715,5.089 6.37,6.28C6.024,7.472 5.941,8.723 6.124,9.95C7.083,15.39 9.86,20.343 14,24C9.861,27.657 7.086,32.611 6.128,38.05C5.945,39.277 6.028,40.528 6.374,41.72C6.719,42.911 7.317,44.013 8.128,44.952C8.949,45.907 9.967,46.674 11.112,47.2C12.257,47.726 13.502,47.999 14.762,48L33.29,48C34.55,48 35.795,47.727 36.94,47.202C38.086,46.676 39.104,45.909 39.926,44.954C40.736,44.017 41.334,42.916 41.679,41.726C42.025,40.536 42.109,39.285 41.926,38.06C40.963,32.618 38.187,27.662 34.048,24L34.048,24ZM35.38,41.038C35.121,41.339 34.8,41.581 34.44,41.747C34.079,41.913 33.687,41.999 33.29,42L14.762,42C14.365,42 13.972,41.914 13.611,41.748C13.25,41.582 12.929,41.341 12.67,41.04C12.421,40.756 12.238,40.422 12.132,40.06C12.026,39.698 12,39.317 12.056,38.944C12.73,34.456 15.548,30.218 20.432,26.356C20.787,26.075 21.074,25.718 21.272,25.31C21.469,24.902 21.572,24.455 21.572,24.002C21.572,23.549 21.469,23.102 21.272,22.694C21.074,22.286 20.787,21.929 20.432,21.648C15.548,17.784 12.73,13.546 12.056,9.058C12,8.685 12.026,8.304 12.132,7.942C12.238,7.58 12.421,7.246 12.67,6.962C12.929,6.661 13.25,6.419 13.611,6.253C13.972,6.087 14.364,6.001 14.762,6L33.29,6C33.687,6.001 34.079,6.087 34.44,6.253C34.8,6.419 35.121,6.661 35.38,6.962C35.628,7.245 35.812,7.578 35.919,7.939C36.026,8.3 36.054,8.68 36,9.052C35.33,13.522 32.51,17.76 27.618,21.652C27.264,21.933 26.979,22.29 26.783,22.697C26.587,23.103 26.485,23.549 26.485,24C26.485,24.451 26.587,24.897 26.783,25.303C26.979,25.71 27.264,26.067 27.618,26.348C32.51,30.24 35.33,34.478 36,38.948C36.055,39.32 36.028,39.7 35.92,40.061C35.813,40.422 35.629,40.756 35.38,41.038L35.38,41.038Z" fill="#374957"/>
<path d="M25.672,30.426L25.084,29.956C24.776,29.712 24.395,29.58 24.003,29.58C23.61,29.58 23.229,29.712 22.922,29.956L22.322,30.432C20.497,31.768 19.05,33.554 18.122,35.616C18.016,35.879 17.977,36.165 18.007,36.447C18.037,36.73 18.137,37.001 18.296,37.236C18.455,37.471 18.67,37.664 18.921,37.797C19.172,37.93 19.451,38 19.736,38L28.262,38C28.545,37.998 28.824,37.927 29.074,37.793C29.324,37.659 29.537,37.465 29.695,37.23C29.853,36.994 29.95,36.724 29.98,36.441C30.009,36.159 29.968,35.874 29.862,35.612C28.932,33.552 27.49,31.767 25.672,30.426L25.672,30.426Z" fill="#374957"/>
</svg>
