<svg width="48" height="48" viewBox="0 0 48 48" fill="none" xmlns="http://www.w3.org/2000/svg" xmlns:xlink="http://www.w3.org/1999/xlink">
<path d="M31,48L17,48C14.084,47.997 11.288,46.837 9.225,44.775C7.163,42.712 6.003,39.916 6,37L6,11C6.003,8.084 7.163,5.288 9.225,3.225C11.288,1.163 14.084,0.003 17,0L31,0C33.916,0.003 36.712,1.163 38.775,3.225C40.837,5.288 41.997,8.084 42,11L42,37C41.997,39.916 40.837,42.712 38.775,44.775C36.712,46.837 33.916,47.997 31,48L31,48ZM17,6C15.674,6 14.402,6.527 13.464,7.464C12.527,8.402 12,9.674 12,11L12,37C12,38.326 12.527,39.598 13.464,40.536C14.402,41.473 15.674,42 17,42L31,42C32.326,42 33.598,41.473 34.536,40.536C35.473,39.598 36,38.326 36,37L36,11C36,9.674 35.473,8.402 34.536,7.464C33.598,6.527 32.326,6 31,6L17,6Z" fill="#374957"/>
<circle cx="24" cy="14.001" r="4" fill="#374957"/>
<path d="M24,39C22.22,39 20.48,38.472 19,37.483C17.52,36.494 16.366,35.089 15.685,33.444C15.004,31.8 14.826,29.99 15.173,28.244C15.52,26.498 16.377,24.895 17.636,23.636C18.895,22.377 20.498,21.52 22.244,21.173C23.99,20.826 25.8,21.004 27.444,21.685C29.089,22.366 30.494,23.52 31.483,25C32.472,26.48 33,28.22 33,30C32.997,32.386 32.048,34.674 30.361,36.361C28.674,38.048 26.386,38.997 24,39L24,39ZM24,27C23.407,27 22.827,27.176 22.333,27.506C21.84,27.835 21.455,28.304 21.228,28.852C21.001,29.4 20.942,30.003 21.058,30.585C21.173,31.167 21.459,31.702 21.879,32.121C22.298,32.541 22.833,32.827 23.415,32.942C23.997,33.058 24.6,32.999 25.148,32.772C25.696,32.545 26.165,32.16 26.494,31.667C26.824,31.173 27,30.593 27,30C27,29.204 26.684,28.441 26.121,27.879C25.559,27.316 24.796,27 24,27Z" fill="#374957"/>
</svg>
