<svg width="48" height="50" viewBox="0 0 48 50" fill="none" xmlns="http://www.w3.org/2000/svg" xmlns:xlink="http://www.w3.org/1999/xlink">
<path d="M37.178,0.001L10.822,0.001C7.977,-0.02 5.241,1.088 3.212,3.082C1.183,5.076 0.028,7.793 0,10.637L0,14.365C0,15.161 0.316,15.924 0.879,16.487C1.441,17.049 2.204,17.365 3,17.365C3.796,17.365 4.559,17.049 5.121,16.487C5.684,15.924 6,15.161 6,14.365L6,10.637C6.027,9.384 6.549,8.192 7.453,7.323C8.357,6.454 9.568,5.979 10.822,6.001L37.178,6.001C38.432,5.979 39.643,6.454 40.547,7.323C41.451,8.192 41.973,9.384 42,10.637L42,37.365C41.973,38.619 41.451,39.811 40.547,40.68C39.643,41.549 38.432,42.024 37.178,42.001L10.822,42.001C9.568,42.024 8.357,41.549 7.453,40.68C6.549,39.811 6.027,38.619 6,37.365L6,33.637C6,32.842 5.684,32.079 5.121,31.516C4.559,30.953 3.796,30.637 3,30.637C2.204,30.637 1.441,30.953 0.879,31.516C0.316,32.079 0,32.842 0,33.637L0,37.365C0.028,40.21 1.183,42.927 3.212,44.921C5.241,46.915 7.977,48.023 10.822,48.001L37.178,48.001C40.023,48.023 42.759,46.915 44.788,44.921C46.817,42.927 47.972,40.21 48,37.365L48,10.637C47.972,7.793 46.817,5.076 44.788,3.082C42.759,1.088 40.023,-0.02 37.178,0.001L37.178,0.001Z" fill="#374957"/>
<path d="M7,23.999C7,24.794 7.316,25.557 7.879,26.12C8.441,26.682 9.204,26.999 10,26.999L29.95,26.945L23.018,33.876C22.455,34.439 22.139,35.202 22.139,35.998C22.139,36.793 22.454,37.557 23.017,38.119C23.58,38.682 24.343,38.999 25.138,38.999C25.934,38.999 26.697,38.683 27.26,38.12L36.432,28.949C37.082,28.299 37.598,27.527 37.95,26.677C38.301,25.828 38.483,24.918 38.483,23.999C38.483,23.079 38.301,22.169 37.95,21.32C37.598,20.47 37.082,19.699 36.432,19.049L27.268,9.877C26.989,9.598 26.659,9.377 26.294,9.226C25.93,9.076 25.54,8.998 25.146,8.998C24.752,8.998 24.362,9.076 23.998,9.227C23.634,9.378 23.304,9.599 23.025,9.878C22.462,10.44 22.147,11.204 22.147,11.999C22.147,12.393 22.225,12.783 22.375,13.147C22.526,13.511 22.747,13.842 23.026,14.121L29.852,20.945L10,20.999C9.204,20.999 8.441,21.315 7.879,21.877C7.316,22.44 7,23.203 7,23.999Z" fill="#374957"/>
</svg>
