<svg width="50" height="48" viewBox="0 0 50 48" fill="none" xmlns="http://www.w3.org/2000/svg" xmlns:xlink="http://www.w3.org/1999/xlink">
<path d="M19,48L3,48C2.204,48 1.441,47.684 0.879,47.121C0.316,46.559 0,45.796 0,45C0,44.204 0.316,43.441 0.879,42.879C1.441,42.316 2.204,42 3,42L19,42C19.796,42 20.559,42.316 21.121,42.879C21.684,43.441 22,44.204 22,45C22,45.796 21.684,46.559 21.121,47.121C20.559,47.684 19.796,48 19,48Z" fill="#374957"/>
<path d="M15,37.999L3,37.999C2.204,37.999 1.441,37.683 0.879,37.12C0.316,36.557 0,35.794 0,34.999C0,34.203 0.316,33.44 0.879,32.877C1.441,32.315 2.204,31.999 3,31.999L15,31.999C15.796,31.999 16.559,32.315 17.121,32.877C17.684,33.44 18,34.203 18,34.999C18,35.794 17.684,36.557 17.121,37.12C16.559,37.683 15.796,37.999 15,37.999L15,37.999Z" fill="#374957"/>
<path d="M11,28.001L3,28.001C2.204,28.001 1.441,27.685 0.879,27.123C0.316,26.56 0,25.797 0,25.001C0,24.206 0.316,23.443 0.879,22.88C1.441,22.317 2.204,22.001 3,22.001L11,22.001C11.796,22.001 12.559,22.317 13.121,22.88C13.684,23.443 14,24.206 14,25.001C14,25.797 13.684,26.56 13.121,27.123C12.559,27.685 11.796,28.001 11,28.001L11,28.001Z" fill="#374957"/>
<path d="M29,47.442C28.265,47.443 27.556,47.174 27.007,46.687C26.457,46.2 26.105,45.528 26.018,44.799C25.931,44.07 26.114,43.334 26.533,42.731C26.952,42.127 27.578,41.699 28.292,41.526C31.25,40.801 33.977,39.339 36.218,37.276C38.458,35.212 40.14,32.616 41.107,29.727C42.074,26.838 42.293,23.752 41.745,20.756C41.197,17.76 39.9,14.951 37.974,12.591C36.048,10.232 33.556,8.398 30.73,7.261C27.904,6.124 24.836,5.721 21.813,6.09C18.789,6.458 15.908,7.586 13.438,9.368C10.968,11.151 8.989,13.529 7.686,16.282C7.338,16.99 6.726,17.532 5.982,17.792C5.238,18.052 4.421,18.008 3.709,17.671C2.997,17.334 2.446,16.729 2.175,15.989C1.905,15.249 1.937,14.431 2.264,13.714C4,10.044 6.637,6.874 9.93,4.498C13.222,2.123 17.062,0.619 21.093,0.129C25.123,-0.362 29.212,0.175 32.978,1.691C36.744,3.207 40.066,5.652 42.632,8.798C45.198,11.943 46.927,15.688 47.655,19.682C48.384,23.676 48.09,27.789 46.8,31.639C45.51,35.489 43.266,38.949 40.278,41.697C37.289,44.445 33.654,46.392 29.71,47.356C29.477,47.413 29.239,47.442 29,47.442L29,47.442Z" fill="#374957"/>
<path d="M25,12C24.204,12 23.441,12.316 22.879,12.879C22.316,13.441 22,14.204 22,15L22,23.586C22,24.647 22.422,25.664 23.172,26.414L26.758,30C27.324,30.546 28.082,30.849 28.868,30.842C29.655,30.835 30.407,30.52 30.963,29.963C31.52,29.407 31.835,28.655 31.842,27.868C31.849,27.082 31.546,26.324 31,25.758L28,22.758L28,15C28,14.204 27.684,13.441 27.121,12.879C26.559,12.316 25.796,12 25,12L25,12Z" fill="#374957"/>
</svg>
