<svg width="48" height="50" viewBox="0 0 48 50" fill="none" xmlns="http://www.w3.org/2000/svg" xmlns:xlink="http://www.w3.org/1999/xlink">
<path d="M30,31.251C30,28.997 29.104,26.835 27.51,25.241C25.916,23.647 23.754,22.751 21.5,22.751C19.246,22.751 17.084,23.647 15.49,25.241C13.896,26.835 13,28.997 13,31.251C13,32.047 13.316,32.81 13.879,33.373C14.441,33.935 15.204,34.251 16,34.251C16.796,34.251 17.559,33.935 18.121,33.373C18.684,32.81 19,32.047 19,31.251C19,30.588 19.263,29.952 19.732,29.483C20.201,29.015 20.837,28.751 21.5,28.751C22.163,28.751 22.799,29.015 23.268,29.483C23.737,29.952 24,30.588 24,31.251C24,32.501 21.616,34.289 19.7,35.725C16.56,38.081 13,40.751 13,45.001C13,45.797 13.316,46.56 13.879,47.123C14.441,47.685 15.204,48.001 16,48.001L27,48.001C27.796,48.001 28.559,47.685 29.121,47.123C29.684,46.56 30,45.797 30,45.001C30,44.206 29.684,43.442 29.121,42.88C28.559,42.317 27.796,42.001 27,42.001L21.4,42.001C22.02,41.493 22.69,41.001 23.31,40.527C26.44,38.171 30,35.501 30,31.251L30,31.251Z" fill="#374957"/>
<path d="M45,22.001C44.204,22.001 43.441,22.317 42.879,22.88C42.316,23.443 42,24.206 42,25.001L42,34.001L40.5,34.001C39.837,34 39.202,33.736 38.733,33.268C38.265,32.799 38.001,32.164 38,31.501L38,25.001C38,24.206 37.684,23.443 37.121,22.88C36.559,22.317 35.796,22.001 35,22.001C34.204,22.001 33.441,22.317 32.879,22.88C32.316,23.443 32,24.206 32,25.001L32,31.501C32.003,33.755 32.899,35.915 34.493,37.509C36.086,39.102 38.246,39.999 40.5,40.001L42,40.001L42,45.001C42,45.797 42.316,46.56 42.879,47.123C43.441,47.685 44.204,48.001 45,48.001C45.796,48.001 46.559,47.685 47.121,47.123C47.684,46.56 48,45.797 48,45.001L48,25.001C48,24.206 47.684,23.443 47.121,22.88C46.559,22.317 45.796,22.001 45,22.001Z" fill="#374957"/>
<path d="M44.586,5.415L41.94,8.061C38.017,3.645 32.603,0.832 26.734,0.158C20.866,-0.515 14.955,1 10.134,4.413C5.312,7.825 1.919,12.896 0.602,18.655C-0.714,24.413 0.14,30.455 3,35.623C3.191,35.968 3.448,36.271 3.757,36.516C4.065,36.762 4.419,36.944 4.798,37.052C5.176,37.161 5.573,37.194 5.964,37.149C6.356,37.104 6.735,36.983 7.079,36.792C7.424,36.601 7.727,36.344 7.973,36.035C8.218,35.727 8.4,35.373 8.508,34.995C8.617,34.616 8.65,34.219 8.605,33.828C8.561,33.436 8.439,33.058 8.248,32.713C6.086,28.812 5.451,24.248 6.465,19.905C7.479,15.562 10.071,11.751 13.737,9.211C17.403,6.671 21.882,5.585 26.304,6.162C30.726,6.738 34.776,8.938 37.668,12.333L35.414,14.587C35.135,14.867 34.944,15.223 34.867,15.611C34.79,15.999 34.829,16.401 34.981,16.766C35.132,17.132 35.388,17.444 35.717,17.664C36.046,17.884 36.433,18.001 36.828,18.001L46,18.001C46.531,18.001 47.039,17.79 47.414,17.415C47.789,17.04 48,16.531 48,16.001L48,6.829C48,6.433 47.883,6.047 47.663,5.718C47.443,5.389 47.131,5.133 46.765,4.982C46.4,4.83 45.998,4.791 45.61,4.868C45.222,4.945 44.866,5.135 44.586,5.415L44.586,5.415Z" fill="#374957"/>
</svg>
