<svg width="48" height="48" viewBox="0 0 48 48" fill="none" xmlns="http://www.w3.org/2000/svg" xmlns:xlink="http://www.w3.org/1999/xlink">
<path d="M6.896,40.142C7.52,41.307 8.449,42.281 9.583,42.961C10.717,43.64 12.014,43.999 13.336,44L21,44L21,45C21,45.796 21.316,46.559 21.878,47.122C22.441,47.684 23.204,48 24,48C24.795,48 25.558,47.684 26.121,47.122C26.684,46.559 27,45.796 27,45L27,44L34.664,44C35.986,43.999 37.283,43.64 38.417,42.96C39.551,42.28 40.479,41.306 41.104,40.14C41.739,38.962 42.044,37.633 41.986,36.295C41.927,34.957 41.508,33.659 40.772,32.54L38.522,29.12C38.866,28.768 39.159,28.369 39.392,27.934C39.849,27.089 40.068,26.135 40.027,25.175C39.985,24.215 39.684,23.283 39.156,22.48L35.694,17.212C35.851,17.006 35.992,16.788 36.116,16.56C36.575,15.724 36.801,14.78 36.771,13.827C36.74,12.873 36.454,11.945 35.942,11.14C35.868,11.028 35.788,10.919 35.702,10.814L28.104,1.83C28.056,1.776 28,1.722 27.958,1.672C26.901,0.636 25.48,0.055 24,0.055C22.52,0.055 21.098,0.636 20.042,1.672C19.994,1.72 19.946,1.772 19.902,1.824L12.27,10.8C12.185,10.903 12.105,11.011 12.032,11.122C11.516,11.926 11.226,12.855 11.192,13.809C11.159,14.764 11.383,15.71 11.842,16.548C11.973,16.789 12.122,17.019 12.29,17.236L8.844,22.474C8.314,23.277 8.012,24.207 7.969,25.168C7.926,26.128 8.144,27.082 8.6,27.928C8.833,28.363 9.125,28.762 9.47,29.114L7.22,32.534C6.484,33.655 6.065,34.954 6.008,36.294C5.951,37.633 6.258,38.963 6.896,40.142L6.896,40.142ZM12.24,35.83L16.502,29.35C16.774,28.936 16.94,28.461 16.983,27.967C17.027,27.473 16.947,26.975 16.752,26.52C16.556,26.064 16.251,25.664 15.862,25.355C15.474,25.046 15.016,24.839 14.528,24.75L19,17.948C19.231,17.589 19.384,17.185 19.447,16.762C19.51,16.339 19.483,15.908 19.366,15.497C19.25,15.085 19.047,14.704 18.772,14.377C18.497,14.05 18.155,13.785 17.77,13.6L24,6.27L30.2,13.6C29.815,13.786 29.475,14.052 29.201,14.381C28.928,14.709 28.727,15.092 28.614,15.503C28.5,15.915 28.476,16.347 28.542,16.769C28.609,17.191 28.765,17.594 29,17.95L33.474,24.75C32.986,24.839 32.527,25.046 32.139,25.355C31.751,25.664 31.445,26.064 31.25,26.52C31.054,26.975 30.975,27.473 31.018,27.967C31.062,28.461 31.227,28.936 31.5,29.35L35.764,35.83C35.908,36.045 35.991,36.295 36.002,36.554C36.013,36.812 35.952,37.068 35.826,37.294C35.718,37.509 35.553,37.689 35.348,37.814C35.143,37.939 34.908,38.005 34.668,38.002L13.336,38.002C13.096,38.005 12.86,37.939 12.655,37.814C12.451,37.689 12.285,37.509 12.178,37.294C12.052,37.068 11.991,36.812 12.002,36.554C12.013,36.295 12.095,36.045 12.24,35.83L12.24,35.83Z" fill="#374957"/>
<circle cx="23" cy="31.001" r="3" fill="#374957"/>
<circle cx="25" cy="21" r="3" fill="#374957"/>
</svg>
