<svg width="50" height="50" viewBox="0 0 50 50" fill="none" xmlns="http://www.w3.org/2000/svg" xmlns:xlink="http://www.w3.org/1999/xlink">
<path d="M19.712,41.485C16.433,40.681 13.447,38.971 11.094,36.551C8.741,34.131 7.116,31.097 6.404,27.797C5.693,24.497 5.924,21.064 7.07,17.889C8.217,14.714 10.234,11.925 12.889,9.842C15.545,7.758 18.734,6.463 22.09,6.105C25.447,5.747 28.837,6.34 31.872,7.816C34.908,9.293 37.468,11.593 39.258,14.455C41.049,17.316 41.999,20.624 42,23.999C42,24.795 42.316,25.558 42.879,26.121C43.441,26.683 44.204,26.999 45,26.999C45.796,26.999 46.559,26.683 47.121,26.121C47.684,25.558 48,24.795 48,23.999C47.999,19.498 46.733,15.088 44.345,11.272C41.957,7.456 38.545,4.389 34.497,2.42C30.449,0.451 25.929,-0.339 21.453,0.138C16.977,0.616 12.726,2.343 9.185,5.122C5.643,7.9 2.955,11.619 1.426,15.853C-0.102,20.087 -0.409,24.665 0.54,29.065C1.489,33.465 3.657,37.509 6.795,40.736C9.934,43.963 13.916,46.242 18.288,47.313C18.521,47.371 18.76,47.4 19,47.399C19.733,47.399 20.441,47.129 20.989,46.643C21.537,46.156 21.888,45.485 21.975,44.757C22.063,44.029 21.881,43.294 21.463,42.691C21.046,42.089 20.422,41.66 19.71,41.485L19.712,41.485Z" fill="#374957"/>
<path d="M47.242,31.879C46.68,31.317 45.917,31.001 45.121,31.001C44.326,31.001 43.563,31.317 43,31.879L33.43,41.443L29.164,36.923C28.891,36.639 28.565,36.411 28.204,36.253C27.843,36.095 27.455,36.01 27.061,36.002C26.667,35.994 26.275,36.063 25.908,36.207C25.541,36.35 25.206,36.564 24.922,36.837C24.638,37.11 24.411,37.437 24.253,37.798C24.095,38.159 24.009,38.547 24.002,38.941C23.994,39.335 24.064,39.726 24.207,40.093C24.351,40.46 24.565,40.795 24.838,41.079L30,46.521C30.432,46.978 30.95,47.345 31.525,47.599C32.1,47.853 32.72,47.99 33.348,48.001L33.422,48.001C34.667,47.997 35.861,47.503 36.744,46.625L47.252,36.121C47.813,35.557 48.127,34.794 48.126,33.998C48.124,33.203 47.806,32.441 47.242,31.879L47.242,31.879Z" fill="#374957"/>
<path d="M21,15L21,22.11L16.2,25.11C15.866,25.319 15.576,25.592 15.348,25.913C15.119,26.234 14.956,26.597 14.868,26.981C14.78,27.365 14.768,27.763 14.834,28.152C14.899,28.54 15.041,28.912 15.25,29.246C15.459,29.58 15.732,29.87 16.053,30.098C16.374,30.327 16.737,30.49 17.121,30.578C17.505,30.666 17.903,30.678 18.292,30.612C18.68,30.547 19.052,30.405 19.386,30.196L25.124,26.596C25.7,26.235 26.174,25.734 26.502,25.139C26.831,24.544 27.002,23.875 27,23.196L27,15C27,14.204 26.684,13.441 26.121,12.879C25.559,12.316 24.796,12 24,12C23.204,12 22.441,12.316 21.879,12.879C21.316,13.441 21,14.204 21,15L21,15Z" fill="#374957"/>
</svg>
