<svg width="48" height="48" viewBox="0 0 48 48" fill="none" xmlns="http://www.w3.org/2000/svg" xmlns:xlink="http://www.w3.org/1999/xlink">
<path d="M23.664,48C23.071,48 22.491,47.824 21.997,47.495C21.503,47.165 21.119,46.697 20.892,46.148C20.664,45.6 20.605,44.996 20.721,44.414C20.837,43.832 21.123,43.298 21.542,42.878L36.886,27.536C37.351,27.072 37.719,26.52 37.971,25.914C38.222,25.307 38.351,24.657 38.351,24C38.351,23.343 38.222,22.693 37.971,22.086C37.719,21.48 37.351,20.928 36.886,20.464L21.542,5.122C21.264,4.843 21.043,4.513 20.892,4.148C20.741,3.784 20.663,3.394 20.663,3C20.663,2.204 20.98,1.441 21.542,0.878C22.105,0.315 22.869,-0.001 23.664,-0.001C24.059,-0.001 24.449,0.077 24.813,0.227C25.177,0.378 25.508,0.599 25.786,0.878L41.128,16.222C43.191,18.285 44.35,21.083 44.35,24C44.35,26.917 43.191,29.715 41.128,31.778L25.786,47.122C25.508,47.4 25.177,47.621 24.813,47.772C24.449,47.923 24.058,48 23.664,48L23.664,48Z" fill="#374957"/>
<path d="M4.575,48C3.981,48 3.401,47.824 2.908,47.494C2.415,47.164 2.03,46.695 1.803,46.147C1.576,45.599 1.517,44.996 1.633,44.414C1.749,43.832 2.035,43.297 2.455,42.878L20.625,24.708C20.718,24.615 20.792,24.505 20.842,24.383C20.892,24.262 20.918,24.131 20.918,24C20.918,23.868 20.892,23.738 20.842,23.617C20.792,23.495 20.718,23.385 20.625,23.292L2.455,5.122C1.892,4.559 1.575,3.796 1.575,3C1.575,2.205 1.891,1.442 2.454,0.879C3.016,0.316 3.779,0 4.575,0C5.371,-0.001 6.134,0.315 6.697,0.878L24.869,19.05C26.177,20.364 26.912,22.144 26.912,23.999C26.912,25.854 26.177,27.633 24.869,28.948L6.697,47.122C6.418,47.4 6.087,47.621 5.723,47.772C5.359,47.923 4.969,48 4.575,48L4.575,48Z" fill="#374957"/>
</svg>
