<svg width="48" height="50" viewBox="0 0 48 50" fill="none" xmlns="http://www.w3.org/2000/svg" xmlns:xlink="http://www.w3.org/1999/xlink">
<path d="M11,0L7,0C5.143,0 3.363,0.737 2.05,2.05C0.737,3.363 0,5.143 0,7L0,11C0.005,12.675 0.611,14.293 1.709,15.559C2.806,16.825 4.322,17.654 5.98,17.896L5.98,18.986C5.976,19.781 6.288,20.544 6.847,21.109C7.405,21.674 8.165,21.995 8.96,22C9.354,22.002 9.745,21.927 10.11,21.778C10.475,21.629 10.807,21.409 11.087,21.132C11.367,20.855 11.59,20.525 11.742,20.161C11.895,19.798 11.974,19.408 11.976,19.014L11.976,17.9C13.465,17.69 14.846,17.003 15.913,15.944C16.98,14.884 17.676,13.508 17.896,12.02L18.984,12.02C19.779,12.024 20.543,11.713 21.109,11.154C21.674,10.595 21.995,9.835 22,9.04C22.002,8.646 21.927,8.256 21.778,7.891C21.629,7.526 21.41,7.194 21.133,6.914C20.856,6.634 20.526,6.411 20.163,6.258C19.8,6.106 19.41,6.026 19.016,6.024L17.9,6.024C17.668,4.357 16.842,2.831 15.575,1.724C14.307,0.617 12.683,0.005 11,0L11,0ZM12,11C12,11.265 11.895,11.52 11.707,11.707C11.52,11.895 11.265,12 11,12L7,12C6.735,12 6.48,11.895 6.293,11.707C6.105,11.52 6,11.265 6,11L6,7C6,6.735 6.105,6.48 6.293,6.293C6.48,6.105 6.735,6 7,6L11,6C11.265,6 11.52,6.105 11.707,6.293C11.895,6.48 12,6.735 12,7L12,11Z" fill="#374957"/>
<path d="M41,0L37,0C35.325,0.005 33.707,0.611 32.441,1.709C31.175,2.806 30.346,4.322 30.104,5.98L29.016,5.98C28.221,5.976 27.457,6.287 26.891,6.846C26.326,7.405 26.005,8.165 26,8.96L26,8.96C25.998,9.354 26.073,9.744 26.222,10.109C26.371,10.474 26.59,10.806 26.867,11.086C27.144,11.366 27.474,11.589 27.837,11.742C28.2,11.894 28.59,11.974 28.984,11.976L30.1,11.976C30.311,13.464 30.998,14.844 32.057,15.911C33.117,16.977 34.493,17.672 35.98,17.892L35.98,18.982C35.975,19.777 36.286,20.542 36.845,21.108C37.404,21.674 38.165,21.995 38.96,22L38.96,22C39.354,22.002 39.745,21.927 40.11,21.778C40.475,21.629 40.807,21.409 41.087,21.132C41.367,20.855 41.59,20.525 41.742,20.161C41.895,19.798 41.974,19.408 41.976,19.014L41.976,17.9C43.643,17.668 45.17,16.842 46.276,15.575C47.383,14.307 47.995,12.683 48,11L48,7C48,5.143 47.263,3.363 45.95,2.05C44.637,0.737 42.857,0 41,0ZM42,11C42,11.265 41.895,11.52 41.707,11.707C41.52,11.895 41.265,12 41,12L37,12C36.735,12 36.48,11.895 36.293,11.707C36.105,11.52 36,11.265 36,11L36,7C36,6.735 36.105,6.48 36.293,6.293C36.48,6.105 36.735,6 37,6L41,6C41.265,6 41.52,6.105 41.707,6.293C41.895,6.48 42,6.735 42,7L42,11Z" fill="#374957"/>
<path d="M42.02,30.106L42.02,29.016C42.024,28.221 41.712,27.457 41.153,26.892C40.595,26.327 39.835,26.007 39.04,26.002L39.04,26.002C38.646,25.999 38.255,26.075 37.89,26.224C37.525,26.373 37.193,26.592 36.913,26.87C36.633,27.147 36.411,27.477 36.258,27.84C36.105,28.203 36.026,28.593 36.024,28.988L36.024,30.102C34.536,30.313 33.156,31 32.091,32.059C31.025,33.119 30.33,34.495 30.11,35.982L29.022,35.982C28.628,35.979 28.237,36.053 27.872,36.202C27.507,36.35 27.174,36.569 26.894,36.845C26.613,37.122 26.39,37.451 26.236,37.815C26.083,38.178 26.003,38.567 26,38.962L26,38.962C25.998,39.355 26.073,39.746 26.222,40.111C26.371,40.476 26.59,40.807 26.867,41.088C27.144,41.368 27.474,41.59 27.837,41.743C28.2,41.896 28.59,41.975 28.984,41.978L30.1,41.978C30.332,43.644 31.158,45.171 32.425,46.278C33.693,47.384 35.317,47.996 37,48.001L41,48.001C42.857,48.001 44.637,47.264 45.95,45.951C47.263,44.639 48,42.858 48,41.002L48,37.002C47.996,35.326 47.389,33.708 46.292,32.442C45.194,31.176 43.678,30.347 42.02,30.106L42.02,30.106ZM42,41.002C42,41.267 41.895,41.521 41.707,41.709C41.52,41.896 41.265,42.002 41,42.002L37,42.002C36.735,42.002 36.48,41.896 36.293,41.709C36.105,41.521 36,41.267 36,41.002L36,37.002C36,36.736 36.105,36.482 36.293,36.294C36.48,36.107 36.735,36.002 37,36.002L41,36.002C41.265,36.002 41.52,36.107 41.707,36.294C41.895,36.482 42,36.736 42,37.002L42,41.002Z" fill="#374957"/>
<path d="M12.02,30.106L12.02,29.016C12.024,28.221 11.712,27.457 11.153,26.892C10.595,26.327 9.835,26.007 9.04,26.002L9.04,26.002C8.646,25.999 8.255,26.075 7.89,26.224C7.525,26.373 7.193,26.592 6.913,26.87C6.633,27.147 6.41,27.477 6.258,27.84C6.105,28.203 6.026,28.593 6.024,28.988L6.024,30.102C4.357,30.334 2.831,31.159 1.724,32.427C0.617,33.694 0.005,35.319 0,37.002L0,41.002C0,42.858 0.737,44.639 2.05,45.951C3.363,47.264 5.143,48.001 7,48.001L11,48.001C12.675,47.997 14.293,47.391 15.559,46.293C16.825,45.195 17.654,43.679 17.896,42.022L18.984,42.022C19.779,42.026 20.543,41.714 21.109,41.156C21.674,40.597 21.995,39.836 22,39.042C22.002,38.648 21.927,38.257 21.778,37.892C21.629,37.527 21.41,37.196 21.133,36.915C20.856,36.635 20.526,36.413 20.163,36.26C19.8,36.107 19.41,36.028 19.016,36.026L17.9,36.026C17.69,34.536 17.003,33.155 15.944,32.088C14.884,31.022 13.508,30.326 12.02,30.106L12.02,30.106ZM12,41.002C12,41.267 11.895,41.521 11.707,41.709C11.52,41.896 11.265,42.002 11,42.002L7,42.002C6.735,42.002 6.48,41.896 6.293,41.709C6.105,41.521 6,41.267 6,41.002L6,37.002C6,36.736 6.105,36.482 6.293,36.294C6.48,36.107 6.735,36.002 7,36.002L11,36.002C11.265,36.002 11.52,36.107 11.707,36.294C11.895,36.482 12,36.736 12,37.002L12,41.002Z" fill="#374957"/>
</svg>
