<svg width="48" height="48" viewBox="0 0 48 48" fill="none" xmlns="http://www.w3.org/2000/svg" xmlns:xlink="http://www.w3.org/1999/xlink">
<path d="M41.58,8.511C41.014,7.964 40.257,7.662 39.47,7.669C38.683,7.676 37.931,7.991 37.375,8.547C36.819,9.104 36.503,9.856 36.496,10.643C36.489,11.429 36.792,12.187 37.338,12.753C38.815,14.23 39.987,15.983 40.786,17.913C41.585,19.842 41.997,21.91 41.997,23.999C41.997,26.087 41.585,28.156 40.786,30.085C39.987,32.015 38.815,33.768 37.338,35.245C36.792,35.811 36.489,36.569 36.496,37.355C36.503,38.142 36.819,38.894 37.375,39.45C37.931,40.007 38.683,40.322 39.47,40.329C40.257,40.336 41.014,40.033 41.58,39.487C43.614,37.453 45.228,35.039 46.329,32.381C47.43,29.724 47.996,26.875 47.996,23.999C47.996,21.122 47.43,18.274 46.329,15.617C45.228,12.959 43.614,10.545 41.58,8.511L41.58,8.511Z" fill="#374957"/>
<path d="M37.304,23.998C37.3,22.079 36.661,20.215 35.488,18.696C34.316,17.177 32.674,16.088 30.818,15.598L30.818,3.358C30.818,2.918 30.721,2.484 30.534,2.086C30.348,1.688 30.076,1.335 29.738,1.054C29.4,0.772 29.004,0.568 28.579,0.457C28.153,0.345 27.709,0.329 27.276,0.408C21.388,1.512 16.122,4.768 12.504,9.542L11,9.542C8.084,9.545 5.288,10.705 3.225,12.768C1.163,14.83 0.003,17.626 0,20.542L0,27.454C0.003,30.371 1.163,33.167 3.225,35.229C5.288,37.291 8.084,38.451 11,38.454L12.508,38.454C16.124,43.231 21.388,46.491 27.276,47.598C27.455,47.632 27.636,47.648 27.818,47.648C28.614,47.648 29.377,47.332 29.939,46.769C30.502,46.207 30.818,45.444 30.818,44.648L30.818,32.398C32.674,31.908 34.316,30.819 35.488,29.3C36.661,27.781 37.3,25.917 37.304,23.998L37.304,23.998ZM24.818,40.642C21.445,39.245 18.571,36.865 16.57,33.812C16.297,33.395 15.925,33.052 15.486,32.815C15.047,32.578 14.557,32.454 14.058,32.454L11,32.454C9.674,32.454 8.402,31.927 7.464,30.99C6.527,30.052 6,28.78 6,27.454L6,20.542C6,19.216 6.527,17.944 7.464,17.007C8.402,16.069 9.674,15.542 11,15.542L14.058,15.542C14.557,15.542 15.047,15.418 15.486,15.181C15.925,14.944 16.297,14.602 16.57,14.184C18.571,11.131 21.445,8.751 24.818,7.354L24.818,40.642Z" fill="#374957"/>
</svg>
