<svg width="48" height="48" viewBox="0 0 48 48" fill="none" xmlns="http://www.w3.org/2000/svg" xmlns:xlink="http://www.w3.org/1999/xlink">
<path d="M37,0L11,0C8.084,0.004 5.288,1.164 3.226,3.226C1.164,5.288 0.004,8.084 0,11L0,29C0.004,31.916 1.164,34.712 3.226,36.774C5.288,38.836 8.084,39.996 11,40L13.876,40L22.076,46.856C22.616,47.307 23.297,47.554 24,47.554C24.703,47.554 25.384,47.307 25.924,46.856L34.124,40L37,40C39.916,39.996 42.712,38.836 44.774,36.774C46.836,34.712 47.996,31.916 48,29L48,11C47.996,8.084 46.836,5.288 44.774,3.226C42.712,1.164 39.916,0.004 37,0L37,0ZM42,29C42,30.326 41.473,31.598 40.536,32.536C39.598,33.473 38.326,34 37,34L33.034,34C32.33,34 31.649,34.248 31.11,34.7L24,40.644L16.89,34.7C16.351,34.248 15.67,34 14.966,34L11,34C9.674,34 8.402,33.473 7.464,32.536C6.527,31.598 6,30.326 6,29L6,11C6,9.674 6.527,8.402 7.464,7.464C8.402,6.527 9.674,6 11,6L37,6C38.326,6 39.598,6.527 40.536,7.464C41.473,8.402 42,9.674 42,11L42,29Z" fill="#374957"/>
<path d="M15,18L21,18C21.796,18 22.559,17.684 23.121,17.121C23.684,16.559 24,15.796 24,15C24,14.204 23.684,13.441 23.121,12.879C22.559,12.316 21.796,12 21,12L15,12C14.204,12 13.441,12.316 12.879,12.879C12.316,13.441 12,14.204 12,15C12,15.796 12.316,16.559 12.879,17.121C13.441,17.684 14.204,18 15,18L15,18Z" fill="#374957"/>
<path d="M33,22L15,22C14.204,22 13.441,22.317 12.879,22.879C12.316,23.442 12,24.205 12,25C12,25.796 12.316,26.559 12.879,27.122C13.441,27.684 14.204,28 15,28L33,28C33.796,28 34.559,27.684 35.121,27.122C35.684,26.559 36,25.796 36,25C36,24.205 35.684,23.442 35.121,22.879C34.559,22.317 33.796,22 33,22Z" fill="#374957"/>
</svg>
