<svg width="48" height="48" viewBox="0 0 48 48" fill="none" xmlns="http://www.w3.org/2000/svg" xmlns:xlink="http://www.w3.org/1999/xlink">
<path d="M24,0C19.253,0 14.613,1.408 10.666,4.045C6.72,6.682 3.643,10.43 1.827,14.816C0.01,19.201 -0.465,24.027 0.461,28.682C1.387,33.338 3.673,37.614 7.029,40.971C10.386,44.327 14.662,46.613 19.318,47.539C23.973,48.465 28.799,47.99 33.184,46.173C37.57,44.357 41.318,41.28 43.955,37.334C46.592,33.387 48,28.747 48,24C47.993,17.637 45.462,11.536 40.963,7.037C36.464,2.538 30.363,0.007 24,0L24,0ZM24,42C20.44,42 16.96,40.944 14,38.966C11.04,36.989 8.733,34.177 7.37,30.888C6.008,27.599 5.651,23.98 6.346,20.488C7.04,16.997 8.755,13.789 11.272,11.272C13.789,8.755 16.997,7.04 20.488,6.346C23.98,5.651 27.599,6.008 30.888,7.37C34.177,8.733 36.989,11.04 38.966,14C40.944,16.96 42,20.44 42,24C41.995,28.772 40.097,33.348 36.722,36.722C33.348,40.097 28.772,41.995 24,42L24,42Z" fill="#374957"/>
<path d="M21,22.11L16.2,25.11C15.866,25.319 15.576,25.592 15.348,25.913C15.119,26.234 14.956,26.597 14.868,26.981C14.78,27.365 14.768,27.763 14.834,28.152C14.899,28.54 15.041,28.912 15.25,29.246L15.25,29.246C15.459,29.58 15.732,29.87 16.053,30.098C16.374,30.327 16.737,30.49 17.121,30.578C17.505,30.666 17.903,30.678 18.292,30.612C18.68,30.547 19.052,30.405 19.386,30.196L25.124,26.596C25.7,26.235 26.174,25.734 26.502,25.139C26.831,24.544 27.002,23.875 27,23.196L27,15.544C27,14.748 26.684,13.985 26.121,13.423C25.559,12.86 24.796,12.544 24,12.544L24,12.544C23.204,12.544 22.441,12.86 21.879,13.423C21.316,13.985 21,14.748 21,15.544L21,22.11Z" fill="#374957"/>
</svg>
