<svg width="50" height="50" viewBox="0 0 50 50" fill="none" xmlns="http://www.w3.org/2000/svg" xmlns:xlink="http://www.w3.org/1999/xlink">
<path d="M14.586,4.182L11.506,7.264L5.12,0.878C4.554,0.332 3.797,0.029 3.01,0.036C2.223,0.043 1.471,0.359 0.915,0.915C0.359,1.471 0.043,2.223 0.036,3.01C0.029,3.797 0.332,4.554 0.878,5.12L7.264,11.506L4.182,14.586C3.902,14.866 3.712,15.223 3.635,15.611C3.558,15.999 3.598,16.402 3.75,16.767C3.902,17.133 4.158,17.445 4.488,17.665C4.817,17.884 5.204,18.001 5.6,18L15.128,18C15.89,18 16.62,17.698 17.159,17.159C17.698,16.62 18,15.89 18,15.128L18,5.6C18.001,5.204 17.884,4.817 17.665,4.488C17.445,4.158 17.133,3.902 16.767,3.75C16.402,3.598 15.999,3.558 15.611,3.635C15.223,3.712 14.866,3.902 14.586,4.182L14.586,4.182Z" fill="#374957"/>
<path d="M33.414,43.818L36.494,40.736L42.88,47.122C43.157,47.408 43.488,47.637 43.854,47.794C44.22,47.952 44.613,48.034 45.012,48.038C45.41,48.041 45.805,47.965 46.174,47.814C46.543,47.664 46.877,47.441 47.159,47.159C47.441,46.877 47.664,46.543 47.814,46.174C47.965,45.805 48.041,45.41 48.038,45.012C48.034,44.613 47.951,44.22 47.794,43.854C47.637,43.488 47.408,43.157 47.122,42.88L40.736,36.494L43.818,33.414C44.098,33.134 44.288,32.777 44.365,32.389C44.442,32.001 44.402,31.598 44.251,31.233C44.099,30.867 43.842,30.555 43.512,30.336C43.183,30.116 42.796,29.999 42.4,30L32.872,30C32.11,30 31.38,30.303 30.841,30.841C30.303,31.38 30,32.11 30,32.872L30,42.4C29.999,42.796 30.116,43.183 30.336,43.512C30.555,43.842 30.867,44.099 31.233,44.251C31.598,44.402 32.001,44.442 32.389,44.365C32.777,44.288 33.134,44.098 33.414,43.818Z" fill="#374957"/>
<path d="M4.182,33.414L7.264,36.494L0.878,42.88C0.591,43.157 0.363,43.488 0.205,43.854C0.048,44.22 -0.035,44.613 -0.038,45.012C-0.041,45.41 0.034,45.805 0.185,46.174C0.336,46.543 0.559,46.877 0.841,47.159C1.122,47.441 1.457,47.664 1.826,47.814C2.195,47.965 2.59,48.041 2.988,48.038C3.386,48.034 3.78,47.952 4.146,47.794C4.512,47.637 4.843,47.408 5.12,47.122L11.506,40.736L14.586,43.818C14.866,44.098 15.222,44.288 15.611,44.365C15.999,44.442 16.401,44.402 16.767,44.251C17.132,44.099 17.445,43.842 17.664,43.512C17.884,43.183 18,42.796 18,42.4L18,32.872C18,32.11 17.697,31.38 17.159,30.841C16.62,30.303 15.889,30 15.128,30L5.6,30C5.204,29.999 4.817,30.116 4.487,30.336C4.158,30.555 3.901,30.867 3.749,31.233C3.597,31.598 3.557,32.001 3.634,32.389C3.711,32.777 3.902,33.134 4.182,33.414L4.182,33.414Z" fill="#374957"/>
<path d="M43.818,14.586L40.736,11.506L47.122,5.12C47.408,4.843 47.637,4.512 47.794,4.146C47.951,3.78 48.034,3.386 48.038,2.988C48.041,2.59 47.965,2.195 47.814,1.826C47.664,1.457 47.441,1.122 47.159,0.841C46.877,0.559 46.543,0.336 46.174,0.185C45.805,0.034 45.41,-0.041 45.012,-0.038C44.613,-0.035 44.22,0.048 43.854,0.205C43.488,0.363 43.157,0.591 42.88,0.878L36.494,7.264L33.414,4.182C33.134,3.902 32.777,3.711 32.389,3.634C32.001,3.557 31.598,3.597 31.233,3.749C30.867,3.901 30.555,4.158 30.336,4.487C30.116,4.817 29.999,5.204 30,5.6L30,15.128C30,15.889 30.303,16.62 30.841,17.159C31.38,17.697 32.11,18 32.872,18L42.4,18C42.796,18 43.183,17.884 43.512,17.664C43.842,17.445 44.099,17.132 44.251,16.767C44.402,16.401 44.442,15.999 44.365,15.611C44.288,15.222 44.098,14.866 43.818,14.586Z" fill="#374957"/>
</svg>
