<svg width="48" height="48" viewBox="0 0 48 48" fill="none" xmlns="http://www.w3.org/2000/svg" xmlns:xlink="http://www.w3.org/1999/xlink">
<path d="M37,0L26,0C25.204,0 24.441,0.316 23.878,0.879C23.316,1.441 23,2.204 23,3C23,3.796 23.316,4.559 23.878,5.121C24.441,5.684 25.204,6 26,6L37,6C37.23,6.007 37.46,6.03 37.688,6.07L0.888,42.87C0.325,43.433 0.009,44.196 0.009,44.992C0.009,45.788 0.325,46.551 0.888,47.114C1.451,47.677 2.214,47.993 3.01,47.993C3.806,47.993 4.569,47.677 5.132,47.114L41.932,10.314C41.971,10.541 41.993,10.77 42,11L42,22C42,22.796 42.316,23.559 42.878,24.121C43.441,24.684 44.204,25 45,25C45.795,25 46.558,24.684 47.121,24.121C47.684,23.559 48,22.796 48,22L48,11C47.996,8.084 46.836,5.288 44.774,3.226C42.712,1.164 39.916,0.004 37,0L37,0Z" fill="#374957"/>
<path d="M13,22C14.78,22 16.52,21.472 18,20.483C19.48,19.494 20.634,18.089 21.315,16.444C21.996,14.8 22.174,12.99 21.827,11.244C21.48,9.498 20.623,7.895 19.364,6.636C18.105,5.377 16.502,4.52 14.756,4.173C13.01,3.826 11.2,4.004 9.556,4.685C7.911,5.366 6.506,6.52 5.517,8C4.528,9.48 4,11.22 4,13C4.003,15.386 4.952,17.674 6.639,19.361C8.326,21.048 10.614,21.997 13,22L13,22ZM13,10C13.593,10 14.173,10.176 14.667,10.506C15.16,10.835 15.545,11.304 15.772,11.852C15.999,12.4 16.058,13.003 15.942,13.585C15.827,14.167 15.541,14.702 15.121,15.121C14.702,15.541 14.167,15.827 13.585,15.942C13.003,16.058 12.4,15.999 11.852,15.772C11.304,15.545 10.835,15.16 10.506,14.667C10.176,14.173 10,13.593 10,13C10,12.204 10.316,11.441 10.879,10.879C11.441,10.316 12.204,10 13,10L13,10Z" fill="#374957"/>
<path d="M35,26C33.22,26 31.48,26.527 30,27.516C28.52,28.505 27.366,29.911 26.685,31.555C26.004,33.2 25.826,35.009 26.173,36.755C26.52,38.501 27.377,40.105 28.636,41.363C29.895,42.622 31.498,43.479 33.244,43.827C34.99,44.174 36.8,43.996 38.444,43.314C40.089,42.633 41.494,41.48 42.483,40C43.472,38.52 44,36.78 44,34.999C43.997,32.613 43.048,30.326 41.361,28.638C39.674,26.951 37.386,26.002 35,26ZM35,37.999C34.407,37.999 33.827,37.824 33.333,37.494C32.84,37.164 32.455,36.696 32.228,36.148C32.001,35.599 31.942,34.996 32.058,34.414C32.173,33.832 32.459,33.298 32.879,32.878C33.298,32.459 33.833,32.173 34.415,32.057C34.997,31.941 35.6,32.001 36.148,32.228C36.696,32.455 37.165,32.839 37.494,33.333C37.824,33.826 38,34.406 38,34.999C38,35.795 37.684,36.558 37.121,37.121C36.559,37.683 35.796,37.999 35,37.999Z" fill="#374957"/>
</svg>
