<svg width="50" height="50" viewBox="0 0 50 50" fill="none" xmlns="http://www.w3.org/2000/svg" xmlns:xlink="http://www.w3.org/1999/xlink">
<path d="M2.312,6.333L3.312,8.333C3.685,9.01 4.306,9.517 5.044,9.747C5.782,9.978 6.581,9.914 7.274,9.57C7.966,9.226 8.499,8.628 8.761,7.9C9.023,7.172 8.994,6.372 8.68,5.665L7.68,3.665C7.515,3.295 7.278,2.962 6.981,2.687C6.685,2.411 6.336,2.198 5.955,2.061C5.574,1.924 5.169,1.865 4.765,1.889C4.361,1.912 3.966,2.017 3.603,2.197C3.241,2.377 2.918,2.629 2.656,2.937C2.393,3.245 2.196,3.603 2.075,3.99C1.954,4.376 1.913,4.783 1.954,5.186C1.994,5.588 2.116,5.979 2.312,6.333L2.312,6.333Z" fill="#374957"/>
<path d="M22.322,3.649L21.322,5.649C21.133,6.002 21.016,6.389 20.979,6.788C20.942,7.187 20.984,7.589 21.105,7.97C21.225,8.352 21.421,8.706 21.681,9.011C21.94,9.316 22.258,9.566 22.615,9.746C22.973,9.926 23.363,10.033 23.762,10.06C24.162,10.088 24.563,10.035 24.941,9.904C25.32,9.774 25.669,9.569 25.967,9.302C26.265,9.035 26.507,8.711 26.678,8.349L27.678,6.349C27.867,5.996 27.984,5.609 28.021,5.211C28.059,4.812 28.016,4.41 27.895,4.028C27.775,3.646 27.579,3.292 27.32,2.987C27.06,2.682 26.742,2.433 26.385,2.252C26.027,2.072 25.637,1.965 25.238,1.938C24.838,1.911 24.438,1.964 24.059,2.094C23.68,2.224 23.332,2.429 23.033,2.696C22.735,2.963 22.493,3.287 22.322,3.649L22.322,3.649Z" fill="#374957"/>
<path d="M12,3L12,5C12,5.796 12.316,6.559 12.879,7.121C13.441,7.684 14.204,8 15,8C15.796,8 16.559,7.684 17.121,7.121C17.684,6.559 18,5.796 18,5L18,3C18,2.204 17.684,1.441 17.121,0.879C16.559,0.316 15.796,0 15,0C14.204,0 13.441,0.316 12.879,0.879C12.316,1.441 12,2.204 12,3L12,3Z" fill="#374957"/>
<path d="M32,16C28.286,15.996 24.687,17.291 21.826,19.66C20.995,19.23 20.124,18.88 19.226,18.616L20.698,15.67C21.092,14.88 21.168,13.969 20.913,13.124C20.657,12.28 20.088,11.565 19.322,11.126C18.008,10.371 16.516,9.983 15,10C13.378,9.98 11.784,10.428 10.41,11.292C9.721,11.756 9.227,12.457 9.021,13.263C8.816,14.068 8.915,14.92 9.298,15.658L10.778,18.616C8.697,19.219 6.771,20.267 5.133,21.686C3.495,23.106 2.185,24.863 1.291,26.838C0.398,28.812 -0.057,30.957 -0.043,33.124C-0.028,35.291 0.456,37.429 1.377,39.391C2.297,41.354 3.631,43.093 5.288,44.49C6.945,45.887 8.885,46.908 10.975,47.484C13.064,48.059 15.253,48.175 17.392,47.823C19.53,47.471 21.567,46.66 23.362,45.446C25.454,46.795 27.831,47.637 30.306,47.906C32.78,48.175 35.283,47.863 37.616,46.995C39.948,46.126 42.046,44.726 43.742,42.905C45.439,41.084 46.687,38.892 47.387,36.503C48.088,34.115 48.222,31.596 47.778,29.147C47.334,26.698 46.325,24.387 44.832,22.396C43.338,20.405 41.4,18.791 39.172,17.68C36.945,16.57 34.489,15.994 32,16ZM6,33C6.003,30.613 6.952,28.326 8.639,26.639C10.327,24.951 12.614,24.002 15,24C15.979,24.011 16.948,24.184 17.87,24.512C16.492,27.099 15.854,30.017 16.028,32.943C16.202,35.87 17.181,38.692 18.856,41.098C17.655,41.684 16.337,41.993 15,42C12.614,41.997 10.327,41.048 8.639,39.361C6.952,37.673 6.003,35.386 6,33L6,33ZM32,42C30.501,41.992 29.024,41.642 27.68,40.978C29.356,38.336 30.159,35.235 29.975,32.112C29.791,28.99 28.63,26.004 26.656,23.578C27.965,22.746 29.45,22.231 30.993,22.072C32.535,21.913 34.094,22.116 35.544,22.664C36.995,23.212 38.298,24.091 39.351,25.23C40.403,26.369 41.176,27.737 41.608,29.226C42.04,30.716 42.12,32.285 41.84,33.811C41.56,35.336 40.929,36.775 39.997,38.015C39.065,39.254 37.857,40.259 36.469,40.951C35.081,41.643 33.551,42.002 32,42L32,42Z" fill="#374957"/>
</svg>
