<svg width="40" height="42" viewBox="0 0 40 42" fill="none" xmlns="http://www.w3.org/2000/svg" xmlns:xlink="http://www.w3.org/1999/xlink">
<path d="M20.002,0.035C15.554,0.04 11.29,1.809 8.145,4.954C5,8.1 3.231,12.364 3.227,16.811C3.227,25.601 16.837,37.36 18.393,38.673L20.005,40.035L21.617,38.673C23.17,37.36 36.783,25.601 36.783,16.811C36.778,12.363 35.009,8.097 31.862,4.952C28.716,1.807 24.45,0.038 20.002,0.035L20.002,0.035ZM20.002,33.44C14.893,28.786 8.223,21.226 8.223,16.811C8.223,13.688 9.464,10.692 11.673,8.483C13.882,6.274 16.878,5.033 20.002,5.033C23.125,5.033 26.121,6.274 28.33,8.483C30.539,10.692 31.78,13.688 31.78,16.811C31.78,21.218 25.108,28.781 20.002,33.44Z" fill="#EE6611"/>
<path d="M19.999,21.664C22.758,21.664 24.994,19.428 24.994,16.669C24.994,13.911 22.758,11.674 19.999,11.674C17.24,11.674 15.004,13.911 15.004,16.669C15.004,19.428 17.24,21.664 19.999,21.664Z" fill="#EE6611"/>
</svg>
