<svg width="48" height="48" viewBox="0 0 48 48" fill="none" xmlns="http://www.w3.org/2000/svg" xmlns:xlink="http://www.w3.org/1999/xlink">
<path d="M1.824,21.201L20.4,32.339C21.487,32.993 22.732,33.338 24,33.338C25.269,33.338 26.513,32.993 27.6,32.339L46.176,21.201C46.728,20.87 47.184,20.402 47.501,19.843C47.818,19.284 47.984,18.652 47.984,18.009C47.984,17.366 47.818,16.734 47.501,16.175C47.184,15.615 46.728,15.148 46.176,14.817L27.6,3.663C26.514,3.008 25.269,2.663 24,2.663C22.732,2.663 21.487,3.008 20.4,3.663L20.4,3.663L1.824,14.801C1.273,15.132 0.817,15.599 0.5,16.159C0.183,16.718 0.017,17.35 0.017,17.993C0.017,18.636 0.183,19.268 0.5,19.827C0.817,20.386 1.273,20.854 1.824,21.185L1.824,21.201ZM23.486,8.801C23.642,8.708 23.819,8.659 24,8.659C24.181,8.659 24.359,8.708 24.514,8.801L39.836,18.001L24.514,27.201C24.359,27.294 24.181,27.343 24,27.343C23.819,27.343 23.642,27.294 23.486,27.201L8.164,18.001L23.486,8.801Z" fill="#374957"/>
<path d="M26.572,37.662C25.795,38.128 24.906,38.374 24,38.374C23.094,38.374 22.205,38.128 21.428,37.662L4.544,27.532C4.089,27.259 3.569,27.111 3.038,27.104C2.507,27.097 1.984,27.232 1.522,27.493C1.06,27.755 0.676,28.134 0.408,28.593C0.141,29.052 0,29.573 0,30.104L0,30.104C0,30.622 0.134,31.131 0.389,31.582C0.644,32.032 1.012,32.409 1.456,32.676L18.34,42.8C20.049,43.828 22.006,44.372 24,44.372C25.994,44.372 27.951,43.828 29.66,42.8L46.544,32.67C46.987,32.404 47.354,32.028 47.609,31.578C47.864,31.129 47.999,30.621 48,30.104C48,29.573 47.859,29.052 47.592,28.593C47.324,28.134 46.94,27.755 46.478,27.493C46.016,27.232 45.493,27.097 44.962,27.104C44.431,27.111 43.911,27.259 43.456,27.532L26.572,37.662Z" fill="#374957"/>
</svg>
