<svg width="48" height="48" viewBox="0 0 48 48" fill="none" xmlns="http://www.w3.org/2000/svg" xmlns:xlink="http://www.w3.org/1999/xlink">
<path d="M43.242,38.999L47.122,35.121C47.685,34.558 48.001,33.795 48.001,32.999C48.001,32.203 47.685,31.44 47.122,30.877C46.559,30.314 45.796,29.998 45,29.998C44.204,29.998 43.441,30.314 42.878,30.877L39,34.757L35.122,30.877C34.559,30.314 33.796,29.998 33,29.998C32.204,29.998 31.441,30.314 30.878,30.877C30.315,31.44 29.999,32.203 29.999,32.999C29.999,33.795 30.315,34.558 30.878,35.121L34.758,38.999L30.878,42.877C30.315,43.44 29.999,44.203 29.999,44.999C29.999,45.795 30.315,46.558 30.878,47.121C31.441,47.684 32.204,48 33,48C33.796,48 34.559,47.684 35.122,47.121L39,43.241L42.878,47.121C43.441,47.684 44.204,48 45,48C45.796,48 46.559,47.684 47.122,47.121C47.685,46.558 48.001,45.795 48.001,44.999C48.001,44.203 47.685,43.44 47.122,42.877L43.242,38.999Z" fill="#374957"/>
<path d="M23.14,41.979C19.657,41.813 16.298,40.638 13.47,38.598C10.642,36.558 8.467,33.741 7.211,30.489C5.954,27.236 5.668,23.689 6.389,20.278C7.111,16.866 8.807,13.738 11.272,11.272C13.738,8.806 16.866,7.11 20.278,6.389C23.689,5.668 27.237,5.953 30.489,7.21C33.741,8.467 36.559,10.642 38.599,13.469C40.638,16.297 41.813,19.657 41.98,23.139C42.017,23.935 42.369,24.683 42.957,25.22C43.546,25.756 44.324,26.037 45.12,25.999C45.915,25.962 46.664,25.611 47.2,25.022C47.736,24.433 48.017,23.655 47.98,22.859C47.759,18.215 46.194,13.735 43.475,9.964C40.756,6.192 37,3.292 32.664,1.615C28.328,-0.063 23.597,-0.444 19.048,0.517C14.499,1.477 10.327,3.738 7.039,7.026C3.751,10.313 1.488,14.484 0.526,19.033C-0.436,23.582 -0.056,28.312 1.62,32.649C3.296,36.986 6.195,40.743 9.966,43.463C13.736,46.183 18.216,47.749 22.86,47.971L23.002,47.971C23.797,47.99 24.568,47.691 25.143,47.141C25.719,46.592 26.052,45.836 26.071,45.04C26.089,44.245 25.791,43.474 25.241,42.899C24.691,42.323 23.935,41.99 23.14,41.971L23.14,41.979Z" fill="#374957"/>
<path d="M24,12C23.204,12 22.441,12.316 21.879,12.879C21.316,13.441 21,14.204 21,15L21,22.11L16.2,25.11C15.866,25.319 15.576,25.592 15.348,25.913C15.119,26.234 14.956,26.597 14.868,26.981C14.78,27.365 14.768,27.763 14.834,28.152C14.899,28.54 15.041,28.912 15.25,29.246C15.459,29.58 15.732,29.87 16.053,30.098C16.374,30.327 16.737,30.49 17.121,30.578C17.505,30.666 17.903,30.678 18.292,30.612C18.68,30.547 19.052,30.405 19.386,30.196L25.124,26.596C25.7,26.235 26.174,25.734 26.502,25.139C26.831,24.544 27.002,23.875 27,23.196L27,15C27,14.204 26.684,13.441 26.121,12.879C25.559,12.316 24.796,12 24,12L24,12Z" fill="#374957"/>
</svg>
