<svg width="48" height="50" viewBox="0 0 48 50" fill="none" xmlns="http://www.w3.org/2000/svg" xmlns:xlink="http://www.w3.org/1999/xlink">
<path d="M4,28C3.995,31.828 5.09,35.578 7.153,38.803C9.217,42.028 12.162,44.592 15.64,46.193C19.118,47.793 22.982,48.361 26.774,47.83C30.565,47.299 34.125,45.691 37.029,43.197C39.934,40.703 42.062,37.428 43.16,33.76C44.258,30.092 44.28,26.187 43.224,22.507C42.168,18.827 40.078,15.527 37.202,13C34.326,10.473 30.785,8.824 27,8.25L27,6L29,6C29.796,6 30.559,5.684 31.121,5.121C31.684,4.559 32,3.796 32,3C32,2.204 31.684,1.441 31.121,0.879C30.559,0.316 29.796,0 29,0L19,0C18.204,0 17.441,0.316 16.879,0.879C16.316,1.441 16,2.204 16,3C16,3.796 16.316,4.559 16.879,5.121C17.441,5.684 18.204,6 19,6L21,6L21,8.25C16.275,8.969 11.963,11.356 8.845,14.979C5.727,18.601 4.008,23.22 4,28L4,28ZM18.334,40.8L18.334,33.368C15.723,33.122 13.135,32.67 10.594,32.018C9.801,29.396 9.801,26.598 10.594,23.976C13.134,23.327 15.722,22.878 18.332,22.632L18.332,15.21C20.114,14.412 22.045,14 23.998,14C25.951,14 27.882,14.412 29.664,15.21L29.664,22.63C32.276,22.877 34.864,23.33 37.404,23.984C38.197,26.606 38.197,29.404 37.404,32.026C34.863,32.673 32.276,33.122 29.666,33.368L29.666,40.8C27.884,41.598 25.953,42.01 24,42.01C22.047,42.01 20.116,41.598 18.334,40.8L18.334,40.8Z" fill="#374957"/>
<path d="M29.666,33.367L29.666,22.629C27.79,22.443 25.866,22.333 24,22.333C22.134,22.333 20.21,22.445 18.334,22.631L18.334,33.367C20.21,33.555 22.134,33.665 24,33.665C25.866,33.665 27.8,33.555 29.666,33.367Z" fill="#374957"/>
</svg>
