<svg width="40" height="42" viewBox="0 0 40 42" fill="none" xmlns="http://www.w3.org/2000/svg" xmlns:xlink="http://www.w3.org/1999/xlink">
<path d="M19,0.035C14.552,0.04 10.288,1.809 7.143,4.954C3.998,8.1 2.229,12.364 2.225,16.811C2.225,25.601 15.835,37.36 17.391,38.673L19.003,40.035L20.615,38.673C22.168,37.36 35.781,25.601 35.781,16.811C35.776,12.363 34.007,8.097 30.86,4.952C27.714,1.807 23.448,0.038 19,0.035L19,0.035ZM19,33.44C13.891,28.786 7.221,21.226 7.221,16.811C7.221,13.688 8.462,10.692 10.671,8.483C12.88,6.274 15.876,5.033 19,5.033C22.123,5.033 25.119,6.274 27.328,8.483C29.537,10.692 30.778,13.688 30.778,16.811C30.778,21.218 24.106,28.781 19,33.44Z" fill="#EE6611"/>
<path d="M19.001,21.664C21.759,21.664 23.996,19.428 23.996,16.669C23.996,13.911 21.759,11.674 19.001,11.674C16.242,11.674 14.006,13.911 14.006,16.669C14.006,19.428 16.242,21.664 19.001,21.664Z" fill="#EE6611"/>
</svg>
