<svg width="48" height="48" viewBox="0 0 48 48" fill="none" xmlns="http://www.w3.org/2000/svg" xmlns:xlink="http://www.w3.org/1999/xlink">
<path d="M11,42C9.674,42 8.402,41.473 7.464,40.536C6.527,39.598 6,38.326 6,37L6,3C6,2.204 5.684,1.441 5.121,0.879C4.559,0.316 3.796,0 3,0L3,0C2.204,0 1.441,0.316 0.879,0.879C0.316,1.441 0,2.204 0,3L0,37C0,39.917 1.159,42.715 3.222,44.778C5.285,46.841 8.083,48 11,48L45,48C45.796,48 46.559,47.684 47.121,47.121C47.684,46.559 48,45.796 48,45C48,44.204 47.684,43.441 47.121,42.879C46.559,42.316 45.796,42 45,42L11,42Z" fill="#374957"/>
<path d="M39,36C39.796,36 40.559,35.684 41.121,35.121C41.684,34.559 42,33.796 42,33L42,21C42,20.204 41.684,19.441 41.121,18.879C40.559,18.316 39.796,18 39,18C38.204,18 37.441,18.316 36.879,18.879C36.316,19.441 36,20.204 36,21L36,33C36,33.796 36.316,34.559 36.879,35.121C37.441,35.684 38.204,36 39,36Z" fill="#374957"/>
<path d="M15,36C15.796,36 16.559,35.684 17.121,35.121C17.684,34.559 18,33.796 18,33L18,21C18,20.204 17.684,19.441 17.121,18.879C16.559,18.316 15.796,18 15,18C14.204,18 13.441,18.316 12.879,18.879C12.316,19.441 12,20.204 12,21L12,33C12,33.796 12.316,34.559 12.879,35.121C13.441,35.684 14.204,36 15,36Z" fill="#374957"/>
<path d="M27,35.999C27.796,35.999 28.559,35.683 29.121,35.12C29.684,34.558 30,33.794 30,32.999L30,10.999C30,10.203 29.684,9.44 29.121,8.877C28.559,8.315 27.796,7.999 27,7.999C26.204,7.999 25.441,8.315 24.879,8.877C24.316,9.44 24,10.203 24,10.999L24,32.999C24,33.794 24.316,34.558 24.879,35.12C25.441,35.683 26.204,35.999 27,35.999Z" fill="#374957"/>
</svg>
