<svg width="48" height="50" viewBox="0 0 48 50" fill="none" xmlns="http://www.w3.org/2000/svg" xmlns:xlink="http://www.w3.org/1999/xlink">
<path d="M13,25.999L3,25.999C2.204,25.999 1.441,25.683 0.879,25.12C0.316,24.557 0,23.794 0,22.999C0,22.203 0.316,21.44 0.879,20.877C1.441,20.315 2.204,19.999 3,19.999L13,19.999C13.796,19.999 14.559,20.315 15.121,20.877C15.684,21.44 16,22.203 16,22.999C16,23.794 15.684,24.557 15.121,25.12C14.559,25.683 13.796,25.999 13,25.999Z" fill="#374957"/>
<path d="M37,26.002L23,26.002C22.204,26.002 21.441,25.686 20.879,25.123C20.316,24.56 20,23.797 20,23.002C20,22.206 20.316,21.443 20.879,20.88C21.441,20.318 22.204,20.002 23,20.002L37,20.002C37.662,20.002 38.317,19.87 38.928,19.615C39.539,19.36 40.093,18.986 40.558,18.515C41.023,18.044 41.39,17.485 41.638,16.871C41.885,16.257 42.008,15.6 42,14.938C41.975,14.009 41.632,13.118 41.03,12.412C40.427,11.705 39.601,11.227 38.688,11.056C38.113,10.955 37.522,10.982 36.959,11.134C36.395,11.286 35.871,11.56 35.424,11.936C34.977,12.312 34.618,12.781 34.372,13.311C34.126,13.841 33.999,14.418 34,15.002C34,15.797 33.684,16.56 33.121,17.123C32.559,17.686 31.796,18.002 31,18.002C25.466,17.366 28.644,9.552 31.52,7.386C32.965,6.156 34.731,5.362 36.61,5.098C38.489,4.834 40.405,5.111 42.133,5.895C43.861,6.679 45.331,7.939 46.369,9.527C47.408,11.115 47.974,12.966 48,14.864C48.018,16.32 47.747,17.765 47.203,19.116C46.658,20.466 45.851,21.695 44.827,22.731C43.804,23.767 42.585,24.59 41.242,25.151C39.898,25.713 38.456,26.002 37,26.002Z" fill="#374957"/>
<path d="M14,16L3,16C2.204,16 1.441,15.683 0.879,15.121C0.316,14.558 0,13.795 0,13C0,12.204 0.316,11.441 0.879,10.878C1.441,10.316 2.204,10 3,10L14,10C14.481,10.02 14.955,9.878 15.345,9.596C15.735,9.314 16.019,8.909 16.15,8.446C16.207,8.159 16.199,7.864 16.127,7.581C16.055,7.298 15.921,7.034 15.734,6.81C15.506,6.592 15.236,6.423 14.94,6.314C14.645,6.205 14.33,6.157 14.015,6.173C13.7,6.19 13.392,6.27 13.11,6.41C12.827,6.55 12.576,6.745 12.372,6.986C12.125,7.297 11.819,7.557 11.472,7.749C11.124,7.941 10.742,8.063 10.347,8.106C9.952,8.149 9.552,8.114 9.171,8.001C8.79,7.889 8.435,7.702 8.126,7.451C7.818,7.2 7.563,6.891 7.375,6.54C7.188,6.19 7.071,5.806 7.033,5.411C6.995,5.015 7.036,4.616 7.154,4.236C7.271,3.857 7.463,3.504 7.718,3.2C8.475,2.267 9.427,1.511 10.507,0.984C11.588,0.457 12.77,0.173 13.971,0.151C15.172,0.129 16.364,0.37 17.463,0.856C18.562,1.343 19.541,2.063 20.332,2.968C21.081,3.867 21.623,4.919 21.919,6.051C22.216,7.183 22.26,8.367 22.048,9.518C21.678,11.37 20.67,13.033 19.199,14.218C17.728,15.402 15.888,16.033 14,16L14,16Z" fill="#374957"/>
<path d="M31.17,48.014C29.752,48.01 28.353,47.694 27.071,47.089C25.789,46.483 24.656,45.603 23.752,44.51C23.502,44.205 23.316,43.854 23.202,43.477C23.088,43.099 23.05,42.703 23.089,42.311C23.128,41.919 23.244,41.538 23.431,41.191C23.617,40.844 23.87,40.537 24.175,40.287C24.48,40.038 24.831,39.851 25.209,39.737C25.586,39.623 25.982,39.585 26.374,39.624C27.166,39.704 27.894,40.094 28.398,40.71C28.708,41.074 29.089,41.37 29.518,41.58C29.947,41.789 30.415,41.908 30.892,41.929C31.369,41.95 31.846,41.871 32.291,41.7C32.737,41.528 33.142,41.266 33.482,40.93C33.769,40.586 33.976,40.182 34.088,39.747C34.199,39.312 34.212,38.859 34.126,38.418C33.945,37.703 33.523,37.072 32.931,36.631C32.339,36.19 31.613,35.967 30.876,35.998L3,35.998C2.204,35.998 1.441,35.682 0.879,35.12C0.316,34.557 0,33.794 0,32.998C0,32.203 0.316,31.44 0.879,30.877C1.441,30.314 2.204,29.998 3,29.998L30.876,29.998C33.022,29.957 35.115,30.67 36.788,32.015C38.461,33.36 39.609,35.249 40.03,37.354C40.272,38.655 40.225,39.993 39.891,41.274C39.558,42.554 38.946,43.745 38.101,44.763C37.255,45.78 36.196,46.599 34.998,47.161C33.8,47.723 32.493,48.014 31.17,48.014L31.17,48.014Z" fill="#374957"/>
</svg>
