<svg width="48" height="48" viewBox="0 0 48 48" fill="none" xmlns="http://www.w3.org/2000/svg" xmlns:xlink="http://www.w3.org/1999/xlink">
<path d="M36.828,15.8L36.828,19.172C36.828,19.567 36.945,19.954 37.165,20.283C37.385,20.612 37.697,20.868 38.063,21.019C38.428,21.171 38.83,21.21 39.218,21.133C39.606,21.056 39.962,20.866 40.242,20.586L47.414,13.414C47.789,13.039 47.999,12.53 47.999,12C47.999,11.47 47.789,10.961 47.414,10.586L40.242,3.414C39.962,3.134 39.606,2.944 39.218,2.867C38.83,2.79 38.428,2.829 38.063,2.981C37.697,3.132 37.385,3.388 37.165,3.717C36.945,4.046 36.828,4.432 36.828,4.828L36.828,9.628C30.128,11.092 25.628,15.19 21.808,19.45C17.436,14.632 12.16,10.042 3.66,9.172C3.568,9.152 3.038,9.094 3,9.094C2.228,9.095 1.486,9.395 0.929,9.929C0.372,10.463 0.042,11.192 0.009,11.963C-0.025,12.734 0.24,13.488 0.748,14.069C1.256,14.65 1.969,15.013 2.738,15.082L2.738,15.082C9.666,15.682 13.738,19.4 17.836,23.998C13.744,28.598 9.662,32.33 2.732,32.922C1.97,33 1.267,33.367 0.767,33.947C0.267,34.526 0.008,35.276 0.042,36.04C0.076,36.805 0.402,37.528 0.951,38.061C1.501,38.594 2.234,38.896 3,38.906C3.076,38.906 3.146,38.906 3.222,38.89C13.68,38 19.298,31.506 24.296,25.72C28.118,21.3 31.584,17.4 36.828,15.8Z" fill="#374957"/>
<path d="M40.242,27.414C39.962,27.134 39.606,26.944 39.218,26.867C38.83,26.79 38.428,26.829 38.063,26.981C37.697,27.132 37.385,27.388 37.165,27.717C36.945,28.046 36.828,28.432 36.828,28.828L36.828,32.228C34.261,31.416 31.904,30.051 29.924,28.228C29.335,27.725 28.57,27.475 27.797,27.534C27.024,27.593 26.306,27.955 25.8,28.542L25.75,28.598C25.493,28.896 25.297,29.242 25.174,29.616C25.051,29.99 25.004,30.385 25.034,30.778C25.065,31.17 25.173,31.553 25.353,31.903C25.532,32.254 25.779,32.565 26.08,32.82C29.125,35.57 32.826,37.491 36.828,38.4L36.828,43.182C36.828,43.577 36.945,43.964 37.165,44.293C37.385,44.622 37.697,44.878 38.063,45.029C38.428,45.181 38.83,45.22 39.218,45.143C39.606,45.066 39.962,44.876 40.242,44.596L47.414,37.424C47.789,37.049 47.999,36.54 47.999,36.01C47.999,35.48 47.789,34.971 47.414,34.596L40.242,27.414Z" fill="#374957"/>
</svg>
