<svg width="48" height="48" viewBox="0 0 48 48" fill="none" xmlns="http://www.w3.org/2000/svg" xmlns:xlink="http://www.w3.org/1999/xlink">
<path d="M24,0C18.433,0.007 13.095,2.222 9.158,6.158C5.222,10.095 3.007,15.433 3,21C3,26.652 7.4,34.532 16.082,44.418C17.072,45.543 18.291,46.444 19.656,47.062C21.022,47.679 22.503,47.998 24.002,47.998C25.501,47.998 26.982,47.679 28.348,47.062C29.713,46.444 30.932,45.543 31.922,44.418C40.6,34.534 45,26.654 45,21C44.993,15.433 42.778,10.095 38.842,6.158C34.905,2.222 29.567,0.007 24,0L24,0ZM27.412,40.462C26.976,40.931 26.448,41.305 25.861,41.56C25.274,41.816 24.64,41.948 24,41.948C23.36,41.948 22.726,41.816 22.139,41.56C21.552,41.305 21.024,40.931 20.588,40.462C13.222,32.072 8.988,24.978 8.988,21.002C8.988,17.024 10.568,13.208 13.381,10.395C16.194,7.582 20.01,6.002 23.988,6.002C27.966,6.002 31.782,7.582 34.595,10.395C37.408,13.208 38.988,17.024 38.988,21.002C39,24.978 34.778,32.072 27.412,40.462Z" fill="#374957"/>
<path d="M24,12.111C22.275,12.111 20.587,12.623 19.153,13.581C17.718,14.54 16.599,15.903 15.939,17.498C15.278,19.092 15.105,20.847 15.442,22.539C15.779,24.232 16.61,25.787 17.83,27.007C19.051,28.227 20.605,29.058 22.298,29.395C23.991,29.732 25.745,29.559 27.34,28.899C28.934,28.238 30.297,27.12 31.256,25.685C32.215,24.25 32.726,22.563 32.726,20.837C32.724,18.523 31.804,16.305 30.168,14.67C28.532,13.034 26.314,12.113 24,12.111L24,12.111ZM24,23.563C23.461,23.563 22.934,23.403 22.486,23.103C22.038,22.804 21.688,22.378 21.482,21.88C21.276,21.382 21.222,20.834 21.327,20.305C21.432,19.776 21.692,19.29 22.073,18.909C22.454,18.528 22.94,18.268 23.469,18.163C23.997,18.058 24.545,18.112 25.044,18.318C25.542,18.525 25.967,18.874 26.267,19.322C26.567,19.771 26.726,20.298 26.726,20.837C26.726,21.56 26.439,22.253 25.927,22.764C25.416,23.275 24.723,23.562 24,23.563L24,23.563Z" fill="#374957"/>
</svg>
