<svg width="48" height="48" viewBox="0 0 48 48" fill="none" xmlns="http://www.w3.org/2000/svg" xmlns:xlink="http://www.w3.org/1999/xlink">
<path d="M45.118,22.001C44.723,21.979 44.328,22.036 43.956,22.168C43.583,22.301 43.241,22.506 42.949,22.772C42.656,23.039 42.42,23.36 42.254,23.719C42.088,24.078 41.994,24.466 41.98,24.861C41.798,28.939 40.239,32.834 37.558,35.912C34.878,38.99 31.233,41.069 27.219,41.809C23.205,42.55 19.059,41.908 15.457,39.99C11.854,38.071 9.008,34.988 7.383,31.244C5.758,27.5 5.449,23.315 6.507,19.373C7.566,15.431 9.929,11.964 13.211,9.538C16.493,7.111 20.501,5.868 24.58,6.012C28.659,6.156 32.569,7.677 35.672,10.329L33.414,12.587C33.134,12.867 32.944,13.223 32.867,13.611C32.79,13.999 32.829,14.401 32.981,14.766C33.132,15.132 33.388,15.444 33.717,15.664C34.046,15.883 34.432,16.001 34.828,16.001L44,16.001C44.53,16.001 45.039,15.79 45.414,15.415C45.789,15.04 46,14.531 46,14.001L46,4.829C46,4.433 45.883,4.047 45.663,3.718C45.443,3.389 45.131,3.133 44.765,2.982C44.4,2.83 43.998,2.791 43.61,2.868C43.222,2.945 42.866,3.135 42.586,3.415L39.916,6.085C35.846,2.483 30.673,0.37 25.245,0.095C19.817,-0.181 14.457,1.396 10.043,4.568C5.629,7.74 2.425,12.317 0.955,17.549C-0.515,22.782 -0.163,28.359 1.953,33.365C4.07,38.371 7.824,42.509 12.602,45.1C17.379,47.691 22.896,48.582 28.246,47.626C33.596,46.67 38.463,43.924 42.047,39.838C45.631,35.753 47.72,30.57 47.972,25.141C47.991,24.747 47.932,24.354 47.799,23.983C47.665,23.612 47.46,23.271 47.195,22.98C46.93,22.688 46.61,22.452 46.254,22.284C45.898,22.116 45.512,22.02 45.118,22.001L45.118,22.001Z" fill="#374957"/>
<path d="M23,13.999C22.204,13.999 21.441,14.315 20.879,14.877C20.316,15.44 20,16.203 20,16.999L20,25.585C20,26.646 20.422,27.663 21.172,28.413L24.758,31.999C25.324,32.545 26.082,32.848 26.868,32.841C27.655,32.834 28.407,32.518 28.963,31.962C29.52,31.406 29.835,30.654 29.842,29.867C29.849,29.08 29.546,28.323 29,27.757L26,24.757L26,16.999C26,16.203 25.684,15.44 25.121,14.877C24.559,14.315 23.796,13.999 23,13.999L23,13.999Z" fill="#374957"/>
</svg>
