<svg width="48" height="48" viewBox="0 0 48 48" fill="none" xmlns="http://www.w3.org/2000/svg" xmlns:xlink="http://www.w3.org/1999/xlink">
<path d="M18,5C18,8.448 16.63,11.754 14.192,14.192C11.754,16.63 8.448,18 5,18L3,18C2.204,18 1.441,17.684 0.879,17.121C0.316,16.559 0,15.796 0,15C0,14.204 0.316,13.441 0.879,12.879C1.441,12.316 2.204,12 3,12L5,12C6.857,12 8.637,11.262 9.95,9.95C11.263,8.637 12,6.857 12,5L12,3C12,2.204 12.316,1.441 12.879,0.879C13.441,0.316 14.204,0 15,0C15.796,0 16.559,0.316 17.121,0.879C17.684,1.441 18,2.204 18,3L18,5Z" fill="#374957"/>
<path d="M33,48C32.204,48 31.441,47.684 30.879,47.121C30.316,46.559 30,45.796 30,45L30,43C30,39.552 31.37,36.246 33.808,33.808C36.246,31.37 39.552,30 43,30L45,30C45.796,30 46.559,30.316 47.121,30.879C47.684,31.441 48,32.204 48,33C48,33.796 47.684,34.559 47.121,35.121C46.559,35.684 45.796,36 45,36L43,36C41.143,36 39.363,36.738 38.05,38.05C36.737,39.363 36,41.143 36,43L36,45C36,45.796 35.684,46.559 35.121,47.121C34.559,47.684 33.796,48 33,48Z" fill="#374957"/>
<path d="M45,18L43,18C39.552,18 36.246,16.63 33.808,14.192C31.37,11.754 30,8.448 30,5L30,3C30,2.204 30.316,1.441 30.879,0.879C31.441,0.316 32.204,0 33,0C33.796,0 34.559,0.316 35.121,0.879C35.684,1.441 36,2.204 36,3L36,5C36,6.857 36.737,8.637 38.05,9.95C39.363,11.262 41.143,12 43,12L45,12C45.796,12 46.559,12.316 47.121,12.879C47.684,13.441 48,14.204 48,15C48,15.796 47.684,16.559 47.121,17.121C46.559,17.684 45.796,18 45,18Z" fill="#374957"/>
<path d="M15,48C14.204,48 13.441,47.684 12.879,47.121C12.316,46.559 12,45.796 12,45L12,43C12,41.143 11.263,39.363 9.95,38.05C8.637,36.738 6.857,36 5,36L3,36C2.204,36 1.441,35.684 0.879,35.121C0.316,34.559 0,33.796 0,33C0,32.204 0.316,31.441 0.879,30.879C1.441,30.316 2.204,30 3,30L5,30C8.448,30 11.754,31.37 14.192,33.808C16.63,36.246 18,39.552 18,43L18,45C18,45.796 17.684,46.559 17.121,47.121C16.559,47.684 15.796,48 15,48L15,48Z" fill="#374957"/>
</svg>
