<svg width="48" height="48" viewBox="0 0 48 48" fill="none" xmlns="http://www.w3.org/2000/svg" xmlns:xlink="http://www.w3.org/1999/xlink">
<path d="M34,47.999C30.288,47.995 26.73,46.518 24.106,43.894C21.481,41.269 20.005,37.711 20,33.999C20,30.145 22.948,24.839 28.758,18.229C29.417,17.492 30.225,16.901 31.128,16.497C32.031,16.093 33.01,15.884 33.999,15.884C34.988,15.884 35.967,16.093 36.87,16.497C37.773,16.901 38.581,17.492 39.24,18.229C45.052,24.839 48,30.145 48,33.999C47.995,37.711 46.519,41.269 43.894,43.894C41.27,46.518 37.712,47.995 34,47.999L34,47.999ZM34,21.861C33.861,21.86 33.723,21.89 33.596,21.947C33.469,22.004 33.355,22.088 33.264,22.193C27.908,28.283 26,32.285 26,33.999C26,36.121 26.843,38.156 28.343,39.656C29.843,41.157 31.878,41.999 34,41.999C36.122,41.999 38.157,41.157 39.657,39.656C41.157,38.156 42,36.121 42,33.999C42,32.285 40.092,28.283 34.734,22.199C34.643,22.093 34.531,22.008 34.404,21.95C34.277,21.891 34.14,21.861 34,21.861L34,21.861Z" fill="#374957"/>
<path d="M11,24.965C8.084,24.962 5.288,23.802 3.225,21.74C1.163,19.678 0.003,16.882 0,13.965C0,12.349 0.492,9.479 4.75,3.283C5.455,2.281 6.391,1.464 7.479,0.899C8.566,0.335 9.774,0.04 10.999,0.04C12.224,0.04 13.432,0.335 14.519,0.899C15.607,1.464 16.543,2.281 17.248,3.283C21.508,9.479 22,12.349 22,13.965C21.997,16.882 20.837,19.678 18.775,21.74C16.712,23.802 13.916,24.962 11,24.965L11,24.965ZM11,5.999C10.743,5.995 10.488,6.056 10.26,6.175C10.032,6.295 9.838,6.469 9.694,6.683C6.104,11.909 6,13.771 6,13.965C6,15.291 6.527,16.563 7.464,17.501C8.402,18.438 9.674,18.965 11,18.965C12.326,18.965 13.598,18.438 14.536,17.501C15.473,16.563 16,15.291 16,13.965C16,13.765 15.896,11.909 12.304,6.681C12.161,6.468 11.966,6.294 11.738,6.175C11.511,6.056 11.257,5.995 11,5.999Z" fill="#374957"/>
</svg>
