<svg width="50" height="48" viewBox="0 0 50 48" fill="none" xmlns="http://www.w3.org/2000/svg" xmlns:xlink="http://www.w3.org/1999/xlink">
<path d="M44.839,20C42.646,17.022 39.518,14.865 35.955,13.874C34.843,9.799 32.2,6.312 28.578,4.14C24.956,1.969 20.634,1.282 16.517,2.222C14.168,2.759 11.968,3.808 10.073,5.295C8.177,6.781 6.634,8.668 5.552,10.821C4.471,12.973 3.879,15.338 3.818,17.746C3.757,20.154 4.229,22.546 5.201,24.75C3.171,26.083 1.613,28.021 0.747,30.29C-0.118,32.558 -0.248,35.042 0.377,37.388C1.063,39.9 2.569,42.111 4.654,43.671C6.739,45.231 9.285,46.05 11.889,46L17.001,46C17.796,46 18.559,45.684 19.122,45.121C19.685,44.559 20.001,43.796 20.001,43C20.001,42.204 19.685,41.441 19.122,40.879C18.559,40.316 17.796,40 17.001,40L11.889,40C10.624,40.034 9.384,39.654 8.357,38.916C7.329,38.179 6.572,37.125 6.201,35.916C6.006,35.201 5.955,34.454 6.051,33.719C6.147,32.984 6.389,32.275 6.761,31.634C7.133,30.993 7.628,30.432 8.219,29.984C8.809,29.536 9.483,29.21 10.201,29.024C10.677,28.901 11.115,28.663 11.478,28.331C11.84,27.999 12.115,27.583 12.279,27.12C12.443,26.656 12.491,26.16 12.418,25.674C12.345,25.187 12.153,24.727 11.861,24.332C10.902,23.039 10.257,21.541 9.975,19.957C9.694,18.372 9.784,16.744 10.239,15.2C10.739,13.473 11.686,11.908 12.986,10.665C14.286,9.422 15.891,8.545 17.639,8.122C18.467,7.928 19.316,7.829 20.167,7.828C22.417,7.821 24.608,8.553 26.403,9.912C28.604,11.583 30.053,14.058 30.431,16.796C30.516,17.452 30.814,18.062 31.279,18.531C31.745,19.001 32.352,19.305 33.007,19.396C34.391,19.586 35.723,20.051 36.924,20.764C38.125,21.477 39.171,22.424 40.001,23.548C40.828,24.674 41.417,25.956 41.734,27.317C42.05,28.678 42.086,30.089 41.841,31.464C41.587,32.819 41.057,34.108 40.284,35.25C39.511,36.391 38.512,37.362 37.349,38.102C36.933,38.376 36.593,38.749 36.357,39.188C36.122,39.626 35.999,40.116 36.001,40.614L36.001,40.614C35.996,41.156 36.137,41.689 36.409,42.158C36.681,42.627 37.074,43.014 37.546,43.28C38.018,43.545 38.554,43.679 39.095,43.668C39.637,43.656 40.166,43.499 40.627,43.214C42.492,42.016 44.089,40.445 45.316,38.598C46.543,36.752 47.374,34.672 47.757,32.488C48.143,30.317 48.083,28.091 47.581,25.944C47.08,23.797 46.147,21.775 44.839,20L44.839,20Z" fill="#374957"/>
<path d="M31,45L31,34L34.326,34C34.722,34 35.108,33.882 35.437,33.663C35.766,33.443 36.022,33.131 36.174,32.765C36.325,32.4 36.365,31.998 36.288,31.61C36.21,31.222 36.02,30.866 35.74,30.586L29.414,24.26C29.039,23.885 28.531,23.674 28,23.674C27.47,23.674 26.961,23.885 26.586,24.26L20.26,30.586C19.981,30.866 19.79,31.222 19.713,31.61C19.636,31.998 19.676,32.4 19.827,32.765C19.978,33.131 20.235,33.443 20.563,33.663C20.892,33.882 21.279,34 21.674,34L25,34L25,45C25,45.796 25.316,46.559 25.879,47.121C26.442,47.684 27.205,48 28,48C28.796,48 29.559,47.684 30.122,47.121C30.684,46.559 31,45.796 31,45L31,45Z" fill="#374957"/>
</svg>
