<svg width="48" height="48" viewBox="0 0 48 48" fill="none" xmlns="http://www.w3.org/2000/svg" xmlns:xlink="http://www.w3.org/1999/xlink">
<path d="M45,31C44.204,31 43.441,31.316 42.879,31.878C42.316,32.441 42,33.204 42,33.999L42,36.999C42,38.326 41.473,39.597 40.536,40.535C39.598,41.473 38.326,41.999 37,41.999L34,41.999C33.204,41.999 32.441,42.316 31.879,42.878C31.316,43.441 31,44.204 31,44.999C31,45.795 31.316,46.558 31.879,47.121C32.441,47.683 33.204,47.999 34,47.999L37,47.999C39.916,47.996 42.712,46.836 44.775,44.774C46.837,42.712 47.997,39.916 48,36.999L48,33.999C48,33.204 47.684,32.441 47.121,31.878C46.559,31.316 45.796,31 45,31Z" fill="#374957"/>
<path d="M3,17C3.796,17 4.559,16.684 5.121,16.121C5.684,15.559 6,14.796 6,14L6,11C6,9.674 6.527,8.402 7.464,7.464C8.402,6.527 9.674,6 11,6L14,6C14.796,6 15.559,5.684 16.121,5.121C16.684,4.559 17,3.796 17,3C17,2.204 16.684,1.441 16.121,0.879C15.559,0.316 14.796,0 14,0L11,0C8.084,0.003 5.288,1.163 3.225,3.225C1.163,5.288 0.003,8.084 0,11L0,14C0,14.796 0.316,15.559 0.879,16.121C1.441,16.684 2.204,17 3,17L3,17Z" fill="#374957"/>
<path d="M14,41.999L11,41.999C9.674,41.999 8.402,41.473 7.464,40.535C6.527,39.597 6,38.326 6,36.999L6,33.999C6,33.204 5.684,32.441 5.121,31.878C4.559,31.316 3.796,31 3,31C2.204,31 1.441,31.316 0.879,31.878C0.316,32.441 0,33.204 0,33.999L0,36.999C0.003,39.916 1.163,42.712 3.225,44.774C5.288,46.836 8.084,47.996 11,47.999L14,47.999C14.796,47.999 15.559,47.683 16.121,47.121C16.684,46.558 17,45.795 17,44.999C17,44.204 16.684,43.441 16.121,42.878C15.559,42.316 14.796,41.999 14,41.999L14,41.999Z" fill="#374957"/>
<path d="M37,0L34,0C33.204,0 32.441,0.316 31.879,0.879C31.316,1.441 31,2.204 31,3C31,3.796 31.316,4.559 31.879,5.121C32.441,5.684 33.204,6 34,6L37,6C38.326,6 39.598,6.527 40.536,7.464C41.473,8.402 42,9.674 42,11L42,14C42,14.796 42.316,15.559 42.879,16.121C43.441,16.684 44.204,17 45,17C45.796,17 46.559,16.684 47.121,16.121C47.684,15.559 48,14.796 48,14L48,11C47.997,8.084 46.837,5.288 44.775,3.225C42.712,1.163 39.916,0.003 37,0L37,0Z" fill="#374957"/>
<circle cx="24" cy="15" r="7" fill="#374957"/>
<path d="M12.22,35.695C12.174,35.981 12.19,36.273 12.269,36.552C12.347,36.83 12.486,37.088 12.674,37.308C12.863,37.527 13.097,37.703 13.361,37.822C13.624,37.942 13.911,38.002 14.2,37.999L33.8,37.999C34.09,38.003 34.377,37.943 34.641,37.823C34.905,37.704 35.14,37.529 35.329,37.309C35.518,37.09 35.656,36.831 35.735,36.553C35.814,36.274 35.83,35.981 35.784,35.695C35.253,32.961 33.787,30.496 31.638,28.724C29.489,26.952 26.79,25.982 24.004,25.982C21.218,25.982 18.519,26.952 16.37,28.724C14.221,30.496 12.755,32.961 12.224,35.695L12.22,35.695Z" fill="#374957"/>
</svg>
