<svg width="50" height="48" viewBox="0 0 50 48" fill="none" xmlns="http://www.w3.org/2000/svg" xmlns:xlink="http://www.w3.org/1999/xlink">
<path d="M1.638,35.041C3.208,35.899 4.988,36.298 6.774,36.192C8.561,36.086 10.281,35.479 11.738,34.441C11.855,34.351 11.998,34.303 12.145,34.303C12.292,34.303 12.435,34.351 12.552,34.441C14.196,35.578 16.147,36.188 18.146,36.188C20.145,36.188 22.097,35.578 23.74,34.441C23.857,34.352 23.999,34.304 24.146,34.304C24.293,34.304 24.435,34.352 24.552,34.441C26.195,35.578 28.146,36.187 30.144,36.187C32.142,36.187 34.093,35.578 35.736,34.441C35.853,34.35 35.996,34.301 36.144,34.301C36.292,34.301 36.435,34.35 36.552,34.441C38.002,35.497 39.724,36.114 41.514,36.221C43.304,36.327 45.088,35.917 46.652,35.041C47.34,34.641 47.841,33.984 48.045,33.215C48.248,32.445 48.138,31.627 47.738,30.939C47.338,30.251 46.681,29.75 45.912,29.546C45.143,29.342 44.324,29.453 43.636,29.853C43.067,30.142 42.429,30.268 41.793,30.215C41.157,30.162 40.549,29.932 40.036,29.553C38.901,28.749 37.544,28.317 36.153,28.317C34.762,28.317 33.405,28.749 32.27,29.553C31.649,29.985 30.911,30.217 30.154,30.217C29.397,30.217 28.659,29.985 28.038,29.553C26.904,28.746 25.546,28.312 24.154,28.312C22.762,28.312 21.404,28.746 20.27,29.553C19.649,29.986 18.91,30.219 18.153,30.219C17.396,30.219 16.657,29.986 16.036,29.553C14.901,28.749 13.544,28.317 12.153,28.317C10.762,28.317 9.405,28.749 8.27,29.553C7.757,29.937 7.146,30.168 6.507,30.221C5.868,30.274 5.227,30.145 4.658,29.851C3.969,29.451 3.149,29.342 2.379,29.547C1.609,29.752 0.952,30.255 0.552,30.945C0.153,31.634 0.044,32.454 0.249,33.224C0.454,33.994 0.957,34.651 1.646,35.051L1.638,35.041Z" fill="#374957"/>
<path d="M43.496,41.599C42.927,41.893 42.286,42.021 41.647,41.969C41.009,41.917 40.398,41.686 39.884,41.303C38.75,40.496 37.393,40.063 36.002,40.063C34.61,40.063 33.254,40.496 32.12,41.303C31.498,41.735 30.759,41.967 30.002,41.967C29.245,41.967 28.505,41.735 27.884,41.303C26.75,40.496 25.393,40.063 24.001,40.063C22.609,40.063 21.252,40.496 20.118,41.303C19.497,41.736 18.758,41.967 18.001,41.967C17.244,41.967 16.505,41.736 15.884,41.303C14.75,40.496 13.393,40.063 12.001,40.063C10.609,40.063 9.252,40.496 8.118,41.303C7.605,41.687 6.994,41.918 6.355,41.971C5.716,42.024 5.075,41.896 4.506,41.601C3.817,41.201 2.997,41.092 2.227,41.297C1.457,41.502 0.8,42.005 0.401,42.694C0.001,43.383 -0.108,44.203 0.097,44.973C0.302,45.743 0.805,46.399 1.494,46.799C3.064,47.657 4.844,48.056 6.63,47.95C8.416,47.843 10.136,47.237 11.594,46.199C11.711,46.11 11.853,46.062 12,46.062C12.147,46.062 12.289,46.11 12.406,46.199C14.049,47.337 16.001,47.946 18,47.946C19.999,47.946 21.95,47.337 23.594,46.199C23.711,46.11 23.854,46.062 24.001,46.062C24.148,46.062 24.291,46.11 24.408,46.199C26.051,47.339 28.002,47.949 30.002,47.949C32.001,47.949 33.953,47.339 35.596,46.199C35.712,46.109 35.855,46.061 36.002,46.061C36.149,46.061 36.291,46.109 36.408,46.199C37.857,47.254 39.578,47.871 41.368,47.978C43.157,48.084 44.94,47.675 46.504,46.799C47.193,46.401 47.697,45.746 47.903,44.977C48.109,44.208 48.002,43.388 47.604,42.699C47.206,42.009 46.551,41.506 45.782,41.3C45.013,41.093 44.193,41.201 43.504,41.599L43.496,41.599Z" fill="#374957"/>
<path d="M7,24L12.4,24C13.465,24.001 14.499,23.638 15.33,22.972C16.162,22.306 16.741,21.376 16.972,20.336C17.335,18.742 18.229,17.318 19.507,16.299C20.785,15.279 22.371,14.723 24.006,14.723C25.641,14.723 27.227,15.279 28.505,16.299C29.783,17.318 30.677,18.742 31.04,20.336C31.27,21.374 31.848,22.303 32.677,22.969C33.506,23.635 34.537,23.998 35.6,24L41,24C41.796,24 42.559,23.684 43.121,23.121C43.684,22.559 44,21.796 44,21C44,20.204 43.684,19.441 43.121,18.879C42.559,18.316 41.796,18 41,18L36.62,18C36.212,16.676 35.598,15.426 34.8,14.294L38.744,10.35C39.307,9.787 39.622,9.024 39.622,8.228C39.622,7.433 39.306,6.67 38.743,6.107C38.18,5.544 37.417,5.229 36.621,5.229C35.826,5.229 35.063,5.545 34.5,6.108L30.312,10.296C29.269,9.731 28.155,9.309 27,9.042L27,3C27,2.204 26.684,1.441 26.121,0.879C25.559,0.316 24.796,0 24,0C23.204,0 22.441,0.316 21.879,0.879C21.316,1.441 21,2.204 21,3L21,9.042C19.844,9.309 18.73,9.73 17.686,10.294L13.5,6.108C12.937,5.545 12.174,5.229 11.379,5.229C10.583,5.229 9.82,5.544 9.257,6.107C8.694,6.67 8.378,7.433 8.378,8.228C8.378,9.024 8.693,9.787 9.256,10.35L13.2,14.292C12.401,15.424 11.786,16.676 11.378,18L7,18C6.204,18 5.441,18.316 4.879,18.879C4.316,19.441 4,20.204 4,21C4,21.796 4.316,22.559 4.879,23.121C5.441,23.684 6.204,24 7,24L7,24Z" fill="#374957"/>
</svg>
