<svg width="48" height="48" viewBox="0 0 48 48" fill="none" xmlns="http://www.w3.org/2000/svg" xmlns:xlink="http://www.w3.org/1999/xlink">
<path d="M34,36C34,34.409 33.368,32.883 32.243,31.757C31.117,30.632 29.591,30 28,30C26.409,30 24.883,30.632 23.757,31.757C22.632,32.883 22,34.409 22,36L26,36C26,35.47 26.211,34.961 26.586,34.586C26.961,34.211 27.47,34 28,34C28.53,34 29.039,34.211 29.414,34.586C29.789,34.961 30,35.47 30,36C30,37 28.3,38.276 26.8,39.4C24.55,41.088 22,43 22,46L22,48L34,48L34,44L27.42,44C27.962,43.528 28.598,43.052 29.2,42.6C31.45,40.912 34,39 34,36Z" fill="#374957"/>
<path d="M44,38L40,38L40,30L36,30L36,38C36,39.061 36.421,40.078 37.172,40.828C37.922,41.579 38.939,42 40,42L44,42L44,48L48,48L48,30L44,30L44,38Z" fill="#374957"/>
<path d="M26,12L22,12L22,22L14,22L14,26L26,26L26,12Z" fill="#374957"/>
<path d="M44,4L44,10.748C41.853,7.5 38.947,4.824 35.535,2.95C32.122,1.077 28.304,0.062 24.412,-0.007C20.519,-0.076 16.668,0.804 13.191,2.557C9.715,4.309 6.717,6.881 4.456,10.051C2.196,13.221 0.741,16.893 0.217,20.751C-0.307,24.609 0.116,28.537 1.45,32.195C2.783,35.852 4.986,39.131 7.87,41.747C10.753,44.363 14.23,46.238 18,47.21L18,43.078C14.891,42.11 12.065,40.399 9.767,38.091C7.47,35.783 5.77,32.95 4.817,29.836C3.864,26.722 3.685,23.423 4.296,20.225C4.908,17.026 6.291,14.026 8.326,11.483C10.36,8.941 12.985,6.934 15.972,5.636C18.958,4.339 22.217,3.79 25.464,4.038C28.71,4.286 31.848,5.323 34.603,7.059C37.358,8.795 39.647,11.178 41.272,14L34,14L34,18L44,18C45.061,18 46.078,17.578 46.829,16.828C47.579,16.078 48,15.061 48,14L48,4L44,4Z" fill="#374957"/>
</svg>
