<svg width="48" height="48" viewBox="0 0 48 48" fill="none" xmlns="http://www.w3.org/2000/svg" xmlns:xlink="http://www.w3.org/1999/xlink">
<path d="M22.078,44.001L22.078,48.001L26.078,48.001L26.078,44.001L45.814,44.001L36.48,30.001L41.814,30.001L33.814,18.001L38.2,18.001C38.2,18.001 30.478,5.688 27.692,1.727C27.632,1.642 27.502,1.478 27.432,1.401C25.807,-0.395 22.219,-0.524 20.722,1.401L9.892,18.001L14.34,18.001L6.34,30.001L11.672,30.001L2.34,44.001L22.078,44.001ZM13.814,26.001L21.814,14.001L17.26,14.001L23.674,4.127C23.901,3.923 24.246,3.923 24.474,4.127L30.852,14.001L26.34,14.001L34.34,26.001L29,26.001L38.334,40.001L9.814,40.001L19.148,26.001L13.814,26.001L13.814,26.001Z" fill="#374957"/>
<path d="M20.076,36C21.181,36 22.076,35.105 22.076,34C22.076,32.895 21.181,32 20.076,32C18.972,32 18.076,32.895 18.076,34C18.076,35.105 18.972,36 20.076,36Z" fill="#374957"/>
<path d="M28.076,37.998C29.181,37.998 30.076,37.103 30.076,35.998C30.076,34.893 29.181,33.998 28.076,33.998C26.972,33.998 26.076,34.893 26.076,35.998C26.076,37.103 26.972,37.998 28.076,37.998Z" fill="#374957"/>
<path d="M24.076,30C25.181,30 26.076,29.105 26.076,28C26.076,26.895 25.181,26 24.076,26C22.972,26 22.076,26.895 22.076,28C22.076,29.105 22.972,30 24.076,30Z" fill="#374957"/>
<path d="M22.076,22C23.181,22 24.076,21.105 24.076,20C24.076,18.895 23.181,18 22.076,18C20.972,18 20.076,18.895 20.076,20C20.076,21.105 20.972,22 22.076,22Z" fill="#374957"/>
</svg>
