<svg width="50" height="48" viewBox="0 0 50 48" fill="none" xmlns="http://www.w3.org/2000/svg" xmlns:xlink="http://www.w3.org/1999/xlink">
<path d="M46.943,32.388L43.661,27.416L40.325,29.616L43.599,34.6C43.83,34.936 43.963,35.33 43.983,35.738C44.003,36.145 43.909,36.55 43.711,36.908C43.512,37.28 43.214,37.591 42.85,37.805C42.486,38.02 42.07,38.13 41.647,38.124L25.758,38.124L28.714,35.174L25.89,32.342L20.844,37.376C20.471,37.75 20.176,38.194 19.976,38.683C19.775,39.171 19.673,39.695 19.675,40.223C19.677,40.751 19.783,41.273 19.987,41.76C20.191,42.248 20.489,42.69 20.864,43.062L25.902,48L28.702,45.146L25.618,42.116L41.655,42.116C42.799,42.119 43.923,41.813 44.906,41.229C45.89,40.645 46.697,39.805 47.241,38.8C47.787,37.807 48.047,36.683 47.995,35.552C47.942,34.42 47.578,33.325 46.943,32.388L46.943,32.388Z" fill="#374957"/>
<path d="M23.52,6.026C23.911,6.024 24.297,6.119 24.644,6.301C24.99,6.483 25.287,6.747 25.508,7.07L34.054,20L29.624,19.126L28.852,23.05L36.092,24.478C36.611,24.58 37.144,24.579 37.663,24.474C38.181,24.369 38.673,24.163 39.111,23.866C39.548,23.57 39.923,23.19 40.213,22.748C40.503,22.306 40.703,21.811 40.8,21.292L42.168,13.964L38.234,13.23L37.384,17.788L28.846,4.866C28.26,3.981 27.46,3.257 26.522,2.761C25.583,2.264 24.535,2.011 23.474,2.024C22.412,2.038 21.371,2.317 20.445,2.837C19.519,3.357 18.738,4.1 18.174,5L15.704,8.936L19.09,11.064L21.566,7.122C21.771,6.787 22.058,6.51 22.4,6.319C22.742,6.127 23.128,6.026 23.52,6.026L23.52,6.026Z" fill="#374957"/>
<path d="M12.914,20.905L13.774,25.525L17.708,24.799L16.34,17.463C16.243,16.944 16.043,16.449 15.754,16.007C15.464,15.566 15.09,15.185 14.652,14.889C14.215,14.593 13.723,14.386 13.206,14.28C12.688,14.175 12.154,14.173 11.636,14.275L4.4,15.701L5.174,19.625L9.542,18.763L0.956,32.419C0.36,33.363 0.03,34.45 0.003,35.566C-0.025,36.682 0.251,37.784 0.8,38.755C1.344,39.746 2.147,40.571 3.123,41.143C4.099,41.714 5.211,42.01 6.342,41.999L14,41.999L14,37.999L6.342,37.999C5.925,38.005 5.515,37.897 5.154,37.688C4.793,37.479 4.496,37.176 4.294,36.811C4.095,36.464 3.995,36.068 4.005,35.668C4.014,35.268 4.133,34.877 4.348,34.539L12.914,20.905Z" fill="#374957"/>
</svg>
