<svg width="48" height="48" viewBox="0 0 48 48" fill="none" xmlns="http://www.w3.org/2000/svg" xmlns:xlink="http://www.w3.org/1999/xlink">
<path d="M4,41.952L4,-0.048L0,-0.048L0,41.952C0,43.543 0.632,45.07 1.757,46.195C2.883,47.32 4.409,47.952 6,47.952L48,47.952L48,43.952L6,43.952C5.47,43.952 4.961,43.741 4.586,43.366C4.211,42.991 4,42.483 4,41.952L4,41.952Z" fill="#374957"/>
<path d="M45.001,7.952L34.001,7.952L39.586,13.538L31.001,22.124L27.001,18.124L12.563,32.562L15.4,35.4L27.011,23.8L31.011,27.8L42.424,16.386L48.001,21.952L48.001,10.952C48.001,10.156 47.684,9.393 47.122,8.831C46.559,8.268 45.796,7.952 45.001,7.952L45.001,7.952Z" fill="#374957"/>
</svg>
