<svg width="48" height="50" viewBox="0 0 48 50" fill="none" xmlns="http://www.w3.org/2000/svg" xmlns:xlink="http://www.w3.org/1999/xlink">
<path d="M45.53,14.24L27.53,1.15C26.504,0.403 25.268,0.001 24,0.001C22.732,0.001 21.496,0.403 20.47,1.15L2.47,14.24C1.706,14.798 1.085,15.529 0.656,16.372C0.227,17.215 0.002,18.147 0,19.094L0,26.001L22,26.001L22,48.001L26,48.001L26,26.001L48,26.001L48,19.094C47.998,18.147 47.773,17.215 47.344,16.372C46.915,15.529 46.294,14.798 45.53,14.24L45.53,14.24ZM4,19.094C4.001,18.778 4.075,18.467 4.218,18.186C4.361,17.904 4.568,17.66 4.822,17.474L17.4,8.332L13,14.946C12.346,15.928 11.998,17.083 12,18.264L12,22.001L4,22.001L4,19.094ZM16,22.001L16,18.264C16,17.87 16.116,17.485 16.334,17.158L22,8.628L22,22.001L16,22.001ZM26,8.628L31.666,17.156C31.884,17.484 32,17.869 32,18.264L32,22.001L26,22.001L26,8.628ZM44,22.001L36,22.001L36,18.264C36.002,17.082 35.654,15.927 35,14.944L30.6,8.334L43.166,17.472C43.423,17.657 43.632,17.901 43.777,18.183C43.922,18.465 43.998,18.777 44,19.094L44,22.001Z" fill="#374957"/>
<path d="M10,38L4,38L4,30L0,30L0,48L4,48L4,42L10,42L10,48L14,48L14,42C14,40.939 13.579,39.922 12.828,39.172C12.078,38.421 11.061,38 10,38Z" fill="#374957"/>
<path d="M44,38L38,38C36.939,38 35.922,38.421 35.172,39.172C34.421,39.922 34,40.939 34,42L34,48L38,48L38,42L44,42L44,48L48,48L48,30L44,30L44,38Z" fill="#374957"/>
</svg>
