<svg width="48" height="50" viewBox="0 0 48 50" fill="none" xmlns="http://www.w3.org/2000/svg" xmlns:xlink="http://www.w3.org/1999/xlink">
<path d="M46,26C45.993,20.515 43.938,15.23 40.239,11.179C36.54,7.129 31.462,4.605 26,4.102L26,0L22,0L22,4.102C17.909,4.468 14.002,5.974 10.724,8.449C7.446,10.925 4.928,14.27 3.457,18.105C1.985,21.94 1.619,26.112 2.401,30.144C3.182,34.177 5.079,37.91 7.876,40.918L4.02,45.154L6.98,47.846L10.848,43.6C14.637,46.459 19.254,48.006 24,48.006C28.746,48.006 33.364,46.459 37.152,43.6L41.02,47.852L43.98,45.16L40.124,40.924C43.9,36.872 45.999,31.539 46,26L46,26ZM24,44C20.44,44 16.96,42.944 14,40.966C11.04,38.989 8.733,36.177 7.37,32.888C6.008,29.599 5.651,25.98 6.346,22.488C7.04,18.997 8.755,15.789 11.272,13.272C13.789,10.755 16.997,9.04 20.488,8.346C23.98,7.651 27.599,8.008 30.888,9.37C34.177,10.733 36.989,13.04 38.966,16C40.944,18.96 42,22.44 42,26C41.994,30.772 40.096,35.347 36.722,38.721C33.347,42.096 28.772,43.994 24,44L24,44Z" fill="#374957"/>
<path d="M11.046,3.49L8.912,0.112C5.46,2.137 2.443,4.825 0.034,8.022L3.36,10.24C5.455,7.508 8.067,5.215 11.046,3.49L11.046,3.49Z" fill="#374957"/>
<path d="M44.64,10.24L47.966,8.022C45.557,4.825 42.54,2.137 39.088,0.112L36.954,3.49C39.933,5.215 42.545,7.508 44.64,10.24L44.64,10.24Z" fill="#374957"/>
<path d="M22,14L22,24.828L28.586,31.414L31.414,28.586L26,23.172L26,14L22,14Z" fill="#374957"/>
</svg>
