<svg width="48" height="48" viewBox="0 0 48 48" fill="none" xmlns="http://www.w3.org/2000/svg" xmlns:xlink="http://www.w3.org/1999/xlink">
<path d="M41.81,0L6.2,0C4.544,0.013 2.961,0.683 1.798,1.863C0.636,3.043 -0.011,4.636 0,6.292L0,16L4,16L4,6.292C3.994,5.997 4.046,5.704 4.153,5.429C4.261,5.154 4.421,4.903 4.625,4.69C4.83,4.477 5.074,4.307 5.344,4.188C5.614,4.07 5.905,4.006 6.2,4L41.82,4C42.412,4.017 42.974,4.268 43.382,4.697C43.79,5.126 44.013,5.7 44,6.292L44,41.708C44.012,42.302 43.789,42.877 43.379,43.306C42.968,43.736 42.404,43.985 41.81,44L6.2,44C5.905,43.994 5.614,43.93 5.344,43.812C5.074,43.693 4.83,43.523 4.625,43.31C4.421,43.097 4.261,42.846 4.153,42.571C4.046,42.296 3.994,42.003 4,41.708L4,32L0,32L0,41.708C-0.011,43.364 0.636,44.957 1.798,46.137C2.961,47.317 4.544,47.987 6.2,48L41.82,48C43.473,47.982 45.051,47.309 46.209,46.13C47.367,44.951 48.011,43.361 48,41.708L48,6.292C48.011,4.637 47.366,3.046 46.206,1.867C45.045,0.687 43.465,0.016 41.81,0L41.81,0Z" fill="#374957"/>
<path d="M6,25.998L34.172,25.998L25.572,34.598L28.4,37.434L38.298,27.534C38.762,27.07 39.131,26.519 39.382,25.912C39.634,25.305 39.763,24.655 39.763,23.998C39.763,23.342 39.634,22.691 39.382,22.085C39.131,21.478 38.762,20.927 38.298,20.462L28.4,10.562L25.566,13.398L34.166,21.998L6,21.998L6,25.998Z" fill="#374957"/>
</svg>
