<svg width="48" height="48" viewBox="0 0 48 48" fill="none" xmlns="http://www.w3.org/2000/svg" xmlns:xlink="http://www.w3.org/1999/xlink">
<path d="M42.001,34C40.449,34.002 38.959,34.607 37.847,35.688L31.927,32.726C31.966,32.486 31.991,32.243 32.001,32C31.991,31.757 31.966,31.514 31.927,31.274L37.847,28.312C38.843,29.267 40.139,29.848 41.516,29.957C42.892,30.066 44.263,29.696 45.398,28.91C46.533,28.124 47.361,26.97 47.743,25.644C48.125,24.318 48.037,22.9 47.493,21.631C46.95,20.362 45.985,19.32 44.762,18.68C43.538,18.041 42.132,17.844 40.78,18.123C39.428,18.401 38.214,19.139 37.343,20.21C36.472,21.281 35.998,22.62 36.001,24C36.01,24.243 36.035,24.486 36.075,24.726L30.155,27.688C29.308,26.869 28.239,26.317 27.08,26.101C25.922,25.886 24.726,26.016 23.641,26.476C22.556,26.936 21.63,27.705 20.98,28.687C20.329,29.669 19.982,30.822 19.982,32C19.982,33.178 20.329,34.33 20.98,35.313C21.63,36.295 22.556,37.064 23.641,37.524C24.726,37.984 25.922,38.114 27.08,37.899C28.239,37.683 29.308,37.131 30.155,36.312L36.075,39.274C36.035,39.514 36.01,39.757 36.001,40C36.001,41.187 36.352,42.347 37.012,43.333C37.671,44.32 38.608,45.089 39.704,45.543C40.801,45.997 42.007,46.116 43.171,45.885C44.335,45.653 45.404,45.082 46.243,44.243C47.082,43.403 47.654,42.334 47.885,41.171C48.117,40.007 47.998,38.8 47.544,37.704C47.09,36.607 46.321,35.67 45.334,35.011C44.347,34.352 43.187,34 42.001,34ZM42.001,22C42.396,22 42.783,22.117 43.112,22.337C43.441,22.557 43.697,22.869 43.848,23.235C44,23.6 44.039,24.002 43.962,24.39C43.885,24.778 43.694,25.134 43.415,25.414C43.135,25.694 42.779,25.884 42.391,25.961C42.003,26.039 41.601,25.999 41.235,25.848C40.87,25.696 40.557,25.44 40.338,25.111C40.118,24.782 40.001,24.395 40.001,24C40.001,23.469 40.211,22.961 40.586,22.586C40.961,22.211 41.47,22 42.001,22ZM26.001,34C25.605,34 25.218,33.883 24.889,33.663C24.561,33.443 24.304,33.131 24.153,32.765C24.001,32.4 23.962,31.998 24.039,31.61C24.116,31.222 24.307,30.865 24.586,30.586C24.866,30.306 25.222,30.115 25.61,30.038C25.998,29.961 26.4,30.001 26.766,30.152C27.131,30.303 27.444,30.56 27.663,30.889C27.883,31.218 28.001,31.604 28.001,32C28.001,32.53 27.79,33.039 27.415,33.414C27.04,33.789 26.531,34 26.001,34ZM42.001,42C41.605,42 41.218,41.883 40.889,41.663C40.56,41.443 40.304,41.131 40.153,40.765C40.001,40.4 39.962,39.998 40.039,39.61C40.116,39.222 40.307,38.865 40.586,38.586C40.866,38.306 41.222,38.116 41.61,38.038C41.998,37.961 42.4,38.001 42.766,38.152C43.131,38.304 43.444,38.56 43.663,38.889C43.883,39.218 44.001,39.604 44.001,40C44.001,40.53 43.79,41.039 43.415,41.414C43.04,41.789 42.531,42 42.001,42Z" fill="#374957"/>
<path d="M31.999,42L10.999,42C9.296,42.005 7.649,41.387 6.37,40.263C5.09,39.139 4.266,37.586 4.051,35.896C3.837,34.207 4.248,32.497 5.206,31.089C6.164,29.681 7.604,28.672 9.255,28.252L12.131,27.51L10.363,25.126C8.826,23.068 7.996,20.568 7.999,18C8.022,14.972 9.188,12.064 11.265,9.861C13.342,7.657 16.175,6.32 19.196,6.117C22.217,5.915 25.204,6.862 27.556,8.769C29.908,10.676 31.452,13.402 31.879,16.4L32.079,17.872L35.575,14.376C34.678,10.558 32.41,7.203 29.203,4.947C25.995,2.691 22.07,1.692 18.174,2.139C14.278,2.586 10.682,4.449 8.069,7.373C5.456,10.296 4.007,14.078 3.999,18C3.997,20.557 4.614,23.076 5.799,25.342C3.641,26.498 1.932,28.342 0.942,30.581C-0.048,32.821 -0.261,35.326 0.337,37.7C0.935,40.074 2.308,42.18 4.24,43.684C6.172,45.188 8.551,46.003 10.999,46L31.999,46C32.649,45.996 33.298,45.953 33.943,45.87C33.088,44.721 32.493,43.401 32.199,42C32.133,42 32.067,42 31.999,42Z" fill="#374957"/>
</svg>
