<svg width="48" height="48" viewBox="0 0 48 48" fill="none" xmlns="http://www.w3.org/2000/svg" xmlns:xlink="http://www.w3.org/1999/xlink">
<path d="M48,23C48,21.621 47.592,20.272 46.827,19.125C46.062,17.977 44.975,17.081 43.702,16.55C42.9,11.91 40.482,7.703 36.876,4.674C33.27,1.645 28.709,-0.011 24,0L24,0C19.291,-0.011 14.73,1.645 11.124,4.674C7.518,7.703 5.1,11.91 4.298,16.55C2.848,17.162 1.647,18.245 0.888,19.624C0.129,21.003 -0.143,22.597 0.116,24.149C0.374,25.702 1.149,27.122 2.313,28.18C3.478,29.238 4.966,29.873 6.536,29.982C7.308,31.639 8.297,33.186 9.478,34.582C8.443,35.061 7.567,35.825 6.951,36.785C6.335,37.745 6.005,38.86 6,40L6,48L10,48L10,40C10,39.47 10.211,38.961 10.586,38.586C10.961,38.211 11.469,38 12,38L13.056,38C16.165,40.5 20.011,41.906 24,42L24,42C27.99,41.906 31.839,40.501 34.95,38L36,38C36.53,38 37.039,38.211 37.414,38.586C37.789,38.961 38,39.47 38,40L38,48L42,48L42,40C41.996,38.859 41.667,37.743 41.051,36.783C40.435,35.823 39.559,35.058 38.524,34.578C39.703,33.182 40.692,31.635 41.464,29.978C43.234,29.858 44.893,29.071 46.106,27.776C47.319,26.481 47.996,24.774 48,23ZM40.496,25.946L38.826,25.65L38.262,27.25C36.43,32.444 30.26,38 24,38C17.74,38 11.572,32.44 9.738,27.248L9.178,25.662L7.518,25.942C7.347,25.976 7.174,25.995 7,26C6.259,25.989 5.549,25.704 5.005,25.2C4.462,24.697 4.125,24.01 4.057,23.272C3.99,22.534 4.199,21.798 4.642,21.204C5.086,20.611 5.733,20.203 6.46,20.058L7.936,19.8L8.092,18.312C8.36,15.749 9.246,13.288 10.674,11.143C12.103,8.997 14.03,7.23 16.292,5.994C16.109,6.647 16.011,7.322 16,8C16,10.122 16.843,12.157 18.343,13.657C19.843,15.157 21.878,16 24,16C26.122,16 28.156,15.157 29.657,13.657C31.157,12.157 32,10.122 32,8L28,8C28,8.791 27.765,9.565 27.326,10.222C26.886,10.88 26.262,11.393 25.531,11.696C24.8,11.998 23.995,12.078 23.22,11.923C22.444,11.769 21.731,11.388 21.172,10.828C20.612,10.269 20.231,9.556 20.077,8.78C19.922,8.005 20.002,7.2 20.304,6.469C20.607,5.738 21.12,5.114 21.778,4.674C22.435,4.235 23.209,4 24,4C27.952,3.991 31.766,5.448 34.705,8.09C37.644,10.731 39.498,14.37 39.908,18.3L40.064,19.788L41.54,20.054C42.271,20.194 42.923,20.602 43.371,21.196C43.818,21.791 44.029,22.53 43.962,23.272C43.894,24.013 43.554,24.702 43.007,25.207C42.459,25.711 41.744,25.994 41,26C40.831,25.996 40.662,25.979 40.496,25.948L40.496,25.946Z" fill="#374957"/>
<circle cx="18.999" cy="23.002" r="3" fill="#374957"/>
<circle cx="29.001" cy="23.002" r="3" fill="#374957"/>
</svg>
