<svg width="48" height="50" viewBox="0 0 48 50" fill="none" xmlns="http://www.w3.org/2000/svg" xmlns:xlink="http://www.w3.org/1999/xlink">
<path d="M32.8,48.001L32.734,48.001C32.228,47.993 31.729,47.883 31.266,47.676C30.804,47.47 30.388,47.173 30.044,46.801L23.708,40.277L26.6,37.514L32.81,43.913L44.972,31.75L47.8,34.572L35.478,46.895C35.127,47.248 34.71,47.528 34.25,47.718C33.79,47.908 33.297,48.004 32.8,48.001L32.8,48.001Z" fill="#374957"/>
<path d="M22,12L22,21.172L16.586,26.586L19.414,29.414L26,22.828L26,12L22,12Z" fill="#374957"/>
<path d="M24,0C17.843,0.052 11.942,2.468 7.516,6.748C3.09,11.028 0.479,16.846 0.222,22.998C-0.035,29.15 2.082,35.165 6.136,39.799C10.189,44.434 15.869,47.333 22,47.898L22,43.898C18.06,43.505 14.325,41.952 11.267,39.436C8.21,36.92 5.968,33.553 4.824,29.762C3.681,25.971 3.688,21.926 4.844,18.138C6.001,14.351 8.254,10.992 11.32,8.486C14.386,5.98 18.126,4.44 22.068,4.061C26.01,3.681 29.975,4.48 33.463,6.355C36.95,8.23 39.804,11.097 41.661,14.594C43.519,18.091 44.297,22.06 43.898,26L47.898,26C47.954,25.338 48,24.676 48,24C47.993,17.637 45.462,11.536 40.963,7.037C36.464,2.538 30.363,0.007 24,0L24,0Z" fill="#374957"/>
</svg>
