<svg width="48" height="48" viewBox="0 0 48 48" fill="none" xmlns="http://www.w3.org/2000/svg" xmlns:xlink="http://www.w3.org/1999/xlink">
<path d="M26.5,23.032C27.128,21.001 28.389,19.224 30.097,17.959C31.806,16.694 33.874,16.008 36,16C37.591,16 39.117,15.368 40.243,14.243C41.368,13.117 42,11.591 42,10C42,8.409 41.368,6.883 40.243,5.757C39.117,4.632 37.591,4 36,4C34.136,4 32.29,4.373 30.572,5.098C28.855,5.823 27.3,6.886 26,8.222L26,0L22,0L22,8.22C20.7,6.884 19.145,5.823 17.427,5.098C15.71,4.373 13.864,4 12,4C10.409,4 8.883,4.632 7.757,5.757C6.632,6.883 6,8.409 6,10C6,11.591 6.632,13.117 7.757,14.243C8.883,15.368 10.409,16 12,16C14.126,16.008 16.194,16.694 17.903,17.959C19.611,19.224 20.872,21.001 21.5,23.032C15.181,21.082 8.613,20.06 2,20L0,20L0,22C0,44.622 8.772,48 14,48C16.231,47.88 18.368,47.063 20.11,45.664C21.212,44.734 22.566,44.154 24,44C25.434,44.154 26.788,44.734 27.89,45.664C29.632,47.063 31.769,47.88 34,48C39.228,48 48,44.622 48,22L48,20L46,20C39.387,20.06 32.819,21.081 26.5,23.032L26.5,23.032ZM36,8C36.53,8 37.039,8.211 37.414,8.586C37.789,8.961 38,9.47 38,10C38,10.53 37.789,11.039 37.414,11.414C37.039,11.789 36.53,12 36,12C32.333,11.997 28.812,13.438 26.2,16.012C26.661,13.752 27.888,11.721 29.674,10.262C31.459,8.802 33.694,8.003 36,8L36,8ZM12,12C11.47,12 10.961,11.789 10.586,11.414C10.211,11.039 10,10.53 10,10C10,9.47 10.211,8.961 10.586,8.586C10.961,8.211 11.47,8 12,8C14.306,8.003 16.54,8.802 18.326,10.262C20.111,11.722 21.338,13.753 21.8,16.012C19.187,13.44 15.667,11.998 12,12L12,12ZM34,44C32.566,43.846 31.212,43.266 30.11,42.336C28.368,40.937 26.231,40.12 24,40C21.769,40.12 19.632,40.937 17.89,42.336C16.788,43.266 15.434,43.846 14,44C7.868,44 4.356,36.934 4.026,24.04C10.593,24.333 17.077,25.62 23.258,27.858L24,28.154L24.744,27.858C30.922,25.613 37.407,24.325 43.974,24.04C43.644,36.932 40.132,44 34,44Z" fill="#374957"/>
<path d="M37.372,30.741C33.821,31.31 30.333,32.212 26.952,33.435L25.352,34.065C29.068,34.429 31.502,37.499 33.458,37.999C36.018,38.655 36.586,35.425 37.372,30.741Z" fill="#374957"/>
<path d="M10.628,30.741C11.414,35.425 11.982,38.655 14.544,37.999C16.5,37.499 18.944,34.429 22.65,34.065L21.05,33.435C17.668,32.212 14.179,31.31 10.628,30.741L10.628,30.741Z" fill="#374957"/>
</svg>
