<svg width="48" height="48" viewBox="0 0 48 48" fill="none" xmlns="http://www.w3.org/2000/svg" xmlns:xlink="http://www.w3.org/1999/xlink">
<path d="M40.8,6L7.2,6L6.6,6.6C2.4,11.4 0,17.6 0,24C0,35 4.4,44 10,44C14.4,44 16.6,37.6 17.6,34L30.4,34C31.4,37.6 33.6,44 38,44C43.6,44 48,35 48,24C48,17.6 45.6,11.4 41.4,6.6L40.8,6ZM38,40C36.8,40 34.8,35.8 34,31.6L33.6,30L14.4,30L14,31.6C13.2,35.8 11.2,40 10,40C8,40 4,33.8 4,24C4,19 5.8,14 9,10L39.2,10C42.4,14 44,19 44,24C44,33.8 40,40 38,40Z" fill="#374957"/>
<path d="M16.001,14L12.001,14L12.001,18L8.001,18L8.001,22L12.001,22L12.001,26L16.001,26L16.001,22L20.001,22L20.001,18L16.001,18L16.001,14Z" fill="#374957"/>
<circle cx="36.999" cy="17" r="3" fill="#374957"/>
<circle cx="30.999" cy="23" r="3" fill="#374957"/>
</svg>
