<svg width="48" height="48" viewBox="0 0 48 48" fill="none" xmlns="http://www.w3.org/2000/svg" xmlns:xlink="http://www.w3.org/1999/xlink">
<path d="M22.001,47.94C16.182,47.94 10.601,45.628 6.487,41.514C2.372,37.399 0.061,31.819 0.061,26C0.061,20.181 2.372,14.601 6.487,10.486C10.601,6.372 16.182,4.06 22.001,4.06L24.001,4.06L24.027,6.06L24.001,24L43.941,24L43.941,26C43.934,31.817 41.621,37.394 37.508,41.507C33.394,45.62 27.818,47.934 22.001,47.94L22.001,47.94ZM20.025,8.17C16.666,8.543 13.482,9.856 10.837,11.958C8.193,14.061 6.196,16.868 5.076,20.056C3.956,23.243 3.76,26.683 4.509,29.977C5.257,33.272 6.922,36.288 9.309,38.678C11.697,41.069 14.711,42.737 18.005,43.49C21.298,44.242 24.738,44.05 27.927,42.934C31.116,41.818 33.925,39.825 36.031,37.183C38.137,34.541 39.454,31.358 39.831,28L20.001,28L20.025,8.17Z" fill="#374957"/>
<path d="M32.037,4.576C34.784,5.295 37.291,6.732 39.299,8.74C41.308,10.747 42.745,13.253 43.465,16L32.037,16L32.037,4.576ZM28.037,0.068L28.037,20L47.973,20C47.947,14.721 45.839,9.666 42.105,5.933C38.372,2.201 33.316,0.093 28.037,0.068L28.037,0.068Z" fill="#374957"/>
</svg>
