<svg width="48" height="48" viewBox="0 0 48 48" fill="none" xmlns="http://www.w3.org/2000/svg" xmlns:xlink="http://www.w3.org/1999/xlink">
<path d="M44,0L26,0L26,4L41.172,4L0,45.172L2.828,48L44,6.828L44,22L48,22L48,4C48,2.939 47.579,1.922 46.828,1.172C46.078,0.421 45.061,0 44,0L44,0Z" fill="#374957"/>
<path d="M12,20C13.582,20 15.129,19.531 16.445,18.652C17.76,17.773 18.786,16.523 19.391,15.061C19.997,13.6 20.155,11.991 19.846,10.439C19.538,8.887 18.776,7.462 17.657,6.343C16.538,5.224 15.113,4.462 13.561,4.154C12.009,3.845 10.4,4.003 8.939,4.609C7.477,5.214 6.227,6.24 5.348,7.555C4.469,8.871 4,10.418 4,12C4,14.122 4.843,16.157 6.343,17.657C7.843,19.157 9.878,20 12,20ZM12,8C12.791,8 13.564,8.235 14.222,8.674C14.88,9.114 15.393,9.738 15.696,10.469C15.998,11.2 16.077,12.004 15.923,12.78C15.769,13.556 15.388,14.269 14.828,14.828C14.269,15.388 13.556,15.769 12.78,15.923C12.004,16.077 11.2,15.998 10.469,15.696C9.738,15.393 9.114,14.88 8.674,14.222C8.235,13.564 8,12.791 8,12C8,10.939 8.421,9.922 9.172,9.172C9.922,8.421 10.939,8 12,8L12,8Z" fill="#374957"/>
<path d="M36,28C34.418,28 32.871,28.469 31.555,29.348C30.24,30.227 29.214,31.476 28.609,32.938C28.003,34.4 27.845,36.008 28.154,37.56C28.462,39.112 29.224,40.538 30.343,41.656C31.462,42.775 32.887,43.537 34.439,43.846C35.991,44.154 37.6,43.996 39.061,43.391C40.523,42.785 41.773,41.76 42.652,40.444C43.531,39.128 44,37.582 44,36C44,33.878 43.157,31.843 41.657,30.343C40.157,28.842 38.122,28 36,28L36,28ZM36,40C35.209,40 34.436,39.765 33.778,39.325C33.12,38.886 32.607,38.261 32.304,37.53C32.002,36.799 31.923,35.995 32.077,35.219C32.231,34.443 32.612,33.73 33.172,33.171C33.731,32.612 34.444,32.231 35.22,32.076C35.996,31.922 36.8,32.001 37.531,32.304C38.262,32.607 38.886,33.119 39.326,33.777C39.765,34.435 40,35.208 40,36C40,37.06 39.579,38.078 38.828,38.828C38.078,39.578 37.061,40 36,40Z" fill="#374957"/>
</svg>
