<svg width="48" height="50" viewBox="0 0 48 50" fill="none" xmlns="http://www.w3.org/2000/svg" xmlns:xlink="http://www.w3.org/1999/xlink">
<path d="M24,35.999C14.878,35.999 5.272,33.999 0.716,29.725C1.991,34.938 4.978,39.573 9.2,42.886C13.421,46.2 18.633,48.001 24,48.001C29.367,48.001 34.578,46.2 38.8,42.886C43.022,39.573 46.009,34.938 47.284,29.725C42.728,33.999 33.122,35.999 24,35.999Z" fill="#374957"/>
<path d="M24,12.002C33.122,12.002 42.728,14.002 47.284,18.276C46.009,13.062 43.022,8.428 38.8,5.114C34.578,1.8 29.367,-0.001 24,-0.001C18.633,-0.001 13.421,1.8 9.2,5.114C4.978,8.428 1.991,13.062 0.716,18.276C5.272,14.002 14.878,12.002 24,12.002Z" fill="#374957"/>
<path d="M24,32.001C36.15,32.001 46,28.419 46,24.001C46,19.583 36.15,16.001 24,16.001C11.85,16.001 2,19.583 2,24.001C2,28.419 11.85,32.001 24,32.001Z" fill="#374957"/>
</svg>
