<svg width="48" height="48" viewBox="0 0 48 48" fill="none" xmlns="http://www.w3.org/2000/svg" xmlns:xlink="http://www.w3.org/1999/xlink">
<path d="M40.244,26.586L37.416,29.414L42,34L41.236,34C34.468,34 30.164,30.936 26.344,26.984L25.744,27.68C25.088,28.44 24.412,29.222 23.708,30.008C28.108,35.103 34.512,38.024 41.244,38.008L42,38.008L37.414,42.594L40.242,45.422L46.828,38.836C48.389,37.274 48.389,34.742 46.828,33.18L40.244,26.586Z" fill="#374957"/>
<path d="M41.238,14L42,14L37.416,18.586L40.244,21.414L46.83,14.828C48.391,13.266 48.391,10.734 46.83,9.172L40.244,2.586L37.416,5.414L42,10L41.236,10C31.322,10 25.902,15.34 20.984,20.956C16.126,15.47 10.286,10 -0.08,10L-0.08,14C8.848,14 13.666,18.672 18.338,24C13.666,29.328 8.848,34 -0.08,34L-0.08,38C11.536,38 17.472,31.128 22.72,25.068C27.628,19.376 32.274,14 41.238,14Z" fill="#374957"/>
</svg>
