<svg width="48" height="48" viewBox="0 0 48 48" fill="none" xmlns="http://www.w3.org/2000/svg" xmlns:xlink="http://www.w3.org/1999/xlink">
<path d="M38,46.828L46.828,38L38,38L38,46.828Z" fill="#374957"/>
<path d="M12.96,17.147L15.154,17.147L14.062,14.253L12.96,17.147Z" fill="#374957"/>
<path d="M42,0L6,0C4.409,0 2.883,0.632 1.757,1.757C0.632,2.883 0,4.409 0,6L0,48L34,48L34,34L48,34L48,6C48,4.409 47.368,2.883 46.243,1.757C45.117,0.632 43.591,0 42,0L42,0ZM17.126,22.374L16.098,19.648L12,19.648L10.96,22.376L8.292,22.376L13,10.014L15.132,10L19.8,22.376L17.126,22.374ZM24.812,22.262L22.312,22.262L22.312,10.124L24.812,10.124L24.812,22.262Z" fill="#374957"/>
</svg>
