<svg width="48" height="50" viewBox="0 0 48 50" fill="none" xmlns="http://www.w3.org/2000/svg" xmlns:xlink="http://www.w3.org/1999/xlink">
<path d="M8.136,36L39.448,36C40.412,36 41.361,35.768 42.216,35.323C43.071,34.879 43.806,34.235 44.36,33.446C44.913,32.657 45.269,31.746 45.396,30.791C45.523,29.836 45.418,28.864 45.09,27.958L39.386,12.188C38.412,8.683 36.317,5.594 33.421,3.393C30.525,1.192 26.987,0 23.35,0L23.35,0C19.564,0 15.89,1.291 12.937,3.661C9.983,6.03 7.925,9.336 7.104,13.032L2.404,28.232C2.127,29.129 2.065,30.079 2.222,31.005C2.38,31.931 2.752,32.807 3.31,33.562C3.867,34.318 4.595,34.932 5.433,35.356C6.271,35.779 7.197,36 8.136,36L8.136,36Z" fill="#374957"/>
<path d="M14.2,40C14.659,42.261 15.886,44.293 17.672,45.753C19.458,47.213 21.693,48.01 24,48.01C26.307,48.01 28.543,47.213 30.329,45.753C32.115,44.293 33.341,42.261 33.8,40L14.2,40Z" fill="#374957"/>
</svg>
