<svg width="48" height="48" viewBox="0 0 48 48" fill="none" xmlns="http://www.w3.org/2000/svg" xmlns:xlink="http://www.w3.org/1999/xlink">
<path d="M24,0C29.908,0.018 35.603,2.209 40,6.156L40,0L44,0L44,10.286C43.999,11.271 43.607,12.215 42.911,12.911C42.215,13.607 41.271,13.999 40.286,14L30,14L30,10L38.242,10C34.991,6.707 30.698,4.645 26.096,4.166C21.494,3.688 16.869,4.822 13.01,7.375C9.151,9.929 6.299,13.743 4.94,18.166C3.582,22.589 3.801,27.346 5.561,31.625C7.321,35.904 10.512,39.44 14.59,41.627C18.667,43.814 23.377,44.518 27.916,43.618C32.454,42.717 36.539,40.269 39.473,36.691C42.407,33.113 44.007,28.627 44,24L48,24C48,28.747 46.592,33.387 43.955,37.334C41.318,41.28 37.57,44.357 33.184,46.173C28.799,47.99 23.973,48.465 19.318,47.539C14.662,46.613 10.386,44.327 7.029,40.971C3.673,37.614 1.387,33.338 0.461,28.682C-0.465,24.027 0.01,19.201 1.827,14.816C3.643,10.43 6.72,6.682 10.666,4.045C14.613,1.408 19.253,0 24,0L24,0Z" fill="#374957"/>
<path d="M21.999,13.999L21.999,24.827L28.585,31.413L31.413,28.585L25.999,23.171L25.999,13.999L21.999,13.999Z" fill="#374957"/>
</svg>
