<svg width="48" height="48" viewBox="0 0 48 48" fill="none" xmlns="http://www.w3.org/2000/svg" xmlns:xlink="http://www.w3.org/1999/xlink">
<path d="M18.489,15.66C20.123,14.577 22.04,14 24.001,14C25.961,14 27.878,14.577 29.513,15.66L39.489,5.684C35.162,2.014 29.674,0 24.001,0C18.328,0 12.839,2.014 8.513,5.684L18.489,15.66Z" fill="#374957"/>
<path d="M42.316,8.512L32.34,18.488C33.422,20.122 34,22.039 34,24C34,25.96 33.422,27.877 32.34,29.512L42.316,39.488C45.985,35.161 48,29.673 48,24C48,18.327 45.985,12.838 42.316,8.512L42.316,8.512Z" fill="#374957"/>
<path d="M29.513,32.34C27.878,33.422 25.961,34 24.001,34C22.04,34 20.123,33.422 18.489,32.34L8.513,42.316C12.839,45.985 18.328,48 24.001,48C29.674,48 35.162,45.985 39.489,42.316L29.513,32.34Z" fill="#374957"/>
<path d="M15.66,29.512C14.577,27.877 14,25.96 14,24C14,22.039 14.577,20.122 15.66,18.488L5.684,8.512C2.014,12.838 0,18.327 0,24C0,29.673 2.014,35.161 5.684,39.488L15.66,29.512Z" fill="#374957"/>
</svg>
