<svg width="50" height="48" viewBox="0 0 50 48" fill="none" xmlns="http://www.w3.org/2000/svg" xmlns:xlink="http://www.w3.org/1999/xlink">
<path d="M14.056,47.999C11.277,48.001 8.559,47.178 6.247,45.635C3.936,44.092 2.134,41.898 1.069,39.33C0.005,36.762 -0.273,33.936 0.269,31.21C0.811,28.484 2.15,25.98 4.116,24.015L12.638,15.481L15.468,18.309L6.944,26.839C5.101,28.734 4.078,31.278 4.097,33.921C4.115,36.564 5.174,39.094 7.043,40.963C8.912,42.831 11.442,43.889 14.085,43.907C16.728,43.925 19.272,42.901 21.166,41.057L29.69,32.533L32.518,35.361L24,43.885C22.695,45.192 21.145,46.228 19.439,46.934C17.732,47.64 15.903,48.002 14.056,47.999L14.056,47.999Z" fill="#374957"/>
<path d="M35.359,32.519L32.531,29.691L41.055,21.167C42.462,19.761 43.42,17.969 43.809,16.019C44.197,14.068 43.998,12.046 43.237,10.208C42.476,8.371 41.188,6.8 39.534,5.695C37.881,4.589 35.936,3.999 33.947,3.999L33.947,3.999C32.627,3.995 31.319,4.254 30.099,4.759C28.878,5.264 27.771,6.007 26.839,6.943L18.307,15.469L15.479,12.639L24.009,4.115C25.311,2.806 26.86,1.769 28.565,1.062C30.271,0.356 32.099,-0.006 33.945,-0.001L33.945,-0.001C36.726,-0.002 39.445,0.822 41.758,2.367C44.07,3.912 45.872,6.109 46.936,8.678C47.999,11.248 48.277,14.075 47.733,16.802C47.188,19.53 45.848,22.034 43.879,23.999L35.359,32.519Z" fill="#374957"/>
<path d="M34.046,22.002L13.952,22.002L13.952,26.002L34.046,26.002L34.046,22.002Z" transform="rotate(-90 23.999 24.002)" fill="#374957" stroke="#000000" stroke-width="1" stroke-miterlimit="3.999327"/>
</svg>
