<svg width="48" height="48" viewBox="0 0 48 48" fill="none" xmlns="http://www.w3.org/2000/svg" xmlns:xlink="http://www.w3.org/1999/xlink">
<path d="M16.586,22.242L0,38.828L0,48L45.172,48L19.414,22.242C19.039,21.867 18.53,21.656 18,21.656C17.47,21.656 16.961,21.867 16.586,22.242L16.586,22.242Z" fill="#374957"/>
<path d="M22.242,19.414L48,45.172L48,6C48,4.409 47.368,2.883 46.243,1.757C45.117,0.632 43.591,0 42,0L6,0C4.409,0 2.883,0.632 1.757,1.757C0.632,2.883 0,4.409 0,6L0,33.172L13.758,19.414C14.883,18.289 16.409,17.657 18,17.657C19.591,17.657 21.117,18.289 22.242,19.414L22.242,19.414ZM36,4C37.582,4 39.129,4.469 40.445,5.348C41.76,6.227 42.786,7.477 43.391,8.939C43.997,10.4 44.155,12.009 43.846,13.561C43.538,15.113 42.776,16.538 41.657,17.657C40.538,18.776 39.113,19.538 37.561,19.846C36.009,20.155 34.4,19.997 32.939,19.391C31.477,18.786 30.227,17.76 29.348,16.445C28.469,15.129 28,13.582 28,12C28,9.878 28.843,7.843 30.343,6.343C31.843,4.843 33.878,4 36,4Z" fill="#374957"/>
<circle cx="36" cy="11.999" r="4" fill="#374957"/>
</svg>
