<svg width="48" height="48" viewBox="0 0 48 48" fill="none" xmlns="http://www.w3.org/2000/svg" xmlns:xlink="http://www.w3.org/1999/xlink">
<path d="M24,0C18.697,0.006 13.614,2.115 9.864,5.864C6.115,9.614 4.006,14.697 4,20C4,30.564 20.8,45.066 22.708,46.686L24,47.778L25.292,46.686C27.2,45.066 44,30.564 44,20C43.994,14.697 41.885,9.614 38.136,5.864C34.386,2.115 29.303,0.006 24,0L24,0ZM24,30C22.022,30 20.089,29.414 18.444,28.315C16.8,27.216 15.518,25.654 14.761,23.827C14.004,22 13.806,19.989 14.192,18.049C14.578,16.109 15.53,14.327 16.929,12.929C18.327,11.53 20.109,10.578 22.049,10.192C23.989,9.806 26,10.004 27.827,10.761C29.654,11.518 31.216,12.8 32.315,14.444C33.414,16.089 34,18.022 34,20C33.997,22.651 32.942,25.193 31.068,27.068C29.193,28.942 26.651,29.997 24,30L24,30Z" fill="#374957"/>
<circle cx="24" cy="20" r="6" fill="#374957"/>
</svg>
