<svg width="48" height="48" viewBox="0 0 48 48" fill="none" xmlns="http://www.w3.org/2000/svg" xmlns:xlink="http://www.w3.org/1999/xlink">
<path d="M44,26C43.995,30.773 42.097,35.348 38.722,38.723C35.348,42.097 30.772,43.995 26,44L22,44C17.228,43.995 12.653,42.096 9.279,38.722C5.904,35.348 4.006,30.773 4,26L0,26C0.007,31.833 2.327,37.425 6.451,41.549C10.576,45.674 16.167,47.993 22,48L26,48C31.833,47.993 37.424,45.674 41.549,41.549C45.673,37.425 47.993,31.833 48,26L44,26Z" fill="#374957"/>
<path d="M18,26L10.142,26C10.621,29.335 12.285,32.385 14.831,34.591C17.376,36.797 20.632,38.011 24,38.011C27.368,38.011 30.624,36.797 33.169,34.591C35.715,32.385 37.379,29.335 37.858,26L30,26L30,22L38,22L38,16L30,16L30,12L37.858,12C37.379,8.666 35.715,5.616 33.169,3.41C30.624,1.204 27.368,-0.011 24,-0.011C20.632,-0.011 17.376,1.204 14.831,3.41C12.285,5.616 10.621,8.666 10.142,12L18,12L18,16L10,16L10,22L18,22L18,26Z" fill="#374957"/>
</svg>
