<svg width="48" height="48" viewBox="0 0 48 48" fill="none" xmlns="http://www.w3.org/2000/svg" xmlns:xlink="http://www.w3.org/1999/xlink">
<path d="M19.656,40L8,40L8,28.344L9.172,27.172L36.344,0L6,0C4.409,0 2.883,0.632 1.757,1.757C0.632,2.883 0,4.409 0,6L0,48L34,48L34,34L48,34L48,11.656L19.656,40Z" fill="#374957"/>
<path d="M38,46.828L46.828,38L38,38L38,46.828Z" fill="#374957"/>
<path d="M12,36L18,36L46.758,7.242C47.554,6.447 48.001,5.367 48.001,4.242C48.001,3.117 47.554,2.038 46.758,1.242C45.962,0.447 44.883,0 43.758,0C42.633,0 41.554,0.447 40.758,1.242L12,30L12,36Z" fill="#374957"/>
</svg>
