<svg width="48" height="48" viewBox="0 0 48 48" fill="none" xmlns="http://www.w3.org/2000/svg" xmlns:xlink="http://www.w3.org/1999/xlink">
<path d="M38,46.828L46.828,38L38,38L38,46.828Z" fill="#374957"/>
<path d="M42,0L6,0C4.409,0 2.883,0.632 1.757,1.757C0.632,2.883 0,4.409 0,6L0,48L34,48L34,34L48,34L48,6C48,4.409 47.368,2.883 46.243,1.757C45.117,0.632 43.591,0 42,0L42,0ZM14.522,12.492L10.496,12.492L10.496,14.768L14.224,14.768L14.224,17.268L10.496,17.268L10.496,19.542L14.522,19.542L14.522,22.042L8,22.042L8,10L14.522,10L14.522,12.492ZM21.968,17.932L20.534,17.932L20.534,22.132L18.034,22.132L18.034,10L21.968,10C23.021,10 24.031,10.418 24.775,11.163C25.52,11.907 25.938,12.917 25.938,13.97C25.938,15.023 25.52,16.033 24.775,16.777C24.031,17.522 23.021,17.94 21.968,17.94L21.968,17.932ZM30.838,13.882C30.87,13.882 32.066,14.408 33.384,14.896C34.27,15.097 35.049,15.621 35.57,16.365C36.09,17.109 36.315,18.021 36.2,18.922C35.991,19.835 35.468,20.646 34.723,21.214C33.977,21.781 33.056,22.068 32.12,22.026C31.322,22.034 30.531,21.876 29.797,21.561C29.064,21.247 28.404,20.782 27.86,20.198L27.02,19.274L28.872,17.592L29.712,18.518C30.023,18.84 30.396,19.094 30.808,19.266C31.221,19.438 31.665,19.524 32.112,19.518C32.459,19.55 32.807,19.465 33.101,19.276C33.394,19.087 33.615,18.805 33.73,18.476C33.854,17.786 32.828,17.35 32.51,17.232C31.006,16.678 29.65,16.072 29.65,16.072C29.106,15.761 28.667,15.294 28.39,14.731C28.113,14.168 28.01,13.535 28.096,12.914C28.2,12.264 28.489,11.659 28.929,11.169C29.368,10.68 29.939,10.327 30.574,10.154C31.419,9.941 32.301,9.927 33.152,10.114C34.003,10.3 34.8,10.682 35.478,11.228L36.436,12.028L34.836,13.94L33.886,13.14C33.526,12.858 33.108,12.658 32.663,12.554C32.217,12.45 31.754,12.446 31.306,12.54C31.127,12.574 30.962,12.661 30.832,12.79C30.703,12.918 30.615,13.083 30.58,13.262C30.556,13.379 30.568,13.501 30.614,13.611C30.66,13.722 30.738,13.816 30.838,13.882L30.838,13.882Z" fill="#374957"/>
<path d="M21.968,12.492L20.538,12.492L20.538,15.438L21.958,15.438C22.348,15.438 22.722,15.283 22.998,15.007C23.273,14.731 23.428,14.358 23.428,13.968C23.428,13.578 23.273,13.204 22.998,12.928C22.722,12.653 22.348,12.498 21.958,12.498L21.968,12.492Z" fill="#374957"/>
</svg>
