<svg width="48" height="48" viewBox="0 0 48 48" fill="none" xmlns="http://www.w3.org/2000/svg" xmlns:xlink="http://www.w3.org/1999/xlink">
<path d="M23.999,22C28.417,22 31.999,18.418 31.999,14C31.999,9.582 28.417,6 23.999,6C19.581,6 15.999,9.582 15.999,14C15.999,18.418 19.581,22 23.999,22Z" fill="#374957"/>
<path d="M9.999,32L9.999,40L37.999,40L37.999,32C37.999,30.409 37.367,28.883 36.242,27.758C35.116,26.633 33.59,26 31.999,26L15.999,26C14.408,26 12.882,26.633 11.756,27.758C10.631,28.883 9.999,30.409 9.999,32Z" fill="#374957"/>
<path d="M42.001,48L32.001,48L32.001,44L42.001,44C42.531,44 43.04,43.79 43.415,43.415C43.79,43.04 44.001,42.531 44.001,42L44.001,32L48.001,32L48.001,42C48.001,43.592 47.369,45.118 46.244,46.243C45.118,47.368 43.592,48 42.001,48Z" fill="#374957"/>
<path d="M4,16L0,16L0,6C0,4.409 0.632,2.883 1.757,1.757C2.883,0.632 4.409,0 6,0L16,0L16,4L6,4C5.47,4 4.961,4.211 4.586,4.586C4.211,4.961 4,5.47 4,6L4,16Z" fill="#374957"/>
<path d="M16,48L6,48C4.409,48 2.883,47.368 1.757,46.243C0.632,45.118 0,43.592 0,42L0,32L4,32L4,42C4,42.531 4.211,43.04 4.586,43.415C4.961,43.79 5.47,44 6,44L16,44L16,48Z" fill="#374957"/>
<path d="M48.001,16L44.001,16L44.001,6C44.001,5.47 43.79,4.961 43.415,4.586C43.04,4.211 42.531,4 42.001,4L32.001,4L32.001,0L42.001,0C43.592,0 45.118,0.632 46.244,1.757C47.369,2.883 48.001,4.409 48.001,6L48.001,16Z" fill="#374957"/>
</svg>
