<svg width="48" height="48" viewBox="0 0 48 48" fill="none" xmlns="http://www.w3.org/2000/svg" xmlns:xlink="http://www.w3.org/1999/xlink">
<path d="M24.064,38C24.853,38.001 25.633,37.847 26.362,37.546C27.09,37.244 27.752,36.802 28.308,36.244L36.146,28.4L33.318,25.58L26.052,32.848L26,0L22,0L22.052,32.816L14.812,25.576L11.984,28.4L19.822,36.238C20.379,36.797 21.04,37.24 21.768,37.542C22.496,37.845 23.276,38 24.064,38L24.064,38Z" fill="#374957"/>
<path d="M44,32L44,41.999C44,42.53 43.789,43.039 43.414,43.414C43.039,43.789 42.53,43.999 42,43.999L6,43.999C5.47,43.999 4.961,43.789 4.586,43.414C4.211,43.039 4,42.53 4,41.999L4,32L0,32L0,41.999C0,43.591 0.632,45.117 1.757,46.242C2.883,47.367 4.409,47.999 6,47.999L42,47.999C43.591,47.999 45.117,47.367 46.243,46.242C47.368,45.117 48,43.591 48,41.999L48,32L44,32Z" fill="#374957"/>
</svg>
