<svg width="48" height="48" viewBox="0 0 48 48" fill="none" xmlns="http://www.w3.org/2000/svg" xmlns:xlink="http://www.w3.org/1999/xlink">
<path d="M4,11.999C2.939,11.999 1.922,12.42 1.172,13.17C0.421,13.92 0,14.938 0,15.999L0,31.999C0,33.06 0.421,34.077 1.172,34.827C1.922,35.577 2.939,35.999 4,35.999L9.6,35.999L24,47.953L24,0.033L9.6,11.999L4,11.999Z" fill="#374957"/>
<path d="M39.999,23.999C39.996,21.348 38.941,18.806 37.067,16.931C35.192,15.057 32.65,14.002 29.999,13.999L27.999,13.999L27.999,17.999L29.999,17.999C31.59,17.999 33.116,18.631 34.242,19.756C35.367,20.881 35.999,22.407 35.999,23.999C35.999,25.59 35.367,27.116 34.242,28.241C33.116,29.367 31.59,29.999 29.999,29.999L27.999,29.999L27.999,33.999L29.999,33.999C32.65,33.996 35.192,32.941 37.067,31.066C38.941,29.192 39.996,26.65 39.999,23.999L39.999,23.999Z" fill="#374957"/>
<path d="M29.999,6L27.999,6L27.999,10L29.999,10C33.712,10 37.273,11.475 39.898,14.101C42.524,16.726 43.999,20.287 43.999,24C43.999,27.713 42.524,31.274 39.898,33.899C37.273,36.525 33.712,38 29.999,38L27.999,38L27.999,42L29.999,42C34.773,42 39.351,40.104 42.727,36.728C46.103,33.352 47.999,28.774 47.999,24C47.999,19.226 46.103,14.648 42.727,11.272C39.351,7.896 34.773,6 29.999,6L29.999,6Z" fill="#374957"/>
</svg>
