<svg width="48" height="50" viewBox="0 0 48 50" fill="none" xmlns="http://www.w3.org/2000/svg" xmlns:xlink="http://www.w3.org/1999/xlink">
<path d="M11.042,39.799L21.686,39.799L28.724,46.829C29.102,47.209 29.552,47.511 30.047,47.717C30.542,47.923 31.074,48.029 31.61,48.029C31.963,48.029 32.314,47.984 32.656,47.895C33.346,47.721 33.979,47.368 34.489,46.871C35,46.375 35.371,45.752 35.564,45.067L47.978,2.849L11.042,39.799Z" fill="#374957"/>
<path d="M8.174,37L45.144,0.024L2.956,12.466C2.269,12.662 1.645,13.033 1.146,13.544C0.647,14.055 0.29,14.688 0.111,15.379C-0.068,16.07 -0.063,16.796 0.125,17.485C0.313,18.174 0.678,18.802 1.184,19.306L8.174,26.29L8.174,37Z" fill="#374957"/>
</svg>
