<svg width="48" height="50" viewBox="0 0 48 50" fill="none" xmlns="http://www.w3.org/2000/svg" xmlns:xlink="http://www.w3.org/1999/xlink">
<circle cx="14" cy="44.001" r="4" fill="#374957"/>
<circle cx="34" cy="44.001" r="4" fill="#374957"/>
<path d="M45.626,19.166C43.804,21.64 41.103,23.322 38.079,23.864C35.054,24.406 31.937,23.767 29.37,22.079C26.802,20.391 24.98,17.783 24.279,14.791C23.578,11.8 24.05,8.653 25.6,6L8.484,6L8.4,5.296C8.228,3.837 7.526,2.492 6.428,1.516C5.331,0.54 3.913,0.001 2.444,0L0,0L0,4L2.444,4C2.934,4 3.407,4.18 3.773,4.505C4.139,4.831 4.373,5.28 4.43,5.766L7.6,32.702C7.772,34.161 8.473,35.507 9.571,36.483C10.669,37.46 12.087,37.999 13.556,38L40,38L40,34L13.556,34C13.066,34 12.593,33.82 12.227,33.494C11.861,33.168 11.627,32.719 11.57,32.232L11.308,30L43.672,30L45.626,19.166Z" fill="#374957"/>
<path d="M34.222,19.083L34.156,19.083C33.649,19.075 33.15,18.965 32.688,18.759C32.225,18.553 31.809,18.255 31.466,17.883L26.854,13.083L29.736,10.319L34.224,14.999L42.6,6.599L45.428,9.427L36.892,17.977C36.542,18.329 36.126,18.608 35.667,18.798C35.209,18.988 34.718,19.085 34.222,19.083L34.222,19.083Z" fill="#374957"/>
</svg>
