<svg width="48" height="48" viewBox="0 0 48 48" fill="none" xmlns="http://www.w3.org/2000/svg" xmlns:xlink="http://www.w3.org/1999/xlink">
<path d="M38,33.998C35.893,33.998 33.824,33.442 32,32.386C30.176,33.442 28.107,33.998 26,33.998L22,33.998C19.89,33.996 17.819,33.431 16,32.362C14.181,33.431 12.11,33.996 10,33.998L8,33.998C5.891,33.998 3.821,33.436 2,32.372L2,41.998C2,43.59 2.632,45.116 3.757,46.241C4.883,47.366 6.409,47.998 8,47.998L40,47.998C41.591,47.998 43.117,47.366 44.243,46.241C45.368,45.116 46,43.59 46,41.998L46,32.374C44.179,33.437 42.108,33.997 40,33.998L38,33.998Z" fill="#374957"/>
<path d="M34,0L34,12L30,12L30,0L18,0L18,12L14,12L14,0L4.4,0L0.048,19.566L0,22C0,24.122 0.843,26.157 2.343,27.657C3.843,29.157 5.878,30 8,30L10,30C11.14,29.996 12.265,29.748 13.301,29.271C14.336,28.794 15.256,28.1 16,27.236C16.744,28.1 17.664,28.794 18.699,29.271C19.735,29.748 20.86,29.996 22,30L26,30C27.136,30.001 28.258,29.759 29.293,29.291C30.328,28.823 31.251,28.139 32,27.286C32.749,28.139 33.672,28.823 34.707,29.291C35.742,29.759 36.864,30.001 38,30L40,30C42.122,30 44.157,29.157 45.657,27.657C47.157,26.157 48,24.122 48,22L48,20L43.6,0L34,0Z" fill="#374957"/>
</svg>
