<svg width="48" height="48" viewBox="0 0 48 48" fill="none" xmlns="http://www.w3.org/2000/svg" xmlns:xlink="http://www.w3.org/1999/xlink">
<path d="M12,2L6,2C4.409,2 2.883,2.722 1.757,4.008C0.632,5.294 0,7.039 0,8.857L0,27.143C0,28.961 0.632,30.706 1.757,31.992C2.883,33.278 4.409,34 6,34L12,34L12,2Z" fill="#374957"/>
<path d="M48,27.292L44,2L16,2L16,34.19L20.682,44.953C20.963,45.65 21.372,46.268 21.881,46.765C22.391,47.261 22.988,47.625 23.632,47.829C24.344,48.047 25.092,48.057 25.809,47.858C26.525,47.66 27.187,47.259 27.735,46.693C28.283,46.126 28.699,45.412 28.946,44.614C29.193,43.816 29.263,42.959 29.15,42.122L28,34.19L48,34.19L48,27.292Z" fill="#374957"/>
</svg>
