<svg width="50" height="48" viewBox="0 0 50 48" fill="none" xmlns="http://www.w3.org/2000/svg" xmlns:xlink="http://www.w3.org/1999/xlink">
<path d="M47.824,40.054L45.71,28.134C46.581,27.348 47.238,26.353 47.622,25.244C48.005,24.135 48.101,22.947 47.902,21.79C47.702,20.634 47.213,19.546 46.48,18.63C45.747,17.713 44.794,16.997 43.71,16.548C42.911,11.975 40.546,7.823 37.021,4.802C33.496,1.782 29.03,0.082 24.389,-0.007C19.748,-0.095 15.22,1.434 11.583,4.318C7.945,7.201 5.424,11.261 4.452,15.8L3,24C3,24 6.214,24 6.556,23.974C9.953,23.871 13.29,23.06 16.356,21.592C16.122,22.025 16,22.509 16,23C15.996,23.583 16.162,24.154 16.477,24.643C16.792,25.133 17.243,25.521 17.775,25.758C18.307,25.996 18.896,26.074 19.472,25.982C20.047,25.891 20.583,25.634 21.014,25.242C21.446,24.851 21.754,24.343 21.902,23.779C22.049,23.216 22.029,22.621 21.845,22.069C21.66,21.516 21.319,21.03 20.862,20.668C20.406,20.306 19.854,20.085 19.274,20.032C24.842,16.808 29.349,12.028 32.242,6.28C34.365,7.55 36.163,9.298 37.494,11.384C38.824,13.47 39.651,15.837 39.908,18.298L40.064,19.79L41.54,20.056C42.268,20.199 42.918,20.606 43.364,21.2C43.809,21.794 44.019,22.532 43.951,23.272C43.884,24.011 43.545,24.7 43,25.204C42.455,25.707 41.742,25.991 41,26L38.702,26L38.262,27.248C36.428,32.444 30.26,38 24,38C20.979,37.759 18.08,36.701 15.614,34.94C13.148,33.178 11.208,30.78 10,28L2.294,28L0.13,40.23C-0.062,41.171 -0.042,42.143 0.187,43.075C0.417,44.007 0.851,44.876 1.459,45.62C2.066,46.364 2.831,46.963 3.698,47.375C4.566,47.786 5.514,48 6.474,48L18,48L18,40.816C19.908,41.584 21.943,41.985 24,42C26.056,41.985 28.091,41.584 30,40.818L30,48L41.524,48C42.513,48.003 43.489,47.778 44.377,47.342C45.265,46.907 46.041,46.272 46.644,45.488C47.24,44.732 47.656,43.849 47.861,42.907C48.065,41.966 48.052,40.99 47.824,40.054L47.824,40.054Z" fill="#374957"/>
<circle cx="29" cy="22.999" r="3" fill="#374957"/>
</svg>
