<svg width="50" height="48" viewBox="0 0 50 48" fill="none" xmlns="http://www.w3.org/2000/svg" xmlns:xlink="http://www.w3.org/1999/xlink">
<circle cx="18" cy="12" r="12" fill="#374957"/>
<path d="M26.086,28L9.914,28C7.286,28.003 4.766,29.048 2.907,30.907C1.049,32.765 0.003,35.285 0,37.913L0,47.999L36,47.999L36,37.913C35.997,35.285 34.951,32.765 33.093,30.907C31.234,29.048 28.714,28.003 26.086,28L26.086,28Z" fill="#374957"/>
<path d="M43.999,15.75C42.886,15.805 41.841,16.3 41.091,17.124C40.341,17.949 39.949,19.037 39.999,20.15C40.05,19.037 39.658,17.949 38.908,17.124C38.158,16.3 37.112,15.805 35.999,15.75C34.886,15.805 33.841,16.3 33.091,17.124C32.341,17.949 31.949,19.037 31.999,20.15C31.999,24.75 39.999,30.416 39.999,30.416C39.999,30.416 47.999,24.758 47.999,20.15C48.05,19.037 47.657,17.949 46.908,17.124C46.158,16.3 45.112,15.805 43.999,15.75L43.999,15.75Z" fill="#374957"/>
</svg>
