<svg width="48" height="48" viewBox="0 0 48 48" fill="none" xmlns="http://www.w3.org/2000/svg" xmlns:xlink="http://www.w3.org/1999/xlink">
<path d="M19.756,25.092C20.884,26.215 22.41,26.845 24,26.845C25.591,26.845 27.117,26.215 28.244,25.092L47.562,5.772C47.118,4.66 46.35,3.707 45.359,3.035C44.368,2.362 43.198,2.002 42,2L6,2C4.803,2.002 3.633,2.362 2.642,3.035C1.651,3.707 0.883,4.66 0.438,5.772L19.756,25.092Z" fill="#374957"/>
<path d="M31.072,27.92C29.195,29.793 26.651,30.845 24,30.845C21.349,30.845 18.805,29.793 16.928,27.92L0,11L0,46L48,46L48,11L31.072,27.92Z" fill="#374957"/>
</svg>
