<svg width="50" height="48" viewBox="0 0 50 48" fill="none" xmlns="http://www.w3.org/2000/svg" xmlns:xlink="http://www.w3.org/1999/xlink">
<path d="M29.208,11.375L0,40.581L0,48.001L7.42,48.001L36.626,18.793L29.208,11.375Z" fill="#374957"/>
<path d="M46.464,1.536C45.48,0.552 44.145,0 42.754,0C41.363,0 40.028,0.552 39.044,1.536L32.044,8.546L39.462,15.964L46.462,8.964C46.95,8.476 47.338,7.898 47.602,7.26C47.867,6.623 48.003,5.94 48.003,5.25C48.003,4.56 47.867,3.877 47.603,3.24C47.339,2.602 46.952,2.023 46.464,1.536L46.464,1.536Z" fill="#374957"/>
</svg>
