<svg width="48" height="50" viewBox="0 0 48 50" fill="none" xmlns="http://www.w3.org/2000/svg" xmlns:xlink="http://www.w3.org/1999/xlink">
<path d="M6.242,22.586L26.026,2.8L23.2,-0.026L3.414,19.758C2.289,20.883 1.657,22.409 1.657,24C1.657,25.591 2.289,27.117 3.414,28.242L23.184,48.012L26.012,45.184L6.244,25.414C5.869,25.039 5.658,24.531 5.657,24.001C5.657,23.47 5.867,22.962 6.242,22.586L6.242,22.586Z" fill="#374957"/>
<path d="M46,2.834L43.166,0L20.586,22.58C20.211,22.955 20,23.464 20,23.994C20,24.524 20.211,25.033 20.586,25.408L43.168,48L46,45.168L24.828,24L46,2.834Z" fill="#374957"/>
</svg>
