<svg width="48" height="48" viewBox="0 0 48 48" fill="none" xmlns="http://www.w3.org/2000/svg" xmlns:xlink="http://www.w3.org/1999/xlink">
<path d="M47.642,22.362C45.886,18.522 39,6 24,6C9,6 2.114,18.522 0.358,22.362C0.122,22.877 0,23.436 0,24.002C0,24.568 0.122,25.127 0.358,25.642C2.114,29.478 9,42 24,42C39,42 45.886,29.478 47.642,25.638C47.877,25.124 47.999,24.565 47.999,24C47.999,23.435 47.877,22.876 47.642,22.362L47.642,22.362ZM24,36C21.626,36 19.306,35.296 17.333,33.978C15.36,32.659 13.821,30.785 12.913,28.592C12.005,26.399 11.767,23.987 12.23,21.659C12.693,19.331 13.836,17.193 15.514,15.515C17.193,13.836 19.331,12.694 21.659,12.231C23.986,11.768 26.399,12.005 28.592,12.913C30.785,13.822 32.659,15.36 33.977,17.333C35.296,19.307 36,21.627 36,24C35.997,27.182 34.731,30.232 32.482,32.482C30.232,34.732 27.181,35.997 24,36L24,36Z" fill="#374957"/>
<circle cx="24" cy="23.999" r="8" fill="#374957"/>
</svg>
