<svg width="48" height="48" viewBox="0 0 48 48" fill="none" xmlns="http://www.w3.org/2000/svg" xmlns:xlink="http://www.w3.org/1999/xlink">
<path d="M4,42L4,6C4,5.47 4.211,4.961 4.586,4.586C4.961,4.211 5.47,4 6,4L16,4L16,0L6,0C4.409,0 2.883,0.632 1.757,1.757C0.632,2.883 0,4.409 0,6L0,42C0,43.591 0.632,45.117 1.757,46.243C2.883,47.368 4.409,48 6,48L16,48L16,44L6,44C5.47,44 4.961,43.789 4.586,43.414C4.211,43.039 4,42.53 4,42L4,42Z" fill="#374957"/>
<path d="M46.246,19.757L37.074,10.585L34.246,13.413L42.774,21.941L10,21.999L10,25.999L42.886,25.941L34.242,34.585L37.07,37.413L46.242,28.241C47.367,27.116 48,25.591 48.001,24C48.001,22.409 47.37,20.882 46.246,19.757Z" fill="#374957"/>
</svg>
