<svg width="48" height="50" viewBox="0 0 48 50" fill="none" xmlns="http://www.w3.org/2000/svg" xmlns:xlink="http://www.w3.org/1999/xlink">
<path d="M43.999,4L43.999,10.724C41.704,7.268 38.552,4.465 34.851,2.59C31.15,0.715 27.026,-0.168 22.882,0.026C18.737,0.221 14.714,1.486 11.205,3.699C7.695,5.912 4.819,8.997 2.858,12.653C0.896,16.309 -0.084,20.411 0.012,24.559C0.109,28.707 1.279,32.759 3.409,36.32C5.539,39.88 8.555,42.828 12.164,44.875C15.773,46.922 19.851,47.999 23.999,48L23.999,44C20.489,43.998 17.041,43.073 14.002,41.316C10.963,39.56 8.439,37.035 6.685,33.994C4.931,30.953 4.008,27.504 4.009,23.994C4.01,20.484 4.935,17.036 6.691,13.996C8.447,10.956 10.972,8.432 14.012,6.678C17.052,4.923 20.501,4 24.011,4C27.522,4 30.97,4.925 34.01,6.68C37.05,8.435 39.574,10.96 41.329,14L33.999,14L33.999,18L43.999,18C45.06,18 46.078,17.579 46.828,16.828C47.578,16.078 47.999,15.061 47.999,14L47.999,4L43.999,4Z" fill="#374957"/>
<path d="M26,26L14,26L14,22L22,22L22,12L26,12L26,26Z" fill="#374957"/>
<path d="M42,48C40.409,48 38.883,47.368 37.757,46.243C36.632,45.117 36,43.591 36,42L36,36C36,34.409 36.632,32.883 37.757,31.757C38.883,30.632 40.409,30 42,30C43.591,30 45.117,30.632 46.243,31.757C47.368,32.883 48,34.409 48,36L48,42C48,43.591 47.368,45.117 46.243,46.243C45.117,47.368 43.591,48 42,48ZM42,34C41.47,34 40.961,34.211 40.586,34.586C40.211,34.961 40,35.47 40,36L40,42C40,42.53 40.211,43.039 40.586,43.414C40.961,43.789 41.47,44 42,44C42.53,44 43.039,43.789 43.414,43.414C43.789,43.039 44,42.53 44,42L44,36C44,35.47 43.789,34.961 43.414,34.586C43.039,34.211 42.53,34 42,34Z" fill="#374957"/>
<path d="M34,48.001L30,48.001L30,36.829L27.414,39.415L24.586,36.587L30.586,30.587C30.866,30.308 31.222,30.117 31.61,30.04C31.998,29.963 32.4,30.003 32.765,30.154C33.131,30.305 33.443,30.562 33.663,30.89C33.882,31.219 34,31.606 34,32.001L34,48.001Z" fill="#374957"/>
</svg>
