<svg width="48" height="48" viewBox="0 0 48 48" fill="none" xmlns="http://www.w3.org/2000/svg" xmlns:xlink="http://www.w3.org/1999/xlink">
<path d="M12,18L20,18C20,16.94 19.579,15.922 18.828,15.172C18.078,14.422 17.061,14 16,14C14.939,14 13.922,14.422 13.172,15.172C12.421,15.922 12,16.94 12,18L12,18Z" fill="#374957"/>
<path d="M16,10C16.914,10.009 17.82,10.176 18.678,10.494L23.586,5.586L26.414,8.414L22.028,12.8C23.292,14.238 23.992,16.085 24,18L32,18L32,6C32,4.409 31.368,2.883 30.243,1.757C29.117,0.632 27.591,0 26,0L6,0C4.409,0 2.883,0.632 1.757,1.757C0.632,2.883 0,4.409 0,6L0,18L8,18C8,15.878 8.843,13.843 10.343,12.343C11.843,10.843 13.878,10 16,10L16,10Z" fill="#374957"/>
<path d="M44.586,4.586L38,11.172L38,38L32,38L32,22L0,22L0,48L32,48L32,42L42,42L42,12.828L47.414,7.414L44.586,4.586Z" fill="#374957"/>
</svg>
