<svg width="48" height="48" viewBox="0 0 48 48" fill="none" xmlns="http://www.w3.org/2000/svg" xmlns:xlink="http://www.w3.org/1999/xlink">
<circle cx="24" cy="34.001" r="12" fill="#374957"/>
<path d="M22.766,18.048L15.412,5.306C15.236,5.002 14.984,4.75 14.68,4.574C14.376,4.399 14.031,4.306 13.68,4.306C13.329,4.306 12.984,4.399 12.68,4.574C12.376,4.75 12.124,5.002 11.948,5.306L0,26L10.148,26C11.448,23.75 13.277,21.851 15.475,20.466C17.673,19.08 20.175,18.251 22.766,18.048L22.766,18.048Z" fill="#374957"/>
<path d="M26.001,7.999L26.001,18.123C29.179,18.529 32.162,19.877 34.567,21.993C36.972,24.11 38.689,26.898 39.495,29.999L48.001,29.999L48.001,7.999L26.001,7.999Z" fill="#374957"/>
</svg>
