<svg width="48" height="48" viewBox="0 0 48 48" fill="none" xmlns="http://www.w3.org/2000/svg" xmlns:xlink="http://www.w3.org/1999/xlink">
<path d="M24,0C18.097,0.01 12.403,2.188 8,6.12L8,0L4,0L4,10.286C4.001,11.271 4.393,12.215 5.089,12.911C5.785,13.607 6.729,13.999 7.714,14L18,14L18,10L9.72,10C12.966,6.69 17.26,4.611 21.869,4.117C26.479,3.623 31.116,4.746 34.99,7.293C38.863,9.84 41.731,13.653 43.103,18.081C44.476,22.509 44.268,27.276 42.514,31.567C40.761,35.859 37.571,39.408 33.491,41.607C29.411,43.807 24.693,44.521 20.144,43.628C15.595,42.734 11.498,40.288 8.554,36.708C5.609,33.128 3.999,28.636 4,24L0,24C0,28.747 1.408,33.387 4.045,37.334C6.682,41.28 10.43,44.357 14.816,46.173C19.201,47.99 24.027,48.465 28.682,47.539C33.338,46.613 37.614,44.327 40.971,40.971C44.327,37.614 46.613,33.338 47.539,28.682C48.465,24.027 47.99,19.201 46.173,14.816C44.357,10.43 41.28,6.682 37.334,4.045C33.387,1.408 28.747,0 24,0L24,0Z" fill="#374957"/>
<path d="M22,13.999L22,24.827L28.586,31.413L31.414,28.585L26,23.171L26,13.999L22,13.999Z" fill="#374957"/>
</svg>
