<svg width="48" height="48" viewBox="0 0 48 48" fill="none" xmlns="http://www.w3.org/2000/svg" xmlns:xlink="http://www.w3.org/1999/xlink">
<path d="M48,23C48,21.621 47.592,20.272 46.827,19.125C46.062,17.977 44.975,17.081 43.702,16.55C42.9,11.91 40.482,7.703 36.876,4.674C33.27,1.645 28.709,-0.011 24,0L24,0C19.291,-0.011 14.73,1.645 11.124,4.673C7.519,7.702 5.1,11.908 4.298,16.548C2.848,17.16 1.647,18.243 0.888,19.622C0.129,21.001 -0.143,22.595 0.116,24.147C0.374,25.7 1.149,27.12 2.313,28.178C3.478,29.236 4.966,29.871 6.536,29.98C7.308,31.637 8.297,33.184 9.478,34.58C8.443,35.059 7.566,35.824 6.95,36.784C6.334,37.744 6.004,38.859 6,40L6,48L42,48L42,40C41.996,38.859 41.667,37.743 41.051,36.783C40.435,35.823 39.559,35.058 38.524,34.578C39.703,33.182 40.692,31.635 41.464,29.978C43.234,29.858 44.893,29.071 46.106,27.776C47.319,26.481 47.996,24.774 48,23ZM40.496,25.946L38.826,25.65L38.262,27.25C36.43,32.442 30.26,38 24,38C17.74,38 11.572,32.44 9.738,27.248L9.178,25.662L7.518,25.942C7.347,25.976 7.174,25.995 7,26C6.261,25.987 5.553,25.701 5.011,25.197C4.47,24.694 4.134,24.008 4.067,23.272C4,22.536 4.207,21.801 4.649,21.208C5.09,20.615 5.735,20.207 6.46,20.06L7.936,19.792L8.092,18.304C8.376,15.573 9.361,12.963 10.952,10.725C12.542,8.487 14.683,6.697 17.168,5.53C16.94,6.553 16.945,7.615 17.183,8.636C17.42,9.657 17.884,10.612 18.54,11.43C19.196,12.247 20.027,12.907 20.972,13.361C21.918,13.814 22.953,14.05 24.001,14.05C25.049,14.05 26.084,13.814 27.029,13.361C27.975,12.907 28.806,12.247 29.462,11.43C30.118,10.612 30.581,9.657 30.819,8.636C31.056,7.615 31.062,6.553 30.834,5.53C33.318,6.697 35.459,8.485 37.048,10.722C38.638,12.959 39.623,15.569 39.908,18.298L40.064,19.786L41.54,20.052C42.273,20.19 42.928,20.597 43.378,21.192C43.827,21.787 44.039,22.528 43.972,23.271C43.904,24.014 43.562,24.705 43.013,25.21C42.464,25.714 41.746,25.996 41,26C40.831,25.995 40.662,25.977 40.496,25.946L40.496,25.946Z" fill="#374957"/>
<circle cx="18.999" cy="23" r="3" fill="#374957"/>
<circle cx="29.001" cy="23" r="3" fill="#374957"/>
</svg>
