<svg width="48" height="50" viewBox="0 0 48 50" fill="none" xmlns="http://www.w3.org/2000/svg" xmlns:xlink="http://www.w3.org/1999/xlink">
<path d="M28.827,26L42.317,39.489C45.54,35.685 47.492,30.968 47.899,26L28.827,26Z" fill="#374957"/>
<path d="M22.585,25.414L21.999,24.828L21.999,0.1C18.23,0.409 14.588,1.604 11.369,3.587C8.15,5.571 5.445,8.286 3.475,11.514C1.505,14.741 0.325,18.388 0.031,22.157C-0.262,25.927 0.339,29.712 1.786,33.205C3.234,36.699 5.485,39.8 8.359,42.258C11.232,44.716 14.645,46.46 18.321,47.348C21.996,48.236 25.829,48.244 29.508,47.37C33.186,46.496 36.606,44.765 39.489,42.318L22.585,25.414Z" fill="#374957"/>
<path d="M26.001,22L47.901,22C47.429,16.35 44.97,11.05 40.961,7.04C36.951,3.031 31.651,0.572 26.001,0.1L26.001,22Z" fill="#374957"/>
</svg>
