<svg width="48" height="48" viewBox="0 0 48 48" fill="none" xmlns="http://www.w3.org/2000/svg" xmlns:xlink="http://www.w3.org/1999/xlink">
<path d="M43.999,24L43.999,6C43.999,4.409 43.367,2.883 42.242,1.757C41.116,0.632 39.59,0 37.999,0L9.999,0C8.408,0 6.882,0.632 5.756,1.757C4.631,2.883 3.999,4.409 3.999,6L3.999,24L43.999,24Z" fill="#374957"/>
<path d="M0,28.001L0,32.001L22,32.001L22,40.001L18,40.001C16.409,40.001 14.883,40.633 13.757,41.758C12.632,42.884 12,44.41 12,46.001L12,48.001L16,48.001L16,46.001C16,45.471 16.211,44.962 16.586,44.587C16.961,44.212 17.47,44.001 18,44.001L30,44.001C30.53,44.001 31.039,44.212 31.414,44.587C31.789,44.962 32,45.471 32,46.001L32,48.001L36,48.001L36,46.001C36,44.41 35.368,42.884 34.243,41.758C33.117,40.633 31.591,40.001 30,40.001L26,40.001L26,32.001L48,32.001L48,28.001L0,28.001Z" fill="#374957"/>
</svg>
