<svg width="48" height="50" viewBox="0 0 48 50" fill="none" xmlns="http://www.w3.org/2000/svg" xmlns:xlink="http://www.w3.org/1999/xlink">
<path d="M24,28C22.409,28 20.883,28.632 19.757,29.757C18.632,30.882 18,32.408 18,34L18,48.052L30,48.052L30,34C30,32.408 29.368,30.882 28.243,29.757C27.117,28.632 25.591,28 24,28Z" fill="#374957"/>
<path d="M26.676,1.666C25.941,1.005 24.988,0.639 24,0.639C23.012,0.639 22.059,1.005 21.324,1.666L0,20.858L0,41.658C0,43.356 0.674,44.983 1.875,46.184C3.075,47.384 4.703,48.058 6.4,48.058L14,48.058L14,34C14,31.348 15.054,28.804 16.929,26.929C18.804,25.054 21.348,24 24,24C26.652,24 29.196,25.054 31.071,26.929C32.946,28.804 34,31.348 34,34L34,48.052L41.6,48.052C43.297,48.052 44.925,47.378 46.125,46.178C47.326,44.977 48,43.35 48,41.652L48,20.852L26.676,1.666Z" fill="#374957"/>
</svg>
