<svg width="48" height="48" viewBox="0 0 48 48" fill="none" xmlns="http://www.w3.org/2000/svg" xmlns:xlink="http://www.w3.org/1999/xlink">
<path d="M42,6L6,6C4.409,6 2.883,6.632 1.757,7.757C0.632,8.883 0,10.409 0,12L0,16L48,16L48,12C48,10.409 47.368,8.883 46.243,7.757C45.117,6.632 43.591,6 42,6Z" fill="#374957"/>
<path d="M0,42L48,42L48,20L0,20L0,42ZM14,30.999C14,31.593 13.824,32.173 13.494,32.666C13.165,33.16 12.696,33.544 12.148,33.771C11.6,33.998 10.997,34.058 10.415,33.942C9.833,33.826 9.298,33.54 8.879,33.121C8.459,32.701 8.173,32.167 8.058,31.585C7.942,31.003 8.001,30.4 8.228,29.851C8.455,29.303 8.84,28.835 9.333,28.505C9.827,28.175 10.407,27.999 11,27.999C11.796,27.999 12.559,28.316 13.121,28.878C13.684,29.441 14,30.204 14,30.999Z" fill="#374957"/>
</svg>
