<svg width="48" height="48" viewBox="0 0 48 48" fill="none" xmlns="http://www.w3.org/2000/svg" xmlns:xlink="http://www.w3.org/1999/xlink">
<path d="M19.999,11.999C21.704,12.006 23.362,12.559 24.729,13.577C26.097,14.595 27.103,16.024 27.599,17.655L31.953,19.237C31.809,16.932 31.003,14.717 29.632,12.859C28.26,11 26.382,9.577 24.221,8.76C22.061,7.943 19.71,7.767 17.452,8.253C15.194,8.739 13.125,9.866 11.491,11.499C9.858,13.132 8.731,15.202 8.245,17.46C7.759,19.718 7.935,22.069 8.752,24.229C9.569,26.389 10.992,28.268 12.851,29.64C14.709,31.011 16.924,31.817 19.229,31.961L17.655,27.599C15.829,27.038 14.266,25.84 13.248,24.224C12.231,22.607 11.827,20.679 12.111,18.79C12.395,16.901 13.347,15.177 14.795,13.93C16.242,12.684 18.089,11.999 19.999,11.999L19.999,11.999Z" fill="#374957"/>
<path d="M20,36C16.835,36 13.742,35.062 11.111,33.304C8.479,31.545 6.429,29.047 5.218,26.123C4.007,23.199 3.69,19.982 4.307,16.879C4.924,13.775 6.448,10.924 8.686,8.686C10.924,6.449 13.774,4.925 16.878,4.308C19.982,3.69 23.199,4.007 26.123,5.218C29.046,6.429 31.545,8.48 33.303,11.111C35.061,13.742 36,16.836 36,20C36,20.234 35.974,20.462 35.964,20.694L39.884,22.12C40.329,17.998 39.485,13.84 37.467,10.218C35.449,6.597 32.357,3.69 28.618,1.9C24.879,0.11 20.676,-0.476 16.59,0.223C12.503,0.922 8.734,2.872 5.803,5.803C2.871,8.735 0.922,12.504 0.222,16.59C-0.477,20.676 0.109,24.879 1.9,28.618C3.69,32.358 6.596,35.449 10.218,37.467C13.839,39.485 17.998,40.329 22.12,39.884L20.694,35.964C20.462,35.974 20.234,36 20,36Z" fill="#374957"/>
<path d="M48,29.557L27.076,21.957C26.361,21.697 25.586,21.647 24.843,21.812C24.101,21.977 23.42,22.35 22.882,22.888C22.344,23.426 21.97,24.106 21.805,24.849C21.64,25.592 21.69,26.366 21.95,27.081L29.558,47.999L37.358,40.199L42.944,45.785L45.772,42.957L40.2,37.365L48,29.557Z" fill="#374957"/>
</svg>
