<svg width="48" height="50" viewBox="0 0 48 50" fill="none" xmlns="http://www.w3.org/2000/svg" xmlns:xlink="http://www.w3.org/1999/xlink">
<path d="M42.758,39.93L47,44.174L44.172,47.002L39.928,42.76L35.686,47.002L32.858,44.174L37.1,39.93L32.858,35.688L35.686,32.86L39.928,37.102L44.172,32.86L47,35.688L42.758,39.93Z" fill="#374957"/>
<path d="M24.033,0.001C10.799,-0.039 0.039,10.673 -0.001,23.927C-0.041,37.181 10.653,47.961 23.885,48.001C26.079,48.007 28.265,47.713 30.379,47.123C26.443,41.807 27.557,34.301 32.865,30.359C37.097,27.217 42.883,27.217 47.115,30.359C50.657,17.625 43.223,4.427 30.511,0.879C28.403,0.291 26.223,-0.005 24.033,0.001L24.033,0.001ZM26.033,22.829L19.447,29.415L16.619,26.587L22.033,21.173L22.033,12.001L26.033,12.001L26.033,22.829Z" fill="#374957"/>
</svg>
