<svg width="48" height="48" viewBox="0 0 48 48" fill="none" xmlns="http://www.w3.org/2000/svg" xmlns:xlink="http://www.w3.org/1999/xlink">
<path d="M38,46.828L46.828,38L38,38L38,46.828Z" fill="#374957"/>
<path d="M32.62,12.554L31.22,12.554L31.264,19.4C31.788,19.4 32.344,19.4 32.664,19.386C34.374,19.356 35.138,17.654 35.138,15.986C35.146,15.176 34.964,12.554 32.62,12.554Z" fill="#374957"/>
<path d="M42,0L6,0C2.686,0 0,2.686 0,6L0,48L34,48L34,34L48,34L48,6C48,2.686 45.314,0 42,0ZM11.894,17.94L10.46,17.94L10.46,22.14L7.96,22.14L7.96,10L11.894,10C14.087,10 15.864,11.777 15.864,13.97C15.864,16.163 14.087,17.94 11.894,17.94ZM20.766,13.89C20.796,13.89 21.994,14.416 23.31,14.902C25.147,15.318 26.366,17.062 26.126,18.93C25.695,20.815 23.977,22.121 22.046,22.034C20.432,22.049 18.886,21.383 17.788,20.2L16.948,19.274L18.8,17.6L19.64,18.526C20.268,19.175 21.136,19.537 22.04,19.526C22.756,19.593 23.425,19.162 23.66,18.482C23.784,17.794 22.758,17.358 22.44,17.24C20.936,16.686 19.58,16.08 19.58,16.08C18.466,15.443 17.851,14.193 18.026,12.922C18.238,11.595 19.207,10.515 20.504,10.162C22.216,9.732 24.031,10.129 25.408,11.234L26.366,12.034L24.766,13.946L23.814,13.146C23.085,12.574 22.14,12.354 21.234,12.546C20.867,12.617 20.581,12.904 20.51,13.27C20.461,13.51 20.562,13.755 20.766,13.89ZM28.742,21.91L28.72,10.07L28.72,10.054L32.62,10.054C35.62,10.054 37.646,12.436 37.646,15.98C37.646,18.955 35.819,21.569 32.875,21.879C32.823,21.883 32.76,21.884 32.718,21.886L28.742,21.91Z" fill="#374957"/>
<path d="M11.894,12.5L10.464,12.5L10.464,15.446L11.884,15.446C12.696,15.446 13.354,14.789 13.355,13.977C13.355,13.165 12.697,12.506 11.886,12.506C11.885,12.506 11.884,12.506 11.884,12.506L11.894,12.5Z" fill="#374957"/>
</svg>
