<svg width="48" height="48" viewBox="0 0 48 48" fill="none" xmlns="http://www.w3.org/2000/svg" xmlns:xlink="http://www.w3.org/1999/xlink">
<path d="M30,0L6,0C4.409,0 2.883,0.632 1.757,1.757C0.632,2.883 0,4.409 0,6L0,22L30,22L30,0Z" fill="#374957"/>
<path d="M41.999,0L33.999,0L33.999,22L47.999,22L47.999,6C47.999,4.409 47.367,2.883 46.242,1.757C45.116,0.632 43.59,0 41.999,0L41.999,0Z" fill="#374957"/>
<path d="M14,26L0,26L0,42C0,43.592 0.632,45.118 1.757,46.243C2.883,47.368 4.409,48 6,48L14,48L14,26Z" fill="#374957"/>
<path d="M48,26L18,26L18,48L42,48C43.591,48 45.117,47.368 46.243,46.243C47.368,45.118 48,43.592 48,42L48,26Z" fill="#374957"/>
</svg>
