<svg width="48" height="50" viewBox="0 0 48 50" fill="none" xmlns="http://www.w3.org/2000/svg" xmlns:xlink="http://www.w3.org/1999/xlink">
<path d="M37,46L36.934,46C35.912,45.984 34.94,45.55 34.244,44.8L29.908,40.276L32.8,37.512L37.012,41.912L45.174,33.748L48,36.57L39.678,44.894C38.97,45.606 38.004,46.006 37,46L37,46Z" fill="#374957"/>
<path d="M24.033,0.001C10.799,-0.039 0.039,10.673 -0.001,23.927C-0.041,37.181 10.653,47.961 23.885,48.001C26.079,48.007 28.265,47.713 30.379,47.123C26.443,41.807 27.557,34.301 32.865,30.359C37.097,27.217 42.883,27.217 47.115,30.359C50.657,17.625 43.223,4.427 30.511,0.879C28.403,0.291 26.223,-0.005 24.033,0.001L24.033,0.001ZM26.033,22.829L19.447,29.415L16.619,26.587L22.033,21.173L22.033,12.001L26.033,12.001L26.033,22.829Z" fill="#374957"/>
</svg>
