<svg width="48" height="48" viewBox="0 0 48 48" fill="none" xmlns="http://www.w3.org/2000/svg" xmlns:xlink="http://www.w3.org/1999/xlink">
<path d="M30,4.833L30,9.033C34.003,10.448 37.377,13.233 39.526,16.895C41.674,20.558 42.459,24.862 41.741,29.047C41.023,33.232 38.848,37.028 35.602,39.765C32.356,42.502 28.246,44.003 24,44.003C19.754,44.003 15.645,42.502 12.398,39.765C9.152,37.028 6.977,33.232 6.259,29.047C5.541,24.862 6.326,20.558 8.474,16.895C10.623,13.233 13.997,10.448 18,9.033L18,4.833C12.891,6.281 8.479,9.528 5.577,13.975C2.674,18.421 1.478,23.768 2.21,29.027C2.941,34.287 5.549,39.105 9.554,42.591C13.559,46.078 18.69,47.999 24,47.999C29.31,47.999 34.441,46.078 38.446,42.591C42.451,39.105 45.059,34.287 45.791,29.027C46.522,23.768 45.326,18.421 42.424,13.975C39.521,9.528 35.109,6.281 30,4.833L30,4.833Z" fill="#374957"/>
<rect  x="22" y="0" width="4" height="16" fill="#374957"/>
</svg>
