<svg width="48" height="50" viewBox="0 0 48 50" fill="none" xmlns="http://www.w3.org/2000/svg" xmlns:xlink="http://www.w3.org/1999/xlink">
<path d="M44.242,19.758L24.492,0L21.664,2.836L41.414,22.586C41.789,22.961 41.999,23.47 41.999,24C41.999,24.53 41.789,25.039 41.414,25.414L21.638,45.2L24.466,48.028L44.242,28.252C45.366,27.127 45.998,25.601 45.998,24.01C45.998,22.419 45.366,20.893 44.242,19.768L44.242,19.758Z" fill="#374957"/>
<path d="M27.07,22.586L4.524,0.038L1.694,2.866L22.828,24L1.672,45.156L4.5,47.986L27.07,25.414C27.445,25.039 27.655,24.53 27.655,24C27.655,23.47 27.445,22.961 27.07,22.586L27.07,22.586Z" fill="#374957"/>
</svg>
