<svg width="48" height="48" viewBox="0 0 48 48" fill="none" xmlns="http://www.w3.org/2000/svg" xmlns:xlink="http://www.w3.org/1999/xlink">
<path d="M0,6L0,22L22,22L22,0L6,0C4.409,0 2.883,0.632 1.757,1.757C0.632,2.883 0,4.409 0,6L0,6Z" fill="#374957"/>
<path d="M42,0L26,0L26,22L48,22L48,6C48,4.409 47.368,2.883 46.243,1.757C45.117,0.632 43.591,0 42,0L42,0Z" fill="#374957"/>
<path d="M0,42C0,43.591 0.632,45.117 1.757,46.243C2.883,47.368 4.409,48 6,48L22,48L22,26L0,26L0,42Z" fill="#374957"/>
<path d="M26,48L42,48C43.591,48 45.117,47.368 46.243,46.243C47.368,45.117 48,43.591 48,42L48,26L26,26L26,48Z" fill="#374957"/>
</svg>
