<svg width="48" height="48" viewBox="0 0 48 48" fill="none" xmlns="http://www.w3.org/2000/svg" xmlns:xlink="http://www.w3.org/1999/xlink">
<rect  x="9.999" y="0" width="28" height="10" fill="#374957"/>
<rect  x="12" y="30" width="24" height="18" fill="#374957"/>
<path d="M42,13.999L6,13.999C4.409,13.999 2.883,14.631 1.757,15.756C0.632,16.881 0,18.407 0,19.999L0,39.999L8,39.999L8,25.999L40,25.999L40,39.999L48,39.999L48,19.999C48,18.407 47.368,16.881 46.243,15.756C45.117,14.631 43.591,13.999 42,13.999ZM38,21.999L30,21.999L30,17.999L38,17.999L38,21.999Z" fill="#374957"/>
</svg>
