<svg width="48" height="50" viewBox="0 0 48 50" fill="none" xmlns="http://www.w3.org/2000/svg" xmlns:xlink="http://www.w3.org/1999/xlink">
<path d="M11.046,3.49L8.912,0.112C5.46,2.137 2.443,4.825 0.034,8.022L3.36,10.24C5.455,7.508 8.067,5.215 11.046,3.49L11.046,3.49Z" fill="#374957"/>
<path d="M44.64,10.24L47.966,8.022C45.557,4.825 42.54,2.137 39.088,0.112L36.954,3.49C39.933,5.215 42.545,7.508 44.64,10.24L44.64,10.24Z" fill="#374957"/>
<path d="M26,4.102L26,0L22,0L22,4.102C17.909,4.468 14.002,5.974 10.724,8.449C7.446,10.925 4.928,14.27 3.457,18.105C1.985,21.94 1.619,26.112 2.401,30.144C3.182,34.177 5.079,37.91 7.876,40.918L4.02,45.154L6.98,47.846L10.848,43.6C14.637,46.459 19.254,48.006 24,48.006C28.746,48.006 33.364,46.459 37.152,43.6L41.02,47.852L43.98,45.16L40.124,40.924C42.923,37.916 44.821,34.183 45.604,30.149C46.386,26.115 46.02,21.943 44.549,18.107C43.077,14.271 40.559,10.924 37.28,8.448C34.001,5.973 30.093,4.467 26,4.102L26,4.102ZM28.586,31.414L22,24.828L22,14L26,14L26,23.172L31.414,28.586L28.586,31.414Z" fill="#374957"/>
</svg>
