<svg width="48" height="48" viewBox="0 0 48 48" fill="none" xmlns="http://www.w3.org/2000/svg" xmlns:xlink="http://www.w3.org/1999/xlink">
<path d="M28,38C28,35.684 28.671,33.417 29.931,31.473C31.191,29.529 32.986,27.991 35.101,27.046C37.216,26.1 39.559,25.787 41.848,26.143C44.137,26.5 46.273,27.512 48,29.056L48,12L36,12C36,8.817 34.736,5.765 32.485,3.515C30.235,1.264 27.183,0 24,0C20.817,0 17.765,1.264 15.515,3.515C13.264,5.765 12,8.817 12,12L0,12L0,42C0,43.591 0.632,45.117 1.757,46.243C2.883,47.368 4.409,48 6,48L33.366,48C31.715,46.906 30.361,45.42 29.425,43.675C28.488,41.93 27.999,39.98 28,38L28,38ZM24,4C26.122,4 28.157,4.843 29.657,6.343C31.157,7.843 32,9.878 32,12L16,12C16,9.878 16.843,7.843 18.343,6.343C19.843,4.843 21.878,4 24,4L24,4Z" fill="#374957"/>
<path d="M45.999,35.999L41.999,35.999L41.999,31.999L37.999,31.999L37.999,35.999L33.999,35.999L33.999,39.999L37.999,39.999L37.999,43.999L41.999,43.999L41.999,39.999L45.999,39.999L45.999,35.999Z" fill="#374957"/>
</svg>
