<svg width="48" height="48" viewBox="0 0 48 48" fill="none" xmlns="http://www.w3.org/2000/svg" xmlns:xlink="http://www.w3.org/1999/xlink">
<circle cx="32" cy="14" r="6" fill="#374957"/>
<path d="M8,38C8,38.53 8.211,39.039 8.586,39.414C8.961,39.789 9.47,40 10,40L40,40L40,37.171L22.242,19.413C21.117,18.289 19.591,17.657 18,17.657C16.409,17.657 14.883,18.289 13.758,19.413L8,25.171L8,38Z" fill="#374957"/>
<path d="M42,48L32,48L32,44L42,44C42.53,44 43.039,43.79 43.414,43.415C43.789,43.04 44,42.531 44,42L44,32L48,32L48,42C48,43.592 47.368,45.118 46.243,46.243C45.117,47.368 43.591,48 42,48Z" fill="#374957"/>
<path d="M4,16L0,16L0,6C0,4.409 0.632,2.883 1.757,1.757C2.883,0.632 4.409,0 6,0L16,0L16,4L6,4C5.47,4 4.961,4.211 4.586,4.586C4.211,4.961 4,5.47 4,6L4,16Z" fill="#374957"/>
<path d="M16,48L6,48C4.409,48 2.883,47.368 1.757,46.243C0.632,45.118 0,43.592 0,42L0,32L4,32L4,42C4,42.531 4.211,43.04 4.586,43.415C4.961,43.79 5.47,44 6,44L16,44L16,48Z" fill="#374957"/>
<path d="M48,16L44,16L44,6C44,5.47 43.789,4.961 43.414,4.586C43.039,4.211 42.53,4 42,4L32,4L32,0L42,0C43.591,0 45.117,0.632 46.243,1.757C47.368,2.883 48,4.409 48,6L48,16Z" fill="#374957"/>
</svg>
