<svg width="48" height="48" viewBox="0 0 48 48" fill="none" xmlns="http://www.w3.org/2000/svg" xmlns:xlink="http://www.w3.org/1999/xlink">
<path d="M30.954,37.22C30.954,34.654 29.338,33.162 26.24,30.532C25.54,29.932 24.784,29.296 24.004,28.588C23.114,29.406 22.268,30.126 21.492,30.788C18.4,33.4 17.046,34.678 17.046,37.22C17.046,39.065 17.779,40.833 19.083,42.138C20.387,43.442 22.156,44.174 24,44.174C25.844,44.174 27.613,43.442 28.917,42.138C30.221,40.833 30.954,39.065 30.954,37.22L30.954,37.22Z" fill="#374957"/>
<path d="M32.816,8.07C30.416,6.032 27.936,3.926 25.428,1.42L24,0L22.6,1.422C18.092,5.946 15.96,12.894 15.036,17.062C14.327,15.964 13.801,14.758 13.478,13.492L12.624,10.218L10.158,12.532C5.84,16.588 2.958,20.61 2.958,27.05C2.916,31.697 4.429,36.225 7.255,39.914C10.082,43.602 14.06,46.241 18.558,47.41C19.688,47.696 20.839,47.894 22,48C19.482,47.531 17.208,46.197 15.57,44.228C13.932,42.26 13.034,39.781 13.03,37.22C13.03,32.72 15.744,30.42 18.886,27.736C20.008,26.782 21.286,25.7 22.576,24.402L24,22.986L25.416,24.402C26.568,25.554 27.72,26.53 28.834,27.478C31.986,30.152 34.962,32.678 34.962,37.22C34.959,39.771 34.067,42.241 32.441,44.206C30.815,46.171 28.555,47.508 26.05,47.988C31.251,47.483 36.078,45.06 39.589,41.189C43.099,37.319 45.043,32.28 45.04,27.054C45.04,18.45 39.374,13.64 32.816,8.07Z" fill="#374957"/>
</svg>
