<svg width="48" height="48" viewBox="0 0 48 48" fill="none" xmlns="http://www.w3.org/2000/svg" xmlns:xlink="http://www.w3.org/1999/xlink">
<path d="M6,43.952C5.47,43.952 4.961,43.741 4.586,43.366C4.211,42.991 4,42.482 4,41.952L4,0L0,0L0,41.952C0,43.543 0.632,45.069 1.757,46.195C2.883,47.32 4.409,47.952 6,47.952L48,47.952L48,43.952L6,43.952Z" fill="#374957"/>
<rect  x="10" y="24" width="4" height="14" fill="#374957"/>
<rect  x="20" y="20" width="4" height="18" fill="#374957"/>
<rect  x="30" y="26" width="4" height="12" fill="#374957"/>
<rect  x="40" y="18" width="4" height="20" fill="#374957"/>
<path d="M22,8.828L32,18.828L47.414,3.414L44.586,0.586L32,13.172L22,3.172L10.586,14.586L13.414,17.414L22,8.828Z" fill="#374957"/>
</svg>
