<svg width="50" height="48" viewBox="0 0 50 48" fill="none" xmlns="http://www.w3.org/2000/svg" xmlns:xlink="http://www.w3.org/1999/xlink">
<path d="M41.052,32.6C42.11,29.671 42.692,26.591 42.776,23.478C42.792,22.921 42.692,22.367 42.483,21.85C42.274,21.334 41.959,20.867 41.56,20.478L37.922,16.938L48.012,6.848L45.152,3.988L35.028,14.112L30.614,9.8C29.894,9.101 28.938,8.698 27.935,8.671C26.933,8.643 25.956,8.994 25.2,9.652C23.868,10.817 22.472,11.907 21.02,12.916L41.052,32.6Z" fill="#374957"/>
<path d="M17.542,15.114C15.937,16.062 14.23,16.824 12.454,17.388L0,21.042L0,22.54C-0.003,25.784 0.629,28.998 1.86,32L5.276,31.442C8.518,30.597 11.483,28.919 13.876,26.574L16.676,29.434C13.731,32.308 10.077,34.352 6.086,35.356L3.774,35.738C5.139,37.927 6.825,39.898 8.774,41.588L12.826,40.084L15.626,38.684C18.511,37.23 20.979,35.068 22.8,32.4L23.838,30.878L27.142,33.13L26.106,34.652C23.899,37.881 20.907,40.496 17.412,42.252L14.312,43.798L12.682,44.398C16.726,46.765 21.328,48.009 26.014,48L28.49,48L29.006,47.64C33.255,44.771 36.778,40.952 39.294,36.486L17.542,15.114Z" fill="#374957"/>
</svg>
