<svg width="50" height="48" viewBox="0 0 50 48" fill="none" xmlns="http://www.w3.org/2000/svg" xmlns:xlink="http://www.w3.org/1999/xlink">
<path d="M22,33.998L12.172,33.998L0.09,21.916C0.032,22.598 0,23.296 0,23.998C0,30.017 2.262,35.816 6.337,40.246C10.412,44.675 16.002,47.412 22,47.914L22,33.998Z" fill="#374957"/>
<path d="M38.252,38.249C36.902,36.906 35.831,35.309 35.101,33.55C34.371,31.791 33.997,29.905 34,28.001L26,28.001C24.409,28.001 22.883,27.369 21.757,26.244C20.632,25.118 20,23.592 20,22.001L20,16.001L26,16.001L26,8.001L34.172,8.001L37.8,4.367C34.686,2.179 31.096,0.763 27.326,0.236C23.557,-0.29 19.716,0.087 16.122,1.337C12.527,2.587 9.281,4.674 6.651,7.425C4.022,10.177 2.085,13.515 1,17.163L13.828,30.001L20,30.001C21.591,30.001 23.117,30.633 24.243,31.758C25.368,32.884 26,34.41 26,36.001L26,47.917C31.856,47.433 37.329,44.812 41.378,40.553L38.252,38.249Z" fill="#374957"/>
<path d="M40.978,35.316L43.886,37.44C47.019,32.804 48.433,27.22 47.886,21.652C47.338,16.084 44.862,10.882 40.886,6.946L35.828,12.002L30,12.002L30,20.002L24,20.002L24,24.002L38,24.002L38,27.982C38.008,30.719 39.076,33.347 40.978,35.316L40.978,35.316Z" fill="#374957"/>
</svg>
