<svg width="48" height="48" viewBox="0 0 48 48" fill="none" xmlns="http://www.w3.org/2000/svg" xmlns:xlink="http://www.w3.org/1999/xlink">
<path d="M38,46.828L46.828,38L38,38L38,46.828Z" fill="#374957"/>
<path d="M46.838,3.136C46.464,2.762 46.018,2.468 45.527,2.272C45.035,2.076 44.509,1.983 43.98,1.998C43.452,2.012 42.931,2.134 42.452,2.357C41.972,2.58 41.543,2.898 41.19,3.292L23.67,22.692C25.725,23.508 27.455,24.98 28.59,26.878L46.838,8.63C47.566,7.901 47.975,6.913 47.975,5.883C47.975,4.853 47.566,3.865 46.838,3.136L46.838,3.136Z" fill="#374957"/>
<path d="M29.964,31.166C29.988,31.442 30,31.72 30,32C29.997,34.651 28.942,37.193 27.068,39.068C25.193,40.942 22.651,41.997 20,42L10,42C9.419,42 8.845,41.874 8.318,41.629C7.791,41.385 7.323,41.029 6.947,40.586C6.572,40.142 6.297,39.622 6.143,39.062C5.989,38.502 5.958,37.915 6.054,37.342C6.962,31.89 10.67,22.828 18.854,22.054L38.21,0.626C38.407,0.406 38.616,0.197 38.836,0L6,0C4.409,0 2.883,0.632 1.757,1.757C0.632,2.883 0,4.409 0,6L0,48L34,48L34,34L48,34L48,13.13L29.964,31.166Z" fill="#374957"/>
<path d="M10,38C10,38 12,26 20,26C21.591,26 23.117,26.633 24.243,27.758C25.368,28.883 26,30.409 26,32C26,33.592 25.368,35.118 24.243,36.243C23.117,37.368 21.591,38 20,38L10,38Z" fill="#374957"/>
</svg>
