<svg width="48" height="48" viewBox="0 0 48 48" fill="none" xmlns="http://www.w3.org/2000/svg" xmlns:xlink="http://www.w3.org/1999/xlink">
<path d="M12,14L6,14C4.409,14 2.883,14.768 1.757,16.134C0.632,17.5 0,19.353 0,21.286L0,40.714C0,42.647 0.632,44.5 1.757,45.866C2.883,47.232 4.409,48 6,48L12,48L12,14Z" fill="#374957"/>
<path d="M28,14.403L29.11,6.416C29.302,5.226 29.158,3.993 28.7,2.912C28.242,1.832 27.497,0.965 26.582,0.45C25.533,-0.099 24.349,-0.148 23.271,0.315C22.193,0.777 21.303,1.716 20.782,2.939L16,14.403L16,48L44,48L48,21.602L48,14.403L28,14.403Z" fill="#374957"/>
</svg>
