<svg width="48" height="48" viewBox="0 0 48 48" fill="none" xmlns="http://www.w3.org/2000/svg" xmlns:xlink="http://www.w3.org/1999/xlink">
<path d="M36,18L12,18C10.939,18 9.922,18.421 9.172,19.172C8.421,19.922 8,20.939 8,22L8,32C8,36.243 9.686,40.313 12.686,43.314C15.687,46.314 19.757,48 24,48C28.243,48 32.313,46.314 35.314,43.314C38.314,40.313 40,36.243 40,32L40,22C40,20.939 39.579,19.922 38.828,19.172C38.078,18.421 37.061,18 36,18Z" fill="#374957"/>
<path d="M36,0L12,0L12,14L36,14L36,0ZM22,10L18,10L18,6L22,6L22,10ZM30,10L26,10L26,6L30,6L30,10Z" fill="#374957"/>
</svg>
