<svg width="48" height="48" viewBox="0 0 48 48" fill="none" xmlns="http://www.w3.org/2000/svg" xmlns:xlink="http://www.w3.org/1999/xlink">
<path d="M36.75,2.906L11.25,2.906L11.25,45.094L36.75,45.094L36.75,2.906ZM28.313,42.281L19.688,42.281L19.688,31.031L28.313,31.031L28.313,42.281ZM33.938,42.281L31.125,42.281L31.125,28.219L16.875,28.219L16.875,42.281L14.063,42.281L14.063,5.719L33.938,5.719L33.938,42.281Z" fill="#000000"/>
<rect  x="22.594" y="33.844" width="2.813" height="2.813" fill="#000000"/>
<rect  x="16.875" y="8.531" width="14.25" height="2.813" fill="#000000"/>
<rect  x="16.875" y="14.156" width="14.25" height="2.813" fill="#000000"/>
<rect  x="16.875" y="19.781" width="14.25" height="2.813" fill="#000000"/>
<rect  x="0" y="8.531" width="2.813" height="2.813" fill="#000000"/>
<rect  x="5.625" y="11.344" width="2.813" height="2.813" fill="#000000"/>
<rect  x="0" y="14.156" width="2.813" height="2.813" fill="#000000"/>
<rect  x="0" y="19.781" width="2.813" height="2.813" fill="#000000"/>
<rect  x="5.625" y="16.969" width="2.813" height="2.813" fill="#000000"/>
<rect  x="39.563" y="11.344" width="2.813" height="2.813" fill="#000000"/>
<rect  x="45.188" y="14.156" width="2.813" height="2.813" fill="#000000"/>
<rect  x="39.563" y="16.969" width="2.813" height="2.813" fill="#000000"/>
<rect  x="45.188" y="8.531" width="2.813" height="2.813" fill="#000000"/>
<rect  x="45.188" y="19.781" width="2.813" height="2.813" fill="#000000"/>
</svg>
