<svg width="40" height="48" viewBox="0 0 40 48" fill="none" xmlns="http://www.w3.org/2000/svg" xmlns:xlink="http://www.w3.org/1999/xlink">
<path d="M33.261,34.479C33.261,34.479 31.214,36.764 30.242,38.115C29.323,39.394 28.102,41.275 28.102,42.842C28.102,45.687 30.416,48.001 33.261,48.001C36.105,48.001 38.42,45.687 38.42,42.842C38.42,41.275 37.198,39.394 36.279,38.115C35.308,36.764 33.261,34.479 33.261,34.479ZM33.261,45.188C31.967,45.188 30.914,44.136 30.914,42.842C30.914,42.239 31.823,40.586 33.261,38.767C34.699,40.587 35.607,42.239 35.607,42.842C35.607,44.136 34.555,45.188 33.261,45.188Z" fill="#000000"/>
<path d="M33.932,15.808L16.683,15.808L16.683,10.394C19.011,9.148 20.599,6.693 20.599,3.873L20.599,0L16.726,0C14.266,0 12.085,1.208 10.741,3.061C9.396,1.208 7.215,0 4.756,0L0.883,0L0.883,3.873C0.883,6.693 2.47,9.148 4.798,10.394L4.798,48L16.683,48L16.683,25.133L26.446,25.133L26.446,31.204L39.114,31.204L39.114,20.989L33.932,15.808ZM16.725,2.813L17.786,2.813L17.786,3.873C17.786,6.398 15.732,8.452 13.208,8.452L12.147,8.452L12.147,7.391C12.147,4.866 14.201,2.813 16.725,2.813ZM3.695,2.813L4.756,2.813C7.281,2.813 9.334,4.866 9.334,7.391L9.334,8.452L8.274,8.452C5.749,8.452 3.695,6.398 3.695,3.873L3.695,2.813ZM13.871,11.264L13.871,15.808L7.611,15.808L7.611,11.264L13.871,11.264ZM7.611,45.188L7.611,18.62L13.871,18.62L13.871,45.188L7.611,45.188ZM16.683,18.62L32.767,18.62L36.301,22.154L36.301,22.321L16.683,22.321L16.683,18.62ZM29.259,28.392L29.259,25.133L36.301,25.133L36.301,28.392L29.259,28.392Z" fill="#000000"/>
</svg>
