<svg width="46" height="48" viewBox="0 0 46 48" fill="none" xmlns="http://www.w3.org/2000/svg" xmlns:xlink="http://www.w3.org/1999/xlink">
<path d="M11.697,47.447C11.744,47.55 11.931,47.719 12.091,47.812C12.381,48 12.71,48 28.216,48C45.766,48 44.51,48.047 44.819,47.391C44.95,47.109 44.969,44.822 44.969,24C44.969,3.178 44.95,0.891 44.819,0.609C44.51,-0.047 45.766,0 28.235,0C14.397,0 12.391,0.019 12.156,0.141C11.566,0.45 11.594,0.103 11.594,6.806L11.594,12.919L13.672,12.919C13.672,12 13.656,11.639 13.656,7.369L13.656,2.063L28.263,2.081L42.86,2.109L42.86,24L42.86,45.891L28.263,45.919L13.656,45.937L13.656,40.631C13.656,36.361 13.625,35.789 13.625,35.081L11.594,35.081L11.594,41.166C11.594,45.3 11.622,47.325 11.697,47.447Z" fill="#374957"/>
<path d="M22.056,32.125C21.962,32.519 22.159,33.016 22.506,33.222C22.712,33.353 22.9,33.4 23.162,33.362C23.509,33.325 23.847,33.006 27.972,28.881L33,24.025L27.925,19.131C23.837,15.034 23.425,14.65 23.144,14.65C22.44,14.65 21.915,15.25 22.047,15.906C22.094,16.131 22.9,16.984 25.497,19.6L28.89,22.994L14.359,22.994C3.814,22.994 0.911,22.999 0,23.071L0,24.979C0.911,25.051 3.814,25.056 14.359,25.056L28.89,25.056L25.506,28.459C23.162,30.803 22.094,31.937 22.056,32.125Z" fill="#374957"/>
</svg>
