<svg width="44" height="48" viewBox="0 0 44 48" fill="none" xmlns="http://www.w3.org/2000/svg" xmlns:xlink="http://www.w3.org/1999/xlink">
<path d="M21.992,0C23.648,0 24.991,1.342 24.991,2.998L24.991,12.993C24.991,14.649 23.648,15.991 21.992,15.991C20.337,15.991 18.994,14.649 18.994,12.993L18.994,2.998C18.994,1.342 20.336,0 21.992,0Z" fill="#374957"/>
<path d="M28.988,9.875C28.974,10.881 29.481,11.823 30.33,12.365C37.866,16.97 40.242,26.812 35.638,34.348C31.033,41.884 21.191,44.261 13.655,39.656C6.119,35.051 3.742,25.209 8.347,17.673C9.663,15.52 11.469,13.708 13.619,12.387C14.482,11.845 15.003,10.895 14.996,9.876C15.001,8.221 13.662,6.875 12.006,6.87C11.438,6.868 10.88,7.029 10.399,7.332C0.083,13.739 -3.085,27.296 3.323,37.611C9.73,47.926 23.286,51.095 33.602,44.687C43.917,38.28 47.085,24.724 40.678,14.408C38.894,11.537 36.473,9.116 33.602,7.332C32.196,6.446 30.339,6.866 29.452,8.271C29.149,8.751 28.989,9.307 28.988,9.875Z" fill="#374957"/>
</svg>
