<svg width="48" height="48" viewBox="0 0 48 48" fill="none" xmlns="http://www.w3.org/2000/svg" xmlns:xlink="http://www.w3.org/1999/xlink">
<path d="M43.126,4.874C39.983,1.731 35.804,0 31.359,0C26.914,0 22.735,1.731 19.592,4.874C15.977,8.467 14.205,13.596 14.843,18.702L11.7,30.002L0,41.702L6.298,48L17.998,36.3L29.298,33.157C34.31,33.805 39.549,32.029 43.126,28.408C46.269,25.265 48,21.086 48,16.641C48,12.196 46.269,8.017 43.126,4.874ZM44.874,19.549L41.965,16.641L44.874,13.733C45.283,15.648 45.283,17.634 44.874,19.549ZM43.873,10.756L39.977,14.652L37.657,12.332L42.081,7.907C42.806,8.795 43.403,9.753 43.873,10.756ZM31.359,23.27L29.039,20.95L31.359,18.63L33.679,20.95L31.359,23.27ZM35.668,22.939L40.093,27.364C39.214,28.083 38.26,28.684 37.249,29.16L33.348,25.259L35.668,22.939ZM22.625,27.364L27.05,22.939L29.37,25.259L25.469,29.16C24.458,28.684 23.504,28.083 22.625,27.364ZM17.837,13.726L20.752,16.641L17.837,19.556C17.448,17.767 17.419,15.638 17.837,13.726ZM22.741,18.63L25.061,20.95L20.636,25.375C19.918,24.496 19.316,23.542 18.84,22.531L22.741,18.63ZM31.359,10.012L33.679,12.332L31.359,14.652L29.039,12.332L31.359,10.012ZM27.05,10.344L22.625,5.919C23.513,5.194 24.471,4.597 25.474,4.127L29.37,8.023L27.05,10.344ZM33.348,8.023L37.244,4.127C38.247,4.597 39.205,5.194 40.093,5.919L35.668,10.344L33.348,8.023ZM29.37,16.641L27.05,18.961L24.73,16.641L27.05,14.321L29.37,16.641ZM33.348,16.641L35.668,14.321L37.988,16.641L35.668,18.961L33.348,16.641ZM34.267,3.126L31.359,6.035L28.451,3.126C30.267,2.736 32.328,2.707 34.267,3.126ZM20.636,7.907L25.061,12.332L22.741,14.652L18.84,10.751C19.316,9.74 19.917,8.786 20.636,7.907ZM6.298,44.023L3.977,41.702L12.956,32.724L15.276,35.044L6.298,44.023ZM17.679,33.469L14.531,30.321L16.338,23.823C17.143,25.503 18.236,27.052 19.592,28.408C20.948,29.764 22.497,30.857 24.178,31.662L17.679,33.469ZM28.444,30.163L31.359,27.248L34.274,30.163C32.484,30.552 30.356,30.58 28.444,30.163ZM42.081,25.375L37.656,20.95L39.977,18.63L43.873,22.526C43.403,23.529 42.806,24.487 42.081,25.375Z" fill="#000000"/>
<path d="M36.062,35.256C32.548,35.256 29.689,38.114 29.689,41.628C29.689,45.142 32.548,48 36.062,48C39.575,48 42.434,45.142 42.434,41.628C42.434,38.114 39.575,35.256 36.062,35.256ZM36.062,45.188C34.099,45.188 32.502,43.591 32.502,41.628C32.502,39.665 34.099,38.068 36.062,38.068C38.024,38.068 39.621,39.665 39.621,41.628C39.621,43.591 38.024,45.188 36.062,45.188Z" fill="#000000"/>
</svg>
