<svg width="48" height="48" viewBox="0 0 48 48" fill="none" xmlns="http://www.w3.org/2000/svg" xmlns:xlink="http://www.w3.org/1999/xlink">
<path d="M38.057,48L48,38.057L31.954,22.011L34.866,19.099C35.939,19.49 37.042,19.688 38.156,19.688C43.583,19.688 47.999,15.272 47.999,9.844C47.999,6.781 46.688,5.076 46.181,3.807L39.562,10.427L37.573,10.427L37.573,8.438L44.193,1.819C42.945,1.321 41.222,0.001 38.156,0.001C32.728,0.001 28.312,4.417 28.312,9.844C28.312,10.958 28.51,12.061 28.901,13.134L22.012,20.023L11.349,9.361L11.349,5.383L5.966,0L0,5.966L5.384,11.349L9.361,11.349L20.023,22.012L13.134,28.901C12.061,28.51 10.958,28.312 9.845,28.312C4.417,28.312 0.001,32.728 0.001,38.156C0.001,41.218 1.314,42.928 1.819,44.193L8.438,37.573L10.427,37.573L10.427,39.562L3.807,46.181C5.058,46.681 6.778,47.999 9.845,47.999C15.272,47.999 19.688,43.583 19.688,38.156C19.688,37.042 19.49,35.939 19.099,34.866L22.011,31.954L38.057,48ZM8.537,8.537L6.548,8.537L3.977,5.966L5.966,3.977L8.537,6.548L8.537,8.537ZM44.023,38.057L38.057,44.023L24,29.966L29.966,24L44.023,38.057ZM16.875,38.156C16.875,42.032 13.721,45.186 9.845,45.186C9.508,45.186 9.176,45.163 8.849,45.117L13.239,40.727L13.239,34.761L7.274,34.761L2.883,39.151C2.837,38.824 2.814,38.492 2.814,38.156C2.814,34.279 5.968,31.125 9.845,31.125C11.855,31.125 13.175,32.033 13.753,32.259L32.26,13.752C32.032,13.173 31.125,11.857 31.125,9.844C31.125,5.968 34.279,2.813 38.156,2.813C38.492,2.813 38.825,2.837 39.152,2.883L34.761,7.273L34.761,13.239L40.727,13.239L45.118,8.848C45.164,9.176 45.187,9.508 45.187,9.844C45.187,13.721 42.033,16.875 38.156,16.875C36.145,16.875 34.825,15.967 34.248,15.741L15.741,34.248C15.965,34.819 16.875,36.143 16.875,38.156Z" fill="#000000"/>
<path d="M32.6,26.885L35.412,26.885L35.412,41.138L32.6,41.138L32.6,26.885Z" transform="rotate(-90 34.006 34.012)" fill="#000000"/>
</svg>
