<svg width="48" height="48" viewBox="0 0 48 48" fill="none" xmlns="http://www.w3.org/2000/svg" xmlns:xlink="http://www.w3.org/1999/xlink">
<path d="M47.998,16.876L39.561,16.876L39.561,14.064L42.373,14.064L42.373,11.252L38.633,11.252L23.999,0L9.365,11.252L5.625,11.252L5.625,14.064L8.437,14.064L8.437,16.876L0,16.876L0,19.689L2.812,19.689L2.812,48L45.186,48L45.186,19.689L47.998,19.689L47.998,16.876ZM23.999,3.548L34.019,11.252L13.979,11.252L23.999,3.548ZM36.749,14.064L36.749,33.938L11.25,33.938L11.25,14.064L36.749,14.064ZM28.218,39.563L19.781,39.563L19.781,36.75L28.218,36.75L28.218,39.563ZM16.968,45.188L11.25,45.188L11.25,36.75L16.968,36.75L16.968,45.188ZM19.781,42.375L28.218,42.375L28.218,45.188L19.781,45.188L19.781,42.375ZM31.03,36.75L36.749,36.75L36.749,45.188L31.03,45.188L31.03,36.75ZM8.437,19.689L8.437,33.938L5.625,33.938L5.625,19.689L8.437,19.689ZM5.625,36.75L8.437,36.75L8.437,45.188L5.625,45.188L5.625,36.75ZM39.561,45.188L39.561,36.75L42.373,36.75L42.373,45.188L39.561,45.188ZM42.373,33.938L39.561,33.938L39.561,19.689L42.373,19.689L42.373,33.938Z" fill="#000000"/>
<path d="M22.593,28.126L22.593,16.877L14.063,16.877L14.063,28.126L22.593,28.126ZM16.875,19.689L19.781,19.689L19.781,25.314L16.875,25.314L16.875,19.689Z" fill="#000000"/>
<path d="M33.937,16.877L25.406,16.877L25.406,28.126L33.937,28.126L33.937,16.877ZM31.125,25.314L28.219,25.314L28.219,19.689L31.125,19.689L31.125,25.314Z" fill="#000000"/>
</svg>
