<svg width="48" height="48" viewBox="0 0 48 48" fill="none" xmlns="http://www.w3.org/2000/svg" xmlns:xlink="http://www.w3.org/1999/xlink">
<path d="M24,0C10.745,0 0,10.745 0,24C0,37.255 10.745,48 24,48C37.255,48 48,37.255 48,24C47.986,10.751 37.249,0.014 24,0ZM24,42C14.059,42 6,33.941 6,24C6,14.059 14.059,6 24,6C33.941,6 42,14.059 42,24C41.989,33.937 33.937,41.989 24,42Z" fill="#374957"/>
<path d="M24,30.182C25.657,30.182 27,28.839 27,27.182L27,13.182C27,11.525 25.657,10.182 24,10.182C22.343,10.182 21,11.525 21,13.182L21,27.182C21,28.839 22.343,30.182 24,30.182Z" fill="#374957"/>
<circle cx="24.01" cy="35" r="3" fill="#374957"/>
</svg>
