<svg width="44" height="46" viewBox="0 0 44 46" fill="none" xmlns="http://www.w3.org/2000/svg" xmlns:xlink="http://www.w3.org/1999/xlink">
<path d="M20.622,43.675C20.069,43.272 18.822,42.372 17.856,41.659L16.094,40.384L12.541,40.356C8.997,40.328 8.988,40.328 8.763,40.113C8.594,39.963 8.266,39.081 7.469,36.625L6.4,33.334L3.569,31.281C2.013,30.147 0.719,29.153 0.681,29.078C0.56,28.741 0.663,28.319 1.666,25.216L2.706,22L1.666,18.784C0.663,15.691 0.56,15.259 0.681,14.922C0.719,14.847 2.013,13.853 3.569,12.719L6.4,10.666L7.469,7.375C8.266,4.919 8.594,4.037 8.763,3.887C8.988,3.672 8.997,3.672 12.541,3.644L16.094,3.616L17.856,2.341C21.635,-0.416 21.616,-0.406 22,-0.406C22.385,-0.406 22.272,-0.481 26.125,2.322L27.86,3.578L31.441,3.625C34.994,3.672 35.022,3.672 35.238,3.887C35.406,4.037 35.735,4.919 36.531,7.375L37.6,10.666L40.403,12.691C41.941,13.797 43.234,14.791 43.281,14.884C43.338,14.978 43.375,15.166 43.375,15.306C43.375,15.447 42.906,17.012 42.335,18.784L41.294,22.009L42.335,25.225C42.906,26.988 43.375,28.553 43.375,28.694C43.375,28.834 43.338,29.022 43.281,29.116C43.234,29.209 41.941,30.194 40.403,31.309L37.6,33.344L36.531,36.625C35.735,39.081 35.406,39.963 35.238,40.113C35.022,40.328 34.994,40.328 31.441,40.375L27.86,40.422L26.153,41.659C22.328,44.444 22.385,44.406 22,44.406C21.7,44.406 21.466,44.284 20.622,43.675ZM24.635,40.45L27.25,38.547L30.597,38.5L33.953,38.453L34.985,35.313L36.025,32.172L38.641,30.269C40.085,29.219 41.275,28.319 41.294,28.272C41.313,28.234 40.872,26.8 40.319,25.094L39.316,22L40.319,18.906C40.872,17.2 41.313,15.766 41.294,15.728C41.275,15.681 40.085,14.781 38.641,13.731L36.025,11.828L34.985,8.687L33.953,5.547L30.597,5.5L27.25,5.453L24.625,3.55L22,1.647L19.356,3.569L16.703,5.5L13.375,5.519L10.047,5.547L9.016,8.687L7.975,11.828L5.331,13.75C3.878,14.809 2.688,15.709 2.688,15.756C2.688,15.803 3.138,17.228 3.681,18.925L4.685,22.009L3.681,25.103C3.128,26.8 2.688,28.234 2.706,28.272C2.725,28.319 3.916,29.219 5.36,30.269L7.985,32.172L9.016,35.313L10.047,38.453L13.375,38.481L16.703,38.5L19.328,40.422C20.772,41.472 21.972,42.334 21.991,42.334C22.01,42.344 23.2,41.491 24.635,40.45Z" fill="#6A70F0" stroke="#6A70F0" stroke-width="0.1" stroke-miterlimit="3.999327"/>
<path d="M20.332,35.046C18.691,34.821 16.957,34.24 15.579,33.453C14.369,32.759 13.525,32.093 12.522,31.043C10.769,29.215 9.682,27.162 9.138,24.621C8.847,23.253 8.847,20.796 9.138,19.428C9.682,16.906 10.76,14.843 12.485,13.043C14.266,11.168 16.357,9.931 18.757,9.321C22.432,8.393 26.154,9.05 29.435,11.215C30.316,11.796 32.238,13.718 32.829,14.618C33.841,16.146 34.544,17.843 34.9,19.634C35.154,20.89 35.135,23.346 34.863,24.621C34.282,27.303 33.194,29.3 31.235,31.259C29.285,33.218 27.279,34.315 24.644,34.868C23.575,35.093 21.363,35.187 20.332,35.046ZM24.438,33.003C27.738,32.253 30.541,30.05 32.069,27.012C32.857,25.437 33.204,23.928 33.204,22.025C33.204,20.553 33.091,19.812 32.679,18.537C32.135,16.859 31.235,15.396 29.932,14.093C28.329,12.5 26.454,11.468 24.25,11C23.257,10.784 20.95,10.756 19.985,10.953C15.354,11.871 11.847,15.378 10.929,20.009C10.732,20.975 10.76,23.281 10.975,24.275C11.454,26.478 12.485,28.371 14.069,29.956C15.747,31.625 17.857,32.731 20.032,33.087C20.416,33.143 20.8,33.209 20.875,33.228C21.269,33.331 23.707,33.171 24.438,33.003Z" fill="#6A70F0" stroke="#6A70F0" stroke-width="0.1" stroke-miterlimit="3.999327"/>
<path d="M19.281,19.087C18.512,18.843 17.875,18.309 17.519,17.634C17.303,17.221 17.266,17.043 17.266,16.359C17.266,15.674 17.303,15.496 17.519,15.084C17.8,14.549 18.241,14.118 18.841,13.809C19.394,13.518 20.547,13.509 21.166,13.799C21.728,14.053 22.272,14.606 22.563,15.187C22.881,15.843 22.881,16.874 22.563,17.531C22.272,18.121 21.728,18.665 21.175,18.918C20.706,19.124 19.666,19.218 19.281,19.087ZM20.613,17.024C20.866,16.799 20.922,16.687 20.922,16.359C20.922,16.031 20.866,15.918 20.613,15.693C20.275,15.393 19.966,15.356 19.563,15.562C19.234,15.731 19.094,15.965 19.094,16.359C19.094,16.743 19.225,16.978 19.544,17.146C19.938,17.362 20.275,17.324 20.613,17.024Z" fill="#6A70F0"/>
<path d="M27.109,28.375C26.959,28.281 24.288,25.647 21.184,22.544C17.388,18.728 15.522,16.797 15.484,16.628C15.306,15.906 15.916,15.297 16.638,15.475C16.919,15.541 28.188,26.716 28.431,27.166C28.675,27.634 28.525,28.188 28.084,28.422C27.728,28.6 27.447,28.591 27.109,28.375Z" fill="#6A70F0" stroke="#6A70F0" stroke-width="0.1" stroke-miterlimit="3.999327"/>
<path d="M22.965,30.267C20.612,29.423 20.415,26.217 22.637,25.12C23.397,24.745 24.353,24.745 25.112,25.12C26.115,25.617 26.64,26.47 26.64,27.623C26.64,28.42 26.444,28.954 25.947,29.526C25.272,30.286 23.95,30.623 22.965,30.267ZM24.334,28.429C24.962,28.101 24.944,27.089 24.297,26.798C23.819,26.583 23.294,26.733 23.069,27.164C22.628,28.017 23.481,28.87 24.334,28.429Z" fill="#6A70F0"/>
</svg>
