<svg width="38" height="48" viewBox="0 0 38 48" fill="none" xmlns="http://www.w3.org/2000/svg" xmlns:xlink="http://www.w3.org/1999/xlink">
<path d="M27.02,0L-0.281,0L-0.281,48L36.281,48L36.281,9.261L27.02,0ZM27.844,4.801L31.48,8.438L27.844,8.438L27.844,4.801ZM33.469,45.188L2.531,45.188L2.531,2.813L25.031,2.813L25.031,11.25L33.469,11.25L33.469,45.188Z" fill="#000000"/>
<path d="M18,14.156C11.021,14.156 5.344,19.834 5.344,26.812C5.344,33.791 11.021,39.469 18,39.469C24.979,39.469 30.656,33.791 30.656,26.812C30.656,19.834 24.979,14.156 18,14.156ZM18,36.656C12.572,36.656 8.156,32.24 8.156,26.812C8.156,21.385 12.572,16.969 18,16.969C23.428,16.969 27.844,21.385 27.844,26.812C27.844,32.24 23.428,36.656 18,36.656Z" fill="#000000"/>
<path d="M22.629,23.005L16.592,29.042L13.368,25.818L11.379,27.807L16.592,33.02L24.618,24.994L22.629,23.005Z" fill="#000000"/>
</svg>
