<svg width="48" height="48" viewBox="0 0 48 48" fill="none" xmlns="http://www.w3.org/2000/svg" xmlns:xlink="http://www.w3.org/1999/xlink">
<path d="M12.278,12.166L15.004,12.166L13.646,8.57L12.278,12.166Z" fill="#374957"/>
<path d="M39,0L9,0C4.032,0.006 0.006,4.032 0,9L0,39C0.006,43.968 4.032,47.994 9,48L32.968,48C35.356,48.007 37.648,47.058 39.332,45.364L45.364,39.334C47.057,37.65 48.006,35.358 48,32.97L48,9C47.994,4.032 43.968,0.006 39,0ZM18.958,15.558C19.202,16.204 18.876,16.926 18.23,17.17C17.584,17.414 16.862,17.088 16.618,16.442L15.948,14.666L11.326,14.666L10.648,16.444C10.385,17.082 9.655,17.387 9.016,17.124C8.402,16.872 8.093,16.183 8.312,15.556L12.262,5.182C12.485,4.608 13.037,4.23 13.652,4.228C14.255,4.228 14.798,4.593 15.026,5.152L18.958,15.558ZM21.214,5.478C21.214,4.788 21.774,4.228 22.464,4.228C23.154,4.228 23.714,4.788 23.714,5.478L23.714,16C23.714,16.69 23.154,17.25 22.464,17.25C21.774,17.25 21.214,16.69 21.214,16L21.214,5.478ZM34,30C31.791,30 30,31.791 30,34L30,42L9,42C7.343,42 6,40.657 6,39L6,22L42,22L42,30L34,30Z" fill="#374957"/>
</svg>
