<svg width="48" height="40" viewBox="0 0 48 40" fill="none" xmlns="http://www.w3.org/2000/svg" xmlns:xlink="http://www.w3.org/1999/xlink">
<rect  x="0" y="28.729" width="16.969" height="2.813" fill="#000000"/>
<rect  x="0" y="23.104" width="8.531" height="2.813" fill="#000000"/>
<rect  x="0" y="17.479" width="5.719" height="2.813" fill="#000000"/>
<path d="M18.372,0.022L5.266,13.129L14.857,25.917L18.285,25.917C20.308,25.917 21.897,28.761 23.58,31.773C25.729,35.619 28.166,39.979 32.682,39.979L47.998,39.979L47.997,32.948C47.997,29.061 44.76,25.917 40.873,25.917L38.951,25.917C37.22,22.027 36.512,17.014 36.68,12.705L32.713,8.737L28.697,10.745C27.515,11.336 26.105,11.336 24.923,10.745C23.485,10.026 22.591,8.58 22.591,6.972L22.591,4.241L18.372,0.022ZM23.665,13.261C25.634,14.245 27.985,14.245 29.954,13.261L32.157,12.159L33.829,13.831C33.824,14.559 33.846,15.857 34.003,17.479L26.81,17.479L26.81,20.292L34.384,20.292C34.541,21.194 34.743,22.141 35,23.104L29.622,23.104L29.622,25.917L35.908,25.917C36.051,26.289 36.204,26.659 36.367,27.027L34.253,29.141L36.242,31.13L38.642,28.729L40.873,28.729C43.21,28.729 45.185,30.661 45.185,32.948L45.185,37.167L32.682,37.167C29.816,37.167 27.894,33.727 26.035,30.401C24.03,26.814 21.958,23.104 18.285,23.104L16.263,23.104L8.979,13.393L18.372,4L19.779,5.406L19.779,6.972C19.779,9.652 21.268,12.062 23.665,13.261Z" fill="#000000"/>
</svg>
