<svg width="48" height="48" viewBox="0 0 48 48" fill="none" xmlns="http://www.w3.org/2000/svg" xmlns:xlink="http://www.w3.org/1999/xlink">
<path d="M15.52,13.303L21.082,7.739L21.124,35.002C21.124,36.659 22.467,38.002 24.124,38.002C25.781,38.002 27.124,36.659 27.124,35.002L27.082,7.773L32.612,13.303C33.763,14.494 35.662,14.527 36.854,13.376C38.045,12.225 38.078,10.326 36.927,9.135C36.903,9.11 36.879,9.085 36.854,9.061L30.43,2.637C26.915,-0.877 21.217,-0.877 17.702,2.637L17.702,2.637L11.279,9.061C10.128,10.253 10.161,12.152 11.352,13.303C12.515,14.425 14.358,14.425 15.52,13.303Z" fill="#374957"/>
<path d="M44.999,29C43.342,29 41.999,30.344 41.999,32L41.999,41.182C41.998,41.633 41.633,41.999 41.181,42L6.819,42C6.367,41.999 6.002,41.633 6.001,41.182L6.001,32C6.001,30.344 4.658,29 3.001,29C1.344,29 0.001,30.344 0.001,32L0.001,41.182C0.005,44.945 3.055,47.995 6.819,48L41.181,48C44.945,47.995 47.994,44.945 47.999,41.182L47.999,32C47.999,30.344 46.656,29 44.999,29Z" fill="#374957"/>
</svg>
