<svg width="50" height="48" viewBox="0 0 50 48" fill="none" xmlns="http://www.w3.org/2000/svg" xmlns:xlink="http://www.w3.org/1999/xlink">
<path d="M10.909,19.308C10.467,15.082 8.027,12.636 5.237,12.636L5.237,12.64C5.069,12.64 4.901,12.648 4.733,12.666C1.739,12.974 -0.399,15.962 0.065,20.44C0.513,24.724 3.103,28 5.949,28C6.078,28 6.207,27.993 6.335,27.98C9.335,27.668 11.377,23.78 10.909,19.308ZM5.917,23.976C4.748,22.993 4.186,21.616 4.043,20.024C4.043,19.017 4.034,18.023 4.481,17.128C4.73,16.66 5.033,16.652 5.149,16.64L5.238,16.638C5.912,16.638 6.729,17.79 6.931,19.722C7.07,21.226 6.856,22.772 5.917,23.976Z" fill="#374957"/>
<path d="M16.935,16.9C17.077,16.9 17.217,16.9 17.359,16.878C20.653,16.534 22.905,12.262 22.391,7.338C21.905,2.692 19.221,0 16.153,0C15.969,0 15.784,0.01 15.601,0.03C12.305,0.372 9.949,3.658 10.463,8.584C10.957,13.296 13.801,16.9 16.935,16.9ZM14.983,4.72C15.185,4.323 15.571,4.053 16.013,4C16.06,3.997 16.106,3.997 16.153,4C17.081,4 18.153,5.29 18.413,7.754C18.6,9.187 18.375,10.644 17.765,11.954C17.401,12.644 17.035,12.884 16.935,12.894C16.421,12.894 14.767,11.266 14.441,8.162C14.233,6.986 14.423,5.775 14.983,4.72Z" fill="#374957"/>
<path d="M30.73,16.878C30.872,16.892 31.014,16.9 31.154,16.9C34.284,16.9 37.134,13.3 37.626,8.584C38.14,3.658 35.784,0.372 32.492,0.03C32.308,0.01 32.123,0 31.938,0C28.868,0 26.184,2.692 25.698,7.338C25.184,12.262 27.436,16.538 30.73,16.878ZM29.678,7.752C29.934,5.29 31.002,4 31.938,4C31.984,3.997 32.03,3.997 32.076,4C32.518,4.052 32.904,4.322 33.106,4.718C33.668,5.772 33.859,6.984 33.648,8.16C33.324,11.264 31.668,12.892 31.146,12.892C31.054,12.892 30.688,12.642 30.324,11.952C29.714,10.642 29.49,9.185 29.678,7.752Z" fill="#374957"/>
<path d="M24.003,22C14.919,22 6.003,31.282 5.991,40.738C5.743,47.136 11.191,49.454 17.791,47.094C21.814,45.722 26.179,45.722 30.203,47.094C31.753,47.617 33.368,47.922 35.003,48C40.789,48 42.003,44.05 42.003,40.738C42.003,31.282 33.087,22 24.003,22ZM24.003,42C19.495,41.286 9.555,47.666 10.003,40.738C10.003,33.438 17.069,26 24.003,26C30.936,26 38.003,33.438 38.003,40.738C38.455,47.66 28.533,41.294 24.003,42Z" fill="#374957"/>
<path d="M43.944,14.782L43.943,14.786C43.779,14.746 43.614,14.716 43.447,14.694C40.462,14.303 37.693,16.718 37.111,21.182C36.558,25.454 38.323,29.239 41.092,29.895C41.217,29.925 41.344,29.949 41.472,29.965C44.463,30.353 47.347,27.042 47.924,22.582C48.469,18.368 46.659,15.425 43.944,14.782ZM43.957,22.067C43.745,23.563 43.181,25.018 41.989,25.973C41.078,24.747 40.849,23.277 41.078,21.695C41.31,20.715 41.53,19.746 42.172,18.978C42.522,18.58 42.819,18.642 42.935,18.657L43.021,18.676C43.677,18.832 44.207,20.141 43.957,22.067Z" fill="#374957"/>
</svg>
