<svg width="48" height="48" viewBox="0 0 48 48" fill="none" xmlns="http://www.w3.org/2000/svg" xmlns:xlink="http://www.w3.org/1999/xlink">
<path d="M4,35L9,35C11.209,35 13,36.791 13,39L13,44C13,46.209 11.209,48 9,48L4,48C1.791,48 0,46.209 0,44L0,39C0,36.791 1.791,35 4,35Z" fill="#374957"/>
<path d="M39,35L44,35C46.209,35 48,36.791 48,39L48,44C48,46.209 46.209,48 44,48L39,48C36.791,48 35,46.209 35,44L35,39C35,36.791 36.791,35 39,35Z" fill="#374957"/>
<path d="M4,17.5L9,17.5C11.209,17.5 13,19.291 13,21.5L13,26.5C13,28.709 11.209,30.5 9,30.5L4,30.5C1.791,30.5 0,28.709 0,26.5L0,21.5C0,19.291 1.791,17.5 4,17.5Z" fill="#374957"/>
<path d="M39,17.5L44,17.5C46.209,17.5 48,19.291 48,21.5L48,26.5C48,28.709 46.209,30.5 44,30.5L39,30.5C36.791,30.5 35,28.709 35,26.5L35,21.5C35,19.291 36.791,17.5 39,17.5Z" fill="#374957"/>
<path d="M4,0L9,0C11.209,0 13,1.791 13,4L13,9C13,11.209 11.209,13 9,13L4,13C1.791,13 0,11.209 0,9L0,4C0,1.791 1.791,0 4,0Z" fill="#374957"/>
<path d="M21.5,35L26.5,35C28.709,35 30.5,36.791 30.5,39L30.5,44C30.5,46.209 28.709,48 26.5,48L21.5,48C19.291,48 17.5,46.209 17.5,44L17.5,39C17.5,36.791 19.291,35 21.5,35Z" fill="#374957"/>
<path d="M21.5,17.5L26.5,17.5C28.709,17.5 30.5,19.291 30.5,21.5L30.5,26.5C30.5,28.709 28.709,30.5 26.5,30.5L21.5,30.5C19.291,30.5 17.5,28.709 17.5,26.5L17.5,21.5C17.5,19.291 19.291,17.5 21.5,17.5Z" fill="#374957"/>
<path d="M21.5,0L26.5,0C28.709,0 30.5,1.791 30.5,4L30.5,9C30.5,11.209 28.709,13 26.5,13L21.5,13C19.291,13 17.5,11.209 17.5,9L17.5,4C17.5,1.791 19.291,0 21.5,0Z" fill="#374957"/>
<path d="M39,0L44,0C46.209,0 48,1.791 48,4L48,9C48,11.209 46.209,13 44,13L39,13C36.791,13 35,11.209 35,9L35,4C35,1.791 36.791,0 39,0Z" fill="#374957"/>
</svg>
