<svg width="48" height="48" viewBox="0 0 48 48" fill="none" xmlns="http://www.w3.org/2000/svg" xmlns:xlink="http://www.w3.org/1999/xlink">
<path d="M7,11L41,11C42.657,11 44,12.343 44,14C44,15.657 42.657,17 41,17L7,17C5.343,17 4,15.657 4,14C4,12.343 5.343,11 7,11Z" fill="#374957"/>
<path d="M7,1L41,1C42.657,1 44,2.343 44,4C44,5.657 42.657,7 41,7L7,7C5.343,7 4,5.657 4,4C4,2.343 5.343,1 7,1Z" fill="#374957"/>
<path d="M37,47L11,47C4.928,46.993 0.007,42.072 0,36L0,28C0,24.134 3.134,21 7,21L14,21C15.657,21 17,22.343 17,24C17,26.761 19.239,29 22,29L26,29C28.761,29 31,26.761 31,24C31,22.343 32.343,21 34,21L41,21C44.866,21 48,24.134 48,28L48,36C47.993,42.072 43.072,46.993 37,47ZM7,27C6.448,27 6,27.448 6,28L6,36C6,38.761 8.239,41 11,41L37,41C39.761,41 42,38.761 42,36L42,28C42,27.448 41.552,27 41,27L36.584,27C35.237,31.73 30.918,34.994 26,35L22,35C17.082,34.994 12.763,31.73 11.416,27L7,27L7,27Z" fill="#374957"/>
</svg>
