<svg width="48" height="48" viewBox="0 0 48 48" fill="none" xmlns="http://www.w3.org/2000/svg" xmlns:xlink="http://www.w3.org/1999/xlink">
<path d="M38.156,5.625L33.938,5.625L33.938,16.875L36.75,16.875L36.75,14.063L38.156,14.063C40.482,14.063 42.375,12.17 42.375,9.844C42.375,7.518 40.482,5.625 38.156,5.625ZM38.156,11.25L36.75,11.25L36.75,8.438L38.156,8.438C38.932,8.438 39.563,9.068 39.563,9.844C39.563,10.619 38.932,11.25 38.156,11.25Z" fill="#000000"/>
<path d="M36.75,0C30.547,0 25.5,5.047 25.5,11.25C25.5,16.977 29.802,21.718 35.344,22.412L35.344,45.188L32.531,45.188L32.531,48L40.969,48L40.969,45.188L38.156,45.188L38.156,22.412C43.698,21.718 48,16.977 48,11.25C48,5.047 42.953,0 36.75,0ZM36.75,19.688C32.098,19.688 28.313,15.902 28.313,11.25C28.313,6.598 32.098,2.813 36.75,2.813C41.402,2.813 45.188,6.598 45.188,11.25C45.188,15.902 41.402,19.688 36.75,19.688Z" fill="#000000"/>
<path d="M2.813,48L11.25,48L11.25,42.375L19.875,42.375L19.875,48L28.312,48L28.312,42.375L31.125,42.375L31.125,31.125L27.923,31.125L25.111,22.594L6.014,22.594L3.202,31.125L0,31.125L0,42.375L2.813,42.375L2.813,48ZM8.438,45.188L5.625,45.188L5.625,42.375L8.438,42.375L8.438,45.188ZM25.5,45.188L22.688,45.188L22.688,42.375L25.5,42.375L25.5,45.188ZM23.077,25.406L24.962,31.125L6.163,31.125L8.048,25.406L23.077,25.406ZM2.813,33.938L28.312,33.938L28.312,39.563L2.813,39.563L2.813,33.938Z" fill="#000000"/>
</svg>
