<svg width="40" height="48" viewBox="0 0 40 48" fill="none" xmlns="http://www.w3.org/2000/svg" xmlns:xlink="http://www.w3.org/1999/xlink">
<path d="M28.999,16.002L12,16.002L12,14.456C12.001,9.786 15.787,6.001 20.457,6.002C23.532,6.003 26.364,7.672 27.853,10.362C28.657,11.811 30.483,12.333 31.932,11.529C33.38,10.725 33.903,8.899 33.099,7.45C29.229,0.468 20.431,-2.056 13.449,1.814C8.853,4.361 6.001,9.202 6.001,14.456L6.001,17.216C2.322,19.093 0.005,22.872 0.001,27.001L0.001,37.001C0.008,43.073 4.928,47.993 11,48L28.999,48C35.071,47.993 39.992,43.073 39.998,37.001L39.998,27.001C39.992,20.929 35.071,16.009 28.999,16.002ZM33.999,37.001C33.999,39.762 31.76,42 28.999,42L11,42C8.239,42 6.001,39.762 6.001,37.001L6.001,27.001C6.001,24.24 8.239,22.002 11,22.002L28.999,22.002C31.76,22.002 33.999,24.24 33.999,27.001L33.999,37.001Z" fill="#374957"/>
<path d="M19,28L21,28C22.656,28 23.999,29.343 23.999,30.999C23.999,32.656 22.656,33.999 21,33.999L19,33.999C17.343,33.999 16,32.656 16,30.999C16,29.343 17.343,28 19,28Z" fill="#374957"/>
</svg>
