<svg width="48" height="48" viewBox="0 0 48 48" fill="none" xmlns="http://www.w3.org/2000/svg" xmlns:xlink="http://www.w3.org/1999/xlink">
<path d="M12.754,10.47C13.714,10.473 14.502,9.71 14.53,8.75C14.501,7.791 13.714,7.03 12.754,7.032L11.076,7.032L11.088,10.478L12.754,10.47Z" fill="#374957"/>
<path d="M34.44,14.876C36.382,14.842 37.252,12.926 37.252,11.042C37.252,9.158 36.498,7.188 34.378,7.188L32.738,7.188L32.754,14.892C33.364,14.888 34.05,14.882 34.44,14.876Z" fill="#374957"/>
<path d="M39,0L9,0C4.032,0.006 0.006,4.032 0,9L0,39C0.006,43.968 4.032,47.994 9,48L32.968,48C35.356,48.007 37.648,47.058 39.332,45.364L45.364,39.334C47.057,37.65 48.006,35.358 48,32.97L48,9C47.994,4.032 43.968,0.006 39,0ZM30.236,5.94C30.233,5.252 30.788,4.691 31.476,4.688C31.479,4.688 31.483,4.688 31.486,4.688L34.378,4.688C37.59,4.688 39.752,7.242 39.752,11.042C39.752,14.658 37.536,17.322 34.484,17.376C33.654,17.39 31.512,17.398 31.512,17.398C30.824,17.398 30.265,16.842 30.262,16.154L30.236,5.94ZM18.69,13.654C19.108,13.26 19.746,13.218 20.212,13.552L20.466,13.752C20.964,14.187 21.538,14.527 22.16,14.752C22.801,14.939 23.484,14.915 24.11,14.682C24.52,14.557 24.853,14.258 25.022,13.864C25.152,13.453 25.037,13.003 24.724,12.706C24.445,12.456 24.117,12.268 23.76,12.154C22.93,11.852 22.112,11.524 21.294,11.188C20.513,10.916 19.84,10.401 19.374,9.718C18.959,9.065 18.792,8.284 18.904,7.518C18.967,7.096 19.107,6.689 19.318,6.318C19.772,5.53 20.504,4.941 21.37,4.666C23.011,4.231 24.759,4.469 26.224,5.328C26.551,5.493 26.83,5.737 27.038,6.038C27.351,6.488 27.324,7.092 26.972,7.512C26.498,8.074 25.806,7.912 25.216,7.66C24.682,7.423 24.135,7.217 23.578,7.042C23.189,6.9 22.775,6.84 22.362,6.866C21.943,6.898 21.572,7.146 21.382,7.52C21.232,7.956 21.35,8.439 21.684,8.756C22.018,9.06 22.429,9.267 22.872,9.356C23.43,9.502 23.996,9.606 24.544,9.792C25.207,10.017 25.818,10.37 26.344,10.832C27.284,11.632 27.738,12.864 27.544,14.082C27.085,16.091 25.258,17.486 23.2,17.4C21.458,17.408 19.792,16.69 18.6,15.42C18.137,14.908 18.177,14.117 18.689,13.655C18.69,13.654 18.69,13.654 18.69,13.654ZM9.81,4.532L12.754,4.532C15.084,4.481 17.014,6.329 17.065,8.659C17.116,10.989 15.268,12.919 12.938,12.97C12.876,12.971 12.815,12.971 12.754,12.97L11.074,12.97L11.074,16.304C11.074,16.994 10.514,17.554 9.824,17.554C9.134,17.554 8.574,16.994 8.574,16.304L8.574,5.782C8.572,5.694 8.572,5.275 8.897,4.923C9.256,4.535 9.733,4.531 9.81,4.532ZM42,30L34,30C31.791,30 30,31.791 30,34L30,42L9,42C7.343,42 6,40.657 6,39L6,22L42,22L42,30Z" fill="#374957"/>
</svg>
