<svg width="48" height="48" viewBox="0 0 48 48" fill="none" xmlns="http://www.w3.org/2000/svg" xmlns:xlink="http://www.w3.org/1999/xlink">
<path d="M23.956,19.463C27.976,16.426 33.176,15.422 38.038,16.743C38.072,16.345 38.11,15.967 38.11,15.571C38.111,7.732 31.757,1.376 23.918,1.375C16.078,1.374 9.723,7.728 9.722,15.567L9.722,15.571C9.722,15.969 9.759,16.367 9.795,16.765C14.679,15.422 19.909,16.418 23.956,19.463Z" fill="#374957"/>
<path d="M22.459,27.67C23.451,27.789 24.453,27.784 25.444,27.658C25.054,26.728 24.553,25.85 23.949,25.043C23.347,25.855 22.847,26.737 22.459,27.67Z" fill="#374957"/>
<path d="M42.102,20.946C41.323,20.384 40.489,19.903 39.612,19.511C38.364,24.402 34.916,28.436 30.279,30.43C30.363,31.076 30.407,31.726 30.411,32.378C30.419,36.735 28.659,40.908 25.533,43.943C31.884,48.519 40.741,47.08 45.316,40.729C49.892,34.379 48.453,25.521 42.102,20.946Z" fill="#374957"/>
<path d="M17.504,32.378C17.506,31.739 17.548,31.101 17.629,30.468C12.969,28.505 9.49,24.482 8.22,19.587C1.119,22.883 -1.966,31.312 1.33,38.414C4.626,45.515 13.055,48.601 20.156,45.305C20.951,44.936 21.71,44.494 22.423,43.985C19.271,40.948 17.494,36.756 17.504,32.378Z" fill="#374957"/>
<path d="M26.4,31.562C24.781,31.813 23.134,31.818 21.513,31.575C21.493,31.844 21.483,32.113 21.483,32.371C21.477,35.031 22.346,37.618 23.957,39.734C25.568,37.618 26.437,35.031 26.43,32.371C26.43,32.109 26.42,31.834 26.4,31.562Z" fill="#374957"/>
<path d="M18.592,26.559C19.189,25.005 20.022,23.553 21.062,22.253C18.584,20.561 15.572,19.839 12.597,20.223C13.752,22.998 15.886,25.252 18.592,26.559Z" fill="#374957"/>
<path d="M26.851,22.253C27.883,23.542 28.712,24.983 29.306,26.525C31.974,25.208 34.075,22.968 35.218,20.221C32.275,19.856 29.299,20.579 26.851,22.253Z" fill="#374957"/>
</svg>
