<svg width="48" height="48" viewBox="0 0 48 48" fill="none" xmlns="http://www.w3.org/2000/svg" xmlns:xlink="http://www.w3.org/1999/xlink">
<path d="M48,11C47.993,4.928 43.072,0.007 37,0L11,0C4.928,0.007 0.007,4.928 0,11L0,13C0.001,14.827 0.719,16.581 2,17.884L2,37C2.007,43.072 6.928,47.993 13,48L35,48C41.072,47.993 45.993,43.072 46,37L46,17.884C47.281,16.581 47.999,14.827 48,13L48,11ZM6,11C6,8.239 8.239,6 11,6L37,6C39.761,6 42,8.239 42,11L42,13C42,13.552 41.552,14 41,14L7,14C6.448,14 6,13.552 6,13L6,11ZM40,37C40,39.761 37.761,42 35,42L13,42C10.239,42 8,39.761 8,37L8,20L40,20L40,37L40,37Z" fill="#374957"/>
<path d="M19,24L29,24C30.657,24 32,25.343 32,27C32,28.657 30.657,30 29,30L19,30C17.343,30 16,28.657 16,27C16,25.343 17.343,24 19,24Z" fill="#374957"/>
</svg>
