<svg width="48" height="48" viewBox="0 0 48 48" fill="none" xmlns="http://www.w3.org/2000/svg" xmlns:xlink="http://www.w3.org/1999/xlink">
<path d="M4,0L26,0C28.209,0 30,1.791 30,4L30,18C30,20.209 28.209,22 26,22L4,22C1.791,22 0,20.209 0,18L0,4C0,1.791 1.791,0 4,0Z" fill="#374957"/>
<path d="M38,0L44,0C46.209,0 48,1.791 48,4L48,18C48,20.209 46.209,22 44,22L38,22C35.791,22 34,20.209 34,18L34,4C34,1.791 35.791,0 38,0Z" fill="#374957"/>
<path d="M4,26L10,26C12.209,26 14,27.791 14,30L14,44C14,46.209 12.209,48 10,48L4,48C1.791,48 0,46.209 0,44L0,30C0,27.791 1.791,26 4,26Z" fill="#374957"/>
<path d="M22,26L44,26C46.209,26 48,27.791 48,30L48,44C48,46.209 46.209,48 44,48L22,48C19.791,48 18,46.209 18,44L18,30C18,27.791 19.791,26 22,26Z" fill="#374957"/>
</svg>
