<svg width="42" height="38" viewBox="0 0 42 38" fill="none" xmlns="http://www.w3.org/2000/svg" xmlns:xlink="http://www.w3.org/1999/xlink">
<path d="M24.211,0C14.405,0 6.427,7.978 6.427,17.784C6.427,18.305 6.451,18.827 6.496,19.346L3.079,19.346L3.079,22.878C1.298,24.351 0.254,26.541 0.254,28.879C0.254,33.173 3.747,36.667 8.041,36.667C10.91,36.667 13.42,35.106 14.771,32.79C17.66,34.59 20.954,35.568 24.211,35.568C34.017,35.568 41.995,27.59 41.995,17.784C41.995,7.978 34.017,0 24.211,0ZM8.041,33.849C5.301,33.849 3.071,31.62 3.071,28.879C3.071,27.35 3.772,25.921 4.962,24.98L11.121,24.98C12.31,25.921 13.011,27.35 13.011,28.879C13.011,31.62 10.782,33.849 8.041,33.849ZM24.211,32.75C21.282,32.75 18.305,31.8 15.739,30.061C15.798,29.675 15.828,29.281 15.828,28.879C15.828,26.541 14.785,24.351 13.003,22.878L13.003,19.346L9.327,19.346C9.273,18.828 9.245,18.306 9.245,17.784C9.245,9.531 15.959,2.817 24.211,2.817C32.464,2.817 39.178,9.531 39.178,17.784C39.178,26.036 32.464,32.75 24.211,32.75Z" fill="#000000"/>
<path d="M17.661,21.664L17.661,19.193L22.083,19.193L22.083,11.084L14.861,11.084L14.861,13.901L19.266,13.901L19.266,16.376L14.844,16.376L14.844,24.482L22.105,24.482L22.105,21.664L17.661,21.664Z" fill="#000000"/>
<path d="M30.548,11.061L30.548,16.001L27.731,16.001L27.731,11.061L24.914,11.061L24.914,18.818L30.548,18.818L30.548,24.501L33.366,24.501L33.366,11.061L30.548,11.061Z" fill="#000000"/>
</svg>
