<svg width="48" height="38" viewBox="0 0 48 38" fill="none" xmlns="http://www.w3.org/2000/svg" xmlns:xlink="http://www.w3.org/1999/xlink">
<path d="M8.438,30.656L22.5,30.656L22.5,36.281L30.938,36.281C30.938,34.664 30.938,21.234 30.938,19.406L27.732,19.406L24.92,10.969L20.785,10.969L19.379,5.344L11.558,5.344L10.152,10.969L6.018,10.969L3.205,19.406L0,19.406L0,36.281L8.438,36.281L8.438,30.656ZM2.813,22.219L28.125,22.219L28.125,27.844L2.813,27.844L2.813,22.219ZM28.125,33.469L25.312,33.469L25.312,30.656L28.125,30.656L28.125,33.469ZM13.754,8.156L17.183,8.156L17.886,10.969L13.051,10.969L13.754,8.156ZM8.045,13.781L22.893,13.781L24.768,19.406L6.17,19.406L8.045,13.781ZM2.813,33.469L2.813,30.656L5.625,30.656L5.625,33.469L2.813,33.469Z" fill="#000000"/>
<path d="M48,3.938C48,1.611 46.107,-0.281 43.781,-0.281C41.455,-0.281 39.563,1.611 39.563,3.938C39.563,6.264 41.455,8.156 43.781,8.156C46.107,8.156 48,6.264 48,3.938ZM43.781,5.344C43.006,5.344 42.375,4.713 42.375,3.938C42.375,3.162 43.006,2.531 43.781,2.531C44.557,2.531 45.188,3.162 45.188,3.938C45.188,4.713 44.557,5.344 43.781,5.344Z" fill="#000000"/>
<path d="M31.125,16.594L39.563,16.594L39.563,36.281L48,36.281L48,8.156L31.125,8.156L31.125,16.594ZM33.938,10.969L45.188,10.969L45.188,33.469L42.375,33.469L42.375,13.781L33.938,13.781L33.938,10.969Z" fill="#000000"/>
</svg>
