<svg width="48" height="48" viewBox="0 0 48 48" fill="none" xmlns="http://www.w3.org/2000/svg" xmlns:xlink="http://www.w3.org/1999/xlink">
<path d="M24,0C10.745,0 0,10.745 0,24C0,37.255 10.745,48 24,48C37.255,48 48,37.255 48,24C47.986,10.751 37.249,0.014 24,0ZM24,42C14.059,42 6,33.941 6,24C6,14.059 14.059,6 24,6C33.941,6 42,14.059 42,24C41.988,33.936 33.936,41.988 24,42Z" fill="#374957"/>
<path d="M29.201,18.666C30.373,19.838 32.272,19.837 33.444,18.665C34.615,17.493 34.615,15.594 33.443,14.422C28.153,9.138 19.581,9.143 14.297,14.433C9.013,19.723 9.017,28.294 14.307,33.578C19.593,38.858 28.157,38.858 33.443,33.578C34.615,32.407 34.615,30.507 33.444,29.335C32.272,28.163 30.373,28.163 29.201,29.334C26.255,32.281 21.478,32.281 18.532,29.335C15.585,26.389 15.585,21.613 18.531,18.666C21.477,15.72 26.253,15.72 29.2,18.666C29.2,18.666 29.2,18.666 29.201,18.666Z" fill="#374957"/>
</svg>
