<svg width="48" height="38" viewBox="0 0 48 38" fill="none" xmlns="http://www.w3.org/2000/svg" xmlns:xlink="http://www.w3.org/1999/xlink">
<path d="M28.219,-0.311L19.781,-0.311L19.781,5.314L14.156,5.314L14.156,36.252L33.844,36.252L33.844,5.314L28.219,5.314L28.219,-0.311ZM22.594,2.502L25.406,2.502L25.406,5.314L22.594,5.314L22.594,2.502ZM31.031,33.439L16.969,33.439L16.969,8.127L31.031,8.127L31.031,33.439Z" fill="#000000"/>
<path d="M22.594,19.377L25.406,19.377L25.406,16.564L28.219,16.564L28.219,13.752L25.406,13.752L25.406,10.939L22.594,10.939L22.594,13.752L19.781,13.752L19.781,16.564L22.594,16.564L22.594,19.377Z" fill="#000000"/>
<rect  x="19.781" y="25.002" width="8.438" height="2.813" fill="#000000"/>
<path d="M47.999,17.972C47.999,14.63 47.323,11.397 45.989,8.361C44.7,5.43 42.863,2.822 40.529,0.611L38.595,2.653C42.846,6.679 45.187,12.119 45.187,17.972C45.187,22.928 43.441,27.689 40.316,31.451L40.316,29.28L37.504,29.28L37.504,36.311L44.535,36.311L44.535,33.499L42.267,33.499C45.941,29.197 47.999,23.7 47.999,17.972Z" fill="#000000"/>
<path d="M3.336,2.56L5.634,2.56C2.022,6.846 0,12.301 0,17.971C0,21.312 0.677,24.546 2.011,27.581C3.299,30.513 5.136,33.12 7.47,35.331L9.404,33.289C5.154,29.263 2.813,23.823 2.813,17.971C2.813,13.089 4.511,8.385 7.555,4.647L7.555,6.779L10.368,6.779L10.368,-0.252L3.336,-0.252L3.336,2.56Z" fill="#000000"/>
</svg>
