<svg width="46" height="42" viewBox="0 0 46 42" fill="none" xmlns="http://www.w3.org/2000/svg" xmlns:xlink="http://www.w3.org/1999/xlink">
<path d="M24.657,14.791L14.325,14.791L11.076,9.198L27.853,9.198L32.753,0.676L4.95,0.676C3.139,0.676 1.542,1.581 0.636,3.179C-0.269,4.724 -0.269,6.588 0.636,8.186L18.372,38.972C19.278,40.516 20.876,41.475 22.687,41.475C24.498,41.475 26.095,40.569 27.001,38.972L27.587,37.96L19.438,23.845L24.657,14.791Z" fill="#374957"/>
<path d="M44.791,3.179C43.885,1.635 42.288,0.676 40.477,0.676L39.305,0.676L25.989,23.739L30.889,32.261L44.791,8.133C45.696,6.588 45.696,4.724 44.791,3.179Z" fill="#374957"/>
</svg>
