<svg width="46" height="50" viewBox="0 0 46 50" fill="none" xmlns="http://www.w3.org/2000/svg" xmlns:xlink="http://www.w3.org/1999/xlink">
<path d="M11.697,47.447C11.744,47.55 11.931,47.719 12.091,47.813C12.381,48 12.71,48 28.216,48C45.766,48 44.51,48.047 44.819,47.391C44.95,47.11 44.969,44.822 44.969,24C44.969,3.178 44.95,0.891 44.819,0.61C44.51,-0.047 45.766,0 28.235,0C14.397,0 12.391,0.019 12.156,0.141C11.566,0.45 11.594,0.103 11.594,6.806L11.594,12.919L13.672,12.919C13.672,12 13.656,11.64 13.656,7.369L13.656,2.063L28.263,2.081L42.86,2.11L42.86,24L42.86,45.891L28.263,45.919L13.656,45.938L13.656,40.632C13.656,36.361 13.625,35.789 13.625,35.082L11.594,35.082L11.594,41.166C11.594,45.3 11.622,47.325 11.697,47.447Z" fill="#374957"/>
<path d="M22.056,32.125C21.962,32.519 22.159,33.016 22.506,33.222C22.712,33.354 22.9,33.4 23.162,33.363C23.509,33.325 23.847,33.007 27.972,28.882L33,24.025L27.925,19.132C23.837,15.035 23.425,14.65 23.144,14.65C22.44,14.65 21.915,15.25 22.047,15.907C22.094,16.132 22.9,16.985 25.497,19.6L28.89,22.994L14.359,22.994C3.814,22.994 0.911,22.999 0,23.072L0,24.979C0.911,25.052 3.814,25.057 14.359,25.057L28.89,25.057L25.506,28.46C23.162,30.804 22.094,31.938 22.056,32.125Z" fill="#374957"/>
</svg>
