<svg width="44" height="48" viewBox="0 0 44 48" fill="none" xmlns="http://www.w3.org/2000/svg" xmlns:xlink="http://www.w3.org/1999/xlink">
<path d="M44,9C44,7.343 42.657,6 41,6L33.448,6C32.184,2.415 28.801,0.012 25,0L19,0C15.199,0.012 11.816,2.415 10.552,6L3,6C1.343,6 0,7.343 0,9C0,10.657 1.343,12 3,12L4,12L4,37C4,43.075 8.925,48 15,48L29,48C35.075,48 40,43.075 40,37L40,12L41,12C42.657,12 44,10.657 44,9ZM34,37C34,39.761 31.761,42 29,42L15,42C12.239,42 10,39.761 10,37L10,12L34,12L34,37Z" fill="#374957"/>
<path d="M17,36C18.657,36 20,34.657 20,33L20,21C20,19.343 18.657,18 17,18C15.343,18 14,19.343 14,21L14,33C14,34.657 15.343,36 17,36Z" fill="#374957"/>
<path d="M27,36C28.657,36 30,34.657 30,33L30,21C30,19.343 28.657,18 27,18C25.343,18 24,19.343 24,21L24,33C24,34.657 25.343,36 27,36Z" fill="#374957"/>
</svg>
