<svg width="48" height="48" viewBox="0 0 48 48" fill="none" xmlns="http://www.w3.org/2000/svg" xmlns:xlink="http://www.w3.org/1999/xlink">
<path d="M29,14L34,14L34,19C34,20.657 35.343,22 37,22C38.657,22 40,20.657 40,19L40,14L45,14C46.657,14 48,12.657 48,11C48,9.343 46.657,8 45,8L40,8L40,3C40,1.343 38.657,0 37,0C35.343,0 34,1.343 34,3L34,8L29,8C27.343,8 26,9.343 26,11C26,12.657 27.343,14 29,14Z" fill="#374957"/>
<path d="M11,0C4.925,0 0,4.925 0,11C0,17.075 4.925,22 11,22C17.075,22 22,17.075 22,11C21.993,4.928 17.072,0.007 11,0ZM11,16C8.239,16 6,13.761 6,11C6,8.238 8.239,6 11,6C13.761,6 16,8.239 16,11C16,13.761 13.761,16 11,16Z" fill="#374957"/>
<path d="M11,26C4.925,26 0,30.925 0,37C0,43.075 4.925,48 11,48C17.075,48 22,43.075 22,37C21.993,30.928 17.072,26.007 11,26ZM11,42C8.239,42 6,39.761 6,37C6,34.239 8.239,32 11,32C13.761,32 16,34.239 16,37C16,39.761 13.761,42 11,42Z" fill="#374957"/>
<path d="M37,26C30.925,26 26,30.925 26,37C26,43.075 30.925,48 37,48C43.075,48 48,43.075 48,37C47.993,30.928 43.072,26.007 37,26ZM37,42C34.239,42 32,39.761 32,37C32,34.239 34.239,32 37,32C39.761,32 42,34.239 42,37C42,39.762 39.761,42 37,42Z" fill="#374957"/>
</svg>
