<svg width="48" height="48" viewBox="0 0 48 48" fill="none" xmlns="http://www.w3.org/2000/svg" xmlns:xlink="http://www.w3.org/1999/xlink">
<path d="M5.996,19.987C6.051,12.26 12.359,6.041 20.086,6.096C26.917,6.144 32.715,11.119 33.8,17.864L39.973,20.107C39.973,20.067 39.973,20.027 39.973,19.987C39.973,8.948 31.025,0 19.987,0C8.948,0 0,8.948 0,19.987C0,31.025 8.948,39.973 19.987,39.973C20.029,39.973 20.067,39.973 20.109,39.973L17.866,33.799C11.044,32.753 6.004,26.889 5.996,19.987Z" fill="#374957"/>
<path d="M27.116,16.139C27.457,16.139 27.795,16.197 28.135,16.229C26.07,11.72 20.74,9.739 16.231,11.804C11.722,13.87 9.741,19.199 11.806,23.708C12.698,25.655 14.257,27.22 16.201,28.119C15.655,22.072 20.115,16.729 26.162,16.183C26.479,16.155 26.797,16.14 27.116,16.139Z" fill="#374957"/>
<path d="M47.084,42.845L41.798,37.559L45.128,34.229C47.189,32.168 47.19,28.826 45.129,26.764C44.583,26.218 43.925,25.798 43.199,25.535L29.532,20.566C25.901,19.246 21.888,21.119 20.568,24.75C20.006,26.295 20.006,27.988 20.568,29.532L25.537,43.199C26.149,44.897 27.591,46.162 29.354,46.549C29.734,46.633 30.121,46.676 30.51,46.677C31.906,46.675 33.245,46.118 34.229,45.128L37.559,41.798L42.845,47.084C43.996,48.275 45.893,48.308 47.084,47.158C48.275,46.008 48.308,44.11 47.158,42.919C47.134,42.894 47.109,42.869 47.084,42.845ZM30.779,40.093L26.202,27.483C26.058,27.119 26.151,26.704 26.436,26.436C26.702,26.146 27.12,26.053 27.484,26.202L40.093,30.779L30.779,40.093Z" fill="#374957"/>
</svg>
