<svg width="48" height="48" viewBox="0 0 48 48" fill="none" xmlns="http://www.w3.org/2000/svg" xmlns:xlink="http://www.w3.org/1999/xlink">
<path d="M32.122,15.878C30.951,14.706 29.051,14.705 27.879,15.877C27.879,15.877 27.878,15.878 27.878,15.878L24,19.758L20.122,15.878C18.95,14.706 17.05,14.706 15.878,15.878C14.706,17.05 14.706,18.95 15.878,20.122L19.758,24L15.878,27.878C14.706,29.05 14.706,30.95 15.878,32.122C17.05,33.294 18.95,33.294 20.122,32.122L24,28.242L27.878,32.122C29.05,33.294 30.95,33.294 32.122,32.122C33.294,30.95 33.294,29.05 32.122,27.878L28.242,24L32.122,20.122C33.294,18.951 33.295,17.051 32.123,15.879C32.123,15.879 32.123,15.878 32.122,15.878Z" fill="#374957"/>
<path d="M24,0C10.745,0 0,10.745 0,24C0,37.255 10.745,48 24,48C37.255,48 48,37.255 48,24C47.986,10.751 37.249,0.014 24,0ZM24,42C14.059,42 6,33.941 6,24C6,14.059 14.059,6 24,6C33.941,6 42,14.059 42,24C41.989,33.937 33.937,41.989 24,42Z" fill="#374957"/>
</svg>
