<svg width="48" height="44" viewBox="0 0 48 44" fill="none" xmlns="http://www.w3.org/2000/svg" xmlns:xlink="http://www.w3.org/1999/xlink">
<path d="M48,37.469L48,0.906L0,0.906L0,37.469L16.969,37.469L16.969,40.281L8.531,40.281L8.531,43.094L39.469,43.094L39.469,40.281L31.031,40.281L31.031,37.469L48,37.469ZM28.219,40.281L19.781,40.281L19.781,37.469L28.219,37.469L28.219,40.281ZM2.813,34.656L2.813,3.719L45.188,3.719L45.188,34.656L2.813,34.656Z" fill="#000000"/>
<path d="M24,6.531C17.021,6.531 11.344,12.209 11.344,19.187C11.344,26.166 17.021,31.844 24,31.844C30.979,31.844 36.656,26.166 36.656,19.187C36.656,12.209 30.979,6.531 24,6.531ZM22.594,28.93C21.27,28.74 20.031,28.286 18.932,27.623C20.052,26.95 21.297,26.508 22.594,26.321L22.594,28.93ZM22.594,23.485C20.457,23.723 18.419,24.501 16.667,25.747C15.403,24.335 14.539,22.557 14.257,20.594L22.594,20.594L22.594,23.485ZM22.594,17.781L14.257,17.781C14.539,15.818 15.403,14.04 16.667,12.628C18.418,13.874 20.457,14.652 22.594,14.89L22.594,17.781ZM22.594,12.054C21.297,11.868 20.052,11.425 18.932,10.752C20.031,10.089 21.27,9.635 22.594,9.445L22.594,12.054ZM25.406,9.445C26.73,9.635 27.969,10.089 29.069,10.752C27.948,11.425 26.703,11.868 25.406,12.054L25.406,9.445ZM25.406,14.89C27.543,14.652 29.582,13.874 31.333,12.628C32.597,14.04 33.461,15.818 33.743,17.781L25.406,17.781L25.406,14.89ZM25.406,28.93L25.406,26.321C26.703,26.508 27.948,26.95 29.069,27.623C27.969,28.286 26.73,28.74 25.406,28.93ZM31.333,25.747C29.582,24.501 27.543,23.723 25.406,23.485L25.406,20.584L33.743,20.584C33.461,22.548 32.597,24.335 31.333,25.747Z" fill="#000000"/>
</svg>
