<svg width="48" height="48" viewBox="0 0 48 48" fill="none" xmlns="http://www.w3.org/2000/svg" xmlns:xlink="http://www.w3.org/1999/xlink">
<path d="M14.904,28.035C6.381,28.806 -0.112,36.007 0.001,44.563L0.001,44.997C0.001,46.654 1.344,47.997 3.001,47.997C4.658,47.997 6.001,46.654 6.001,44.997L6.001,44.443C5.911,39.19 9.788,34.71 15,34.045C20.501,33.499 25.404,37.517 25.949,43.019C25.982,43.344 25.998,43.67 25.998,43.997L25.998,44.997C25.998,46.654 27.341,47.997 28.998,47.997C30.654,47.997 31.997,46.654 31.997,44.997L31.997,43.997C31.988,35.152 24.809,27.989 15.964,27.999C15.61,27.999 15.256,28.011 14.904,28.035Z" fill="#374957"/>
<path d="M15.999,23.999C22.626,23.999 27.998,18.628 27.998,12.001C27.998,5.374 22.626,0.002 15.999,0.002C9.373,0.002 4.001,5.374 4.001,12.001C4.008,18.625 9.376,23.993 15.999,23.999ZM15.999,6.002C19.313,6.002 21.999,8.688 21.999,12.001C21.999,15.314 19.313,18 15.999,18C12.686,18 10,15.314 10,12.001C10,8.688 12.686,6.002 15.999,6.002Z" fill="#374957"/>
<path d="M43.996,15.75C41.679,15.865 39.891,17.832 39.997,20.149C40.102,17.832 38.314,15.865 35.997,15.75C33.68,15.865 31.892,17.832 31.998,20.149C31.998,23.609 36.509,27.662 38.757,29.466C39.481,30.047 40.512,30.047 41.236,29.466C43.484,27.667 47.996,23.609 47.996,20.149C48.101,17.832 46.313,15.865 43.996,15.75Z" fill="#374957"/>
</svg>
