<svg width="42" height="48" viewBox="0 0 42 48" fill="none" xmlns="http://www.w3.org/2000/svg" xmlns:xlink="http://www.w3.org/1999/xlink">
<path d="M34.088,17.019L34.088,14.089C34.088,6.308 27.781,0 20,0C12.219,0 5.911,6.308 5.911,14.089L5.911,17.019C2.209,18.908 -0.122,22.711 -0.127,26.867L-0.127,36.93C-0.12,43.041 4.832,47.993 10.943,48L29.057,48C35.167,47.993 40.12,43.041 40.126,36.93L40.126,26.867C40.122,22.711 37.79,18.908 34.088,17.019ZM20,6.038C24.446,6.038 28.05,9.642 28.05,14.089L28.05,15.797L11.949,15.797L11.949,14.089C11.949,9.642 15.553,6.038 20,6.038ZM34.088,36.93C34.088,39.709 31.836,41.962 29.057,41.962L10.943,41.962C8.164,41.962 5.911,39.709 5.911,36.93L5.911,26.867C5.911,24.088 8.164,21.835 10.943,21.835L29.057,21.835C31.836,21.835 34.088,24.088 34.088,26.867L34.088,36.93L34.088,36.93Z" fill="#374957"/>
<path d="M18.994,27.874L21.006,27.874C22.674,27.874 24.025,29.225 24.025,30.893C24.025,32.56 22.674,33.911 21.006,33.911L18.994,33.911C17.326,33.911 15.975,32.56 15.975,30.893C15.975,29.225 17.326,27.874 18.994,27.874Z" fill="#374957"/>
</svg>
