<svg width="48" height="48" viewBox="0 0 48 48" fill="none" xmlns="http://www.w3.org/2000/svg" xmlns:xlink="http://www.w3.org/1999/xlink">
<path d="M20.819,39.174C17.643,42.468 12.47,42.771 8.93,39.872C6.822,38.047 5.746,35.303 6.05,32.531C6.314,30.487 7.269,28.595 8.756,27.17L14.51,21.413C15.681,20.241 15.681,18.342 14.51,17.17C13.338,15.999 11.438,15.999 10.267,17.17L4.636,22.803C2.069,25.278 0.45,28.574 0.061,32.119C-0.667,40.102 5.215,47.163 13.199,47.891C17.486,48.281 21.725,46.749 24.771,43.707L30.789,37.692C31.96,36.52 31.96,34.621 30.789,33.449C29.617,32.278 27.717,32.278 26.546,33.449L20.819,39.174Z" fill="#374957"/>
<path d="M42.323,2.934C36.349,-1.454 28.054,-0.766 22.885,4.547L17.222,10.212C16.051,11.384 16.051,13.283 17.222,14.455C18.394,15.626 20.293,15.626 21.465,14.455L27.218,8.707C30.325,5.494 35.351,5.132 38.886,7.867C42.525,10.851 43.056,16.219 40.072,19.857C39.898,20.07 39.713,20.275 39.518,20.47L33.501,26.487C32.33,27.659 32.33,29.558 33.501,30.73C34.673,31.901 36.572,31.901 37.744,30.73L43.761,24.712C49.426,19.03 49.411,9.831 43.729,4.166C43.287,3.726 42.817,3.314 42.323,2.934Z" fill="#374957"/>
<path d="M17.222,26.492L26.544,17.169C27.716,15.997 29.616,15.997 30.788,17.169C31.96,18.341 31.96,20.241 30.788,21.412L21.465,30.735C20.293,31.907 18.393,31.907 17.222,30.735C16.05,29.563 16.05,27.664 17.222,26.492Z" fill="#374957"/>
</svg>
