<svg width="40" height="48" viewBox="0 0 40 48" fill="none" xmlns="http://www.w3.org/2000/svg" xmlns:xlink="http://www.w3.org/1999/xlink">
<path d="M29,0L11,0C4.928,0.007 0.007,4.928 0,11L0,37C0.007,43.072 4.928,47.993 11,48L29,48C35.072,47.993 39.993,43.072 40,37L40,11C39.993,4.928 35.072,0.007 29,0ZM11,6L29,6C31.761,6 34,8.239 34,11L34,22L6,22L6,11C6,8.239 8.239,6 11,6ZM29,42L11,42C8.239,42 6,39.761 6,37L6,28L34,28L34,37C34,39.761 31.761,42 29,42Z" fill="#374957"/>
<path d="M19,12L21,12C22.657,12 24,13.343 24,15C24,16.657 22.657,18 21,18L19,18C17.343,18 16,16.657 16,15C16,13.343 17.343,12 19,12Z" fill="#374957"/>
<path d="M19,32L21,32C22.657,32 24,33.343 24,35C24,36.657 22.657,38 21,38L19,38C17.343,38 16,36.657 16,35C16,33.343 17.343,32 19,32Z" fill="#374957"/>
</svg>
