<svg width="48" height="48" viewBox="0 0 48 48" fill="none" xmlns="http://www.w3.org/2000/svg" xmlns:xlink="http://www.w3.org/1999/xlink">
<path d="M37,48L11,48C4.928,47.993 0.007,43.072 0,37L0,11C0.007,4.928 4.928,0.007 11,0L37,0C43.072,0.007 47.993,4.928 48,11L48,37C47.993,43.072 43.072,47.993 37,48ZM11,6C8.239,6 6,8.239 6,11L6,37C6,39.761 8.239,42 11,42L37,42C39.761,42 42,39.761 42,37L42,11C42,8.239 39.761,6 37,6L11,6Z" fill="#374957"/>
<path d="M19.334,35.574C18.072,35.575 16.862,35.071 15.974,34.174L10,28.21C8.828,27.039 8.828,25.139 9.999,23.967C10,23.967 10,23.966 10,23.966C11.172,22.795 13.071,22.795 14.242,23.966L19.334,29.056L33.758,14.632C34.93,13.461 36.829,13.461 38,14.632C39.172,15.803 39.173,17.702 38.002,18.874C38.001,18.875 38.001,18.875 38,18.876L22.693,34.184C21.804,35.077 20.594,35.577 19.334,35.574Z" fill="#374957"/>
</svg>
