<svg width="48" height="48" viewBox="0 0 48 48" fill="none" xmlns="http://www.w3.org/2000/svg" xmlns:xlink="http://www.w3.org/1999/xlink">
<path d="M23.216,7.058L21.54,7.058L21.552,10.504L23.216,10.504C24.176,10.507 24.965,9.745 24.994,8.786C24.969,7.822 24.18,7.055 23.216,7.058Z" fill="#374957"/>
<path d="M39,0L9,0C4.032,0.006 0.006,4.032 0,9L0,39C0.006,43.968 4.032,47.994 9,48L32.968,48C35.356,48.007 37.648,47.058 39.332,45.364L45.364,39.334C47.057,37.65 48.006,35.358 48,32.97L48,9C47.994,4.032 43.968,0.006 39,0ZM29.2,13.844C29.617,13.45 30.255,13.406 30.722,13.74L30.976,13.94C31.473,14.376 32.048,14.715 32.67,14.94C33.311,15.127 33.994,15.103 34.62,14.87C35.03,14.745 35.364,14.446 35.532,14.052C35.662,13.641 35.547,13.192 35.234,12.896C34.956,12.645 34.627,12.456 34.27,12.344C33.44,12.04 32.622,11.714 31.804,11.376C31.023,11.105 30.35,10.589 29.884,9.906C29.468,9.253 29.301,8.472 29.414,7.706C29.477,7.284 29.617,6.877 29.828,6.506C30.281,5.718 31.013,5.128 31.88,4.854C33.521,4.417 35.27,4.655 36.734,5.516C37.061,5.679 37.34,5.922 37.546,6.224C37.86,6.673 37.834,7.277 37.482,7.698C37.008,8.26 36.316,8.098 35.726,7.846C35.192,7.609 34.645,7.403 34.088,7.228C33.699,7.086 33.285,7.026 32.872,7.052C32.453,7.084 32.081,7.333 31.892,7.708C31.742,8.144 31.86,8.627 32.194,8.944C32.529,9.247 32.939,9.454 33.382,9.544C33.94,9.688 34.506,9.792 35.054,9.978C35.72,10.202 36.335,10.556 36.864,11.02C37.804,11.819 38.258,13.05 38.064,14.268C37.6,16.28 35.765,17.673 33.702,17.578C31.962,17.588 30.296,16.875 29.102,15.61C28.641,15.096 28.685,14.306 29.199,13.845C29.199,13.845 29.2,13.844 29.2,13.844ZM20.282,4.56L23.212,4.56C25.542,4.509 27.472,6.357 27.523,8.687C27.574,11.017 25.726,12.947 23.396,12.998C23.334,12.999 23.273,12.999 23.212,12.998L21.532,12.998L21.532,16.33C21.532,17.02 20.972,17.58 20.282,17.58C19.592,17.58 19.032,17.02 19.032,16.33L19.036,5.8C19.033,5.717 19.025,5.294 19.35,4.942C19.716,4.545 20.211,4.557 20.282,4.56ZM9.618,5.848C9.619,5.158 10.178,4.6 10.868,4.6L15.268,4.6C15.958,4.6 16.518,5.16 16.518,5.85C16.518,6.54 15.958,7.1 15.268,7.1L12.118,7.1L12.118,9.82L14.936,9.82C15.626,9.82 16.186,10.38 16.186,11.07C16.186,11.76 15.626,12.32 14.936,12.32L12.118,12.32L12.118,15.032L15.26,15.032C15.95,15.032 16.51,15.592 16.51,16.282C16.51,16.972 15.95,17.532 15.26,17.532L10.86,17.532C10.17,17.532 9.61,16.972 9.61,16.282L9.618,5.848ZM42,30L34,30C31.791,30 30,31.791 30,34L30,42L9,42C7.343,42 6,40.657 6,39L6,22L42,22L42,30Z" fill="#374957"/>
</svg>
