<svg width="48" height="48" viewBox="0 0 48 48" fill="none" xmlns="http://www.w3.org/2000/svg" xmlns:xlink="http://www.w3.org/1999/xlink">
<path d="M16.003,42L6.821,42C6.37,41.999 6.004,41.633 6.003,41.182L6.003,6.818C6.004,6.367 6.37,6.001 6.821,6L16.003,6C17.66,6 19.003,4.657 19.003,3C19.003,1.343 17.66,0 16.003,0L6.821,0C3.057,0.004 0.007,3.054 0.003,6.818L0.003,41.182C0.007,44.946 3.057,47.996 6.821,48L16.003,48C17.66,48 19.003,46.657 19.003,45C19.003,43.343 17.66,42 16.003,42Z" fill="#374957"/>
<path d="M45.004,21.002L17.724,21.056L24.656,14.124C25.828,12.952 25.828,11.053 24.657,9.881C23.485,8.709 21.586,8.708 20.414,9.88L12.656,17.638C9.141,21.152 9.141,26.851 12.656,30.366L12.656,30.366L20.414,38.124C21.586,39.295 23.485,39.295 24.657,38.123C25.828,36.951 25.828,35.051 24.656,33.88L17.83,27.056L45.004,27.002C46.661,26.998 48.001,25.653 47.998,23.996C47.994,22.339 46.649,20.998 44.992,21.002L45.004,21.002Z" fill="#374957"/>
</svg>
