<svg width="48" height="48" viewBox="0 0 48 48" fill="none" xmlns="http://www.w3.org/2000/svg" xmlns:xlink="http://www.w3.org/1999/xlink">
<path d="M45.364,8.665L39.334,2.637C37.651,0.942 35.359,-0.008 32.97,-0.001L9,-0.001C4.032,0.005 0.006,4.031 0,8.999L0,38.999C0.006,43.967 4.032,47.994 9,47.999L39,47.999C43.968,47.994 47.994,43.967 48,38.999L48,15.029C48.007,12.641 47.058,10.349 45.364,8.665ZM42,38.999C42,40.656 40.657,41.999 39,41.999L9,41.999C7.343,41.999 6,40.656 6,38.999L6,8.999C6,7.342 7.343,5.999 9,5.999L12,5.999C12,10.417 15.582,13.999 20,13.999L26,13.999C30.34,13.99 33.881,10.524 33.982,6.185C34.398,6.33 34.777,6.567 35.09,6.877L41.122,12.909C41.686,13.47 42.002,14.234 42,15.029L42,38.999L42,38.999Z" fill="#374957"/>
<circle cx="24" cy="28" r="8" fill="#374957"/>
</svg>
