<svg width="48" height="38" viewBox="0 0 48 38" fill="none" xmlns="http://www.w3.org/2000/svg" xmlns:xlink="http://www.w3.org/1999/xlink">
<path d="M46.076,11.768C41.219,4.275 32.927,-0.283 23.998,-0.367C15.068,-0.283 6.776,4.275 1.92,11.768C-0.64,15.524 -0.64,20.464 1.92,24.221C6.774,31.719 15.066,36.281 23.998,36.368C32.927,36.284 41.219,31.726 46.076,24.233C48.641,20.474 48.641,15.527 46.076,11.768ZM41.107,20.815C37.398,26.697 30.951,30.285 23.998,30.336C17.045,30.285 10.597,26.697 6.889,20.815C5.733,19.117 5.733,16.884 6.889,15.186C10.597,9.304 17.045,5.716 23.998,5.665C30.951,5.716 37.398,9.304 41.107,15.186C42.263,16.884 42.263,19.117 41.107,20.815Z" fill="#374957"/>
<circle cx="23.998" cy="18" r="8.042" fill="#374957"/>
</svg>
