<svg width="48" height="48" viewBox="0 0 48 48" fill="none" xmlns="http://www.w3.org/2000/svg" xmlns:xlink="http://www.w3.org/1999/xlink">
<path d="M21.949,35.73C20.427,34.207 19.171,32.287 18.336,30.312C18.336,30.312 18.337,30.314 18.338,30.317C18.337,30.315 18.337,30.314 18.336,30.312C17.896,30.347 17.391,30.364 16.946,30.364C16.94,30.364 16.935,30.364 16.946,30.364L16.237,31.072C15.81,30.645 14.85,30.001 13.96,30.292C13.564,30.422 13.329,30.76 13.271,31.037C13.225,31.255 13.289,31.58 13.535,31.817C13.935,32.202 14.554,32.467 15.774,32.94C16.878,33.368 17.736,34.173 18.19,35.206C18.613,36.167 18.643,37.263 18.272,38.211C17.808,39.398 16.881,40.261 15.717,40.649L15.717,42.996L12.905,42.996L12.905,40.718C11.961,40.499 11.014,40.05 10.005,39.347L11.613,37.039C12.652,37.763 13.459,38.071 14.301,38.064C15.214,38.058 15.55,37.449 15.653,37.187C15.753,36.93 15.74,36.62 15.616,36.338C15.508,36.095 15.273,35.762 14.757,35.563C13.313,35.003 12.378,34.607 11.584,33.843C10.673,32.966 10.264,31.67 10.518,30.46C10.609,30.025 10.778,29.615 11.009,29.246C9.033,28.41 6.799,27.029 5.277,25.506C4.989,25.218 4.713,24.921 4.448,24.615C2.032,27.097 0.543,30.486 0.543,34.224C0.543,41.832 6.711,48 14.319,48C20.153,48 25.14,44.373 27.149,39.252C25.202,38.418 23.453,37.233 21.949,35.73ZM18.344,30.331C18.345,30.334 18.345,30.333 18.344,30.331Z" fill="#000000"/>
<path d="M17.007,27.552C17.162,27.552 17.317,27.549 17.471,27.544C17.219,26.388 17.09,25.203 17.09,24C17.09,23.513 17.113,23.029 17.154,22.548L15.592,22.548L15.592,20.27C14.648,20.051 13.702,19.602 12.693,18.899L14.3,16.591C15.34,17.315 16.144,17.624 16.989,17.616C17.902,17.61 18.238,17.001 18.34,16.74C18.441,16.482 18.427,16.173 18.303,15.891C18.196,15.647 17.96,15.315 17.445,15.115C16,14.555 15.066,14.16 14.272,13.396C13.361,12.519 12.952,11.222 13.205,10.013C13.47,8.75 14.377,7.704 15.592,7.238L15.592,5.004L18.405,5.004L18.405,7.138C19.406,7.422 20.282,8.005 20.914,8.636L18.925,10.625C18.498,10.198 17.538,9.553 16.648,9.845C16.252,9.975 16.016,10.312 15.958,10.589C15.913,10.807 15.977,11.133 16.223,11.37C16.623,11.755 17.241,12.02 18.461,12.493C19.277,12.809 19.958,13.332 20.442,14C20.902,13.393 21.404,12.815 21.949,12.27C23.472,10.747 25.246,9.552 27.221,8.716C27.962,8.403 28.72,8.146 29.49,7.945C27.294,3.252 22.531,0 17.007,0C9.398,0 3.23,6.168 3.23,13.776C3.23,21.385 9.398,27.552 17.007,27.552Z" fill="#000000"/>
<path d="M33.679,10.224C26.07,10.224 19.902,16.391 19.902,24C19.902,31.608 26.07,37.776 33.679,37.776C41.287,37.776 47.455,31.608 47.455,24C47.455,16.391 41.287,10.224 33.679,10.224ZM37.632,27.987C37.168,29.174 36.24,30.037 35.077,30.425L35.077,32.772L32.264,32.772L32.264,30.494C31.32,30.275 30.374,29.826 29.365,29.123L30.972,26.815C32.012,27.539 32.818,27.849 33.661,27.84C34.574,27.834 34.91,27.225 35.012,26.963C35.113,26.706 35.099,26.397 34.975,26.114C34.868,25.871 34.632,25.538 34.117,25.339C32.672,24.779 31.738,24.384 30.944,23.62C30.033,22.742 29.624,21.446 29.877,20.237C30.142,18.974 31.049,17.927 32.264,17.462L32.264,15.228L35.077,15.228L35.077,17.361C36.078,17.646 36.954,18.228 37.586,18.86L35.597,20.849C35.17,20.422 34.21,19.777 33.32,20.069C32.924,20.198 32.688,20.536 32.63,20.813C32.585,21.031 32.649,21.357 32.895,21.593C33.295,21.979 33.913,22.244 35.133,22.716C36.237,23.144 37.095,23.949 37.55,24.983C37.972,25.944 38.002,27.039 37.632,27.987Z" fill="#000000"/>
</svg>
