<svg width="48" height="48" viewBox="0 0 48 48" fill="none" xmlns="http://www.w3.org/2000/svg" xmlns:xlink="http://www.w3.org/1999/xlink">
<path d="M14.905,28.035C6.382,28.805 -0.112,36.007 0.001,44.564L0.001,44.998C0.001,46.655 1.345,47.998 3.001,47.998C4.658,47.998 6.001,46.655 6.001,44.998L6.001,44.444C5.911,39.19 9.788,34.71 15.001,34.044C20.503,33.499 25.406,37.517 25.952,43.019C25.984,43.345 26,43.671 26.001,43.998L26.001,44.998C26.001,46.655 27.344,47.998 29.001,47.998C30.657,47.998 32,46.655 32,44.998L32,43.998C31.991,35.152 24.811,27.989 15.965,27.998C15.611,27.999 15.258,28.011 14.905,28.035Z" fill="#374957"/>
<path d="M16.001,24C22.628,24 28,18.628 28,12.001C28,5.373 22.628,0.001 16.001,0.001C9.373,0.001 4.001,5.373 4.001,12.001C4.008,18.625 9.376,23.994 16.001,24ZM16.001,6.001C19.314,6.001 22,8.687 22,12.001C22,15.314 19.314,18 16.001,18C12.687,18 10.001,15.314 10.001,12.001C10.001,8.687 12.687,6.001 16.001,6.001Z" fill="#374957"/>
<path d="M45,20.001L42.001,20.001L42.001,17.001C42.001,15.344 40.657,14.001 39.001,14.001C37.344,14.001 36.001,15.344 36.001,17.001L36.001,20.001L33.001,20.001C31.344,20.001 30.001,21.344 30.001,23.001C30.001,24.657 31.344,26.001 33.001,26.001L36.001,26.001L36.001,29C36.001,30.657 37.344,32 39.001,32C40.657,32 42.001,30.657 42.001,29L42.001,26.001L45,26.001C46.657,26.001 48,24.657 48,23.001C48,21.344 46.657,20.001 45,20.001Z" fill="#374957"/>
</svg>
