<svg width="48" height="48" viewBox="0 0 48 48" fill="none" xmlns="http://www.w3.org/2000/svg" xmlns:xlink="http://www.w3.org/1999/xlink">
<path d="M11.414,0C5.339,0 0.414,4.925 0.414,11C0.414,17.075 5.339,22 11.414,22C17.489,22 22.414,17.075 22.414,11C22.407,4.928 17.487,0.007 11.414,0ZM11.414,16C8.653,16 6.414,13.761 6.414,11C6.414,8.239 8.653,6 11.414,6C14.176,6 16.414,8.239 16.414,11C16.414,13.761 14.176,16 11.414,16Z" fill="#374957"/>
<path d="M11.414,26C5.339,26 0.414,30.925 0.414,37C0.414,43.075 5.339,48 11.414,48C17.489,48 22.414,43.075 22.414,37C22.407,30.928 17.486,26.007 11.414,26ZM11.414,42C8.653,42 6.414,39.761 6.414,37C6.414,34.239 8.653,32 11.414,32C14.175,32 16.414,34.239 16.414,37C16.414,39.761 14.175,42 11.414,42Z" fill="#374957"/>
<path d="M45.586,36.828L41.414,36.828L41.414,11.172L45.586,11.172C46.69,11.172 47.586,10.276 47.585,9.172C47.585,8.641 47.375,8.133 47,7.758L39.828,0.586C39.047,-0.195 37.781,-0.195 37,0.586L29.828,7.758C29.047,8.539 29.047,9.806 29.828,10.586C30.203,10.961 30.712,11.172 31.242,11.172L35.414,11.172L35.414,36.828L31.242,36.828C30.137,36.828 29.242,37.724 29.242,38.828C29.242,39.359 29.453,39.867 29.828,40.242L37,47.414C37.781,48.195 39.047,48.195 39.828,47.414L47,40.242C47.781,39.461 47.78,38.194 46.999,37.413C46.624,37.039 46.116,36.828 45.586,36.828Z" fill="#374957"/>
</svg>
