<svg width="48" height="48" viewBox="0 0 48 48" fill="none" xmlns="http://www.w3.org/2000/svg" xmlns:xlink="http://www.w3.org/1999/xlink">
<path d="M0,0L0,48L48,48L48,0L0,0ZM33.938,45.188L25.406,45.188L25.406,14.063L33.938,14.063L33.938,45.188ZM22.594,45.188L14.063,45.188L14.063,14.063L22.594,14.063L22.594,45.188ZM45.188,45.188L36.75,45.188L36.75,11.25L11.25,11.25L11.25,45.188L2.813,45.188L2.813,2.813L45.188,2.813L45.188,45.188Z" fill="#000000"/>
<rect  x="21.188" y="5.625" width="5.625" height="2.813" fill="#000000"/>
<rect  x="39.563" y="31.125" width="2.813" height="2.813" fill="#000000"/>
<rect  x="39.563" y="25.5" width="2.813" height="2.813" fill="#000000"/>
</svg>
