<svg width="48" height="48" viewBox="0 0 48 48" fill="none" xmlns="http://www.w3.org/2000/svg" xmlns:xlink="http://www.w3.org/1999/xlink">
<path d="M26.823,36.152C25.266,34.595 22.732,34.595 21.175,36.152C19.619,37.709 19.619,40.242 21.175,41.799C21.954,42.578 22.977,42.967 23.999,42.967C25.021,42.967 26.044,42.578 26.822,41.799C28.379,40.242 28.379,37.709 26.823,36.152Z" fill="#000000"/>
<path d="M14.117,29.093L16.941,31.916C20.833,28.024 27.166,28.024 31.058,31.916L33.882,29.093C28.433,23.644 19.566,23.644 14.117,29.093Z" fill="#000000"/>
<path d="M24,15.016C17.6,15.016 11.584,17.508 7.059,22.033L9.882,24.856C13.653,21.085 18.667,19.009 24,19.009C29.333,19.009 34.346,21.085 38.117,24.856L40.941,22.033C36.416,17.508 30.399,15.016 24,15.016Z" fill="#000000"/>
<path d="M24,5.033C14.934,5.033 6.411,8.564 0,14.974L2.823,17.798C8.48,12.141 16.001,9.026 24,9.026C31.999,9.026 39.52,12.141 45.177,17.798L48,14.974C41.589,8.564 33.066,5.033 24,5.033Z" fill="#000000"/>
</svg>
