<svg width="128" height="128" viewBox="0 0 128 128" fill="none" xmlns="http://www.w3.org/2000/svg" xmlns:xlink="http://www.w3.org/1999/xlink">
<path d="M63.999,115.833C51.386,115.833 42.077,115.83 34.939,114.87C27.843,113.916 23.117,112.042 19.537,108.462L17.416,110.583C21.646,114.814 27.111,116.845 34.539,117.844C41.924,118.836 51.471,118.833 63.999,118.833L63.999,115.833ZM9.166,64C9.166,76.528 9.163,86.075 10.156,93.46C11.154,100.888 13.185,106.353 17.416,110.583L19.537,108.462C15.957,104.882 14.083,100.156 13.129,93.061C12.169,85.922 12.166,76.613 12.166,64L9.166,64ZM115.833,64C115.833,76.613 115.829,85.922 114.87,93.061C113.916,100.156 112.042,104.882 108.462,108.462L110.583,110.583C114.813,106.353 116.844,100.888 117.843,93.46C118.836,86.075 118.833,76.528 118.833,64L115.833,64ZM63.999,118.833C76.528,118.833 86.075,118.836 93.46,117.844C100.888,116.845 106.352,114.814 110.583,110.583L108.462,108.462C104.881,112.042 100.155,113.916 93.06,114.87C85.922,115.83 76.613,115.833 63.999,115.833L63.999,118.833ZM63.999,12.167C76.613,12.167 85.922,12.17 93.06,13.129C100.155,14.083 104.881,15.958 108.462,19.538L110.583,17.416C106.352,13.186 100.888,11.155 93.46,10.156C86.075,9.163 76.528,9.167 63.999,9.167L63.999,12.167ZM118.833,64C118.833,51.472 118.836,41.924 117.843,34.539C116.844,27.111 114.813,21.647 110.583,17.416L108.462,19.538C112.042,23.118 113.916,27.844 114.87,34.939C115.829,42.078 115.833,51.387 115.833,64L118.833,64ZM63.999,9.167C51.471,9.167 41.924,9.163 34.539,10.156C27.111,11.155 21.646,13.186 17.416,17.416L19.537,19.538C23.117,15.958 27.843,14.083 34.939,13.129C42.077,12.17 51.386,12.167 63.999,12.167L63.999,9.167ZM12.166,64C12.166,51.387 12.169,42.078 13.129,34.939C14.083,27.844 15.957,23.118 19.537,19.538L17.416,17.416C13.185,21.647 11.154,27.111 10.156,34.539C9.163,41.924 9.166,51.472 9.166,64L12.166,64Z" fill="#6B6B6B"/>
<circle cx="85.333" cy="42.667" r="10.667" stroke="#6B6B6B" stroke-width="1.5" stroke-miterlimit="3.999327"/>
<path d="M9.678,65.539C9.055,66.084 8.992,67.032 9.537,67.655C10.083,68.279 11.03,68.342 11.654,67.796L9.678,65.539ZM20.008,58.494L20.996,59.622L20.996,59.622L20.008,58.494ZM36.759,59.051L37.82,57.991L37.82,57.991L36.759,59.051ZM59.638,81.93L60.698,80.869L60.698,80.869L59.638,81.93ZM73.313,83.114L72.451,81.887L72.451,81.887L73.313,83.114ZM74.904,81.997L74.041,80.769L74.041,80.769L74.904,81.997ZM94.807,83.195L93.804,84.309L93.804,84.309L94.807,83.195ZM110.996,99.782C111.612,100.337 112.56,100.287 113.114,99.671C113.668,99.055 113.619,98.107 113.003,97.553L110.996,99.782ZM11.654,67.796L20.996,59.622L19.02,57.365L9.678,65.539L11.654,67.796ZM35.699,60.112L58.577,82.99L60.698,80.869L37.82,57.991L35.699,60.112ZM74.176,84.342L75.766,83.224L74.041,80.769L72.451,81.887L74.176,84.342ZM93.804,84.309L110.996,99.782L113.003,97.553L95.811,82.08L93.804,84.309ZM75.766,83.224C81.297,79.337 88.779,79.787 93.804,84.309L95.811,82.08C89.747,76.622 80.716,76.079 74.041,80.769L75.766,83.224ZM58.577,82.99C62.758,87.171 69.339,87.741 74.176,84.342L72.451,81.887C68.807,84.448 63.848,84.019 60.698,80.869L58.577,82.99ZM20.996,59.622C25.261,55.89 31.691,56.104 35.699,60.112L37.82,57.991C32.695,52.866 24.474,52.592 19.02,57.365L20.996,59.622Z" fill="#6B6B6B"/>
</svg>
