<svg width="48" height="48" viewBox="0 0 48 48" fill="none" xmlns="http://www.w3.org/2000/svg" xmlns:xlink="http://www.w3.org/1999/xlink">
<path d="M0,0L0,48L48,48L48,0L0,0ZM45.188,45.188L2.813,45.188L2.813,2.813L45.188,2.813L45.188,45.188Z" fill="#FFFFFF"/>
<path d="M14.625,37.688L10.313,37.688L10.313,33.375L7.5,33.375L7.5,40.5L14.625,40.5L14.625,37.688Z" fill="#FFFFFF"/>
<path d="M37.688,14.625L40.5,14.625L40.5,7.5L33.375,7.5L33.375,10.313L37.688,10.313L37.688,14.625Z" fill="#FFFFFF"/>
<path d="M30.094,17.906L17.906,17.906L17.906,30.094L30.094,30.094L30.094,17.906ZM27.281,27.281L20.719,27.281L20.719,20.719L27.281,20.719L27.281,27.281Z" fill="#FFFFFF"/>
</svg>
