<svg width="48" height="48" viewBox="0 0 48 48" fill="none" xmlns="http://www.w3.org/2000/svg" xmlns:xlink="http://www.w3.org/1999/xlink">
<path d="M18,0L6,0C4.409,0 2.883,0.632 1.757,1.757C0.632,2.883 0,4.409 0,6L0,18L10,18L10,22L6,22L6,26L18,26L18,22L14,22L14,18L24,18L24,6C24,4.409 23.368,2.883 22.243,1.757C21.117,0.632 19.591,0 18,0L18,0ZM20,14L4,14L4,6C4,5.47 4.211,4.961 4.586,4.586C4.961,4.211 5.47,4 6,4L18,4C18.53,4 19.039,4.211 19.414,4.586C19.789,4.961 20,5.47 20,6L20,14ZM42,22L34,22C32.409,22 30.883,22.632 29.757,23.757C28.632,24.883 28,26.409 28,28L28,48L48,48L48,28C48,26.409 47.368,24.883 46.243,23.757C45.117,22.632 43.591,22 42,22L42,22ZM44,44L32,44L32,28C32,27.47 32.211,26.961 32.586,26.586C32.961,26.211 33.47,26 34,26L42,26C42.53,26 43.039,26.211 43.414,26.586C43.789,26.961 44,27.47 44,28L44,44ZM34,10L28,10L28,6L34,6C35.591,6 37.117,6.632 38.243,7.757C39.368,8.883 40,10.409 40,12L40,18L36,18L36,12C36,11.47 35.789,10.961 35.414,10.586C35.039,10.211 34.53,10 34,10ZM16,38L24,38L24,42L16,42C14.409,42 12.883,41.368 11.757,40.243C10.632,39.117 10,37.591 10,36L10,30L14,30L14,36C14,36.53 14.211,37.039 14.586,37.414C14.961,37.789 15.47,38 16,38ZM40,40C40,40.396 39.883,40.782 39.663,41.111C39.443,41.44 39.131,41.696 38.765,41.848C38.4,41.999 37.998,42.039 37.61,41.962C37.222,41.884 36.865,41.694 36.586,41.414C36.306,41.135 36.116,40.778 36.038,40.39C35.961,40.002 36.001,39.6 36.152,39.235C36.304,38.869 36.56,38.557 36.889,38.337C37.218,38.117 37.604,38 38,38C38.53,38 39.039,38.211 39.414,38.586C39.789,38.961 40,39.47 40,40Z" fill="#374957"/>
</svg>
