<svg width="48" height="48" viewBox="0 0 48 48" fill="none" xmlns="http://www.w3.org/2000/svg" xmlns:xlink="http://www.w3.org/1999/xlink">
<path d="M37,4L36,4L36,3C36,2.204 35.684,1.441 35.121,0.879C34.559,0.316 33.796,0 33,0L33,0C32.204,0 31.441,0.316 30.879,0.879C30.316,1.441 30,2.204 30,3L30,4L18,4L18,3C18,2.204 17.684,1.441 17.121,0.879C16.559,0.316 15.796,0 15,0L15,0C14.204,0 13.441,0.316 12.879,0.879C12.316,1.441 12,2.204 12,3L12,4L11,4C8.083,4 5.285,5.159 3.222,7.222C1.159,9.285 0,12.083 0,15L0,37C0,39.917 1.159,42.715 3.222,44.778C5.285,46.841 8.083,48 11,48L37,48C39.917,48 42.715,46.841 44.778,44.778C46.841,42.715 48,39.917 48,37L48,15C48,12.083 46.841,9.285 44.778,7.222C42.715,5.159 39.917,4 37,4L37,4ZM37,42L11,42C9.674,42 8.402,41.473 7.464,40.536C6.527,39.598 6,38.326 6,37L6,20L42,20L42,37C42,38.326 41.473,39.598 40.536,40.536C39.598,41.473 38.326,42 37,42Z" fill="#374957"/>
</svg>
