<svg width="48" height="48" viewBox="0 0 48 48" fill="none" xmlns="http://www.w3.org/2000/svg" xmlns:xlink="http://www.w3.org/1999/xlink">
<path d="M24,0C19.253,0 14.613,1.408 10.666,4.045C6.72,6.682 3.643,10.43 1.827,14.816C0.01,19.201 -0.465,24.027 0.461,28.682C1.387,33.338 3.673,37.614 7.029,40.971C10.386,44.327 14.662,46.613 19.318,47.539C23.973,48.465 28.799,47.99 33.184,46.173C37.57,44.357 41.318,41.28 43.955,37.334C46.592,33.387 48,28.747 48,24C47.993,17.637 45.462,11.536 40.963,7.037C36.464,2.538 30.363,0.007 24,0L24,0ZM24,42C20.44,42 16.96,40.944 14,38.966C11.04,36.989 8.733,34.177 7.37,30.888C6.008,27.599 5.651,23.98 6.346,20.488C7.04,16.997 8.755,13.789 11.272,11.272C13.789,8.755 16.997,7.04 20.488,6.346C23.98,5.651 27.599,6.008 30.888,7.37C34.177,8.733 36.989,11.04 38.966,14C40.944,16.96 42,20.44 42,24C41.995,28.772 40.097,33.348 36.722,36.722C33.348,40.097 28.772,41.995 24,42L24,42ZM30,20C29.996,21.048 29.717,22.077 29.191,22.984C28.664,23.891 27.909,24.643 27,25.166L27,31C27,31.796 26.684,32.559 26.121,33.121C25.559,33.684 24.796,34 24,34C23.204,34 22.441,33.684 21.879,33.121C21.316,32.559 21,31.796 21,31L21,25.166C20.092,24.638 19.339,23.879 18.817,22.968C18.294,22.056 18.021,21.023 18.024,19.973C18.027,18.922 18.307,17.891 18.835,16.982C19.362,16.074 20.12,15.32 21.031,14.797C21.942,14.274 22.975,14 24.026,14.003C25.076,14.005 26.108,14.284 27.017,14.811C27.925,15.338 28.679,16.095 29.203,17.006C29.727,17.917 30.002,18.949 30,20L30,20Z" fill="#374957"/>
</svg>
