<svg width="48" height="48" viewBox="0 0 48 48" fill="none" xmlns="http://www.w3.org/2000/svg" xmlns:xlink="http://www.w3.org/1999/xlink">
<path d="M37,48L35,48C34.204,48 33.441,47.684 32.879,47.121C32.316,46.559 32,45.796 32,45C32,44.204 32.316,43.441 32.879,42.879C33.441,42.316 34.204,42 35,42L37,42C38.326,42 39.598,41.473 40.536,40.536C41.473,39.598 42,38.326 42,37L42,35C42,34.204 42.316,33.441 42.879,32.879C43.441,32.316 44.204,32 45,32C45.796,32 46.559,32.316 47.121,32.879C47.684,33.441 48,34.204 48,35L48,37C47.997,39.916 46.837,42.712 44.775,44.775C42.712,46.837 39.916,47.997 37,48ZM48,13L48,11C47.997,8.084 46.837,5.288 44.775,3.225C42.712,1.163 39.916,0.003 37,0L35,0C34.204,0 33.441,0.316 32.879,0.879C32.316,1.441 32,2.204 32,3C32,3.796 32.316,4.559 32.879,5.121C33.441,5.684 34.204,6 35,6L37,6C38.326,6 39.598,6.527 40.536,7.464C41.473,8.402 42,9.674 42,11L42,13C42,13.796 42.316,14.559 42.879,15.121C43.441,15.684 44.204,16 45,16C45.796,16 46.559,15.684 47.121,15.121C47.684,14.559 48,13.796 48,13ZM16,45C16,44.204 15.684,43.441 15.121,42.879C14.559,42.316 13.796,42 13,42L11,42C9.674,42 8.402,41.473 7.464,40.536C6.527,39.598 6,38.326 6,37L6,35C6,34.204 5.684,33.441 5.121,32.879C4.559,32.316 3.796,32 3,32C2.204,32 1.441,32.316 0.879,32.879C0.316,33.441 0,34.204 0,35L0,37C0.003,39.916 1.163,42.712 3.225,44.775C5.288,46.837 8.084,47.997 11,48L13,48C13.796,48 14.559,47.684 15.121,47.121C15.684,46.559 16,45.796 16,45ZM6,13L6,11C6,9.674 6.527,8.402 7.464,7.464C8.402,6.527 9.674,6 11,6L13,6C13.796,6 14.559,5.684 15.121,5.121C15.684,4.559 16,3.796 16,3C16,2.204 15.684,1.441 15.121,0.879C14.559,0.316 13.796,0 13,0L11,0C8.084,0.003 5.288,1.163 3.225,3.225C1.163,5.288 0.003,8.084 0,11L0,13C0,13.796 0.316,14.559 0.879,15.121C1.441,15.684 2.204,16 3,16C3.796,16 4.559,15.684 5.121,15.121C5.684,14.559 6,13.796 6,13ZM32,24C32,22.418 31.531,20.871 30.652,19.555C29.773,18.24 28.523,17.214 27.061,16.609C25.6,16.003 23.991,15.845 22.439,16.154C20.887,16.462 19.462,17.224 18.343,18.343C17.224,19.462 16.462,20.887 16.154,22.439C15.845,23.991 16.003,25.6 16.609,27.061C17.214,28.523 18.24,29.773 19.555,30.652C20.871,31.531 22.418,32 24,32C26.122,32 28.157,31.157 29.657,29.657C31.157,28.157 32,26.122 32,24Z" fill="#374957"/>
</svg>
