<svg width="48" height="48" viewBox="0 0 48 48" fill="none" xmlns="http://www.w3.org/2000/svg" xmlns:xlink="http://www.w3.org/1999/xlink">
<path d="M48,48L0,48L0,6C0,4.409 0.632,2.883 1.757,1.757C2.883,0.632 4.409,0 6,0L42,0C43.591,0 45.117,0.632 46.243,1.757C47.368,2.883 48,4.409 48,6L48,48ZM4,44L44,44L44,6C44,5.47 43.789,4.961 43.414,4.586C43.039,4.211 42.53,4 42,4L6,4C5.47,4 4.961,4.211 4.586,4.586C4.211,4.961 4,5.47 4,6L4,44ZM16,35.446L16,12.554L36.032,24L16,35.446ZM20,19.446L20,28.554L27.968,24L20,19.446Z" fill="#374957"/>
</svg>
