<svg width="48" height="46" viewBox="0 0 48 46" fill="none" xmlns="http://www.w3.org/2000/svg" xmlns:xlink="http://www.w3.org/1999/xlink">
<path d="M48,2L26,2L26,11.472L20.658,2.216C20.307,1.608 19.802,1.103 19.194,0.752C18.586,0.401 17.896,0.216 17.194,0.216C16.492,0.216 15.802,0.401 15.194,0.752C14.586,1.103 14.081,1.608 13.73,2.216L0,26L14.588,26C13.934,28.177 13.821,30.481 14.257,32.712C14.694,34.943 15.667,37.034 17.092,38.805C18.518,40.576 20.354,41.973 22.44,42.875C24.527,43.777 26.802,44.158 29.069,43.984C31.335,43.81 33.526,43.086 35.45,41.876C37.375,40.666 38.975,39.005 40.114,37.037C41.253,35.07 41.895,32.854 41.986,30.583C42.076,28.311 41.612,26.052 40.634,24L48,24L48,2ZM6.928,22L17.2,4.218L24.296,16.512C21.143,17.377 18.392,19.318 16.52,22L6.928,22ZM28,40C26.022,40 24.089,39.413 22.444,38.314C20.8,37.215 19.518,35.654 18.761,33.826C18.004,31.999 17.806,29.988 18.192,28.049C18.578,26.109 19.53,24.327 20.929,22.929C22.327,21.53 24.109,20.578 26.049,20.192C27.989,19.806 30,20.004 31.827,20.761C33.654,21.518 35.216,22.799 36.315,24.444C37.414,26.088 38,28.022 38,30C37.997,32.651 36.942,35.192 35.068,37.067C33.193,38.942 30.651,39.996 28,40L28,40ZM44,20L37.788,20C35.667,17.923 32.939,16.578 30,16.16L30,6L44,6L44,20Z" fill="#374957"/>
</svg>
