<svg width="40" height="48" viewBox="0 0 40 48" fill="none" xmlns="http://www.w3.org/2000/svg" xmlns:xlink="http://www.w3.org/1999/xlink">
<path d="M20.001,47.988L5.875,34.17C3.988,32.32 2.486,30.115 1.456,27.682C0.427,25.248 -0.111,22.635 -0.125,19.992C-0.139,17.35 0.371,14.731 1.375,12.287C2.379,9.843 3.858,7.622 5.725,5.753C7.593,3.883 9.812,2.402 12.255,1.396C14.698,0.389 17.317,-0.124 19.959,-0.113C22.601,-0.102 25.215,0.433 27.65,1.46C30.084,2.488 32.291,3.987 34.143,5.872C37.888,9.626 39.992,14.712 39.992,20.014C39.992,25.316 37.888,30.402 34.143,34.156L20.001,47.988ZM20.001,4.012C16.836,4.011 13.742,4.95 11.11,6.708C8.478,8.466 6.427,10.965 5.216,13.889C4.005,16.813 3.688,20.031 4.306,23.135C4.924,26.239 6.448,29.09 8.687,31.328L20.001,42.4L31.331,31.32C33.568,29.081 35.09,26.229 35.706,23.125C36.322,20.021 36.003,16.804 34.79,13.88C33.577,10.957 31.525,8.46 28.892,6.703C26.26,4.946 23.166,4.01 20.001,4.012L20.001,4.012ZM20.001,32C17.628,32 15.307,31.296 13.334,29.978C11.361,28.659 9.823,26.785 8.914,24.592C8.006,22.399 7.768,19.987 8.232,17.659C8.695,15.331 9.837,13.193 11.516,11.515C13.194,9.836 15.332,8.694 17.66,8.231C19.988,7.768 22.4,8.005 24.593,8.913C26.786,9.822 28.66,11.36 29.979,13.333C31.297,15.307 32.001,17.627 32.001,20C31.998,23.182 30.732,26.232 28.483,28.482C26.233,30.732 23.183,31.997 20.001,32L20.001,32ZM20.001,12C18.419,12 16.872,12.469 15.556,13.348C14.241,14.227 13.215,15.477 12.61,16.939C12.004,18.4 11.846,20.009 12.155,21.561C12.463,23.113 13.225,24.538 14.344,25.657C15.463,26.776 16.888,27.538 18.44,27.846C19.992,28.155 21.601,27.997 23.062,27.391C24.524,26.786 25.774,25.76 26.653,24.445C27.532,23.129 28.001,21.582 28.001,20C28.001,17.878 27.158,15.843 25.658,14.343C24.158,12.843 22.123,12 20.001,12ZM24.415,21.586L22.001,19.172L22.001,14L18.001,14L18.001,20.828L21.587,24.414L24.415,21.586Z" fill="#374957"/>
</svg>
