<svg width="48" height="48" viewBox="0 0 48 48" fill="none" xmlns="http://www.w3.org/2000/svg" xmlns:xlink="http://www.w3.org/1999/xlink">
<path d="M48,28.012C47.998,27.173 47.818,26.344 47.474,25.58C47.129,24.815 46.627,24.131 46,23.574L46,18C45.995,13.228 44.097,8.652 40.722,5.278C37.348,1.903 32.772,0.005 28,0L20,0C15.228,0.005 10.652,1.903 7.278,5.278C3.903,8.652 2.005,13.228 2,18L2,23.574C1.373,24.131 0.871,24.815 0.526,25.58C0.182,26.344 0.002,27.173 0,28.012L0,28.354C-0.004,29.203 0.173,30.042 0.518,30.818C0.862,31.593 1.368,32.286 2,32.852L2,40C2,42.122 2.843,44.157 4.343,45.657C5.843,47.157 7.878,48 10,48L38,48C40.122,48 42.157,47.157 43.657,45.657C45.157,44.157 46,42.122 46,40L46,32.452C46.627,31.894 47.129,31.211 47.474,30.446C47.819,29.68 47.998,28.851 48,28.012L48,28.012ZM6,18C6.004,14.288 7.481,10.73 10.105,8.105C12.73,5.481 16.288,4.004 20,4L28,4C31.712,4.004 35.27,5.481 37.895,8.105C40.519,10.73 41.996,14.288 42,18L42,22.012L6,22.012L6,18ZM42,30.012L34,30.012C28.698,30.015 23.576,31.933 19.576,35.412C19.141,35.795 18.581,36.006 18.001,36.006C17.421,36.006 16.861,35.795 16.426,35.412C13.345,32.731 9.578,30.961 5.548,30.3C5.103,30.208 4.704,29.963 4.421,29.608C4.138,29.252 3.989,28.808 4,28.354L4,28.012C4,27.482 4.211,26.973 4.586,26.598C4.961,26.223 5.47,26.012 6,26.012L42,26.012C42.53,26.012 43.039,26.223 43.414,26.598C43.789,26.973 44,27.482 44,28.012C44,28.542 43.789,29.051 43.414,29.426C43.039,29.801 42.53,30.012 42,30.012ZM42,40C42,41.061 41.579,42.078 40.828,42.828C40.078,43.579 39.061,44 38,44L10,44C8.939,44 7.922,43.579 7.172,42.828C6.421,42.078 6,41.061 6,40L6,34.506C8.882,35.15 11.561,36.494 13.8,38.42C14.96,39.443 16.454,40.007 18,40.007C19.547,40.007 21.04,39.443 22.2,38.42C25.475,35.58 29.665,34.018 34,34.02L42,34.02L42,40ZM22,10C22,10.53 21.789,11.039 21.414,11.414C21.039,11.789 20.53,12 20,12C19.47,12 18.961,11.789 18.586,11.414C18.211,11.039 18,10.53 18,10C18,9.47 18.211,8.961 18.586,8.586C18.961,8.211 19.47,8 20,8C20.53,8 21.039,8.211 21.414,8.586C21.789,8.961 22,9.47 22,10ZM16,16C16,16.53 15.789,17.039 15.414,17.414C15.039,17.789 14.53,18 14,18C13.47,18 12.961,17.789 12.586,17.414C12.211,17.039 12,16.53 12,16C12,15.47 12.211,14.961 12.586,14.586C12.961,14.211 13.47,14 14,14C14.53,14 15.039,14.211 15.414,14.586C15.789,14.961 16,15.47 16,16L16,16Z" fill="#374957"/>
</svg>
