<svg width="48" height="50" viewBox="0 0 48 50" fill="none" xmlns="http://www.w3.org/2000/svg" xmlns:xlink="http://www.w3.org/1999/xlink">
<path d="M48,26.002L0,26.002L0,22.002L48,22.002L48,26.002ZM17.772,0.856L17.572,0.72C16.814,0.265 15.948,0.019 15.064,0.008C14.18,-0.004 13.308,0.22 12.539,0.655C11.769,1.09 11.129,1.722 10.683,2.486C10.237,3.249 10.001,4.117 10,5.002L10,18.002L39.832,18.002L17.772,0.856ZM14,5.002C14,4.832 14.043,4.666 14.125,4.517C14.207,4.369 14.325,4.244 14.469,4.154C14.612,4.064 14.777,4.012 14.946,4.003C15.115,3.994 15.284,4.028 15.436,4.102L28.168,14.002L14,14.002L14,5.002ZM17.574,47.284L39.832,30.002L10,30.002L10,43.002C9.996,43.888 10.229,44.759 10.674,45.526C11.119,46.293 11.76,46.927 12.531,47.364C13.303,47.8 14.177,48.023 15.063,48.01C15.949,47.996 16.816,47.747 17.574,47.288L17.574,47.284ZM28.168,34.002L15.436,43.898C15.284,43.971 15.115,44.005 14.947,43.996C14.778,43.987 14.614,43.936 14.471,43.846C14.327,43.757 14.209,43.632 14.126,43.485C14.044,43.337 14.001,43.171 14,43.002L14,34.002L28.168,34.002Z" fill="#374957"/>
</svg>
