<svg width="48" height="50" viewBox="0 0 48 50" fill="none" xmlns="http://www.w3.org/2000/svg" xmlns:xlink="http://www.w3.org/1999/xlink">
<path d="M31.522,1.224C35.622,2.588 39.279,5.032 42.108,8.298C44.938,11.565 46.835,15.533 47.6,19.786C45.264,21.381 42.676,22.569 39.944,23.302C39.348,15.279 36.42,7.605 31.522,1.224L31.522,1.224ZM25.954,22.6C29.141,23.847 32.577,24.327 35.984,24C35.384,15.018 31.62,6.539 25.362,0.068C24.908,0.044 24.46,0 24,0C20.778,-0.003 17.589,0.647 14.624,1.91C17.941,4.291 20.681,7.386 22.642,10.967C24.603,14.547 25.735,18.523 25.954,22.6L25.954,22.6ZM33.868,28.13C30.587,28.126 27.337,27.491 24.296,26.26C22,28.016 20.015,30.147 18.426,32.562C27.022,36.614 36.871,37.104 45.826,33.924C47.215,30.894 47.953,27.605 47.99,24.272C43.703,26.775 38.833,28.107 33.868,28.136L33.868,28.13ZM33.31,40C27.458,40.051 21.678,38.704 16.452,36.07C14.975,39.104 14.13,42.407 13.97,45.778C18.845,48.045 24.343,48.6 29.572,47.352C34.802,46.104 39.457,43.126 42.782,38.902C39.675,39.614 36.498,39.982 33.31,40L33.31,40ZM17.28,10.012C15.47,7.622 13.213,5.607 10.634,4.078C6.345,6.952 3.097,11.133 1.374,16.001C-0.348,20.868 -0.454,26.161 1.072,31.094C4.088,22.518 9.768,15.131 17.28,10.012L17.28,10.012ZM21.936,23.04C21.792,19.693 20.922,16.417 19.386,13.44C11.462,18.856 5.86,27.05 3.688,36.4L3.452,36.346C5.162,39.189 7.441,41.649 10.144,43.572C11.246,35.452 15.478,28.084 21.936,23.04L21.936,23.04Z" fill="#374957"/>
</svg>
