<svg width="48" height="48" viewBox="0 0 48 48" fill="none" xmlns="http://www.w3.org/2000/svg" xmlns:xlink="http://www.w3.org/1999/xlink">
<path d="M46.199,1.8C45.031,0.688 43.481,0.067 41.869,0.067C40.257,0.067 38.706,0.688 37.539,1.8L15.125,24.2C14.428,24.065 13.719,23.998 13.009,24C11.565,23.995 10.135,24.278 8.801,24.83C7.468,25.383 6.257,26.194 5.239,27.218C1.399,31.066 0.371,43.256 0.199,45.66L0.047,47.952L2.337,47.792C4.737,47.628 16.937,46.606 20.781,42.76C22.052,41.484 22.991,39.916 23.514,38.193C24.037,36.47 24.129,34.644 23.781,32.878L46.199,10.46C47.344,9.31 47.987,7.753 47.987,6.13C47.987,4.507 47.344,2.95 46.199,1.8L46.199,1.8ZM17.953,39.932C16.093,41.79 9.419,43.052 4.405,43.592C4.971,38.392 6.291,31.824 8.067,30.046C9.399,28.845 11.142,28.203 12.934,28.249C14.727,28.296 16.433,29.029 17.701,30.297C18.969,31.565 19.702,33.272 19.749,35.064C19.796,36.857 19.153,38.599 17.953,39.932L17.953,39.932ZM43.375,7.632L22.133,28.876C21.344,27.681 20.324,26.655 19.133,25.86L40.367,4.624C40.771,4.238 41.308,4.022 41.867,4.022C42.426,4.022 42.963,4.238 43.367,4.624C43.565,4.82 43.723,5.054 43.831,5.312C43.938,5.57 43.994,5.846 43.995,6.126C43.996,6.405 43.941,6.682 43.835,6.941C43.729,7.199 43.572,7.434 43.375,7.632L43.375,7.632Z" fill="#374957"/>
</svg>
