<svg width="40" height="50" viewBox="0 0 40 50" fill="none" xmlns="http://www.w3.org/2000/svg" xmlns:xlink="http://www.w3.org/1999/xlink">
<path d="M10,16.002L10,14.002C9.999,11.785 10.736,9.63 12.093,7.877C13.45,6.124 15.352,4.871 17.499,4.317C19.645,3.762 21.916,3.937 23.952,4.813C25.989,5.689 27.677,7.218 28.75,9.158L32.248,7.216C30.745,4.5 28.381,2.362 25.53,1.136C22.679,-0.09 19.501,-0.334 16.496,0.443C13.491,1.22 10.829,2.973 8.929,5.427C7.029,7.882 5.999,10.898 6,14.002L6,16.002L0,16.002L0,42.002C0,43.593 0.632,45.119 1.757,46.244C2.883,47.37 4.409,48.002 6,48.002L34,48.002C35.591,48.002 37.117,47.37 38.243,46.244C39.368,45.119 40,43.593 40,42.002L40,16.002L10,16.002ZM22,36.002L18,36.002L18,28.002L22,28.002L22,36.002Z" fill="#374957"/>
</svg>
