<svg width="46" height="50" viewBox="0 0 46 50" fill="none" xmlns="http://www.w3.org/2000/svg" xmlns:xlink="http://www.w3.org/1999/xlink">
<path d="M26,26C26.003,26.703 25.821,27.394 25.472,28.004C25.123,28.614 24.619,29.122 24.012,29.475C23.404,29.829 22.714,30.016 22.011,30.018C21.308,30.02 20.617,29.837 20.008,29.487C19.398,29.137 18.892,28.632 18.539,28.024C18.187,27.416 18.001,26.726 18,26.023C17.999,25.32 18.184,24.629 18.535,24.02C18.886,23.411 19.391,22.905 20,22.554L20,12L24,12L24,22.554C24.606,22.903 25.11,23.405 25.461,24.009C25.812,24.614 25.998,25.301 26,26L26,26ZM38.12,11.078C41.034,14.216 42.969,18.135 43.688,22.357C44.407,26.578 43.878,30.917 42.166,34.842C40.455,38.767 37.635,42.108 34.053,44.454C30.471,46.8 26.282,48.049 22,48.049C17.718,48.049 13.529,46.8 9.947,44.454C6.365,42.108 3.545,38.767 1.833,34.842C0.122,30.917 -0.407,26.578 0.312,22.357C1.031,18.135 2.966,14.216 5.88,11.078L3.924,8.904L2.164,10.664L-0.664,7.836L5.836,1.336L8.664,4.164L6.756,6.072L8.852,8.4C12.096,5.959 15.957,4.471 20,4.102L20,0L24,0L24,4.102C28.043,4.471 31.904,5.959 35.148,8.4L37.244,6.07L35.46,4.288L38.29,1.46L44.664,7.836L41.836,10.664L40.076,8.904L38.12,11.078ZM40,26C40,22.44 38.944,18.96 36.966,16C34.989,13.04 32.177,10.733 28.888,9.37C25.599,8.008 21.98,7.651 18.488,8.346C14.997,9.04 11.789,10.755 9.272,13.272C6.755,15.789 5.04,18.997 4.346,22.488C3.651,25.98 4.008,29.599 5.37,32.888C6.732,36.177 9.04,38.989 12,40.966C14.96,42.944 18.44,44 22,44C26.772,43.995 31.348,42.097 34.722,38.722C38.097,35.348 39.995,30.772 40,26L40,26Z" fill="#374957"/>
</svg>
