<svg width="48" height="44" viewBox="0 0 48 44" fill="none" xmlns="http://www.w3.org/2000/svg" xmlns:xlink="http://www.w3.org/1999/xlink">
<path d="M35.58,12.418C34.687,8.6 32.424,5.242 29.219,2.983C26.015,0.723 22.092,-0.281 18.196,0.161C14.3,0.603 10.702,2.46 8.085,5.38C5.468,8.3 4.014,12.079 4,16C3.998,18.556 4.615,21.076 5.8,23.342C3.642,24.498 1.932,26.342 0.943,28.581C-0.047,30.82 -0.26,33.326 0.338,35.7C0.936,38.074 2.309,40.18 4.241,41.684C6.173,43.188 8.552,44.003 11,44L32,44C35.922,43.987 39.703,42.533 42.624,39.916C45.545,37.298 47.403,33.699 47.845,29.802C48.287,25.905 47.281,21.981 45.02,18.776C42.759,15.571 39.399,13.308 35.58,12.418ZM33.494,38.552C32.567,39.478 31.31,39.998 30,39.998C28.689,39.998 27.433,39.478 26.506,38.552L20.106,32.152L22.934,29.324L28,34.4L28,18L32,18L32,34.4L37.07,29.33L39.898,32.158L33.494,38.552Z" fill="#374957"/>
</svg>
