<svg width="48" height="48" viewBox="0 0 48 48" fill="none" xmlns="http://www.w3.org/2000/svg" xmlns:xlink="http://www.w3.org/1999/xlink">
<path d="M0,40L5.334,37.334L8,32L10.666,37.334L16,40L10.666,42.666L8,48L5.334,42.666L0,40ZM37.334,42.666L40,48L42.666,42.666L48,40L42.666,37.334L40,32L37.334,37.334L32,40L37.334,42.666ZM21.334,10.666L24,16L26.666,10.666L32,8L26.666,5.334L24,0L21.334,5.334L16,8L21.334,10.666ZM10,24C9.604,24 9.218,24.117 8.889,24.337C8.56,24.557 8.304,24.869 8.152,25.235C8.001,25.6 7.961,26.002 8.038,26.39C8.116,26.778 8.306,27.135 8.586,27.414C8.865,27.694 9.222,27.884 9.61,27.962C9.998,28.039 10.4,27.999 10.765,27.848C11.131,27.696 11.443,27.44 11.663,27.111C11.883,26.782 12,26.396 12,26C12,25.47 11.789,24.961 11.414,24.586C11.039,24.211 10.53,24 10,24ZM2,16C1.604,16 1.218,16.117 0.889,16.337C0.56,16.557 0.304,16.869 0.152,17.235C0.001,17.6 -0.039,18.002 0.038,18.39C0.116,18.778 0.306,19.135 0.586,19.414C0.865,19.694 1.222,19.884 1.61,19.962C1.998,20.039 2.4,19.999 2.765,19.848C3.131,19.696 3.443,19.44 3.663,19.111C3.883,18.782 4,18.396 4,18C4,17.47 3.789,16.961 3.414,16.586C3.039,16.211 2.53,16 2,16L2,16ZM10,8C9.604,8 9.218,8.117 8.889,8.337C8.56,8.557 8.304,8.869 8.152,9.235C8.001,9.6 7.961,10.002 8.038,10.39C8.116,10.778 8.306,11.135 8.586,11.414C8.865,11.694 9.222,11.884 9.61,11.962C9.998,12.039 10.4,11.999 10.765,11.848C11.131,11.696 11.443,11.44 11.663,11.111C11.883,10.782 12,10.396 12,10C12,9.47 11.789,8.961 11.414,8.586C11.039,8.211 10.53,8 10,8L10,8ZM2,0C1.604,0 1.218,0.117 0.889,0.337C0.56,0.557 0.304,0.869 0.152,1.235C0.001,1.6 -0.039,2.002 0.038,2.39C0.116,2.778 0.306,3.135 0.586,3.414C0.865,3.694 1.222,3.884 1.61,3.962C1.998,4.039 2.4,3.999 2.765,3.848C3.131,3.696 3.443,3.44 3.663,3.111C3.883,2.782 4,2.396 4,2C4,1.47 3.789,0.961 3.414,0.586C3.039,0.211 2.53,0 2,0L2,0ZM46,24C45.604,24 45.218,24.117 44.889,24.337C44.56,24.557 44.304,24.869 44.152,25.235C44.001,25.6 43.961,26.002 44.038,26.39C44.116,26.778 44.306,27.135 44.586,27.414C44.865,27.694 45.222,27.884 45.61,27.962C45.998,28.039 46.4,27.999 46.765,27.848C47.131,27.696 47.443,27.44 47.663,27.111C47.883,26.782 48,26.396 48,26C48,25.47 47.789,24.961 47.414,24.586C47.039,24.211 46.53,24 46,24ZM38,16C37.604,16 37.218,16.117 36.889,16.337C36.56,16.557 36.304,16.869 36.152,17.235C36.001,17.6 35.961,18.002 36.038,18.39C36.116,18.778 36.306,19.135 36.586,19.414C36.865,19.694 37.222,19.884 37.61,19.962C37.998,20.039 38.4,19.999 38.765,19.848C39.131,19.696 39.443,19.44 39.663,19.111C39.883,18.782 40,18.396 40,18C40,17.47 39.789,16.961 39.414,16.586C39.039,16.211 38.53,16 38,16ZM46,8C45.604,8 45.218,8.117 44.889,8.337C44.56,8.557 44.304,8.869 44.152,9.235C44.001,9.6 43.961,10.002 44.038,10.39C44.116,10.778 44.306,11.135 44.586,11.414C44.865,11.694 45.222,11.884 45.61,11.962C45.998,12.039 46.4,11.999 46.765,11.848C47.131,11.696 47.443,11.44 47.663,11.111C47.883,10.782 48,10.396 48,10C48,9.47 47.789,8.961 47.414,8.586C47.039,8.211 46.53,8 46,8L46,8ZM38,0C37.604,0 37.218,0.117 36.889,0.337C36.56,0.557 36.304,0.869 36.152,1.235C36.001,1.6 35.961,2.002 36.038,2.39C36.116,2.778 36.306,3.135 36.586,3.414C36.865,3.694 37.222,3.884 37.61,3.962C37.998,4.039 38.4,3.999 38.765,3.848C39.131,3.696 39.443,3.44 39.663,3.111C39.883,2.782 40,2.396 40,2C40,1.47 39.789,0.961 39.414,0.586C39.039,0.211 38.53,0 38,0L38,0ZM28,44C27.604,44 27.218,44.117 26.889,44.337C26.56,44.557 26.304,44.869 26.152,45.235C26.001,45.6 25.961,46.002 26.038,46.39C26.116,46.778 26.306,47.135 26.586,47.414C26.865,47.694 27.222,47.884 27.61,47.962C27.998,48.039 28.4,47.999 28.765,47.848C29.131,47.696 29.443,47.44 29.663,47.111C29.883,46.782 30,46.396 30,46C30,45.47 29.789,44.961 29.414,44.586C29.039,44.211 28.53,44 28,44ZM20,36C19.604,36 19.218,36.117 18.889,36.337C18.56,36.557 18.304,36.869 18.152,37.235C18.001,37.6 17.961,38.002 18.038,38.39C18.116,38.778 18.306,39.135 18.586,39.414C18.865,39.694 19.222,39.884 19.61,39.962C19.998,40.039 20.4,39.999 20.765,39.848C21.131,39.696 21.443,39.44 21.663,39.111C21.883,38.782 22,38.396 22,38C22,37.47 21.789,36.961 21.414,36.586C21.039,36.211 20.53,36 20,36ZM28,28C27.604,28 27.218,28.117 26.889,28.337C26.56,28.557 26.304,28.869 26.152,29.235C26.001,29.6 25.961,30.002 26.038,30.39C26.116,30.778 26.306,31.135 26.586,31.414C26.865,31.694 27.222,31.884 27.61,31.962C27.998,32.039 28.4,31.999 28.765,31.848C29.131,31.696 29.443,31.44 29.663,31.111C29.883,30.782 30,30.396 30,30C30,29.47 29.789,28.961 29.414,28.586C29.039,28.211 28.53,28 28,28ZM20,20C19.604,20 19.218,20.117 18.889,20.337C18.56,20.557 18.304,20.869 18.152,21.235C18.001,21.6 17.961,22.002 18.038,22.39C18.116,22.778 18.306,23.135 18.586,23.414C18.865,23.694 19.222,23.884 19.61,23.962C19.998,24.039 20.4,23.999 20.765,23.848C21.131,23.696 21.443,23.44 21.663,23.111C21.883,22.782 22,22.396 22,22C22,21.47 21.789,20.961 21.414,20.586C21.039,20.211 20.53,20 20,20Z" fill="#374957"/>
</svg>
