<svg width="48" height="46" viewBox="0 0 48 46" fill="none" xmlns="http://www.w3.org/2000/svg" xmlns:xlink="http://www.w3.org/1999/xlink">
<path d="M47.999,45.999L43.999,45.999C43.994,42.287 42.518,38.729 39.894,36.104C37.269,33.479 33.71,32.003 29.999,31.999L20.339,31.999L20.339,44.827L1.753,26.241C0.628,25.116 -0.004,23.59 -0.004,21.999C-0.004,20.408 0.628,18.882 1.753,17.757L20.339,-0.829L20.339,11.999L29.999,11.999C34.771,12.004 39.346,13.902 42.721,17.277C46.095,20.651 47.993,25.227 47.999,29.999L47.999,45.999ZM16.339,8.827L4.581,20.585C4.206,20.96 3.995,21.468 3.995,21.999C3.995,22.529 4.206,23.038 4.581,23.413L16.339,35.171L16.339,27.999L29.999,27.999C32.684,27.999 35.336,28.6 37.759,29.759C40.181,30.918 42.314,32.606 43.999,34.697L43.999,29.999C43.994,26.287 42.518,22.729 39.894,20.104C37.269,17.479 33.71,16.003 29.999,15.999L16.339,15.999L16.339,8.827Z" fill="#374957"/>
</svg>
