<svg width="48" height="48" viewBox="0 0 48 48" fill="none" xmlns="http://www.w3.org/2000/svg" xmlns:xlink="http://www.w3.org/1999/xlink">
<path d="M20,4C20,2.939 20.421,1.922 21.171,1.172C21.922,0.421 22.939,0 24,0C25.061,0 26.078,0.421 26.828,1.172C27.578,1.922 28,2.939 28,4C28,5.061 27.578,6.078 26.828,6.828C26.078,7.579 25.061,8 24,8C22.939,8 21.922,7.579 21.171,6.828C20.421,6.078 20,5.061 20,4L20,4ZM45.226,5.012C44.489,3.747 43.315,2.796 41.925,2.337C40.535,1.877 39.025,1.942 37.68,2.518C33.289,4.604 29.328,7.493 26,11.036L26,28.586C28.555,29.552 31.268,30.032 34,30C37.606,30.014 41.077,28.631 43.684,26.141C46.292,23.65 47.834,20.247 47.986,16.644C48.039,12.598 47.091,8.602 45.226,5.012L45.226,5.012ZM44.542,30.522C41.488,32.775 37.795,33.994 34,34C30.572,34.037 27.171,33.384 24,32.08C20.829,33.384 17.428,34.037 14,34C10.205,33.994 6.511,32.775 3.458,30.522C-0.372,36.696 4.498,45.522 6.132,46.992L6.932,47.91L8.116,47.614C13.406,46.135 18.201,43.262 22,39.294L22,44L26,44L26,39.294C29.797,43.261 34.59,46.134 39.878,47.614L41.062,47.91L41.862,46.992C43.526,45.502 48.36,36.646 44.542,30.522L44.542,30.522ZM14.412,30C17.01,30.036 19.589,29.555 22,28.586L22,11.036C18.672,7.493 14.71,4.604 10.32,2.518C8.974,1.941 7.464,1.876 6.074,2.336C4.683,2.795 3.509,3.747 2.772,5.012C0.908,8.603 -0.039,12.599 0.014,16.644C0.217,20.301 1.831,23.738 4.516,26.229C7.202,28.72 10.749,30.072 14.412,30L14.412,30Z" fill="#374957"/>
</svg>
