<svg width="48" height="48" viewBox="0 0 48 48" fill="none" xmlns="http://www.w3.org/2000/svg" xmlns:xlink="http://www.w3.org/1999/xlink">
<path d="M24,0C17.635,0 11.53,2.529 7.029,7.029C2.529,11.53 0,17.635 0,24C0,30.365 2.529,36.47 7.029,40.971C11.53,45.471 17.635,48 24,48L24.828,48L48,24.828L48,24C47.993,17.637 45.462,11.536 40.963,7.037C36.464,2.538 30.363,0.007 24,0L24,0ZM4,24C3.995,19.042 5.834,14.258 9.158,10.58C12.483,6.901 17.056,4.589 21.989,4.093C26.923,3.597 31.864,4.953 35.854,7.897C39.844,10.84 42.598,15.162 43.58,20.022C37.367,20.135 31.441,22.654 27.047,27.047C22.654,31.441 20.135,37.367 20.022,43.58C15.505,42.66 11.444,40.21 8.525,36.642C5.606,33.075 4.008,28.609 4,24L4,24ZM24.044,43.128C24.268,38.139 26.35,33.414 29.881,29.882C33.412,26.351 38.137,24.268 43.126,24.044L24.044,43.128Z" fill="#374957"/>
</svg>
