<svg width="48" height="48" viewBox="0 0 48 48" fill="none" xmlns="http://www.w3.org/2000/svg" xmlns:xlink="http://www.w3.org/1999/xlink">
<path d="M20.644,47.472C18.891,47.781 17.115,47.945 15.334,47.96C11.148,48.247 7.013,46.899 3.8,44.2C0.308,40.698 -0.636,34.16 0.512,27.342L20.644,47.472ZM46.414,25.242C44.96,30.282 42.313,34.897 38.696,38.696C34.892,42.31 30.272,44.953 25.228,46.4L1.586,22.758C3.04,17.719 5.688,13.103 9.304,9.304C13.103,5.688 17.718,3.04 22.758,1.586L46.414,25.242ZM35.414,20.586L27.414,12.586L24.586,15.414L27.172,18L24,21.172L21.414,18.586L18.586,21.414L21.172,24L18,27.172L15.414,24.586L12.586,27.414L20.586,35.414L23.414,32.586L20.828,30L24,26.828L26.586,29.414L29.414,26.586L26.828,24L30,20.828L32.586,23.414L35.414,20.586ZM47.488,20.658C48.636,13.84 47.688,7.302 44.196,3.804C40.704,0.306 34.16,-0.638 27.34,0.512L47.488,20.658Z" fill="#374957"/>
</svg>
