<svg width="38" height="48" viewBox="0 0 38 48" fill="none" xmlns="http://www.w3.org/2000/svg" xmlns:xlink="http://www.w3.org/1999/xlink">
<path d="M29.874,4.54C27.997,2.848 25.78,1.578 23.37,0.816C20.961,0.053 18.417,-0.184 15.908,0.12C12.475,0.577 9.241,1.997 6.581,4.215C3.921,6.433 1.943,9.359 0.876,12.654C-0.191,15.949 -0.304,19.479 0.551,22.835C1.407,26.192 3.194,29.237 5.708,31.62C7.618,33.422 8,36 8,39.558L8,39.864C7.99,42.009 8.831,44.07 10.339,45.595C11.846,47.12 13.897,47.985 16.042,48L19.958,48C22.103,47.985 24.154,47.12 25.661,45.595C27.169,44.07 28.01,42.009 28,39.864L28,38.818C28,35.478 28.3,33.4 29.884,31.988C31.81,30.258 33.351,28.142 34.405,25.778C35.46,23.413 36.005,20.853 36.005,18.264C36.005,15.675 35.46,13.115 34.405,10.751C33.351,8.386 31.81,6.27 29.884,4.54L29.874,4.54ZM22,39.864C22.012,40.418 21.803,40.954 21.421,41.354C21.038,41.755 20.512,41.987 19.958,42L16.042,42C15.488,41.987 14.962,41.755 14.579,41.354C14.197,40.954 13.988,40.418 14,39.864L14,39.558C14,39.04 14,38.52 13.972,38L22.012,38C22.012,38.274 22,38.548 22,38.818L22,39.864ZM25.89,27.51C24.527,28.725 23.502,30.272 22.914,32L21,32L21,22.166C21.909,21.643 22.664,20.891 23.19,19.984C23.717,19.078 23.996,18.049 24,17C24,16.205 23.684,15.442 23.121,14.879C22.559,14.316 21.796,14 21,14C20.204,14 19.441,14.316 18.879,14.879C18.316,15.442 18,16.205 18,17C18,16.205 17.684,15.442 17.121,14.879C16.559,14.316 15.796,14 15,14C14.204,14 13.441,14.316 12.879,14.879C12.316,15.442 12,16.205 12,17C12.004,18.049 12.283,19.078 12.809,19.984C13.336,20.891 14.091,21.643 15,22.166L15,32L12.924,32C12.285,30.201 11.229,28.578 9.844,27.264C8.423,25.916 7.343,24.25 6.692,22.402C6.041,20.555 5.839,18.579 6.102,16.638C6.437,13.965 7.65,11.479 9.549,9.569C11.449,7.658 13.929,6.432 16.6,6.082C17.065,6.028 17.532,6 18,6C20.91,5.993 23.719,7.069 25.88,9.018C27.176,10.184 28.213,11.61 28.922,13.202C29.632,14.795 30,16.519 30,18.262C30.001,20.005 29.636,21.73 28.928,23.323C28.22,24.916 27.185,26.343 25.89,27.51L25.89,27.51Z" fill="#374957"/>
</svg>
