<svg width="48" height="48" viewBox="0 0 48 48" fill="none" xmlns="http://www.w3.org/2000/svg" xmlns:xlink="http://www.w3.org/1999/xlink">
<path d="M42,0L6,0C4.409,0 2.883,0.632 1.757,1.757C0.632,2.883 0,4.409 0,6L0,48L48,48L48,6C48,4.409 47.368,2.883 46.243,1.757C45.117,0.632 43.591,0 42,0L42,0ZM44,6L44,12L36,12L36,4L42,4C42.53,4 43.039,4.211 43.414,4.586C43.789,4.961 44,5.47 44,6ZM26,12L26,4L32,4L32,12L26,12ZM32,16L32,22L26,22L26,16L32,16ZM22,12L16,12L16,4L22,4L22,12ZM22,16L22,22L16,22L16,16L22,16ZM12,22L4,22L4,16L12,16L12,22ZM12,26L12,32L4,32L4,26L12,26ZM16,26L22,26L22,32L16,32L16,26ZM22,36L22,44L16,44L16,36L22,36ZM26,36L32,36L32,44L26,44L26,36ZM26,32L26,26L32,26L32,32L26,32ZM36,26L44,26L44,32L36,32L36,26ZM36,22L36,16L44,16L44,22L36,22ZM6,4L12,4L12,12L4,12L4,6C4,5.47 4.211,4.961 4.586,4.586C4.961,4.211 5.47,4 6,4L6,4ZM4,36L12,36L12,44L4,44L4,36ZM36,44L36,36L44,36L44,44L36,44Z" fill="#374957"/>
</svg>
