<svg width="48" height="48" viewBox="0 0 48 48" fill="none" xmlns="http://www.w3.org/2000/svg" xmlns:xlink="http://www.w3.org/1999/xlink">
<path d="M35.226,25.696L47.756,38.226L41.414,44.568C40.309,45.668 38.996,46.538 37.551,47.128C36.107,47.717 34.56,48.013 33,48C18.504,48 0,29.496 0,15C-0.012,13.44 0.284,11.893 0.874,10.448C1.463,9.004 2.332,7.69 3.432,6.584L9.774,0.244L22.304,12.774L14.054,21.024C16.507,26.853 21.138,31.494 26.96,33.96L35.226,25.696ZM35,18L44,18L44,14L36.878,14C38.192,12.68 46.73,4.098 47.914,2.914L45.086,0.086C43.902,1.27 35.322,9.896 34,11.222L34,4L30,4L30,13.058C30.009,14.376 30.541,15.636 31.478,16.563C32.416,17.49 33.682,18.006 35,18Z" fill="#374957"/>
</svg>
