<svg width="44" height="48" viewBox="0 0 44 48" fill="none" xmlns="http://www.w3.org/2000/svg" xmlns:xlink="http://www.w3.org/1999/xlink">
<path d="M28,48L16,39L16,28.76L0,10.76L0,6C0,4.409 0.632,2.883 1.757,1.757C2.883,0.632 4.409,0 6,0L38,0C39.591,0 41.117,0.632 42.243,1.757C43.368,2.883 44,4.409 44,6L44,10.76L28,28.76L28,48ZM20,37L24,40L24,27.24L40,9.24L40,6C40,5.47 39.789,4.961 39.414,4.586C39.039,4.211 38.53,4 38,4L6,4C5.47,4 4.961,4.211 4.586,4.586C4.211,4.961 4,5.47 4,6L4,9.24L20,27.24L20,37Z" fill="#374957"/>
</svg>
