<svg width="48" height="48" viewBox="0 0 48 48" fill="none" xmlns="http://www.w3.org/2000/svg" xmlns:xlink="http://www.w3.org/1999/xlink">
<path d="M37.538,29.626C41.538,27.82 44,25.124 44,22C44,17.24 38.298,13.468 30.116,12.35C31.29,11.203 31.966,9.641 32,8C32,3.514 26.728,0 20,0C13.272,0 8,3.514 8,8C8.101,9.374 8.583,10.693 9.391,11.809C10.199,12.925 11.302,13.795 12.576,14.32C8.508,16.126 6,18.846 6,22C6,24.94 8.184,27.502 11.776,29.298C5.022,30.848 0,33.77 0,38C0,44.566 12.074,48 24,48C35.926,48 48,44.566 48,38C48,34.05 43.618,31.242 37.538,29.626L37.538,29.626ZM20,4C24.58,4 28,6.112 28,8C28,9.888 24.58,12 20,12C15.42,12 12,9.888 12,8C12,6.112 15.42,4 20,4ZM10,22C10,19.494 15.706,16 25,16C34.294,16 40,19.494 40,22C40,24.506 34.292,28 25,28C15.708,28 10,24.506 10,22L10,22ZM24,44C11.976,44 4,40.388 4,38C4,35.612 11.976,32 24,32C36.024,32 44,35.612 44,38C44,40.388 36.024,44 24,44L24,44Z" fill="#374957"/>
</svg>
