<svg width="36" height="48" viewBox="0 0 36 48" fill="none" xmlns="http://www.w3.org/2000/svg" xmlns:xlink="http://www.w3.org/1999/xlink">
<path d="M24,12L12,12L12,8L24,8L24,12ZM36,36.6L35.664,37.104C34.84,38.204 33.838,39.159 32.7,39.93L36,48L31.676,48L29.184,41.908C25.639,43.367 21.832,44.079 18,44C14.168,44.079 10.361,43.367 6.816,41.908L4.324,48L0,48L3.3,39.936C2.162,39.165 1.16,38.21 0.336,37.11L0,36.6L0,8C0.101,6.905 0.507,5.861 1.172,4.985C1.838,4.11 2.736,3.44 3.764,3.05C8.285,1.177 13.109,0.144 18,0C22.891,0.144 27.715,1.178 32.236,3.05C33.264,3.44 34.162,4.11 34.827,4.986C35.493,5.861 35.899,6.905 36,8L36,36.6ZM4.018,8.5C4.2,16.84 9.044,28 18,28C26.956,28 31.8,16.84 31.982,8.5C31.966,8.125 31.842,7.763 31.626,7.456C31.41,7.149 31.11,6.911 30.762,6.77C26.706,5.098 22.385,4.16 18,4C13.615,4.16 9.294,5.098 5.238,6.77C4.89,6.911 4.59,7.149 4.374,7.456C4.158,7.763 4.034,8.125 4.018,8.5ZM32,22.822C28.834,28.188 23.962,32 18,32C12.038,32 7.166,28.188 4,22.822L4,35.296C5.104,36.514 9.052,40 18,40C26.948,40 30.876,36.53 32,35.294L32,22.822ZM18,34C17.604,34 17.218,34.117 16.889,34.337C16.56,34.557 16.304,34.869 16.152,35.235C16.001,35.6 15.961,36.002 16.038,36.39C16.116,36.778 16.306,37.135 16.586,37.414C16.865,37.694 17.222,37.884 17.61,37.962C17.998,38.039 18.4,37.999 18.765,37.848C19.131,37.696 19.443,37.44 19.663,37.111C19.883,36.782 20,36.396 20,36C20,35.47 19.789,34.961 19.414,34.586C19.039,34.211 18.53,34 18,34Z" fill="#374957"/>
</svg>
