<svg width="48" height="48" viewBox="0 0 48 48" fill="none" xmlns="http://www.w3.org/2000/svg" xmlns:xlink="http://www.w3.org/1999/xlink">
<path d="M48,18C48.005,16.899 47.706,15.818 47.137,14.875C46.568,13.932 45.751,13.164 44.775,12.655C43.799,12.146 42.701,11.915 41.602,11.988C40.504,12.061 39.446,12.435 38.546,13.069C37.646,13.703 36.937,14.572 36.498,15.582C36.059,16.591 35.906,17.703 36.056,18.793C36.206,19.884 36.654,20.912 37.349,21.766C38.045,22.619 38.962,23.265 40,23.632L40,32C40,35.183 38.736,38.235 36.485,40.485C34.235,42.736 31.183,44 28,44C24.817,44 21.765,42.736 19.515,40.485C17.264,38.235 16,35.183 16,32L16,31.84C19.328,31.357 22.372,29.693 24.575,27.152C26.778,24.612 27.994,21.363 28,18L28,6C28,4.409 27.368,2.883 26.243,1.757C25.117,0.632 23.591,0 22,0L16,0L16,4L22,4C22.53,4 23.039,4.211 23.414,4.586C23.789,4.961 24,5.47 24,6L24,18C24,20.652 22.946,23.196 21.071,25.071C19.196,26.946 16.652,28 14,28C11.348,28 8.804,26.946 6.929,25.071C5.054,23.196 4,20.652 4,18L4,6C4,5.47 4.211,4.961 4.586,4.586C4.961,4.211 5.47,4 6,4L12,4L12,0L6,0C4.409,0 2.883,0.632 1.757,1.757C0.632,2.883 0,4.409 0,6L0,18C0.006,21.363 1.222,24.612 3.425,27.152C5.628,29.693 8.672,31.357 12,31.84L12,32C12,36.243 13.686,40.313 16.686,43.314C19.687,46.314 23.757,48 28,48C32.243,48 36.313,46.314 39.314,43.314C42.314,40.313 44,36.243 44,32L44,23.632C45.166,23.22 46.176,22.458 46.892,21.449C47.608,20.441 47.995,19.237 48,18L48,18Z" fill="#374957"/>
</svg>
