<svg width="34" height="48" viewBox="0 0 34 48" fill="none" xmlns="http://www.w3.org/2000/svg" xmlns:xlink="http://www.w3.org/1999/xlink">
<path d="M32.493,3.164C32.126,2.84 28.545,0 16,0C3.455,0 -0.126,2.84 -0.493,3.164L-0.969,3.584L-0.969,48L32.969,48L32.969,3.584L32.493,3.164ZM16,2.813C24.979,2.813 28.884,4.335 30.156,4.996L30.156,11.25L1.844,11.25L1.844,4.996C3.116,4.335 7.021,2.813 16,2.813ZM20.219,39.562L11.781,39.562L11.781,36.75L20.219,36.75L20.219,39.562ZM11.781,42.375L20.219,42.375L20.219,45.188L11.781,45.188L11.781,42.375ZM23.031,45.188L23.031,33.938L8.969,33.938L8.969,45.188L1.844,45.188L1.844,14.063L30.156,14.063L30.156,45.188L23.031,45.188Z" fill="#000000"/>
</svg>
