<svg width="48" height="50" viewBox="0 0 48 50" fill="none" xmlns="http://www.w3.org/2000/svg" xmlns:xlink="http://www.w3.org/1999/xlink">
<path d="M47.58,31.131L39.956,33.201L42.024,40.825L38.164,41.873L35.788,33.115L31.862,30.865L26,34.249L26,38.789L32.414,45.201L29.586,48.029L24,42.445L18.414,48.031L15.586,45.201L22,38.789L22,34.249L16.138,30.865L12.212,33.115L9.836,41.873L5.976,40.825L8.044,33.201L0.42,31.131L1.466,27.273L10.222,29.647L14,27.481L14,20.625L10.222,18.457L1.466,20.831L0.42,16.971L8.044,14.905L5.976,7.281L9.836,6.233L12.212,14.989L15.8,17.047L22,13.467L22,9.315L15.586,2.901L18.414,0.073L24,5.659L29.586,0.073L32.414,2.901L26,9.315L26,13.467L32.2,17.047L35.8,14.989L38.174,6.233L42.034,7.281L39.956,14.905L47.58,16.971L46.534,20.831L37.778,18.457L34,20.623L34,27.481L37.778,29.647L46.534,27.273L47.58,31.131Z" fill="#374957"/>
</svg>
