<svg width="28" height="16" viewBox="0 0 28 16" fill="none" xmlns="http://www.w3.org/2000/svg" xmlns:xlink="http://www.w3.org/1999/xlink">
<path d="M2.828,15.172L25.172,15.172C25.567,15.172 25.954,15.055 26.283,14.835C26.612,14.615 26.868,14.303 27.019,13.937C27.17,13.572 27.21,13.17 27.133,12.782C27.056,12.394 26.865,12.038 26.586,11.758L15.414,0.586C15.039,0.211 14.53,0 14,0C13.469,0 12.961,0.211 12.586,0.586L1.414,11.758C1.134,12.038 0.944,12.394 0.867,12.782C0.789,13.17 0.829,13.572 0.98,13.937C1.132,14.303 1.388,14.615 1.717,14.835C2.046,15.055 2.432,15.172 2.828,15.172Z" fill="#374957"/>
</svg>
