<svg width="50" height="42" viewBox="0 0 50 42" fill="none" xmlns="http://www.w3.org/2000/svg" xmlns:xlink="http://www.w3.org/1999/xlink">
<path d="M39.58,20.16C38.04,14.424 35.734,8.134 34.58,5.092C35.56,4.694 36.562,4.351 37.58,4.062C37.858,3.99 38.148,3.983 38.429,4.042C38.71,4.101 38.974,4.224 39.2,4.402C39.449,4.591 39.651,4.836 39.79,5.117C39.928,5.398 40,5.707 40,6.02L44,6.02C44.002,5.093 43.791,4.178 43.381,3.347C42.971,2.516 42.374,1.792 41.638,1.23C40.927,0.677 40.098,0.296 39.216,0.117C38.333,-0.061 37.421,-0.033 36.552,0.2C34.718,0.737 32.922,1.398 31.178,2.178L29.432,2.964L30.142,4.746C30.162,4.794 31.154,7.28 32.384,10.726L24.04,17.212L16.828,10L20,10L20,6L8,6L8,10L11.172,10L20.858,19.688L16.882,22.78C15.095,21.098 12.748,20.14 10.295,20.089C7.842,20.039 5.457,20.901 3.603,22.507C1.749,24.114 0.557,26.352 0.258,28.787C-0.042,31.222 0.573,33.682 1.983,35.689C3.393,37.697 5.498,39.111 7.89,39.656C10.282,40.201 12.792,39.839 14.933,38.64C17.073,37.441 18.693,35.491 19.478,33.167C20.264,30.842 20.159,28.309 19.184,26.058L33.76,14.722C34.36,16.558 34.96,18.484 35.492,20.358C33.098,20.982 31.02,22.471 29.66,24.538C28.3,26.605 27.755,29.102 28.129,31.548C28.504,33.993 29.771,36.213 31.687,37.779C33.603,39.344 36.031,40.143 38.503,40.022C40.974,39.901 43.312,38.869 45.066,37.124C46.82,35.379 47.865,33.046 47.999,30.576C48.133,28.105 47.347,25.673 45.791,23.749C44.236,21.824 42.023,20.545 39.58,20.158L39.58,20.16Z" fill="#374957"/>
</svg>
