<svg width="48" height="50" viewBox="0 0 48 50" fill="none" xmlns="http://www.w3.org/2000/svg" xmlns:xlink="http://www.w3.org/1999/xlink">
<path d="M39.999,24C38.772,23.999 37.561,24.282 36.461,24.825C35.361,25.368 34.401,26.157 33.655,27.132L33.515,27.072C34.065,25.368 34.147,23.547 33.754,21.8C33.36,20.054 32.504,18.445 31.276,17.142C30.048,15.838 28.493,14.889 26.773,14.392C25.052,13.895 23.23,13.87 21.497,14.317L21.315,13.973C22.768,12.681 23.699,10.903 23.935,8.973C24.171,7.043 23.694,5.093 22.595,3.488C21.496,1.884 19.85,0.736 17.965,0.259C16.08,-0.219 14.086,0.008 12.356,0.896C10.626,1.784 9.279,3.272 8.568,5.082C7.856,6.891 7.829,8.898 8.492,10.727C9.154,12.555 10.461,14.079 12.167,15.012C13.872,15.946 15.86,16.226 17.757,15.799L17.903,16.073C15.903,17.608 14.558,19.843 14.137,22.328C13.716,24.814 14.251,27.366 15.635,29.474L11.865,33C10.161,32.058 8.172,31.77 6.271,32.19C4.37,32.61 2.687,33.709 1.538,35.28C0.389,36.852 -0.147,38.789 0.029,40.727C0.206,42.666 1.083,44.474 2.497,45.812C3.911,47.151 5.765,47.927 7.71,47.997C9.656,48.066 11.56,47.424 13.066,46.19C14.572,44.956 15.576,43.216 15.891,41.295C16.206,39.373 15.809,37.403 14.775,35.754L18.451,32.318C20.47,33.667 22.911,34.234 25.318,33.914C27.726,33.593 29.933,32.406 31.529,30.576L32.087,30.814C31.845,32.428 32.103,34.079 32.826,35.543C33.549,37.007 34.703,38.215 36.133,39.004C37.562,39.793 39.199,40.125 40.824,39.957C42.448,39.788 43.982,39.127 45.219,38.061C46.456,36.996 47.338,35.577 47.745,33.996C48.153,32.414 48.067,30.746 47.498,29.215C46.93,27.684 45.907,26.364 44.566,25.432C43.226,24.499 41.632,24 39.999,24L39.999,24ZM11.999,7.999C11.999,7.208 12.233,6.435 12.673,5.777C13.113,5.119 13.737,4.607 14.468,4.304C15.199,4.001 16.003,3.922 16.779,4.076C17.555,4.231 18.268,4.612 18.827,5.171C19.387,5.73 19.768,6.443 19.922,7.219C20.076,7.995 19.997,8.799 19.694,9.53C19.392,10.261 18.879,10.886 18.221,11.325C17.563,11.765 16.79,11.999 15.999,11.999C14.938,11.999 13.921,11.578 13.17,10.828C12.42,10.078 11.999,9.06 11.999,7.999ZM7.999,44C7.208,44 6.434,43.765 5.777,43.325C5.119,42.886 4.606,42.261 4.303,41.53C4.001,40.799 3.921,39.995 4.076,39.219C4.23,38.443 4.611,37.731 5.17,37.171C5.73,36.612 6.443,36.231 7.219,36.076C7.994,35.922 8.799,36.001 9.53,36.304C10.261,36.607 10.885,37.119 11.325,37.777C11.764,38.435 11.999,39.208 11.999,40C11.999,41.06 11.577,42.078 10.827,42.828C10.077,43.578 9.06,44 7.999,44ZM23.999,30C22.7,29.997 21.437,29.573 20.4,28.792C19.363,28.01 18.607,26.914 18.247,25.666C17.886,24.418 17.94,23.088 18.4,21.873C18.86,20.659 19.702,19.627 20.799,18.931L21.613,18.497C22.431,18.142 23.318,17.973 24.209,18.003C25.101,18.033 25.974,18.262 26.766,18.672C27.558,19.082 28.249,19.664 28.787,20.375C29.326,21.085 29.7,21.907 29.881,22.781C30.062,23.654 30.046,24.557 29.835,25.423C29.623,26.29 29.221,27.098 28.657,27.79C28.094,28.481 27.383,29.038 26.578,29.421C25.772,29.803 24.891,30.001 23.999,30L23.999,30ZM39.999,36C39.208,36 38.434,35.765 37.777,35.325C37.119,34.886 36.606,34.261 36.303,33.53C36.001,32.799 35.921,31.995 36.076,31.219C36.23,30.443 36.611,29.731 37.17,29.171C37.73,28.612 38.442,28.231 39.218,28.076C39.994,27.922 40.799,28.001 41.53,28.304C42.26,28.607 42.885,29.119 43.325,29.777C43.764,30.435 43.999,31.208 43.999,32C43.999,33.06 43.577,34.078 42.827,34.828C42.077,35.578 41.06,36 39.999,36Z" fill="#374957"/>
</svg>
