<svg width="48" height="44" viewBox="0 0 48 44" fill="none" xmlns="http://www.w3.org/2000/svg" xmlns:xlink="http://www.w3.org/1999/xlink">
<path d="M38,5.999L0,5.999C0,4.407 0.632,2.881 1.757,1.756C2.883,0.631 4.409,-0.001 6,-0.001L32,-0.001C33.591,-0.001 35.117,0.631 36.243,1.756C37.368,2.881 38,4.407 38,5.999ZM13.884,37.999C13.957,38.327 13.996,38.662 14,38.999C14,40.325 13.473,41.596 12.536,42.534C11.598,43.472 10.326,43.999 9,43.999C7.674,43.999 6.402,43.472 5.464,42.534C4.527,41.596 4,40.325 4,38.999C4.004,38.662 4.043,38.327 4.116,37.999L13.884,37.999ZM43.884,37.999C43.957,38.327 43.996,38.662 44,38.999C44,40.325 43.473,41.596 42.536,42.534C41.598,43.472 40.326,43.999 39,43.999C37.674,43.999 36.402,43.472 35.464,42.534C34.527,41.596 34,40.325 34,38.999C34.004,38.662 34.043,38.327 34.116,37.999L43.884,37.999ZM10,17.999L16,17.999L16,9.999L10,9.999L10,17.999ZM26,9.999L20,9.999L20,33.999L26,33.999L26,9.999ZM38,9.999L30,9.999L30,17.999L38,17.999L38,9.999ZM42,21.999L30,21.999L30,33.999L48,33.999L48,27.999C48,26.407 47.368,24.881 46.243,23.756C45.117,22.631 43.591,21.999 42,21.999ZM6,17.999L6,9.999L0,9.999L0,17.999L6,17.999ZM16,21.999L0,21.999L0,33.999L16,33.999L16,21.999Z" fill="#374957"/>
</svg>
