<svg width="24" height="24" viewBox="0 0 24 24" fill="none" xmlns="http://www.w3.org/2000/svg" xmlns:xlink="http://www.w3.org/1999/xlink">
<path d="M21,9L15,9L15,3C15,2.204 14.684,1.441 14.121,0.879C13.559,0.316 12.796,0 12,0C11.204,0 10.441,0.316 9.879,0.879C9.316,1.441 9,2.204 9,3L9,9L3,9C2.204,9 1.441,9.316 0.879,9.879C0.316,10.441 0,11.204 0,12C0,12.796 0.316,13.559 0.879,14.121C1.441,14.684 2.204,15 3,15L9,15L9,21C9,21.796 9.316,22.559 9.879,23.121C10.441,23.684 11.204,24 12,24C12.796,24 13.559,23.684 14.121,23.121C14.684,22.559 15,21.796 15,21L15,15L21,15C21.796,15 22.559,14.684 23.121,14.121C23.684,13.559 24,12.796 24,12C24,11.204 23.684,10.441 23.121,9.879C22.559,9.316 21.796,9 21,9Z" fill="#374957"/>
</svg>
