<svg width="50" height="50" viewBox="0 0 50 50" fill="none" xmlns="http://www.w3.org/2000/svg" xmlns:xlink="http://www.w3.org/1999/xlink">
<path d="M45.227,30.056L48.057,27.226L20.839,0.01L18.011,2.838L20.273,5.1L17.177,8.2L11.481,2.432L8.637,5.244L14.349,11.024L1.759,23.624C0.634,24.749 0.002,26.275 0.002,27.866C0.002,29.457 0.634,30.983 1.759,32.108L15.899,46.25C16.456,46.807 17.117,47.249 17.845,47.551C18.573,47.853 19.354,48.008 20.142,48.008C20.93,48.008 21.71,47.853 22.438,47.551C23.166,47.249 23.828,46.807 24.385,46.25L42.901,27.736L45.227,30.056ZM21.557,43.414C21.176,43.779 20.67,43.982 20.143,43.982C19.616,43.982 19.109,43.779 18.729,43.414L4.587,29.272C4.212,28.897 4.001,28.388 4.001,27.858C4.001,27.328 4.212,26.819 4.587,26.444L17.161,13.87L26.579,23.4L29.423,20.6L19.987,11.044L23.101,7.928L40.073,24.9L21.557,43.414ZM43.001,34C43.001,34 48.001,40.238 48.001,43C48.001,44.326 47.474,45.598 46.536,46.536C45.599,47.473 44.327,48 43.001,48C41.675,48 40.403,47.473 39.465,46.536C38.528,45.598 38.001,44.326 38.001,43C38.001,40.5 43.001,34 43.001,34Z" fill="#374957"/>
</svg>
