<svg width="48" height="48" viewBox="0 0 48 48" fill="none" xmlns="http://www.w3.org/2000/svg" xmlns:xlink="http://www.w3.org/1999/xlink">
<path d="M36,24C36,21.627 35.296,19.307 33.978,17.333C32.659,15.36 30.785,13.822 28.592,12.913C26.399,12.005 23.987,11.768 21.659,12.231C19.331,12.694 17.193,13.836 15.515,15.515C13.836,17.193 12.694,19.331 12.231,21.659C11.768,23.987 12.005,26.399 12.913,28.592C13.822,30.785 15.36,32.659 17.333,33.978C19.307,35.296 21.627,36 24,36C27.182,35.997 30.232,34.732 32.482,32.482C34.732,30.232 35.997,27.182 36,24L36,24ZM24,32L18,24L24,16L30,24L24,32ZM32.782,1.686C35.842,2.898 38.621,4.724 40.948,7.052C43.275,9.379 45.102,12.158 46.314,15.218L38.62,17.526C37.003,13.899 34.101,10.997 30.474,9.38L32.782,1.686ZM19.044,0.52C22.312,-0.173 25.688,-0.173 28.956,0.52L26.64,8.236C24.894,7.921 23.106,7.921 21.36,8.236L19.044,0.52ZM39.764,26.64C40.079,24.894 40.079,23.106 39.764,21.36L47.48,19.044C48.173,22.312 48.173,25.688 47.48,28.956L39.764,26.64ZM8.236,26.64L0.52,28.956C-0.173,25.688 -0.173,22.312 0.52,19.044L8.236,21.36C7.921,23.106 7.921,24.894 8.236,26.64L8.236,26.64ZM28.956,47.48C25.688,48.173 22.312,48.173 19.044,47.48L21.36,39.764C23.106,40.079 24.894,40.079 26.64,39.764L28.956,47.48ZM46.314,32.782C45.102,35.842 43.275,38.621 40.948,40.948C38.621,43.275 35.842,45.102 32.782,46.314L30.474,38.62C34.101,37.003 37.003,34.101 38.62,30.474L46.314,32.782ZM1.688,15.218C2.9,12.158 4.725,9.379 7.052,7.051C9.379,4.724 12.158,2.898 15.218,1.686L17.526,9.38C13.899,10.997 10.998,13.898 9.382,17.526L1.688,15.218ZM15.218,46.314C12.158,45.102 9.379,43.276 7.052,40.949C4.725,38.621 2.9,35.842 1.688,32.782L9.382,30.474C10.998,34.102 13.899,37.003 17.526,38.62L15.218,46.314Z" fill="#374957"/>
</svg>
