<svg width="48" height="48" viewBox="0 0 48 48" fill="none" xmlns="http://www.w3.org/2000/svg" xmlns:xlink="http://www.w3.org/1999/xlink">
<path d="M37.948,6C39.272,4.279 39.993,2.171 40,0L36,0C36,1.591 35.368,3.117 34.243,4.243C33.117,5.368 31.591,6 30,6L18,6C16.409,6 14.883,5.368 13.757,4.243C12.632,3.117 12,1.591 12,0L8,0C8.007,2.171 8.728,4.279 10.052,6L0,6L0,8C0.214,10.907 1.406,13.657 3.382,15.8C6.203,13.097 9.178,10.559 12.292,8.2C13.638,9.128 15.192,9.708 16.816,9.89C16.816,9.89 11.154,14.154 9.076,16L12,16C14.651,16.003 17.193,17.058 19.068,18.932C20.942,20.807 21.997,23.349 22,26L22,36L18,36L18,26C17.994,25.294 17.863,24.596 17.612,23.936L17.612,23.936C17.126,24.037 16.622,24.015 16.147,23.873C15.671,23.731 15.238,23.474 14.886,23.123C14.534,22.773 14.275,22.341 14.132,21.865C13.988,21.39 13.965,20.886 14.064,20.4L14.064,20.4C13.405,20.145 12.706,20.01 12,20L6.87,20L12.042,42.4C12.14,43.915 12.81,45.336 13.916,46.375C15.022,47.415 16.482,47.996 18,48L30,48C31.518,47.996 32.978,47.415 34.084,46.375C35.19,45.336 35.86,43.915 35.958,42.4L41.13,20L36,20C35.294,20.006 34.596,20.137 33.936,20.388L33.936,20.388C34.037,20.874 34.015,21.378 33.873,21.853C33.731,22.329 33.474,22.762 33.123,23.114C32.773,23.466 32.341,23.725 31.865,23.868C31.39,24.012 30.886,24.035 30.4,23.936L30.4,23.936C30.145,24.595 30.01,25.294 30,26L30,36L26,36L26,26C26.003,23.349 27.058,20.807 28.932,18.932C30.807,17.058 33.349,16.003 36,16L38.924,16C36.846,14.154 31.184,9.88 31.184,9.88C32.807,9.701 34.362,9.124 35.708,8.2C38.822,10.559 41.797,13.097 44.618,15.8C46.594,13.657 47.786,10.907 48,8L48,6L37.948,6ZM30,40C30.53,40 31.039,40.211 31.414,40.586C31.789,40.961 32,41.47 32,42C32,42.53 31.789,43.039 31.414,43.414C31.039,43.789 30.53,44 30,44L18,44C17.47,44 16.961,43.789 16.586,43.414C16.211,43.039 16,42.53 16,42C16,41.47 16.211,40.961 16.586,40.586C16.961,40.211 17.47,40 18,40L30,40Z" fill="#374957"/>
</svg>
