<svg width="48" height="48" viewBox="0 0 48 48" fill="none" xmlns="http://www.w3.org/2000/svg" xmlns:xlink="http://www.w3.org/1999/xlink">
<path d="M44,24.368L44,16L40,16C40,5.12 34.056,0.582 33.8,0.4L33.274,0L30,0L30,2C30.034,2.534 29.954,3.07 29.766,3.57C29.577,4.071 29.283,4.526 28.905,4.905C28.526,5.283 28.071,5.577 27.57,5.766C27.07,5.954 26.534,6.034 26,6L20,6C17.126,5.847 14.303,6.797 12.106,8.656C9.909,10.514 8.504,13.141 8.178,16L4,16L4,24.368C2.834,24.78 1.824,25.542 1.108,26.551C0.392,27.559 0.005,28.763 0,30L0,48L48,48L48,30C47.995,28.763 47.608,27.559 46.892,26.551C46.176,25.542 45.166,24.78 44,24.368L44,24.368ZM20,10L26,10C27.486,10.016 28.948,9.621 30.223,8.858C31.499,8.095 32.538,6.993 33.226,5.676C35.165,8.761 36.132,12.358 36,16L12.262,16C12.582,14.22 13.55,12.623 14.979,11.515C16.408,10.407 18.197,9.867 20,10L20,10ZM40,20L40,24L8,24L8,20L40,20ZM44,44L4,44L4,30C4,29.47 4.211,28.961 4.586,28.586C4.961,28.211 5.47,28 6,28L42,28C42.53,28 43.039,28.211 43.414,28.586C43.789,28.961 44,29.47 44,30L44,44Z" fill="#374957"/>
</svg>
