<svg width="48" height="44" viewBox="0 0 48 44" fill="none" xmlns="http://www.w3.org/2000/svg" xmlns:xlink="http://www.w3.org/1999/xlink">
<path d="M48,28C47.995,32.242 46.308,36.309 43.308,39.309C40.309,42.308 36.242,43.995 32,44L31.526,44L36.356,39.17C38.835,38.207 40.923,36.447 42.291,34.167C43.66,31.887 44.232,29.217 43.916,26.576C43.6,23.936 42.415,21.476 40.548,19.583C38.68,17.69 36.236,16.472 33.6,16.12L32.084,15.92L31.884,14.404C31.463,11.401 29.922,8.668 27.568,6.756C25.215,4.843 22.225,3.892 19.199,4.094C16.174,4.296 13.337,5.637 11.259,7.845C9.181,10.054 8.017,12.968 8,16C7.997,18.569 8.827,21.069 10.364,23.126L12.132,25.51L9.256,26.252C7.605,26.673 6.165,27.682 5.207,29.09C4.249,30.498 3.838,32.207 4.052,33.897C4.267,35.587 5.091,37.14 6.371,38.264C7.65,39.388 9.297,40.005 11,40L11.242,40L15.242,44L11,44C8.552,44.003 6.173,43.188 4.241,41.684C2.309,40.181 0.936,38.074 0.338,35.7C-0.26,33.327 -0.047,30.821 0.943,28.582C1.932,26.343 3.642,24.499 5.8,23.342C4.615,21.076 3.998,18.557 4,16C4.012,12.078 5.465,8.297 8.082,5.375C10.7,2.454 14.299,0.595 18.196,0.153C22.094,-0.289 26.018,0.716 29.223,2.977C32.428,5.239 34.691,8.598 35.582,12.418C39.105,13.236 42.249,15.22 44.503,18.048C46.757,20.876 47.989,24.383 48,28L48,28ZM27.626,42.242L38.934,30.934L36.106,28.106L24.8,39.414C24.419,39.778 23.912,39.981 23.386,39.981C22.859,39.981 22.352,39.778 21.972,39.414L15.2,32.646L12.374,35.474L19.142,42.242C20.267,43.367 21.793,43.999 23.384,43.999C24.975,43.999 26.5,43.367 27.626,42.242L27.626,42.242Z" fill="#374957"/>
</svg>
