<svg width="48" height="48" viewBox="0 0 48 48" fill="none" xmlns="http://www.w3.org/2000/svg" xmlns:xlink="http://www.w3.org/1999/xlink">
<path d="M48,6L48,28L44,28L44,16C43.997,13.349 42.942,10.807 41.068,8.932C39.193,7.058 36.651,6.003 34,6L16,6C16,4.409 16.632,2.883 17.757,1.757C18.883,0.632 20.409,0 22,0L42,0C43.591,0 45.117,0.632 46.243,1.757C47.368,2.883 48,4.409 48,6ZM34,10L14,10C12.409,10 10.883,10.632 9.757,11.757C8.632,12.883 8,14.409 8,16L26,16C28.651,16.003 31.193,17.058 33.068,18.932C34.942,20.807 35.997,23.349 36,26L36,38L40,38L40,16C40,14.409 39.368,12.883 38.243,11.757C37.117,10.632 35.591,10 34,10ZM32,26L32,48L0,48L0,26C0,24.409 0.632,22.883 1.757,21.757C2.883,20.632 4.409,20 6,20L26,20C27.591,20 29.117,20.632 30.243,21.757C31.368,22.883 32,24.409 32,26ZM6,28C6,28.396 6.117,28.782 6.337,29.111C6.557,29.44 6.869,29.696 7.235,29.848C7.6,29.999 8.002,30.039 8.39,29.962C8.778,29.884 9.135,29.694 9.414,29.414C9.694,29.135 9.884,28.778 9.962,28.39C10.039,28.002 9.999,27.6 9.848,27.235C9.696,26.869 9.44,26.557 9.111,26.337C8.782,26.117 8.396,26 8,26C7.47,26 6.961,26.211 6.586,26.586C6.211,26.961 6,27.47 6,28L6,28ZM28,24.586L20,32.586L16.106,28.69L4,39.066L4,44.332L15.894,34.132L20,38.242L28,30.242L28,24.586Z" fill="#374957"/>
</svg>
