<svg width="48" height="48" viewBox="0 0 48 48" fill="none" xmlns="http://www.w3.org/2000/svg" xmlns:xlink="http://www.w3.org/1999/xlink">
<path d="M27,13C27,13.593 26.824,14.173 26.494,14.667C26.165,15.16 25.696,15.545 25.148,15.772C24.6,15.999 23.997,16.058 23.415,15.942C22.833,15.827 22.298,15.541 21.879,15.121C21.459,14.702 21.173,14.167 21.058,13.585C20.942,13.003 21.001,12.4 21.228,11.852C21.455,11.304 21.84,10.835 22.333,10.506C22.827,10.176 23.407,10 24,10C24.796,10 25.559,10.316 26.121,10.879C26.684,11.441 27,12.204 27,13ZM48,24C48,19.253 46.592,14.613 43.955,10.666C41.318,6.72 37.57,3.643 33.184,1.827C28.799,0.01 23.973,-0.465 19.318,0.461C14.662,1.387 10.386,3.673 7.029,7.029C3.673,10.386 1.387,14.662 0.461,19.318C-0.465,23.973 0.01,28.799 1.827,33.184C3.643,37.57 6.72,41.318 10.666,43.955C14.613,46.592 19.253,48 24,48L48,48L48,24ZM44,24L44,44L24,44C20.044,44 16.178,42.827 12.889,40.629C9.6,38.432 7.036,35.308 5.522,31.654C4.009,27.999 3.613,23.978 4.384,20.098C5.156,16.219 7.061,12.655 9.858,9.858C12.655,7.061 16.219,5.156 20.098,4.384C23.978,3.613 27.999,4.009 31.654,5.522C35.308,7.036 38.432,9.6 40.629,12.889C42.827,16.178 44,20.044 44,24L44,24ZM28,24C28,22.939 27.579,21.922 26.828,21.172C26.078,20.421 25.061,20 24,20L20,20L20,24L24,24L24,38L28,38L28,24Z" fill="#374957"/>
</svg>
