<svg width="50" height="48" viewBox="0 0 50 48" fill="none" xmlns="http://www.w3.org/2000/svg" xmlns:xlink="http://www.w3.org/1999/xlink">
<path d="M18,10C18,6.686 24,0 24,0C24,0 30,6.686 30,10C30,11.591 29.368,13.117 28.242,14.243C27.117,15.368 25.591,16 24,16C22.408,16 20.882,15.368 19.757,14.243C18.632,13.117 18,11.591 18,10L18,10ZM32.37,14.8C32.991,15.272 33.699,15.616 34.455,15.812C35.21,16.007 35.996,16.05 36.768,15.938C37.54,15.827 38.282,15.562 38.951,15.161C39.62,14.759 40.202,14.229 40.664,13.6C42.626,10.948 41.848,2 41.848,2C41.848,2 33.148,3.748 31.186,6.4C30.242,7.676 29.837,9.271 30.059,10.842C30.28,12.413 31.11,13.835 32.37,14.8L32.37,14.8ZM15.63,14.8C16.889,13.835 17.719,12.413 17.941,10.842C18.162,9.271 17.757,7.676 16.814,6.4C14.852,3.748 6.152,2 6.152,2C6.152,2 5.374,10.948 7.336,13.6C7.797,14.229 8.38,14.759 9.048,15.161C9.717,15.562 10.459,15.827 11.231,15.938C12.003,16.05 12.79,16.007 13.545,15.812C14.3,15.616 15.009,15.272 15.63,14.8ZM47.374,20.6C46.936,19.813 46.297,19.156 45.521,18.699C44.745,18.242 43.86,18.001 42.96,18L5.04,18C4.137,18.001 3.25,18.245 2.473,18.706C1.696,19.166 1.057,19.826 0.622,20.618C0.193,21.374 -0.023,22.233 -0.002,23.103C0.02,23.972 0.277,24.819 0.742,25.554C5.942,33.826 21.13,40.102 22.514,40C21.614,39.326 14,32.8 14,26L18,26C18,29.416 21.638,33.34 24,35.416C26.362,33.34 30,29.416 30,26L34,26C34,32.8 26.386,39.326 25.486,40L22.514,40C20.738,41.912 18,45.296 18,48L30,48C29.689,45.762 28.709,43.671 27.188,42L32,42C33.061,42 34.078,42.421 34.828,43.172C35.578,43.922 36,44.939 36,46L40,46C40,43.878 39.157,41.843 37.657,40.343C36.156,38.843 34.121,38 32,38L30.266,38C35.564,35.568 43.798,31.1 47.266,25.546C47.729,24.81 47.984,23.962 48.003,23.093C48.022,22.224 47.805,21.365 47.374,20.61L47.374,20.6Z" fill="#374957"/>
</svg>
