<svg width="48" height="48" viewBox="0 0 48 48" fill="none" xmlns="http://www.w3.org/2000/svg" xmlns:xlink="http://www.w3.org/1999/xlink">
<path d="M48,32L48,48L32,48C29.194,47.997 26.438,47.256 24.009,45.852C21.58,44.448 19.563,42.43 18.16,40C19.668,39.989 21.17,39.823 22.644,39.504C23.766,40.907 25.19,42.04 26.81,42.818C28.429,43.597 30.203,44 32,44L44,44L44,32C44,30.202 43.594,28.428 42.815,26.808C42.035,25.189 40.901,23.766 39.496,22.644C39.818,21.171 39.987,19.668 40,18.16C42.43,19.563 44.448,21.58 45.852,24.009C47.256,26.438 47.997,29.194 48,32ZM36,18C36,13.226 34.104,8.648 30.728,5.272C27.352,1.896 22.774,0 18,0C13.226,0 8.648,1.896 5.272,5.272C1.896,8.648 0,13.226 0,18L0,36L18,36C22.772,35.995 27.348,34.097 30.722,30.722C34.097,27.348 35.995,22.772 36,18L36,18ZM4,18C4,15.231 4.821,12.524 6.359,10.222C7.898,7.92 10.084,6.125 12.642,5.066C15.201,4.006 18.016,3.729 20.731,4.269C23.447,4.809 25.942,6.143 27.899,8.1C29.857,10.058 31.191,12.553 31.731,15.269C32.271,17.984 31.994,20.799 30.934,23.358C29.875,25.916 28.08,28.102 25.778,29.641C23.476,31.179 20.769,32 18,32L4,32L4,18Z" fill="#374957"/>
</svg>
