<svg width="16" height="26" viewBox="0 0 16 26" fill="none" xmlns="http://www.w3.org/2000/svg" xmlns:xlink="http://www.w3.org/1999/xlink">
<path d="M12.586,25.172L1.414,14C1.039,13.625 0.828,13.116 0.828,12.586C0.828,12.056 1.039,11.547 1.414,11.172L12.586,0C12.865,-0.279 13.222,-0.47 13.61,-0.547C13.998,-0.624 14.4,-0.585 14.765,-0.433C15.13,-0.282 15.443,-0.026 15.663,0.303C15.882,0.632 16,1.019 16,1.414L16,23.758C16,24.154 15.882,24.54 15.663,24.869C15.443,25.198 15.13,25.454 14.765,25.606C14.4,25.757 13.998,25.796 13.61,25.719C13.222,25.642 12.865,25.452 12.586,25.172Z" fill="#374957"/>
</svg>
