<svg width="48" height="50" viewBox="0 0 48 50" fill="none" xmlns="http://www.w3.org/2000/svg" xmlns:xlink="http://www.w3.org/1999/xlink">
<path d="M46.704,1.298C46.113,0.702 45.364,0.288 44.545,0.105C43.726,-0.077 42.872,-0.02 42.084,0.27L41.652,0.424C32.003,3.544 23.218,8.879 16,16.002C12.376,20.063 9.222,24.522 6.6,29.292L11.172,34.002L6,39.174L8.828,42.002L14,36.83L18.64,41.47C23.409,38.846 27.867,35.693 31.928,32.07C39.074,24.826 44.434,16.016 47.582,6.34L47.732,5.918C48.021,5.13 48.078,4.276 47.896,3.457C47.714,2.638 47.3,1.888 46.704,1.298L46.704,1.298ZM22,28.002C21.604,28.002 21.218,27.884 20.889,27.665C20.56,27.445 20.304,27.132 20.152,26.767C20.001,26.402 19.961,25.999 20.038,25.611C20.116,25.224 20.306,24.867 20.586,24.587C20.865,24.308 21.222,24.117 21.61,24.04C21.998,23.963 22.4,24.003 22.765,24.154C23.131,24.305 23.443,24.562 23.663,24.891C23.883,25.219 24,25.606 24,26.002C24,26.532 23.789,27.041 23.414,27.416C23.039,27.791 22.53,28.002 22,28.002ZM28,22.002C27.604,22.002 27.218,21.884 26.889,21.665C26.56,21.445 26.304,21.132 26.152,20.767C26.001,20.402 25.961,19.999 26.038,19.611C26.116,19.223 26.306,18.867 26.586,18.587C26.865,18.308 27.222,18.117 27.61,18.04C27.998,17.963 28.4,18.002 28.765,18.154C29.131,18.305 29.443,18.562 29.663,18.89C29.883,19.219 30,19.606 30,20.002C30,20.532 29.789,21.041 29.414,21.416C29.039,21.791 28.53,22.002 28,22.002ZM34,16.002C33.604,16.002 33.218,15.884 32.889,15.665C32.56,15.445 32.304,15.132 32.152,14.767C32.001,14.402 31.961,13.999 32.038,13.611C32.116,13.223 32.306,12.867 32.586,12.587C32.865,12.308 33.222,12.117 33.61,12.04C33.998,11.963 34.4,12.002 34.765,12.154C35.131,12.305 35.443,12.562 35.663,12.89C35.883,13.219 36,13.606 36,14.002C36,14.532 35.789,15.041 35.414,15.416C35.039,15.791 34.53,16.002 34,16.002ZM37.894,31.526C37.643,34.756 36.708,37.896 35.15,40.736C33.592,43.577 31.447,46.054 28.858,48.002L22,48.002L22,44.158C26.588,41.563 30.868,38.457 34.758,34.9C35.86,33.802 36.894,32.67 37.894,31.526ZM13.102,13.138C9.544,17.027 6.439,21.307 3.844,25.896L0,25.896L0,19.038C1.948,16.449 4.425,14.304 7.265,12.746C10.106,11.188 13.246,10.253 16.476,10.002C15.332,11.002 14.2,12.036 13.102,13.138Z" fill="#374957"/>
</svg>
