<svg width="46" height="22" viewBox="0 0 46 22" fill="none" xmlns="http://www.w3.org/2000/svg" xmlns:xlink="http://www.w3.org/1999/xlink">
<path d="M16,18L28,18L28,22L16,22L16,18ZM25.586,-0.414L22,3.172L18.414,-0.414L15.586,2.414L19.172,6L15.586,9.586L18.414,12.414L22,8.828L25.586,12.414L28.414,9.586L24.828,6L28.414,2.414L25.586,-0.414ZM32,22L44,22L44,18L32,18L32,22ZM44.414,2.414L41.586,-0.414L38,3.172L34.414,-0.414L31.586,2.414L35.172,6L31.586,9.586L34.414,12.414L38,8.828L41.586,12.414L44.414,9.586L40.828,6L44.414,2.414ZM0,22L12,22L12,18L0,18L0,22ZM9.586,-0.414L6,3.172L2.414,-0.414L-0.414,2.414L3.172,6L-0.414,9.586L2.414,12.414L6,8.828L9.586,12.414L12.414,9.586L8.828,6L12.414,2.414L9.586,-0.414Z" fill="#374957"/>
</svg>
