<svg width="48" height="48" viewBox="0 0 48 48" fill="none" xmlns="http://www.w3.org/2000/svg" xmlns:xlink="http://www.w3.org/1999/xlink">
<path d="M10.648,47.964L37.362,47.964C39.154,47.965 40.918,47.512 42.488,46.648C44.058,45.784 45.384,44.537 46.343,43.022C47.301,41.507 47.86,39.775 47.969,37.986C48.077,36.196 47.731,34.409 46.962,32.79L33.64,6.19C32.796,4.346 31.437,2.784 29.727,1.693C28.017,0.602 26.028,0.027 24,0.038L24,0.038C21.986,0.023 20.011,0.587 18.309,1.663C16.606,2.739 15.25,4.282 14.4,6.108L1,32.868C0.248,34.487 -0.084,36.27 0.035,38.052C0.155,39.834 0.721,41.557 1.683,43.061C2.644,44.566 3.97,45.804 5.536,46.661C7.103,47.518 8.86,47.966 10.646,47.964L10.648,47.964ZM6.428,35.432L19.8,8.716C20.177,7.909 20.778,7.227 21.531,6.752C22.284,6.278 23.159,6.029 24.049,6.038C24.94,6.046 25.809,6.31 26.554,6.799C27.298,7.288 27.886,7.98 28.248,8.794L41.572,35.394C41.899,36.099 42.043,36.875 41.991,37.65C41.939,38.426 41.692,39.175 41.274,39.83C40.855,40.485 40.278,41.023 39.596,41.396C38.914,41.769 38.149,41.963 37.372,41.962L33.318,41.962L27.414,30.172C27.111,29.522 26.629,28.972 26.025,28.587C25.421,28.202 24.719,27.997 24.002,27.997C23.285,27.997 22.583,28.202 21.979,28.587C21.375,28.972 20.893,29.522 20.59,30.172L14.69,41.972L10.648,41.972C9.874,41.974 9.112,41.781 8.431,41.412C7.751,41.043 7.175,40.508 6.755,39.858C6.334,39.208 6.084,38.463 6.027,37.691C5.97,36.919 6.108,36.145 6.428,35.44L6.428,35.432Z" fill="#374957"/>
</svg>
