<svg width="48" height="50" viewBox="0 0 48 50" fill="none" xmlns="http://www.w3.org/2000/svg" xmlns:xlink="http://www.w3.org/1999/xlink">
<path d="M43.67,4.331C42.298,2.959 40.668,1.87 38.875,1.127C37.082,0.384 35.16,0.001 33.219,0.001C31.278,0.001 29.356,0.384 27.563,1.127C25.769,1.87 24.14,2.959 22.768,4.331L4.33,22.769C2.951,24.14 1.857,25.77 1.109,27.565C0.362,29.359 -0.025,31.284 -0.027,33.228C-0.03,35.173 0.351,37.098 1.094,38.895C1.837,40.692 2.927,42.325 4.302,43.699C5.676,45.074 7.309,46.164 9.106,46.907C10.903,47.65 12.828,48.031 14.773,48.028C16.717,48.026 18.642,47.64 20.436,46.892C22.231,46.144 23.861,45.05 25.232,43.671L43.67,25.233C45.043,23.861 46.131,22.232 46.874,20.438C47.617,18.645 48,16.723 48,14.782C48,12.841 47.617,10.919 46.874,9.126C46.131,7.333 45.043,5.704 43.67,4.331L43.67,4.331ZM40.842,22.401L22.4,40.843C21.407,41.878 20.217,42.704 18.901,43.273C17.584,43.843 16.167,44.144 14.733,44.158C13.299,44.173 11.876,43.901 10.548,43.359C9.22,42.817 8.014,42.016 7,41.001C5.985,39.987 5.184,38.781 4.642,37.453C4.1,36.125 3.828,34.702 3.843,33.268C3.858,31.834 4.158,30.417 4.728,29.1C5.297,27.784 6.123,26.594 7.158,25.601L25.6,7.159C26.593,6.124 27.783,5.298 29.099,4.729C30.416,4.16 31.833,3.859 33.267,3.844C34.701,3.829 36.124,4.101 37.452,4.643C38.78,5.185 39.986,5.987 41,7.001C42.014,8.015 42.816,9.222 43.358,10.549C43.9,11.877 44.172,13.3 44.157,14.734C44.142,16.169 43.841,17.585 43.272,18.902C42.703,20.218 41.877,21.408 40.842,22.401ZM36.586,16.587L39.414,19.415L33.414,25.415L30.586,22.587L32.172,21.001L27,15.829L25.414,17.415L22.586,14.587L28.586,8.587L31.414,11.415L29.828,13.001L35,18.173L36.586,16.587ZM22.586,30.587L25.414,33.415L19.414,39.415L16.586,36.587L18.172,35.001L13,29.829L11.414,31.415L8.586,28.587L14.586,22.587L17.414,25.415L15.828,27.001L21,32.173L22.586,30.587Z" fill="#374957"/>
</svg>
