<svg width="48" height="48" viewBox="0 0 48 48" fill="none" xmlns="http://www.w3.org/2000/svg" xmlns:xlink="http://www.w3.org/1999/xlink">
<path d="M43.999,4L43.999,10.724C41.704,7.268 38.552,4.465 34.851,2.59C31.15,0.715 27.026,-0.168 22.882,0.026C18.737,0.221 14.714,1.486 11.205,3.699C7.695,5.912 4.819,8.997 2.858,12.653C0.896,16.309 -0.084,20.411 0.012,24.559C0.109,28.707 1.279,32.759 3.409,36.32C5.539,39.88 8.555,42.828 12.164,44.875C15.773,46.922 19.851,47.999 23.999,48L23.999,44C20.489,43.998 17.041,43.073 14.002,41.316C10.963,39.56 8.439,37.035 6.685,33.994C4.931,30.953 4.008,27.504 4.009,23.994C4.01,20.484 4.935,17.036 6.691,13.996C8.447,10.956 10.972,8.432 14.012,6.678C17.052,4.923 20.501,4 24.011,4C27.522,4 30.97,4.925 34.01,6.68C37.05,8.435 39.574,10.96 41.329,14L33.999,14L33.999,18L43.999,18C45.06,18 46.078,17.579 46.828,16.828C47.578,16.078 47.999,15.061 47.999,14L47.999,4L43.999,4Z" fill="#374957"/>
</svg>
