<svg width="48" height="46" viewBox="0 0 48 46" fill="none" xmlns="http://www.w3.org/2000/svg" xmlns:xlink="http://www.w3.org/1999/xlink">
<path d="M48,45.999L44,45.999C43.995,42.287 42.519,38.729 39.895,36.104C37.27,33.479 33.711,32.003 30,31.999L20.34,31.999L20.34,44.827L1.754,26.241C0.629,25.116 -0.003,23.59 -0.003,21.999C-0.003,20.408 0.629,18.882 1.754,17.757L20.34,-0.829L20.34,11.999L30,11.999C34.772,12.004 39.347,13.902 42.722,17.277C46.096,20.651 47.994,25.227 48,29.999L48,45.999ZM16.34,8.827L4.582,20.585C4.207,20.96 3.996,21.468 3.996,21.999C3.996,22.529 4.207,23.038 4.582,23.413L16.34,35.171L16.34,27.999L30,27.999C32.685,27.999 35.337,28.6 37.76,29.759C40.182,30.918 42.315,32.606 44,34.697L44,29.999C43.995,26.287 42.519,22.729 39.895,20.104C37.27,17.479 33.711,16.003 30,15.999L16.34,15.999L16.34,8.827Z" fill="#374957"/>
</svg>
