<svg width="48" height="48" viewBox="0 0 48 48" fill="none" xmlns="http://www.w3.org/2000/svg" xmlns:xlink="http://www.w3.org/1999/xlink">
<path d="M38,0L38,16L10,16L10,0L6,0C4.409,0 2.883,0.632 1.757,1.757C0.632,2.883 0,4.409 0,6L0,48L48,48L48,10L38,0ZM24,36C22.418,36 20.871,35.531 19.555,34.652C18.24,33.773 17.214,32.523 16.609,31.061C16.003,29.6 15.845,27.991 16.154,26.439C16.462,24.887 17.224,23.462 18.343,22.343C19.462,21.224 20.887,20.462 22.439,20.154C23.991,19.845 25.6,20.003 27.061,20.609C28.523,21.214 29.773,22.24 30.652,23.555C31.531,24.871 32,26.418 32,28C32,30.122 31.157,32.157 29.657,33.657C28.157,35.157 26.122,36 24,36Z" fill="#374957"/>
</svg>
