<svg width="48" height="48" viewBox="0 0 48 48" fill="none" xmlns="http://www.w3.org/2000/svg" xmlns:xlink="http://www.w3.org/1999/xlink">
<path d="M26,20C26,20.396 25.883,20.782 25.663,21.111C25.443,21.44 25.131,21.696 24.765,21.848C24.4,21.999 23.998,22.039 23.61,21.962C23.222,21.884 22.866,21.694 22.586,21.414C22.306,21.135 22.116,20.778 22.038,20.39C21.961,20.002 22.001,19.6 22.152,19.235C22.304,18.869 22.56,18.557 22.889,18.337C23.218,18.117 23.604,18 24,18C24.53,18 25.039,18.211 25.414,18.586C25.789,18.961 26,19.47 26,20ZM48,24C48,28.747 46.592,33.387 43.955,37.334C41.318,41.28 37.57,44.357 33.184,46.173C28.799,47.99 23.973,48.465 19.318,47.539C14.662,46.613 10.386,44.327 7.029,40.971C3.673,37.614 1.387,33.338 0.461,28.682C-0.465,24.027 0.01,19.201 1.827,14.816C3.643,10.43 6.72,6.682 10.666,4.045C14.613,1.408 19.253,0 24,0C30.363,0.007 36.464,2.538 40.963,7.037C45.462,11.536 47.993,17.637 48,24ZM30,20C30.005,18.899 29.706,17.818 29.137,16.875C28.568,15.932 27.751,15.164 26.775,14.655C25.799,14.146 24.701,13.915 23.602,13.988C22.504,14.061 21.446,14.435 20.546,15.069C19.646,15.703 18.937,16.572 18.498,17.582C18.059,18.591 17.906,19.703 18.056,20.793C18.206,21.884 18.654,22.912 19.349,23.766C20.045,24.619 20.962,25.265 22,25.632L22,34L26,34L26,25.632C27.166,25.22 28.176,24.458 28.892,23.449C29.608,22.441 29.995,21.237 30,20L30,20Z" fill="#374957"/>
</svg>
