<svg width="48" height="44" viewBox="0 0 48 44" fill="none" xmlns="http://www.w3.org/2000/svg" xmlns:xlink="http://www.w3.org/1999/xlink">
<path d="M38,0L10,0C7.912,0.012 5.88,0.677 4.189,1.902C2.498,3.127 1.233,4.85 0.571,6.831C-0.091,8.811 -0.116,10.949 0.499,12.945C1.114,14.941 2.338,16.694 4,17.958L4,44L44,44L44,17.958C45.662,16.694 46.886,14.941 47.501,12.945C48.116,10.949 48.091,8.811 47.429,6.831C46.768,4.85 45.503,3.127 43.812,1.902C42.12,0.677 40.088,0.012 38,0L38,0ZM16,34C15.47,34 14.961,33.789 14.586,33.414C14.211,33.039 14,32.53 14,32C14,31.47 14.211,30.961 14.586,30.586C14.961,30.211 15.47,30 16,30C16.531,30 17.039,30.211 17.414,30.586C17.79,30.961 18,31.47 18,32C18,32.53 17.79,33.039 17.414,33.414C17.039,33.789 16.531,34 16,34L16,34ZM16,26C15.47,26 14.961,25.789 14.586,25.414C14.211,25.039 14,24.53 14,24C14,23.47 14.211,22.961 14.586,22.586C14.961,22.211 15.47,22 16,22C16.531,22 17.039,22.211 17.414,22.586C17.79,22.961 18,23.47 18,24C18,24.53 17.79,25.039 17.414,25.414C17.039,25.789 16.531,26 16,26L16,26ZM24,34C23.47,34 22.961,33.789 22.586,33.414C22.211,33.039 22,32.53 22,32C22,31.47 22.211,30.961 22.586,30.586C22.961,30.211 23.47,30 24,30C24.531,30 25.039,30.211 25.414,30.586C25.789,30.961 26,31.47 26,32C26,32.53 25.789,33.039 25.414,33.414C25.039,33.789 24.531,34 24,34Z" fill="#374957"/>
</svg>
