<svg width="48" height="48" viewBox="0 0 48 48" fill="none" xmlns="http://www.w3.org/2000/svg" xmlns:xlink="http://www.w3.org/1999/xlink">
<path d="M45,42L44,42L44,28.636C43.997,25.816 42.875,23.113 40.881,21.119C38.887,19.125 36.184,18.003 33.364,18L27,18L27,12.666C27.909,12.143 28.664,11.391 29.19,10.484C29.717,9.577 29.996,8.548 30,7.5C29.676,5.215 28.669,3.082 27.11,1.38C26.706,0.964 26.223,0.634 25.689,0.408C25.155,0.183 24.581,0.066 24.001,0.066C23.421,0.066 22.847,0.183 22.313,0.408C21.779,0.634 21.296,0.964 20.892,1.38C19.333,3.082 18.325,5.215 18,7.5C18.004,8.548 18.283,9.577 18.809,10.484C19.336,11.391 20.091,12.143 21,12.666L21,18L14.636,18C11.816,18.003 9.113,19.125 7.119,21.119C5.125,23.113 4.003,25.816 4,28.636L4,42L3,42C2.204,42 1.441,42.316 0.879,42.879C0.316,43.441 0,44.204 0,45C0,45.796 0.316,46.559 0.879,47.121C1.441,47.684 2.204,48 3,48L45,48C45.796,48 46.559,47.684 47.121,47.121C47.684,46.559 48,45.796 48,45C48,44.204 47.684,43.441 47.121,42.879C46.559,42.316 45.796,42 45,42ZM10,33.48C10.886,33.264 11.689,32.794 12.311,32.127C12.933,31.461 13.346,30.627 13.5,29.728C13.68,30.969 14.32,32.096 15.292,32.887C16.265,33.679 17.499,34.076 18.75,34C20.002,34.08 21.239,33.684 22.212,32.892C23.185,32.1 23.824,30.97 24,29.728C24.18,30.969 24.82,32.096 25.792,32.887C26.765,33.679 27.999,34.076 29.25,34C30.502,34.08 31.739,33.684 32.712,32.892C33.685,32.1 34.324,30.97 34.5,29.728C34.659,30.624 35.074,31.455 35.695,32.12C36.316,32.786 37.117,33.256 38,33.476L38,42L10,42L10,33.48Z" fill="#374957"/>
</svg>
