<svg width="48" height="48" viewBox="0 0 48 48" fill="none" xmlns="http://www.w3.org/2000/svg" xmlns:xlink="http://www.w3.org/1999/xlink">
<path d="M24,0C19.253,0 14.613,1.408 10.666,4.045C6.72,6.682 3.643,10.43 1.827,14.816C0.01,19.201 -0.465,24.027 0.461,28.682C1.387,33.338 3.673,37.614 7.029,40.971C10.386,44.327 14.662,46.613 19.318,47.539C23.973,48.465 28.799,47.99 33.184,46.173C37.57,44.357 41.318,41.28 43.955,37.334C46.592,33.387 48,28.747 48,24C47.993,17.637 45.462,11.536 40.963,7.037C36.464,2.538 30.363,0.007 24,0L24,0ZM24,44C20.044,44 16.178,42.827 12.889,40.629C9.6,38.432 7.036,35.308 5.522,31.654C4.009,27.999 3.613,23.978 4.384,20.098C5.156,16.219 7.061,12.655 9.858,9.858C12.655,7.061 16.219,5.156 20.098,4.384C23.978,3.613 27.999,4.009 31.654,5.522C35.308,7.036 38.432,9.6 40.629,12.889C42.827,16.178 44,20.044 44,24C43.994,29.303 41.885,34.386 38.136,38.136C34.386,41.885 29.303,43.994 24,44L24,44ZM10,22.062C9.98,22.903 10.233,23.728 10.721,24.413C11.209,25.098 11.906,25.607 12.708,25.862L19.466,28.546L22.164,35.226C22.419,36.035 22.926,36.741 23.611,37.24C24.297,37.739 25.124,38.006 25.972,38L26,38C26.877,38 27.729,37.71 28.424,37.175C29.12,36.641 29.619,35.892 29.844,35.044L35.8,12.2L12.922,18.226C12.081,18.455 11.339,18.955 10.811,19.649C10.282,20.342 9.998,21.19 10,22.062L10,22.062ZM30.2,17.8L25.972,34L22.534,25.458L14.186,22.142L13.97,22.086L30.2,17.8Z" fill="#374957"/>
</svg>
