<svg width="48" height="48" viewBox="0 0 48 48" fill="none" xmlns="http://www.w3.org/2000/svg" xmlns:xlink="http://www.w3.org/1999/xlink">
<path d="M48,20C47.998,18.448 47.544,16.93 46.694,15.632C45.844,14.333 44.635,13.31 43.214,12.686C43.358,12.266 43.516,11.844 43.64,11.426C44.034,10.107 44.111,8.713 43.866,7.358C43.622,6.003 43.061,4.724 42.23,3.626C41.394,2.496 40.304,1.579 39.048,0.949C37.792,0.319 36.405,-0.006 35,0L13,0C11.595,-0.006 10.208,0.319 8.952,0.949C7.696,1.579 6.606,2.496 5.77,3.626C4.941,4.725 4.381,6.004 4.138,7.359C3.895,8.714 3.974,10.107 4.37,11.426C4.494,11.844 4.652,12.266 4.796,12.686C3.373,13.308 2.162,14.331 1.31,15.63C0.458,16.928 0.003,18.447 0,20C0,26.3 4.758,33.6 18,33.966L18,39C18.039,39.404 17.989,39.811 17.852,40.193C17.715,40.575 17.496,40.922 17.209,41.209C16.922,41.496 16.575,41.715 16.193,41.852C15.811,41.989 15.404,42.04 15,42L13,42C12.204,42 11.441,42.316 10.879,42.879C10.316,43.441 10,44.204 10,45C10,45.796 10.316,46.559 10.879,47.121C11.441,47.684 12.204,48 13,48L35,48C35.796,48 36.559,47.684 37.121,47.121C37.684,46.559 38,45.796 38,45C38,44.204 37.684,43.441 37.121,42.879C36.559,42.316 35.796,42 35,42L33.036,42C32.63,42.043 32.219,41.996 31.834,41.861C31.448,41.726 31.097,41.507 30.807,41.22C30.516,40.933 30.293,40.585 30.153,40.201C30.014,39.817 29.962,39.407 30,39L30,33.966C43.242,33.6 48,26.3 48,20ZM42,20C42,23.174 39.692,26.52 33.572,27.622C36.5,24.905 38.948,21.713 40.812,18.18C41.164,18.337 41.464,18.592 41.675,18.915C41.886,19.238 41.999,19.614 42,20ZM10.576,7.218C10.856,6.839 11.221,6.531 11.642,6.319C12.064,6.108 12.529,5.998 13,6L35,6C35.471,5.998 35.936,6.108 36.358,6.319C36.779,6.531 37.144,6.839 37.424,7.218C37.694,7.569 37.876,7.98 37.957,8.415C38.037,8.851 38.013,9.3 37.886,9.724C36.263,14.999 33.27,19.749 29.212,23.49C27.601,24.693 26.291,26.255 25.386,28.051C24.482,29.847 24.007,31.829 24,33.84L24,33.84C23.992,31.828 23.518,29.846 22.613,28.049C21.709,26.253 20.399,24.69 18.788,23.486C14.729,19.747 11.736,14.997 10.114,9.722C9.988,9.298 9.964,8.85 10.044,8.415C10.124,7.979 10.307,7.569 10.576,7.218L10.576,7.218ZM6,20C6.002,19.614 6.114,19.238 6.325,18.915C6.536,18.592 6.836,18.337 7.188,18.18C9.053,21.713 11.501,24.905 14.43,27.622C8.308,26.522 6,23.174 6,20Z" fill="#374957"/>
</svg>
