<svg width="40" height="40" viewBox="0 0 40 40" fill="none" xmlns="http://www.w3.org/2000/svg" xmlns:xlink="http://www.w3.org/1999/xlink">
<path d="M36.939,39.061C37.525,39.647 38.474,39.647 39.06,39.061C39.646,38.475 39.646,37.525 39.06,36.94L36.939,39.061ZM31.999,16.999L33.499,16.999L31.999,16.999ZM16.999,1.999L16.999,0.499L16.999,1.999ZM6.392,6.392L5.331,5.331L5.331,5.331L6.392,6.392ZM1.998,16.999L0.498,16.999L1.998,16.999ZM16.999,32L16.999,33.5L16.999,32ZM39.06,36.94L28.666,26.546L26.545,28.667L36.939,39.061L39.06,36.94ZM28.666,28.667C31.761,25.572 33.499,21.375 33.499,16.999L30.499,16.999C30.499,20.58 29.077,24.014 26.545,26.546L28.666,28.667ZM33.499,16.999C33.499,12.623 31.761,8.426 28.666,5.331L26.545,7.453C29.077,9.985 30.499,13.419 30.499,16.999L33.499,16.999ZM28.666,5.331C25.572,2.237 21.375,0.499 16.999,0.499L16.999,3.499C20.579,3.499 24.013,4.921 26.545,7.453L28.666,5.331ZM16.999,0.499C12.622,0.499 8.425,2.237 5.331,5.331L7.452,7.453C9.984,4.921 13.418,3.499 16.999,3.499L16.999,0.499ZM5.331,5.331C2.236,8.426 0.498,12.623 0.498,16.999L3.498,16.999C3.498,13.419 4.92,9.985 7.452,7.453L5.331,5.331ZM0.498,16.999C0.498,21.375 2.236,25.572 5.331,28.667L7.452,26.546C4.92,24.014 3.498,20.58 3.498,16.999L0.498,16.999ZM5.331,28.667C8.425,31.761 12.622,33.5 16.999,33.5L16.999,30.5C13.418,30.5 9.984,29.077 7.452,26.546L5.331,28.667ZM16.999,33.5C21.375,33.5 25.572,31.761 28.666,28.667L26.545,26.546C24.013,29.077 20.579,30.5 16.999,30.5L16.999,33.5Z" fill="#6B7280"/>
</svg>
