<svg width="48" height="32" viewBox="0 0 48 32" fill="none" xmlns="http://www.w3.org/2000/svg" xmlns:xlink="http://www.w3.org/1999/xlink">
<path d="M28,16C28,16.792 27.765,17.565 27.326,18.223C26.886,18.881 26.262,19.393 25.531,19.696C24.8,19.999 23.996,20.078 23.22,19.924C22.444,19.769 21.731,19.388 21.172,18.829C20.612,18.27 20.231,17.557 20.077,16.781C19.923,16.005 20.002,15.201 20.304,14.47C20.607,13.739 21.12,13.114 21.778,12.675C22.436,12.235 23.209,12 24,12C25.061,12 26.078,12.422 26.828,13.172C27.579,13.922 28,14.94 28,16ZM48,6L48,32L0,32L0,6C0,4.409 0.632,2.883 1.757,1.758C2.883,0.633 4.409,0 6,0L42,0C43.591,0 45.117,0.633 46.243,1.758C47.368,2.883 48,4.409 48,6L48,6ZM10,24C10,23.605 9.883,23.218 9.663,22.889C9.443,22.56 9.131,22.304 8.765,22.153C8.4,22.001 7.998,21.962 7.61,22.039C7.222,22.116 6.865,22.306 6.586,22.586C6.306,22.866 6.116,23.222 6.038,23.61C5.961,23.998 6.001,24.4 6.152,24.766C6.304,25.131 6.56,25.444 6.889,25.663C7.218,25.883 7.604,26 8,26C8.53,26 9.039,25.79 9.414,25.415C9.789,25.04 10,24.531 10,24ZM10,8C10,7.605 9.883,7.218 9.663,6.889C9.443,6.56 9.131,6.304 8.765,6.153C8.4,6.001 7.998,5.962 7.61,6.039C7.222,6.116 6.865,6.307 6.586,6.586C6.306,6.866 6.116,7.222 6.038,7.61C5.961,7.998 6.001,8.4 6.152,8.766C6.304,9.131 6.56,9.444 6.889,9.663C7.218,9.883 7.604,10 8,10C8.53,10 9.039,9.79 9.414,9.415C9.789,9.04 10,8.531 10,8L10,8ZM32,16C32,14.418 31.531,12.872 30.652,11.556C29.773,10.24 28.523,9.215 27.061,8.609C25.6,8.004 23.991,7.846 22.439,8.154C20.887,8.463 19.462,9.225 18.343,10.344C17.224,11.462 16.462,12.888 16.154,14.44C15.845,15.992 16.003,17.6 16.609,19.062C17.214,20.524 18.24,21.773 19.555,22.652C20.871,23.531 22.418,24 24,24C26.122,24 28.157,23.158 29.657,21.657C31.157,20.157 32,18.122 32,16ZM42,24C42,23.605 41.883,23.218 41.663,22.889C41.443,22.56 41.131,22.304 40.765,22.153C40.4,22.001 39.998,21.962 39.61,22.039C39.222,22.116 38.865,22.306 38.586,22.586C38.306,22.866 38.116,23.222 38.038,23.61C37.961,23.998 38.001,24.4 38.152,24.766C38.304,25.131 38.56,25.444 38.889,25.663C39.218,25.883 39.604,26 40,26C40.53,26 41.039,25.79 41.414,25.415C41.789,25.04 42,24.531 42,24ZM42,8C42,7.605 41.883,7.218 41.663,6.889C41.443,6.56 41.131,6.304 40.765,6.153C40.4,6.001 39.998,5.962 39.61,6.039C39.222,6.116 38.865,6.307 38.586,6.586C38.306,6.866 38.116,7.222 38.038,7.61C37.961,7.998 38.001,8.4 38.152,8.766C38.304,9.131 38.56,9.444 38.889,9.663C39.218,9.883 39.604,10 40,10C40.53,10 41.039,9.79 41.414,9.415C41.789,9.04 42,8.531 42,8L42,8Z" fill="#374957"/>
</svg>
