<svg width="50" height="50" viewBox="0 0 50 50" fill="none" xmlns="http://www.w3.org/2000/svg" xmlns:xlink="http://www.w3.org/1999/xlink">
<path d="M45.226,30.056L48.056,27.226L20.838,0.01L18.01,2.838L20.272,5.1L17.176,8.2L11.48,2.432L8.636,5.244L14.348,11.024L1.758,23.624C0.633,24.749 0.001,26.275 0.001,27.866C0.001,29.457 0.633,30.983 1.758,32.108L15.898,46.25C16.455,46.807 17.116,47.249 17.844,47.551C18.572,47.853 19.353,48.008 20.141,48.008C20.929,48.008 21.709,47.853 22.437,47.551C23.165,47.249 23.827,46.807 24.384,46.25L42.9,27.736L45.226,30.056ZM21.556,43.414C21.175,43.779 20.669,43.982 20.142,43.982C19.615,43.982 19.108,43.779 18.728,43.414L4.586,29.272C4.211,28.897 4,28.388 4,27.858C4,27.328 4.211,26.819 4.586,26.444L17.16,13.87L26.578,23.4L29.422,20.6L19.986,11.044L23.1,7.928L40.072,24.9L21.556,43.414ZM43,34C43,34 48,40.238 48,43C48,44.326 47.473,45.598 46.535,46.536C45.598,47.473 44.326,48 43,48C41.674,48 40.402,47.473 39.464,46.536C38.527,45.598 38,44.326 38,43C38,40.5 43,34 43,34Z" fill="#374957"/>
</svg>
