<svg width="48" height="48" viewBox="0 0 48 48" fill="none" xmlns="http://www.w3.org/2000/svg" xmlns:xlink="http://www.w3.org/1999/xlink">
<path d="M5.084,30.51L1.3,31.8C0.829,30.434 0.484,29.028 0.268,27.6L4.222,27C4.403,28.194 4.691,29.368 5.084,30.51L5.084,30.51ZM6.564,33.806L3.08,35.772C3.793,37.033 4.618,38.228 5.544,39.342L8.62,36.786C7.846,35.854 7.158,34.855 6.564,33.8L6.564,33.806ZM17.546,0.878C16.148,1.268 14.788,1.784 13.484,2.42L15.238,6.02C16.324,5.489 17.456,5.058 18.62,4.732L17.546,0.878ZM8.612,42.418C9.723,43.348 10.916,44.175 12.176,44.89L14.15,41.41C13.099,40.814 12.103,40.124 11.176,39.35L8.612,42.418ZM4.444,19.8L0.532,18.954C0.229,20.371 0.055,21.813 0.012,23.262L4.012,23.382C4.048,22.177 4.192,20.979 4.444,19.8L4.444,19.8ZM12.144,7.9L9.772,4.67C8.605,5.53 7.518,6.493 6.524,7.548L9.436,10.292C10.264,9.411 11.17,8.607 12.144,7.89L12.144,7.9ZM7.2,13.14L3.844,10.964C3.056,12.179 2.38,13.463 1.824,14.8L5.518,16.334C5.981,15.221 6.544,14.152 7.2,13.14L7.2,13.14ZM31.614,42.5L33.136,46.198C34.477,45.645 35.766,44.971 36.986,44.186L34.82,40.822C33.803,41.476 32.73,42.038 31.614,42.5L31.614,42.5ZM16.132,46.68C17.503,47.154 18.914,47.503 20.348,47.722L20.948,43.768C19.755,43.585 18.58,43.295 17.44,42.9L16.132,46.68ZM41.964,32.8L45.564,34.566C46.204,33.263 46.725,31.905 47.12,30.508L43.268,29.424C42.938,30.587 42.501,31.717 41.964,32.8ZM37.674,38.6L40.4,41.514C41.456,40.523 42.422,39.44 43.286,38.278L40.086,35.892C39.364,36.865 38.557,37.771 37.674,38.6L37.674,38.6ZM24.568,44L24.676,48C26.125,47.961 27.569,47.791 28.988,47.492L28.16,43.578C26.978,43.826 25.775,43.967 24.568,44L24.568,44ZM24,0C23.266,0 22.538,0.034 21.82,0.098L22.182,4.082C22.78,4.027 23.386,4 24,4C29.302,4.006 34.386,6.115 38.136,9.864C41.885,13.614 43.994,18.697 44,24C44,24.614 43.97,25.222 43.918,25.822L47.902,26.176C47.966,25.46 48,24.734 48,24C47.993,17.637 45.462,11.536 40.963,7.037C36.463,2.538 30.363,0.007 24,0L24,0ZM27.446,26L34,26L34,22L27.446,22C27.097,21.401 26.599,20.903 26,20.554L26,12L22,12L22,20.554C21.469,20.859 21.016,21.283 20.676,21.792C20.335,22.3 20.116,22.88 20.036,23.487C19.956,24.094 20.016,24.711 20.213,25.291C20.41,25.871 20.737,26.397 21.17,26.83C21.603,27.263 22.129,27.59 22.709,27.787C23.289,27.983 23.906,28.044 24.513,27.964C25.119,27.883 25.7,27.665 26.208,27.324C26.717,26.983 27.14,26.53 27.446,26Z" fill="#374957"/>
</svg>
