<svg width="48" height="48" viewBox="0 0 48 48" fill="none" xmlns="http://www.w3.org/2000/svg" xmlns:xlink="http://www.w3.org/1999/xlink">
<path d="M24,0C19.253,0 14.613,1.408 10.666,4.045C6.72,6.682 3.643,10.43 1.827,14.816C0.01,19.201 -0.465,24.027 0.461,28.682C1.387,33.338 3.673,37.614 7.029,40.971C10.386,44.327 14.662,46.613 19.318,47.539C23.973,48.465 28.799,47.99 33.184,46.173C37.57,44.357 41.318,41.28 43.955,37.334C46.592,33.387 48,28.747 48,24C47.993,17.637 45.462,11.536 40.963,7.037C36.464,2.538 30.363,0.007 24,0L24,0ZM41.882,22L34.926,22C34.472,16.79 32.912,11.736 30.348,7.178C33.447,8.35 36.163,10.353 38.198,12.968C40.233,15.583 41.507,18.708 41.882,22L41.882,22ZM19.37,28L28.63,28C27.843,32.19 26.272,36.193 24,39.8C21.728,36.193 20.157,32.19 19.37,28L19.37,28ZM19.106,22C19.666,17.088 21.34,12.368 24,8.2C26.66,12.368 28.334,17.087 28.894,22L19.106,22ZM17.652,7.178C15.088,11.736 13.528,16.79 13.074,22L6.118,22C6.493,18.708 7.767,15.583 9.802,12.968C11.837,10.353 14.553,8.35 17.652,7.178L17.652,7.178ZM6.464,28L13.282,28C13.955,32.502 15.435,36.846 17.652,40.822C14.876,39.77 12.403,38.05 10.451,35.813C8.5,33.576 7.13,30.893 6.464,28L6.464,28ZM30.348,40.822C32.566,36.846 34.046,32.502 34.718,28L41.536,28C40.87,30.893 39.5,33.576 37.549,35.813C35.597,38.05 33.124,39.77 30.348,40.822L30.348,40.822Z" fill="#374957"/>
</svg>
