<svg width="48" height="48" viewBox="0 0 48 48" fill="none" xmlns="http://www.w3.org/2000/svg" xmlns:xlink="http://www.w3.org/1999/xlink">
<path d="M37,8.001L30,8.001L30,6.001C29.999,5.111 29.8,4.233 29.419,3.429C29.037,2.626 28.482,1.917 27.793,1.354C27.104,0.791 26.299,0.388 25.436,0.174C24.572,-0.04 23.672,-0.06 22.8,0.117C21.418,0.429 20.187,1.209 19.312,2.324C18.438,3.438 17.975,4.82 18,6.237L18,8.001L11,8.001C8.084,8.004 5.288,9.164 3.226,11.226C1.164,13.289 0.004,16.084 0,19.001L0,37.001C0.004,39.917 1.164,42.713 3.226,44.775C5.288,46.837 8.084,47.997 11,48.001L37,48.001C39.916,47.997 42.712,46.837 44.774,44.775C46.836,42.713 47.996,39.917 48,37.001L48,19.001C47.996,16.084 46.836,13.289 44.774,11.226C42.712,9.164 39.916,8.004 37,8.001L37,8.001ZM42,37.001C42,38.327 41.473,39.598 40.536,40.536C39.598,41.474 38.326,42.001 37,42.001L11,42.001C9.674,42.001 8.402,41.474 7.464,40.536C6.527,39.598 6,38.327 6,37.001L6,19.001C6,17.674 6.527,16.403 7.464,15.465C8.402,14.527 9.674,14.001 11,14.001L18.368,14.001C18.775,15.17 19.536,16.183 20.545,16.9C21.555,17.617 22.762,18.002 24,18.002C25.238,18.002 26.445,17.617 27.455,16.9C28.464,16.183 29.225,15.17 29.632,14.001L37,14.001C38.326,14.001 39.598,14.527 40.536,15.465C41.473,16.403 42,17.674 42,19.001L42,37.001ZM20,26.001L20,34.001C20,35.061 19.579,36.079 18.828,36.829C18.078,37.579 17.061,38.001 16,38.001L14,38.001C12.939,38.001 11.922,37.579 11.172,36.829C10.421,36.079 10,35.061 10,34.001L10,26.001C10,24.94 10.421,23.922 11.172,23.172C11.922,22.422 12.939,22.001 14,22.001L16,22.001C17.061,22.001 18.078,22.422 18.828,23.172C19.579,23.922 20,24.94 20,26.001ZM36,35.001C36,35.796 35.684,36.559 35.121,37.122C34.559,37.685 33.796,38.001 33,38.001L27,38.001C26.204,38.001 25.441,37.685 24.879,37.122C24.316,36.559 24,35.796 24,35.001C24,34.205 24.316,33.442 24.879,32.879C25.441,32.317 26.204,32.001 27,32.001L33,32.001C33.796,32.001 34.559,32.317 35.121,32.879C35.684,33.442 36,34.205 36,35.001ZM38,25.001C38,25.796 37.684,26.559 37.121,27.122C36.559,27.685 35.796,28.001 35,28.001L27,28.001C26.204,28.001 25.441,27.685 24.879,27.122C24.316,26.559 24,25.796 24,25.001C24,24.205 24.316,23.442 24.879,22.879C25.441,22.317 26.204,22.001 27,22.001L35,22.001C35.796,22.001 36.559,22.317 37.121,22.879C37.684,23.442 38,24.205 38,25.001L38,25.001Z" fill="#374957"/>
</svg>
