<svg width="20" height="36" viewBox="0 0 20 36" fill="none" xmlns="http://www.w3.org/2000/svg" xmlns:xlink="http://www.w3.org/1999/xlink">
<path d="M16,0L8,0C5.878,0 3.843,0.843 2.343,2.344C0.843,3.844 0,5.879 0,8L0,16C0,17.061 0.421,18.079 1.172,18.829C1.922,19.579 2.939,20 4,20L14,20C13.997,22.652 12.942,25.193 11.068,27.068C9.193,28.943 6.651,29.997 4,30C3.204,30 2.441,30.316 1.879,30.879C1.316,31.442 1,32.205 1,33C1,33.796 1.316,34.559 1.879,35.122C2.441,35.684 3.204,36 4,36C8.242,35.996 12.309,34.308 15.308,31.309C18.308,28.309 19.995,24.242 20,20L20,4C20,2.94 19.579,1.922 18.828,1.172C18.078,0.422 17.061,0 16,0L16,0Z" fill="#374957"/>
</svg>
