<svg width="48" height="48" viewBox="0 0 48 48" fill="none" xmlns="http://www.w3.org/2000/svg" xmlns:xlink="http://www.w3.org/1999/xlink">
<path d="M12,36L26,36L26,48L0,48L0,28C0,26.409 0.632,24.883 1.757,23.757C2.883,22.632 4.409,22 6,22L12,22L12,36ZM20,26L16,26L16,32L22,32L22,28C22,27.47 21.789,26.961 21.414,26.586C21.039,26.211 20.53,26 20,26ZM42,0L18,0C16.409,0 14.883,0.632 13.757,1.757C12.632,2.883 12,4.409 12,6L12,22L20,22C20.891,22.003 21.77,22.209 22.57,22.6L33.17,12L26,12L26,8L40,8L40,22L36,22L36,14.828L25.4,25.428C25.792,26.229 25.997,27.108 26,28L26,36L48,36L48,6C48,4.409 47.368,2.883 46.243,1.757C45.117,0.632 43.591,0 42,0L42,0Z" fill="#374957"/>
</svg>
