<svg width="50" height="48" viewBox="0 0 50 48" fill="none" xmlns="http://www.w3.org/2000/svg" xmlns:xlink="http://www.w3.org/1999/xlink">
<path d="M48,45C48,45.795 47.684,46.558 47.121,47.121C46.559,47.684 45.796,48 45,48L3,48C2.204,48 1.441,47.684 0.879,47.121C0.316,46.558 0,45.795 0,45C0,44.204 0.316,43.441 0.879,42.878C1.441,42.316 2.204,42 3,42L45,42C45.796,42 46.559,42.316 47.121,42.878C47.684,43.441 48,44.204 48,45ZM0.74,18.682C0.215,17.718 -0.037,16.629 0.008,15.533C0.054,14.436 0.397,13.373 1,12.456C1.902,11.07 3.127,9.925 4.57,9.118L18.888,1.304C20.455,0.444 22.213,-0.006 24,-0.006C25.787,-0.006 27.545,0.444 29.112,1.304L43.432,9.118C44.873,9.924 46.098,11.068 47,12.452C47.605,13.369 47.949,14.432 47.996,15.53C48.043,16.627 47.792,17.716 47.268,18.682C46.754,19.644 45.997,20.454 45.073,21.033C44.149,21.612 43.09,21.939 42,21.982L42,32L43,32C43.796,32 44.559,32.316 45.121,32.878C45.684,33.441 46,34.204 46,35C46,35.795 45.684,36.558 45.121,37.121C44.559,37.684 43.796,38 43,38L5,38C4.204,38 3.441,37.684 2.879,37.121C2.316,36.558 2,35.795 2,35C2,34.204 2.316,33.441 2.879,32.878C3.441,32.316 4.204,32 5,32L6,32L6,21.982C4.912,21.938 3.854,21.61 2.931,21.031C2.009,20.452 1.253,19.642 0.74,18.682L0.74,18.682ZM12,32L16,32L16,22L12,22L12,32ZM22,22L22,32L26,32L26,22L22,22ZM36,32L36,22L32,22L32,32L36,32ZM6,15.774C6.012,15.835 6.044,15.891 6.092,15.932C6.139,15.973 6.199,15.997 6.262,16L41.738,16C41.801,15.995 41.86,15.97 41.907,15.929C41.955,15.887 41.987,15.831 42,15.77C41.635,15.201 41.141,14.726 40.558,14.384L26.238,6.572C25.553,6.196 24.784,5.999 24.002,5.999C23.22,5.999 22.451,6.196 21.766,6.572L7.444,14.384C6.858,14.724 6.362,15.201 6,15.774Z" fill="#374957"/>
</svg>
