<svg width="48" height="48" viewBox="0 0 48 48" fill="none" xmlns="http://www.w3.org/2000/svg" xmlns:xlink="http://www.w3.org/1999/xlink">
<path d="M28.162,11.172L1.8,37.538C0.717,38.699 0.127,40.236 0.154,41.824C0.182,43.412 0.825,44.927 1.948,46.05C3.071,47.173 4.586,47.817 6.173,47.845C7.761,47.872 9.298,47.283 10.46,46.2L36.828,19.838L28.162,11.172ZM31.172,19.838L26,25.01L23,22L28.172,16.828L31.172,19.838ZM7.632,43.376C7.227,43.761 6.69,43.976 6.132,43.976C5.573,43.976 5.036,43.761 4.632,43.376C4.235,42.978 4.012,42.438 4.012,41.876C4.012,41.314 4.235,40.774 4.632,40.376L20.17,24.836L23.18,27.846L7.632,43.376ZM42.666,29.256L48,31.924L42.666,34.6L40,39.924L37.334,34.6L32,31.924L37.334,29.256L40,23.924L42.666,29.256ZM13.334,10.666L8,8L13.334,5.334L16,0L18.666,5.334L24,8L18.666,10.666L16,16L13.334,10.666ZM38.666,9.334L34,7L38.666,4.666L41,0L43.334,4.666L48,7L43.334,9.334L41,14L38.666,9.334Z" fill="#374957"/>
</svg>
