<svg width="48" height="24" viewBox="0 0 48 24" fill="none" xmlns="http://www.w3.org/2000/svg" xmlns:xlink="http://www.w3.org/1999/xlink">
<path d="M45.001,24C44.607,24 44.216,23.922 43.852,23.771C43.488,23.62 43.157,23.399 42.879,23.12L27.537,7.778C27.072,7.313 26.521,6.945 25.914,6.694C25.308,6.442 24.657,6.313 24.001,6.313C23.344,6.313 22.694,6.442 22.087,6.694C21.48,6.945 20.929,7.313 20.465,7.778L5.141,23.102C4.575,23.648 3.817,23.951 3.031,23.944C2.244,23.937 1.492,23.622 0.935,23.065C0.379,22.509 0.064,21.757 0.057,20.97C0.05,20.183 0.352,19.426 0.899,18.86L16.223,3.536C18.287,1.476 21.084,0.318 24.001,0.318C26.917,0.318 29.715,1.476 31.779,3.536L47.123,18.88C47.542,19.3 47.827,19.834 47.943,20.416C48.058,20.998 47.999,21.601 47.771,22.149C47.544,22.696 47.16,23.165 46.667,23.494C46.174,23.824 45.594,24 45.001,24Z" fill="#374957"/>
</svg>
