<svg width="48" height="48" viewBox="0 0 48 48" fill="none" xmlns="http://www.w3.org/2000/svg" xmlns:xlink="http://www.w3.org/1999/xlink">
<path d="M32,16C28.747,16.005 25.575,17.006 22.908,18.868C23.264,19.64 23.66,20.424 24.078,21.23C26.428,25.094 27.776,29.483 28,34C28.059,38.322 27.022,42.588 24.986,46.4C27.149,47.448 29.52,47.994 31.924,48C34.327,48.005 36.701,47.469 38.869,46.431C41.037,45.393 42.943,43.88 44.446,42.005C45.949,40.129 47.01,37.939 47.55,35.597C48.091,33.255 48.096,30.821 47.567,28.477C47.038,26.132 45.987,23.937 44.493,22.054C42.999,20.172 41.1,18.65 38.937,17.602C36.774,16.553 34.403,16.006 32,16L32,16ZM34,32C33.604,32 33.217,31.883 32.889,31.663C32.56,31.443 32.303,31.131 32.152,30.765C32.001,30.4 31.961,29.998 32.038,29.61C32.115,29.222 32.306,28.865 32.585,28.586C32.865,28.306 33.222,28.116 33.609,28.038C33.997,27.961 34.4,28.001 34.765,28.152C35.13,28.304 35.443,28.56 35.663,28.889C35.882,29.218 36,29.604 36,30C36,30.53 35.789,31.039 35.414,31.414C35.039,31.789 34.53,32 34,32ZM38,26C37.604,26 37.217,25.883 36.889,25.663C36.56,25.443 36.303,25.131 36.152,24.765C36.001,24.4 35.961,23.998 36.038,23.61C36.115,23.222 36.306,22.865 36.585,22.586C36.865,22.306 37.222,22.116 37.609,22.038C37.997,21.961 38.4,22.001 38.765,22.152C39.13,22.304 39.443,22.56 39.663,22.889C39.882,23.218 40,23.604 40,24C40,24.53 39.789,25.039 39.414,25.414C39.039,25.789 38.53,26 38,26ZM42,32C41.604,32 41.217,31.883 40.889,31.663C40.56,31.443 40.303,31.131 40.152,30.765C40.001,30.4 39.961,29.998 40.038,29.61C40.115,29.222 40.306,28.865 40.585,28.586C40.865,28.306 41.222,28.116 41.609,28.038C41.997,27.961 42.4,28.001 42.765,28.152C43.13,28.304 43.443,28.56 43.663,28.889C43.882,29.218 44,29.604 44,30C44,30.53 43.789,31.039 43.414,31.414C43.039,31.789 42.53,32 42,32ZM20.528,23.074C22.567,26.375 23.76,30.128 24,34C24.212,38.889 22.574,43.678 19.414,47.414L18.828,48L5.172,48L4.586,47.414C1.425,43.678 -0.212,38.889 0,34C0.24,30.128 1.432,26.375 3.472,23.074C4.018,22.024 4.544,21 4.978,20L19.022,20C19.456,21 19.982,22.024 20.528,23.074L20.528,23.074ZM4.892,11.65C4.436,10.478 4.136,9.251 4,8C4,5.878 4.843,3.843 6.343,2.343C7.843,0.843 9.878,0 12,0C14.121,0 16.156,0.843 17.657,2.343C19.157,3.843 20,5.878 20,8C19.864,9.251 19.564,10.478 19.108,11.65C18.599,13.061 18.228,14.518 18,16L6,16C5.772,14.518 5.401,13.061 4.892,11.65L4.892,11.65Z" fill="#374957"/>
</svg>
