<svg width="48" height="48" viewBox="0 0 48 48" fill="none" xmlns="http://www.w3.org/2000/svg" xmlns:xlink="http://www.w3.org/1999/xlink">
<path d="M46.138,1.067C45.56,0.606 44.885,0.281 44.163,0.119C43.441,-0.044 42.692,-0.041 41.972,0.127C40.144,0.643 38.454,1.56 37.025,2.811C35.596,4.062 34.464,5.617 33.712,7.361C27.347,5.679 20.654,5.679 14.288,7.361C13.535,5.617 12.403,4.063 10.974,2.812C9.544,1.56 7.854,0.643 6.026,0.127C5.305,-0.039 4.556,-0.041 3.834,0.123C3.112,0.286 2.437,0.61 1.858,1.07C1.279,1.531 0.811,2.116 0.489,2.782C0.168,3.449 0,4.179 0,4.919L0,19.919C-0.008,22.822 0.56,25.697 1.671,28.378C2.781,31.06 4.413,33.494 6.47,35.541L15.362,44.419C17.66,46.697 20.764,47.976 24,47.976C27.236,47.976 30.34,46.697 32.638,44.419L41.53,35.531C43.588,33.484 45.219,31.05 46.33,28.368C47.441,25.687 48.008,22.812 48,19.909L48,4.919C48.002,4.178 47.835,3.446 47.513,2.779C47.19,2.111 46.72,1.526 46.138,1.067L46.138,1.067ZM9.7,11.949C9.826,12.326 10.025,12.674 10.286,12.973C10.548,13.272 10.866,13.517 11.222,13.692C11.579,13.867 11.967,13.97 12.363,13.994C12.76,14.018 13.157,13.964 13.532,13.833C16.915,12.722 20.441,12.104 24,11.999C27.559,12.105 31.085,12.723 34.468,13.833C34.843,13.964 35.241,14.018 35.637,13.994C36.034,13.97 36.422,13.867 36.778,13.691C37.135,13.516 37.453,13.271 37.714,12.972C37.975,12.672 38.175,12.324 38.3,11.947C38.891,9.779 40.194,7.874 42,6.537L42,14.337C38.242,14.93 34.669,16.37 31.55,18.549C28.432,20.727 25.85,23.587 24,26.911C22.15,23.587 19.568,20.728 16.449,18.55C13.331,16.372 9.758,14.932 6,14.339L6,6.539C7.806,7.876 9.11,9.781 9.7,11.949L9.7,11.949ZM10.714,31.289C7.837,28.421 6.161,24.564 6.028,20.503C7.414,20.835 8.767,21.294 10.068,21.875C10.189,23.052 10.618,24.177 11.312,25.135C12.049,26.087 13.007,26.845 14.102,27.344C15.198,27.842 16.398,28.067 17.6,27.999C19.633,31.056 20.773,34.618 20.894,38.287C20.256,38.698 19.706,39.231 19.274,39.855L10.714,31.289ZM37.288,31.289L28.72,39.853C28.289,39.229 27.738,38.696 27.1,38.285C27.223,34.616 28.366,31.055 30.4,27.999C31.603,28.068 32.804,27.844 33.9,27.345C34.997,26.847 35.956,26.089 36.694,25.137C37.388,24.179 37.817,23.054 37.938,21.877C39.24,21.297 40.592,20.837 41.978,20.505C41.843,24.565 40.166,28.422 37.288,31.289L37.288,31.289Z" fill="#374957"/>
</svg>
