<svg width="48" height="44" viewBox="0 0 48 44" fill="none" xmlns="http://www.w3.org/2000/svg" xmlns:xlink="http://www.w3.org/1999/xlink">
<path d="M42,4L24.472,4L16.472,0L6,0C4.409,0 2.883,0.633 1.757,1.758C0.632,2.883 0,4.409 0,6L0,44L48,44L48,10C48,8.409 47.368,6.883 46.243,5.758C45.117,4.633 43.591,4 42,4ZM6,4L15.528,4L23.528,8L42,8C42.53,8 43.039,8.211 43.414,8.586C43.789,8.961 44,9.47 44,10L44,11.762L4,11.988L4,6C4,5.47 4.211,4.961 4.586,4.586C4.961,4.211 5.47,4 6,4L6,4ZM4,40L4,15.988L44,15.762L44,40L4,40Z" fill="#374957"/>
</svg>
