<svg width="48" height="48" viewBox="0 0 48 48" fill="none" xmlns="http://www.w3.org/2000/svg" xmlns:xlink="http://www.w3.org/1999/xlink">
<path d="M26.828,24C22.24,30.23 15.57,40.914 14.242,42.242C13.37,43.123 12.243,43.709 11.021,43.916C9.799,44.124 8.542,43.944 7.428,43.4L2.828,48L0,45.172L4.6,40.572C4.068,39.458 3.893,38.206 4.099,36.989C4.306,35.772 4.884,34.648 5.754,33.772C7.082,32.444 17.766,25.772 23.996,21.186L26.828,24ZM24,9.172L24,21.172L38.586,6.586L41.414,9.414L26.828,24L38.828,24L48,14.828L48,6C48,4.409 47.368,2.883 46.243,1.757C45.117,0.632 43.591,0 42,0L33.172,0L24,9.172Z" fill="#374957"/>
</svg>
