<svg width="48" height="48" viewBox="0 0 48 48" fill="none" xmlns="http://www.w3.org/2000/svg" xmlns:xlink="http://www.w3.org/1999/xlink">
<path d="M48,24C48,28.747 46.592,33.387 43.955,37.334C41.318,41.28 37.57,44.357 33.184,46.173C28.799,47.99 23.973,48.465 19.318,47.539C14.662,46.613 10.386,44.327 7.029,40.971C3.673,37.614 1.387,33.338 0.461,28.682C-0.465,24.027 0.01,19.201 1.827,14.816C3.643,10.43 6.72,6.682 10.666,4.045C14.613,1.408 19.253,0 24,0C30.363,0.007 36.464,2.538 40.963,7.037C45.462,11.536 47.993,17.637 48,24ZM26,10L22,10L22,30L26,30L26,10ZM26,34L22,34L22,38L26,38L26,34Z" fill="#374957"/>
</svg>
