<svg width="48" height="48" viewBox="0 0 48 48" fill="none" xmlns="http://www.w3.org/2000/svg" xmlns:xlink="http://www.w3.org/1999/xlink">
<path d="M0,20L0,6C0,4.409 0.632,2.883 1.757,1.757C2.883,0.632 4.409,0 6,0L22,0L22,8L26,8L26,0L30,0L30,12L34,12L34,0L38,0L38,16L42,16L42,0C43.591,0 45.117,0.632 46.243,1.757C47.368,2.883 48,4.409 48,6L48,20L0,20ZM10,34L18,34L18,48L30,48L30,34L38,34C40.651,33.997 43.193,32.942 45.068,31.068C46.942,29.193 47.997,26.651 48,24L0,24C0.003,26.651 1.058,29.193 2.932,31.068C4.807,32.942 7.349,33.997 10,34L10,34Z" fill="#374957"/>
</svg>
