<svg width="48" height="48" viewBox="0 0 48 48" fill="none" xmlns="http://www.w3.org/2000/svg" xmlns:xlink="http://www.w3.org/1999/xlink">
<path d="M44,36L44,41.172L37.88,35.052C42.126,30.562 46,25.068 46,19.9C46.111,16.865 45.016,13.91 42.955,11.681C40.894,9.451 38.034,8.127 35,8C33.225,8.094 31.494,8.587 29.936,9.442C28.378,10.298 27.032,11.493 26,12.94C24.968,11.493 23.622,10.297 22.064,9.442C20.506,8.587 18.775,8.094 17,8C15.284,8.004 13.597,8.439 12.094,9.266L2.828,0L0,2.828L8.968,11.8C7.039,14.057 5.986,16.931 6,19.9C6,30.7 22.916,42.994 24.844,44.36L26,45.178L27.156,44.36C29.919,42.365 32.553,40.198 35.042,37.87L41.172,44L36,44L36,48L44,48C45.061,48 46.078,47.579 46.828,46.828C47.579,46.078 48,45.061 48,44L48,36L44,36ZM26,40.258C18.084,34.4 10,25.83 10,19.9C9.89,17.926 10.564,15.99 11.875,14.51C13.186,13.031 15.028,12.129 17,12C21.4,12 24.186,17.4 24.21,17.44L26,20.984L27.8,17.446C27.814,17.4 30.6,12 35,12C36.972,12.129 38.814,13.031 40.125,14.51C41.436,15.99 42.11,17.926 42,19.9C42,25.828 33.914,34.4 26,40.258Z" fill="#374957"/>
</svg>
