<svg width="48" height="46" viewBox="0 0 48 46" fill="none" xmlns="http://www.w3.org/2000/svg" xmlns:xlink="http://www.w3.org/1999/xlink">
<path d="M45.844,1.4C45.153,0.827 44.342,0.415 43.472,0.195C42.601,-0.025 41.693,-0.048 40.812,0.128L32.568,2.128C30.725,2.463 29.058,3.435 27.857,4.874C26.657,6.312 26,8.126 26,10L26,39.6L24,39.962L22,39.6L22,10C22.007,8.145 21.366,6.346 20.188,4.913C19.009,3.481 17.368,2.505 15.546,2.154L7.072,0.098C6.208,-0.059 5.319,-0.024 4.47,0.2C3.62,0.424 2.83,0.832 2.156,1.395C1.481,1.958 0.938,2.662 0.566,3.458C0.193,4.254 0,5.121 0,6L0,39.668L24,44.034L48,39.668L48,6C48,5.122 47.807,4.255 47.434,3.46C47.062,2.665 46.519,1.962 45.844,1.4L45.844,1.4Z" fill="#374957"/>
</svg>
