<svg width="48" height="42" viewBox="0 0 48 42" fill="none" xmlns="http://www.w3.org/2000/svg" xmlns:xlink="http://www.w3.org/1999/xlink">
<path d="M47.909,28.79C47.909,26.961 46.736,25.402 45.104,24.823L45.104,10.31L48,9.152L23.969,-0.453L0,9.152L11.345,13.698L11.345,20.374C11.345,22.431 12.788,24.286 15.408,25.596C17.718,26.751 20.759,27.387 23.97,27.387C27.181,27.387 30.221,26.751 32.532,25.596C35.151,24.286 36.594,22.431 36.594,20.374L36.594,13.711L42.298,11.431L42.298,24.823C40.665,25.402 39.493,26.961 39.493,28.79C39.493,30.463 40.474,31.91 41.891,32.588L39.565,39.568L42.226,40.455L43.701,36.031L45.176,40.455L47.837,39.568L45.51,32.588C46.928,31.91 47.909,30.462 47.909,28.79ZM33.788,20.373C33.788,22.36 29.589,24.581 23.97,24.581C18.35,24.581 14.151,22.36 14.151,20.373L14.151,14.823L23.969,18.757L33.789,14.832L33.788,20.373ZM23.97,15.735L7.542,9.152L23.97,2.569L40.441,9.152L23.97,15.735ZM43.701,30.192C42.927,30.192 42.298,29.563 42.298,28.79C42.298,28.016 42.927,27.387 43.701,27.387C44.474,27.387 45.104,28.016 45.104,28.79C45.104,29.563 44.474,30.192 43.701,30.192Z" fill="#000000"/>
</svg>
