<svg width="48" height="48" viewBox="0 0 48 48" fill="none" xmlns="http://www.w3.org/2000/svg" xmlns:xlink="http://www.w3.org/1999/xlink">
<path d="M4,26L4,24C4,22.409 4.632,20.883 5.757,19.757C6.883,18.632 8.409,18 10,18L22,18L22,13.632C20.834,13.22 19.824,12.457 19.108,11.449C18.392,10.441 18.005,9.236 18,8C18,5.068 21.626,1.892 22.738,0.988L24,-0.038L25.262,0.988C26.374,1.892 30,5.068 30,8C29.995,9.236 29.608,10.441 28.892,11.449C28.176,12.457 27.166,13.22 26,13.632L26,18L38,18C39.591,18 41.117,18.632 42.243,19.757C43.368,20.883 44,22.409 44,24L44,26C44,26.686 42.636,28 40.5,28C38.322,28 37,26.612 37,26L33,26C33,26.686 31.636,28 29.5,28C27.322,28 26,26.612 26,26L22,26C22,26.686 20.636,28 18.5,28C16.322,28 15,26.612 15,26L11,26C11,26.686 9.636,28 7.5,28C5.322,28 4,26.612 4,26ZM0,44L0,48L48,48L48,44L0,44ZM44,31.25C42.898,31.739 41.706,31.995 40.5,32C38.486,32.015 36.534,31.305 35,30C33.457,31.286 31.514,31.993 29.505,31.998C27.497,32.004 25.55,31.308 24,30.03C22.45,31.308 20.503,32.004 18.495,31.998C16.486,31.993 14.543,31.286 13,30C11.466,31.305 9.514,32.015 7.5,32C6.294,31.995 5.102,31.739 4,31.25L4,40L44,40L44,31.25Z" fill="#374957"/>
</svg>
