<svg width="48" height="48" viewBox="0 0 48 48" fill="none" xmlns="http://www.w3.org/2000/svg" xmlns:xlink="http://www.w3.org/1999/xlink">
<path d="M13,31.999C13.593,31.999 14.174,32.175 14.667,32.505C15.16,32.835 15.545,33.303 15.772,33.851C15.999,34.399 16.058,35.003 15.943,35.585C15.827,36.166 15.541,36.701 15.121,37.121C14.702,37.54 14.167,37.826 13.585,37.942C13.003,38.057 12.4,37.998 11.852,37.771C11.304,37.544 10.835,37.159 10.506,36.666C10.176,36.173 10,35.593 10,34.999C10,34.204 10.316,33.441 10.879,32.878C11.441,32.315 12.204,31.999 13,31.999L13,31.999ZM19,47.721C21.775,47.204 24.361,45.956 26.493,44.107C28.625,42.257 30.226,39.873 31.13,37.199C31.986,34.727 32.206,32.079 31.77,29.499L33.132,28.121C33.691,27.557 34.003,26.794 34,25.999L34,21.999L35,21.999C35.657,21.999 36.307,21.87 36.914,21.619C37.52,21.367 38.071,20.999 38.536,20.535C39,20.071 39.368,19.519 39.62,18.913C39.871,18.306 40,17.656 40,16.999L40,15.999L42.502,15.999C43.484,15.999 44.445,15.711 45.265,15.17C46.085,14.63 46.728,13.861 47.116,12.959C47.836,11.302 48.123,9.488 47.948,7.689C47.714,5.557 46.694,3.588 45.088,2.167C43.481,0.745 41.403,-0.028 39.258,-0.001C37.812,-0.005 36.38,0.278 35.044,0.832C33.708,1.385 32.496,2.198 31.476,3.223L18.476,16.223C15.902,15.793 13.261,16.017 10.796,16.875C7.216,18.111 4.191,20.577 2.258,23.834C0.325,27.091 -0.39,30.928 0.241,34.663C0.871,38.397 2.806,41.787 5.701,44.229C8.596,46.671 12.263,48.007 16.05,47.999C17.04,47.997 18.027,47.904 19,47.721L19,47.721ZM18.63,22.399C19.142,22.542 19.683,22.545 20.197,22.41C20.711,22.275 21.18,22.005 21.556,21.629L35.718,7.469C36.182,7.002 36.733,6.632 37.341,6.38C37.949,6.127 38.6,5.998 39.258,5.999C39.914,5.984 40.553,6.209 41.054,6.632C41.555,7.056 41.884,7.648 41.978,8.297C42.037,8.87 41.982,9.448 41.818,9.999L39,9.999C37.674,9.999 36.402,10.526 35.465,11.464C34.527,12.401 34,13.673 34,14.999L34,15.999L33,15.999C31.674,15.999 30.402,16.526 29.465,17.464C28.527,18.401 28,19.673 28,20.999L28,24.767L26.356,26.429C25.984,26.806 25.718,27.274 25.585,27.786C25.452,28.299 25.458,28.837 25.6,29.347C26.157,31.286 26.106,33.349 25.452,35.257C24.901,36.861 23.95,38.298 22.691,39.434C21.431,40.569 19.903,41.366 18.25,41.748C16.598,42.131 14.875,42.087 13.245,41.62C11.614,41.153 10.129,40.28 8.929,39.081C7.729,37.883 6.853,36.399 6.385,34.769C5.916,33.139 5.87,31.416 6.25,29.763C6.631,28.11 7.425,26.581 8.559,25.32C9.693,24.059 11.129,23.107 12.732,22.553C13.757,22.2 14.832,22.019 15.916,22.017C16.834,22.021 17.747,22.149 18.63,22.399L18.63,22.399Z" fill="#374957"/>
</svg>
