<svg width="48" height="48" viewBox="0 0 48 48" fill="none" xmlns="http://www.w3.org/2000/svg" xmlns:xlink="http://www.w3.org/1999/xlink">
<path d="M24,12C21.627,12 19.307,12.704 17.333,14.022C15.36,15.341 13.822,17.215 12.913,19.408C12.005,21.601 11.768,24.013 12.231,26.341C12.694,28.669 13.836,30.807 15.515,32.485C17.193,34.164 19.331,35.306 21.659,35.769C23.987,36.232 26.399,35.995 28.592,35.087C30.785,34.178 32.659,32.64 33.978,30.667C35.296,28.693 36,26.373 36,24C36,20.817 34.736,17.765 32.485,15.515C30.235,13.264 27.183,12 24,12ZM29.572,22.542L25.572,30.542C25.369,30.88 25.102,31.175 24.786,31.409C24.469,31.644 24.11,31.814 23.727,31.909C23.345,32.005 22.948,32.025 22.558,31.967C22.168,31.909 21.794,31.775 21.456,31.572C21.118,31.369 20.823,31.102 20.589,30.786C20.354,30.469 20.184,30.11 20.089,29.727C19.993,29.345 19.973,28.948 20.031,28.558C20.089,28.168 20.223,27.794 20.426,27.456L22,24L21,24C20.204,24 19.441,23.684 18.879,23.121C18.316,22.559 18,21.796 18,21C18,20.204 18.316,19.441 18.879,18.879C19.441,18.316 20.204,18 21,18L27,18C27.531,18 28.052,18.141 28.51,18.409C28.968,18.676 29.348,19.06 29.609,19.522C29.871,19.984 30.005,20.506 29.998,21.037C29.992,21.567 29.845,22.087 29.572,22.542L29.572,22.542ZM24,48C19.253,48 14.613,46.592 10.666,43.955C6.72,41.318 3.643,37.57 1.827,33.184C0.01,28.799 -0.465,23.973 0.461,19.318C1.387,14.662 3.673,10.386 7.029,7.029C10.386,3.673 14.662,1.387 19.318,0.461C23.973,-0.465 28.799,0.01 33.184,1.827C37.57,3.643 41.318,6.72 43.955,10.666C46.592,14.613 48,19.253 48,24C47.993,30.363 45.462,36.464 40.963,40.963C36.464,45.462 30.363,47.993 24,48L24,48ZM24,6C20.44,6 16.96,7.056 14,9.034C11.04,11.011 8.733,13.823 7.37,17.112C6.008,20.401 5.651,24.02 6.346,27.512C7.04,31.003 8.755,34.211 11.272,36.728C13.789,39.245 16.997,40.96 20.488,41.654C23.98,42.349 27.599,41.992 30.888,40.63C34.177,39.267 36.989,36.96 38.966,34C40.944,31.04 42,27.56 42,24C41.995,19.228 40.097,14.652 36.722,11.278C33.348,7.903 28.772,6.005 24,6L24,6Z" fill="#374957"/>
</svg>
