<svg width="48" height="48" viewBox="0 0 48 48" fill="none" xmlns="http://www.w3.org/2000/svg" xmlns:xlink="http://www.w3.org/1999/xlink">
<path d="M24,19.999C21.314,19.996 18.634,20.259 16,20.783L16,16.105L29.83,9.117L18.068,0.599L17.8,0.423C17.19,0.116 16.511,-0.03 15.829,-0.001C15.146,0.028 14.482,0.232 13.901,0.59C13.319,0.949 12.839,1.45 12.506,2.047C12.174,2.644 11.999,3.316 12,3.999L12,21.827C4.782,24.217 0,28.719 0,33.999C0,41.849 10.542,47.999 24,47.999C37.458,47.999 48,41.849 48,33.999C48,26.149 37.458,19.999 24,19.999ZM16,4.035L22.17,8.505L16,11.623L16,4.035ZM24,43.999C13.16,43.999 4,39.419 4,33.999C4,30.811 7.182,27.921 12,26.075L12,33.999L16,33.999L16,24.873C18.626,24.288 21.309,23.995 24,23.999C34.84,23.999 44,28.579 44,33.999C44,39.419 34.84,43.999 24,43.999ZM34,33.999C34,34.79 33.765,35.564 33.326,36.221C32.886,36.879 32.262,37.392 31.531,37.695C30.8,37.997 29.996,38.077 29.22,37.922C28.444,37.768 27.731,37.387 27.172,36.828C26.612,36.268 26.231,35.555 26.077,34.779C25.923,34.004 26.002,33.199 26.304,32.468C26.607,31.737 27.12,31.113 27.778,30.673C28.436,30.234 29.209,29.999 30,29.999C31.061,29.999 32.078,30.421 32.828,31.171C33.579,31.921 34,32.938 34,33.999Z" fill="#374957"/>
</svg>
