<svg width="40" height="48" viewBox="0 0 40 48" fill="none" xmlns="http://www.w3.org/2000/svg" xmlns:xlink="http://www.w3.org/1999/xlink">
<path d="M20,28.448C19.204,28.448 18.441,28.132 17.879,27.569C17.316,27.006 17,26.243 17,25.448L17,25.002C16.972,23.883 17.303,22.786 17.946,21.87C18.589,20.954 19.509,20.269 20.57,19.916C21.081,19.763 21.51,19.414 21.763,18.945C22.017,18.477 22.075,17.927 21.924,17.416C21.833,17.097 21.663,16.806 21.428,16.571C21.194,16.336 20.903,16.165 20.584,16.074C20.31,15.996 20.023,15.975 19.741,16.014C19.458,16.053 19.187,16.149 18.944,16.298C18.713,16.442 18.514,16.631 18.359,16.854C18.204,17.077 18.095,17.33 18.04,17.596C17.961,17.982 17.807,18.349 17.587,18.675C17.366,19.002 17.083,19.282 16.755,19.499C16.426,19.716 16.058,19.867 15.671,19.942C15.284,20.017 14.886,20.015 14.5,19.936C14.114,19.857 13.747,19.703 13.421,19.482C13.094,19.262 12.814,18.979 12.597,18.65C12.38,18.322 12.229,17.953 12.154,17.566C12.079,17.18 12.081,16.782 12.16,16.396C12.377,15.324 12.812,14.309 13.437,13.412C14.062,12.516 14.864,11.756 15.794,11.182C16.723,10.607 17.761,10.229 18.843,10.07C19.924,9.912 21.027,9.977 22.082,10.262C23.704,10.696 25.148,11.629 26.21,12.929C27.272,14.229 27.898,15.83 27.999,17.506C28.101,19.182 27.673,20.847 26.776,22.266C25.878,23.685 24.557,24.785 23,25.412L23,25.444C23.001,25.838 22.923,26.229 22.773,26.593C22.622,26.957 22.401,27.289 22.123,27.568C21.844,27.847 21.513,28.068 21.149,28.219C20.785,28.37 20.394,28.448 20,28.448L20,28.448ZM21.126,47.784L21.914,47.466C26.156,45.76 40,39.044 40,24.304L40,14.104C40.002,11.885 39.303,9.722 38.005,7.923C36.706,6.124 34.873,4.781 32.766,4.084L20.944,0.154C20.331,-0.048 19.669,-0.048 19.056,0.154L7.234,4.074C5.127,4.771 3.294,6.114 1.995,7.913C0.697,9.712 -0.002,11.875 0,14.094L0,24.294C0,37.334 13.704,45.196 17.902,47.294L18.662,47.676C19.042,47.866 19.458,47.973 19.883,47.991C20.308,48.008 20.732,47.935 21.126,47.776L21.126,47.784ZM30.878,9.77C31.787,10.07 32.579,10.65 33.139,11.426C33.7,12.203 34.001,13.136 34,14.094L34,24.294C34,34.812 23.94,40.094 20.136,41.694C16.286,39.694 6,33.494 6,24.294L6,14.094C5.999,13.136 6.3,12.203 6.861,11.426C7.421,10.65 8.213,10.07 9.122,9.77L20,6.162L30.878,9.77ZM20,30.002C19.407,30.002 18.827,30.178 18.333,30.507C17.84,30.837 17.455,31.306 17.228,31.854C17.001,32.402 16.942,33.005 17.058,33.587C17.173,34.169 17.459,34.704 17.879,35.123C18.298,35.543 18.833,35.828 19.415,35.944C19.997,36.06 20.6,36 21.148,35.773C21.696,35.546 22.165,35.162 22.494,34.668C22.824,34.175 23,33.595 23,33.002C23,32.206 22.684,31.443 22.121,30.88C21.559,30.318 20.796,30.002 20,30.002L20,30.002Z" fill="#374957"/>
</svg>
