<svg width="30" height="50" viewBox="0 0 30 50" fill="none" xmlns="http://www.w3.org/2000/svg" xmlns:xlink="http://www.w3.org/1999/xlink">
<path d="M25.47,42.032L17,42.032L17,9.086L23.37,15.456C23.933,16.019 24.696,16.335 25.492,16.334C25.886,16.334 26.276,16.257 26.64,16.106C27.004,15.955 27.335,15.734 27.613,15.455C27.892,15.176 28.113,14.846 28.263,14.482C28.414,14.118 28.491,13.727 28.491,13.333C28.491,12.939 28.414,12.549 28.263,12.185C28.112,11.821 27.891,11.491 27.612,11.212L18.15,1.752C17.033,0.683 15.547,0.086 14.001,0.086C12.455,0.086 10.969,0.683 9.852,1.752L0.388,11.212C-0.175,11.775 -0.491,12.538 -0.491,13.333C-0.491,14.129 -0.175,14.892 0.387,15.455C0.95,16.018 1.713,16.334 2.508,16.334C3.304,16.335 4.067,16.019 4.63,15.456L11,8.958L11,42.032L2.53,42.032C1.734,42.032 0.971,42.348 0.409,42.911C-0.154,43.473 -0.47,44.236 -0.47,45.032C-0.47,45.828 -0.154,46.591 0.409,47.153C0.971,47.716 1.734,48.032 2.53,48.032L25.47,48.032C26.266,48.032 27.029,47.716 27.591,47.153C28.154,46.591 28.47,45.828 28.47,45.032C28.47,44.236 28.154,43.473 27.591,42.911C27.029,42.348 26.266,42.032 25.47,42.032Z" fill="#374957"/>
</svg>
