<svg width="48" height="48" viewBox="0 0 48 48" fill="none" xmlns="http://www.w3.org/2000/svg" xmlns:xlink="http://www.w3.org/1999/xlink">
<path d="M28.163,11.172L1.801,37.538C0.718,38.699 0.128,40.236 0.155,41.824C0.183,43.412 0.826,44.927 1.949,46.05C3.071,47.173 4.587,47.817 6.174,47.845C7.762,47.872 9.299,47.283 10.461,46.2L36.829,19.838L28.163,11.172ZM31.173,19.838L26.001,25.01L23.001,22L28.173,16.828L31.173,19.838ZM7.633,43.376C7.228,43.761 6.691,43.976 6.133,43.976C5.574,43.976 5.037,43.761 4.633,43.376C4.236,42.978 4.013,42.438 4.013,41.876C4.013,41.314 4.236,40.774 4.633,40.376L20.171,24.836L23.181,27.846L7.633,43.376ZM42.667,29.256L48.001,31.924L42.667,34.6L40.001,39.924L37.335,34.6L32.001,31.924L37.335,29.256L40.001,23.924L42.667,29.256ZM13.335,10.666L8.001,8L13.335,5.334L16.001,0L18.667,5.334L24.001,8L18.667,10.666L16.001,16L13.335,10.666ZM38.667,9.334L34.001,7L38.667,4.666L41.001,0L43.335,4.666L48.001,7L43.335,9.334L41.001,14L38.667,9.334Z" fill="#374957"/>
</svg>
