<svg width="48" height="50" viewBox="0 0 48 50" fill="none" xmlns="http://www.w3.org/2000/svg" xmlns:xlink="http://www.w3.org/1999/xlink">
<path d="M40,0C37.878,0 35.843,0.843 34.343,2.343C32.843,3.843 32,5.878 32,8L36,8C36,6.939 36.421,5.922 37.172,5.172C37.922,4.421 38.939,4 40,4L44,4L44,30.052C42.279,28.728 40.171,28.007 38,28C35.696,28.003 33.463,28.8 31.678,30.257C29.892,31.715 28.664,33.743 28.2,36L19.8,36C19.336,33.743 18.108,31.715 16.323,30.257C14.537,28.8 12.304,28.003 10,28C7.829,28.007 5.721,28.728 4,30.052L4,4L8,4C9.061,4 10.078,4.421 10.828,5.172C11.579,5.922 12,6.939 12,8L16,8C16,5.878 15.157,3.843 13.657,2.343C12.157,0.843 10.122,0 8,0L0,0L0,38C-0.002,40.48 0.917,42.872 2.579,44.713C4.241,46.553 6.528,47.71 8.995,47.959C11.462,48.209 13.934,47.532 15.931,46.061C17.928,44.591 19.307,42.43 19.8,40L28.2,40C28.693,42.43 30.072,44.591 32.069,46.061C34.066,47.532 36.538,48.209 39.005,47.959C41.472,47.71 43.759,46.553 45.421,44.713C47.083,42.872 48.002,40.48 48,38L48,0L40,0ZM10,44C8.813,44 7.653,43.648 6.667,42.989C5.68,42.33 4.911,41.392 4.457,40.296C4.003,39.2 3.884,37.993 4.115,36.829C4.347,35.666 4.918,34.596 5.757,33.757C6.596,32.918 7.666,32.347 8.829,32.115C9.993,31.884 11.2,32.003 12.296,32.457C13.392,32.911 14.33,33.68 14.989,34.667C15.648,35.653 16,36.813 16,38C16,39.591 15.368,41.117 14.243,42.243C13.117,43.368 11.591,44 10,44ZM38,44C36.813,44 35.653,43.648 34.667,42.989C33.68,42.33 32.911,41.392 32.457,40.296C32.003,39.2 31.884,37.993 32.115,36.829C32.347,35.666 32.918,34.596 33.757,33.757C34.596,32.918 35.666,32.347 36.829,32.115C37.993,31.884 39.2,32.003 40.296,32.457C41.392,32.911 42.33,33.68 42.989,34.667C43.648,35.653 44,36.813 44,38C44,39.591 43.368,41.117 42.243,42.243C41.117,43.368 39.591,44 38,44Z" fill="#374957"/>
</svg>
