<svg width="50" height="48" viewBox="0 0 50 48" fill="none" xmlns="http://www.w3.org/2000/svg" xmlns:xlink="http://www.w3.org/1999/xlink">
<path d="M46.49,1.515C45.921,0.942 45.226,0.51 44.459,0.256C43.692,0.002 42.877,-0.067 42.078,0.053C30.199,1.929 19.182,7.403 10.512,15.737C8.994,17.264 7.81,19.091 7.036,21.1C6.262,23.11 5.916,25.258 6.018,27.409C6.16,30.529 7.255,33.531 9.156,36.009L0.086,45.085L2.914,47.913L11.982,38.845C14.61,40.894 17.85,42 21.182,41.987C23.394,41.977 25.582,41.52 27.613,40.642C29.644,39.765 31.476,38.485 33,36.881C40.932,28.249 46.134,17.463 47.95,5.881C48.067,5.09 47.995,4.282 47.742,3.524C47.488,2.765 47.059,2.077 46.49,1.515L46.49,1.515ZM10.014,27.215C9.938,25.621 10.194,24.028 10.768,22.538C11.341,21.048 12.218,19.693 13.344,18.561C14.21,17.693 15.1,16.891 16,16.121L16,29.171L12.02,33.151C10.807,31.4 10.112,29.343 10.014,27.215L10.014,27.215ZM30.108,34.117C28.203,36.193 25.62,37.521 22.824,37.861C20.027,38.201 17.201,37.532 14.854,35.973L24.828,25.999L36.322,25.999C34.544,28.918 32.461,31.639 30.108,34.117L30.108,34.117ZM43.986,5.317C43.039,11.123 41.207,16.749 38.554,21.999L28.828,21.999L35.914,14.913L33.086,12.085L20,25.171L20,13.033C26.81,8.423 34.539,5.345 42.654,4.011C42.712,4.003 42.771,3.999 42.83,3.999C42.985,3.999 43.138,4.029 43.282,4.089C43.425,4.148 43.555,4.235 43.664,4.345C43.79,4.469 43.885,4.621 43.941,4.789C43.997,4.957 44.013,5.136 43.986,5.311L43.986,5.317Z" fill="#374957"/>
</svg>
