<svg width="50" height="48" viewBox="0 0 50 48" fill="none" xmlns="http://www.w3.org/2000/svg" xmlns:xlink="http://www.w3.org/1999/xlink">
<path d="M33.8,41.916L31.352,48L30,48C22.046,47.991 14.421,44.827 8.797,39.203C3.173,33.579 0.009,25.953 0,18L0,16.648L6.084,14.2C6.908,30.918 17.082,41.092 33.8,41.916ZM47.664,7.346L35.374,37.978C19.226,37.748 10.252,28.778 10.022,12.628L40.6,0.362C41.579,-0.009 42.643,-0.09 43.667,0.127C44.691,0.344 45.631,0.85 46.376,1.586C47.12,2.321 47.638,3.255 47.868,4.276C48.098,5.297 48.03,6.362 47.672,7.346L47.664,7.346ZM26,22C26,20.939 25.579,19.921 24.828,19.171C24.078,18.421 23.061,18 22,18C20.939,18 19.922,18.421 19.172,19.171C18.421,19.921 18,20.939 18,22C18,23.06 18.421,24.078 19.172,24.828C19.922,25.578 20.939,26 22,26C23.061,26 24.078,25.578 24.828,24.828C25.579,24.078 26,23.06 26,22ZM37.568,21.766L41.26,12.566C40.645,12.257 39.972,12.079 39.285,12.043C38.598,12.008 37.911,12.115 37.267,12.359C36.623,12.603 36.037,12.977 35.546,13.459C35.054,13.941 34.668,14.519 34.412,15.158C34.156,15.797 34.035,16.482 34.057,17.17C34.079,17.858 34.243,18.534 34.54,19.155C34.836,19.776 35.259,20.328 35.78,20.778C36.301,21.227 36.91,21.564 37.568,21.766L37.568,21.766Z" fill="#374957"/>
</svg>
