<svg width="48" height="48" viewBox="0 0 48 48" fill="none" xmlns="http://www.w3.org/2000/svg" xmlns:xlink="http://www.w3.org/1999/xlink">
<path d="M47.999,10L40.827,10L47.413,3.414L44.585,0.586L37.999,7.172L37.999,0L33.999,0L33.999,10.912C32.362,9.169 30.43,7.73 28.291,6.66C26.79,5.998 25.113,5.844 23.516,6.222C21.92,6.601 20.49,7.49 19.445,8.756C14.619,13.582 3.415,40.2 2.153,43.23L0.277,47.722L4.771,45.846C7.791,44.584 34.419,33.38 39.243,28.554C40.509,27.51 41.398,26.08 41.777,24.484C42.156,22.888 42.003,21.211 41.341,19.71C40.27,17.571 38.83,15.638 37.087,14L47.999,14L47.999,10ZM36.415,25.726C34.963,26.946 33.378,27.998 31.689,28.862L26.913,24.086L24.085,26.914L27.999,30.832C22.167,33.832 14.431,37.35 7.773,40.232C9.447,36.35 11.345,32.102 13.229,28.072L17.209,32.04L20.039,29.21L15.057,24.23C16.857,20.506 18.577,17.196 19.995,14.83L25.085,19.92L27.913,17.092L22.347,11.52C24.041,9.942 25.079,9.676 26.713,10.336C28.982,11.63 31.015,13.298 32.729,15.268C34.7,16.983 36.368,19.017 37.663,21.286C38.161,22.446 38.355,23.788 36.415,25.726Z" fill="#374957"/>
</svg>
