<svg width="48" height="48" viewBox="0 0 48 48" fill="none" xmlns="http://www.w3.org/2000/svg" xmlns:xlink="http://www.w3.org/1999/xlink">
<path d="M41.497,39.091L33.994,18.084L23.906,18.084L23.906,9.039L11.996,0L0.086,9.039L0.086,48L2.899,48L2.899,26.899L6.088,26.899L6.088,48L8.901,48L8.901,44.905L15.091,44.905L15.091,48L17.904,48L17.904,26.899L21.093,26.899L21.093,48L23.906,48L23.906,26.899L27.51,26.899L35.013,47.906L47.914,47.906L47.914,39.091L41.497,39.091ZM18.319,8.331L5.673,8.331L11.996,3.532L18.319,8.331ZM2.899,24.086L2.899,11.144L21.093,11.144L21.093,24.086L17.904,24.086L17.904,20.241C17.904,16.983 15.254,14.333 11.996,14.333C8.738,14.333 6.088,16.983 6.088,20.241L6.088,24.086L2.899,24.086ZM8.901,24.086L8.901,20.241C8.901,18.534 10.29,17.146 11.996,17.146C13.703,17.146 15.091,18.534 15.091,20.241L15.091,24.086L8.901,24.086ZM8.901,32.901L15.091,32.901L15.091,36.09L8.901,36.09L8.901,32.901ZM8.901,42.092L8.901,38.903L15.091,38.903L15.091,42.092L8.901,42.092ZM15.091,30.088L8.901,30.088L8.901,26.899L15.091,26.899L15.091,30.088ZM45.101,45.093L36.995,45.093L29.493,24.086L23.906,24.086L23.906,20.897L32.012,20.897L39.514,41.904L45.101,41.904L45.101,45.093Z" fill="#000000"/>
</svg>
