<svg width="50" height="50" viewBox="0 0 50 50" fill="none" xmlns="http://www.w3.org/2000/svg" xmlns:xlink="http://www.w3.org/1999/xlink">
<path d="M44.164,39.922C46.368,37.442 47.698,34.308 47.95,31C48.255,27.297 47.28,23.601 45.187,20.531C43.094,17.46 40.011,15.202 36.452,14.132C36.295,14.084 36.153,13.998 36.038,13.881C35.924,13.764 35.84,13.62 35.796,13.462C34.995,10.916 33.585,8.604 31.687,6.728C29.789,4.851 27.461,3.467 24.906,2.696C22.351,1.924 19.647,1.789 17.027,2.301C14.408,2.814 11.954,3.959 9.878,5.636L5.122,0.878C4.559,0.315 3.796,-0.001 3,-0.001C2.204,-0.001 1.441,0.315 0.878,0.878C0.315,1.441 -0.001,2.204 -0.001,3C-0.001,3.796 0.315,4.559 0.878,5.122L42.878,47.122C43.441,47.685 44.204,48.001 45,48.001C45.796,48.001 46.559,47.685 47.122,47.122C47.685,46.559 48.001,45.796 48.001,45C48.001,44.204 47.685,43.441 47.122,42.878L44.164,39.922ZM18.62,8.114C21.066,7.737 23.565,8.249 25.666,9.557C27.766,10.865 29.328,12.883 30.068,15.244C30.404,16.334 31.001,17.324 31.807,18.131C32.614,18.937 33.604,19.534 34.694,19.87C36.944,20.544 38.895,21.971 40.219,23.912C41.543,25.852 42.16,28.189 41.968,30.53C41.823,32.411 41.099,34.2 39.894,35.652L14.182,9.94C15.494,8.985 17.016,8.359 18.62,8.114L18.62,8.114ZM32,43C32,43.796 31.684,44.559 31.121,45.121C30.559,45.684 29.796,46 29,46L11.94,46C9.131,45.979 6.416,44.982 4.26,43.181C2.104,41.38 0.641,38.886 0.12,36.126C-0.179,34.061 0.089,31.955 0.894,30.03C1.7,28.106 3.012,26.437 4.692,25.2C4.839,25.071 4.94,24.897 4.98,24.705C5.019,24.513 4.994,24.313 4.91,24.136C4.592,23.319 4.342,22.476 4.162,21.618C4.072,21.229 4.06,20.826 4.127,20.433C4.195,20.039 4.34,19.663 4.555,19.327C4.769,18.99 5.049,18.7 5.377,18.472C5.705,18.245 6.075,18.086 6.466,18.004C6.857,17.921 7.26,17.918 7.652,17.993C8.044,18.069 8.417,18.222 8.749,18.443C9.081,18.665 9.365,18.951 9.586,19.283C9.806,19.616 9.958,19.99 10.032,20.382C10.145,20.921 10.302,21.45 10.502,21.964C11.077,23.367 11.167,24.922 10.759,26.383C10.351,27.844 9.469,29.127 8.25,30.03C7.436,30.618 6.801,31.418 6.413,32.344C6.024,33.269 5.899,34.284 6.05,35.276C6.375,36.602 7.128,37.784 8.193,38.638C9.258,39.492 10.575,39.971 11.94,40L29,40C29.796,40 30.559,40.316 31.121,40.879C31.684,41.441 32,42.204 32,43Z" fill="#374957"/>
</svg>
