<svg width="48" height="44" viewBox="0 0 48 44" fill="none" xmlns="http://www.w3.org/2000/svg" xmlns:xlink="http://www.w3.org/1999/xlink">
<path d="M42,18.513L42,8.999C41.997,6.612 41.048,4.325 39.361,2.637C37.674,0.95 35.386,0.001 33,-0.001L9,-0.001C6.614,0.001 4.326,0.95 2.639,2.637C0.952,4.325 0.003,6.612 0,8.999L0,30.999C0.007,32.677 0.616,34.297 1.718,35.564C2.819,36.83 4.339,37.659 6,37.899L6,37.999C6,39.59 6.632,41.116 7.757,42.241C8.883,43.366 10.409,43.999 12,43.999C13.591,43.999 15.117,43.366 16.243,42.241C17.368,41.116 18,39.59 18,37.999L30,37.999C30,39.59 30.632,41.116 31.757,42.241C32.883,43.366 34.409,43.999 36,43.999C37.591,43.999 39.117,43.366 40.243,42.241C41.368,41.116 42,39.59 42,37.999C42,37.965 42,37.933 42,37.899C43.661,37.659 45.181,36.83 46.282,35.564C47.384,34.297 47.993,32.677 48,30.999L48,26.999C47.998,25.138 47.42,23.323 46.346,21.804C45.272,20.285 43.754,19.135 42,18.513L42,18.513ZM6,9.999L12,9.999L12,17.999L6,17.999L6,9.999ZM18,9.999L24,9.999L24,31.999L18,31.999L18,9.999ZM30,9.999L36,9.999L36,17.999L30,17.999L30,9.999ZM6,23.999L12,23.999L12,31.999L7,31.999C6.735,31.999 6.48,31.893 6.293,31.706C6.105,31.518 6,31.264 6,30.999L6,23.999ZM42,30.999C42,31.264 41.895,31.518 41.707,31.706C41.52,31.893 41.265,31.999 41,31.999L30,31.999L30,23.999L39,23.999C39.796,23.999 40.559,24.315 41.121,24.877C41.684,25.44 42,26.203 42,26.999L42,30.999Z" fill="#374957"/>
</svg>
