<svg width="44" height="48" viewBox="0 0 44 48" fill="none" xmlns="http://www.w3.org/2000/svg" xmlns:xlink="http://www.w3.org/1999/xlink">
<path d="M20.078,44.001L20.078,48.001L24.078,48.001L24.078,44.001L43.814,44.001L34.48,30.001L39.814,30.001L31.814,18.001L36.2,18.001C36.2,18.001 28.478,5.688 25.692,1.727C25.632,1.641 25.502,1.478 25.432,1.401C23.807,-0.395 20.219,-0.525 18.722,1.401L7.892,18.001L12.34,18.001L4.34,30.001L9.672,30.001L0.34,44.001L20.078,44.001ZM11.814,26.001L19.814,14.001L15.26,14.001L21.674,4.127C21.901,3.923 22.246,3.923 22.474,4.127L28.852,14.001L24.34,14.001L32.34,26.001L27,26.001L36.334,40L7.814,40L17.148,26.001L11.814,26.001L11.814,26.001Z" fill="#374957"/>
</svg>
