<svg width="48" height="48" viewBox="0 0 48 48" fill="none" xmlns="http://www.w3.org/2000/svg" xmlns:xlink="http://www.w3.org/1999/xlink">
<path d="M30,6C30,4.409 29.368,2.883 28.243,1.757C27.117,0.632 25.591,0 24,0L0,0L0,48L4,48L4,26L20,26L20,28C20,29.591 20.632,31.117 21.757,32.243C22.883,33.368 24.409,34 26,34L48,34L48,8L30,8L30,6ZM4,4L24,4C24.53,4 25.039,4.211 25.414,4.586C25.789,4.961 26,5.47 26,6L26,22L4,22L4,4ZM44,12L44,30L26,30C25.47,30 24.961,29.789 24.586,29.414C24.211,29.039 24,28.53 24,28L24,26L30,26L30,12L44,12Z" fill="#374957"/>
</svg>
