<svg width="28" height="48" viewBox="0 0 28 48" fill="none" xmlns="http://www.w3.org/2000/svg" xmlns:xlink="http://www.w3.org/1999/xlink">
<path d="M28,0L0,0L0,4L4,4L4,38C4,40.652 5.054,43.196 6.929,45.071C8.804,46.946 11.348,48 14,48C16.652,48 19.196,46.946 21.071,45.071C22.946,43.196 24,40.652 24,38L24,4L28,4L28,0ZM14,44C12.409,44 10.883,43.368 9.757,42.243C8.632,41.117 8,39.591 8,38L8,18L20,18L20,38C20,39.591 19.368,41.117 18.243,42.243C17.117,43.368 15.591,44 14,44ZM20,14L8,14L8,4L20,4L20,14Z" fill="#374957"/>
</svg>
