<svg width="50" height="28" viewBox="0 0 50 28" fill="none" xmlns="http://www.w3.org/2000/svg" xmlns:xlink="http://www.w3.org/1999/xlink">
<path d="M9.886,1.212L2.048,9.05C0.776,10.383 0.065,12.156 0.065,14C0.065,15.843 0.776,17.616 2.048,18.95L9.886,26.788C10.163,27.074 10.494,27.303 10.86,27.46C11.226,27.617 11.62,27.7 12.018,27.704C12.416,27.707 12.811,27.631 13.18,27.48C13.549,27.329 13.884,27.107 14.165,26.825C14.447,26.543 14.67,26.208 14.821,25.84C14.972,25.471 15.048,25.076 15.044,24.678C15.041,24.279 14.958,23.886 14.801,23.52C14.643,23.154 14.415,22.822 14.128,22.546L8.57,16.984L45.07,16.938C45.866,16.938 46.629,16.622 47.192,16.059C47.754,15.496 48.07,14.733 48.07,13.938C48.07,13.142 47.754,12.379 47.192,11.816C46.629,11.254 45.866,10.938 45.07,10.938L8.6,10.984L14.128,5.454C14.675,4.888 14.977,4.13 14.97,3.344C14.963,2.557 14.648,1.805 14.092,1.248C13.536,0.692 12.783,0.377 11.996,0.37C11.21,0.363 10.452,0.665 9.886,1.212L9.886,1.212Z" fill="#374957"/>
</svg>
