<svg width="44" height="24" viewBox="0 0 44 24" fill="none" xmlns="http://www.w3.org/2000/svg" xmlns:xlink="http://www.w3.org/1999/xlink">
<path d="M40,0C39.999,3.972 38.816,7.854 36.601,11.151C34.386,14.448 31.239,17.011 27.562,18.512C23.884,20.014 19.843,20.387 15.953,19.583C12.064,18.78 8.501,16.836 5.72,14L14,14L14,10L3.714,10C2.729,10.001 1.785,10.393 1.089,11.089C0.393,11.785 0.001,12.729 0,13.714L0,24L4,24L4,17.88C7.453,20.968 11.725,22.991 16.302,23.705C20.879,24.419 25.565,23.792 29.794,21.902C34.023,20.012 37.615,16.938 40.135,13.051C42.656,9.165 43.998,4.632 44,0L40,0Z" fill="#374957"/>
</svg>
