<svg width="42" height="48" viewBox="0 0 42 48" fill="none" xmlns="http://www.w3.org/2000/svg" xmlns:xlink="http://www.w3.org/1999/xlink">
<path d="M40.799,43.999L32.531,31.999L38.169,31.999L29.599,19.999L35.909,19.999L24.109,2.141C23.642,1.483 23.023,0.947 22.304,0.578C21.586,0.209 20.789,0.019 19.982,0.023C19.174,0.026 18.38,0.225 17.665,0.6C16.95,0.976 16.336,1.518 15.875,2.181L4.087,19.999L10.399,19.999L1.823,31.999L7.461,31.999L-0.801,43.999L17.999,43.999L17.999,47.999L21.999,47.999L21.999,43.999L40.799,43.999ZM12.319,31.999L22.821,31.999L20.065,27.999L9.599,27.999L15.315,19.999L19.771,19.999L16.911,15.999L11.529,15.999L19.177,4.429C19.264,4.295 19.381,4.185 19.52,4.107C19.659,4.029 19.815,3.986 19.975,3.982C20.134,3.978 20.292,4.013 20.434,4.084C20.577,4.155 20.7,4.26 20.793,4.389L28.469,15.999L21.827,15.999L30.399,27.999L24.923,27.999L33.199,39.999L6.799,39.999L12.319,31.999Z" fill="#374957"/>
</svg>
