<svg width="48" height="48" viewBox="0 0 48 48" fill="none" xmlns="http://www.w3.org/2000/svg" xmlns:xlink="http://www.w3.org/1999/xlink">
<path d="M14.27,29.098C14.344,29.122 18.11,30.068 18.11,30.068C18.11,30.068 19.326,34.036 19.362,34.124C19.824,35.259 20.615,36.23 21.633,36.913C22.652,37.595 23.85,37.958 25.076,37.954L25.176,37.954C26.419,37.938 27.628,37.546 28.644,36.83C29.66,36.114 30.435,35.107 30.868,33.942C30.868,33.942 35.79,20.834 35.816,20.742C36.125,19.56 36.12,18.317 35.8,17.137C35.479,15.957 34.856,14.882 33.991,14.018C33.127,13.155 32.051,12.532 30.871,12.213C29.691,11.894 28.448,11.89 27.266,12.2C27.15,12.22 14,17.438 14,17.438C12.811,17.899 11.793,18.715 11.085,19.776C10.377,20.836 10.013,22.089 10.043,23.364C10.073,24.639 10.496,25.874 11.253,26.9C12.01,27.926 13.065,28.693 14.274,29.098L14.27,29.098ZM16.19,23.022L28.922,17.966C29.076,17.947 29.232,17.964 29.378,18.016C29.524,18.068 29.656,18.152 29.764,18.264C29.872,18.376 29.952,18.511 29.998,18.658C30.045,18.806 30.056,18.963 30.032,19.116L25.25,31.83C25.24,31.866 25.218,31.898 25.187,31.921C25.157,31.943 25.12,31.955 25.082,31.954C24.992,31.954 24.968,31.936 24.944,31.906L23.354,26.694C23.203,26.199 22.926,25.751 22.551,25.394C22.176,25.037 21.714,24.784 21.212,24.658L16.114,23.384C16.074,23.36 16.046,23.322 16.044,23.224C16.042,23.08 16.094,23.06 16.2,23.022L16.19,23.022ZM24,48C28.747,48 33.387,46.592 37.334,43.955C41.28,41.318 44.357,37.57 46.173,33.184C47.99,28.799 48.465,23.973 47.539,19.318C46.613,14.662 44.327,10.386 40.971,7.029C37.614,3.673 33.338,1.387 28.682,0.461C24.027,-0.465 19.201,0.01 14.816,1.827C10.43,3.643 6.682,6.72 4.045,10.666C1.408,14.613 0,19.253 0,24C0.007,30.363 2.538,36.464 7.037,40.963C11.536,45.462 17.637,47.993 24,48L24,48ZM24,6C27.56,6 31.04,7.056 34,9.034C36.96,11.011 39.267,13.823 40.63,17.112C41.992,20.401 42.349,24.02 41.654,27.512C40.96,31.003 39.245,34.211 36.728,36.728C34.211,39.245 31.003,40.96 27.512,41.654C24.02,42.349 20.401,41.992 17.112,40.63C13.823,39.267 11.011,36.96 9.034,34C7.056,31.04 6,27.56 6,24C6.005,19.228 7.903,14.652 11.278,11.278C14.652,7.903 19.228,6.005 24,6Z" fill="#374957"/>
</svg>
