<svg width="48" height="44" viewBox="0 0 48 44" fill="none" xmlns="http://www.w3.org/2000/svg" xmlns:xlink="http://www.w3.org/1999/xlink">
<path d="M48,25.999C48,24.407 47.368,22.881 46.243,21.756C45.117,20.631 43.591,19.999 42,19.999L38,19.999L38,5.999C38,4.407 37.368,2.881 36.243,1.756C35.117,0.631 33.591,-0.001 32,-0.001L6,-0.001C4.409,-0.001 2.883,0.631 1.757,1.756C0.632,2.881 0,4.407 0,5.999L0,35.999L4.082,35.999C4.031,36.33 4.003,36.664 4,36.999C4,38.855 4.737,40.636 6.05,41.948C7.363,43.261 9.143,43.999 11,43.999C12.857,43.999 14.637,43.261 15.95,41.948C17.263,40.636 18,38.855 18,36.999C17.997,36.664 17.969,36.33 17.918,35.999L30.082,35.999C30.031,36.33 30.003,36.664 30,36.999C30,38.855 30.737,40.636 32.05,41.948C33.363,43.261 35.143,43.999 37,43.999C38.857,43.999 40.637,43.261 41.95,41.948C43.263,40.636 44,38.855 44,36.999C43.997,36.664 43.969,36.33 43.918,35.999L48,35.999L48,25.999ZM26,23.999L26,31.999L20,31.999L20,11.999L26,11.999L26,23.999ZM4,19.999L4,11.999L8,11.999L8,19.999L4,19.999ZM12,11.999L16,11.999L16,19.999L12,19.999L12,11.999ZM30,11.999L34,11.999L34,19.999L30,19.999L30,11.999ZM6,3.999L32,3.999C32.53,3.999 33.039,4.209 33.414,4.584C33.789,4.959 34,5.468 34,5.999L34,7.999L4,7.999L4,5.999C4,5.468 4.211,4.959 4.586,4.584C4.961,4.209 5.47,3.999 6,3.999L6,3.999ZM4,23.999L16,23.999L16,31.999L4,31.999L4,23.999ZM14,36.999C14,37.794 13.684,38.557 13.121,39.12C12.559,39.683 11.796,39.999 11,39.999C10.204,39.999 9.441,39.683 8.879,39.12C8.316,38.557 8,37.794 8,36.999C8.001,36.657 8.064,36.318 8.186,35.999L13.814,35.999C13.936,36.318 13.999,36.657 14,36.999L14,36.999ZM40,36.999C40,37.794 39.684,38.557 39.121,39.12C38.559,39.683 37.796,39.999 37,39.999C36.204,39.999 35.441,39.683 34.879,39.12C34.316,38.557 34,37.794 34,36.999C34.001,36.657 34.064,36.318 34.186,35.999L39.814,35.999C39.936,36.318 39.999,36.657 40,36.999L40,36.999ZM44,31.999L30,31.999L30,23.999L42,23.999C42.53,23.999 43.039,24.209 43.414,24.584C43.789,24.959 44,25.468 44,25.999L44,31.999Z" fill="#374957"/>
</svg>
