<svg width="48" height="40" viewBox="0 0 48 40" fill="none" xmlns="http://www.w3.org/2000/svg" xmlns:xlink="http://www.w3.org/1999/xlink">
<path d="M4,24L48,24L48,40L44,40L44,34L4,34L4,40L0,40L0,0L4,0L4,24ZM11,20C11.989,20 12.956,19.707 13.778,19.157C14.6,18.608 15.241,17.827 15.619,16.913C15.998,16 16.097,14.994 15.904,14.025C15.711,13.055 15.235,12.164 14.536,11.464C13.836,10.765 12.945,10.289 11.975,10.096C11.006,9.903 10,10.002 9.087,10.381C8.173,10.759 7.392,11.4 6.843,12.222C6.293,13.044 6,14.011 6,15C6,15.657 6.129,16.307 6.381,16.913C6.632,17.52 7,18.071 7.464,18.536C8.402,19.473 9.674,20 11,20L11,20ZM42,8L24,8C22.409,8 20.883,8.632 19.757,9.757C18.632,10.883 18,12.409 18,14L18,20L48,20L48,14C48,12.409 47.368,10.883 46.243,9.757C45.117,8.632 43.591,8 42,8Z" fill="#374957"/>
</svg>
