<svg width="48" height="48" viewBox="0 0 48 48" fill="none" xmlns="http://www.w3.org/2000/svg" xmlns:xlink="http://www.w3.org/1999/xlink">
<path d="M42.961,17.999L42.737,17.999C44.477,14.477 43.971,7.326 43.841,5.828L43.641,3.598L41.441,4.04C39.951,4.338 32.757,5.908 30.013,8.697C28.675,6.56 27.157,4.542 25.475,2.664L24.001,1L22.513,2.658C20.83,4.538 19.312,6.558 17.975,8.697C15.231,5.908 8.037,4.338 6.547,4.04L4.355,3.6L4.155,5.83C4.025,7.328 3.519,14.479 5.259,18.001L5.041,18.001C4.138,18.003 3.252,18.246 2.475,18.706C1.697,19.166 1.058,19.826 0.623,20.617C0.194,21.374 -0.022,22.233 -0.001,23.102C0.021,23.972 0.278,24.819 0.743,25.554C4.601,31.686 14.759,36.464 20.053,38.628C17.79,40.46 16.335,43.107 16.001,46L16.001,48L32.001,48L32.001,46C31.829,43.74 30.862,41.614 29.271,40L32.001,40C33.062,40 34.079,40.421 34.829,41.171C35.579,41.921 36.001,42.939 36.001,44L40.001,44C39.998,42.134 39.342,40.328 38.149,38.894C36.955,37.46 35.297,36.489 33.463,36.148C38.579,33.61 44.527,29.934 47.263,25.548C47.726,24.812 47.98,23.964 47.999,23.096C48.018,22.227 47.801,21.369 47.371,20.613C46.936,19.824 46.297,19.165 45.522,18.706C44.746,18.246 43.862,18.002 42.961,17.999L42.961,17.999ZM32.801,11.599C33.551,10.587 36.771,9.341 40.001,8.496C40.105,11.895 39.825,15.397 39.069,16.419C38.765,16.835 38.381,17.187 37.94,17.453C37.498,17.718 37.008,17.894 36.499,17.968C35.989,18.043 35.469,18.015 34.97,17.886C34.471,17.758 34.003,17.531 33.593,17.219C32.751,16.573 32.197,15.622 32.048,14.571C31.9,13.52 32.17,12.453 32.801,11.599L32.801,11.599ZM24.001,7.098C26.125,9.761 28.001,12.759 28.001,13.999C28.001,15.06 27.579,16.078 26.829,16.828C26.079,17.578 25.062,17.999 24.001,17.999C22.94,17.999 21.922,17.578 21.172,16.828C20.422,16.078 20.001,15.06 20.001,13.999C20.001,12.725 21.879,9.749 24.001,7.098ZM8.013,8.486C11.239,9.331 14.459,10.577 15.201,11.599C15.826,12.45 16.095,13.512 15.949,14.558C15.803,15.604 15.255,16.552 14.421,17.199C14.01,17.511 13.542,17.738 13.043,17.866C12.544,17.995 12.025,18.023 11.515,17.948C11.005,17.874 10.515,17.698 10.074,17.433C9.633,17.167 9.249,16.815 8.945,16.399C8.189,15.387 7.909,11.879 8.013,8.486ZM20.709,44C21.62,42.668 22.73,41.485 24.001,40.492C25.272,41.485 26.382,42.668 27.293,44L20.709,44ZM43.875,23.426C41.287,27.57 34.803,31.166 29.807,33.462C31.146,31.195 31.9,28.63 32.001,26L28.001,26C27.631,29.329 26.233,32.461 24.001,34.96C21.769,32.461 20.371,29.329 20.001,26L16.001,26C16.102,28.624 16.852,31.182 18.185,33.446C13.201,31.144 6.723,27.548 4.129,23.424C4.047,23.293 4.003,23.142 4.003,22.988C4.003,22.833 4.047,22.682 4.129,22.552C4.217,22.386 4.349,22.248 4.509,22.151C4.67,22.054 4.853,22.001 5.041,22L42.961,22C43.149,22.001 43.333,22.053 43.494,22.149C43.655,22.246 43.787,22.384 43.877,22.55C43.958,22.681 44.001,22.833 44.001,22.988C44,23.143 43.957,23.294 43.875,23.426Z" fill="#374957"/>
</svg>
