<svg width="40" height="48" viewBox="0 0 40 48" fill="none" xmlns="http://www.w3.org/2000/svg" xmlns:xlink="http://www.w3.org/1999/xlink">
<path d="M28.001,22L12.001,22L12.001,18L28.001,18L28.001,22ZM5.875,34.158C3.074,31.364 1.165,27.801 0.389,23.921C-0.387,20.042 0.006,16.019 1.517,12.362C3.028,8.705 5.59,5.579 8.878,3.378C12.166,1.178 16.033,0.002 19.99,0C23.946,-0.002 27.815,1.169 31.105,3.366C34.396,5.563 36.961,8.686 38.476,12.341C39.992,15.996 40.389,20.018 39.617,23.899C38.846,27.78 36.941,31.345 34.143,34.142L20.001,47.974L5.875,34.158ZM4.001,20C3.995,22.102 4.406,24.185 5.211,26.127C6.015,28.069 7.197,29.832 8.687,31.314L20.001,42.378L31.331,31.298C33.188,29.436 34.558,27.144 35.318,24.626C36.078,22.108 36.206,19.442 35.69,16.863C35.174,14.283 34.031,11.871 32.36,9.84C30.69,7.808 28.544,6.219 26.114,5.215C23.683,4.21 21.042,3.82 18.424,4.079C15.807,4.338 13.294,5.238 11.107,6.7C8.921,8.162 7.129,10.141 5.889,12.461C4.65,14.78 4.001,17.37 4.001,20L4.001,20Z" fill="#374957"/>
</svg>
