<svg width="48" height="48" viewBox="0 0 48 48" fill="none" xmlns="http://www.w3.org/2000/svg" xmlns:xlink="http://www.w3.org/1999/xlink">
<path d="M24,0C19.253,0 14.613,1.408 10.666,4.045C6.72,6.682 3.643,10.43 1.827,14.816C0.01,19.201 -0.465,24.027 0.461,28.682C1.387,33.338 3.673,37.614 7.029,40.971C10.386,44.327 14.662,46.613 19.318,47.539C23.973,48.465 28.799,47.99 33.184,46.173C37.57,44.357 41.318,41.28 43.955,37.334C46.592,33.387 48,28.747 48,24C47.993,17.637 45.462,11.536 40.963,7.037C36.464,2.538 30.363,0.007 24,0L24,0ZM42.058,32.542C34.673,34.846 26.707,34.433 19.6,31.378C20.868,29.414 22.472,27.688 24.338,26.28C27.165,27.423 30.185,28.016 33.234,28.026C36.944,28.026 40.604,27.17 43.93,25.526C43.744,27.96 43.109,30.339 42.058,32.542ZM43.75,21.006C41.938,22.135 39.956,22.966 37.88,23.466C37.45,17.058 35.328,10.879 31.732,5.558C34.888,6.89 37.65,9.009 39.754,11.712C41.858,14.416 43.234,17.613 43.75,21L43.75,21.006ZM25.496,4.076C30.489,9.553 33.454,16.576 33.896,23.974C31.163,24.068 28.44,23.598 25.896,22.594C25.699,19.25 24.807,15.983 23.275,13.004C21.743,10.024 19.606,7.398 17,5.292C19.236,4.443 21.608,4.005 24,4C24.506,4 25,4.038 25.496,4.076L25.496,4.076ZM12.974,7.33C14.853,8.555 16.513,10.087 17.884,11.862C11.886,15.874 7.215,21.578 4.464,28.25C3.599,24.311 3.949,20.203 5.469,16.468C6.988,12.733 9.605,9.546 12.974,7.33L12.974,7.33ZM6.73,34.04C8.708,26.392 13.409,19.728 19.952,15.3C21.135,17.732 21.811,20.38 21.938,23.082C19.239,25.133 17.004,27.73 15.379,30.705C13.754,33.679 12.776,36.963 12.508,40.342C10.153,38.679 8.183,36.53 6.73,34.04ZM24,44C21.413,43.999 18.85,43.494 16.456,42.512C16.412,39.932 16.868,37.368 17.8,34.962C22.402,36.985 27.373,38.035 32.4,38.046C34.527,38.042 36.65,37.851 38.744,37.474C36.877,39.529 34.601,41.171 32.062,42.295C29.523,43.419 26.777,44 24,44Z" fill="#374957"/>
</svg>
