<svg width="40" height="48" viewBox="0 0 40 48" fill="none" xmlns="http://www.w3.org/2000/svg" xmlns:xlink="http://www.w3.org/1999/xlink">
<path d="M35.888,5.268L20,0L4.112,5.268C2.915,5.665 1.873,6.429 1.135,7.451C0.397,8.474 0,9.703 0,10.964L0,23.982C0,39.03 18.4,47.34 19.188,47.686L19.896,48L20.632,47.756C21.422,47.494 40,41.136 40,23.982L40,10.964C40,9.703 39.603,8.474 38.865,7.451C38.127,6.429 37.085,5.665 35.888,5.268L35.888,5.268ZM22,38.104L18,38.104L18,34.104L22,34.104L22,38.104ZM22,30L18,30L18,10L22,10L22,30Z" fill="#374957"/>
</svg>
