<svg width="48" height="48" viewBox="0 0 48 48" fill="none" xmlns="http://www.w3.org/2000/svg" xmlns:xlink="http://www.w3.org/1999/xlink">
<path d="M19.999,16C20.79,16 21.564,16.235 22.221,16.674C22.879,17.114 23.392,17.738 23.695,18.469C23.997,19.2 24.077,20.004 23.922,20.78C23.768,21.556 23.387,22.269 22.827,22.828C22.268,23.388 21.555,23.769 20.779,23.923C20.004,24.077 19.199,23.998 18.468,23.695C17.737,23.393 17.113,22.88 16.673,22.222C16.234,21.564 15.999,20.791 15.999,20C15.999,18.939 16.421,17.922 17.171,17.171C17.921,16.421 18.938,16 19.999,16L19.999,16ZM47.999,20C47.991,27.424 45.039,34.541 39.789,39.79C34.54,45.039 27.423,47.992 19.999,48L17.999,48L17.999,39.898C14.543,39.555 11.236,38.318 8.403,36.309C5.571,34.3 3.31,31.588 1.844,28.439C0.377,25.291 -0.244,21.816 0.041,18.354C0.326,14.893 1.507,11.566 3.469,8.7C5.43,5.834 8.104,3.528 11.228,2.009C14.351,0.491 17.816,-0.189 21.281,0.038C24.747,0.265 28.093,1.391 30.992,3.304C33.89,5.218 36.24,7.853 37.811,10.95C36.568,11.534 35.459,12.368 34.553,13.4C33.043,10.07 30.437,7.359 27.171,5.716C23.905,4.073 20.174,3.599 16.601,4.371C13.027,5.144 9.826,7.117 7.53,9.963C5.234,12.808 3.982,16.354 3.982,20.01C3.982,23.666 5.234,27.212 7.53,30.057C9.826,32.903 13.027,34.876 16.601,35.649C20.174,36.421 23.905,35.947 27.171,34.304C30.437,32.661 33.043,29.949 34.553,26.62C35.46,27.648 36.569,28.479 37.811,29.06C36.288,32.038 34.043,34.587 31.28,36.473C28.518,38.359 25.327,39.523 21.999,39.858L21.999,43.916C26.977,43.489 31.699,41.521 35.507,38.286C39.315,35.051 42.021,30.71 43.247,25.866C42.034,26.124 40.77,26 39.631,25.51C38.491,25.02 37.531,24.19 36.883,23.132C36.235,22.074 35.931,20.842 36.012,19.604C36.093,18.366 36.556,17.184 37.337,16.22C38.118,15.257 39.178,14.558 40.372,14.222C41.566,13.886 42.835,13.928 44.004,14.342C45.173,14.756 46.185,15.523 46.9,16.536C47.616,17.549 48,18.76 47.999,20L47.999,20ZM43.999,20C43.999,19.604 43.882,19.218 43.662,18.889C43.442,18.56 43.13,18.304 42.764,18.152C42.399,18.001 41.997,17.961 41.609,18.038C41.221,18.116 40.865,18.306 40.585,18.586C40.305,18.865 40.115,19.222 40.038,19.61C39.96,19.998 40,20.4 40.151,20.765C40.303,21.131 40.559,21.443 40.888,21.663C41.217,21.883 41.604,22 41.999,22C42.53,22 43.038,21.789 43.413,21.414C43.788,21.039 43.999,20.53 43.999,20Z" fill="#374957"/>
</svg>
