<svg width="40" height="48" viewBox="0 0 40 48" fill="none" xmlns="http://www.w3.org/2000/svg" xmlns:xlink="http://www.w3.org/1999/xlink">
<path d="M12,21C12,20.204 12.316,19.441 12.879,18.879C13.441,18.316 14.204,18 15,18L17,18L17,16C17,15.204 17.316,14.441 17.879,13.879C18.441,13.316 19.204,13 20,13C20.796,13 21.559,13.316 22.121,13.879C22.684,14.441 23,15.204 23,16L23,18L25,18C25.796,18 26.559,18.316 27.121,18.879C27.684,19.441 28,20.204 28,21C28,21.796 27.684,22.559 27.121,23.121C26.559,23.684 25.796,24 25,24L23,24L23,26C23,26.796 22.684,27.559 22.121,28.121C21.559,28.684 20.796,29 20,29C19.204,29 18.441,28.684 17.879,28.121C17.316,27.559 17,26.796 17,26L17,24L15,24C14.204,24 13.441,23.684 12.879,23.121C12.316,22.559 12,21.796 12,21L12,21ZM27,32L13,32C12.204,32 11.441,32.316 10.879,32.879C10.316,33.441 10,34.204 10,35C10,35.796 10.316,36.559 10.879,37.121C11.441,37.684 12.204,38 13,38L27,38C27.796,38 28.559,37.684 29.121,37.121C29.684,36.559 30,35.796 30,35C30,34.204 29.684,33.441 29.121,32.879C28.559,32.316 27.796,32 27,32L27,32ZM40,15L40,37C39.997,39.916 38.837,42.712 36.775,44.775C34.712,46.837 31.916,47.997 29,48L11,48C8.084,47.997 5.288,46.837 3.225,44.775C1.163,42.712 0.003,39.916 0,37L0,15C0.002,12.139 1.118,9.392 3.11,7.339C5.102,5.286 7.815,4.088 10.674,4C11.242,2.803 12.138,1.792 13.257,1.084C14.377,0.375 15.675,0 17,0L23,0C24.325,0 25.623,0.375 26.742,1.084C27.862,1.792 28.758,2.803 29.326,4C32.185,4.088 34.898,5.286 36.89,7.339C38.882,9.392 39.998,12.139 40,15L40,15ZM34,15C34,13.674 33.473,12.402 32.536,11.464C31.598,10.527 30.326,10 29,10L27,10C26.204,10 25.441,9.684 24.879,9.121C24.316,8.559 24,7.796 24,7C24,6.735 23.895,6.48 23.707,6.293C23.52,6.105 23.265,6 23,6L17,6C16.735,6 16.48,6.105 16.293,6.293C16.105,6.48 16,6.735 16,7C16,7.796 15.684,8.559 15.121,9.121C14.559,9.684 13.796,10 13,10L11,10C9.674,10 8.402,10.527 7.464,11.464C6.527,12.402 6,13.674 6,15L6,37C6,38.326 6.527,39.598 7.464,40.536C8.402,41.473 9.674,42 11,42L29,42C30.326,42 31.598,41.473 32.536,40.536C33.473,39.598 34,38.326 34,37L34,15Z" fill="#374957"/>
</svg>
