<svg width="48" height="48" viewBox="0 0 48 48" fill="none" xmlns="http://www.w3.org/2000/svg" xmlns:xlink="http://www.w3.org/1999/xlink">
<path d="M44.586,31.414L40.01,26.838L42.838,24.01L47.414,28.586L44.586,31.414ZM47.414,11.414L44.586,8.586L40.086,13.086L42.914,15.914L47.414,11.414ZM48,18L42,18L42,22L48,22L48,18ZM16.74,34L5.478,34L11.7,48L14.5,48C15.416,47.999 16.318,47.77 17.124,47.333C17.929,46.895 18.612,46.264 19.112,45.495C19.611,44.727 19.911,43.846 19.984,42.933C20.056,42.019 19.9,41.102 19.528,40.264L16.74,34ZM36,0L36,40L32,40C31.997,37.349 30.942,34.807 29.068,32.932C27.193,31.058 24.651,30.003 22,30L6,30C4.409,30 2.883,29.368 1.757,28.243C0.632,27.117 0,25.591 0,24L0,16C0,14.409 0.632,12.883 1.757,11.757C2.883,10.632 4.409,10 6,10L22,10C24.651,9.997 27.193,8.942 29.068,7.068C30.942,5.193 31.997,2.651 32,0L36,0Z" fill="#374957"/>
</svg>
