<svg width="48" height="48" viewBox="0 0 48 48" fill="none" xmlns="http://www.w3.org/2000/svg" xmlns:xlink="http://www.w3.org/1999/xlink">
<path d="M44.199,3.801C37.327,-3.061 18.743,-0.133 9.303,9.305C-0.137,18.743 -3.063,37.329 3.799,44.201C7.012,46.9 11.147,48.248 15.333,47.961C24.001,47.885 32.33,44.582 38.695,38.697C48.131,29.259 51.061,10.673 44.199,3.801L44.199,3.801ZM32.665,4.001C35.793,3.75 38.901,4.689 41.367,6.629C43.399,8.663 44.221,12.601 43.917,17.091L30.917,4.091C31.507,4.053 32.099,4.001 32.665,4.001L32.665,4.001ZM6.631,41.369C4.599,39.339 3.777,35.401 4.081,30.911L17.081,43.911C12.599,44.221 8.661,43.401 6.631,41.369ZM35.867,35.869C31.996,39.517 27.206,42.045 22.009,43.183L4.809,25.983C5.95,20.788 8.481,16.001 12.131,12.133C16.009,8.486 20.808,5.965 26.011,4.841L43.183,22.013C42.045,27.21 39.517,31.999 35.867,35.869L35.867,35.869ZM27.413,12.587L35.413,20.587L32.585,23.415L29.999,20.829L26.827,24.001L29.413,26.587L26.585,29.415L23.999,26.829L20.827,30.001L23.413,32.587L20.585,35.415L12.585,27.415L15.413,24.587L17.999,27.173L21.171,24.001L18.585,21.415L21.413,18.587L23.999,21.173L27.171,18.001L24.585,15.415L27.413,12.587Z" fill="#374957"/>
</svg>
