<svg width="24" height="26" viewBox="0 0 24 26" fill="none" xmlns="http://www.w3.org/2000/svg" xmlns:xlink="http://www.w3.org/1999/xlink">
<path d="M23.824,23.64L17.965,23.64L17.965,21.19C16.527,23.001 14.343,24.226 11.254,24.226C5.075,24.226 0.441,19.166 0.441,12.455C0.441,5.744 5.128,0.684 11.254,0.684C14.343,0.684 16.473,1.909 17.965,3.773L17.965,1.323L23.824,1.323L23.824,23.64ZM6.567,12.455C6.567,15.864 8.804,18.633 12.319,18.633C15.781,18.633 18.071,16.024 18.071,12.455C18.071,8.886 15.728,6.277 12.319,6.277C8.804,6.33 6.567,9.046 6.567,12.455Z" fill="#374957"/>
</svg>
