<svg width="48" height="44" viewBox="0 0 48 44" fill="none" xmlns="http://www.w3.org/2000/svg" xmlns:xlink="http://www.w3.org/1999/xlink">
<path d="M0,16L0,44L48,44L48,16L0,16ZM30,36L10,36L10,32L30,32L30,36ZM38,28L10,28L10,24L38,24L38,28ZM42,0L6,0C4.409,0 2.883,0.632 1.757,1.757C0.632,2.883 0,4.409 0,6L0,12L48,12L48,6C48,4.409 47.368,2.883 46.243,1.757C45.117,0.632 43.591,0 42,0L42,0ZM8,8C7.604,8 7.218,7.883 6.889,7.663C6.56,7.443 6.304,7.131 6.152,6.765C6.001,6.4 5.961,5.998 6.038,5.61C6.116,5.222 6.306,4.865 6.586,4.586C6.865,4.306 7.222,4.116 7.61,4.038C7.998,3.961 8.4,4.001 8.765,4.152C9.131,4.304 9.443,4.56 9.663,4.889C9.883,5.218 10,5.604 10,6C10,6.53 9.789,7.039 9.414,7.414C9.039,7.789 8.53,8 8,8ZM14,8C13.604,8 13.218,7.883 12.889,7.663C12.56,7.443 12.304,7.131 12.152,6.765C12.001,6.4 11.961,5.998 12.038,5.61C12.116,5.222 12.306,4.865 12.586,4.586C12.865,4.306 13.222,4.116 13.61,4.038C13.998,3.961 14.4,4.001 14.765,4.152C15.131,4.304 15.443,4.56 15.663,4.889C15.883,5.218 16,5.604 16,6C16,6.53 15.789,7.039 15.414,7.414C15.039,7.789 14.53,8 14,8ZM20,8C19.604,8 19.218,7.883 18.889,7.663C18.56,7.443 18.304,7.131 18.152,6.765C18.001,6.4 17.961,5.998 18.038,5.61C18.116,5.222 18.306,4.865 18.586,4.586C18.865,4.306 19.222,4.116 19.61,4.038C19.998,3.961 20.4,4.001 20.765,4.152C21.131,4.304 21.443,4.56 21.663,4.889C21.883,5.218 22,5.604 22,6C22,6.53 21.789,7.039 21.414,7.414C21.039,7.789 20.53,8 20,8Z" fill="#374957"/>
</svg>
