<svg width="48" height="48" viewBox="0 0 48 48" fill="none" xmlns="http://www.w3.org/2000/svg" xmlns:xlink="http://www.w3.org/1999/xlink">
<path d="M42,0L6,0C4.409,0 2.883,0.632 1.757,1.757C0.632,2.883 0,4.409 0,6L0,48L48,48L48,6C48,4.409 47.368,2.883 46.243,1.757C45.117,0.632 43.591,0 42,0L42,0ZM14,36C13.604,36 13.218,35.883 12.889,35.663C12.56,35.443 12.304,35.131 12.152,34.765C12.001,34.4 11.961,33.998 12.038,33.61C12.116,33.222 12.306,32.865 12.586,32.586C12.865,32.306 13.222,32.116 13.61,32.038C13.998,31.961 14.4,32.001 14.765,32.152C15.131,32.304 15.443,32.56 15.663,32.889C15.883,33.218 16,33.604 16,34C16,34.53 15.789,35.039 15.414,35.414C15.039,35.789 14.53,36 14,36ZM14,16C13.604,16 13.218,15.883 12.889,15.663C12.56,15.443 12.304,15.131 12.152,14.765C12.001,14.4 11.961,13.998 12.038,13.61C12.116,13.222 12.306,12.865 12.586,12.586C12.865,12.306 13.222,12.116 13.61,12.038C13.998,11.961 14.4,12.001 14.765,12.152C15.131,12.304 15.443,12.56 15.663,12.889C15.883,13.218 16,13.604 16,14C16,14.53 15.789,15.039 15.414,15.414C15.039,15.789 14.53,16 14,16ZM24,26C23.604,26 23.218,25.883 22.889,25.663C22.56,25.443 22.304,25.131 22.152,24.765C22.001,24.4 21.961,23.998 22.038,23.61C22.116,23.222 22.306,22.865 22.586,22.586C22.865,22.306 23.222,22.116 23.61,22.038C23.998,21.961 24.4,22.001 24.765,22.152C25.131,22.304 25.443,22.56 25.663,22.889C25.883,23.218 26,23.604 26,24C26,24.53 25.789,25.039 25.414,25.414C25.039,25.789 24.53,26 24,26ZM34,36C33.604,36 33.218,35.883 32.889,35.663C32.56,35.443 32.304,35.131 32.152,34.765C32.001,34.4 31.961,33.998 32.038,33.61C32.116,33.222 32.306,32.865 32.586,32.586C32.865,32.306 33.222,32.116 33.61,32.038C33.998,31.961 34.4,32.001 34.765,32.152C35.131,32.304 35.443,32.56 35.663,32.889C35.883,33.218 36,33.604 36,34C36,34.53 35.789,35.039 35.414,35.414C35.039,35.789 34.53,36 34,36ZM34,16C33.604,16 33.218,15.883 32.889,15.663C32.56,15.443 32.304,15.131 32.152,14.765C32.001,14.4 31.961,13.998 32.038,13.61C32.116,13.222 32.306,12.865 32.586,12.586C32.865,12.306 33.222,12.116 33.61,12.038C33.998,11.961 34.4,12.001 34.765,12.152C35.131,12.304 35.443,12.56 35.663,12.889C35.883,13.218 36,13.604 36,14C36,14.53 35.789,15.039 35.414,15.414C35.039,15.789 34.53,16 34,16Z" fill="#374957"/>
</svg>
