<svg width="48" height="48" viewBox="0 0 48 48" fill="none" xmlns="http://www.w3.org/2000/svg" xmlns:xlink="http://www.w3.org/1999/xlink">
<path d="M26,7.998L6,7.998C4.409,7.998 2.883,8.63 1.757,9.756C0.632,10.881 0,12.407 0,13.998L0,47.998L32,47.998L32,13.998C32,12.407 31.368,10.881 30.243,9.756C29.117,8.63 27.591,7.998 26,7.998L26,7.998ZM16,35.998C16,35.998 8,30.664 8,25.998C8,24.937 8.421,23.92 9.172,23.17C9.922,22.42 10.939,21.998 12,21.998C13.061,21.998 14.078,22.42 14.828,23.17C15.579,23.92 16,24.937 16,25.998C16,24.937 16.421,23.92 17.172,23.17C17.922,22.42 18.939,21.998 20,21.998C21.061,21.998 22.078,22.42 22.828,23.17C23.579,23.92 24,24.937 24,25.998C24,30.664 16,35.998 16,35.998ZM47.76,13.384L38.2,46.212L36,45.398L36,13.998C35.997,11.347 34.942,8.805 33.068,6.931C31.193,5.056 28.651,4.001 26,3.998L17.514,3.998C18.016,2.552 19.056,1.354 20.418,0.654C21.78,-0.045 23.36,-0.194 24.828,0.24L43.7,5.952C45.222,6.402 46.504,7.437 47.265,8.83C48.026,10.223 48.204,11.86 47.76,13.384L47.76,13.384Z" fill="#374957"/>
</svg>
