<svg width="50" height="48" viewBox="0 0 50 48" fill="none" xmlns="http://www.w3.org/2000/svg" xmlns:xlink="http://www.w3.org/1999/xlink">
<path d="M31.401,14.269L27.701,16.401C26.682,15.374 25.403,14.642 24.001,14.285L24.001,10.001L20.001,10.001L20.001,14.285C18.599,14.642 17.32,15.374 16.301,16.401L12.601,14.269L10.601,17.733L14.323,19.879C14.12,20.568 14.012,21.282 14.001,22.001C14.012,22.719 14.12,23.433 14.323,24.123L10.601,26.269L12.601,29.733L16.301,27.601C17.32,28.628 18.599,29.359 20.001,29.717L20.001,34.001L24.001,34.001L24.001,29.717C25.403,29.359 26.682,28.628 27.701,27.601L31.401,29.733L33.401,26.269L29.687,24.123C29.888,23.433 29.993,22.719 30.001,22.001C29.991,21.282 29.882,20.568 29.679,19.879L33.401,17.733L31.401,14.269ZM22.001,26.001C21.21,26.001 20.437,25.766 19.779,25.327C19.121,24.887 18.608,24.262 18.306,23.531C18.003,22.801 17.924,21.996 18.078,21.22C18.232,20.444 18.613,19.732 19.173,19.172C19.732,18.613 20.445,18.232 21.221,18.078C21.997,17.923 22.801,18.002 23.532,18.305C24.263,18.608 24.888,19.121 25.327,19.778C25.767,20.436 26.001,21.21 26.001,22.001C26.001,23.062 25.58,24.079 24.83,24.829C24.08,25.579 23.062,26.001 22.001,26.001ZM46.545,22.265C44.754,17.537 42.424,13.032 39.601,8.839C37.257,5.661 34.093,3.181 30.448,1.662C26.803,0.142 22.814,-0.358 18.907,0.213C15.031,0.764 11.371,2.34 8.307,4.777C5.243,7.215 2.885,10.426 1.477,14.08C0.068,17.733 -0.34,21.696 0.295,25.56C0.93,29.424 2.584,33.048 5.087,36.059C5.677,36.767 6.001,37.66 6.001,38.583L6.001,48.001L32.001,48.001L32.001,42.001L36.495,42.001C37.949,41.997 39.353,41.468 40.446,40.509C41.54,39.551 42.249,38.229 42.443,36.789L43.341,30.001L48.001,30.001L48.001,25.577C48.001,25.577 46.973,23.245 46.545,22.265ZM39.835,26.001L38.479,36.263C38.416,36.744 38.179,37.185 37.814,37.505C37.449,37.825 36.981,38.001 36.495,38.001L28.001,38.001L28.001,44.001L10.001,44.001L10.001,38.583C10,36.725 9.349,34.927 8.161,33.499C6.613,31.651 5.451,29.511 4.746,27.205C4.041,24.9 3.807,22.476 4.057,20.078C4.307,17.681 5.036,15.358 6.202,13.247C7.367,11.137 8.945,9.282 10.842,7.794C12.738,6.306 14.915,5.213 17.242,4.583C19.568,3.952 21.998,3.795 24.387,4.122C26.776,4.449 29.074,5.253 31.146,6.486C33.218,7.719 35.021,9.355 36.447,11.299C39.039,15.244 41.195,19.458 42.879,23.867C43.191,24.581 43.503,25.297 43.815,26.005L39.835,26.001Z" fill="#374957"/>
</svg>
