<svg width="48" height="50" viewBox="0 0 48 50" fill="none" xmlns="http://www.w3.org/2000/svg" xmlns:xlink="http://www.w3.org/1999/xlink">
<path d="M24,0C17.637,0.007 11.537,2.538 7.037,7.037C2.538,11.536 0.007,17.637 0,24C-0.25,43.148 22.318,54.858 37.8,43.634C38.125,43.408 38.401,43.12 38.614,42.787C38.827,42.454 38.972,42.082 39.041,41.693C39.109,41.304 39.1,40.905 39.014,40.519C38.928,40.133 38.767,39.768 38.539,39.445C38.312,39.121 38.023,38.846 37.688,38.635C37.354,38.424 36.981,38.281 36.592,38.215C36.202,38.148 35.803,38.159 35.418,38.247C35.032,38.335 34.668,38.499 34.346,38.728C22.84,47.164 5.726,38.292 6,24C6.944,0.14 41.058,0.144 42,24L42,27C42,27.796 41.684,28.559 41.121,29.121C40.559,29.684 39.796,30 39,30C38.204,30 37.441,29.684 36.879,29.121C36.316,28.559 36,27.796 36,27L36,24C35.496,8.142 12.502,8.144 12,24C12.02,26.326 12.714,28.596 13.997,30.535C15.28,32.475 17.097,34.002 19.23,34.93C21.362,35.859 23.718,36.149 26.012,35.767C28.306,35.385 30.44,34.346 32.156,32.776C33.347,34.171 34.937,35.169 36.711,35.636C38.485,36.102 40.359,36.016 42.083,35.387C43.806,34.759 45.297,33.619 46.354,32.12C47.412,30.621 47.986,28.834 48,27L48,24C47.993,17.637 45.462,11.536 40.963,7.037C36.464,2.538 30.363,0.007 24,0L24,0ZM24,30C22.409,30 20.883,29.368 19.757,28.243C18.632,27.117 18,25.591 18,24C18,22.409 18.632,20.883 19.757,19.757C20.883,18.632 22.409,18 24,18C25.591,18 27.117,18.632 28.243,19.757C29.368,20.883 30,22.409 30,24C30,25.591 29.368,27.117 28.243,28.243C27.117,29.368 25.591,30 24,30Z" fill="#374957"/>
</svg>
