<svg width="40" height="48" viewBox="0 0 40 48" fill="none" xmlns="http://www.w3.org/2000/svg" xmlns:xlink="http://www.w3.org/1999/xlink">
<path d="M12.067,25.105L17.173,19.999L12.067,14.893L14.895,12.065L20.001,17.171L25.107,12.065L27.935,14.893L22.829,19.999L27.935,25.105L25.107,27.933L20.001,22.827L14.895,27.933L12.067,25.105ZM5.867,34.157C4.008,32.3 2.534,30.096 1.528,27.67C0.522,25.243 0.003,22.642 0.002,20.016C0.001,17.389 0.517,14.787 1.521,12.36C2.526,9.933 3.998,7.727 5.855,5.869C7.711,4.011 9.916,2.537 12.342,1.53C14.768,0.524 17.369,0.006 19.996,0.004C22.623,0.003 25.224,0.52 27.651,1.524C30.079,2.528 32.284,4 34.143,5.857C37.893,9.608 40,14.695 40,19.999C40,25.303 37.893,30.39 34.143,34.141L20.001,47.973L5.867,34.157ZM4.001,19.999C3.995,22.101 4.406,24.183 5.21,26.125C6.015,28.067 7.196,29.831 8.687,31.313L20.001,42.377L31.331,31.297C33.188,29.435 34.557,27.143 35.318,24.625C36.078,22.107 36.206,19.441 35.69,16.861C35.174,14.282 34.03,11.87 32.36,9.838C30.689,7.807 28.544,6.218 26.113,5.213C23.682,4.208 21.042,3.818 18.424,4.077C15.807,4.337 13.294,5.237 11.107,6.699C8.921,8.161 7.128,10.14 5.889,12.459C4.649,14.779 4.001,17.369 4.001,19.999L4.001,19.999Z" fill="#374957"/>
</svg>
