<svg width="48" height="30" viewBox="0 0 48 30" fill="none" xmlns="http://www.w3.org/2000/svg" xmlns:xlink="http://www.w3.org/1999/xlink">
<path d="M37,0.001L11,0.001C8.084,0.005 5.288,1.165 3.225,3.227C1.163,5.289 0.003,8.085 0,11.001L0,17.001C0.003,19.918 1.163,22.714 3.225,24.776C5.288,26.838 8.084,27.998 11,28.001L37,28.001C39.916,27.998 42.712,26.838 44.775,24.776C46.837,22.714 47.997,19.918 48,17.001L48,11.001C47.997,8.085 46.837,5.289 44.775,3.227C42.712,1.165 39.916,0.005 37,0.001ZM42,17.001C42,18.328 41.473,19.599 40.536,20.537C39.598,21.475 38.326,22.001 37,22.001L11,22.001C9.674,22.001 8.402,21.475 7.464,20.537C6.527,19.599 6,18.328 6,17.001L6,11.001C6,9.675 6.527,8.404 7.464,7.466C8.402,6.528 9.674,6.001 11,6.001L37,6.001C38.326,6.001 39.598,6.528 40.536,7.466C41.473,8.404 42,9.675 42,11.001L42,17.001Z" fill="#374957"/>
</svg>
