<svg width="48" height="48" viewBox="0 0 48 48" fill="none" xmlns="http://www.w3.org/2000/svg" xmlns:xlink="http://www.w3.org/1999/xlink">
<path d="M24,19.999C22.63,19.999 21.302,20.079 20,20.199L20,33.999L16,33.999L16,16.105L29.83,9.117L17.8,0.423C17.19,0.116 16.511,-0.03 15.829,-0.001C15.146,0.028 14.482,0.232 13.901,0.59C13.319,0.949 12.839,1.45 12.506,2.047C12.174,2.644 11.999,3.316 12,3.999L12,21.843C4.784,24.229 0,28.721 0,33.999C0,41.849 10.542,47.999 24,47.999C37.458,47.999 48,41.849 48,33.999C48,26.149 37.458,19.999 24,19.999ZM30,37.999C29.209,37.999 28.436,37.764 27.778,37.325C27.12,36.885 26.607,36.261 26.304,35.53C26.002,34.799 25.923,33.995 26.077,33.219C26.231,32.443 26.612,31.73 27.172,31.171C27.731,30.611 28.444,30.23 29.22,30.076C29.996,29.922 30.8,30.001 31.531,30.304C32.262,30.606 32.886,31.119 33.326,31.777C33.765,32.435 34,33.208 34,33.999C34,35.06 33.579,36.077 32.828,36.828C32.078,37.578 31.061,37.999 30,37.999Z" fill="#374957"/>
</svg>
