<svg width="42" height="48" viewBox="0 0 42 48" fill="none" xmlns="http://www.w3.org/2000/svg" xmlns:xlink="http://www.w3.org/1999/xlink">
<path d="M32,27L32,15.142C32.007,13.433 31.674,11.74 31.022,10.161C30.37,8.582 29.411,7.147 28.2,5.942L26.05,3.8C24.844,2.589 23.41,1.63 21.831,0.978C20.252,0.325 18.559,-0.007 16.85,0L11,0C8.084,0.003 5.288,1.163 3.225,3.225C1.163,5.287 0.003,8.083 0,11L0,27C0.003,29.916 1.163,32.712 3.225,34.774C5.288,36.837 8.084,37.997 11,38L21,38C23.916,37.997 26.712,36.837 28.775,34.774C30.837,32.712 31.997,29.916 32,27L32,27ZM6,27L6,11C6,9.674 6.527,8.402 7.464,7.464C8.402,6.526 9.674,6 11,6L16.858,6C17.241,6.006 17.623,6.043 18,6.112L18,10C18,11.06 18.421,12.078 19.172,12.828C19.922,13.578 20.939,14 22,14L25.888,14C25.957,14.377 25.994,14.759 26,15.142L26,27C26,28.326 25.473,29.598 24.536,30.535C23.598,31.473 22.326,32 21,32L11,32C9.674,32 8.402,31.473 7.464,30.535C6.527,29.598 6,28.326 6,27L6,27ZM42,17L42,37C41.997,39.916 40.837,42.712 38.775,44.774C36.712,46.837 33.916,47.997 31,48L15,48C14.204,48 13.441,47.684 12.879,47.121C12.316,46.558 12,45.795 12,45C12,44.204 12.316,43.441 12.879,42.878C13.441,42.316 14.204,42 15,42L31,42C32.326,42 33.598,41.473 34.536,40.535C35.473,39.598 36,38.326 36,37L36,17C36,16.204 36.316,15.441 36.879,14.878C37.441,14.316 38.204,14 39,14C39.796,14 40.559,14.316 41.121,14.878C41.684,15.441 42,16.204 42,17Z" fill="#374957"/>
</svg>
