<svg width="50" height="50" viewBox="0 0 50 50" fill="none" xmlns="http://www.w3.org/2000/svg" xmlns:xlink="http://www.w3.org/1999/xlink">
<path d="M26.49,30.08L5.026,20.306C4.335,19.953 3.726,19.459 3.238,18.856C2.75,18.253 2.394,17.555 2.192,16.806C1.991,16.057 1.948,15.274 2.068,14.507C2.187,13.741 2.466,13.008 2.886,12.356C5.376,8.596 8.596,5.376 12.356,2.886L12.356,2.886C13.011,2.464 13.748,2.184 14.518,2.066C15.288,1.947 16.075,1.992 16.827,2.197C17.579,2.403 18.279,2.764 18.882,3.258C19.484,3.752 19.977,4.367 20.326,5.064L30,26.568L26.49,30.08ZM33.932,1.476C33.268,0.904 32.488,0.482 31.647,0.238C30.805,-0.007 29.921,-0.067 29.054,0.06C27.222,0.328 24.854,0.754 22.56,1.32C23.088,1.912 23.54,2.569 23.904,3.274L33.8,24.786C34.078,24.678 36,24 36,24L36,6C36,5.142 35.815,4.293 35.459,3.513C35.102,2.732 34.581,2.037 33.932,1.476L33.932,1.476ZM44.75,7.57C43.24,6.714 41.649,6.009 40,5.466L40,19.99C40.612,19.864 42.112,19.652 42.112,19.652C43.504,19.514 44.815,18.932 45.85,17.992C46.886,17.052 47.592,15.804 47.864,14.432C48.15,13.105 48.002,11.722 47.441,10.486C46.88,9.251 45.937,8.228 44.75,7.57L44.75,7.57ZM6,36L24,36C24,36 24.678,34.078 24.786,33.8L3.278,23.902C2.573,23.538 1.917,23.087 1.324,22.56C0.758,24.852 0.324,27.22 0.064,29.052C-0.063,29.919 -0.003,30.803 0.241,31.645C0.486,32.487 0.908,33.266 1.48,33.93C2.041,34.579 2.735,35.1 3.515,35.457C4.295,35.814 5.142,35.999 6,36L6,36ZM14.432,47.864C15.804,47.592 17.052,46.886 17.992,45.851C18.932,44.815 19.514,43.504 19.652,42.112C19.652,42.112 19.868,40.61 20,40L5.47,40C6.013,41.649 6.718,43.24 7.574,44.75C8.232,45.936 9.255,46.88 10.491,47.44C11.726,48 13.11,48.148 14.436,47.862L14.432,47.864Z" fill="#374957"/>
</svg>
