<svg width="48" height="46" viewBox="0 0 48 46" fill="none" xmlns="http://www.w3.org/2000/svg" xmlns:xlink="http://www.w3.org/1999/xlink">
<path d="M40,16.16C40,16.106 40,16.054 40,16C40,11.756 38.314,7.686 35.313,4.686C32.313,1.685 28.243,0 24,0C19.756,0 15.687,1.685 12.686,4.686C9.685,7.686 8,11.756 8,16C8,16.054 8,16.106 8,16.16C6.182,17.21 4.59,18.608 3.313,20.274C2.036,21.94 1.1,23.842 0.558,25.87C0.016,27.897 -0.122,30.012 0.154,32.093C0.429,34.174 1.111,36.18 2.162,37.998C3.212,39.815 4.61,41.407 6.277,42.684C7.943,43.961 9.844,44.897 11.872,45.439C13.899,45.982 16.014,46.119 18.095,45.844C20.176,45.569 22.182,44.886 24,43.836C25.817,44.886 27.823,45.569 29.904,45.844C31.985,46.119 34.1,45.982 36.128,45.439C38.156,44.897 40.057,43.961 41.723,42.684C43.389,41.407 44.787,39.815 45.838,37.998C46.888,36.18 47.571,34.174 47.846,32.093C48.121,30.012 47.984,27.897 47.441,25.87C46.899,23.842 45.963,21.94 44.686,20.274C43.409,18.608 41.817,17.21 40,16.16L40,16.16ZM24,38.92C21.85,36.996 20.466,34.361 20.104,31.5C22.661,32.168 25.347,32.168 27.904,31.5C27.539,34.362 26.152,36.997 24,38.92L24,38.92ZM24,28C22.739,27.997 21.487,27.794 20.29,27.4C20.837,24.958 22.134,22.748 24,21.08C25.865,22.748 27.162,24.958 27.71,27.4C26.512,27.794 25.26,27.997 24,28L24,28ZM16.662,25.474C14.447,23.762 12.901,21.331 12.29,18.6C14.979,17.717 17.895,17.821 20.514,18.894C18.719,20.745 17.397,23.002 16.662,25.474L16.662,25.474ZM27.486,18.888C30.105,17.815 33.021,17.711 35.71,18.594C35.1,21.327 33.553,23.761 31.338,25.474C30.603,23 29.282,20.741 27.486,18.888L27.486,18.888ZM24,4C26.92,4.004 29.739,5.073 31.929,7.005C34.118,8.938 35.528,11.602 35.896,14.5C31.866,13.458 27.589,14.057 24,16.164C20.411,14.057 16.133,13.458 12.104,14.5C12.471,11.602 13.881,8.938 16.071,7.005C18.26,5.073 21.079,4.004 24,4L24,4ZM4,30C4.001,28.169 4.422,26.363 5.23,24.721C6.038,23.079 7.212,21.643 8.662,20.526C9.83,24.453 12.455,27.785 16,29.84C16,29.894 16,29.946 16,30C16,34.15 17.619,38.137 20.514,41.112C18.693,41.855 16.716,42.138 14.76,41.937C12.803,41.736 10.926,41.056 9.294,39.958C7.662,38.86 6.326,37.377 5.402,35.641C4.479,33.904 3.997,31.967 4,30L4,30ZM32,42C30.452,41.999 28.919,41.697 27.486,41.112C30.38,38.137 31.999,34.15 32,30C32,29.946 32,29.894 32,29.84C35.547,27.786 38.176,24.454 39.346,20.526C41.327,22.055 42.78,24.167 43.501,26.564C44.221,28.962 44.173,31.525 43.362,33.893C42.552,36.262 41.021,38.317 38.983,39.771C36.945,41.225 34.503,42.004 32,42L32,42Z" fill="#374957"/>
</svg>
