<svg width="40" height="48" viewBox="0 0 40 48" fill="none" xmlns="http://www.w3.org/2000/svg" xmlns:xlink="http://www.w3.org/1999/xlink">
<path d="M22.081,20C21.199,7.578 39.399,6.544 39.999,19L39.999,19.046L39.999,19.076C39.999,19.386 39.961,19.692 39.933,20L22.081,20ZM17.931,20C18.757,6.772 -0.761,6.778 0.067,20L17.931,20ZM1.265,24C1.353,24.168 19.999,47.98 19.999,47.98C19.999,47.98 38.647,24.168 38.733,24L1.265,24ZM20.047,12.182C21.05,10.574 22.394,9.206 23.984,8.174C25.573,7.142 27.37,6.472 29.247,6.21C28.482,4.397 27.201,2.849 25.564,1.758C23.926,0.667 22.004,0.082 20.037,0.074C18.07,0.066 16.143,0.636 14.497,1.714C12.851,2.792 11.558,4.329 10.779,6.136C12.673,6.399 14.486,7.078 16.088,8.123C17.69,9.168 19.042,10.554 20.047,12.182L20.047,12.182Z" fill="#374957"/>
</svg>
