<svg width="36" height="48" viewBox="0 0 36 48" fill="none" xmlns="http://www.w3.org/2000/svg" xmlns:xlink="http://www.w3.org/1999/xlink">
<path d="M33.656,6.828L29.172,2.344C27.669,0.848 25.637,0.006 23.516,0L6,0C4.409,0 2.883,0.632 1.757,1.757C0.632,2.883 0,4.409 0,6L0,48L36,48L36,12.484C35.994,10.363 35.152,8.331 33.656,6.828L33.656,6.828ZM30.828,9.656C30.928,9.766 31.022,9.88 31.11,10L26,10L26,4.89C26.12,4.978 26.234,5.072 26.344,5.172L30.828,9.656ZM4,44L4,6C4,5.47 4.211,4.961 4.586,4.586C4.961,4.211 5.47,4 6,4L22,4L22,14L32,14L32,44L4,44ZM22,34L28,34L28,38L22,38L22,34ZM24,30L24,26.586C24.002,24.597 23.579,22.631 22.758,20.82L21.714,18.514C21.421,17.777 20.915,17.144 20.261,16.695C19.607,16.246 18.834,16.002 18.041,15.993C17.248,15.985 16.47,16.212 15.806,16.647C15.143,17.081 14.623,17.704 14.314,18.434L13.236,20.822C12.417,22.633 11.996,24.598 12,26.586L12,30L16,30L16,28L20,28L20,30L24,30ZM18.036,20.082L19.114,22.466C19.324,22.963 19.492,23.476 19.618,24L16.382,24C16.508,23.476 16.676,22.964 16.886,22.468L18.036,20.082ZM17.08,32.082L19.92,34.898L16.188,38.666C15.343,39.509 14.197,39.983 13.003,39.983C11.809,39.983 10.663,39.509 9.818,38.666L8.072,36.884L10.928,34.084L12.66,35.852C12.755,35.94 12.88,35.988 13.01,35.986C13.139,35.983 13.263,35.93 13.354,35.838L17.08,32.082Z" fill="#374957"/>
</svg>
