<svg width="48" height="50" viewBox="0 0 48 50" fill="none" xmlns="http://www.w3.org/2000/svg" xmlns:xlink="http://www.w3.org/1999/xlink">
<path d="M46.998,35.345L31.846,4.86C29.694,0.528 24.438,-1.24 20.105,0.912C18.393,1.762 17.007,3.149 16.156,4.86L1.004,35.345C-1.149,39.678 0.618,44.936 4.951,47.089C6.163,47.691 7.498,48.004 8.851,48.004L39.152,48.004C43.99,48.005 47.913,44.083 47.913,39.244C47.914,37.891 47.6,36.557 46.998,35.345ZM37.175,29.041L10.827,29.041L14.795,21.057L33.211,21.057L37.175,29.041ZM24.001,5.986C25.057,5.975 26.025,6.574 26.484,7.525L30.233,15.068L17.769,15.068L21.518,7.525C21.978,6.575 22.945,5.976 24.001,5.986ZM41.509,40.702C41.009,41.524 40.114,42.023 39.152,42.016L8.851,42.016C7.319,42.016 6.078,40.775 6.078,39.243C6.078,38.815 6.177,38.393 6.368,38.01L7.849,35.029L40.154,35.029L41.635,38.01C42.07,38.867 42.023,39.89 41.509,40.702Z" fill="#374957"/>
</svg>
