<svg width="48" height="50" viewBox="0 0 48 50" fill="none" xmlns="http://www.w3.org/2000/svg" xmlns:xlink="http://www.w3.org/1999/xlink">
<path d="M16.524,36L7,36C5.144,36 3.363,35.262 2.05,33.949C0.738,32.637 0,30.856 0,29L0,18.464C-0.009,15.702 0.597,12.973 1.773,10.474C2.949,7.975 4.666,5.769 6.8,4.016C8.823,2.337 11.199,1.136 13.75,0.503C16.301,-0.13 18.963,-0.18 21.536,0.358C25.088,1.072 28.342,2.841 30.873,5.433C33.405,8.025 35.096,11.32 35.726,14.888C36.194,17.405 36.097,19.995 35.442,22.47C34.787,24.945 33.59,27.244 31.938,29.2C30.02,31.388 27.646,33.13 24.983,34.305C22.321,35.48 19.434,36.058 16.524,36L16.524,36ZM17.958,6C15.27,5.994 12.666,6.933 10.6,8.652C9.162,9.851 8.005,11.352 7.21,13.047C6.416,14.742 6.003,16.591 6,18.464L6,29C6,29.265 6.105,29.519 6.293,29.707C6.481,29.894 6.735,30 7,30L16.524,30C18.559,30.055 20.582,29.666 22.452,28.859C24.321,28.052 25.992,26.847 27.348,25.328C28.431,24.038 29.215,22.524 29.641,20.894C30.067,19.265 30.127,17.561 29.814,15.906C29.374,13.541 28.243,11.361 26.562,9.64C24.881,7.92 22.728,6.737 20.374,6.242C19.579,6.083 18.769,6.002 17.958,6L17.958,6ZM41.958,19.564C41.327,19.057 40.658,18.597 39.958,18.19C39.95,20.458 39.577,22.71 38.852,24.86C40.856,26.859 41.988,29.569 42,32.4L42,41C42,41.265 41.895,41.519 41.707,41.707C41.52,41.894 41.265,42 41,42L33.28,42C31.707,42.035 30.142,41.758 28.676,41.184C27.211,40.61 25.874,39.752 24.742,38.658C22.621,39.363 20.416,39.786 18.184,39.916C18.605,40.634 19.084,41.317 19.616,41.958C21.316,43.9 23.419,45.447 25.78,46.491C28.14,47.534 30.7,48.049 33.28,48L41,48C42.857,48 44.637,47.262 45.95,45.949C47.263,44.637 48,42.856 48,41L48,32.4C48.009,29.947 47.472,27.523 46.429,25.304C45.385,23.085 43.861,21.125 41.966,19.568L41.958,19.564Z" fill="#374957"/>
</svg>
