<svg width="48" height="48" viewBox="0 0 48 48" fill="none" xmlns="http://www.w3.org/2000/svg" xmlns:xlink="http://www.w3.org/1999/xlink">
<path d="M24.837,30C27.804,30 30.704,29.12 33.17,27.472C35.637,25.824 37.56,23.481 38.695,20.74C39.83,18 40.127,14.984 39.549,12.074C38.97,9.164 37.541,6.491 35.443,4.394C33.346,2.296 30.673,0.867 27.763,0.288C24.853,-0.29 21.837,0.007 19.096,1.142C16.356,2.277 14.013,4.2 12.365,6.667C10.716,9.133 9.837,12.034 9.837,15C9.841,18.977 11.423,22.79 14.235,25.602C17.047,28.414 20.86,29.996 24.837,30L24.837,30ZM24.837,6C26.617,6 28.357,6.528 29.837,7.517C31.317,8.506 32.471,9.912 33.152,11.556C33.833,13.201 34.011,15.01 33.664,16.756C33.317,18.502 32.459,20.106 31.201,21.364C29.942,22.623 28.338,23.48 26.593,23.827C24.847,24.175 23.037,23.996 21.393,23.315C19.748,22.634 18.342,21.48 17.354,20C16.365,18.52 15.837,16.78 15.837,15C15.837,12.613 16.785,10.324 18.473,8.636C20.161,6.948 22.45,6 24.837,6L24.837,6ZM45.475,29.112C43.367,32.183 40.6,34.743 37.375,36.606C34.15,38.469 30.55,39.587 26.837,39.878L26.837,42L33.001,42C33.796,42 34.56,42.316 35.122,42.879C35.685,43.442 36.001,44.205 36.001,45C36.001,45.796 35.685,46.559 35.122,47.122C34.56,47.684 33.796,48 33.001,48L15.001,48C14.205,48 13.442,47.684 12.879,47.122C12.317,46.559 12.001,45.796 12.001,45C12.001,44.205 12.317,43.442 12.879,42.879C13.442,42.316 14.205,42 15.001,42L20.837,42L20.837,39.65C16.73,38.988 12.854,37.31 9.561,34.77C6.267,32.23 3.66,28.907 1.976,25.104C0.292,21.301 -0.416,17.137 -0.083,12.991C0.25,8.845 1.613,4.848 3.883,1.362C4.095,1.026 4.372,0.736 4.698,0.508C5.023,0.28 5.391,0.119 5.779,0.034C6.168,-0.051 6.569,-0.058 6.96,0.014C7.351,0.086 7.724,0.235 8.057,0.452C8.39,0.669 8.677,0.95 8.9,1.279C9.123,1.607 9.279,1.977 9.359,2.367C9.438,2.756 9.439,3.158 9.362,3.548C9.284,3.938 9.13,4.308 8.909,4.638C6.113,8.831 5.098,13.963 6.085,18.904C7.073,23.846 9.984,28.193 14.177,30.988C18.37,33.784 23.501,34.799 28.443,33.811C33.384,32.824 37.731,29.913 40.527,25.72C40.75,25.395 41.035,25.118 41.366,24.903C41.696,24.688 42.066,24.541 42.453,24.469C42.841,24.397 43.239,24.402 43.625,24.484C44.01,24.566 44.376,24.723 44.701,24.946C45.026,25.169 45.303,25.455 45.518,25.785C45.733,26.116 45.88,26.485 45.952,26.873C46.024,27.261 46.019,27.658 45.937,28.044C45.855,28.43 45.698,28.795 45.475,29.12L45.475,29.112Z" fill="#374957"/>
</svg>
