<svg width="48" height="48" viewBox="0 0 48 48" fill="none" xmlns="http://www.w3.org/2000/svg" xmlns:xlink="http://www.w3.org/1999/xlink">
<path d="M24,0C19.253,0 14.613,1.408 10.666,4.045C6.72,6.682 3.643,10.43 1.827,14.816C0.01,19.201 -0.465,24.027 0.461,28.682C1.387,33.338 3.673,37.614 7.029,40.971C10.386,44.327 14.662,46.613 19.318,47.539C23.973,48.465 28.799,47.99 33.184,46.173C37.57,44.357 41.318,41.28 43.955,37.334C46.592,33.387 48,28.747 48,24C47.993,17.637 45.462,11.536 40.963,7.037C36.464,2.538 30.363,0.007 24,0L24,0ZM41.234,18.83L35.492,20.552C34.92,18.651 33.886,16.921 32.482,15.518C31.079,14.114 29.349,13.08 27.448,12.508L29.17,6.766C32.02,7.627 34.612,9.178 36.717,11.283C38.822,13.388 40.374,15.98 41.234,18.83L41.234,18.83ZM25.476,31.262C25.304,31.491 25.081,31.677 24.825,31.806C24.569,31.934 24.287,32.001 24,32.001C23.714,32.001 23.431,31.934 23.175,31.806C22.919,31.677 22.696,31.491 22.524,31.262L18.738,26.216C18.259,25.577 18,24.799 18,24C18,23.201 18.259,22.423 18.738,21.784L22.524,16.738C22.696,16.509 22.919,16.323 23.175,16.194C23.431,16.066 23.714,15.999 24,15.999C24.287,15.999 24.569,16.066 24.825,16.194C25.081,16.323 25.304,16.509 25.476,16.738L29.262,21.784C29.741,22.423 30,23.201 30,24C30,24.799 29.741,25.577 29.262,26.216L25.476,31.262ZM18.83,6.766L20.552,12.508C18.651,13.08 16.921,14.114 15.518,15.518C14.114,16.921 13.08,18.651 12.508,20.552L6.766,18.83C7.627,15.981 9.179,13.389 11.284,11.284C13.389,9.179 15.981,7.627 18.83,6.766L18.83,6.766ZM6.766,29.166L12.508,27.444C13.08,29.345 14.114,31.074 15.518,32.478C16.922,33.882 18.651,34.916 20.552,35.488L18.83,41.23C15.981,40.369 13.389,38.818 11.285,36.714C9.18,34.61 7.628,32.018 6.766,29.17L6.766,29.166ZM29.166,41.23L27.444,35.488C29.345,34.916 31.074,33.882 32.478,32.478C33.882,31.074 34.916,29.345 35.488,27.444L41.23,29.166C40.37,32.016 38.82,34.609 36.715,36.714C34.611,38.82 32.019,40.373 29.17,41.234L29.166,41.23Z" fill="#374957"/>
</svg>
