<svg width="50" height="48" viewBox="0 0 50 48" fill="none" xmlns="http://www.w3.org/2000/svg" xmlns:xlink="http://www.w3.org/1999/xlink">
<path d="M45.022,32.927C44.628,32.927 44.238,32.849 43.874,32.699C43.51,32.548 43.179,32.327 42.9,32.049C40.273,29.426 36.712,27.953 33,27.953C29.288,27.953 25.728,29.426 23.1,32.049C22.537,32.611 21.773,32.927 20.976,32.926C20.18,32.925 19.417,32.608 18.854,32.045C18.292,31.481 17.976,30.717 17.977,29.921C17.978,29.124 18.295,28.361 18.858,27.799C22.611,24.052 27.697,21.948 33,21.948C38.303,21.948 43.389,24.052 47.142,27.799C47.561,28.218 47.846,28.752 47.962,29.334C48.078,29.916 48.018,30.518 47.791,31.066C47.564,31.614 47.18,32.082 46.687,32.412C46.195,32.742 45.615,32.918 45.022,32.919L45.022,32.927ZM40.07,39.127C40.349,38.848 40.57,38.517 40.721,38.153C40.872,37.789 40.95,37.399 40.95,37.005C40.95,36.61 40.872,36.22 40.721,35.856C40.57,35.492 40.349,35.161 40.07,34.883C38.195,33.008 35.652,31.955 33,31.955C30.349,31.955 27.805,33.008 25.93,34.883C25.651,35.161 25.43,35.492 25.28,35.856C25.129,36.22 25.051,36.61 25.051,37.004C25.051,37.398 25.128,37.788 25.279,38.152C25.43,38.516 25.651,38.847 25.929,39.126C26.492,39.688 27.255,40.005 28.05,40.005C28.444,40.005 28.835,39.927 29.199,39.777C29.563,39.626 29.893,39.405 30.172,39.127C30.934,38.4 31.947,37.994 33,37.994C34.053,37.994 35.066,38.4 35.828,39.127C36.391,39.689 37.154,40.005 37.949,40.005C38.745,40.005 39.508,39.689 40.07,39.127L40.07,39.127ZM33,41.999C32.407,41.999 31.827,42.174 31.333,42.504C30.84,42.834 30.456,43.302 30.229,43.85C30.001,44.399 29.942,45.002 30.058,45.584C30.174,46.166 30.459,46.7 30.879,47.12C31.298,47.539 31.833,47.825 32.415,47.941C32.997,48.057 33.6,47.997 34.148,47.77C34.696,47.543 35.165,47.159 35.495,46.665C35.824,46.172 36,45.592 36,44.999C36,44.203 35.684,43.44 35.121,42.877C34.559,42.315 33.796,41.999 33,41.999ZM21,40.999C21,40.203 20.684,39.44 20.121,38.877C19.559,38.315 18.796,37.999 18,37.999L11.936,37.999C10.665,38.036 9.416,37.659 8.378,36.924C7.341,36.188 6.571,35.135 6.186,33.923C5.874,32.699 5.99,31.405 6.515,30.256C7.041,29.108 7.944,28.174 9.074,27.611C10.231,26.987 11.093,25.93 11.472,24.672C11.851,23.415 11.717,22.058 11.098,20.899C10.067,18.862 9.746,16.539 10.186,14.299C10.562,12.225 11.577,10.322 13.089,8.854C14.6,7.386 16.533,6.428 18.616,6.113C19.985,5.906 21.382,5.974 22.724,6.313C24.067,6.652 25.328,7.256 26.434,8.089C27.522,8.906 28.436,9.932 29.123,11.106C29.809,12.28 30.255,13.58 30.434,14.929C30.522,15.581 30.822,16.187 31.288,16.652C31.754,17.117 32.36,17.416 33.012,17.503C34.587,17.708 36.093,18.275 37.412,19.159C38.075,19.6 38.886,19.76 39.667,19.603C40.448,19.446 41.135,18.986 41.576,18.323C42.017,17.659 42.177,16.848 42.021,16.067C41.864,15.286 41.403,14.6 40.74,14.159C39.27,13.188 37.655,12.458 35.954,11.999C35.006,8.528 32.929,5.472 30.052,3.313C28.316,1.998 26.335,1.043 24.225,0.504C22.115,-0.035 19.918,-0.148 17.764,0.173C14.444,0.665 11.36,2.183 8.945,4.513C6.529,6.844 4.903,9.872 4.292,13.173C3.658,16.424 4.035,19.792 5.374,22.823C3.317,24.125 1.725,26.046 0.827,28.31C-0.072,30.574 -0.23,33.063 0.374,35.423C1.081,37.93 2.599,40.132 4.692,41.684C6.784,43.236 9.332,44.05 11.936,43.999L18,43.999C18.796,43.999 19.559,43.682 20.121,43.12C20.684,42.557 21,41.794 21,40.999Z" fill="#374957"/>
</svg>
