<svg width="44" height="24" viewBox="0 0 44 24" fill="none" xmlns="http://www.w3.org/2000/svg" xmlns:xlink="http://www.w3.org/1999/xlink">
<path d="M40,0C40.006,3.971 38.828,7.853 36.617,11.151C34.405,14.449 31.261,17.013 27.586,18.516C23.911,20.018 19.871,20.391 15.982,19.587C12.094,18.783 8.534,16.837 5.756,14L14,14L14,10L3.714,10C2.729,10.001 1.785,10.393 1.089,11.089C0.393,11.785 0.001,12.729 0,13.714L0,24L4,24L4,17.844C7.445,20.946 11.716,22.983 16.295,23.706C20.874,24.43 25.565,23.81 29.799,21.921C34.033,20.033 37.628,16.956 40.149,13.065C42.669,9.175 44.007,4.636 44,0L40,0Z" fill="#374957"/>
</svg>
