<svg width="48" height="46" viewBox="0 0 48 46" fill="none" xmlns="http://www.w3.org/2000/svg" xmlns:xlink="http://www.w3.org/1999/xlink">
<path d="M37.93,12.928L47.988,2.87L45.13,0.012L35.038,10.102L30.626,5.79C29.902,5.087 28.94,4.681 27.931,4.654C26.921,4.627 25.939,4.98 25.178,5.644C21.466,9.006 17.147,11.629 12.452,13.374L-0.012,17.028L-0.012,18.54C0.071,25.366 2.856,31.881 7.735,36.656C12.613,41.431 19.186,44.076 26.012,44.012L28.494,44.012L29.016,43.648C33.094,41.034 36.477,37.47 38.876,33.262C41.274,29.054 42.617,24.327 42.788,19.486C42.803,18.929 42.703,18.374 42.492,17.858C42.282,17.341 41.967,16.874 41.566,16.486L37.93,12.928ZM27.8,8.68L38.754,19.362C38.694,21.402 38.388,23.426 37.842,25.392L23.882,11.8C25.24,10.827 26.548,9.786 27.8,8.68L27.8,8.68ZM27.212,39.97L26.012,39.97C23.065,39.97 20.147,39.386 17.426,38.252C20.922,36.496 23.914,33.881 26.122,30.652L27.158,29.132L23.82,26.86L22.784,28.382C20.958,31.045 18.487,33.201 15.6,34.648L13.142,35.884C11.144,34.477 9.396,32.745 7.972,30.758C11.235,29.654 14.211,27.839 16.686,25.444L13.864,22.554C11.629,24.719 8.902,26.31 5.916,27.188C4.881,24.934 4.257,22.512 4.074,20.038L13.584,17.25C15.989,16.478 18.289,15.41 20.43,14.07L36.252,29.47C34.16,33.667 31.054,37.276 27.216,39.97L27.212,39.97Z" fill="#374957"/>
</svg>
