<svg width="48" height="48" viewBox="0 0 48 48" fill="none" xmlns="http://www.w3.org/2000/svg" xmlns:xlink="http://www.w3.org/1999/xlink">
<path d="M24,0C10.745,0 0,10.745 0,24C0,37.255 10.745,48 24,48C37.255,48 48,37.255 48,24C47.986,10.751 37.249,0.014 24,0ZM24,6C27.735,6 31.377,7.17 34.414,9.344L9.344,34.412C3.578,26.333 5.453,15.109 13.533,9.343C16.587,7.163 20.247,5.994 24,6ZM24,42C20.265,42 16.624,40.83 13.588,38.656L38.656,13.586C44.423,21.664 42.549,32.888 34.471,38.655C31.415,40.836 27.754,42.006 24,42Z" fill="#374957"/>
</svg>
