<svg width="48" height="48" viewBox="0 0 48 48" fill="none" xmlns="http://www.w3.org/2000/svg" xmlns:xlink="http://www.w3.org/1999/xlink">
<path d="M39,0C36.614,0.003 34.326,0.952 32.639,2.639C30.952,4.326 30.003,6.614 30,9C30,9.796 30.316,10.559 30.879,11.121C31.441,11.684 32.204,12 33,12C33.796,12 34.559,11.684 35.121,11.121C35.684,10.559 36,9.796 36,9C36,8.204 36.316,7.441 36.879,6.879C37.441,6.316 38.204,6 39,6C39.796,6 40.559,6.316 41.121,6.879C41.684,7.441 42,8.204 42,9L42,27.214C39.72,26.04 37.101,25.704 34.598,26.265C32.096,26.825 29.871,28.247 28.31,30.282C27.028,29.445 25.531,29 24,29C22.469,29 20.972,29.445 19.69,30.282C18.129,28.247 15.904,26.825 13.402,26.265C10.899,25.704 8.28,26.04 6,27.214L6,9C6,8.204 6.316,7.441 6.879,6.879C7.441,6.316 8.204,6 9,6C9.796,6 10.559,6.316 11.121,6.879C11.684,7.441 12,8.204 12,9C12,9.796 12.316,10.559 12.879,11.121C13.441,11.684 14.204,12 15,12C15.796,12 16.559,11.684 17.121,11.121C17.684,10.559 18,9.796 18,9C18,6.613 17.052,4.324 15.364,2.636C13.676,0.948 11.387,0 9,0C6.613,0 4.324,0.948 2.636,2.636C0.948,4.324 0,6.613 0,9L0,37C0,39.917 1.159,42.715 3.222,44.778C5.285,46.841 8.083,48 11,48C13.917,48 16.715,46.841 18.778,44.778C20.841,42.715 22,39.917 22,37C22,36.47 22.211,35.961 22.586,35.586C22.961,35.211 23.47,35 24,35C24.53,35 25.039,35.211 25.414,35.586C25.789,35.961 26,36.47 26,37C26,39.917 27.159,42.715 29.222,44.778C31.285,46.841 34.083,48 37,48C39.917,48 42.715,46.841 44.778,44.778C46.841,42.715 48,39.917 48,37L48,9C47.997,6.614 47.048,4.326 45.361,2.639C43.674,0.952 41.386,0.003 39,0L39,0ZM11,42C10.011,42 9.044,41.707 8.222,41.157C7.4,40.608 6.759,39.827 6.381,38.913C6.002,38 5.903,36.994 6.096,36.025C6.289,35.055 6.765,34.164 7.464,33.464C8.164,32.765 9.055,32.289 10.025,32.096C10.994,31.903 12,32.002 12.913,32.381C13.827,32.759 14.608,33.4 15.157,34.222C15.707,35.044 16,36.011 16,37C16,38.326 15.473,39.598 14.536,40.536C13.598,41.473 12.326,42 11,42ZM37,42C36.011,42 35.044,41.707 34.222,41.157C33.4,40.608 32.759,39.827 32.381,38.913C32.002,38 31.903,36.994 32.096,36.025C32.289,35.055 32.765,34.164 33.464,33.464C34.164,32.765 35.055,32.289 36.025,32.096C36.994,31.903 38,32.002 38.913,32.381C39.827,32.759 40.608,33.4 41.157,34.222C41.707,35.044 42,36.011 42,37C42,38.326 41.473,39.598 40.536,40.536C39.598,41.473 38.326,42 37,42Z" fill="#374957"/>
</svg>
