<svg width="48" height="48" viewBox="0 0 48 48" fill="none" xmlns="http://www.w3.org/2000/svg" xmlns:xlink="http://www.w3.org/1999/xlink">
<path d="M23.999,0C20.208,0 16.471,0.899 13.094,2.622C9.717,4.345 6.796,6.844 4.571,9.913C2.346,12.983 0.879,16.536 0.292,20.281C-0.296,24.027 0.013,27.858 1.191,31.462C2.37,35.065 4.386,38.338 7.073,41.012C9.76,43.686 13.043,45.686 16.652,46.847C20.261,48.008 24.094,48.297 27.837,47.692C31.579,47.086 35.125,45.602 38.183,43.362L35.815,40.138C32.188,42.794 27.772,44.15 23.28,43.989C18.787,43.827 14.48,42.156 11.053,39.246C7.627,36.336 5.28,32.357 4.393,27.95C3.506,23.543 4.129,18.965 6.162,14.956C8.195,10.946 11.52,7.739 15.6,5.851C19.68,3.963 24.277,3.505 28.649,4.55C33.021,5.595 36.914,8.082 39.699,11.611C42.484,15.14 43.999,19.505 43.999,24L43.999,28C43.999,29.061 43.578,30.078 42.828,30.828C42.078,31.579 41.06,32 39.999,32C38.939,32 37.921,31.579 37.171,30.828C36.421,30.078 35.999,29.061 35.999,28L35.999,24C36.009,21.177 35.026,18.44 33.223,16.267C31.42,14.095 28.91,12.625 26.133,12.115C23.356,11.605 20.488,12.086 18.031,13.476C15.573,14.866 13.681,17.075 12.687,19.717C11.693,22.36 11.658,25.268 12.59,27.933C13.522,30.598 15.361,32.851 17.785,34.299C20.21,35.746 23.066,36.295 25.854,35.85C28.642,35.406 31.185,33.995 33.039,31.866C33.892,33.419 35.238,34.644 36.865,35.347C38.492,36.05 40.306,36.191 42.022,35.748C43.738,35.304 45.257,34.302 46.339,32.899C47.422,31.496 48.006,29.772 47.999,28L47.999,24C47.993,17.637 45.462,11.536 40.962,7.037C36.463,2.538 30.363,0.007 23.999,0L23.999,0ZM23.999,32C22.417,32 20.87,31.531 19.555,30.652C18.239,29.773 17.214,28.523 16.608,27.061C16.003,25.6 15.844,23.991 16.153,22.439C16.462,20.887 17.224,19.462 18.343,18.343C19.461,17.224 20.887,16.462 22.439,16.154C23.991,15.845 25.599,16.003 27.061,16.609C28.523,17.214 29.772,18.24 30.651,19.555C31.53,20.871 31.999,22.418 31.999,24C31.999,26.122 31.157,28.157 29.656,29.657C28.156,31.157 26.121,32 23.999,32Z" fill="#374957"/>
</svg>
