<svg width="48" height="48" viewBox="0 0 48 48" fill="none" xmlns="http://www.w3.org/2000/svg" xmlns:xlink="http://www.w3.org/1999/xlink">
<path d="M42,0L6,0C4.409,0 2.883,0.632 1.757,1.757C0.632,2.883 0,4.409 0,6L0,48L48,48L48,6C48,4.409 47.368,2.883 46.243,1.757C45.117,0.632 43.591,0 42,0L42,0ZM21.496,34.666C21.125,35.038 20.684,35.332 20.198,35.534C19.713,35.735 19.192,35.838 18.667,35.838C18.142,35.838 17.621,35.735 17.136,35.534C16.65,35.332 16.209,35.038 15.838,34.666L6.586,25.414L9.414,22.586L18.666,31.838L38.586,11.92L41.414,14.748L21.496,34.666Z" fill="#374957"/>
</svg>
