<svg width="48" height="42" viewBox="0 0 48 42" fill="none" xmlns="http://www.w3.org/2000/svg" xmlns:xlink="http://www.w3.org/1999/xlink">
<path d="M20,0.001L0,0.001L0,4.001L6,4.001L6,10.001L0,10.001L0,14.001L39.464,14.001C42.014,17.521 43.554,21.67 43.918,26.001L0,26.001L0,30.001L48,30.001L48,28.001C47.992,20.578 45.04,13.46 39.79,8.211C34.541,2.962 27.424,0.009 20,0.001L20,0.001ZM35.828,10.001L20,10.001L20,4.001C25.832,4.001 31.462,6.136 35.828,10.001L35.828,10.001ZM10,4.001L16,4.001L16,10.001L10,10.001L10,4.001ZM0,36.001L48,36.001L48,40.001L0,40.001L0,36.001Z" fill="#374957"/>
</svg>
