<svg width="48" height="48" viewBox="0 0 48 48" fill="none" xmlns="http://www.w3.org/2000/svg" xmlns:xlink="http://www.w3.org/1999/xlink">
<path d="M45,34L40,34L40,17C40,15.818 39.767,14.648 39.315,13.556C38.863,12.464 38.2,11.472 37.364,10.636C36.528,9.8 35.536,9.137 34.444,8.685C33.352,8.233 32.182,8 31,8L14,8L14,3C14,2.204 13.684,1.441 13.121,0.879C12.559,0.316 11.796,0 11,0L11,0C10.204,0 9.441,0.316 8.879,0.879C8.316,1.441 8,2.204 8,3L8,8L3,8C2.204,8 1.441,8.316 0.879,8.879C0.316,9.441 0,10.204 0,11L0,11C0,11.796 0.316,12.559 0.879,13.121C1.441,13.684 2.204,14 3,14L8,14L8,31C8,32.182 8.233,33.352 8.685,34.444C9.137,35.536 9.8,36.528 10.636,37.364C12.324,39.052 14.613,40 17,40L34,40L34,45C34,45.796 34.316,46.559 34.879,47.121C35.441,47.684 36.204,48 37,48C37.796,48 38.559,47.684 39.121,47.121C39.684,46.559 40,45.796 40,45L40,40L45,40C45.796,40 46.559,39.684 47.121,39.121C47.684,38.559 48,37.796 48,37C48,36.204 47.684,35.441 47.121,34.879C46.559,34.316 45.796,34 45,34ZM17,34C16.204,34 15.441,33.684 14.879,33.121C14.316,32.559 14,31.796 14,31L14,14L31,14C31.796,14 32.559,14.316 33.121,14.879C33.684,15.441 34,16.204 34,17L34,34L17,34Z" fill="#374957"/>
</svg>
