<svg width="48" height="48" viewBox="0 0 48 48" fill="none" xmlns="http://www.w3.org/2000/svg" xmlns:xlink="http://www.w3.org/1999/xlink">
<path d="M48,44L44,44L44,24C44,22.409 43.368,20.883 42.243,19.757C41.117,18.632 39.591,18 38,18L26,18L26,11.588C26.912,11.197 27.69,10.547 28.236,9.718C28.783,8.889 29.074,7.919 29.074,6.926C29.074,4.124 24,0 24,0C24,0 18.926,4.124 18.926,6.926C18.926,7.919 19.217,8.889 19.764,9.718C20.31,10.547 21.088,11.197 22,11.588L22,18L10,18C8.409,18 6.883,18.632 5.757,19.757C4.632,20.883 4,22.409 4,24L4,44L0,44L0,48L48,48L48,44ZM10,22L38,22C38.53,22 39.039,22.211 39.414,22.586C39.789,22.961 40,23.47 40,24L40,29.96C38.128,29.76 37,28.56 37,28L33,28C33,28.686 31.636,30 29.5,30C27.322,30 26,28.612 26,28L22,28C22,28.686 20.636,30 18.5,30C16.322,30 15,28.612 15,28L11,28C11,28.63 9.842,29.776 8,29.962L8,24C8,23.47 8.211,22.961 8.586,22.586C8.961,22.211 9.47,22 10,22ZM8,33.958C9.837,33.876 11.596,33.188 13,32C14.543,33.286 16.486,33.993 18.495,33.998C20.503,34.004 22.45,33.308 24,32.03C25.55,33.308 27.497,34.004 29.505,33.998C31.514,33.993 33.457,33.286 35,32C36.404,33.187 38.163,33.875 40,33.956L40,44L8,44L8,33.958Z" fill="#374957"/>
</svg>
