<svg width="46" height="24" viewBox="0 0 46 24" fill="none" xmlns="http://www.w3.org/2000/svg" xmlns:xlink="http://www.w3.org/1999/xlink">
<path d="M42.787,-0.001C41.283,0.015 40.02,1.137 39.826,2.629C38.378,12.471 29.225,19.276 19.383,17.828C16.025,17.333 12.875,15.901 10.296,13.694L12.618,11.372C13.396,10.594 13.396,9.332 12.617,8.554C12.244,8.18 11.737,7.971 11.209,7.97L2.069,7.97C0.968,7.97 0.076,8.863 0.076,9.963L0.076,19.103C0.076,20.204 0.969,21.096 2.07,21.096C2.598,21.096 3.105,20.886 3.478,20.512L6.069,17.921C15.947,26.73 31.095,25.863 39.903,15.985C43.025,12.484 45.051,8.144 45.729,3.502C45.998,1.858 44.882,0.307 43.238,0.038C43.089,0.013 42.938,0 42.787,-0.001Z" fill="#374957"/>
</svg>
