<svg width="48" height="48" viewBox="0 0 48 48" fill="none" xmlns="http://www.w3.org/2000/svg" xmlns:xlink="http://www.w3.org/1999/xlink">
<path d="M46.243,14.244L41.415,9.414L45.415,5.414L42.587,2.586L38.587,6.586L33.759,1.758C33.202,1.201 32.54,0.759 31.812,0.457C31.084,0.156 30.304,0 29.516,0C28.728,0 27.947,0.156 27.219,0.457C26.491,0.759 25.83,1.201 25.273,1.758L19.617,7.414L28.687,16.486L16.487,28.686L7.415,19.616L1.759,25.272C0.634,26.397 0.002,27.923 0.002,29.514C0.002,31.105 0.634,32.631 1.759,33.756L6.587,38.586L2.587,42.586L5.415,45.414L9.415,41.414L14.243,46.242C14.8,46.799 15.461,47.241 16.189,47.543C16.917,47.845 17.698,48 18.486,48C19.274,48 20.054,47.845 20.782,47.543C21.51,47.241 22.172,46.799 22.729,46.242L28.385,40.586L19.315,31.514L31.515,19.314L40.585,28.384L46.241,22.728C47.366,21.603 47.997,20.077 47.997,18.486C47.997,16.895 47.366,15.369 46.241,14.244L46.243,14.244ZM19.901,43.414C19.715,43.6 19.494,43.748 19.252,43.848C19.009,43.949 18.748,44.001 18.486,44.001C18.223,44.001 17.963,43.949 17.72,43.848C17.477,43.748 17.256,43.6 17.071,43.414L4.587,30.928C4.212,30.553 4.001,30.044 4.001,29.514C4.001,28.984 4.212,28.475 4.587,28.1L7.415,25.272L22.729,40.586L19.901,43.414ZM43.415,19.898L40.587,22.728L25.273,7.414L28.101,4.586C28.286,4.4 28.507,4.253 28.75,4.152C28.993,4.051 29.253,4 29.516,4C29.779,4 30.039,4.051 30.282,4.152C30.524,4.253 30.745,4.4 30.931,4.586L43.415,17.072C43.789,17.447 43.999,17.955 43.999,18.485C43.999,19.015 43.789,19.523 43.415,19.898L43.415,19.898Z" fill="#374957"/>
</svg>
