<svg width="48" height="48" viewBox="0 0 48 48" fill="none" xmlns="http://www.w3.org/2000/svg" xmlns:xlink="http://www.w3.org/1999/xlink">
<path d="M43.134,8.8C42.706,6.333 41.42,4.098 39.503,2.487C37.587,0.877 35.163,-0.004 32.66,0L15.314,0C12.81,-0.004 10.386,0.877 8.469,2.487C6.552,4.097 5.266,6.333 4.838,8.8L0.162,35.53C-0.106,37.058 -0.036,38.627 0.366,40.126C0.769,41.625 1.495,43.017 2.494,44.206C3.492,45.394 4.739,46.35 6.145,47.005C7.552,47.66 9.086,48 10.638,48L37.362,48C38.914,47.999 40.448,47.659 41.855,47.003C43.263,46.347 44.509,45.391 45.507,44.202C46.506,43.013 47.232,41.619 47.634,40.12C48.037,38.62 48.106,37.051 47.838,35.522L43.134,8.8ZM40.912,40.344C40.477,40.863 39.934,41.28 39.321,41.566C38.707,41.852 38.039,42 37.362,42L10.638,42C9.961,42 9.293,41.852 8.679,41.566C8.066,41.281 7.523,40.864 7.087,40.346C6.652,39.828 6.336,39.221 6.16,38.567C5.985,37.914 5.955,37.23 6.072,36.564L10.748,9.836C10.934,8.76 11.495,7.786 12.33,7.084C13.166,6.382 14.222,5.998 15.314,6L32.66,6C33.75,5.998 34.807,6.381 35.642,7.083C36.477,7.785 37.037,8.759 37.224,9.834L41.928,36.56C42.046,37.226 42.016,37.911 41.84,38.565C41.665,39.218 41.348,39.826 40.912,40.344L40.912,40.344ZM27,11L27,13C27,13.795 26.684,14.558 26.121,15.121C25.558,15.683 24.795,16 24,16C23.204,16 22.441,15.683 21.878,15.121C21.316,14.558 21,13.795 21,13L21,11C21,10.204 21.316,9.441 21.878,8.878C22.441,8.316 23.204,8 24,8C24.795,8 25.558,8.316 26.121,8.878C26.684,9.441 27,10.204 27,11L27,11ZM27,23L27,25C27,25.795 26.684,26.558 26.121,27.121C25.558,27.684 24.795,28 24,28C23.204,28 22.441,27.684 21.878,27.121C21.316,26.558 21,25.795 21,25L21,23C21,22.204 21.316,21.441 21.878,20.878C22.441,20.316 23.204,20 24,20C24.795,20 25.558,20.316 26.121,20.878C26.684,21.441 27,22.204 27,23ZM27,35L27,37C27,37.795 26.684,38.558 26.121,39.121C25.558,39.684 24.795,40 24,40C23.204,40 22.441,39.684 21.878,39.121C21.316,38.558 21,37.795 21,37L21,35C21,34.204 21.316,33.441 21.878,32.878C22.441,32.316 23.204,32 24,32C24.795,32 25.558,32.316 26.121,32.878C26.684,33.441 27,34.204 27,35Z" fill="#374957"/>
</svg>
