<svg width="50" height="48" viewBox="0 0 50 48" fill="none" xmlns="http://www.w3.org/2000/svg" xmlns:xlink="http://www.w3.org/1999/xlink">
<path d="M44.824,15.401C43.985,15.1 43.083,15.017 42.203,15.159C41.323,15.302 40.493,15.665 39.792,16.215L37.622,17.831C37.099,15.928 36.058,14.207 34.615,12.86C33.173,11.513 31.385,10.593 29.45,10.201L20.292,1.051C18.98,-0.261 17.2,-0.998 15.344,-0.999L3,-0.999C2.204,-0.999 1.441,-0.683 0.879,-0.12C0.316,0.443 0,1.206 0,2.001L0,2.001C0,2.797 0.316,3.56 0.879,4.123C1.441,4.685 2.204,5.001 3,5.001L15.344,5.001C15.475,5.001 15.606,5.027 15.727,5.077C15.849,5.127 15.959,5.2 16.052,5.293L20.76,10.001L10.636,10.001C7.815,10.001 5.11,11.122 3.115,13.116C1.121,15.111 0,17.816 0,20.637L0,35.365C0,36.762 0.275,38.145 0.81,39.435C1.344,40.726 2.128,41.898 3.115,42.886C5.11,44.881 7.815,46.001 10.636,46.001L27.364,46.001C29.694,45.998 31.96,45.231 33.812,43.818C35.665,42.404 37.003,40.422 37.622,38.175L40.022,39.957C40.883,40.603 41.93,40.954 43.006,40.957C44.059,40.952 45.084,40.617 45.938,40.001C46.597,39.499 47.128,38.848 47.487,38.101C47.845,37.353 48.021,36.532 48,35.703L48,20.055C48.002,19.05 47.7,18.067 47.133,17.236C46.566,16.405 45.761,15.766 44.824,15.401L44.824,15.401ZM32,35.365C31.998,36.594 31.509,37.773 30.64,38.642C29.771,39.511 28.593,40 27.364,40.001L10.636,40.001C9.407,40 8.229,39.511 7.36,38.642C6.491,37.773 6.002,36.594 6,35.365L6,20.637C6.002,19.408 6.491,18.23 7.36,17.361C8.229,16.492 9.407,16.003 10.636,16.001L27.364,16.001C28.593,16.003 29.771,16.492 30.64,17.361C31.509,18.23 31.998,19.408 32,20.637L32,35.365Z" fill="#374957"/>
</svg>
