<svg width="48" height="44" viewBox="0 0 48 44" fill="none" xmlns="http://www.w3.org/2000/svg" xmlns:xlink="http://www.w3.org/1999/xlink">
<path d="M37,4L24.984,4C24.822,3.999 24.663,3.96 24.52,3.886L18.63,0.8C17.627,0.275 16.512,0 15.38,0L11,0C4.928,0.007 0.007,4.928 0,11L0,33C0.007,39.072 4.928,43.993 11,44L37,44C43.072,43.993 47.993,39.072 48,33L48,15C47.993,8.928 43.072,4.007 37,4ZM42,33C42,35.761 39.761,38 37,38L11,38C8.239,38 6,35.761 6,33L6,13.934L41.88,13.934C41.959,14.284 41.999,14.641 42,15L42,33Z" fill="#374957"/>
</svg>
