<svg width="48" height="48" viewBox="0 0 48 48" fill="none" xmlns="http://www.w3.org/2000/svg" xmlns:xlink="http://www.w3.org/1999/xlink">
<path d="M4.188,24.012L44,24.012C45.061,24.012 46.078,24.433 46.829,25.184C47.579,25.934 48,26.951 48,28.012C48,29.073 47.579,30.09 46.829,30.84C46.078,31.591 45.061,32.012 44,32.012L32,32.012C27.182,32.013 22.526,33.753 18.888,36.912C18.089,37.613 17.063,38 16,38C14.937,38 13.911,37.613 13.112,36.912C10.351,34.514 6.985,32.919 3.38,32.3C2.425,32.123 1.562,31.615 0.944,30.865C0.326,30.115 -0.008,29.172 0,28.2C0,27.089 0.441,26.024 1.227,25.239C2.012,24.453 3.077,24.012 4.188,24.012L4.188,24.012ZM2,20.348L2,18C2.005,13.228 3.904,8.652 7.278,5.278C10.653,1.903 15.228,0.005 20,0L28,0C32.772,0.005 37.348,1.903 40.722,5.278C44.097,8.652 45.995,13.228 46,18L46,20.296C45.348,20.117 44.676,20.021 44,20.012L4.188,20.012C3.447,20.023 2.711,20.136 2,20.348L2,20.348ZM14,8C14,8.53 14.211,9.039 14.586,9.414C14.961,9.789 15.47,10 16,10C16.531,10 17.039,9.789 17.414,9.414C17.789,9.039 18,8.53 18,8C18,7.47 17.789,6.961 17.414,6.586C17.039,6.211 16.531,6 16,6C15.47,6 14.961,6.211 14.586,6.586C14.211,6.961 14,7.47 14,8L14,8ZM8,14C8,14.53 8.211,15.039 8.586,15.414C8.961,15.789 9.47,16 10,16C10.531,16 11.039,15.789 11.414,15.414C11.789,15.039 12,14.53 12,14C12,13.47 11.789,12.961 11.414,12.586C11.039,12.211 10.531,12 10,12C9.47,12 8.961,12.211 8.586,12.586C8.211,12.961 8,13.47 8,14L8,14ZM44,36.012L32,36.012C28.145,36.012 24.419,37.404 21.508,39.932C19.986,41.271 18.028,42.01 16,42.01C13.973,42.01 12.015,41.271 10.492,39.932C8.282,38.014 5.589,36.738 2.704,36.244C2.46,36.202 2.234,36.118 2,36.056L2,40C2,42.122 2.843,44.157 4.343,45.657C5.844,47.157 7.878,48 10,48L38,48C40.122,48 42.157,47.157 43.657,45.657C45.157,44.157 46,42.122 46,40L46,35.728C45.348,35.908 44.676,36.004 44,36.012L44,36.012Z" fill="#374957"/>
</svg>
