<svg width="48" height="50" viewBox="0 0 48 50" fill="none" xmlns="http://www.w3.org/2000/svg" xmlns:xlink="http://www.w3.org/1999/xlink">
<path d="M48,45.173L35.476,32.65C38.729,28.671 40.328,23.594 39.943,18.469C39.558,13.344 37.218,8.563 33.407,5.115C29.596,1.667 24.605,-0.185 19.467,-0.056C14.329,0.072 9.437,2.171 5.803,5.805C2.169,9.439 0.07,14.331 -0.058,19.469C-0.187,24.607 1.665,29.597 5.113,33.409C8.561,37.22 13.342,39.56 18.467,39.945C23.592,40.33 28.669,38.731 32.648,35.477L45.172,48.002L48,45.173ZM20,36.002C16.835,36.002 13.742,35.063 11.11,33.305C8.479,31.547 6.428,29.048 5.217,26.124C4.006,23.201 3.69,19.984 4.307,16.88C4.924,13.776 6.448,10.925 8.686,8.688C10.923,6.45 13.774,4.926 16.878,4.309C19.982,3.692 23.199,4.008 26.123,5.219C29.046,6.43 31.545,8.481 33.303,11.112C35.061,13.744 36,16.837 36,20.002C35.995,24.243 34.308,28.31 31.308,31.31C28.309,34.31 24.242,35.997 20,36.002Z" fill="#374957"/>
</svg>
