<svg width="48" height="48" viewBox="0 0 48 48" fill="none" xmlns="http://www.w3.org/2000/svg" xmlns:xlink="http://www.w3.org/1999/xlink">
<path d="M24,10C23.204,10 22.441,9.684 21.879,9.121C21.316,8.559 21,7.796 21,7L21,3C21,2.204 21.316,1.441 21.879,0.879C22.441,0.316 23.204,0 24,0C24.796,0 25.559,0.316 26.121,0.879C26.684,1.441 27,2.204 27,3L27,7C27,7.796 26.684,8.559 26.121,9.121C25.559,9.684 24.796,10 24,10L24,10ZM27,45L27,41C27,40.204 26.684,39.441 26.121,38.879C25.559,38.316 24.796,38 24,38C23.204,38 22.441,38.316 21.879,38.879C21.316,39.441 21,40.204 21,41L21,45C21,45.796 21.316,46.559 21.879,47.121C22.441,47.684 23.204,48 24,48C24.796,48 25.559,47.684 26.121,47.121C26.684,46.559 27,45.796 27,45ZM10,24C10,23.204 9.684,22.441 9.121,21.879C8.559,21.316 7.796,21 7,21L3,21C2.204,21 1.441,21.316 0.879,21.879C0.316,22.441 0,23.204 0,24C0,24.796 0.316,25.559 0.879,26.121C1.441,26.684 2.204,27 3,27L7,27C7.796,27 8.559,26.684 9.121,26.121C9.684,25.559 10,24.796 10,24L10,24ZM48,24C48,23.204 47.684,22.441 47.121,21.879C46.559,21.316 45.796,21 45,21L41,21C40.204,21 39.441,21.316 38.879,21.879C38.316,22.441 38,23.204 38,24C38,24.796 38.316,25.559 38.879,26.121C39.441,26.684 40.204,27 41,27L45,27C45.796,27 46.559,26.684 47.121,26.121C47.684,25.559 48,24.796 48,24ZM34.952,10.658L36.914,7.172C37.289,6.48 37.377,5.669 37.159,4.912C36.941,4.156 36.435,3.516 35.75,3.129C35.064,2.743 34.254,2.641 33.494,2.846C32.735,3.051 32.086,3.547 31.688,4.226L29.724,7.712C29.53,8.055 29.406,8.434 29.359,8.825C29.312,9.216 29.342,9.613 29.448,9.993C29.554,10.372 29.734,10.727 29.977,11.037C30.22,11.348 30.522,11.607 30.866,11.8C31.314,12.055 31.821,12.188 32.336,12.188C32.869,12.188 33.392,12.046 33.851,11.778C34.311,11.509 34.691,11.122 34.952,10.658L34.952,10.658ZM16.312,43.774L18.276,40.288C18.667,39.595 18.766,38.775 18.552,38.008C18.338,37.242 17.828,36.592 17.135,36.201C16.442,35.81 15.622,35.711 14.855,35.925C14.089,36.139 13.439,36.649 13.048,37.342L11.086,40.828C10.711,41.52 10.623,42.331 10.841,43.088C11.059,43.844 11.565,44.484 12.25,44.871C12.936,45.257 13.746,45.359 14.506,45.154C15.265,44.949 15.914,44.453 16.312,43.774L16.312,43.774ZM11.8,17.134C12.191,16.441 12.29,15.621 12.076,14.855C11.862,14.089 11.353,13.439 10.66,13.048L7.172,11.086C6.48,10.711 5.669,10.623 4.912,10.841C4.156,11.059 3.516,11.565 3.129,12.25C2.743,12.936 2.641,13.746 2.846,14.506C3.051,15.265 3.547,15.914 4.226,16.312L7.712,18.276C8.055,18.47 8.434,18.594 8.825,18.641C9.216,18.688 9.613,18.658 9.993,18.552C10.372,18.446 10.727,18.266 11.037,18.023C11.348,17.78 11.607,17.478 11.8,17.134ZM44.916,35.774C45.307,35.081 45.406,34.261 45.192,33.495C44.978,32.729 44.469,32.079 43.776,31.688L40.29,29.724C39.947,29.531 39.569,29.407 39.178,29.359C38.786,29.312 38.39,29.342 38.01,29.448C37.631,29.554 37.276,29.734 36.966,29.977C36.656,30.22 36.396,30.522 36.203,30.865C36.01,31.208 35.886,31.586 35.838,31.977C35.791,32.369 35.821,32.765 35.927,33.145C36.141,33.911 36.651,34.561 37.344,34.952L40.83,36.914C41.523,37.305 42.343,37.404 43.109,37.19C43.875,36.976 44.525,36.467 44.916,35.774L44.916,35.774ZM17.134,11.8C17.827,11.41 18.337,10.76 18.551,9.994C18.765,9.227 18.666,8.407 18.276,7.714L16.312,4.226C15.914,3.547 15.265,3.051 14.506,2.846C13.746,2.641 12.936,2.743 12.25,3.129C11.565,3.516 11.059,4.156 10.841,4.912C10.623,5.669 10.711,6.48 11.086,7.172L13.048,10.658C13.309,11.122 13.689,11.508 14.149,11.776C14.609,12.045 15.132,12.186 15.664,12.186C16.179,12.187 16.686,12.054 17.134,11.8L17.134,11.8ZM35.774,44.916C36.467,44.525 36.976,43.875 37.19,43.109C37.404,42.343 37.305,41.523 36.914,40.83L34.952,37.344C34.561,36.651 33.911,36.141 33.145,35.927C32.378,35.713 31.558,35.812 30.865,36.203C30.172,36.594 29.662,37.244 29.448,38.01C29.234,38.777 29.333,39.597 29.724,40.29L31.688,43.776C32.079,44.469 32.729,44.978 33.495,45.192C34.261,45.406 35.081,45.307 35.774,44.916L35.774,44.916ZM40.288,18.276L43.774,16.312C44.453,15.914 44.949,15.265 45.154,14.506C45.359,13.746 45.257,12.936 44.871,12.25C44.484,11.565 43.844,11.059 43.088,10.841C42.331,10.623 41.52,10.711 40.828,11.086L37.342,13.048C36.649,13.439 36.139,14.089 35.925,14.855C35.711,15.622 35.81,16.442 36.201,17.135C36.592,17.828 37.242,18.338 38.008,18.552C38.775,18.766 39.595,18.667 40.288,18.276ZM7.172,36.914L10.658,34.952C11.001,34.759 11.303,34.499 11.546,34.189C11.789,33.879 11.969,33.524 12.075,33.145C12.181,32.765 12.211,32.369 12.164,31.977C12.116,31.586 11.992,31.208 11.799,30.865C11.606,30.522 11.346,30.22 11.036,29.977C10.726,29.734 10.371,29.554 9.992,29.448C9.612,29.342 9.216,29.312 8.824,29.359C8.433,29.407 8.055,29.531 7.712,29.724L4.226,31.688C3.649,32.014 3.196,32.522 2.938,33.133C2.68,33.743 2.632,34.422 2.8,35.063C2.969,35.704 3.345,36.271 3.87,36.676C4.395,37.081 5.039,37.3 5.702,37.3C6.217,37.301 6.724,37.168 7.172,36.914L7.172,36.914Z" fill="#374957"/>
</svg>
