<svg width="48" height="42" viewBox="0 0 48 42" fill="none" xmlns="http://www.w3.org/2000/svg" xmlns:xlink="http://www.w3.org/1999/xlink">
<path d="M42,0.001L6,0.001C4.409,0.001 2.883,0.633 1.757,1.759C0.632,2.884 0,4.41 0,6.001L0,40.001L48,40.001L48,6.001C48,4.41 47.368,2.884 46.243,1.759C45.117,0.633 43.591,0.001 42,0.001ZM8,16.001L14,16.001L14,20.001L8,20.001L8,16.001ZM30,30.001L8,30.001L8,26.001L30,26.001L30,30.001ZM40,30.001L34,30.001L34,26.001L40,26.001L40,30.001ZM40,20.001L18,20.001L18,16.001L40,16.001L40,20.001Z" fill="#374957"/>
</svg>
