<svg width="48" height="48" viewBox="0 0 48 48" fill="none" xmlns="http://www.w3.org/2000/svg" xmlns:xlink="http://www.w3.org/1999/xlink">
<path d="M17,14C18.37,14.045 19.666,14.633 20.603,15.633C21.541,16.633 22.043,17.964 22,19.334C22,22 19.762,22 17,22C14.238,22 12,22 12,19.334C11.957,17.964 12.459,16.633 13.397,15.633C14.334,14.633 15.63,14.045 17,14L17,14ZM26,19.334C26,22 28.238,22 31,22C33.762,22 36,22 36,19.334C36.043,17.964 35.541,16.633 34.603,15.633C33.666,14.633 32.37,14.045 31,14C29.63,14.045 28.334,14.633 27.397,15.633C26.459,16.633 25.957,17.964 26,19.334ZM48,24C48,19.253 46.592,14.613 43.955,10.666C41.318,6.72 37.57,3.643 33.184,1.827C28.799,0.01 23.973,-0.465 19.318,0.461C14.662,1.387 10.386,3.673 7.029,7.029C3.673,10.386 1.387,14.662 0.461,19.318C-0.465,23.973 0.01,28.799 1.827,33.184C3.643,37.57 6.72,41.318 10.666,43.955C14.613,46.592 19.253,48 24,48C30.363,47.993 36.464,45.462 40.963,40.963C45.462,36.464 47.993,30.363 48,24ZM42,24C42,27.56 40.944,31.04 38.966,34C36.989,36.96 34.177,39.267 30.888,40.63C27.599,41.992 23.98,42.349 20.488,41.654C16.997,40.96 13.789,39.245 11.272,36.728C8.755,34.211 7.04,31.003 6.346,27.512C5.651,24.02 6.008,20.401 7.37,17.112C8.733,13.823 11.04,11.011 14,9.034C16.96,7.056 20.44,6 24,6C28.772,6.006 33.347,7.904 36.722,11.279C40.096,14.653 41.994,19.228 42,24L42,24ZM31,26L17,26C16.486,26.002 15.981,26.138 15.536,26.396C15.091,26.654 14.722,27.024 14.465,27.47C14.208,27.915 14.073,28.421 14.073,28.935C14.073,29.449 14.208,29.954 14.464,30.4C15.471,32.046 16.867,33.417 18.531,34.394C20.194,35.371 22.073,35.923 24,36C25.927,35.922 27.805,35.371 29.468,34.394C31.131,33.417 32.528,32.045 33.534,30.4C33.79,29.954 33.925,29.449 33.925,28.935C33.925,28.421 33.79,27.916 33.533,27.471C33.277,27.025 32.908,26.655 32.463,26.397C32.019,26.139 31.514,26.002 31,26L31,26Z" fill="#374957"/>
</svg>
