<svg width="48" height="36" viewBox="0 0 48 36" fill="none" xmlns="http://www.w3.org/2000/svg" xmlns:xlink="http://www.w3.org/1999/xlink">
<path d="M44,24L44,0L4,0L4,24L0,24L0,30C0,31.591 0.632,33.117 1.757,34.243C2.883,35.368 4.409,36 6,36L42,36C43.591,36 45.117,35.368 46.243,34.243C47.368,33.117 48,31.591 48,30L48,24L44,24ZM8,4L40,4L40,24L29.842,24L28.148,26L19.85,26L18.158,24L8,24L8,4ZM44,30C44,30.53 43.789,31.039 43.414,31.414C43.039,31.789 42.53,32 42,32L6,32C5.47,32 4.961,31.789 4.586,31.414C4.211,31.039 4,30.53 4,30L4,28L16.302,28L18,30L30,30L31.694,28L44,28L44,30Z" fill="#374957"/>
</svg>
