<svg width="48" height="48" viewBox="0 0 48 48" fill="none" xmlns="http://www.w3.org/2000/svg" xmlns:xlink="http://www.w3.org/1999/xlink">
<path d="M41.088,28.02C42.003,27.307 42.741,26.393 43.246,25.349C43.751,24.306 44.009,23.16 44,22C44,17.242 40.116,14 33.096,12.676C33.701,11.546 34.012,10.282 34,9C34,3.534 28.896,0 21,0C13.104,0 8,3.534 8,9C7.989,10.08 8.209,11.15 8.645,12.138C9.081,13.127 9.723,14.01 10.528,14.73C9.163,15.39 8.013,16.423 7.212,17.71C6.41,18.996 5.99,20.484 6,22C5.984,23.032 6.176,24.057 6.565,25.014C6.954,25.97 7.532,26.838 8.264,27.566C3.6,29 0,31.726 0,37C0,48 15.612,48 24,48C32.388,48 48,48 48,37C48,32.246 45.078,29.552 41.088,28.02ZM38,22C38,23.94 33.444,26 25,26C17.102,26 12,24.43 12,22C12,19.57 17.102,18 25,18C33.444,18 38,20.06 38,22ZM21,6C24.372,6 28,6.938 28,9C28,11.062 24.372,12 21,12C17.628,12 14,11.062 14,9C14,6.938 17.628,6 21,6ZM24,42C11.552,42 6,40.458 6,37C6,33.542 11.552,32 24,32C36.448,32 42,33.542 42,37C42,40.458 36.45,42 24,42Z" fill="#374957"/>
</svg>
