<svg width="48" height="48" viewBox="0 0 48 48" fill="none" xmlns="http://www.w3.org/2000/svg" xmlns:xlink="http://www.w3.org/1999/xlink">
<path d="M44.334,26.959L39.437,28.126C38.821,28.282 38.232,28.53 37.688,28.86L33.705,26.415C34.136,24.835 34.136,23.168 33.705,21.588L37.688,19.142C38.232,19.472 38.821,19.72 39.437,19.877C39.437,19.877 44.798,21.126 45.029,21.126C46.679,21.11 48.003,19.76 47.988,18.11C47.975,16.747 47.041,15.566 45.718,15.239L40.813,14.066C40.702,14.039 40.606,13.966 40.55,13.867C40.49,13.77 40.471,13.654 40.498,13.544L41.665,8.645C42.143,7.066 41.25,5.398 39.67,4.921C38.091,4.444 36.424,5.337 35.947,6.916C35.911,7.033 35.883,7.152 35.862,7.273L34.695,12.172C34.558,12.786 34.513,13.417 34.562,14.044L30.579,16.499C29.555,15.618 28.361,14.955 27.072,14.552L27.072,9.862C27.637,9.575 28.155,9.205 28.609,8.762L32.172,5.202C33.338,4.035 33.338,2.143 32.171,0.977C31.004,-0.19 29.112,-0.189 27.946,0.978L24.385,4.54C24.22,4.705 23.953,4.705 23.788,4.541C23.788,4.541 23.788,4.54 23.788,4.54L20.223,0.978C19.056,-0.189 17.164,-0.189 15.997,0.978C14.83,2.145 14.83,4.036 15.997,5.203L19.56,8.764C20.014,9.206 20.532,9.576 21.097,9.862L21.097,14.552C19.81,14.958 18.62,15.624 17.6,16.507L13.607,14.044C13.657,13.412 13.612,12.776 13.474,12.158L12.307,7.273C11.95,5.662 10.355,4.645 8.744,5.002C7.133,5.359 6.117,6.954 6.474,8.565C6.48,8.596 6.488,8.626 6.496,8.657L7.663,13.556C7.69,13.666 7.671,13.782 7.611,13.878C7.555,13.978 7.459,14.05 7.348,14.078L2.451,15.239C0.846,15.622 -0.144,17.233 0.239,18.838C0.559,20.181 1.759,21.129 3.14,21.131C3.371,21.131 8.732,19.883 8.732,19.883C9.348,19.726 9.937,19.478 10.48,19.148L14.463,21.593C14.033,23.174 14.033,24.84 14.463,26.421L10.48,28.866C9.937,28.536 9.348,28.288 8.732,28.131L3.835,26.964C2.258,26.479 0.586,27.364 0.101,28.941C-0.385,30.517 0.5,32.189 2.077,32.675C2.199,32.712 2.324,32.742 2.451,32.764L7.348,33.931C7.459,33.958 7.554,34.03 7.611,34.13C7.671,34.226 7.69,34.342 7.662,34.452L6.495,39.352C6.111,40.956 7.099,42.569 8.704,42.954C10.309,43.339 11.922,42.35 12.307,40.746L13.474,35.847C13.612,35.228 13.657,34.591 13.607,33.959L17.6,31.503C18.62,32.387 19.81,33.052 21.097,33.459L21.097,38.141C20.532,38.429 20.014,38.8 19.56,39.242L15.997,42.799C14.83,43.966 14.83,45.858 15.997,47.025C17.164,48.192 19.056,48.192 20.223,47.025L23.784,43.462C23.949,43.297 24.216,43.297 24.381,43.462C24.381,43.462 24.381,43.462 24.381,43.462L27.942,47.025C29.109,48.192 31.001,48.192 32.168,47.025C33.335,45.858 33.335,43.966 32.168,42.799L28.605,39.238C28.152,38.798 27.635,38.428 27.072,38.141L27.072,33.451C28.359,33.044 29.549,32.379 30.569,31.495L34.552,33.951C34.502,34.582 34.547,35.218 34.685,35.837L35.852,40.736C36.237,42.34 37.85,43.329 39.455,42.944C41.06,42.559 42.048,40.946 41.663,39.342L40.496,34.443C40.469,34.332 40.488,34.216 40.548,34.12C40.604,34.02 40.7,33.948 40.811,33.921L45.708,32.754C47.313,32.369 48.302,30.756 47.917,29.151C47.532,27.546 45.919,26.558 44.314,26.943L44.334,26.959ZM24.084,27.984C21.885,27.984 20.101,26.201 20.101,24.001C20.101,21.801 21.885,20.018 24.084,20.018C26.284,20.018 28.067,21.801 28.067,24.001C28.067,26.201 26.284,27.984 24.084,27.984Z" fill="#374957"/>
</svg>
