<svg width="48" height="48" viewBox="0 0 48 48" fill="none" xmlns="http://www.w3.org/2000/svg" xmlns:xlink="http://www.w3.org/1999/xlink">
<path d="M40,40L0,40L0,6C0,4.409 0.632,2.883 1.757,1.757C2.883,0.632 4.409,0 6,0L34,0C35.591,0 37.117,0.632 38.243,1.757C39.368,2.883 40,4.409 40,6L40,40ZM4,36L36,36L36,6C36,5.47 35.789,4.961 35.414,4.586C35.039,4.211 34.53,4 34,4L6,4C5.47,4 4.961,4.211 4.586,4.586C4.211,4.961 4,5.47 4,6L4,36ZM44,8.368L44,44L8,44L8,48L48,48L48,14C47.995,12.763 47.608,11.559 46.892,10.551C46.176,9.542 45.166,8.78 44,8.368L44,8.368Z" fill="#374957"/>
</svg>
