<svg width="44" height="48" viewBox="0 0 44 48" fill="none" xmlns="http://www.w3.org/2000/svg" xmlns:xlink="http://www.w3.org/1999/xlink">
<path d="M14.878,24.878L17.758,22L14.878,19.122C14.315,18.56 13.999,17.796 13.999,17C13.999,16.204 14.315,15.441 14.878,14.878C15.441,14.316 16.204,13.999 17,13.999C17.796,13.999 18.559,14.316 19.122,14.878L22,17.758L24.878,14.878C25.441,14.316 26.204,13.999 27,13.999C27.796,13.999 28.559,14.316 29.122,14.878C29.685,15.441 30.001,16.204 30.001,17C30.001,17.796 29.685,18.56 29.122,19.122L26.242,22L29.122,24.878C29.685,25.441 30.001,26.204 30.001,27C30.001,27.796 29.685,28.559 29.122,29.122C28.559,29.685 27.796,30.001 27,30.001C26.204,30.001 25.441,29.685 24.878,29.122L22,26.242L19.122,29.122C18.559,29.685 17.796,30.001 17,30.001C16.204,30.001 15.441,29.685 14.878,29.122C14.315,28.559 13.999,27.796 13.999,27C13.999,26.204 14.315,25.441 14.878,24.878ZM6.524,37.788C2.375,33.639 0.037,28.017 0.022,22.15C0.006,16.282 2.313,10.647 6.44,6.476C8.479,4.424 10.903,2.795 13.574,1.684C16.244,0.573 19.109,0 22.001,0C24.894,0 27.758,0.573 30.428,1.684C33.099,2.795 35.523,4.424 37.562,6.476C41.68,10.63 43.99,16.242 43.99,22.091C43.99,27.94 41.68,33.552 37.562,37.706L29.946,44.78C27.806,46.854 24.941,48.009 21.961,47.997C18.981,47.986 16.124,46.81 14,44.72L6.524,37.788ZM10.692,33.474L18.136,40.382C19.156,41.386 20.526,41.953 21.957,41.964C23.388,41.975 24.767,41.429 25.802,40.442L33.4,33.4C36.371,30.367 38.027,26.286 38.011,22.041C37.995,17.795 36.307,13.727 33.314,10.716C31.833,9.224 30.071,8.04 28.131,7.232C26.19,6.424 24.108,6.008 22.006,6.008C19.904,6.008 17.822,6.424 15.882,7.232C13.941,8.04 12.179,9.224 10.698,10.716C7.698,13.743 6.014,17.832 6.013,22.094C6.012,26.356 7.693,30.446 10.692,33.474L10.692,33.474Z" fill="#374957"/>
</svg>
