<svg width="48" height="36" viewBox="0 0 48 36" fill="none" xmlns="http://www.w3.org/2000/svg" xmlns:xlink="http://www.w3.org/1999/xlink">
<path d="M37,36L11,36C8.084,35.997 5.288,34.837 3.225,32.775C1.163,30.712 0.003,27.916 0,25L0,11C0.003,8.084 1.163,5.288 3.225,3.225C5.288,1.163 8.084,0.003 11,0L37,0C39.916,0.003 42.712,1.163 44.775,3.225C46.837,5.288 47.997,8.084 48,11L48,25C47.997,27.916 46.837,30.712 44.775,32.775C42.712,34.837 39.916,35.997 37,36L37,36ZM11,6C9.674,6 8.402,6.527 7.464,7.464C6.527,8.402 6,9.674 6,11L6,25C6,26.326 6.527,27.598 7.464,28.536C8.402,29.473 9.674,30 11,30L37,30C38.326,30 39.598,29.473 40.536,28.536C41.473,27.598 42,26.326 42,25L42,11C42,9.674 41.473,8.402 40.536,7.464C39.598,6.527 38.326,6 37,6L11,6ZM11,8C10.407,8 9.827,8.176 9.333,8.506C8.84,8.835 8.455,9.304 8.228,9.852C8.001,10.4 7.942,11.003 8.058,11.585C8.173,12.167 8.459,12.702 8.879,13.121C9.298,13.541 9.833,13.827 10.415,13.942C10.997,14.058 11.6,13.999 12.148,13.772C12.696,13.545 13.165,13.16 13.494,12.667C13.824,12.173 14,11.593 14,11C14,10.204 13.684,9.441 13.121,8.879C12.559,8.316 11.796,8 11,8ZM34,11C34,11.593 34.176,12.173 34.506,12.667C34.835,13.16 35.304,13.545 35.852,13.772C36.4,13.999 37.003,14.058 37.585,13.942C38.167,13.827 38.702,13.541 39.121,13.121C39.541,12.702 39.827,12.167 39.942,11.585C40.058,11.003 39.999,10.4 39.772,9.852C39.545,9.304 39.16,8.835 38.667,8.506C38.173,8.176 37.593,8 37,8C36.204,8 35.441,8.316 34.879,8.879C34.316,9.441 34,10.204 34,11ZM13.122,22.878C12.702,22.459 12.168,22.173 11.586,22.058C11.004,21.942 10.401,22.001 9.853,22.229C9.305,22.456 8.836,22.84 8.507,23.333C8.177,23.827 8.001,24.407 8.001,25C8.001,25.593 8.177,26.173 8.507,26.667C8.836,27.16 9.305,27.544 9.853,27.771C10.401,27.999 11.004,28.058 11.586,27.942C12.168,27.827 12.702,27.541 13.122,27.122C13.401,26.843 13.622,26.513 13.773,26.148C13.924,25.784 14.001,25.394 14.001,25C14.001,24.606 13.924,24.216 13.773,23.852C13.622,23.487 13.401,23.157 13.122,22.878L13.122,22.878ZM34,25C34,25.593 34.176,26.173 34.506,26.667C34.835,27.16 35.304,27.545 35.852,27.772C36.4,27.999 37.003,28.058 37.585,27.942C38.167,27.827 38.702,27.541 39.121,27.121C39.541,26.702 39.827,26.167 39.942,25.585C40.058,25.003 39.999,24.4 39.772,23.852C39.545,23.304 39.16,22.835 38.667,22.506C38.173,22.176 37.593,22 37,22C36.204,22 35.441,22.316 34.879,22.879C34.316,23.441 34,24.204 34,25L34,25ZM17,18C17,16.616 17.411,15.262 18.18,14.111C18.949,12.96 20.042,12.063 21.321,11.533C22.6,11.003 24.008,10.864 25.366,11.135C26.723,11.405 27.971,12.071 28.95,13.05C29.929,14.029 30.595,15.276 30.865,16.634C31.136,17.992 30.997,19.4 30.467,20.679C29.937,21.958 29.04,23.051 27.889,23.82C26.738,24.589 25.384,25 24,25C22.143,25 20.363,24.263 19.05,22.95C17.737,21.637 17,19.857 17,18L17,18Z" fill="#374957"/>
</svg>
