<svg width="40" height="48" viewBox="0 0 40 48" fill="none" xmlns="http://www.w3.org/2000/svg" xmlns:xlink="http://www.w3.org/1999/xlink">
<path d="M26,4L26,8L30,8L30,14L10,14L10,8L14,8L14,6C14,4.409 14.632,2.883 15.757,1.757C16.883,0.632 18.409,0 20,0L36,0L36,4L26,4ZM28,32L12,32L12,36L28,36L28,32ZM40,34L40,48L0,48L0,34C-0.004,30.681 0.916,27.427 2.657,24.601C4.398,21.775 6.89,19.49 9.856,18L30.144,18C33.11,19.49 35.602,21.775 37.343,24.601C39.084,27.427 40.004,30.681 40,34ZM32,28L8,28L8,40L32,40L32,28Z" fill="#374957"/>
</svg>
