<svg width="28" height="32" viewBox="0 0 28 32" fill="none" xmlns="http://www.w3.org/2000/svg" xmlns:xlink="http://www.w3.org/1999/xlink">
<path d="M26.122,16.708C25.844,16.429 25.513,16.208 25.149,16.057C24.785,15.906 24.394,15.829 24,15.829C23.606,15.829 23.216,15.906 22.852,16.057C22.488,16.208 22.157,16.429 21.878,16.708L17,21.586L17,4C17,3.204 16.684,2.441 16.122,1.879C15.559,1.316 14.796,1 14,1C13.205,1 12.442,1.316 11.879,1.879C11.316,2.441 11,3.204 11,4L11,21.586L6.122,16.708C5.56,16.145 4.797,15.829 4.001,15.829C3.205,15.829 2.442,16.144 1.879,16.707C1.316,17.27 1,18.033 1,18.828C1,19.624 1.316,20.387 1.878,20.95L9.05,28.122C9.7,28.772 10.472,29.288 11.321,29.64C12.171,29.991 13.081,30.173 14,30.173C14.92,30.173 15.83,29.991 16.679,29.64C17.529,29.288 18.3,28.772 18.95,28.122L26.122,20.95C26.685,20.387 27.001,19.624 27.001,18.829C27.001,18.034 26.685,17.271 26.122,16.708L26.122,16.708Z" fill="#374957"/>
</svg>
