<svg width="48" height="48" viewBox="0 0 48 48" fill="none" xmlns="http://www.w3.org/2000/svg" xmlns:xlink="http://www.w3.org/1999/xlink">
<path d="M46.827,1.174C46.325,0.68 45.703,0.325 45.022,0.145C44.341,-0.035 43.625,-0.034 42.945,0.148L35.515,2.584L11.035,27.064C8.299,25.59 5.344,24.562 2.283,24.02L1.711,27.978C5.605,28.708 9.273,30.344 12.419,32.752L4.999,40.172L2.951,38.124L0.123,40.952L7.123,47.952L9.951,45.124L7.827,43L15.247,35.58C17.656,38.725 19.291,42.394 20.019,46.288L23.979,45.716C23.439,42.655 22.412,39.7 20.935,36.964L45.415,12.484L47.905,4.864C48.051,4.208 48.028,3.526 47.84,2.881C47.651,2.236 47.303,1.649 46.827,1.174L46.827,1.174ZM41.911,10.332L18.725,33.52C18.117,32.721 17.456,31.963 16.747,31.252C16.036,30.544 15.279,29.884 14.481,29.276L37.669,6.088L43.983,4.014L41.911,10.332Z" fill="#374957"/>
</svg>
