<svg width="44" height="48" viewBox="0 0 44 48" fill="none" xmlns="http://www.w3.org/2000/svg" xmlns:xlink="http://www.w3.org/1999/xlink">
<path d="M0,48L44,48L44,6C44,4.409 43.368,2.883 42.243,1.757C41.117,0.632 39.591,0 38,0L6,0C4.409,0 2.883,0.632 1.757,1.757C0.632,2.883 0,4.409 0,6L0,48ZM4,6C4,5.47 4.211,4.961 4.586,4.586C4.961,4.211 5.47,4 6,4L38,4C38.53,4 39.039,4.211 39.414,4.586C39.789,4.961 40,5.47 40,6L40,44L4,44L4,6ZM8,20L36,20L36,8L8,8L8,20ZM12,12L32,12L32,16L12,16L12,12ZM8,26L12,26L12,30L8,30L8,26ZM16,26L20,26L20,30L16,30L16,26ZM28,26L28,30L24,30L24,26L28,26ZM8,34L12,34L12,38L8,38L8,34ZM16,34L20,34L20,38L16,38L16,34ZM32,26L36,26L36,30L32,30L32,26ZM24,34L36,34L36,38L24,38L24,34Z" fill="#374957"/>
</svg>
