<svg width="48" height="48" viewBox="0 0 48 48" fill="none" xmlns="http://www.w3.org/2000/svg" xmlns:xlink="http://www.w3.org/1999/xlink">
<path d="M45.968,2.036C44.728,0.808 43.073,0.09 41.33,0.021C39.586,-0.047 37.88,0.541 36.548,1.668L11.296,23.508C7.146,24.454 0,27.038 0,33.6C0.004,37.418 1.523,41.078 4.222,43.778C6.922,46.477 10.582,47.996 14.4,48C20.964,48 23.546,40.854 24.492,36.704L46.36,11.42C47.475,10.088 48.052,8.388 47.98,6.652C47.907,4.917 47.19,3.271 45.968,2.036L45.968,2.036ZM14.4,42C12.172,42 10.036,41.115 8.46,39.54C6.885,37.964 6,35.828 6,33.6C6,31.412 10.242,29.828 13.362,29.2L18.8,34.638C18.172,37.762 16.588,42 14.4,42L14.4,42ZM41.8,7.52L29.306,21.966L26.032,18.696L40.454,6.224C40.631,6.073 40.858,5.993 41.091,6C41.324,6.007 41.546,6.101 41.714,6.263C41.881,6.424 41.983,6.643 41.998,6.875C42.014,7.107 41.943,7.337 41.798,7.52L41.8,7.52Z" fill="#374957"/>
</svg>
