<svg width="50" height="48" viewBox="0 0 50 48" fill="none" xmlns="http://www.w3.org/2000/svg" xmlns:xlink="http://www.w3.org/1999/xlink">
<path d="M46.92,4.546C46.168,3.17 45.06,2.022 43.711,1.222C42.363,0.423 40.824,0 39.256,0L8.744,0C7.176,0 5.637,0.423 4.289,1.222C2.94,2.022 1.832,3.17 1.08,4.546C0.32,5.903 -0.054,7.442 -0.003,8.997C0.047,10.552 0.522,12.063 1.368,13.368C3.563,16.722 6.451,19.566 9.837,21.711C13.223,23.855 17.03,25.25 21,25.8L21,42L15,42C14.204,42 13.441,42.316 12.879,42.879C12.316,43.441 12,44.204 12,45C12,45.796 12.316,46.559 12.879,47.121C13.441,47.684 14.204,48 15,48L33,48C33.796,48 34.559,47.684 35.121,47.121C35.684,46.559 36,45.796 36,45C36,44.204 35.684,43.441 35.121,42.879C34.559,42.316 33.796,42 33,42L27,42L27,25.8C30.97,25.249 34.777,23.855 38.163,21.71C41.549,19.565 44.437,16.72 46.632,13.366C47.478,12.061 47.952,10.55 48.002,8.996C48.053,7.442 47.679,5.903 46.92,4.546L46.92,4.546ZM24,20C20.477,19.858 17.038,18.876 13.971,17.137C10.904,15.397 8.296,12.951 6.366,10L41.634,10C39.703,12.95 37.096,15.397 34.029,17.137C30.961,18.876 27.523,19.858 24,20Z" fill="#374957"/>
</svg>
