<svg width="48" height="46" viewBox="0 0 48 46" fill="none" xmlns="http://www.w3.org/2000/svg" xmlns:xlink="http://www.w3.org/1999/xlink">
<path d="M33.272,44C33.272,43.605 33.389,43.218 33.609,42.889C33.828,42.56 34.141,42.304 34.506,42.153C34.872,42.001 35.274,41.962 35.662,42.039C36.05,42.116 36.406,42.306 36.686,42.586C36.966,42.866 37.156,43.222 37.233,43.61C37.31,43.998 37.271,44.4 37.119,44.766C36.968,45.131 36.712,45.444 36.383,45.663C36.054,45.883 35.667,46 35.272,46C34.741,46 34.232,45.79 33.857,45.415C33.482,45.04 33.272,44.531 33.272,44ZM42.342,36.928C40.466,35.054 37.923,34.001 35.272,34.001C32.62,34.001 30.077,35.054 28.202,36.928L31.03,39.756C32.173,38.666 33.692,38.058 35.272,38.058C36.851,38.058 38.37,38.666 39.514,39.756L42.342,36.928ZM48,31.272C44.621,27.902 40.043,26.009 35.271,26.009C30.498,26.009 25.92,27.902 22.542,31.272L25.372,34.1C28,31.48 31.56,30.008 35.272,30.008C38.983,30.008 42.543,31.48 45.172,34.1L48,31.272ZM16.884,31.272L19.714,28.444C23.394,24.78 28.25,22.533 33.426,22.101C38.601,21.669 43.763,23.08 48,26.084L48,26C48,18.518 42.756,14.064 35.58,12.418C34.687,8.6 32.424,5.243 29.219,2.983C26.015,0.724 22.092,-0.28 18.196,0.162C14.3,0.604 10.702,2.461 8.085,5.381C5.468,8.3 4.014,12.079 4,16C3.998,18.557 4.615,21.076 5.8,23.342C3.642,24.499 1.932,26.343 0.943,28.582C-0.047,30.821 -0.26,33.327 0.338,35.701C0.936,38.075 2.309,40.181 4.241,41.685C6.173,43.188 8.552,44.003 11,44L29.354,44L16.884,31.272Z" fill="#374957"/>
</svg>
