<svg width="48" height="48" viewBox="0 0 48 48" fill="none" xmlns="http://www.w3.org/2000/svg" xmlns:xlink="http://www.w3.org/1999/xlink">
<path d="M28.399,32.524C22.577,30.056 17.946,25.414 15.491,19.586L22.303,12.774L9.773,0.244L3.431,6.586C2.331,7.692 1.461,9.005 0.872,10.449C0.283,11.893 -0.014,13.44 -0.001,15C-0.001,29.496 18.503,48 32.999,48C34.559,48.013 36.106,47.717 37.55,47.127C38.995,46.538 40.308,45.668 41.413,44.568L47.755,38.226L35.225,25.696L28.399,32.524ZM38.587,41.74C37.852,42.468 36.979,43.042 36.02,43.43C35.061,43.818 34.034,44.012 32.999,44C20.533,44 3.999,27.466 3.999,15C3.988,13.966 4.182,12.939 4.57,11.981C4.958,11.022 5.532,10.149 6.259,9.414L9.773,5.9L16.647,12.774L10.777,18.644L11.269,19.872C12.711,23.731 14.966,27.234 17.881,30.145C20.795,33.056 24.301,35.307 28.161,36.744L29.373,37.206L35.225,31.352L42.099,38.226L38.587,41.74ZM47.999,5L47.999,14L43.999,14L43.999,6.886L32.817,18.068L29.999,15.24L41.229,4L33.999,4L33.999,0L43.057,0C44.375,0.009 45.636,0.541 46.563,1.478C47.489,2.415 48.006,3.682 47.999,5L47.999,5Z" fill="#374957"/>
</svg>
