<svg width="48" height="48" viewBox="0 0 48 48" fill="none" xmlns="http://www.w3.org/2000/svg" xmlns:xlink="http://www.w3.org/1999/xlink">
<path d="M48,24C48,28.747 46.592,33.387 43.955,37.334C41.318,41.28 37.57,44.357 33.184,46.173C28.799,47.99 23.973,48.465 19.318,47.539C14.662,46.613 10.386,44.327 7.029,40.971C3.673,37.614 1.387,33.338 0.461,28.682C-0.465,24.027 0.01,19.201 1.827,14.816C3.643,10.43 6.72,6.682 10.666,4.045C14.613,1.408 19.253,0 24,0C24.774,0 25.538,0.042 26.292,0.114L27.94,0.268L28.096,1.916C28.541,6.536 30.58,10.857 33.862,14.138C37.143,17.42 41.464,19.459 46.084,19.904L47.732,20.06L47.886,21.708C47.958,22.462 48,23.226 48,24ZM17,14C16.407,14 15.827,14.176 15.333,14.506C14.84,14.835 14.455,15.304 14.228,15.852C14.001,16.4 13.942,17.003 14.058,17.585C14.173,18.167 14.459,18.702 14.879,19.121C15.298,19.541 15.833,19.827 16.415,19.942C16.997,20.058 17.6,19.999 18.148,19.772C18.696,19.545 19.165,19.16 19.494,18.667C19.824,18.173 20,17.593 20,17C20,16.204 19.684,15.441 19.121,14.879C18.559,14.316 17.796,14 17,14ZM17,28C16.407,28 15.827,28.176 15.333,28.506C14.84,28.835 14.455,29.304 14.228,29.852C14.001,30.4 13.942,31.003 14.058,31.585C14.173,32.167 14.459,32.702 14.879,33.121C15.298,33.541 15.833,33.827 16.415,33.942C16.997,34.058 17.6,33.999 18.148,33.772C18.696,33.545 19.165,33.16 19.494,32.667C19.824,32.173 20,31.593 20,31C20,30.204 19.684,29.441 19.121,28.879C18.559,28.316 17.796,28 17,28ZM31,26C30.407,26 29.827,26.176 29.333,26.506C28.84,26.835 28.455,27.304 28.228,27.852C28.001,28.4 27.942,29.003 28.058,29.585C28.173,30.167 28.459,30.702 28.879,31.121C29.298,31.541 29.833,31.827 30.415,31.942C30.997,32.058 31.6,31.999 32.148,31.772C32.696,31.545 33.165,31.16 33.494,30.667C33.824,30.173 34,29.593 34,29C34,28.204 33.684,27.441 33.121,26.879C32.559,26.316 31.796,26 31,26L31,26Z" fill="#374957"/>
</svg>
