<svg width="50" height="50" viewBox="0 0 50 50" fill="none" xmlns="http://www.w3.org/2000/svg" xmlns:xlink="http://www.w3.org/1999/xlink">
<path d="M38.666,29.335C37.154,29.336 35.665,29.705 34.327,30.411C32.99,31.116 31.844,32.136 30.988,33.383L17.97,27.505C18.895,25.272 18.899,22.764 17.98,20.529L30.98,14.621C32.248,16.454 34.131,17.773 36.287,18.337C38.444,18.901 40.731,18.674 42.735,17.696C44.738,16.718 46.324,15.055 47.206,13.008C48.088,10.96 48.207,8.665 47.541,6.537C46.875,4.41 45.469,2.592 43.578,1.412C41.686,0.233 39.435,-0.23 37.231,0.109C35.028,0.447 33.019,1.564 31.569,3.257C30.118,4.949 29.323,7.106 29.326,9.335C29.335,9.863 29.388,10.388 29.486,10.907L15.666,17.187C14.339,15.943 12.677,15.115 10.886,14.803C9.094,14.49 7.25,14.708 5.58,15.43C3.91,16.151 2.488,17.345 1.487,18.864C0.486,20.382 -0.049,22.161 -0.053,23.979C-0.057,25.798 0.471,27.579 1.465,29.102C2.459,30.625 3.876,31.825 5.542,32.554C7.209,33.282 9.052,33.509 10.845,33.204C12.638,32.9 14.304,32.079 15.636,30.841L29.492,37.097C29.396,37.615 29.343,38.14 29.334,38.667C29.334,40.513 29.881,42.318 30.907,43.853C31.932,45.389 33.39,46.585 35.095,47.292C36.801,47.999 38.678,48.184 40.489,47.824C42.3,47.464 43.963,46.575 45.268,45.269C46.574,43.964 47.463,42.3 47.823,40.489C48.183,38.679 47.998,36.802 47.291,35.096C46.585,33.39 45.388,31.933 43.853,30.907C42.317,29.882 40.513,29.335 38.666,29.335L38.666,29.335ZM38.666,4.001C39.721,4.001 40.753,4.313 41.63,4.899C42.508,5.485 43.192,6.318 43.596,7.292C44,8.267 44.106,9.34 43.9,10.374C43.694,11.409 43.187,12.36 42.441,13.106C41.695,13.852 40.744,14.36 39.71,14.566C38.675,14.772 37.602,14.667 36.628,14.263C35.653,13.859 34.82,13.176 34.233,12.299C33.647,11.421 33.334,10.39 33.334,9.335C33.335,7.921 33.897,6.565 34.897,5.565C35.897,4.565 37.252,4.003 38.666,4.001L38.666,4.001ZM9.334,29.335C8.279,29.335 7.248,29.023 6.37,28.437C5.493,27.851 4.809,27.018 4.405,26.044C4.001,25.069 3.895,23.996 4.101,22.962C4.306,21.927 4.814,20.976 5.56,20.23C6.306,19.484 7.256,18.976 8.291,18.77C9.326,18.564 10.398,18.669 11.373,19.073C12.348,19.476 13.181,20.16 13.767,21.037C14.353,21.914 14.666,22.946 14.666,24.001C14.665,25.415 14.103,26.77 13.103,27.77C12.103,28.77 10.748,29.333 9.334,29.335ZM38.666,44.001C37.611,44.001 36.58,43.688 35.703,43.102C34.826,42.516 34.142,41.683 33.738,40.708C33.335,39.733 33.229,38.661 33.435,37.626C33.641,36.592 34.149,35.641 34.895,34.895C35.641,34.149 36.591,33.641 37.626,33.435C38.66,33.23 39.733,33.335 40.708,33.739C41.682,34.143 42.515,34.826 43.101,35.703C43.687,36.581 44,37.612 44,38.667C43.999,40.081 43.437,41.437 42.437,42.437C41.437,43.438 40.081,44 38.666,44.001L38.666,44.001Z" fill="#374957"/>
</svg>
