<svg width="34" height="50" viewBox="0 0 34 50" fill="none" xmlns="http://www.w3.org/2000/svg" xmlns:xlink="http://www.w3.org/1999/xlink">
<path d="M29.53,18.914L-0.04,0.036L-0.04,48.036L29.518,29.09C30.378,28.549 31.088,27.799 31.58,26.91C32.072,26.021 32.33,25.022 32.332,24.006C32.333,22.989 32.077,21.989 31.587,21.099C31.097,20.209 30.389,19.457 29.53,18.914L29.53,18.914ZM27.37,25.704L3.97,40.704L3.97,7.352L27.384,22.3C27.673,22.481 27.91,22.732 28.075,23.03C28.239,23.328 28.325,23.664 28.323,24.004C28.322,24.345 28.234,24.679 28.067,24.976C27.9,25.273 27.66,25.522 27.37,25.7L27.37,25.704Z" fill="#374957"/>
</svg>
