<svg width="48" height="50" viewBox="0 0 48 50" fill="none" xmlns="http://www.w3.org/2000/svg" xmlns:xlink="http://www.w3.org/1999/xlink">
<path d="M35,48C18.702,48.458 -10.15,19.574 3.724,3.876C3.774,3.828 5.908,1.968 5.908,1.968C7.247,0.73 9.008,0.049 10.832,0.064C12.656,0.08 14.405,0.79 15.724,2.05L20.028,6.686C21.296,8.011 21.997,9.778 21.982,11.612C21.968,13.446 21.239,15.201 19.95,16.506L19.174,17.294C21.485,22.412 25.574,26.518 30.682,28.85L31.504,28.05C32.837,26.78 34.608,26.072 36.449,26.072C38.29,26.072 40.061,26.78 41.394,28.05L45.868,32.2C47.193,33.495 47.954,35.26 47.984,37.112C48.015,38.965 47.313,40.754 46.032,42.092C46.032,42.092 44.172,44.224 44.124,44.274C42.925,45.468 41.502,46.412 39.935,47.052C38.369,47.691 36.692,48.014 35,48L35,48ZM7.9,8.2C-1.818,20.236 29.288,49.546 39.81,40.1C39.81,40.1 41.658,37.982 41.708,37.934C41.895,37.746 42.001,37.492 42.001,37.227C42.001,36.962 41.895,36.708 41.708,36.52L37.232,32.372C36.632,31.872 36.294,31.866 35.738,32.292L33.466,34.528C33.056,34.931 32.539,35.208 31.976,35.326C31.414,35.444 30.829,35.397 30.292,35.192C26.301,33.707 22.676,31.381 19.663,28.373C16.65,25.364 14.319,21.743 12.828,17.754C12.611,17.213 12.556,16.62 12.671,16.048C12.786,15.476 13.065,14.95 13.474,14.534L15.69,12.282C15.791,12.192 15.872,12.083 15.928,11.96C15.984,11.837 16.014,11.704 16.016,11.569C16.017,11.434 15.991,11.3 15.938,11.176C15.885,11.052 15.806,10.94 15.708,10.848L11.4,6.212C11.209,6.053 10.965,5.972 10.717,5.987C10.469,6.002 10.236,6.111 10.066,6.292C10.018,6.342 7.9,8.2 7.9,8.2ZM48,19C47.994,13.963 45.99,9.133 42.428,5.571C38.867,2.009 34.037,0.006 29,0C28.204,0 27.441,0.316 26.879,0.879C26.316,1.441 26,2.204 26,3C26,3.796 26.316,4.559 26.879,5.121C27.441,5.684 28.204,6 29,6C32.446,6.004 35.75,7.375 38.188,9.812C40.625,12.249 41.996,15.553 42,19C42,19.796 42.316,20.559 42.879,21.121C43.441,21.684 44.204,22 45,22C45.795,22 46.559,21.684 47.121,21.121C47.684,20.559 48,19.796 48,19ZM38,19C37.997,16.614 37.048,14.326 35.361,12.639C33.674,10.952 31.386,10.003 29,10C28.204,10 27.441,10.316 26.879,10.879C26.316,11.441 26,12.204 26,13C26,13.796 26.316,14.559 26.879,15.121C27.441,15.684 28.204,16 29,16C29.795,16 30.559,16.316 31.121,16.879C31.684,17.441 32,18.204 32,19C32,19.796 32.316,20.559 32.879,21.121C33.441,21.684 34.204,22 35,22C35.795,22 36.559,21.684 37.121,21.121C37.684,20.559 38,19.796 38,19Z" fill="#374957"/>
</svg>
