<svg width="48" height="40" viewBox="0 0 48 40" fill="none" xmlns="http://www.w3.org/2000/svg" xmlns:xlink="http://www.w3.org/1999/xlink">
<path d="M13.199,34.244L9.353,33.044L10.999,27.932C11.338,27.972 11.678,27.995 12.019,28C14.181,27.994 16.284,27.288 18.011,25.987C19.738,24.686 20.997,22.86 21.599,20.784L23.999,13.672L26.365,20.672C26.958,22.961 28.361,24.958 30.315,26.292C32.268,27.626 34.638,28.206 36.987,27.926L38.587,33.038L34.727,34.238L35.915,38.058L47.473,34.458L46.287,30.638L42.409,31.838L40.809,26.718C42.807,25.636 44.373,23.901 45.246,21.804C46.12,19.707 46.248,17.374 45.609,15.194L41.913,4.264C41.449,2.769 40.423,1.512 39.052,0.758C37.68,0.003 36.07,-0.189 34.559,0.22L26.855,2.368C25.75,2.675 24.758,3.296 23.999,4.156C23.24,3.296 22.248,2.675 21.143,2.368L13.437,0.22C11.937,-0.194 10.335,-0.011 8.968,0.731C7.6,1.473 6.574,2.717 6.103,4.2L2.369,15.314C1.758,17.478 1.9,19.787 2.772,21.861C3.644,23.934 5.194,25.65 7.169,26.728L5.535,31.864L1.641,30.664L0.459,34.474L12.021,38.074L13.199,34.244ZM41.213,20.946C40.826,21.632 40.307,22.235 39.687,22.721C39.067,23.207 38.357,23.566 37.598,23.778C36.839,23.989 36.046,24.049 35.263,23.954C34.481,23.859 33.725,23.611 33.039,23.224C32.338,22.826 31.724,22.292 31.232,21.654C30.741,21.015 30.382,20.285 30.177,19.506L28.327,14L40.973,14L41.773,16.388C41.987,17.146 42.048,17.939 41.954,18.722C41.859,19.504 41.61,20.26 41.221,20.946L41.213,20.946ZM26.713,7.184C26.84,6.949 27.014,6.743 27.223,6.577C27.431,6.412 27.672,6.29 27.929,6.22L35.631,4.074C35.803,4.025 35.98,4.001 36.159,4C36.599,4.004 37.026,4.15 37.376,4.417C37.726,4.683 37.981,5.055 38.103,5.478L39.625,10L26.979,10L26.549,8.726C26.472,8.471 26.447,8.203 26.475,7.938C26.504,7.673 26.584,7.417 26.713,7.184L26.713,7.184ZM11.835,4C12.014,4 12.192,4.024 12.365,4.072L20.069,6.22C20.578,6.36 21.011,6.696 21.273,7.154C21.535,7.612 21.606,8.156 21.469,8.666L21.019,10L8.373,10L9.913,5.42C10.04,5.009 10.295,4.65 10.641,4.394C10.987,4.139 11.405,4 11.835,4L11.835,4ZM6.199,16.49L7.027,14L19.671,14L17.783,19.6C17.464,20.741 16.813,21.763 15.914,22.535C15.014,23.307 13.906,23.796 12.729,23.939C11.553,24.082 10.36,23.873 9.301,23.339C8.243,22.805 7.367,21.969 6.783,20.938C6.01,19.59 5.8,17.991 6.199,16.49L6.199,16.49Z" fill="#374957"/>
</svg>
