<svg width="40" height="48" viewBox="0 0 40 48" fill="none" xmlns="http://www.w3.org/2000/svg" xmlns:xlink="http://www.w3.org/1999/xlink">
<path d="M30,34.999C30,35.795 29.684,36.558 29.121,37.12C28.559,37.683 27.796,37.999 27,37.999L13,37.999C12.204,37.999 11.441,37.683 10.879,37.12C10.316,36.558 10,35.795 10,34.999C10,34.203 10.316,33.44 10.879,32.878C11.441,32.315 12.204,31.999 13,31.999L27,31.999C27.796,31.999 28.559,32.315 29.121,32.878C29.684,33.44 30,34.203 30,34.999L30,34.999ZM40,14.313L40,36.999C39.997,39.915 38.837,42.711 36.775,44.774C34.712,46.836 31.916,47.996 29,47.999L11,47.999C8.084,47.996 5.288,46.836 3.225,44.774C1.163,42.711 0.003,39.915 0,36.999L0,10.999C0.003,8.083 1.163,5.287 3.225,3.224C5.288,1.162 8.084,0.002 11,-0.001L25.686,-0.001C27.131,-0.005 28.563,0.278 29.898,0.831C31.233,1.384 32.445,2.196 33.464,3.221L36.778,6.535C37.803,7.554 38.615,8.766 39.168,10.101C39.721,11.436 40.004,12.868 40,14.313L40,14.313ZM33.97,13.999L30,13.999C28.939,13.999 27.922,13.578 27.172,12.827C26.421,12.077 26,11.06 26,9.999L26,6.031C25.894,6.023 11,5.999 11,5.999C9.674,5.999 8.402,6.526 7.464,7.464C6.527,8.401 6,9.673 6,10.999L6,36.999C6,38.325 6.527,39.597 7.464,40.535C8.402,41.472 9.674,41.999 11,41.999L29,41.999C30.326,41.999 31.598,41.472 32.536,40.535C33.473,39.597 34,38.325 34,36.999C34,36.999 33.976,14.105 33.97,13.999ZM25,17.999L15,17.999C13.674,17.999 12.402,18.526 11.464,19.464C10.527,20.401 10,21.673 10,22.999C10,24.325 10.527,25.597 11.464,26.535C12.402,27.472 13.674,27.999 15,27.999L25,27.999C26.326,27.999 27.598,27.472 28.536,26.535C29.473,25.597 30,24.325 30,22.999C30,21.673 29.473,20.401 28.536,19.464C27.598,18.526 26.326,17.999 25,17.999L25,17.999Z" fill="#374957"/>
</svg>
