<svg width="48" height="42" viewBox="0 0 48 42" fill="none" xmlns="http://www.w3.org/2000/svg" xmlns:xlink="http://www.w3.org/1999/xlink">
<path d="M17.52,40.001L12.6,40.001L5.078,19.317C4.938,18.932 4.682,18.599 4.346,18.364C4.01,18.128 3.61,18.002 3.2,18.001L0,18.001L0,14.001L3.2,14.001C4.431,14.004 5.632,14.384 6.64,15.09C7.648,15.796 8.415,16.795 8.838,17.951L14.88,34.565L23.26,4.401C23.613,3.138 24.368,2.025 25.412,1.23C26.456,0.436 27.73,0.005 29.042,0.001L48,0.001L48,4.001L29.042,4.001C28.605,4.001 28.18,4.144 27.831,4.409C27.483,4.673 27.231,5.044 27.114,5.465L17.52,40.001ZM41.386,30.001L48,20.001L43.23,20.001L39,26.401L34.77,20.001L30,20.001L36.614,30.001L30,40.001L34.77,40.001L39,33.601L43.23,40.001L48,40.001L41.386,30.001Z" fill="#374957"/>
</svg>
