<svg width="50" height="50" viewBox="0 0 50 50" fill="none" xmlns="http://www.w3.org/2000/svg" xmlns:xlink="http://www.w3.org/1999/xlink">
<path d="M43.734,3.225L35.03,0.311C33.872,-0.083 32.621,-0.107 31.448,0.241L17.076,4.185L8.31,0.467C7.398,0.086 6.407,-0.063 5.424,0.032C4.441,0.127 3.496,0.463 2.674,1.01C1.852,1.558 1.178,2.3 0.711,3.17C0.245,4.041 0.001,5.013 0,6.001L0,43.509L15.964,48.071L32.006,44.071L48.006,47.967L48.006,8.967C48.005,7.678 47.589,6.423 46.82,5.389C46.05,4.355 44.968,3.596 43.734,3.225L43.734,3.225ZM30,4.769L30,40.439L18,43.439L18,7.945L30,4.769ZM4,6.001C4.001,5.671 4.083,5.347 4.239,5.057C4.395,4.767 4.62,4.52 4.894,4.338C5.169,4.156 5.484,4.045 5.812,4.014C6.14,3.983 6.47,4.033 6.774,4.161L14,7.163L14,43.349L4,40.493L4,6.001ZM44,42.861L34,40.425L34,4.185L42.55,7.045C42.968,7.164 43.335,7.416 43.597,7.763C43.858,8.11 44,8.532 44,8.967L44,42.861Z" fill="#374957"/>
</svg>
