<svg width="42" height="48" viewBox="0 0 42 48" fill="none" xmlns="http://www.w3.org/2000/svg" xmlns:xlink="http://www.w3.org/1999/xlink">
<path d="M38,0L8,0C7.204,0 6.441,0.316 5.879,0.879C5.316,1.441 5,2.204 5,3C5,3.796 5.316,4.559 5.879,5.121C6.441,5.684 7.204,6 8,6L19.426,6L14.518,42L2,42C1.204,42 0.441,42.316 -0.121,42.879C-0.684,43.441 -1,44.204 -1,45C-1,45.796 -0.684,46.559 -0.121,47.121C0.441,47.684 1.204,48 2,48L32,48C32.796,48 33.559,47.684 34.121,47.121C34.684,46.559 35,45.796 35,45C35,44.204 34.684,43.441 34.121,42.879C33.559,42.316 32.796,42 32,42L20.574,42L25.482,6L38,6C38.796,6 39.559,5.684 40.121,5.121C40.684,4.559 41,3.796 41,3C41,2.204 40.684,1.441 40.121,0.879C39.559,0.316 38.796,0 38,0L38,0Z" fill="#374957"/>
</svg>
