<svg width="50" height="48" viewBox="0 0 50 48" fill="none" xmlns="http://www.w3.org/2000/svg" xmlns:xlink="http://www.w3.org/1999/xlink">
<path d="M48.084,-0.095L48,2.081C47.958,3.183 46.834,29.217 37.858,38.193C34.381,41.662 29.741,43.719 24.835,43.967C19.929,44.215 15.105,42.636 11.296,39.535L33.416,17.415L30.586,14.587L8.466,36.707C5.365,32.898 3.785,28.075 4.031,23.17C4.277,18.264 6.333,13.624 9.8,10.145C18.6,1.345 44.8,0.053 45.91,0.001L48.084,-0.095ZM8.466,36.707L0.086,45.087L2.914,47.915L11.294,39.535C10.259,38.69 9.311,37.742 8.466,36.707L8.466,36.707Z" fill="#374957"/>
</svg>
