<svg width="40" height="48" viewBox="0 0 40 48" fill="none" xmlns="http://www.w3.org/2000/svg" xmlns:xlink="http://www.w3.org/1999/xlink">
<path d="M34.142,5.858C32.286,3.988 30.08,2.504 27.65,1.489C25.219,0.475 22.612,-0.049 19.978,-0.054C17.345,-0.058 14.736,0.458 12.302,1.465C9.868,2.471 7.657,3.949 5.796,5.812C3.935,7.676 2.46,9.888 1.456,12.323C0.452,14.758 -0.061,17.367 -0.054,20.001C-0.046,22.635 0.481,25.241 1.498,27.67C2.515,30.1 4.002,32.304 5.874,34.158L20,47.974L34.142,34.142C37.892,30.391 39.999,25.304 39.999,20C39.999,14.695 37.892,9.608 34.142,5.858L34.142,5.858ZM28,22L22,22L22,28L18,28L18,22L12,22L12,18L18,18L18,12L22,12L22,18L28,18L28,22Z" fill="#374957"/>
</svg>
