<svg width="50" height="48" viewBox="0 0 50 48" fill="none" xmlns="http://www.w3.org/2000/svg" xmlns:xlink="http://www.w3.org/1999/xlink">
<path d="M30.682,12L29.984,12C31.881,11.369 33.619,10.335 35.078,8.968C36.749,7.105 37.769,4.75 37.984,2.256C38.023,1.953 37.993,1.644 37.894,1.355C37.795,1.065 37.631,0.802 37.415,0.585C37.199,0.369 36.935,0.205 36.646,0.107C36.356,0.008 36.048,-0.023 35.744,0.016C33.251,0.231 30.895,1.251 29.032,2.922C27.639,4.49 26.725,6.424 26.4,8.496C25.871,5.955 24.888,3.529 23.498,1.336C23.057,0.673 22.37,0.213 21.589,0.056C20.808,-0.101 19.997,0.059 19.334,0.5C18.671,0.942 18.211,1.628 18.054,2.409C17.897,3.19 18.057,4.001 18.498,4.664C19.87,6.884 20.693,9.399 20.898,12L17.318,12C12.637,12.098 8.186,14.047 4.94,17.421C1.693,20.795 -0.083,25.319 0,30C-0.388,41.31 11.866,51.754 22.148,46.64C22.711,46.216 23.398,45.99 24.102,45.996C24.806,46.002 25.489,46.24 26.044,46.674C36.276,51.764 48.362,41.156 48,30C48.083,25.319 46.307,20.795 43.061,17.421C39.815,14.047 35.363,12.098 30.682,12L30.682,12ZM30.682,42C30.026,41.96 29.393,41.742 28.85,41.37C27.383,40.493 25.71,40.02 24,40C22.374,40.035 20.785,40.487 19.384,41.314C18.769,41.723 18.056,41.96 17.318,42C2.364,41.508 2.37,18.488 17.318,18L30.682,18C45.64,18.494 45.628,41.512 30.682,42Z" fill="#374957"/>
</svg>
