<svg width="48" height="48" viewBox="0 0 48 48" fill="none" xmlns="http://www.w3.org/2000/svg" xmlns:xlink="http://www.w3.org/1999/xlink">
<path d="M42,12L28.828,12L26.51,9.682L34,5L26,0L22,0L22,9.172L19.172,12L6,12C4.409,12 2.883,12.632 1.757,13.757C0.632,14.883 0,16.409 0,18L0,48L48,48L48,18C48,16.409 47.368,14.883 46.243,13.757C45.117,12.632 43.591,12 42,12ZM42,16C42.53,16 43.039,16.211 43.414,16.586C43.789,16.961 44,17.47 44,18L44,20L36.828,20L32.828,16L42,16ZM6,16L15.172,16L11.172,20L4,20L4,18C4,17.47 4.211,16.961 4.586,16.586C4.961,16.211 5.47,16 6,16L6,16ZM26,44L22,44L22,38C22,37.47 22.211,36.961 22.586,36.586C22.961,36.211 23.47,36 24,36C24.53,36 25.039,36.211 25.414,36.586C25.789,36.961 26,37.47 26,38L26,44ZM30,44L30,38C30,36.409 29.368,34.883 28.243,33.757C27.117,32.632 25.591,32 24,32C22.409,32 20.883,32.632 19.757,33.757C18.632,34.883 18,36.409 18,38L18,44L4,44L4,24L12.828,24L24,12.828L35.172,24L44,24L44,44L30,44ZM8,28L14,28L14,32L8,32L8,28ZM8,36L14,36L14,40L8,40L8,36ZM34,28L40,28L40,32L34,32L34,28ZM34,36L40,36L40,40L34,40L34,36ZM28,24C28,24.791 27.765,25.564 27.326,26.222C26.886,26.88 26.262,27.393 25.531,27.696C24.8,27.998 23.996,28.077 23.22,27.923C22.444,27.769 21.731,27.388 21.172,26.828C20.612,26.269 20.231,25.556 20.077,24.78C19.923,24.004 20.002,23.2 20.304,22.469C20.607,21.738 21.12,21.114 21.778,20.674C22.436,20.235 23.209,20 24,20C25.061,20 26.078,20.421 26.828,21.172C27.579,21.922 28,22.939 28,24Z" fill="#374957"/>
</svg>
