<svg width="48" height="48" viewBox="0 0 48 48" fill="none" xmlns="http://www.w3.org/2000/svg" xmlns:xlink="http://www.w3.org/1999/xlink">
<path d="M28.244,48L19.754,48C15.154,48.018 10.732,46.227 7.44,43.014C4.098,39.648 1.659,35.493 0.348,30.934C-0.027,29.664 -0.101,28.325 0.132,27.021C0.365,25.718 0.898,24.487 1.69,23.426C2.481,22.365 3.509,21.502 4.692,20.908C5.875,20.313 7.18,20.002 8.504,20L39.504,20C40.825,20.012 42.125,20.329 43.303,20.926C44.481,21.524 45.505,22.385 46.295,23.444C47.084,24.503 47.619,25.729 47.856,27.029C48.093,28.328 48.027,29.665 47.662,30.934C46.35,35.493 43.909,39.648 40.566,43.014C37.273,46.23 32.847,48.021 28.244,48L28.244,48ZM8.504,26C8.115,25.996 7.731,26.084 7.383,26.258C7.035,26.432 6.734,26.686 6.504,27C6.265,27.318 6.105,27.688 6.035,28.08C5.966,28.472 5.989,28.875 6.104,29.256C7.142,32.839 9.055,36.107 11.67,38.766C13.836,40.863 16.74,42.024 19.754,42L28.244,42C31.258,42.023 34.16,40.861 36.324,38.764C38.941,36.104 40.855,32.836 41.894,29.252C42.009,28.871 42.032,28.468 41.963,28.076C41.893,27.684 41.733,27.314 41.494,26.996C41.264,26.682 40.963,26.428 40.615,26.254C40.267,26.08 39.883,25.992 39.494,25.996L8.504,26ZM34,13C34.036,10.285 33.002,7.664 31.12,5.706C30.75,5.362 30.459,4.942 30.266,4.475C30.073,4.008 29.982,3.505 30,3C30,2.204 29.684,1.441 29.121,0.879C28.559,0.316 27.796,0 27,0L27,0C26.204,0 25.441,0.316 24.879,0.879C24.316,1.441 24,2.204 24,3C23.983,4.293 24.229,5.575 24.724,6.769C25.219,7.964 25.952,9.044 26.878,9.946C27.632,10.781 28.034,11.875 28,13C28,13.796 28.316,14.559 28.879,15.121C29.441,15.684 30.204,16 31,16C31.796,16 32.559,15.684 33.121,15.121C33.684,14.559 34,13.796 34,13L34,13ZM24,15L24,14.384C24.001,13.094 23.747,11.816 23.253,10.624C22.759,9.431 22.035,8.348 21.122,7.436C20.765,7.081 20.482,6.659 20.29,6.195C20.097,5.73 19.999,5.231 20,4.728L20,3C20,2.204 19.684,1.441 19.121,0.879C18.559,0.316 17.796,0 17,0C16.205,0 15.441,0.316 14.879,0.879C14.316,1.441 14,2.204 14,3L14,4.728C13.997,6.019 14.25,7.299 14.744,8.492C15.238,9.684 15.964,10.768 16.88,11.678C17.246,12.025 17.535,12.446 17.728,12.912C17.921,13.378 18.014,13.88 18,14.384L18,15C18,15.796 18.316,16.559 18.879,17.121C19.441,17.684 20.204,18 21,18C21.796,18 22.559,17.684 23.121,17.121C23.684,16.559 24,15.796 24,15L24,15Z" fill="#374957"/>
</svg>
