<svg width="48" height="48" viewBox="0 0 48 48" fill="none" xmlns="http://www.w3.org/2000/svg" xmlns:xlink="http://www.w3.org/1999/xlink">
<path d="M24,0C19.253,0 14.613,1.408 10.666,4.045C6.72,6.682 3.643,10.43 1.827,14.816C0.01,19.201 -0.465,24.027 0.461,28.682C1.387,33.338 3.673,37.614 7.029,40.971C10.386,44.327 14.662,46.613 19.318,47.539C23.973,48.465 28.799,47.99 33.184,46.173C37.57,44.357 41.318,41.28 43.955,37.334C46.592,33.387 48,28.747 48,24C47.993,17.637 45.462,11.536 40.963,7.037C36.464,2.538 30.363,0.007 24,0L24,0ZM24,4C28.613,3.996 33.084,5.596 36.648,8.524L8.524,36.648C6.125,33.72 4.607,30.17 4.147,26.413C3.687,22.655 4.304,18.845 5.925,15.424C7.547,12.003 10.106,9.114 13.306,7.091C16.506,5.069 20.215,3.997 24,4L24,4ZM24,44C19.387,44.004 14.916,42.405 11.352,39.476L39.476,11.352C41.875,14.28 43.393,17.83 43.853,21.587C44.313,25.345 43.696,29.155 42.075,32.576C40.453,35.997 37.894,38.886 34.694,40.909C31.494,42.931 27.785,44.003 24,44Z" fill="#374957"/>
</svg>
