<svg width="48" height="50" viewBox="0 0 48 50" fill="none" xmlns="http://www.w3.org/2000/svg" xmlns:xlink="http://www.w3.org/1999/xlink">
<path d="M16.327,16C15.169,15.982 14.052,15.562 13.169,14.812C11.327,13.123 10.211,10.785 10.055,8.29C9.569,3.304 12.289,0.362 15.227,0.034C15.935,-0.044 16.652,0.021 17.334,0.225C18.016,0.429 18.651,0.768 19.199,1.222C20.018,1.96 20.682,2.852 21.154,3.848C21.627,4.843 21.897,5.922 21.951,7.022C22.399,11.67 19.923,16 16.327,16ZM5.705,28C4.641,27.975 3.626,27.551 2.859,26.812C1.166,25.049 0.171,22.731 0.059,20.288C-0.381,15.302 2.071,12.36 4.721,12.032C5.367,11.959 6.021,12.028 6.638,12.233C7.255,12.438 7.82,12.775 8.293,13.22C9.814,14.777 10.7,16.845 10.775,19.02C11.177,23.67 8.717,28 5.705,28ZM31.671,16C28.051,16 25.603,11.668 26.057,7.016C26.111,5.916 26.382,4.837 26.854,3.842C27.326,2.846 27.991,1.954 28.809,1.216C29.357,0.765 29.99,0.427 30.671,0.224C31.351,0.021 32.065,-0.043 32.771,0.034C35.709,0.362 38.429,3.304 37.943,8.29C37.788,10.786 36.672,13.124 34.829,14.814C33.946,15.564 32.829,15.983 31.671,16L31.671,16ZM42.105,28C38.333,28 36.451,23.668 36.875,19.016C36.959,16.827 37.876,14.753 39.437,13.216C39.933,12.768 40.519,12.43 41.155,12.225C41.792,12.02 42.465,11.953 43.129,12.028C45.865,12.356 48.399,15.298 47.947,20.284C47.821,22.743 46.787,25.068 45.045,26.808C44.244,27.552 43.198,27.976 42.105,28L42.105,28ZM31.427,48C29.622,48.032 27.844,47.562 26.291,46.642C25.601,46.221 24.808,45.998 23.999,45.998C23.191,45.998 22.398,46.221 21.707,46.642C15.511,50.35 7.799,46.376 7.999,37.666C7.999,28.568 17.013,20 23.999,20C30.985,20 39.999,28.568 39.999,37.666C39.999,43.75 36.475,48 31.427,48ZM23.999,40C25.804,39.968 27.582,40.439 29.135,41.358C33.091,43.624 34.033,39.638 33.999,37.666C33.999,31.766 27.671,26 23.999,26C20.327,26 13.999,31.766 13.999,37.666C13.953,39.608 14.923,43.638 18.863,41.358C20.416,40.439 22.194,39.968 23.999,40L23.999,40Z" fill="#374957"/>
</svg>
