<svg width="40" height="48" viewBox="0 0 40 48" fill="none" xmlns="http://www.w3.org/2000/svg" xmlns:xlink="http://www.w3.org/1999/xlink">
<path d="M24.828,0L6,0C4.409,0 2.883,0.632 1.757,1.757C0.632,2.883 0,4.409 0,6L0,48L40,48L40,15.172L24.828,0ZM26,6.828L33.172,14L26,14L26,6.828ZM4,44L4,6C4,5.47 4.211,4.961 4.586,4.586C4.961,4.211 5.47,4 6,4L22,4L22,18L36,18L36,44L4,44ZM27.914,24.914L22.828,30L27.914,35.086L25.086,37.914L20,32.828L14.914,37.914L12.086,35.086L17.172,30L12.086,24.914L14.914,22.086L20,27.172L25.086,22.086L27.914,24.914Z" fill="#374957"/>
</svg>
