<svg width="48" height="48" viewBox="0 0 48 48" fill="none" xmlns="http://www.w3.org/2000/svg" xmlns:xlink="http://www.w3.org/1999/xlink">
<path d="M46.248,1.751C45.627,1.124 44.874,0.644 44.043,0.346C43.213,0.048 42.326,-0.06 41.448,0.029C36.904,0.471 25.42,2.429 16.922,10.921C9.564,18.288 3.948,27.208 0.484,37.027L0,38.243L9.71,47.953L10.928,47.477C20.754,44.024 29.685,38.421 37.07,31.077C45.566,22.581 47.52,11.095 47.962,6.551C48.05,5.674 47.942,4.788 47.646,3.958C47.349,3.127 46.872,2.374 46.248,1.751L46.248,1.751ZM34.248,28.249C27.594,34.924 19.552,40.053 10.694,43.273L9.124,41.703L33.414,17.413L30.586,14.585L6.296,38.875L4.696,37.275C7.952,28.436 13.088,20.409 19.75,13.749C27.334,6.167 37.722,4.411 41.838,4.009C42.127,3.982 42.419,4.019 42.692,4.118C42.966,4.216 43.214,4.374 43.42,4.579C43.628,4.783 43.788,5.031 43.888,5.304C43.989,5.578 44.027,5.871 44,6.161C43.588,10.277 41.832,20.667 34.25,28.249L34.248,28.249Z" fill="#374957"/>
</svg>
