<svg width="48" height="48" viewBox="0 0 48 48" fill="none" xmlns="http://www.w3.org/2000/svg" xmlns:xlink="http://www.w3.org/1999/xlink">
<path d="M48,24C48,30.365 45.471,36.47 40.971,40.971C36.47,45.471 30.365,48 24,48C17.635,48 11.53,45.471 7.029,40.971C2.529,36.47 0,30.365 0,24C0,23.266 0.034,22.538 0.098,21.82L4.082,22.182C4.027,22.781 4,23.387 4,24C4,27.956 5.173,31.822 7.371,35.111C9.568,38.4 12.692,40.964 16.346,42.478C20.001,43.991 24.022,44.387 27.902,43.616C31.781,42.844 35.345,40.939 38.142,38.142C40.939,35.345 42.844,31.781 43.616,27.902C44.387,24.022 43.991,20.001 42.478,16.346C40.964,12.692 38.4,9.568 35.111,7.371C31.822,5.173 27.956,4 24,4C23.387,4 22.781,4.027 22.182,4.082L21.82,0.098C22.538,0.034 23.266,0 24,0C30.363,0.007 36.464,2.538 40.963,7.037C45.462,11.536 47.993,17.637 48,24ZM11.326,8.526L8.79,5.434C7.562,6.443 6.437,7.571 5.43,8.8L8.524,11.33C9.364,10.306 10.303,9.367 11.326,8.526ZM18.284,4.83L17.142,1C15.619,1.453 14.145,2.056 12.742,2.8L14.62,6.332C15.788,5.711 17.016,5.208 18.284,4.83L18.284,4.83ZM6.328,14.63L2.8,12.75C2.056,14.154 1.453,15.627 1,17.15L4.834,18.292C5.209,17.023 5.71,15.795 6.328,14.626L6.328,14.63ZM22,12L22,20.554C21.401,20.903 20.903,21.401 20.554,22L14,22L14,26L20.554,26C20.859,26.53 21.283,26.983 21.792,27.324C22.3,27.665 22.88,27.883 23.487,27.964C24.094,28.044 24.711,27.983 25.291,27.787C25.871,27.59 26.397,27.263 26.83,26.83C27.263,26.397 27.59,25.871 27.787,25.291C27.983,24.711 28.044,24.094 27.964,23.487C27.883,22.88 27.665,22.3 27.324,21.792C26.983,21.283 26.53,20.859 26,20.554L26,12L22,12Z" fill="#374957"/>
</svg>
