<svg width="48" height="48" viewBox="0 0 48 48" fill="none" xmlns="http://www.w3.org/2000/svg" xmlns:xlink="http://www.w3.org/1999/xlink">
<path d="M48,4L48,12L44,12L44,6.828L39.2,11.628C41.331,14.472 42.307,18.018 41.929,21.552C41.552,25.086 39.849,28.346 37.165,30.675C34.48,33.005 31.013,34.231 27.461,34.106C23.909,33.982 20.536,32.516 18.021,30.005C15.506,27.493 14.035,24.122 13.906,20.571C13.777,17.019 14.998,13.55 17.323,10.862C19.649,8.174 22.906,6.467 26.44,6.084C29.973,5.702 33.521,6.672 36.368,8.8L41.168,4L36,4L36,0L44,0C45.06,0 46.078,0.421 46.828,1.172C47.578,1.922 48,2.939 48,4ZM16,33.366C14.077,31.653 12.546,29.546 11.511,27.188C10.476,24.83 9.961,22.277 10.002,19.702C10.043,17.127 10.638,14.592 11.746,12.267C12.855,9.943 14.452,7.885 16.428,6.234C15.627,6.086 14.814,6.007 14,6C10.479,6.027 7.098,7.38 4.53,9.788C1.962,12.197 0.396,15.485 0.143,18.996C-0.109,22.508 0.971,25.986 3.169,28.737C5.366,31.488 8.519,33.31 12,33.84L12,38L6,38L6,42L12,42L12,48L16,48L16,42L22,42L22,38L16,38L16,33.366Z" fill="#374957"/>
</svg>
