<svg width="48" height="48" viewBox="0 0 48 48" fill="none" xmlns="http://www.w3.org/2000/svg" xmlns:xlink="http://www.w3.org/1999/xlink">
<path d="M30,44.563L18,47.563L18,3.848L30,0.628L30,44.563ZM14,2.834L8.31,0.466C7.398,0.086 6.407,-0.063 5.424,0.032C4.441,0.126 3.496,0.462 2.674,1.01C1.852,1.557 1.178,2.299 0.711,3.17C0.245,4.04 0.001,5.013 0,6L0,43.509L14,47.509L14,2.834ZM43.734,3.234L35.03,0.31C34.694,0.201 34.35,0.122 34,0.072L34,44.547L48,47.957L48,8.966C48,7.678 47.585,6.424 46.816,5.39C46.048,4.356 44.967,3.597 43.734,3.224L43.734,3.234Z" fill="#374957"/>
</svg>
