<svg width="50" height="50" viewBox="0 0 50 50" fill="none" xmlns="http://www.w3.org/2000/svg" xmlns:xlink="http://www.w3.org/1999/xlink">
<path d="M35.456,-0.001C32.798,-0.002 30.157,0.431 27.638,1.281C26.471,1.709 25.243,1.952 24,1.999C22.757,1.951 21.529,1.709 20.36,1.281C17.842,0.431 15.202,-0.002 12.544,-0.001C10.884,-0.049 9.231,0.243 7.688,0.857C6.145,1.471 4.743,2.393 3.568,3.567C2.394,4.742 1.472,6.143 0.858,7.687C0.245,9.23 -0.047,10.883 0,12.543C0,24.799 6.166,36.777 10.8,44.723C11.405,45.752 12.276,46.599 13.321,47.175C14.366,47.752 15.547,48.036 16.74,47.999C18.175,47.92 19.523,47.29 20.504,46.24C21.484,45.19 22.02,43.801 22,42.365L22,29.999C22,29.468 22.211,28.96 22.586,28.585C22.961,28.21 23.47,27.999 24,27.999C24.531,27.999 25.039,28.21 25.414,28.585C25.789,28.96 26,29.468 26,29.999L26,42.365C25.98,43.801 26.516,45.188 27.496,46.238C28.475,47.288 29.823,47.919 31.256,47.999C32.449,48.036 33.629,47.752 34.674,47.177C35.72,46.601 36.591,45.755 37.196,44.727C41.834,36.777 48,24.799 48,12.543C48.048,10.883 47.756,9.23 47.142,7.687C46.529,6.143 45.606,4.742 44.432,3.567C43.257,2.393 41.856,1.471 40.312,0.857C38.769,0.243 37.116,-0.049 35.456,-0.001L35.456,-0.001ZM32,41.719L32,29.999C32,27.877 31.157,25.842 29.657,24.342C28.157,22.842 26.122,21.999 24,21.999C21.878,21.999 19.844,22.842 18.343,24.342C16.843,25.842 16,27.877 16,29.999L16,41.719C11.71,34.375 6,23.351 6,12.543C5.958,11.672 6.099,10.803 6.413,9.99C6.727,9.177 7.207,8.438 7.823,7.822C8.44,7.206 9.178,6.725 9.991,6.411C10.804,6.097 11.674,5.957 12.544,5.999C14.611,5.998 16.664,6.343 18.616,7.021C20.348,7.629 22.165,7.959 24,7.999C25.835,7.959 27.651,7.629 29.382,7.021C31.335,6.343 33.389,5.998 35.456,5.999C36.327,5.956 37.197,6.095 38.011,6.409C38.824,6.722 39.563,7.203 40.18,7.819C40.796,8.436 41.277,9.175 41.59,9.988C41.904,10.802 42.043,11.672 42,12.543C42,23.351 36.29,34.375 32,41.719Z" fill="#374957"/>
</svg>
