<svg width="48" height="48" viewBox="0 0 48 48" fill="none" xmlns="http://www.w3.org/2000/svg" xmlns:xlink="http://www.w3.org/1999/xlink">
<path d="M40,18L38,18L38,11C38,10.204 37.684,9.441 37.121,8.879C36.559,8.316 35.796,8 35,8L32.58,8C32.156,6.639 31.225,5.494 29.98,4.8C28.89,4.192 27.644,3.922 26.4,4.026C25.855,4.087 25.304,4.006 24.799,3.791C24.294,3.577 23.854,3.235 23.52,2.8C22.789,1.849 21.827,1.101 20.725,0.628C19.623,0.154 18.418,-0.029 17.225,0.096C16.032,0.221 14.891,0.649 13.911,1.34C12.931,2.032 12.144,2.962 11.626,4.044C10.289,3.892 8.94,4.202 7.802,4.921C6.664,5.641 5.806,6.727 5.37,8L3,8C2.204,8 1.441,8.316 0.879,8.879C0.316,9.441 0,10.204 0,11L0,37C0.003,39.916 1.163,42.713 3.225,44.775C5.288,46.837 8.084,47.997 11,48L27,48C29.392,47.996 31.718,47.213 33.626,45.77C35.534,44.327 36.92,42.301 37.574,40L40,40C42.122,40 44.157,39.157 45.657,37.657C47.157,36.157 48,34.122 48,32L48,26C48,23.878 47.157,21.844 45.657,20.343C44.157,18.843 42.122,18 40,18L40,18ZM32,37C32,38.326 31.473,39.598 30.536,40.536C29.598,41.473 28.326,42 27,42L11,42C9.674,42 8.402,41.473 7.464,40.536C6.527,39.598 6,38.326 6,37L6,14L7,14C7.796,14 8.559,14.316 9.121,14.879C9.684,15.441 10,16.204 10,17L10,26C10,27.061 10.421,28.078 11.172,28.829C11.922,29.579 12.939,30 14,30C15.061,30 16.078,29.579 16.828,28.829C17.579,28.078 18,27.061 18,26L18,17C18,16.204 18.316,15.441 18.879,14.879C19.441,14.316 20.204,14 21,14L32,14L32,37ZM42,32C42,32.531 41.789,33.039 41.414,33.414C41.039,33.789 40.53,34 40,34L38,34L38,24L40,24C40.53,24 41.039,24.211 41.414,24.586C41.789,24.961 42,25.47 42,26L42,32Z" fill="#374957"/>
</svg>
