<svg width="48" height="48" viewBox="0 0 48 48" fill="none" xmlns="http://www.w3.org/2000/svg" xmlns:xlink="http://www.w3.org/1999/xlink">
<path d="M38,22L10,22L10,20C10.004,18.497 10.574,17.051 11.595,15.949C12.616,14.847 14.014,14.169 15.512,14.05L14,8C14,7.47 14.211,6.961 14.586,6.586C14.961,6.211 15.47,6 16,6L20,6C20.53,6 21.039,6.211 21.414,6.586C21.789,6.961 22,7.47 22,8L20.5,14L26.4,14L27.678,7.6C27.77,7.148 28.016,6.742 28.374,6.45C28.731,6.158 29.179,5.999 29.64,6L30.36,6C30.821,5.999 31.269,6.158 31.626,6.45C31.984,6.742 32.23,7.148 32.322,7.6L33.652,14.252C34.902,14.61 36.001,15.364 36.785,16.4C37.569,17.437 37.996,18.7 38,20L38,22ZM18,4C18.396,4 18.782,3.883 19.111,3.663C19.44,3.443 19.696,3.131 19.848,2.765C19.999,2.4 20.039,1.998 19.962,1.61C19.884,1.222 19.694,0.865 19.414,0.586C19.135,0.306 18.778,0.116 18.39,0.038C18.002,-0.039 17.6,0.001 17.235,0.152C16.869,0.304 16.557,0.56 16.337,0.889C16.117,1.218 16,1.604 16,2C16,2.53 16.211,3.039 16.586,3.414C16.961,3.789 17.47,4 18,4ZM30,4C30.396,4 30.782,3.883 31.111,3.663C31.44,3.443 31.696,3.131 31.848,2.765C31.999,2.4 32.039,1.998 31.962,1.61C31.884,1.222 31.694,0.865 31.414,0.586C31.135,0.306 30.778,0.116 30.39,0.038C30.002,-0.039 29.6,0.001 29.235,0.152C28.869,0.304 28.557,0.56 28.337,0.889C28.117,1.218 28,1.604 28,2C28,2.53 28.211,3.039 28.586,3.414C28.961,3.789 29.47,4 30,4ZM7.5,36C9.636,36 11,34.686 11,34L15,34C15,34.612 16.322,36 18.5,36C20.636,36 22,34.686 22,34L26,34C26,34.612 27.322,36 29.5,36C31.636,36 33,34.686 33,34L37,34C37,34.612 38.322,36 40.5,36C42.636,36 44,34.686 44,34L44,32C44,30.409 43.368,28.883 42.243,27.757C41.117,26.632 39.591,26 38,26L10,26C8.409,26 6.883,26.632 5.757,27.757C4.632,28.883 4,30.409 4,32L4,34C4,34.612 5.322,36 7.5,36ZM44,44L44,39.25C42.898,39.739 41.706,39.995 40.5,40C38.486,40.015 36.534,39.305 35,38C33.457,39.286 31.514,39.993 29.505,39.998C27.497,40.004 25.55,39.308 24,38.03C22.45,39.308 20.503,40.004 18.495,39.998C16.486,39.993 14.543,39.286 13,38C11.466,39.305 9.514,40.015 7.5,40C6.294,39.995 5.102,39.739 4,39.25L4,44L0,44L0,48L48,48L48,44L44,44Z" fill="#374957"/>
</svg>
