<svg width="48" height="48" viewBox="0 0 48 48" fill="none" xmlns="http://www.w3.org/2000/svg" xmlns:xlink="http://www.w3.org/1999/xlink">
<path d="M35.225,25.696L47.755,38.226L41.413,44.568C40.308,45.668 38.995,46.538 37.55,47.127C36.106,47.717 34.559,48.013 32.999,48C18.503,48 -0.001,29.496 -0.001,15C-0.014,13.44 0.283,11.893 0.872,10.449C1.461,9.005 2.331,7.692 3.431,6.586L9.773,0.244L22.303,12.774L14.053,21.024C16.507,26.852 21.137,31.494 26.959,33.962L35.225,25.696ZM43.057,0L33.999,0L33.999,4L41.229,4L29.999,15.24L32.827,18.068L43.999,6.886L43.999,14L47.999,14L47.999,5C48.006,3.682 47.489,2.415 46.563,1.478C45.636,0.541 44.375,0.009 43.057,0Z" fill="#374957"/>
</svg>
