<svg width="50" height="48" viewBox="0 0 50 48" fill="none" xmlns="http://www.w3.org/2000/svg" xmlns:xlink="http://www.w3.org/1999/xlink">
<path d="M48,19.751C48.105,17.13 47.667,14.516 46.714,12.073C45.761,9.629 44.314,7.409 42.462,5.551C39.166,2.399 34.89,0.469 30.345,0.084C25.8,-0.302 21.261,0.879 17.48,3.431C16.434,2.237 15.118,1.309 13.642,0.726C12.165,0.142 10.571,-0.081 8.991,0.076C7.411,0.232 5.891,0.763 4.558,1.625C3.225,2.487 2.116,3.654 1.325,5.03C0.533,6.407 0.081,7.952 0.007,9.538C-0.067,11.124 0.238,12.704 0.897,14.149C1.556,15.593 2.551,16.859 3.798,17.842C5.044,18.824 6.508,19.495 8.066,19.799C7.966,23.315 8.684,26.807 10.162,29.999C10.265,30.183 10.305,30.396 10.276,30.604C10.246,30.813 10.15,31.006 10,31.155L2.372,36.483L2.372,36.511C1.665,37.091 1.088,37.814 0.68,38.633C0.272,39.452 0.043,40.348 0.006,41.262C-0.03,42.176 0.128,43.088 0.469,43.936C0.81,44.785 1.328,45.552 1.987,46.186C2.646,46.821 3.432,47.308 4.294,47.616C5.155,47.925 6.072,48.047 6.984,47.976C7.896,47.904 8.782,47.64 9.585,47.201C10.387,46.762 11.088,46.158 11.64,45.429L11.66,45.441L16.8,37.999C16.946,37.832 17.142,37.718 17.36,37.675C17.577,37.632 17.802,37.662 18,37.761C20.771,39.172 23.817,39.961 26.924,40.075C27.69,40.08 28.455,40.027 29.212,39.915C33.944,39.53 38.381,37.458 41.714,34.077C45.565,30.282 47.815,25.155 48,19.751L48,19.751ZM6,9.999C6,9.208 6.235,8.435 6.674,7.777C7.114,7.119 7.739,6.606 8.469,6.304C9.2,6.001 10.005,5.922 10.781,6.076C11.556,6.23 12.269,6.611 12.829,7.171C13.388,7.73 13.769,8.443 13.923,9.219C14.078,9.995 13.998,10.799 13.696,11.53C13.393,12.261 12.88,12.885 12.222,13.325C11.565,13.764 10.791,13.999 10,13.999C8.939,13.999 7.922,13.578 7.172,12.827C6.422,12.077 6,11.06 6,9.999ZM30.756,33.599L15.492,18.341C16.875,17.432 18.011,16.194 18.798,14.738C19.585,13.282 19.998,11.654 20,9.999C19.984,9.676 19.951,9.353 19.902,9.033C22.54,6.953 25.836,5.886 29.193,6.027C32.55,6.168 35.745,7.506 38.2,9.799C39.473,11.078 40.467,12.606 41.121,14.287C41.775,15.968 42.074,17.767 42,19.569C41.859,23.443 40.241,27.116 37.478,29.835C35.638,31.7 33.307,33.005 30.756,33.599L30.756,33.599Z" fill="#374957"/>
</svg>
