<svg width="48" height="48" viewBox="0 0 48 48" fill="none" xmlns="http://www.w3.org/2000/svg" xmlns:xlink="http://www.w3.org/1999/xlink">
<path d="M42,8L36,8L36,4C36,2.939 35.579,1.922 34.828,1.172C34.078,0.421 33.061,0 32,0L16,0C14.939,0 13.922,0.421 13.172,1.172C12.421,1.922 12,2.939 12,4L12,8L6,8C4.409,8 2.883,8.632 1.757,9.757C0.632,10.883 0,12.409 0,14L0,48L48,48L48,14C48,12.409 47.368,10.883 46.243,9.757C45.117,8.632 43.591,8 42,8L42,8ZM16,4L32,4L32,8L16,8L16,4ZM6,12L42,12C42.53,12 43.039,12.211 43.414,12.586C43.789,12.961 44,13.47 44,14L44,24L4,24L4,14C4,13.47 4.211,12.961 4.586,12.586C4.961,12.211 5.47,12 6,12L6,12ZM4,44L4,28L22,28L22,32L26,32L26,28L44,28L44,44L4,44Z" fill="#374957"/>
</svg>
