<svg width="44" height="48" viewBox="0 0 44 48" fill="none" xmlns="http://www.w3.org/2000/svg" xmlns:xlink="http://www.w3.org/1999/xlink">
<path d="M30.763,8.134C28.366,6.103 25.897,3.995 23.398,1.504L21.974,0.09L20.575,1.506C16.077,6.017 13.951,12.942 13.028,17.097C12.322,16.003 11.798,14.8 11.476,13.538L10.631,10.276L8.174,12.585C3.869,16.626 0.999,20.635 0.999,27.055C0.916,36.583 7.326,44.946 16.548,47.343C17.899,47.671 19.277,47.872 20.665,47.942C21.121,47.975 22.427,48.008 22.651,47.994C33.965,47.654 42.958,38.379 42.948,27.059C42.948,18.482 37.301,13.687 30.763,8.134ZM22.36,43.973C22.151,43.991 21.961,43.993 21.75,43.991C18.014,43.877 15.043,40.821 15.034,37.083C15.034,34.552 16.391,33.29 19.464,30.675C20.238,30.016 21.081,29.299 21.967,28.479C22.744,29.184 23.498,29.823 24.195,30.415C27.282,33.035 28.893,34.522 28.893,37.077C28.886,40.743 26.021,43.768 22.36,43.973ZM32.382,40.437L32.343,40.465C32.701,39.374 32.884,38.232 32.886,37.083C32.886,32.562 29.919,30.042 26.781,27.377C25.669,26.434 24.521,25.46 23.375,24.314L21.961,22.903L20.55,24.314C19.256,25.606 17.99,26.684 16.874,27.634C13.744,30.298 11.039,32.599 11.039,37.083C11.043,38.282 11.245,39.471 11.638,40.603C7.425,37.368 4.967,32.351 4.992,27.039C4.959,23.536 6.315,20.162 8.763,17.656C9.185,18.512 9.684,19.326 10.256,20.09C11.11,21.241 12.566,21.776 13.962,21.449C15.381,21.133 16.484,20.017 16.783,18.595C17.619,14.006 19.427,9.65 22.085,5.818C24.191,7.814 26.278,9.581 28.16,11.18C34.413,16.49 38.941,20.327 38.941,27.051C38.951,32.29 36.527,37.236 32.381,40.437L32.382,40.437L32.382,40.437Z" fill="#374957"/>
</svg>
