<svg width="48" height="24" viewBox="0 0 48 24" fill="none" xmlns="http://www.w3.org/2000/svg" xmlns:xlink="http://www.w3.org/1999/xlink">
<path d="M42,24L6,24C4.409,24 2.883,23.368 1.757,22.243C0.632,21.117 0,19.591 0,18L0,0L16,0L16,4C16,5.061 16.421,6.078 17.172,6.828C17.922,7.579 18.939,8 20,8L28,8C29.061,8 30.078,7.579 30.828,6.828C31.579,6.078 32,5.061 32,4L32,0L48,0L48,18C48,19.591 47.368,21.117 46.243,22.243C45.117,23.368 43.591,24 42,24ZM4,4L4,18C4,18.53 4.211,19.039 4.586,19.414C4.961,19.789 5.47,20 6,20L42,20C42.53,20 43.039,19.789 43.414,19.414C43.789,19.039 44,18.53 44,18L44,4L36,4C36,6.122 35.157,8.157 33.657,9.657C32.157,11.157 30.122,12 28,12L20,12C17.878,12 15.843,11.157 14.343,9.657C12.843,8.157 12,6.122 12,4L4,4Z" fill="#374957"/>
</svg>
