<svg width="48" height="48" viewBox="0 0 48 48" fill="none" xmlns="http://www.w3.org/2000/svg" xmlns:xlink="http://www.w3.org/1999/xlink">
<path d="M43,2.002L27,2.002C25.674,2.002 24.402,2.529 23.464,3.466C22.527,4.404 22,5.676 22,7.002L22,7.602L19.47,3.214C19.15,2.623 18.716,2.102 18.194,1.681C17.671,1.259 17.07,0.945 16.426,0.758C15.353,0.456 14.211,0.521 13.18,0.942C12.149,1.364 11.288,2.117 10.734,3.084L0.75,20.376C0.399,20.948 0.166,21.584 0.063,22.247C-0.04,22.91 -0.01,23.586 0.15,24.238C0.425,25.315 1.051,26.27 1.929,26.952C2.807,27.633 3.888,28.003 5,28.002L10.4,28.002C9.796,30.108 9.689,32.325 10.089,34.48C10.488,36.634 11.382,38.666 12.701,40.416C14.019,42.166 15.726,43.585 17.687,44.563C19.648,45.54 21.809,46.049 24,46.049C26.191,46.049 28.352,45.54 30.312,44.563C32.273,43.585 33.98,42.166 35.299,40.416C36.617,38.666 37.511,36.634 37.911,34.48C38.31,32.325 38.204,30.108 37.6,28.002L43,28.002C43.656,28.002 44.307,27.872 44.913,27.621C45.52,27.37 46.071,27.002 46.535,26.537C47,26.073 47.368,25.522 47.619,24.915C47.87,24.309 48,23.658 48,23.002L48,7.002C48,6.345 47.87,5.695 47.619,5.088C47.368,4.482 47,3.931 46.535,3.466C46.071,3.002 45.52,2.634 44.913,2.382C44.307,2.131 43.656,2.002 43,2.002L43,2.002ZM6.74,22.002L15.064,7.584L21.084,18.002C18.33,18.584 15.813,19.977 13.858,22.002L6.74,22.002ZM24,40.002C22.388,40.002 20.813,39.524 19.473,38.629C18.133,37.733 17.089,36.461 16.472,34.972C15.855,33.483 15.694,31.845 16.008,30.264C16.323,28.684 17.099,27.232 18.238,26.092C19.378,24.953 20.83,24.177 22.41,23.862C23.991,23.548 25.629,23.709 27.118,24.326C28.607,24.943 29.879,25.987 30.775,27.327C31.67,28.667 32.148,30.242 32.148,31.854C32.145,34.014 31.286,36.085 29.758,37.612C28.231,39.14 26.16,39.999 24,40.002L24,40.002ZM42,22.002L34.142,22.002C32.428,20.28 30.319,19.001 28,18.278L28,8.002L42,8.002L42,22.002Z" fill="#374957"/>
</svg>
