<svg width="32" height="48" viewBox="0 0 32 48" fill="none" xmlns="http://www.w3.org/2000/svg" xmlns:xlink="http://www.w3.org/1999/xlink">
<path d="M32,15.999C32.002,12.919 31.116,9.904 29.447,7.316C27.778,4.728 25.398,2.676 22.592,1.407C19.785,0.138 16.673,-0.293 13.627,0.163C10.581,0.62 7.732,1.946 5.422,3.982C3.111,6.018 1.437,8.678 0.601,11.642C-0.235,14.606 -0.198,17.748 0.708,20.692C1.613,23.635 3.349,26.255 5.707,28.236C8.065,30.217 10.944,31.476 14,31.861L14,37.999L8,37.999L8,41.999L14,41.999L14,47.999L18,47.999L18,41.999L24,41.999L24,37.999L18,37.999L18,31.861C21.863,31.371 25.415,29.49 27.992,26.571C30.569,23.651 31.994,19.893 32,15.999ZM4,15.999C4,13.625 4.704,11.305 6.022,9.332C7.341,7.359 9.215,5.821 11.408,4.912C13.601,4.004 16.013,3.766 18.341,4.229C20.669,4.692 22.807,5.835 24.485,7.514C26.164,9.192 27.306,11.33 27.769,13.658C28.232,15.986 27.995,18.398 27.087,20.591C26.178,22.784 24.64,24.658 22.667,25.977C20.693,27.295 18.373,27.999 16,27.999C12.818,27.996 9.768,26.73 7.518,24.481C5.268,22.231 4.003,19.18 4,15.999Z" fill="#374957"/>
</svg>
