<svg width="16" height="16" viewBox="0 0 16 16" fill="none" xmlns="http://www.w3.org/2000/svg" xmlns:xlink="http://www.w3.org/1999/xlink">
<path d="M14.274,5.71C13.327,5.44 12.464,4.932 11.766,4.235C11.069,3.539 10.561,2.676 10.29,1.728L10.29,1.728C10.148,1.231 9.847,0.793 9.434,0.482C9.021,0.17 8.518,0.002 8,0.002C7.483,0.002 6.98,0.17 6.566,0.482C6.153,0.793 5.853,1.231 5.71,1.728L5.71,1.728C5.439,2.676 4.932,3.538 4.235,4.235C3.538,4.932 2.676,5.439 1.728,5.71L1.728,5.71C1.231,5.853 0.793,6.153 0.482,6.566C0.17,6.98 0.002,7.483 0.002,8C0.002,8.518 0.17,9.021 0.482,9.434C0.793,9.847 1.231,10.148 1.728,10.29L1.728,10.29C2.676,10.561 3.538,11.069 4.235,11.766C4.932,12.462 5.439,13.325 5.71,14.272L5.71,14.272C5.853,14.77 6.153,15.207 6.566,15.519C6.98,15.83 7.483,15.999 8,15.999C8.518,15.999 9.021,15.83 9.434,15.519C9.847,15.207 10.148,14.77 10.29,14.272L10.29,14.272C10.561,13.325 11.069,12.462 11.766,11.766C12.462,11.069 13.325,10.561 14.272,10.29L14.272,10.29C14.77,10.148 15.207,9.848 15.519,9.435C15.831,9.022 16,8.519 16,8.001C16,7.484 15.832,6.98 15.52,6.567C15.209,6.154 14.772,5.853 14.274,5.71L14.274,5.71Z" fill="#374957"/>
</svg>
