<svg width="50" height="48" viewBox="0 0 50 48" fill="none" xmlns="http://www.w3.org/2000/svg" xmlns:xlink="http://www.w3.org/1999/xlink">
<path d="M35.133,47.999L26.001,47.999L26.001,29.999C26.001,29.468 25.79,28.959 25.415,28.584C25.04,28.209 24.531,27.999 24.001,27.999C23.47,27.999 22.961,28.209 22.586,28.584C22.211,28.959 22.001,29.468 22.001,29.999L22.001,47.999L12.868,47.999L12.286,47.029C6.566,37.495 0,24.899 0,11.999C-0.06,10.406 0.209,8.819 0.791,7.336C1.373,5.853 2.254,4.506 3.381,3.379C4.508,2.252 5.855,1.371 7.338,0.789C8.821,0.207 10.408,-0.062 12,-0.001C14.659,0 17.3,0.415 19.83,1.229C21.174,1.694 22.58,1.954 24.001,1.999C25.421,1.954 26.827,1.694 28.171,1.229C30.701,0.414 33.342,-0.001 36.001,-0.001C37.593,-0.062 39.18,0.207 40.663,0.789C42.146,1.371 43.493,2.252 44.62,3.379C45.747,4.506 46.628,5.853 47.21,7.336C47.792,8.819 48.061,10.406 48.001,11.999C48.001,24.899 41.437,37.495 35.715,47.029L35.133,47.999ZM30.001,43.999L32.865,43.999C38.173,35.037 44.001,23.497 44.001,11.999C44.043,10.937 43.865,9.878 43.478,8.888C43.091,7.898 42.503,6.999 41.751,6.248C41,5.496 40.101,4.908 39.111,4.521C38.122,4.134 37.062,3.956 36.001,3.999C33.719,3.997 31.452,4.359 29.285,5.071C27.58,5.643 25.798,5.956 24.001,5.999C22.203,5.956 20.421,5.643 18.716,5.071C16.549,4.359 14.282,3.998 12,3.999C4.09,3.999 4,11.673 4,11.999C4,23.497 9.828,35.037 15.136,43.999L18,43.999L18,29.999C18,28.407 18.633,26.881 19.758,25.756C20.883,24.631 22.409,23.999 24.001,23.999C25.592,23.999 27.118,24.631 28.243,25.756C29.368,26.881 30.001,28.407 30.001,29.999L30.001,43.999Z" fill="#374957"/>
</svg>
