<svg width="48" height="50" viewBox="0 0 48 50" fill="none" xmlns="http://www.w3.org/2000/svg" xmlns:xlink="http://www.w3.org/1999/xlink">
<path d="M46.527,29.519C46.018,28.981 45.393,28.566 44.7,28.307C44.007,28.048 43.263,27.951 42.527,28.023C36.736,28.37 31.246,30.722 27.001,34.675L27.001,29.637C29.845,28.96 32.378,27.345 34.192,25.053C36.006,22.761 36.995,19.924 37.001,17.001C37.001,11.055 32.969,6.141 29.027,2.119C27.684,0.804 25.88,0.068 24.001,0.068C22.121,0.068 20.317,0.804 18.974,2.119C15.032,6.141 11,11.055 11,17.001C11.006,19.924 11.995,22.761 13.809,25.053C15.623,27.345 18.156,28.96 21.001,29.637L21.001,34.675C16.754,30.722 11.265,28.37 5.474,28.023C4.738,27.951 3.995,28.049 3.302,28.308C2.608,28.567 1.983,28.981 1.474,29.519C0.931,30.102 0.525,30.801 0.287,31.562C0.049,32.324 -0.014,33.129 0.1,33.919C1.722,45.265 13.3,48.135 21.219,48.135C31.243,48.421 45.419,47.821 47.901,33.919C48.015,33.129 47.951,32.324 47.713,31.563C47.475,30.801 47.07,30.103 46.527,29.519L46.527,29.519ZM17,17.001C17.379,13.886 18.787,10.988 21.001,8.765L21.001,15.001C21.001,15.796 21.317,16.559 21.879,17.122C22.442,17.685 23.205,18.001 24.001,18.001C24.796,18.001 25.559,17.685 26.122,17.122C26.684,16.559 27.001,15.796 27.001,15.001L27.001,8.765C29.214,10.988 30.622,13.886 31.001,17.001C31.001,18.857 30.263,20.638 28.95,21.95C27.638,23.263 25.857,24.001 24.001,24.001C22.144,24.001 20.364,23.263 19.051,21.95C17.738,20.638 17,18.857 17,17.001L17,17.001ZM6.254,34.155C8.891,34.42 11.435,35.268 13.705,36.636C15.974,38.004 17.911,39.859 19.376,42.067C14.738,41.801 7.834,40.325 6.254,34.155ZM28.625,42.067C30.09,39.859 32.028,38.005 34.297,36.637C36.566,35.268 39.11,34.421 41.747,34.155C40.169,40.325 33.263,41.801 28.625,42.067L28.625,42.067Z" fill="#374957"/>
</svg>
