<svg width="48" height="48" viewBox="0 0 48 48" fill="none" xmlns="http://www.w3.org/2000/svg" xmlns:xlink="http://www.w3.org/1999/xlink">
<path d="M36.005,4.075L36.005,12.044L32.021,12.044L32.021,6.892L25.247,13.666C29.885,19.853 28.629,28.629 22.442,33.267C16.255,37.905 7.479,36.649 2.841,30.462C-1.797,24.274 -0.541,15.499 5.646,10.861C10.617,7.134 17.45,7.129 22.426,10.849L29.2,4.075L24.052,4.075L24.052,0.091L32.021,0.091C34.221,0.091 36.005,1.875 36.005,4.075ZM43.974,12.044L36.005,12.044L36.005,16.029L41.157,16.029L34.357,22.828C33.619,22.261 32.825,21.77 31.989,21.362C31.989,21.577 32.021,21.788 32.021,22.005C32.01,31.903 23.989,39.924 14.091,39.935C13.874,39.935 13.662,39.909 13.447,39.903C16.722,46.867 25.022,49.857 31.986,46.582C36.876,44.282 39.995,39.362 39.989,33.958C39.983,30.954 38.996,28.033 37.178,25.641L43.974,18.846L43.974,23.997L47.958,23.997L47.958,16.029C47.958,13.828 46.174,12.044 43.974,12.044Z" fill="#374957"/>
</svg>
