<svg width="48" height="48" viewBox="0 0 48 48" fill="none" xmlns="http://www.w3.org/2000/svg" xmlns:xlink="http://www.w3.org/1999/xlink">
<path d="M38.065,3.974L34.672,0.582L29.533,0.582L24.749,5.38L24.749,10.517L26.525,12.293L24.914,17.125L17.125,24.914L12.293,26.525L10.517,24.749L5.381,24.749L0.582,29.533L0.582,34.672L3.974,38.064L0,42.039L5.961,48L9.935,44.026L13.328,47.418L18.467,47.418L23.251,42.62L23.251,37.483L21.475,35.707L23.086,30.875L30.875,23.086L35.707,21.475L37.483,23.251L42.619,23.251L47.418,18.467L47.418,13.328L44.026,9.935L48,5.961L42.039,0L38.065,3.974ZM5.961,44.026L3.974,42.039L5.961,40.052L7.948,42.039L5.961,44.026ZM14.492,44.608L3.392,33.508L3.392,30.699L3.976,30.118L5.961,32.104L7.948,30.116L5.966,28.134L6.542,27.56L9.353,27.56L20.44,38.647L20.44,41.458L19.866,42.034L17.884,40.052L15.896,42.039L17.882,44.024L17.301,44.608L14.492,44.608ZM14.514,28.746L17.504,27.75L20.25,30.496L19.254,33.486L14.514,28.746ZM21.858,28.129L19.871,26.142L26.142,19.871L28.129,21.858L21.858,28.129ZM30.496,20.25L27.75,17.504L28.746,14.514L33.486,19.254L30.496,20.25ZM44.608,17.301L44.024,17.882L42.038,15.896L40.051,17.884L42.034,19.866L41.458,20.44L38.647,20.44L27.56,9.353L27.56,6.542L28.134,5.966L30.116,7.948L32.103,5.961L30.118,3.976L30.699,3.392L33.508,3.392L44.608,14.492L44.608,17.301ZM42.039,7.948L40.052,5.961L42.039,3.974L44.026,5.961L42.039,7.948Z" fill="#000000"/>
</svg>
