<svg width="40" height="48" viewBox="0 0 40 48" fill="none" xmlns="http://www.w3.org/2000/svg" xmlns:xlink="http://www.w3.org/1999/xlink">
<path d="M18.725,28L22.757,28L21.253,40L17.221,40L18.725,28ZM39.855,15.306L35.767,48L4.235,48L0.113,15.112C-0.043,14.247 -0.008,13.358 0.216,12.508C0.439,11.657 0.845,10.866 1.406,10.189C1.966,9.511 2.668,8.965 3.462,8.587C4.255,8.209 5.122,8.008 6.001,8L21.231,8L22.231,0L36.001,0L36.001,4L25.767,4L25.265,8L34.001,8C34.9,8 35.787,8.202 36.598,8.591C37.408,8.98 38.121,9.546 38.683,10.247C39.245,10.949 39.642,11.768 39.846,12.643C40.049,13.519 40.053,14.429 39.857,15.306L39.855,15.306ZM24.763,12L23.763,20L35.247,20L35.921,14.624C36.011,14.305 36.025,13.97 35.963,13.645C35.901,13.32 35.764,13.013 35.563,12.75C35.376,12.516 35.138,12.327 34.868,12.197C34.597,12.067 34.301,12 34.001,12L24.763,12ZM4.049,14.432L4.749,20L19.729,20L20.729,12L6.001,12C5.703,12.002 5.408,12.071 5.14,12.201C4.871,12.331 4.635,12.52 4.448,12.753C4.261,12.985 4.128,13.257 4.059,13.547C3.99,13.838 3.987,14.14 4.049,14.432ZM32.235,44L34.743,24L5.251,24L7.765,44L32.235,44Z" fill="#374957"/>
</svg>
