<svg width="48" height="44" viewBox="0 0 48 44" fill="none" xmlns="http://www.w3.org/2000/svg" xmlns:xlink="http://www.w3.org/1999/xlink">
<path d="M37.364,7.999L33.63,7.999C33.047,5.716 31.723,3.692 29.865,2.244C28.007,0.795 25.72,0.006 23.364,-0.001L10.636,-0.001C7.816,0.002 5.113,1.124 3.119,3.117C1.125,5.111 0.003,7.815 0,10.635L0,29.273C0.007,31.111 0.594,32.899 1.679,34.382C2.764,35.866 4.291,36.968 6.04,37.531C6.028,37.687 6,37.839 6,37.999C6,39.59 6.632,41.116 7.757,42.241C8.883,43.367 10.409,43.999 12,43.999C13.591,43.999 15.117,43.367 16.243,42.241C17.368,41.116 18,39.59 18,37.999L30,37.999C30,39.59 30.632,41.116 31.757,42.241C32.883,43.367 34.409,43.999 36,43.999C37.591,43.999 39.117,43.367 40.243,42.241C41.368,41.116 42,39.59 42,37.999C42,37.839 41.972,37.689 41.96,37.533C43.71,36.969 45.236,35.867 46.321,34.383C47.406,32.9 47.994,31.111 48,29.273L48,18.543C47.985,15.735 46.857,13.048 44.863,11.071C42.869,9.094 40.172,7.989 37.364,7.999L37.364,7.999ZM42,18.543L42,19.999L34,19.999L34,13.999L37.364,13.999C37.968,13.986 38.569,14.095 39.131,14.317C39.694,14.54 40.206,14.873 40.637,15.296C41.069,15.719 41.412,16.225 41.646,16.782C41.88,17.34 42,17.938 42,18.543ZM8.728,31.999C8.005,31.998 7.312,31.711 6.8,31.2C6.289,30.689 6.001,29.996 6,29.273L6,10.635C6.002,9.406 6.491,8.227 7.36,7.358C8.229,6.489 9.407,6 10.636,5.999L23.364,5.999C24.593,6 25.771,6.489 26.64,7.358C27.509,8.227 27.998,9.406 28,10.635L28,31.999L8.728,31.999ZM39.274,31.999L34,31.999L34,25.999L42,25.999L42,29.273C41.999,29.996 41.712,30.689 41.201,31.2C40.69,31.711 39.997,31.998 39.274,31.999L39.274,31.999Z" fill="#374957"/>
</svg>
