<svg width="48" height="48" viewBox="0 0 48 48" fill="none" xmlns="http://www.w3.org/2000/svg" xmlns:xlink="http://www.w3.org/1999/xlink">
<path d="M4.667,29.148L0.801,30.178C0.443,28.831 0.204,27.455 0.087,26.066L4.071,25.728C4.171,26.883 4.37,28.027 4.667,29.148L4.667,29.148ZM6.979,40.916C7.96,41.905 9.026,42.807 10.165,43.61L12.469,40.342C11.521,39.672 10.633,38.921 9.815,38.098L6.979,40.916ZM5.851,32.416L2.225,34.102C2.811,35.365 3.506,36.574 4.303,37.716L7.585,35.43C6.922,34.477 6.342,33.468 5.851,32.416L5.851,32.416ZM4.675,18.816L0.811,17.8C0.452,19.146 0.211,20.52 0.091,21.908L4.075,22.258C4.176,21.098 4.377,19.948 4.675,18.822L4.675,18.816ZM7.601,12.548L4.325,10.256C3.526,11.398 2.829,12.607 2.241,13.87L5.867,15.558C6.357,14.507 6.938,13.5 7.601,12.548L7.601,12.548ZM13.801,2.274L15.505,5.892C16.555,5.398 17.647,4.997 18.767,4.692L17.711,0.834C16.368,1.199 15.06,1.681 13.801,2.274L13.801,2.274ZM7.001,7.062L9.835,9.88C10.654,9.059 11.543,8.309 12.491,7.64L10.187,4.372C9.048,5.174 7.982,6.074 7.001,7.062L7.001,7.062ZM13.763,45.714C15.025,46.31 16.336,46.793 17.683,47.158L18.729,43.298C17.61,42.994 16.521,42.593 15.473,42.098L13.763,45.714ZM24.001,0C23.267,0 22.541,0.034 21.823,0.098L22.183,4.082C22.783,4.028 23.383,4 24.001,4C29.305,4 34.392,6.107 38.143,9.858C41.894,13.609 44.001,18.696 44.001,24C44.001,29.304 41.894,34.391 38.143,38.142C34.392,41.893 29.305,44 24.001,44C23.387,44 22.783,43.972 22.183,43.918L21.823,47.902C22.541,47.966 23.267,48 24.001,48C30.366,48 36.471,45.471 40.972,40.971C45.472,36.47 48.001,30.365 48.001,24C48.001,17.635 45.472,11.53 40.972,7.029C36.471,2.529 30.366,0 24.001,0L24.001,0ZM22.001,34L26.001,34L26.001,27.446C26.609,27.099 27.114,26.598 27.465,25.992C27.817,25.387 28.002,24.7 28.002,24C28.002,23.3 27.817,22.613 27.465,22.008C27.114,21.402 26.609,20.901 26.001,20.554L26.001,12L22.001,12L22.001,20.554C21.393,20.901 20.888,21.402 20.537,22.008C20.185,22.613 20,23.3 20,24C20,24.7 20.185,25.387 20.537,25.992C20.888,26.598 21.393,27.099 22.001,27.446L22.001,34Z" fill="#374957"/>
</svg>
