<svg width="48" height="50" viewBox="0 0 48 50" fill="none" xmlns="http://www.w3.org/2000/svg" xmlns:xlink="http://www.w3.org/1999/xlink">
<path d="M41.625,14.168L41.625,14.152C39.568,10.502 36.434,7.577 32.651,5.776C32.173,4.115 31.169,2.653 29.789,1.612C28.409,0.57 26.728,0.004 24.999,0L22.999,0C21.271,0.006 19.592,0.572 18.213,1.613C16.835,2.655 15.831,4.116 15.353,5.776C11.571,7.575 8.442,10.506 6.399,14.162C4.763,14.493 3.272,15.329 2.135,16.553C0.999,17.776 0.276,19.326 0.067,20.982C-0.142,22.638 0.173,24.319 0.97,25.786C1.766,27.254 3.002,28.434 4.505,29.162C5.224,31.881 6.514,34.416 8.289,36.597C10.064,38.779 12.283,40.557 14.799,41.814L14.125,44.176C14.008,44.557 13.968,44.958 14.008,45.355C14.047,45.752 14.166,46.137 14.356,46.488C14.546,46.839 14.805,47.148 15.116,47.398C15.427,47.647 15.785,47.832 16.169,47.942C16.552,48.052 16.954,48.084 17.35,48.036C17.746,47.989 18.129,47.863 18.476,47.665C18.823,47.468 19.127,47.204 19.37,46.887C19.613,46.571 19.791,46.21 19.893,45.824L20.493,43.702C21.651,43.9 22.824,43.999 23.999,44C25.174,43.999 26.347,43.898 27.505,43.698L28.105,45.824C28.207,46.21 28.385,46.571 28.628,46.887C28.872,47.204 29.176,47.468 29.523,47.665C29.87,47.863 30.252,47.989 30.648,48.036C31.045,48.084 31.446,48.052 31.83,47.942C32.213,47.832 32.571,47.647 32.883,47.398C33.194,47.148 33.452,46.839 33.643,46.488C33.833,46.137 33.951,45.752 33.991,45.355C34.03,44.958 33.99,44.557 33.873,44.176L33.199,41.8C35.714,40.541 37.933,38.763 39.709,36.582C41.485,34.402 42.779,31.869 43.503,29.152C45.002,28.423 46.234,27.244 47.028,25.779C47.822,24.314 48.137,22.637 47.929,20.984C47.721,19.331 47.001,17.784 45.869,16.562C44.738,15.339 43.251,14.501 41.619,14.166L41.625,14.168ZM39.999,24L37.999,24C37.469,24 36.96,23.789 36.585,23.414C36.21,23.039 35.999,22.53 35.999,22C35.999,21.47 36.21,20.961 36.585,20.586C36.96,20.211 37.469,20 37.999,20L39.999,20C40.53,20 41.038,20.211 41.413,20.586C41.789,20.961 41.999,21.47 41.999,22C41.999,22.53 41.789,23.039 41.413,23.414C41.038,23.789 40.53,24 39.999,24ZM22.999,6L24.999,6C25.53,6 26.038,6.211 26.413,6.586C26.789,6.961 26.999,7.47 26.999,8C26.999,8.53 26.789,9.039 26.413,9.414C26.038,9.789 25.53,10 24.999,10L22.999,10C22.469,10 21.96,9.789 21.585,9.414C21.21,9.039 20.999,8.53 20.999,8C20.999,7.47 21.21,6.961 21.585,6.586C21.96,6.211 22.469,6 22.999,6L22.999,6ZM9.999,24L7.999,24C7.469,24 6.96,23.789 6.585,23.414C6.21,23.039 5.999,22.53 5.999,22C5.999,21.47 6.21,20.961 6.585,20.586C6.96,20.211 7.469,20 7.999,20L9.999,20C10.53,20 11.038,20.211 11.413,20.586C11.788,20.961 11.999,21.47 11.999,22C11.999,22.53 11.788,23.039 11.413,23.414C11.038,23.789 10.53,24 9.999,24ZM23.999,38C23.385,37.988 22.773,37.937 22.165,37.848L23.999,31.434L25.839,37.87C25.229,37.953 24.615,37.996 23.999,38L23.999,38ZM31.513,35.886L29.271,28.048C28.962,26.891 28.281,25.867 27.333,25.136C26.385,24.404 25.222,24.004 24.025,23.999C22.827,23.993 21.661,24.382 20.706,25.105C19.751,25.828 19.061,26.846 18.741,28L16.491,35.866C14.149,34.449 12.281,32.367 11.125,29.886C12.837,29.651 14.425,28.866 15.652,27.649C16.878,26.433 17.675,24.85 17.924,23.141C18.172,21.431 17.858,19.687 17.028,18.172C16.199,16.657 14.899,15.452 13.325,14.74C14.167,13.76 15.138,12.9 16.211,12.182C16.922,13.346 17.919,14.307 19.107,14.976C20.296,15.644 21.636,15.997 22.999,16L24.999,16C26.367,15.997 27.711,15.642 28.902,14.969C30.092,14.297 31.09,13.329 31.799,12.16C32.875,12.885 33.847,13.752 34.689,14.738C33.114,15.449 31.812,16.654 30.981,18.17C30.15,19.686 29.835,21.431 30.084,23.142C30.332,24.852 31.131,26.436 32.358,27.653C33.586,28.87 35.176,29.654 36.889,29.888C35.727,32.373 33.857,34.46 31.513,35.886L31.513,35.886Z" fill="#374957"/>
</svg>
