<svg width="48" height="48" viewBox="0 0 48 48" fill="none" xmlns="http://www.w3.org/2000/svg" xmlns:xlink="http://www.w3.org/1999/xlink">
<path d="M42,0L6,0C4.409,0 2.883,0.632 1.757,1.757C0.632,2.883 0,4.409 0,6L0,48L36.828,48L48,36.828L48,6C48,4.409 47.368,2.883 46.243,1.757C45.117,0.632 43.591,0 42,0L42,0ZM36,43.172L36,36L43.172,36L36,43.172ZM44,32L32,32L32,44L4,44L4,6C4,5.47 4.211,4.961 4.586,4.586C4.961,4.211 5.47,4 6,4L42,4C42.53,4 43.039,4.211 43.414,4.586C43.789,4.961 44,5.47 44,6L44,32ZM21.934,10L18,10L18,22.138L20.5,22.138L20.5,17.938L21.934,17.938C22.987,17.938 23.997,17.52 24.741,16.775C25.486,16.031 25.904,15.021 25.904,13.968C25.904,12.915 25.486,11.905 24.741,11.161C23.997,10.416 22.987,9.998 21.934,9.998L21.934,10ZM21.934,15.44L20.514,15.44L20.514,12.494L21.944,12.494C22.334,12.494 22.708,12.649 22.983,12.925C23.259,13.2 23.414,13.574 23.414,13.964C23.414,14.354 23.259,14.728 22.983,15.003C22.708,15.279 22.334,15.434 21.944,15.434L21.934,15.44ZM30.502,14L30.502,18.136C30.5,18.334 30.537,18.53 30.611,18.713C30.685,18.896 30.796,19.062 30.935,19.202C31.075,19.342 31.241,19.453 31.424,19.527C31.606,19.602 31.802,19.64 32,19.638C32.391,19.634 32.766,19.478 33.045,19.204C33.325,18.93 33.488,18.559 33.5,18.168L33.5,18L32,18L32,16L36,16L36,18.168C35.992,19.223 35.566,20.233 34.817,20.976C34.068,21.719 33.055,22.136 32,22.136L32,22.136C31.477,22.138 30.958,22.038 30.473,21.839C29.989,21.641 29.548,21.349 29.177,20.98C28.805,20.612 28.51,20.173 28.308,19.69C28.106,19.207 28.002,18.689 28,18.166L28,13.966C28.002,13.443 28.107,12.925 28.309,12.443C28.512,11.96 28.807,11.523 29.178,11.154C29.55,10.786 29.99,10.494 30.474,10.296C30.958,10.098 31.477,9.998 32,10C33.059,10.007 34.072,10.43 34.821,11.179C35.57,11.928 35.993,12.941 36,14L33.5,14C33.489,13.606 33.327,13.231 33.048,12.952C32.769,12.673 32.394,12.511 32,12.5C31.803,12.498 31.607,12.536 31.424,12.61C31.241,12.685 31.075,12.796 30.936,12.935C30.796,13.075 30.686,13.241 30.612,13.424C30.537,13.607 30.5,13.803 30.502,14L30.502,14ZM13.5,10L16,10L16,18.168C15.998,18.691 15.894,19.209 15.692,19.692C15.49,20.175 15.195,20.614 14.823,20.982C14.452,21.351 14.011,21.643 13.527,21.841C13.042,22.04 12.523,22.14 12,22.138L12,22.138C10.944,22.138 9.931,21.721 9.182,20.977C8.433,20.233 8.008,19.224 8,18.168L8,18L10.51,18C10.51,18 10.51,18.108 10.51,18.168C10.522,18.557 10.684,18.927 10.961,19.201C11.238,19.475 11.61,19.631 12,19.638C12.198,19.64 12.394,19.602 12.576,19.527C12.759,19.453 12.925,19.342 13.065,19.202C13.204,19.062 13.315,18.896 13.389,18.713C13.463,18.53 13.5,18.334 13.498,18.136L13.5,10Z" fill="#374957"/>
</svg>
