<svg width="36" height="48" viewBox="0 0 36 48" fill="none" xmlns="http://www.w3.org/2000/svg" xmlns:xlink="http://www.w3.org/1999/xlink">
<path d="M22,14L22,0L6,0C4.409,0 2.883,0.632 1.757,1.757C0.632,2.883 0,4.409 0,6L0,48L36,48L36,14L22,14ZM8,20L28,20L28,24L8,24L8,20ZM8,28L28,28L28,32L8,32L8,28ZM20.27,42C18.823,41.999 17.421,41.5 16.298,40.588C15.67,40.142 15.45,40 14.974,40C13.654,40.045 12.391,40.55 11.402,41.426L8.586,38.586C10.318,36.957 12.597,36.035 14.974,36C16.304,36.016 17.588,36.484 18.616,37.328C19.064,37.75 19.654,37.99 20.27,38C21.72,38 23.646,35.89 24.352,34.868L27.652,37.128C27.31,37.626 24.212,42 20.27,42L20.27,42ZM26,0.438C27.192,0.817 28.278,1.469 29.172,2.344L33.656,6.828C34.535,7.72 35.191,8.806 35.57,10L26,10L26,0.438Z" fill="#374957"/>
</svg>
