<svg width="28" height="50" viewBox="0 0 28 50" fill="none" xmlns="http://www.w3.org/2000/svg" xmlns:xlink="http://www.w3.org/1999/xlink">
<path d="M24,24.223L24,10.001C23.578,-3.217 4.418,-3.199 4,10.001L4,24.223C2.071,26.192 0.766,28.687 0.249,31.395C-0.269,34.103 0.025,36.903 1.093,39.444C2.161,41.986 3.956,44.156 6.252,45.681C8.548,47.207 11.243,48.021 14,48.021C16.757,48.021 19.452,47.207 21.748,45.681C24.044,44.156 25.839,41.986 26.907,39.444C27.975,36.903 28.269,34.103 27.752,31.395C27.234,28.687 25.929,26.192 24,24.223L24,24.223ZM14,40.001C12.597,39.985 11.243,39.478 10.176,38.567C9.108,37.657 8.392,36.401 8.155,35.018C7.917,33.635 8.171,32.212 8.874,30.998C9.576,29.783 10.683,28.853 12,28.369L12,16.001L16,16.001L16,28.369C17.317,28.853 18.424,29.783 19.126,30.998C19.829,32.212 20.083,33.635 19.845,35.018C19.608,36.401 18.892,37.657 17.825,38.567C16.757,39.478 15.403,39.985 14,40.001Z" fill="#374957"/>
</svg>
