<svg width="48" height="44" viewBox="0 0 48 44" fill="none" xmlns="http://www.w3.org/2000/svg" xmlns:xlink="http://www.w3.org/1999/xlink">
<path d="M35.584,12.424C34.695,8.603 32.433,5.241 29.228,2.978C26.023,0.715 22.098,-0.291 18.2,0.15C14.301,0.592 10.701,2.45 8.083,5.372C5.465,8.295 4.012,12.077 4,16C3.997,18.557 4.614,21.077 5.8,23.342C3.642,24.499 1.932,26.343 0.943,28.582C-0.047,30.821 -0.26,33.327 0.338,35.701C0.936,38.075 2.309,40.181 4.241,41.685C6.173,43.188 8.552,44.003 11,44L28,44L28,28.828L23.414,33.414L20.586,30.586L27.172,24C27.922,23.251 28.939,22.829 30,22.829C31.06,22.829 32.078,23.251 32.828,24L39.414,30.586L36.586,33.414L32,28.828L32,44C35.918,43.982 39.693,42.527 42.61,39.91C45.526,37.294 47.381,33.698 47.823,29.805C48.265,25.912 47.263,21.992 45.007,18.788C42.751,15.585 39.398,13.32 35.584,12.424L35.584,12.424Z" fill="#374957"/>
</svg>
