<svg width="48" height="48" viewBox="0 0 48 48" fill="none" xmlns="http://www.w3.org/2000/svg" xmlns:xlink="http://www.w3.org/1999/xlink">
<path d="M28,31.999L24,31.999L24,23.999C23.999,21.853 23.422,19.745 22.329,17.897C21.236,16.049 19.667,14.529 17.786,13.493C18.868,12.36 19.593,10.935 19.872,9.393C20.151,7.852 19.971,6.262 19.355,4.822C18.739,3.382 17.714,2.154 16.406,1.291C15.099,0.429 13.567,-0.031 12,-0.031C10.433,-0.031 8.901,0.429 7.594,1.291C6.286,2.154 5.261,3.382 4.645,4.822C4.029,6.262 3.849,7.852 4.128,9.393C4.407,10.935 5.132,12.36 6.214,13.493C4.333,14.529 2.764,16.049 1.671,17.897C0.578,19.745 0.001,21.853 0,23.999L0,47.999L4,47.999L4,35.999L44,35.999L44,47.999L48,47.999L48,15.999L28,15.999L28,31.999ZM8,7.999C8,7.208 8.235,6.435 8.674,5.777C9.114,5.119 9.738,4.607 10.469,4.304C11.2,4.001 12.004,3.922 12.78,4.076C13.556,4.231 14.269,4.612 14.828,5.171C15.388,5.73 15.769,6.443 15.923,7.219C16.077,7.995 15.998,8.799 15.696,9.53C15.393,10.261 14.88,10.886 14.222,11.325C13.564,11.765 12.791,11.999 12,11.999C10.939,11.999 9.922,11.578 9.172,10.828C8.421,10.078 8,9.06 8,7.999L8,7.999ZM4,23.999C4,21.878 4.843,19.843 6.343,18.343C7.843,16.842 9.878,15.999 12,15.999C14.122,15.999 16.157,16.842 17.657,18.343C19.157,19.843 20,21.878 20,23.999L20,31.999L4,31.999L4,23.999ZM36,19.999L36,23.999L40,23.999L40,19.999L44,19.999L44,31.999L32,31.999L32,19.999L36,19.999Z" fill="#374957"/>
</svg>
