<svg width="48" height="48" viewBox="0 0 48 48" fill="none" xmlns="http://www.w3.org/2000/svg" xmlns:xlink="http://www.w3.org/1999/xlink">
<path d="M40,16C37.878,16 35.843,15.157 34.343,13.657C32.843,12.157 32,10.122 32,8C32,5.878 32.843,3.843 34.343,2.343C35.843,0.843 37.878,0 40,0C42.122,0 44.157,0.843 45.657,2.343C47.157,3.843 48,5.878 48,8C48,10.122 47.157,12.157 45.657,13.657C44.157,15.157 42.122,16 40,16ZM40,4C38.939,4 37.922,4.421 37.172,5.172C36.421,5.922 36,6.939 36,8C36,9.061 36.421,10.078 37.172,10.828C37.922,11.579 38.939,12 40,12C41.061,12 42.078,11.579 42.828,10.828C43.579,10.078 44,9.061 44,8C44,6.939 43.579,5.922 42.828,5.172C42.078,4.421 41.061,4 40,4ZM22,48L22,45.562L30.554,26.876C30.954,26.036 31.584,25.326 32.371,24.829C33.158,24.332 34.069,24.068 35,24.068C35.931,24.068 36.842,24.332 37.629,24.829C38.416,25.326 39.046,26.036 39.446,26.876L48,45.474L48,47.912L22,48ZM27.08,44L42.92,44L35.812,28.548C35.744,28.389 35.63,28.254 35.486,28.159C35.342,28.064 35.173,28.013 35,28.013C34.827,28.013 34.658,28.064 34.514,28.159C34.37,28.254 34.256,28.389 34.188,28.548L27.08,44ZM24.496,13.082C24.064,12.172 23.383,11.403 22.532,10.865C21.68,10.326 20.693,10.04 19.686,10.04C18.679,10.04 17.692,10.326 16.84,10.865C15.989,11.403 15.308,12.172 14.876,13.082L0,45.562L0,48L18,48L18,44L5.056,44L18.51,14.754C18.614,14.529 18.78,14.339 18.988,14.205C19.197,14.071 19.439,14 19.687,14C19.935,14 20.177,14.071 20.386,14.205C20.594,14.339 20.76,14.529 20.864,14.754L26.296,26.554L26.92,25.198C27.388,24.192 28.038,23.281 28.838,22.512L24.496,13.082Z" fill="#374957"/>
</svg>
