<svg width="48" height="48" viewBox="0 0 48 48" fill="none" xmlns="http://www.w3.org/2000/svg" xmlns:xlink="http://www.w3.org/1999/xlink">
<path d="M34,10L34,14L24.174,14L27.774,6.906L24.206,5.094L19.684,14L14,14L14,10C14,7.348 15.054,4.804 16.929,2.929C18.804,1.054 21.348,0 24,0C26.652,0 29.196,1.054 31.071,2.929C32.946,4.804 34,7.348 34,10L34,10ZM42,4L36.63,4C37.529,5.873 37.997,7.923 38,10L38,18L10,18L10,10C10.003,7.923 10.471,5.873 11.37,4L6,4C4.409,4 2.883,4.632 1.757,5.757C0.632,6.883 0,8.409 0,10L0,48L48,48L48,10C48,8.409 47.368,6.883 46.243,5.757C45.117,4.632 43.591,4 42,4Z" fill="#374957"/>
</svg>
