<svg width="48" height="48" viewBox="0 0 48 48" fill="none" xmlns="http://www.w3.org/2000/svg" xmlns:xlink="http://www.w3.org/1999/xlink">
<path d="M48,10L40.828,10L47.414,3.414L44.586,0.586L38,7.172L38,0L34,0L34,10.912C32.363,9.169 30.431,7.73 28.292,6.66C26.807,6.004 25.149,5.847 23.567,6.213C21.985,6.579 20.565,7.448 19.518,8.69L26.798,15.97L23.97,18.8L17.1,11.928C15.582,14.344 13.83,17.654 12.064,21.236L18.568,27.74L15.74,30.568L10.224,25.052C6.354,33.232 2.824,41.612 2.154,43.23L0.278,47.722L4.772,45.846C6.938,44.94 21.268,38.912 30.972,33.798L25.4,28.222L28.222,25.4L34.622,31.8C36.283,30.902 37.837,29.818 39.254,28.57C40.52,27.526 41.409,26.096 41.788,24.5C42.167,22.904 42.014,21.227 41.352,19.726C40.28,17.581 38.836,15.642 37.088,14L48,14L48,10Z" fill="#374957"/>
</svg>
