<svg width="48" height="48" viewBox="0 0 48 48" fill="none" xmlns="http://www.w3.org/2000/svg" xmlns:xlink="http://www.w3.org/1999/xlink">
<path d="M46.586,22.141C46.037,21.491 45.356,20.965 44.588,20.599C43.821,20.232 42.984,20.033 42.134,20.015C43.177,16.113 43.803,12.112 44,8.079L44.086,5.901L41.908,5.999C39.452,6.13 37.006,6.408 34.584,6.831C35.558,4.687 36.042,2.353 36,-0.001L32,-0.001C32.022,1.541 31.75,3.074 31.2,4.515C30.82,3.704 30.303,2.965 29.674,2.329C28.276,0.934 26.409,0.109 24.437,0.013C22.465,-0.084 20.527,0.557 19,1.809C17.518,0.583 15.641,-0.063 13.719,-0.009C11.796,0.045 9.959,0.795 8.547,2.102C7.136,3.408 6.248,5.183 6.046,7.096C5.845,9.008 6.345,10.929 7.454,12.501C6.323,13.468 5.427,14.679 4.833,16.043C4.238,17.407 3.961,18.888 4.022,20.375C2.686,20.825 1.555,21.737 0.833,22.947C0.11,24.157 -0.156,25.585 0.082,26.975C0.765,31.39 2.487,35.58 5.105,39.201C7.724,42.821 11.164,45.768 15.144,47.799L15.544,47.999L32.446,47.999L32.846,47.799C36.827,45.767 40.268,42.818 42.886,39.195C45.505,35.573 47.225,31.38 47.906,26.963C48.05,26.111 48.007,25.239 47.779,24.406C47.551,23.573 47.144,22.8 46.586,22.141L46.586,22.141ZM37.946,19.999L32.828,19.999L35.414,17.413L32.584,14.585L27.17,19.999L24.072,19.999C23.926,18.947 24.026,17.875 24.365,16.869C24.704,15.862 25.272,14.948 26.024,14.199C28.288,11.935 34.952,10.631 39.838,10.167C39.57,13.503 38.935,16.801 37.946,19.999L37.946,19.999ZM8,19.999C8,18.407 8.632,16.881 9.757,15.756C10.882,14.631 12.409,13.999 14,13.999C15.591,13.999 17.117,14.631 18.242,15.756C19.368,16.881 20,18.407 20,19.999L8,19.999ZM11.156,5.157C11.897,4.417 12.902,4.002 13.949,4.002C14.996,4.002 16,4.417 16.742,5.157C16.932,5.357 18.998,7.617 18.998,7.617C18.998,7.617 21.066,5.349 21.254,5.159C21.84,4.563 22.601,4.171 23.426,4.038C24.25,3.906 25.096,4.04 25.839,4.422C26.582,4.804 27.184,5.413 27.556,6.161C27.929,6.908 28.053,7.756 27.91,8.579C25.256,9.388 22.992,11.142 21.544,13.509C20.279,12.014 18.597,10.931 16.714,10.399C14.83,9.866 12.83,9.908 10.97,10.519C10.319,9.766 9.977,8.795 10.011,7.801C10.046,6.807 10.455,5.862 11.156,5.157L11.156,5.157ZM43.97,26.303C43.382,30.004 41.956,33.522 39.802,36.589C37.648,39.655 34.822,42.19 31.54,43.999L16.458,43.999C13.175,42.19 10.349,39.655 8.195,36.588C6.041,33.521 4.616,30.002 4.028,26.301C3.98,26.021 3.995,25.735 4.07,25.462C4.146,25.189 4.281,24.936 4.466,24.721C4.656,24.495 4.894,24.313 5.162,24.188C5.43,24.063 5.722,23.999 6.018,23.999L41.98,23.999C42.275,23.999 42.567,24.063 42.836,24.188C43.104,24.313 43.341,24.495 43.532,24.721C43.716,24.936 43.851,25.19 43.927,25.463C44.002,25.736 44.017,26.023 43.97,26.303Z" fill="#374957"/>
</svg>
