<svg width="40" height="48" viewBox="0 0 40 48" fill="none" xmlns="http://www.w3.org/2000/svg" xmlns:xlink="http://www.w3.org/1999/xlink">
<path d="M38.828,10L30,10L30,1.172L38.828,10ZM40,14L40,48L0,48L0,6C0,4.409 0.632,2.883 1.757,1.757C2.883,0.632 4.409,0 6,0L26,0L26,14L40,14ZM26,20L22,20C20.939,20 19.922,20.421 19.172,21.172C18.421,21.922 18,22.939 18,24L18,30.1C17.671,30.034 17.336,30.001 17,30C16.011,30 15.044,30.293 14.222,30.843C13.4,31.392 12.759,32.173 12.381,33.087C12.002,34 11.903,35.006 12.096,35.975C12.289,36.945 12.765,37.836 13.464,38.536C14.164,39.235 15.055,39.711 16.025,39.904C16.994,40.097 18,39.998 18.913,39.619C19.827,39.241 20.608,38.6 21.157,37.778C21.707,36.956 22,35.989 22,35L22,24L26,24L26,20Z" fill="#374957"/>
</svg>
