<svg width="48" height="48" viewBox="0 0 48 48" fill="none" xmlns="http://www.w3.org/2000/svg" xmlns:xlink="http://www.w3.org/1999/xlink">
<path d="M44.709,30.762C40.371,26.424 32.875,24 23.987,24C15.223,24.04 7.487,26.566 3.293,30.762C2.237,31.807 1.402,33.054 0.837,34.428C0.272,35.803 -0.011,37.276 0.005,38.762L0.159,41.722C0.163,43.387 0.827,44.983 2.005,46.159C3.183,47.336 4.779,47.998 6.445,48C6.575,48 11.349,47.382 11.349,47.382C12.913,47.325 14.4,46.687 15.519,45.592C16.638,44.497 17.309,43.025 17.401,41.462L17.461,41.176C19.544,40.385 21.756,39.986 23.985,40C26.224,40.029 28.442,40.434 30.547,41.2L30.603,41.458C30.694,43.02 31.365,44.493 32.483,45.587C33.602,46.682 35.089,47.32 36.653,47.378C36.653,47.378 41.427,48 41.557,48C43.199,48.007 44.778,47.368 45.954,46.221C47.129,45.074 47.806,43.51 47.839,41.868L48.001,38.6C47.998,37.141 47.705,35.696 47.14,34.351C46.575,33.006 45.749,31.786 44.709,30.762L44.709,30.762ZM41.843,41.714C41.843,41.775 41.824,41.834 41.788,41.883C41.752,41.932 41.701,41.968 41.643,41.986L37.269,41.412C36.399,41.4 36.655,41.088 36.527,40.482L36.083,38.38C35.983,37.908 35.771,37.468 35.465,37.095C35.159,36.722 34.768,36.429 34.325,36.24C31.073,34.813 27.568,34.051 24.017,34C20.433,34.018 16.893,34.788 13.627,36.262C13.195,36.455 12.815,36.748 12.517,37.116C12.22,37.484 12.014,37.917 11.917,38.38L11.473,40.482C11.347,41.082 11.599,41.4 10.731,41.412L6.359,41.986C6.243,41.946 6.159,41.812 6.159,41.562L6.001,38.6C6.005,37.928 6.143,37.264 6.407,36.646C6.671,36.028 7.055,35.468 7.537,35C10.537,32 17.013,30.028 24.015,30C31.017,29.972 37.347,31.886 40.465,35C41.406,35.906 41.957,37.144 42.001,38.45L41.843,41.714ZM6.001,10.948L6.001,2C6.001,1.47 6.211,0.961 6.586,0.586C6.961,0.211 7.47,0 8.001,0L16.949,0C17.344,0 17.731,0.117 18.059,0.337C18.388,0.557 18.645,0.869 18.796,1.235C18.947,1.6 18.987,2.002 18.91,2.39C18.833,2.778 18.642,3.134 18.363,3.414L16.183,5.6L25.001,13.8L36.961,2.8C37.55,2.297 38.311,2.042 39.084,2.088C39.858,2.133 40.583,2.476 41.109,3.045C41.636,3.613 41.921,4.363 41.907,5.138C41.893,5.912 41.579,6.651 41.033,7.2L28.765,18.492C27.758,19.471 26.405,20.013 25.001,20L25.001,20C24.286,20 23.579,19.859 22.92,19.584C22.26,19.309 21.662,18.907 21.159,18.4L11.937,9.838L9.415,12.362C9.135,12.642 8.778,12.832 8.391,12.909C8.003,12.986 7.601,12.947 7.235,12.795C6.87,12.644 6.557,12.388 6.338,12.059C6.118,11.73 6.001,11.343 6.001,10.948Z" fill="#374957"/>
</svg>
