<svg width="32" height="48" viewBox="0 0 32 48" fill="none" xmlns="http://www.w3.org/2000/svg" xmlns:xlink="http://www.w3.org/1999/xlink">
<path d="M32,16C32.002,12.963 31.139,9.989 29.513,7.425C27.887,4.86 25.565,2.811 22.818,1.517C20.072,0.223 17.013,-0.262 14.001,0.117C10.988,0.497 8.145,1.725 5.805,3.66C3.465,5.595 1.724,8.156 0.784,11.043C-0.155,13.931 -0.253,17.026 0.502,19.967C1.256,22.908 2.832,25.574 5.045,27.653C7.258,29.732 10.017,31.139 13,31.708L13,36L10,36C9.204,36 8.441,36.316 7.879,36.879C7.316,37.441 7,38.204 7,39C7,39.795 7.316,40.559 7.879,41.121C8.441,41.684 9.204,42 10,42L13,42L13,45C13,45.795 13.316,46.559 13.879,47.121C14.441,47.684 15.204,48 16,48C16.796,48 17.559,47.684 18.121,47.121C18.684,46.559 19,45.795 19,45L19,42L22,42C22.796,42 23.559,41.684 24.121,41.121C24.684,40.559 25,39.795 25,39C25,38.204 24.684,37.441 24.121,36.879C23.559,36.316 22.796,36 22,36L19,36L19,31.708C22.654,31.006 25.95,29.055 28.322,26.189C30.694,23.323 31.994,19.72 32,16ZM6,16C6,14.022 6.586,12.089 7.685,10.444C8.784,8.8 10.346,7.518 12.173,6.761C14,6.004 16.011,5.806 17.951,6.192C19.891,6.578 21.673,7.53 23.071,8.929C24.47,10.327 25.422,12.109 25.808,14.049C26.194,15.989 25.996,18 25.239,19.827C24.482,21.654 23.2,23.216 21.556,24.315C19.911,25.413 17.978,26 16,26C13.349,25.997 10.807,24.942 8.932,23.067C7.058,21.193 6.003,18.651 6,16L6,16Z" fill="#374957"/>
</svg>
