<svg width="40" height="48" viewBox="0 0 40 48" fill="none" xmlns="http://www.w3.org/2000/svg" xmlns:xlink="http://www.w3.org/1999/xlink">
<path d="M37.042,3.458C34.971,1.256 32.083,0.005 29.06,0L23,0C17.317,0.009 12.573,4.341 12.05,10L11,10C4.928,10.007 0.007,14.928 0,21L0,37C0.007,43.072 4.928,47.993 11,48L19,48C25.072,47.993 29.993,43.072 30,37L30,35.95C35.66,35.428 39.992,30.684 40,25L40,10.94C40.004,8.16 38.946,5.484 37.042,3.458ZM24,37C24,39.761 21.761,42 19,42L11,42C8.239,42 6,39.761 6,37L6,21C6,18.239 8.239,16 11,16L12,16L12,25C12.007,31.072 16.928,35.993 23,36L24,36L24,37ZM34,25C34,27.761 31.761,30 29,30L23,30C20.239,30 18,27.761 18,25L18,11C18,8.239 20.239,6 23,6L28,6L28,8C28,10.209 29.791,12 32,12L34,12L34,25L34,25Z" fill="#374957"/>
</svg>
