<svg width="48" height="48" viewBox="0 0 48 48" fill="none" xmlns="http://www.w3.org/2000/svg" xmlns:xlink="http://www.w3.org/1999/xlink">
<path d="M24,0C19.253,0 14.613,1.408 10.666,4.045C6.72,6.682 3.643,10.43 1.827,14.816C0.01,19.201 -0.465,24.027 0.461,28.682C1.387,33.338 3.673,37.614 7.029,40.971C10.386,44.327 14.662,46.613 19.318,47.539C23.973,48.465 28.799,47.99 33.184,46.173C37.57,44.357 41.318,41.28 43.955,37.334C46.592,33.387 48,28.747 48,24C47.993,17.637 45.462,11.536 40.963,7.037C36.464,2.538 30.363,0.007 24,0L24,0ZM24,28C23.12,28.003 22.264,27.715 21.565,27.181C20.866,26.647 20.363,25.896 20.135,25.047C19.907,24.197 19.966,23.296 20.303,22.483C20.641,21.67 21.237,20.992 22,20.554L22,10L26,10L26,20.554C26.763,20.992 27.359,21.67 27.697,22.483C28.034,23.296 28.093,24.197 27.865,25.047C27.637,25.896 27.134,26.647 26.435,27.181C25.736,27.715 24.88,28.003 24,28L24,28Z" fill="#374957"/>
</svg>
