<svg width="48" height="48" viewBox="0 0 48 48" fill="none" xmlns="http://www.w3.org/2000/svg" xmlns:xlink="http://www.w3.org/1999/xlink">
<path d="M39,0L9,0C6.614,0.003 4.326,0.952 2.639,2.639C0.952,4.326 0.003,6.614 0,9L0,39C0.003,41.386 0.952,43.674 2.639,45.361C4.326,47.048 6.614,47.997 9,48L31.686,48C33.131,48.004 34.563,47.721 35.898,47.168C37.233,46.615 38.445,45.803 39.464,44.778L44.778,39.464C45.803,38.445 46.615,37.233 47.168,35.898C47.721,34.563 48.004,33.131 48,31.686L48,9C47.997,6.614 47.048,4.326 45.361,2.639C43.674,0.952 41.386,0.003 39,0L39,0ZM25.5,6.25C25.5,5.918 25.632,5.601 25.866,5.366C26.101,5.132 26.418,5 26.75,5L30.776,5C31.108,5 31.425,5.132 31.66,5.366C31.894,5.601 32.026,5.918 32.026,6.25C32.026,6.582 31.894,6.899 31.66,7.134C31.425,7.368 31.108,7.5 30.776,7.5L28,7.5L28,9.776L30.478,9.776C30.81,9.776 31.127,9.908 31.362,10.142C31.596,10.377 31.728,10.694 31.728,11.026C31.728,11.358 31.596,11.675 31.362,11.91C31.127,12.144 30.81,12.276 30.478,12.276L28,12.276L28,15.876C28,16.208 27.868,16.525 27.634,16.76C27.399,16.994 27.082,17.126 26.75,17.126C26.418,17.126 26.101,16.994 25.866,16.76C25.632,16.525 25.5,16.208 25.5,15.876L25.5,6.25ZM19.5,6.25C19.5,5.918 19.632,5.601 19.866,5.366C20.101,5.132 20.418,5 20.75,5C21.082,5 21.399,5.132 21.634,5.366C21.868,5.601 22,5.918 22,6.25L22,15.888C22,16.22 21.868,16.537 21.634,16.772C21.399,17.006 21.082,17.138 20.75,17.138C20.418,17.138 20.101,17.006 19.866,16.772C19.632,16.537 19.5,16.22 19.5,15.888L19.5,6.25ZM8,8.97C8.002,8.447 8.106,7.929 8.308,7.446C8.51,6.963 8.805,6.524 9.177,6.156C9.548,5.787 9.989,5.495 10.473,5.297C10.958,5.098 11.477,4.998 12,5C12.731,5.006 13.446,5.21 14.07,5.59C14.694,5.97 15.203,6.512 15.544,7.158C15.698,7.452 15.728,7.796 15.629,8.113C15.53,8.43 15.308,8.694 15.014,8.848C14.72,9.002 14.376,9.032 14.059,8.933C13.742,8.834 13.478,8.612 13.324,8.318C13.194,8.078 13.004,7.875 12.771,7.732C12.539,7.588 12.273,7.508 12,7.5C11.802,7.498 11.606,7.536 11.424,7.611C11.241,7.685 11.075,7.796 10.935,7.936C10.796,8.076 10.685,8.242 10.611,8.425C10.537,8.608 10.5,8.804 10.502,9.002L10.502,13.136C10.5,13.334 10.537,13.53 10.611,13.713C10.685,13.896 10.796,14.062 10.935,14.202C11.075,14.342 11.241,14.453 11.424,14.527C11.606,14.602 11.802,14.64 12,14.638C12.391,14.634 12.766,14.478 13.045,14.204C13.325,13.93 13.488,13.559 13.5,13.168L13.5,13L13,13C12.735,13 12.48,12.895 12.293,12.707C12.105,12.52 12,12.265 12,12C12,11.735 12.105,11.48 12.293,11.293C12.48,11.105 12.735,11 13,11L14.5,11C14.898,11 15.279,11.158 15.561,11.439C15.842,11.721 16,12.102 16,12.5L16,13.168C15.992,14.223 15.566,15.233 14.817,15.976C14.068,16.719 13.055,17.136 12,17.136C11.477,17.138 10.958,17.038 10.474,16.839C9.99,16.641 9.549,16.35 9.178,15.981C8.806,15.613 8.511,15.174 8.309,14.692C8.107,14.209 8.002,13.691 8,13.168L8,8.97ZM6,39L6,22L42,22L42,30L34,30C32.939,30 31.922,30.421 31.172,31.172C30.421,31.922 30,32.939 30,34L30,42L9,42C8.204,42 7.441,41.684 6.879,41.121C6.316,40.559 6,39.796 6,39Z" fill="#374957"/>
</svg>
