<svg width="44" height="48" viewBox="0 0 44 48" fill="none" xmlns="http://www.w3.org/2000/svg" xmlns:xlink="http://www.w3.org/1999/xlink">
<path d="M38,0L4,0L4,6L0,6L0,10L4,10L4,14L0,14L0,18L4,18L4,22L0,22L0,26L4,26L4,30L0,30L0,34L4,34L4,38L0,38L0,42L4,42L4,48L38,48C39.591,48 41.117,47.368 42.243,46.243C43.368,45.117 44,43.591 44,42L44,6C44,4.409 43.368,2.883 42.243,1.757C41.117,0.632 39.591,0 38,0L38,0ZM40,42C40,42.53 39.789,43.039 39.414,43.414C39.039,43.789 38.53,44 38,44L8,44L8,4L38,4C38.53,4 39.039,4.211 39.414,4.586C39.789,4.961 40,5.47 40,6L40,42ZM24,24C25.187,24 26.347,23.648 27.333,22.989C28.32,22.33 29.089,21.392 29.543,20.296C29.997,19.2 30.116,17.993 29.885,16.829C29.653,15.666 29.082,14.596 28.243,13.757C27.404,12.918 26.334,12.347 25.171,12.115C24.007,11.884 22.8,12.003 21.704,12.457C20.608,12.911 19.67,13.68 19.011,14.667C18.352,15.653 18,16.813 18,18C18,19.591 18.632,21.117 19.757,22.243C20.883,23.368 22.409,24 24,24ZM34,32L34,36L30,36L30,32C30,31.47 29.789,30.961 29.414,30.586C29.039,30.211 28.53,30 28,30L20,30C19.47,30 18.961,30.211 18.586,30.586C18.211,30.961 18,31.47 18,32L18,36L14,36L14,32C14,30.409 14.632,28.883 15.757,27.757C16.883,26.632 18.409,26 20,26L28,26C29.591,26 31.117,26.632 32.243,27.757C33.368,28.883 34,30.409 34,32Z" fill="#374957"/>
</svg>
