<svg width="40" height="48" viewBox="0 0 40 48" fill="none" xmlns="http://www.w3.org/2000/svg" xmlns:xlink="http://www.w3.org/1999/xlink">
<path d="M16,0L20,0L20,18C20,19.591 19.368,21.117 18.243,22.242C17.117,23.368 15.591,24 14,24L12,24L12,48L8,48L8,24L6,24C4.409,24 2.883,23.368 1.757,22.242C0.632,21.117 0,19.591 0,18L0,0L4,0L4,18C4,18.53 4.211,19.039 4.586,19.414C4.961,19.789 5.47,20 6,20L8,20L8,0L12,0L12,20L14,20C14.53,20 15.039,19.789 15.414,19.414C15.789,19.039 16,18.53 16,18L16,0ZM40,18.534C40,27.888 32.246,36.916 30,39.334L30,48L26,48L26,4C26,3.158 26.266,2.337 26.759,1.655C27.253,0.972 27.949,0.463 28.749,0.2C29.549,-0.063 30.412,-0.067 31.214,0.188C32.017,0.444 32.718,0.946 33.218,1.624C36.31,5.774 40,12.078 40,18.534ZM30,33.054C37.8,22.998 37.84,14.1 30,4.014L30,33.054Z" fill="#374957"/>
</svg>
