<svg width="48" height="48" viewBox="0 0 48 48" fill="none" xmlns="http://www.w3.org/2000/svg" xmlns:xlink="http://www.w3.org/1999/xlink">
<path d="M24,0C17.635,0 11.53,2.529 7.029,7.029C2.529,11.53 0,17.635 0,24C0,30.365 2.529,36.47 7.029,40.971C11.53,45.471 17.635,48 24,48L48,48L48,24C47.993,17.637 45.462,11.536 40.963,7.037C36.464,2.538 30.363,0.007 24,0L24,0ZM24,10C24.593,10 25.173,10.176 25.667,10.506C26.16,10.835 26.545,11.304 26.772,11.852C26.999,12.4 27.058,13.003 26.942,13.585C26.827,14.167 26.541,14.702 26.121,15.121C25.702,15.541 25.167,15.827 24.585,15.942C24.003,16.058 23.4,15.999 22.852,15.772C22.304,15.545 21.835,15.16 21.506,14.667C21.176,14.173 21,13.593 21,13C21,12.204 21.316,11.441 21.879,10.879C22.441,10.316 23.204,10 24,10ZM28,38L24,38L24,24L20,24L20,20L24,20C25.061,20 26.078,20.421 26.828,21.172C27.579,21.922 28,22.939 28,24L28,38Z" fill="#374957"/>
</svg>
