<svg width="40" height="48" viewBox="0 0 40 48" fill="none" xmlns="http://www.w3.org/2000/svg" xmlns:xlink="http://www.w3.org/1999/xlink">
<path d="M20,30C21.008,30.002 22.003,29.769 22.906,29.318L26.406,27.568C27.489,27.032 28.4,26.202 29.035,25.174C29.671,24.145 30.005,22.959 30,21.75L30,18.25C30.003,17.042 29.668,15.856 29.032,14.828C28.395,13.8 27.483,12.972 26.4,12.436L22.9,10.686C21.997,10.238 21.002,10.004 19.994,10.004C18.985,10.004 17.991,10.238 17.088,10.686L13.6,12.436C12.516,12.972 11.604,13.8 10.968,14.828C10.331,15.856 9.996,17.042 10,18.25L10,21.75C9.996,22.959 10.331,24.145 10.968,25.173C11.604,26.2 12.516,27.029 13.6,27.564L17.1,29.314C18,29.765 18.993,30 20,30L20,30ZM16,21.754L16,18.354L18.654,19.68C19.071,19.89 19.532,19.999 20,19.999C20.467,19.999 20.928,19.89 21.346,19.68L24,18.356L24,21.756C24,21.85 23.974,21.941 23.925,22.02C23.876,22.1 23.805,22.163 23.722,22.204L20.222,23.954C20.153,23.989 20.077,24.007 20,24.007C19.923,24.007 19.847,23.989 19.778,23.954L16.278,22.204C16.193,22.163 16.122,22.098 16.073,22.018C16.023,21.937 15.998,21.845 16,21.75L16,21.754ZM33,42L25.52,42C26.169,41.607 26.773,41.142 27.32,40.614L34.144,34.276C37.889,30.5 39.991,25.396 39.991,20.076C39.991,14.757 37.889,9.653 34.144,5.876C32.29,4.011 30.086,2.531 27.657,1.52C25.229,0.51 22.626,-0.01 19.996,-0.01C17.366,-0.01 14.762,0.51 12.334,1.52C9.906,2.531 7.702,4.011 5.848,5.876C2.094,9.672 -0.004,14.799 0.013,20.137C0.03,25.475 2.16,30.589 5.938,34.36L12.614,40.56C13.185,41.111 13.818,41.594 14.5,42L7,42C6.204,42 5.441,42.317 4.878,42.879C4.316,43.442 4,44.205 4,45C4,45.796 4.316,46.559 4.878,47.122C5.441,47.684 6.204,48 7,48L33,48C33.795,48 34.558,47.684 35.121,47.122C35.684,46.559 36,45.796 36,45C36,44.205 35.684,43.442 35.121,42.879C34.558,42.317 33.795,42 33,42ZM10.106,30.044C7.479,27.395 6.005,23.815 6.005,20.083C6.005,16.352 7.479,12.772 10.106,10.122C11.401,8.816 12.943,7.78 14.641,7.072C16.339,6.365 18.16,6.001 20,6.001C21.839,6.001 23.661,6.365 25.359,7.072C27.057,7.78 28.598,8.816 29.894,10.122C32.512,12.754 33.989,16.311 34.005,20.024C34.021,23.736 32.575,27.306 29.98,29.96L23.18,36.274C22.313,37.104 21.156,37.562 19.957,37.551C18.757,37.539 17.609,37.06 16.758,36.214L10.106,30.044Z" fill="#374957"/>
</svg>
