<svg width="38" height="48" viewBox="0 0 38 48" fill="none" xmlns="http://www.w3.org/2000/svg" xmlns:xlink="http://www.w3.org/1999/xlink">
<path d="M8,24L18,24L18,28L8,28L8,24ZM28,16L8,16L8,20L28,20L28,16ZM28,8L8,8L8,12L28,12L28,8ZM34,38.888L34,48L30,44L26,48L26,38.888C24.475,38.012 23.282,36.655 22.608,35.031C21.933,33.406 21.815,31.604 22.272,29.905C22.728,28.206 23.733,26.706 25.131,25.638C26.529,24.57 28.241,23.994 30,24C30.676,24.008 31.348,24.104 32,24.284L32,6C32,5.47 31.789,4.961 31.414,4.586C31.039,4.211 30.53,4 30,4L6,4C5.47,4 4.961,4.211 4.586,4.586C4.211,4.961 4,5.47 4,6L4,40L22,40L22,44L0,44L0,6C0,4.409 0.632,2.883 1.757,1.757C2.883,0.632 4.409,0 6,0L30,0C31.591,0 33.117,0.632 34.243,1.757C35.368,2.883 36,4.409 36,6L36,26.764C36.783,27.644 37.36,28.688 37.688,29.819C38.016,30.951 38.087,32.141 37.895,33.304C37.703,34.466 37.254,35.571 36.58,36.537C35.906,37.503 35.024,38.306 34,38.888L34,38.888ZM34,32C34,31.209 33.765,30.436 33.326,29.778C32.886,29.12 32.262,28.607 31.531,28.304C30.8,28.002 29.996,27.923 29.22,28.077C28.444,28.231 27.731,28.612 27.172,29.172C26.612,29.731 26.231,30.444 26.077,31.22C25.923,31.996 26.002,32.8 26.304,33.531C26.607,34.262 27.12,34.886 27.778,35.326C28.436,35.765 29.209,36 30,36C31.061,36 32.078,35.579 32.828,34.828C33.579,34.078 34,33.061 34,32Z" fill="#374957"/>
</svg>
