<svg width="50" height="50" viewBox="0 0 50 50" fill="none" xmlns="http://www.w3.org/2000/svg" xmlns:xlink="http://www.w3.org/1999/xlink">
<path d="M28,14.001C28,14.792 27.765,15.565 27.326,16.223C26.886,16.881 26.262,17.393 25.531,17.696C24.8,17.999 23.996,18.078 23.22,17.924C22.444,17.769 21.731,17.388 21.172,16.829C20.612,16.27 20.231,15.557 20.077,14.781C19.923,14.005 20.002,13.201 20.305,12.47C20.607,11.739 21.12,11.114 21.778,10.675C22.436,10.235 23.209,10.001 24,10.001C25.061,10.001 26.078,10.422 26.829,11.172C27.579,11.922 28,12.94 28,14.001ZM33.9,23.915L24,33.601L14.116,23.929C12.154,21.973 10.817,19.48 10.273,16.764C9.729,14.048 10.002,11.232 11.059,8.671C12.116,6.111 13.909,3.922 16.21,2.381C18.512,0.84 21.219,0.016 23.989,0.014C26.759,0.011 29.467,0.831 31.771,2.368C34.075,3.906 35.871,6.092 36.932,8.651C37.993,11.209 38.271,14.025 37.732,16.742C37.192,19.458 35.859,21.954 33.9,23.913L33.9,23.915ZM32,14.001C32,12.418 31.531,10.872 30.652,9.556C29.773,8.24 28.523,7.215 27.062,6.61C25.6,6.004 23.991,5.846 22.439,6.154C20.888,6.463 19.462,7.225 18.343,8.344C17.224,9.463 16.462,10.888 16.154,12.44C15.845,13.992 16.004,15.6 16.609,17.062C17.215,18.524 18.24,19.773 19.556,20.652C20.871,21.531 22.418,22.001 24,22.001C26.122,22.001 28.157,21.158 29.657,19.658C31.157,18.157 32,16.122 32,14.001L32,14.001ZM43.734,21.227L40.864,20.267C39.971,22.7 38.56,24.91 36.728,26.745L24,39.201L11.32,26.801C8.913,24.402 7.235,21.371 6.48,18.059C5.656,17.983 4.824,18.08 4.04,18.345C3.255,18.609 2.534,19.035 1.924,19.595C1.314,20.154 0.827,20.835 0.496,21.594C0.165,22.353 -0.004,23.173 0,24.001L0,43.505L15.966,48.067L32.006,44.067L48.006,47.963L48.006,26.967C48.005,25.678 47.589,24.423 46.82,23.389C46.051,22.355 44.968,21.596 43.734,21.225L43.734,21.227Z" fill="#374957"/>
</svg>
