<svg width="48" height="48" viewBox="0 0 48 48" fill="none" xmlns="http://www.w3.org/2000/svg" xmlns:xlink="http://www.w3.org/1999/xlink">
<path d="M41.801,12.011L5.587,12.011L14.201,3.401L11.365,0.577L1.465,10.475C0.528,11.413 0.001,12.685 0.001,14.01C0.001,15.336 0.528,16.608 1.465,17.545L11.365,27.447L14.201,24.619L5.601,16.019L41.801,16.019C42.344,15.983 42.879,16.162 43.291,16.518C43.703,16.873 43.958,17.377 44.001,17.919L44.001,40.119C43.957,40.661 43.702,41.165 43.29,41.52C42.879,41.875 42.344,42.054 41.801,42.017L4.001,42.017L4.001,46.017L41.801,46.017C43.405,46.054 44.959,45.454 46.121,44.347C47.284,43.24 47.96,41.718 48.001,40.113L48.001,17.911C47.958,16.308 47.282,14.786 46.12,13.68C44.958,12.574 43.405,11.974 41.801,12.011L41.801,12.011Z" fill="#374957"/>
</svg>
