<svg width="48" height="48" viewBox="0 0 48 48" fill="none" xmlns="http://www.w3.org/2000/svg" xmlns:xlink="http://www.w3.org/1999/xlink">
<path d="M24,0C19.253,0 14.613,1.408 10.666,4.045C6.72,6.682 3.643,10.43 1.827,14.816C0.01,19.201 -0.465,24.027 0.461,28.682C1.387,33.338 3.673,37.614 7.029,40.971C10.386,44.327 14.662,46.613 19.318,47.539C23.973,48.465 28.799,47.99 33.184,46.173C37.57,44.357 41.318,41.28 43.955,37.334C46.592,33.387 48,28.747 48,24C47.993,17.637 45.462,11.536 40.963,7.037C36.464,2.538 30.363,0.007 24,0L24,0ZM41.314,14L34.862,14C33.416,10.647 31.51,7.512 29.2,4.684C34.308,6.072 38.662,9.42 41.314,14ZM33,24C32.986,26.036 32.667,28.058 32.054,30L15.946,30C15.333,28.058 15.014,26.036 15,24C15.014,21.964 15.333,19.942 15.946,18L32.054,18C32.667,19.942 32.986,21.964 33,24ZM17.548,34L30.452,34C28.753,37.353 26.58,40.443 24,43.176C21.42,40.443 19.247,37.353 17.548,34L17.548,34ZM17.548,14C19.247,10.647 21.42,7.557 24,4.824C26.58,7.557 28.753,10.647 30.452,14L17.548,14ZM18.8,4.684C16.49,7.512 14.585,10.647 13.138,14L6.686,14C9.338,9.42 13.692,6.072 18.8,4.684L18.8,4.684ZM4.92,18L11.784,18C10.739,21.932 10.739,26.068 11.784,30L4.92,30C3.693,26.094 3.693,21.906 4.92,18L4.92,18ZM6.686,34L13.138,34C14.584,37.353 16.49,40.488 18.8,43.316C13.692,41.928 9.338,38.58 6.686,34L6.686,34ZM29.2,43.316C31.51,40.488 33.415,37.353 34.862,34L41.314,34C38.662,38.58 34.308,41.928 29.2,43.316ZM43.08,30L36.216,30C37.261,26.068 37.261,21.932 36.216,18L43.08,18C44.307,21.906 44.307,26.094 43.08,30Z" fill="#374957"/>
</svg>
