<svg width="40" height="48" viewBox="0 0 40 48" fill="none" xmlns="http://www.w3.org/2000/svg" xmlns:xlink="http://www.w3.org/1999/xlink">
<path d="M20,0L0,11.044L0,42C0,43.591 0.632,45.117 1.757,46.243C2.883,47.368 4.409,48 6,48L34,48C35.59,47.995 37.113,47.362 38.237,46.237C39.362,45.113 39.995,43.59 40,42L40,11.044L20,0ZM20,17C19.407,17 18.827,16.824 18.333,16.494C17.84,16.165 17.455,15.696 17.228,15.148C17.001,14.6 16.942,13.997 17.058,13.415C17.173,12.833 17.459,12.298 17.879,11.879C18.298,11.459 18.833,11.173 19.415,11.058C19.997,10.942 20.6,11.001 21.148,11.228C21.696,11.455 22.165,11.84 22.494,12.333C22.824,12.827 23,13.407 23,14C23,14.796 22.684,15.559 22.121,16.121C21.559,16.684 20.796,17 20,17L20,17Z" fill="#374957"/>
</svg>
