<svg width="16" height="32" viewBox="0 0 16 32" fill="none" xmlns="http://www.w3.org/2000/svg" xmlns:xlink="http://www.w3.org/1999/xlink">
<path d="M3.519,0.698C2.8,-0.14 1.537,-0.237 0.698,0.481C-0.14,1.2 -0.237,2.463 0.481,3.302L3.519,0.698ZM14,16L15.519,17.302C16.161,16.553 16.161,15.447 15.519,14.698L14,16ZM0.481,28.698C-0.237,29.537 -0.14,30.8 0.698,31.519C1.537,32.237 2.8,32.14 3.519,31.302L0.481,28.698ZM0.481,3.302L12.481,17.302L15.519,14.698L3.519,0.698L0.481,3.302ZM12.481,14.698L0.481,28.698L3.519,31.302L15.519,17.302L12.481,14.698Z" fill="#FFFFFF"/>
</svg>
