<svg width="50" height="50" viewBox="0 0 50 50" fill="none" xmlns="http://www.w3.org/2000/svg" xmlns:xlink="http://www.w3.org/1999/xlink">
<path d="M42.522,5.478C39.089,2.159 34.566,0.202 29.796,-0.028C25.027,-0.258 20.336,1.255 16.6,4.228C15.789,2.927 14.659,1.855 13.317,1.115C11.974,0.375 10.465,-0.01 8.932,-0.001C7.399,0.007 5.894,0.407 4.56,1.162C3.226,1.917 2.107,3 1.31,4.31C0.514,5.619 0.065,7.111 0.008,8.643C-0.048,10.175 0.288,11.696 0.985,13.061C1.682,14.426 2.718,15.589 3.992,16.441C5.266,17.293 6.738,17.804 8.266,17.926C7.62,21.884 8.208,25.946 9.952,29.558C10.054,29.742 10.093,29.954 10.064,30.163C10.034,30.371 9.938,30.565 9.79,30.714L2.564,36.314C1.823,36.893 1.213,37.621 0.771,38.451C0.329,39.281 0.067,40.194 0,41.132C-0.036,41.929 0.098,42.724 0.392,43.466C0.686,44.207 1.134,44.878 1.706,45.434L2.596,46.278C3.146,46.845 3.808,47.291 4.54,47.588C5.272,47.885 6.058,48.025 6.848,48C7.704,47.984 8.546,47.783 9.317,47.41C10.088,47.037 10.768,46.501 11.312,45.84L17.228,38.282C17.373,38.115 17.57,38.001 17.787,37.958C18.004,37.915 18.23,37.945 18.428,38.044C22.277,39.849 26.594,40.405 30.775,39.635C34.956,38.865 38.792,36.807 41.746,33.75C45.575,29.98 47.813,24.886 48,19.516C48.103,16.925 47.669,14.341 46.727,11.925C45.784,9.509 44.353,7.314 42.522,5.478L42.522,5.478ZM4,9C4,8.011 4.293,7.044 4.842,6.222C5.392,5.4 6.173,4.759 7.086,4.381C8,4.002 9.005,3.903 9.975,4.096C10.945,4.289 11.836,4.765 12.535,5.464C13.235,6.164 13.711,7.055 13.904,8.024C14.097,8.994 13.998,10 13.619,10.913C13.241,11.827 12.6,12.608 11.778,13.157C10.955,13.707 9.989,14 9,14C7.674,14 6.402,13.473 5.464,12.535C4.527,11.598 4,10.326 4,9L4,9ZM20.2,34.452C19.188,33.954 18.037,33.812 16.934,34.051C15.831,34.289 14.841,34.894 14.126,35.766L8.2,43.326C8.029,43.529 7.817,43.694 7.578,43.81C7.339,43.926 7.078,43.99 6.812,43.998C6.547,44.007 6.283,43.959 6.037,43.858C5.791,43.758 5.569,43.606 5.386,43.414L4.498,42.57C4.33,42.408 4.198,42.211 4.113,41.994C4.027,41.776 3.988,41.543 4,41.31C4.04,40.939 4.156,40.58 4.34,40.256C4.524,39.931 4.772,39.647 5.07,39.422L12.294,33.822C13.146,33.103 13.732,32.118 13.958,31.027C14.185,29.935 14.038,28.799 13.542,27.8C12.228,25.066 11.748,22.005 12.16,19L29,35.826C25.995,36.246 22.933,35.768 20.2,34.452L20.2,34.452ZM38.928,30.922C37.333,32.503 35.448,33.762 33.376,34.63L33.42,34.586L14.72,15.89C15.741,15.054 16.564,14.003 17.131,12.812C17.698,11.621 17.995,10.319 18,9C18,8.762 17.948,8.538 17.93,8.306C20.891,5.565 24.777,4.043 28.812,4.043C32.847,4.043 36.733,5.565 39.694,8.306C41.138,9.758 42.266,11.493 43.007,13.403C43.748,15.312 44.086,17.354 44,19.4C43.844,23.749 42.027,27.873 38.922,30.922L38.928,30.922Z" fill="#374957"/>
</svg>
