<svg width="48" height="16" viewBox="0 0 48 16" fill="none" xmlns="http://www.w3.org/2000/svg" xmlns:xlink="http://www.w3.org/1999/xlink">
<path d="M21.862,5.501C21.433,3.921 20.496,2.527 19.195,1.533C17.895,0.539 16.304,0 14.667,0C13.03,0 11.439,0.539 10.139,1.533C8.838,2.527 7.901,3.921 7.472,5.501L0,5.501L0,9.501L7.472,9.501C7.901,11.08 8.838,12.474 10.139,13.468C11.439,14.462 13.03,15.001 14.667,15.001C16.304,15.001 17.895,14.462 19.195,13.468C20.496,12.474 21.433,11.08 21.862,9.501L48,9.501L48,5.501L21.862,5.501ZM14.666,11.001C13.974,11.001 13.297,10.795 12.721,10.411C12.146,10.026 11.697,9.479 11.432,8.84C11.168,8.2 11.098,7.497 11.233,6.818C11.368,6.139 11.702,5.515 12.191,5.026C12.681,4.536 13.304,4.203 13.983,4.068C14.662,3.933 15.366,4.002 16.005,4.267C16.645,4.532 17.192,4.98 17.576,5.556C17.961,6.132 18.166,6.808 18.166,7.501C18.164,8.428 17.795,9.318 17.139,9.974C16.483,10.63 15.594,10.999 14.666,11.001L14.666,11.001Z" fill="#374957"/>
</svg>
