<svg width="48" height="48" viewBox="0 0 48 48" fill="none" xmlns="http://www.w3.org/2000/svg" xmlns:xlink="http://www.w3.org/1999/xlink">
<path d="M31.999,16.001C28.835,16.001 25.741,16.939 23.11,18.697C20.479,20.455 18.428,22.954 17.217,25.878C16.006,28.801 15.689,32.018 16.307,35.122C16.924,38.226 18.448,41.077 20.685,43.314C22.923,45.552 25.774,47.076 28.878,47.693C31.981,48.311 35.199,47.994 38.122,46.783C41.046,45.572 43.545,43.521 45.303,40.89C47.061,38.259 47.999,35.165 47.999,32.001C47.994,27.759 46.307,23.692 43.308,20.692C40.308,17.693 36.241,16.005 31.999,16.001ZM37.999,34.001L33.999,34.001L33.999,38.001L29.999,38.001L29.999,34.001L25.999,34.001L25.999,30.001L29.999,30.001L29.999,26.001L33.999,26.001L33.999,30.001L37.999,30.001L37.999,34.001ZM9.707,27.821L0.287,0.289L27.819,9.709L15.503,15.509L9.707,27.821Z" fill="#374957"/>
</svg>
