<svg width="42" height="48" viewBox="0 0 42 48" fill="none" xmlns="http://www.w3.org/2000/svg" xmlns:xlink="http://www.w3.org/1999/xlink">
<path d="M38.51,12.54C37.877,11.746 37.072,11.104 36.156,10.665C35.24,10.225 34.236,9.998 33.22,10L26.242,10L26.588,6.888C26.616,6.644 26.732,6.419 26.915,6.255C27.098,6.091 27.335,6 27.58,6L35,6C35.796,6 36.559,5.684 37.122,5.121C37.684,4.559 38,3.796 38,3C38,2.204 37.684,1.441 37.122,0.879C36.559,0.316 35.796,0 35,0L27.58,0C25.858,0 24.196,0.635 22.913,1.784C21.63,2.933 20.815,4.514 20.624,6.226L20.2,10L6.78,10C5.778,10 4.787,10.222 3.881,10.651C2.974,11.08 2.174,11.704 1.538,12.48C0.902,13.255 0.446,14.162 0.203,15.135C-0.04,16.108 -0.064,17.123 0.132,18.106L2.972,38.758C3.295,41.309 4.537,43.655 6.465,45.356C8.393,47.057 10.875,47.997 13.446,48L26.554,48C29.119,48 31.596,47.066 33.523,45.373C35.449,43.68 36.694,41.343 37.024,38.8L39.866,18.116C40.064,17.144 40.045,16.14 39.811,15.177C39.577,14.213 39.133,13.313 38.51,12.54L38.51,12.54ZM33.22,16C33.338,15.995 33.456,16.019 33.563,16.068C33.671,16.117 33.765,16.19 33.839,16.283C33.913,16.375 33.964,16.483 33.989,16.599C34.013,16.714 34.01,16.834 33.98,16.948C33.962,17.03 33.55,20 33.55,20L25.13,20L25.574,16L33.22,16ZM6.172,16.292C6.244,16.199 6.336,16.125 6.442,16.074C6.547,16.024 6.663,15.998 6.78,16L19.536,16L19.092,20L6.45,20C6.45,20 6.038,17.026 6.02,16.948C5.993,16.834 5.993,16.716 6.019,16.602C6.046,16.488 6.098,16.382 6.172,16.292L6.172,16.292ZM26.554,42L13.446,42C12.331,41.997 11.255,41.586 10.422,40.845C9.589,40.104 9.055,39.083 8.922,37.976L7.274,26L32.726,26L31.074,38.012C30.935,39.113 30.399,40.125 29.567,40.859C28.735,41.593 27.664,41.999 26.554,42L26.554,42ZM23.648,33.328L23.428,35.328C23.341,36.119 22.944,36.843 22.323,37.341C21.702,37.839 20.909,38.07 20.117,37.983C19.326,37.896 18.602,37.498 18.104,36.877C17.606,36.256 17.375,35.463 17.462,34.672L17.684,32.672C17.726,32.279 17.845,31.899 18.034,31.553C18.224,31.206 18.479,30.9 18.787,30.653C19.095,30.405 19.448,30.221 19.827,30.111C20.206,30 20.603,29.965 20.995,30.008C21.388,30.052 21.768,30.172 22.114,30.362C22.46,30.552 22.764,30.809 23.011,31.118C23.257,31.426 23.441,31.78 23.55,32.159C23.659,32.539 23.693,32.936 23.648,33.328L23.648,33.328Z" fill="#374957"/>
</svg>
