<svg width="48" height="48" viewBox="0 0 48 48" fill="none" xmlns="http://www.w3.org/2000/svg" xmlns:xlink="http://www.w3.org/1999/xlink">
<path d="M28.4,32.522C22.577,30.056 17.947,25.415 15.494,19.586L22.294,12.774L9.774,0.244L3.432,6.584C2.332,7.69 1.463,9.004 0.874,10.448C0.284,11.893 -0.012,13.44 0,15C0,29.496 18.504,48 33,48C34.56,48.014 36.107,47.717 37.552,47.128C38.996,46.539 40.309,45.669 41.414,44.568L47.756,38.226L35.226,25.696L28.4,32.522ZM38.584,41.74C37.85,42.468 36.978,43.043 36.019,43.431C35.061,43.819 34.034,44.012 33,44C20.534,44 4,27.466 4,15C3.989,13.966 4.182,12.939 4.57,11.98C4.958,11.021 5.533,10.149 6.26,9.414L9.774,5.9L16.648,12.774L10.778,18.644L11.268,19.872C12.711,23.731 14.966,27.234 17.881,30.145C20.795,33.056 24.302,35.307 28.162,36.744L29.374,37.206L35.226,31.352L42.1,38.226L38.584,41.74ZM28,4L28,0C33.303,0.006 38.387,2.115 42.136,5.864C45.886,9.614 47.995,14.697 48,20L44,20C43.996,15.758 42.308,11.691 39.309,8.692C36.309,5.692 32.242,4.005 28,4L28,4ZM28,12L28,8C31.182,8.003 34.232,9.268 36.482,11.518C38.732,13.768 39.997,16.818 40,20L36,20C36,17.878 35.158,15.843 33.657,14.343C32.157,12.843 30.122,12 28,12Z" fill="#374957"/>
</svg>
