<svg width="28" height="48" viewBox="0 0 28 48" fill="none" xmlns="http://www.w3.org/2000/svg" xmlns:xlink="http://www.w3.org/1999/xlink">
<path d="M24,24.702L24,17C24,16.204 23.684,15.441 23.121,14.878C22.559,14.316 21.796,14 21,14L20,14L20,3.62C20,3.003 19.842,2.396 19.541,1.858C19.241,1.319 18.807,0.866 18.283,0.542C17.758,0.218 17.159,0.033 16.543,0.006C15.927,-0.022 15.314,0.108 14.762,0.384L10.832,2.35C9.981,2.775 9.265,3.428 8.765,4.237C8.265,5.046 8,5.978 8,6.93L8,14L7,14C6.204,14 5.441,14.316 4.879,14.878C4.316,15.441 4,16.204 4,17L4,24.702C2.807,25.267 1.799,26.159 1.091,27.273C0.383,28.388 0.005,29.68 0,31L0,37C0.003,39.916 1.163,42.712 3.225,44.774C5.288,46.837 8.084,47.996 11,48L17,48C19.916,47.996 22.712,46.837 24.775,44.774C26.837,42.712 27.997,39.916 28,37L28,31C27.995,29.68 27.617,28.388 26.909,27.273C26.201,26.159 25.193,25.267 24,24.702ZM10,24L10,20L18,20L18,24L10,24ZM22,37C22,38.326 21.473,39.598 20.536,40.535C19.598,41.473 18.326,42 17,42L11,42C9.674,42 8.402,41.473 7.464,40.535C6.527,39.598 6,38.326 6,37L6,31C6,30.734 6.105,30.48 6.293,30.293C6.48,30.105 6.735,30 7,30L21,30C21.265,30 21.52,30.105 21.707,30.293C21.895,30.48 22,30.734 22,31L22,37Z" fill="#374957"/>
</svg>
