<svg width="48" height="50" viewBox="0 0 48 50" fill="none" xmlns="http://www.w3.org/2000/svg" xmlns:xlink="http://www.w3.org/1999/xlink">
<path d="M46.516,9.894C44.259,7.199 41.39,5.082 38.148,3.721C34.906,2.361 31.386,1.795 27.882,2.072C27.502,1.662 27.071,1.301 26.6,1C25.781,0.494 24.864,0.171 23.909,0.051C22.954,-0.068 21.985,0.021 21.068,0.31C17.032,1.564 13.29,3.62 10.066,6.353C6.842,9.086 4.203,12.442 2.306,16.218C1.496,17.819 0.823,19.486 0.294,21.2C0.012,22.11 -0.071,23.07 0.051,24.014C0.172,24.959 0.496,25.866 1,26.674C1.308,27.155 1.678,27.593 2.102,27.976C1.838,31.465 2.409,34.966 3.768,38.19C5.127,41.414 7.234,44.267 9.916,46.514C10.656,47.132 11.526,47.575 12.461,47.809C13.396,48.044 14.372,48.064 15.316,47.868C16.296,47.672 17.219,47.257 18.015,46.654C18.812,46.051 19.462,45.275 19.916,44.384L26.336,31.834C27.616,31.396 28.779,30.67 29.736,29.713C30.694,28.757 31.42,27.594 31.86,26.314L44.374,19.896C45.264,19.442 46.039,18.792 46.642,17.996C47.245,17.199 47.66,16.276 47.856,15.296C48.053,14.353 48.036,13.377 47.804,12.442C47.572,11.507 47.131,10.636 46.516,9.894L46.516,9.894ZM6.03,22.968C7.253,18.992 9.426,15.373 12.359,12.422C15.293,9.472 18.9,7.28 22.87,6.034C22.963,6.004 23.061,5.994 23.158,6.005C23.255,6.016 23.349,6.047 23.434,6.096C23.505,6.139 23.566,6.197 23.612,6.266C23.657,6.335 23.687,6.414 23.698,6.496L26.33,22.896C26.401,23.363 26.361,23.84 26.215,24.289C26.068,24.738 25.818,25.146 25.484,25.481C25.151,25.815 24.744,26.067 24.296,26.216C23.848,26.364 23.371,26.406 22.904,26.336L6.504,23.772C6.421,23.759 6.342,23.728 6.273,23.681C6.204,23.634 6.146,23.572 6.104,23.5C6.052,23.423 6.018,23.335 6.006,23.243C5.993,23.151 6.001,23.057 6.03,22.968L6.03,22.968ZM14.586,41.65C14.541,41.737 14.478,41.812 14.4,41.87C14.323,41.929 14.233,41.969 14.138,41.988C14.075,42.006 14.01,42.008 13.946,41.995C13.883,41.982 13.824,41.954 13.774,41.912C12.037,40.461 10.63,38.655 9.648,36.615C8.666,34.576 8.132,32.349 8.082,30.086L19.582,31.886L14.586,41.65ZM41.648,14.558L31.872,19.57L30.022,8.034C32.297,8.077 34.536,8.609 36.587,9.594C38.639,10.578 40.455,11.992 41.912,13.74C41.953,13.791 41.982,13.85 41.995,13.914C42.008,13.978 42.006,14.044 41.988,14.106C41.968,14.202 41.928,14.293 41.869,14.371C41.81,14.449 41.735,14.513 41.648,14.558L41.648,14.558Z" fill="#374957"/>
</svg>
