<svg width="48" height="50" viewBox="0 0 48 50" fill="none" xmlns="http://www.w3.org/2000/svg" xmlns:xlink="http://www.w3.org/1999/xlink">
<path d="M43.022,4.98C39.832,1.796 35.508,0.007 31.001,0.007C26.493,0.007 22.17,1.796 18.98,4.98C12.636,11.322 12.024,27.256 12,27.932L11.972,28.8L14.172,31L5.614,39.558C5.332,39.042 4.904,38.62 4.384,38.345C3.864,38.07 3.274,37.954 2.689,38.012C2.103,38.069 1.547,38.297 1.091,38.668C0.634,39.039 0.296,39.536 0.12,40.097C-0.057,40.658 -0.064,41.259 0.098,41.824C0.26,42.39 0.585,42.895 1.032,43.278C1.479,43.66 2.029,43.902 2.613,43.974C3.197,44.047 3.789,43.946 4.316,43.684C4.054,44.211 3.953,44.803 4.025,45.387C4.098,45.971 4.34,46.521 4.722,46.968C5.105,47.415 5.61,47.74 6.176,47.902C6.741,48.064 7.342,48.057 7.903,47.88C8.464,47.704 8.961,47.366 9.332,46.909C9.703,46.452 9.931,45.897 9.988,45.311C10.046,44.726 9.93,44.136 9.655,43.616C9.38,43.096 8.958,42.668 8.442,42.386L17,33.828L19.2,36.028L20.068,36C20.744,35.976 36.668,35.364 43.022,29.02C46.205,25.83 47.993,21.507 47.993,17C47.993,12.493 46.205,8.17 43.022,4.98L43.022,4.98ZM40.2,26.2C36.128,30.27 25.53,31.688 20.8,31.968L16.04,27.21C16.32,22.476 17.738,11.878 21.808,7.81C24.246,5.371 27.554,4.001 31.003,4.001C34.452,4 37.76,5.37 40.199,7.809C42.638,10.248 44.008,13.555 44.008,17.004C44.008,20.453 42.638,23.761 40.2,26.2L40.2,26.2Z" fill="#374957"/>
</svg>
