<svg width="48" height="48" viewBox="0 0 48 48" fill="none" xmlns="http://www.w3.org/2000/svg" xmlns:xlink="http://www.w3.org/1999/xlink">
<path d="M29,25.999C28.407,25.999 27.827,25.823 27.333,25.493C26.84,25.164 26.456,24.695 26.228,24.147C26.001,23.599 25.942,22.996 26.058,22.414C26.174,21.832 26.459,21.297 26.879,20.878C27.298,20.458 27.833,20.172 28.415,20.056C28.997,19.941 29.6,20 30.148,20.227C30.696,20.454 31.165,20.839 31.495,21.332C31.824,21.825 32,22.406 32,22.999C32,23.795 31.684,24.558 31.121,25.12C30.559,25.683 29.796,25.999 29,25.999ZM47.842,35.541C48.108,37.069 48.036,38.636 47.632,40.134C47.228,41.631 46.501,43.022 45.503,44.209C44.505,45.396 43.259,46.35 41.853,47.005C40.447,47.659 38.915,47.999 37.364,47.999L31,47.999C30.204,47.999 29.441,47.683 28.879,47.12C28.316,46.558 28,45.795 28,44.999L28,41.451C26.694,41.793 25.351,41.977 24,41.999C22.647,41.995 21.301,41.805 20,41.435L20,44.999C20,45.795 19.684,46.558 19.121,47.12C18.559,47.683 17.796,47.999 17,47.999L10.634,47.999C9.083,47.998 7.551,47.659 6.146,47.004C4.74,46.349 3.495,45.395 2.497,44.208C1.498,43.021 0.772,41.631 0.368,40.133C-0.036,38.636 -0.108,37.069 0.158,35.541L0.958,31.493C1.198,30.182 1.824,28.973 2.754,28.019C3.685,27.066 4.879,26.411 6.184,26.139C7.488,25.868 8.844,25.991 10.078,26.493C11.312,26.996 12.369,27.855 13.112,28.961C15.316,32.199 19.49,35.999 24,35.999C26.738,35.857 29.379,34.935 31.609,33.34C33.839,31.745 35.565,29.544 36.584,26.999C36.791,26.414 37.174,25.907 37.681,25.549C38.188,25.191 38.793,24.999 39.414,24.999L40.052,24.999C40.568,24.995 41.061,24.788 41.426,24.423C41.79,24.058 41.996,23.565 42,23.049C42,22.634 41.855,22.233 41.589,21.915C41.323,21.597 40.954,21.382 40.546,21.309C39.908,21.193 39.325,20.873 38.884,20.398C38.443,19.923 38.168,19.317 38.1,18.673C37.737,15.189 36.093,11.965 33.488,9.623C30.884,7.282 27.503,5.99 24,5.999C14,5.999 11.362,11.889 9.04,17.087L8.79,17.645C14.098,16.919 19.045,14.551 22.94,10.873C23.216,10.582 23.548,10.35 23.916,10.19C24.283,10.03 24.679,9.945 25.08,9.94C25.481,9.936 25.879,10.012 26.25,10.164C26.621,10.315 26.958,10.54 27.241,10.824C27.524,11.109 27.747,11.447 27.896,11.819C28.046,12.191 28.12,12.589 28.114,12.99C28.107,13.39 28.02,13.786 27.858,14.153C27.696,14.519 27.462,14.85 27.17,15.125C25.095,17.174 22.718,18.893 20.122,20.221C20.675,20.44 21.151,20.818 21.489,21.307C21.827,21.796 22.013,22.375 22.024,22.97C22.034,23.564 21.868,24.149 21.546,24.649C21.224,25.149 20.762,25.543 20.217,25.781C19.672,26.019 19.068,26.09 18.483,25.986C17.897,25.881 17.356,25.606 16.927,25.194C16.497,24.782 16.2,24.253 16.071,23.672C15.943,23.091 15.989,22.485 16.204,21.931C11.901,23.478 7.339,24.18 2.77,23.999C2.127,23.955 1.516,23.705 1.026,23.286C0.536,22.868 0.194,22.303 0.05,21.674C-0.094,21.046 -0.031,20.388 0.228,19.798C0.488,19.208 0.93,18.718 1.49,18.399C2.371,17.259 3.07,15.99 3.562,14.637C6,9.163 10.106,-0.001 24,-0.001C28.653,-0.012 33.167,1.59 36.772,4.532C40.377,7.474 42.852,11.574 43.774,16.135C45.046,16.786 46.113,17.775 46.859,18.993C47.604,20.212 47.999,21.612 48,23.041C47.998,24.711 47.464,26.337 46.476,27.683L47.842,35.541ZM14,38.427C11.723,36.736 9.745,34.676 8.148,32.331C8.087,32.227 7.999,32.141 7.894,32.083C7.788,32.024 7.669,31.995 7.548,31.999C7.382,32.003 7.223,32.066 7.098,32.175C6.973,32.285 6.89,32.435 6.864,32.599L6.064,36.645C5.961,37.306 6.002,37.981 6.185,38.624C6.367,39.267 6.686,39.864 7.12,40.372C7.555,40.881 8.094,41.289 8.7,41.57C9.307,41.851 9.968,41.997 10.636,41.999L14,41.999L14,38.427ZM41.93,36.567L41.054,31.531C39.354,34.539 36.929,37.075 34,38.909L34,41.999L37.362,41.999C38.038,41.999 38.706,41.851 39.319,41.565C39.931,41.28 40.474,40.864 40.909,40.347C41.345,39.829 41.661,39.223 41.838,38.571C42.014,37.918 42.046,37.235 41.93,36.569L41.93,36.567Z" fill="#374957"/>
</svg>
