<svg width="48" height="48" viewBox="0 0 48 48" fill="none" xmlns="http://www.w3.org/2000/svg" xmlns:xlink="http://www.w3.org/1999/xlink">
<path d="M44.748,2.076C43.731,1.233 42.541,0.623 41.262,0.291C39.983,-0.04 38.647,-0.087 37.348,0.156L18.972,3.6C16.45,4.073 14.173,5.413 12.535,7.387C10.897,9.362 10,11.847 10,14.412L10,32.282C9.348,32.104 8.676,32.009 8,32C6.418,32 4.871,32.469 3.555,33.348C2.24,34.228 1.214,35.477 0.609,36.939C0.003,38.401 -0.155,40.009 0.154,41.561C0.462,43.113 1.224,44.538 2.343,45.657C3.462,46.776 4.887,47.538 6.439,47.847C7.991,48.155 9.6,47.997 11.061,47.391C12.523,46.786 13.773,45.76 14.652,44.445C15.531,43.129 16,41.582 16,40L16,24C16,23.3 16.245,22.623 16.692,22.084C17.139,21.546 17.76,21.181 18.448,21.052L40.814,16.852C40.958,16.821 41.108,16.824 41.251,16.861C41.394,16.898 41.526,16.967 41.638,17.064C41.752,17.159 41.844,17.277 41.906,17.411C41.969,17.546 42.001,17.692 42,17.84L42,26.282C40.387,25.868 38.685,25.969 37.132,26.571C35.579,27.172 34.254,28.244 33.34,29.637C32.427,31.029 31.972,32.672 32.038,34.336C32.105,36 32.691,37.601 33.713,38.916C34.735,40.231 36.142,41.193 37.738,41.668C39.334,42.143 41.039,42.107 42.614,41.565C44.188,41.024 45.554,40.003 46.52,38.647C47.486,37.29 48.003,35.665 48,34L48,9C48.001,7.678 47.711,6.371 47.149,5.174C46.586,3.977 45.767,2.919 44.748,2.076L44.748,2.076ZM39.71,10.958L17.342,15.154C16.886,15.245 16.437,15.372 16,15.532L16,14.412C16,13.246 16.408,12.117 17.152,11.219C17.897,10.322 18.932,9.713 20.078,9.498L38.448,6.054C38.881,5.973 39.327,5.988 39.753,6.099C40.179,6.21 40.576,6.413 40.915,6.694C41.254,6.975 41.527,7.327 41.715,7.726C41.902,8.125 42,8.56 42,9L42,10.952C41.241,10.829 40.468,10.831 39.71,10.958L39.71,10.958Z" fill="#374957"/>
</svg>
