<svg width="48" height="48" viewBox="0 0 48 48" fill="none" xmlns="http://www.w3.org/2000/svg" xmlns:xlink="http://www.w3.org/1999/xlink">
<path d="M24,0C19.253,0 14.613,1.408 10.666,4.045C6.72,6.682 3.643,10.43 1.827,14.816C0.01,19.201 -0.465,24.027 0.461,28.682C1.387,33.338 3.673,37.614 7.029,40.971C10.386,44.327 14.662,46.613 19.318,47.539C23.973,48.465 28.799,47.99 33.184,46.173C37.57,44.357 41.318,41.28 43.955,37.334C46.592,33.387 48,28.747 48,24C47.993,17.637 45.462,11.536 40.963,7.037C36.464,2.538 30.363,0.007 24,0L24,0ZM24,4C28.613,3.996 33.085,5.594 36.65,8.522L8.522,36.65C6.124,33.721 4.607,30.171 4.148,26.414C3.688,22.657 4.305,18.846 5.927,15.426C7.548,12.005 10.107,9.116 13.307,7.093C16.507,5.07 20.215,3.998 24,4L24,4ZM24,44C19.387,44.005 14.915,42.407 11.35,39.478L39.478,11.35C41.876,14.279 43.393,17.829 43.852,21.586C44.312,25.343 43.695,29.154 42.073,32.574C40.452,35.995 37.893,38.884 34.693,40.907C31.493,42.93 27.785,44.002 24,44L24,44Z" fill="#374957"/>
</svg>
