<svg width="46" height="50" viewBox="0 0 46 50" fill="none" xmlns="http://www.w3.org/2000/svg" xmlns:xlink="http://www.w3.org/1999/xlink">
<path d="M38.874,8.16L27.33,1.496C25.708,0.563 23.87,0.072 22,0.072C20.129,0.072 18.291,0.563 16.67,1.496L5.126,8.16C3.507,9.099 2.163,10.446 1.228,12.068C0.293,13.69 -0.199,15.528 -0.2,17.4L-0.2,30.728C-0.197,32.598 0.297,34.435 1.232,36.055C2.167,37.675 3.511,39.022 5.13,39.96L16.674,46.624C18.295,47.557 20.133,48.048 22.004,48.048C23.874,48.048 25.712,47.557 27.334,46.624L38.878,39.96C40.496,39.02 41.839,37.671 42.773,36.05C43.707,34.428 44.199,32.589 44.2,30.718L44.2,17.4C44.199,15.528 43.706,13.69 42.772,12.068C41.837,10.446 40.493,9.099 38.874,8.16L38.874,8.16ZM19.674,6.692C20.383,6.284 21.186,6.07 22.004,6.07C22.821,6.07 23.625,6.284 24.334,6.692L35.2,12.968L24.834,18.956C23.971,19.45 22.994,19.71 22,19.71C21.005,19.71 20.028,19.45 19.166,18.956L8.8,12.968L19.674,6.692ZM8.126,34.754C7.419,34.343 6.833,33.754 6.424,33.046C6.016,32.338 5.801,31.535 5.8,30.718L5.8,18.164L16.17,24.15C17.058,24.664 18.011,25.057 19.004,25.318L19.004,41.032L8.126,34.754ZM35.874,34.754L25,41.032L25,25.318C25.992,25.057 26.945,24.664 27.834,24.15L38.2,18.164L38.2,30.718C38.199,31.535 37.983,32.338 37.575,33.046C37.167,33.754 36.58,34.343 35.874,34.754Z" fill="#374957"/>
</svg>
