<svg width="48" height="50" viewBox="0 0 48 50" fill="none" xmlns="http://www.w3.org/2000/svg" xmlns:xlink="http://www.w3.org/1999/xlink">
<path d="M48,42C48.002,42.788 47.849,43.569 47.549,44.297C47.249,45.026 46.809,45.688 46.253,46.247C45.697,46.805 45.037,47.249 44.309,47.552C43.582,47.855 42.802,48.012 42.014,48.014C41.227,48.016 40.446,47.863 39.717,47.563C38.989,47.263 38.326,46.822 37.768,46.267C36.64,45.144 36.004,43.619 36,42.028L31,39.168C30.092,39.707 29.057,39.994 28,40C26.409,40 24.883,39.368 23.758,38.243C22.633,37.118 22,35.591 22,34C22,32.409 22.633,30.883 23.758,29.757C24.883,28.632 26.409,28 28,28C29.057,28.006 30.092,28.293 31,28.832L36,25.972C36.006,24.787 36.363,23.629 37.025,22.646C37.688,21.663 38.627,20.899 39.724,20.449C40.821,19.999 42.026,19.884 43.188,20.119C44.35,20.353 45.417,20.927 46.253,21.767C47.089,22.608 47.658,23.677 47.887,24.84C48.116,26.003 47.996,27.208 47.541,28.303C47.086,29.397 46.317,30.333 45.331,30.991C44.345,31.649 43.186,32 42,32C40.944,31.994 39.909,31.707 39,31.168L34.046,34L39,36.832C39.909,36.293 40.944,36.006 42,36C43.592,36 45.118,36.632 46.243,37.757C47.368,38.883 48,40.409 48,42ZM18.617,6.114C19.986,5.907 21.382,5.975 22.725,6.314C24.067,6.654 25.329,7.258 26.434,8.092C27.523,8.908 28.437,9.933 29.124,11.107C29.811,12.281 30.256,13.58 30.434,14.928C30.522,15.581 30.822,16.187 31.288,16.653C31.755,17.118 32.361,17.418 33.014,17.504C33.695,17.595 34.365,17.754 35.014,17.978C35.767,18.237 36.591,18.186 37.306,17.837C38.021,17.488 38.569,16.869 38.827,16.117C39.086,15.365 39.036,14.54 38.687,13.825C38.338,13.11 37.719,12.563 36.966,12.304C36.628,12.188 36.284,12.083 35.936,11.988C34.872,8.14 32.436,4.814 29.089,2.638C25.742,0.461 21.713,-0.415 17.765,0.174C14.444,0.667 11.361,2.185 8.946,4.516C6.53,6.846 4.903,9.873 4.293,13.174C3.659,16.426 4.037,19.793 5.375,22.824C3.317,24.127 1.725,26.048 0.826,28.311C-0.072,30.575 -0.23,33.065 0.375,35.424C1.081,37.932 2.599,40.134 4.691,41.686C6.784,43.238 9.332,44.052 11.937,44L17.001,44C17.796,44 18.559,43.684 19.122,43.121C19.684,42.559 20.001,41.796 20.001,41C20.001,40.204 19.684,39.441 19.122,38.879C18.559,38.316 17.796,38 17.001,38L11.937,38C10.665,38.038 9.417,37.66 8.379,36.925C7.342,36.189 6.572,35.136 6.187,33.924C5.874,32.7 5.991,31.406 6.516,30.257C7.042,29.109 7.944,28.174 9.075,27.61C10.231,26.987 11.094,25.931 11.473,24.673C11.852,23.416 11.718,22.059 11.099,20.9C10.067,18.863 9.746,16.54 10.187,14.3C10.563,12.227 11.578,10.323 13.089,8.856C14.601,7.388 16.533,6.429 18.617,6.114L18.617,6.114Z" fill="#374957"/>
</svg>
