<svg width="48" height="48" viewBox="0 0 48 48" fill="none" xmlns="http://www.w3.org/2000/svg" xmlns:xlink="http://www.w3.org/1999/xlink">
<path d="M40.982,7.02C37.626,3.667 33.352,1.384 28.699,0.46C24.046,-0.464 19.223,0.013 14.841,1.829C10.458,3.645 6.713,6.72 4.078,10.665C1.443,14.609 0.036,19.247 0.036,23.991C0.036,28.735 1.443,33.372 4.078,37.317C6.713,41.261 10.458,44.336 14.841,46.153C19.223,47.969 24.046,48.445 28.699,47.521C33.352,46.597 37.626,44.315 40.982,40.962C45.476,36.457 48,30.354 48,23.991C48,17.628 45.476,11.524 40.982,7.02L40.982,7.02ZM41.532,19.972C38.003,19.809 34.662,18.334 32.164,15.836C29.666,13.338 28.191,9.997 28.028,6.468C31.327,7.208 34.348,8.87 36.739,11.261C39.13,13.651 40.792,16.673 41.532,19.972L41.532,19.972ZM6.49,28.002C10.021,28.164 13.364,29.64 15.863,32.139C18.362,34.638 19.838,37.981 20,41.512C16.699,40.773 13.675,39.111 11.283,36.719C8.891,34.326 7.229,31.303 6.49,28.002L6.49,28.002ZM36.74,36.72C33.846,39.614 30.049,41.43 25.98,41.866C25.919,36.622 23.808,31.61 20.1,27.902C16.392,24.193 11.38,22.083 6.136,22.022C6.572,17.953 8.388,14.155 11.282,11.262C14.176,8.368 17.973,6.552 22.042,6.116C22.108,11.36 24.219,16.37 27.925,20.081C31.632,23.791 36.64,25.907 41.884,25.978C41.445,30.04 39.63,33.831 36.74,36.72Z" fill="#374957"/>
</svg>
