<svg width="48" height="36" viewBox="0 0 48 36" fill="none" xmlns="http://www.w3.org/2000/svg" xmlns:xlink="http://www.w3.org/1999/xlink">
<path d="M20.985,35.619C19.218,35.617 17.498,35.05 16.077,34.001L3.401,24.705C2.349,23.933 1.494,22.924 0.904,21.76C0.315,20.596 0.008,19.309 0.008,18.005C0.008,16.7 0.315,15.414 0.904,14.25C1.494,13.086 2.349,12.077 3.401,11.305L16.075,2.001C17.145,1.216 18.388,0.699 19.699,0.493C21.011,0.286 22.352,0.397 23.612,0.815C24.872,1.233 26.014,1.946 26.942,2.895C27.87,3.844 28.557,5.002 28.947,6.271L34.773,2.001C36.011,1.092 37.478,0.545 39.009,0.419C40.54,0.293 42.076,0.594 43.446,1.289C44.816,1.983 45.967,3.044 46.771,4.353C47.575,5.662 48.001,7.168 48.001,8.705L48.001,27.305C47.999,28.84 47.573,30.346 46.768,31.653C45.964,32.961 44.813,34.021 43.442,34.714C42.072,35.408 40.537,35.708 39.007,35.582C37.476,35.456 36.011,34.909 34.773,34.001L28.947,29.731C28.421,31.433 27.365,32.923 25.933,33.982C24.5,35.042 22.766,35.615 20.985,35.619L20.985,35.619ZM20.965,6.379C20.479,6.382 20.009,6.543 19.623,6.837L6.947,16.135C6.653,16.35 6.415,16.631 6.251,16.955C6.087,17.279 6.001,17.637 6.001,18.001C6.001,18.364 6.087,18.722 6.251,19.047C6.415,19.371 6.653,19.652 6.947,19.867L19.625,29.165C19.97,29.417 20.378,29.569 20.804,29.603C21.23,29.638 21.657,29.554 22.038,29.36C22.419,29.167 22.739,28.872 22.963,28.507C23.186,28.143 23.305,27.724 23.305,27.297L23.305,24.075C23.304,23.52 23.458,22.977 23.748,22.504C24.038,22.032 24.454,21.649 24.948,21.398C25.443,21.148 25.997,21.039 26.55,21.084C27.102,21.129 27.631,21.327 28.079,21.655L38.319,29.165C38.664,29.417 39.072,29.569 39.498,29.603C39.924,29.637 40.351,29.553 40.732,29.36C41.114,29.167 41.434,28.871 41.658,28.507C41.881,28.143 42,27.724 42.001,27.297L42.001,8.697C42,8.269 41.881,7.85 41.658,7.486C41.434,7.122 41.114,6.827 40.732,6.634C40.351,6.44 39.924,6.356 39.498,6.391C39.072,6.425 38.664,6.577 38.319,6.829L28.079,14.339C27.631,14.667 27.102,14.864 26.55,14.909C25.997,14.955 25.443,14.846 24.948,14.595C24.454,14.345 24.038,13.962 23.748,13.489C23.458,13.017 23.304,12.473 23.305,11.919L23.305,8.705C23.311,8.276 23.196,7.854 22.972,7.489C22.747,7.123 22.424,6.829 22.039,6.641C21.705,6.472 21.338,6.383 20.965,6.379L20.965,6.379Z" fill="#374957"/>
</svg>
