<svg width="48" height="48" viewBox="0 0 48 48" fill="none" xmlns="http://www.w3.org/2000/svg" xmlns:xlink="http://www.w3.org/1999/xlink">
<path d="M17,6C17,4.813 17.352,3.653 18.011,2.667C18.67,1.68 19.607,0.911 20.704,0.457C21.8,0.003 23.006,-0.116 24.17,0.115C25.334,0.347 26.403,0.918 27.242,1.757C28.081,2.596 28.653,3.666 28.884,4.829C29.116,5.993 28.997,7.2 28.543,8.296C28.089,9.392 27.32,10.33 26.333,10.989C25.346,11.648 24.186,12 23,12C21.408,12 19.882,11.368 18.757,10.243C17.632,9.117 17,7.591 17,6L17,6ZM45,40L43.032,40L40.8,34.4C40.284,33.099 39.387,31.983 38.228,31.198C37.069,30.413 35.7,29.996 34.3,30L27,30C26.735,30 26.48,29.895 26.293,29.707C26.105,29.52 26,29.265 26,29L26,26L35,26C35.795,26 36.558,25.684 37.121,25.121C37.684,24.559 38,23.796 38,23C38,22.204 37.684,21.441 37.121,20.879C36.558,20.316 35.795,20 35,20L26,20L26,17C26,16.204 25.684,15.441 25.121,14.879C24.558,14.316 23.795,14 23,14C22.204,14 21.441,14.316 20.878,14.879C20.316,15.441 20,16.204 20,17L20,29C20.006,30.543 20.521,32.041 21.467,33.26C22.412,34.48 23.733,35.353 25.226,35.744C24.58,37.329 23.538,38.722 22.199,39.788C20.86,40.855 19.269,41.559 17.579,41.833C15.889,42.106 14.158,41.941 12.55,41.352C10.943,40.764 9.514,39.772 8.401,38.471C7.288,37.171 6.528,35.606 6.194,33.927C5.86,32.248 5.964,30.512 6.495,28.884C7.026,27.257 7.967,25.794 9.227,24.635C10.487,23.476 12.024,22.661 13.69,22.268C14.464,22.085 15.134,21.602 15.552,20.925C15.971,20.248 16.103,19.432 15.92,18.658C15.737,17.884 15.254,17.214 14.577,16.795C13.9,16.377 13.084,16.245 12.31,16.428C9.551,17.08 7.015,18.454 4.962,20.408C2.908,22.363 1.411,24.827 0.623,27.55C-0.165,30.273 -0.216,33.157 0.477,35.906C1.169,38.655 2.579,41.17 4.563,43.195C6.547,45.22 9.033,46.682 11.767,47.43C14.501,48.179 17.385,48.188 20.124,47.456C22.862,46.724 25.357,45.277 27.353,43.265C29.349,41.252 30.775,38.745 31.484,36L34.284,36C34.483,36 34.678,36.059 34.844,36.171C35.009,36.283 35.137,36.441 35.212,36.626L38.212,44.114C38.435,44.671 38.819,45.149 39.316,45.485C39.813,45.821 40.4,46.001 41,46L45,46C45.795,46 46.558,45.684 47.121,45.121C47.684,44.559 48,43.796 48,43C48,42.204 47.684,41.441 47.121,40.879C46.558,40.316 45.795,40 45,40Z" fill="#374957"/>
</svg>
