<svg width="48" height="48" viewBox="0 0 48 48" fill="none" xmlns="http://www.w3.org/2000/svg" xmlns:xlink="http://www.w3.org/1999/xlink">
<path d="M24,0C19.253,0 14.613,1.408 10.666,4.045C6.72,6.682 3.643,10.43 1.827,14.816C0.01,19.201 -0.465,24.027 0.461,28.682C1.387,33.338 3.673,37.614 7.029,40.971C10.386,44.327 14.662,46.613 19.318,47.539C23.973,48.465 28.799,47.99 33.184,46.173C37.57,44.357 41.318,41.28 43.955,37.334C46.592,33.387 48,28.747 48,24C47.993,17.637 45.462,11.536 40.963,7.037C36.464,2.538 30.363,0.007 24,0L24,0ZM24,42C20.44,42 16.96,40.944 14,38.966C11.04,36.989 8.733,34.177 7.37,30.888C6.008,27.599 5.651,23.98 6.346,20.488C7.04,16.997 8.755,13.789 11.272,11.272C13.789,8.755 16.997,7.04 20.488,6.346C23.98,5.651 27.599,6.008 30.888,7.37C34.177,8.733 36.989,11.04 38.966,14C40.944,16.96 42,20.44 42,24C41.995,28.772 40.097,33.348 36.722,36.722C33.348,40.097 28.772,41.995 24,42L24,42ZM27,21.38C27.509,21.957 27.841,22.669 27.955,23.431C28.07,24.192 27.962,24.97 27.646,25.672C27.329,26.373 26.817,26.968 26.17,27.386C25.523,27.804 24.77,28.026 24,28.026C23.23,28.026 22.477,27.804 21.83,27.386C21.183,26.968 20.671,26.373 20.354,25.672C20.038,24.97 19.93,24.192 20.045,23.431C20.159,22.669 20.491,21.957 21,21.38L21,13C21,12.204 21.316,11.441 21.879,10.879C22.441,10.316 23.204,10 24,10C24.796,10 25.559,10.316 26.121,10.879C26.684,11.441 27,12.204 27,13L27,21.38Z" fill="#374957"/>
</svg>
