<svg width="36" height="28" viewBox="0 0 36 28" fill="none" xmlns="http://www.w3.org/2000/svg" xmlns:xlink="http://www.w3.org/1999/xlink">
<path d="M2,12.5C1.172,12.5 0.5,13.172 0.5,14C0.5,14.828 1.172,15.5 2,15.5L2,12.5ZM34,14L35.061,15.061C35.646,14.475 35.646,13.525 35.061,12.939L34,14ZM23.061,0.939C22.475,0.354 21.525,0.354 20.939,0.939C20.354,1.525 20.354,2.475 20.939,3.061L23.061,0.939ZM20.939,24.939C20.354,25.525 20.354,26.475 20.939,27.061C21.525,27.646 22.475,27.646 23.061,27.061L20.939,24.939ZM2,15.5L34,15.5L34,12.5L2,12.5L2,15.5ZM35.061,12.939L23.061,0.939L20.939,3.061L32.939,15.061L35.061,12.939ZM32.939,12.939L20.939,24.939L23.061,27.061L35.061,15.061L32.939,12.939Z" transform="rotate(180 18 14)" fill="#EE6611"/>
</svg>
