<svg width="48" height="50" viewBox="0 0 48 50" fill="none" xmlns="http://www.w3.org/2000/svg" xmlns:xlink="http://www.w3.org/1999/xlink">
<path d="M47.464,44.474L35.906,48.074L34.718,44.254L38.578,43.054L36.978,37.942C34.637,38.183 32.286,37.586 30.342,36.258C28.399,34.93 26.989,32.957 26.362,30.688L26.092,29.888L28.012,24L45.2,24L45.6,25.214C46.239,27.395 46.111,29.729 45.238,31.826C44.364,33.924 42.798,35.659 40.8,36.742L42.4,41.858L46.278,40.658L47.464,44.474ZM21.144,12.368L13.438,10.22C11.938,9.806 10.336,9.99 8.969,10.732C7.601,11.474 6.575,12.717 6.104,14.2L4.156,20L25.238,20L25.278,19.882C25.509,19.117 25.585,18.314 25.501,17.52C25.417,16.725 25.176,15.956 24.791,15.256C24.406,14.556 23.885,13.94 23.259,13.444C22.632,12.948 21.914,12.582 21.144,12.368L21.144,12.368ZM2.37,25.314C1.759,27.479 1.9,29.787 2.773,31.861C3.645,33.935 5.195,35.651 7.17,36.728L5.536,41.864L1.642,40.664L0.46,44.474L12.022,48.074L13.208,44.254L9.362,43.054L11,37.932C11.339,37.972 11.679,37.995 12.02,38C14.182,37.995 16.285,37.289 18.012,35.988C19.739,34.687 20.998,32.861 21.6,30.784L23.89,24L2.812,24L2.37,25.314ZM35.414,3.414L32.586,0.586L28.01,5.164L30.838,8L35.414,3.414ZM19.914,5.086L15.414,0.586L12.586,3.414L17.086,7.914L19.914,5.086ZM22,6L26,6L26,0L22,0L22,6ZM29.312,20L43.852,20L41.92,14.264C41.456,12.769 40.431,11.512 39.059,10.758C37.687,10.004 36.077,9.811 34.566,10.22L27.512,12.186C27.799,12.547 28.06,12.928 28.294,13.326C29.407,15.362 29.768,17.725 29.312,20L29.312,20Z" fill="#374957"/>
</svg>
