<svg width="48" height="40" viewBox="0 0 48 40" fill="none" xmlns="http://www.w3.org/2000/svg" xmlns:xlink="http://www.w3.org/1999/xlink">
<path d="M15.1,39.5C33.209,39.5 43.117,24.494 43.117,11.484C43.117,11.062 43.107,10.631 43.088,10.209C45.016,8.815 46.679,7.089 48,5.111C46.205,5.91 44.299,6.431 42.348,6.658C44.403,5.426 45.941,3.491 46.678,1.212C44.745,2.358 42.631,3.166 40.427,3.602C38.942,2.024 36.978,0.979 34.839,0.629C32.701,0.278 30.506,0.643 28.595,1.665C26.685,2.687 25.164,4.31 24.268,6.283C23.372,8.256 23.151,10.47 23.639,12.581C19.725,12.385 15.896,11.368 12.4,9.597C8.904,7.825 5.819,5.339 3.346,2.3C2.089,4.467 1.704,7.032 2.27,9.473C2.836,11.914 4.31,14.047 6.393,15.44C4.829,15.391 3.3,14.97 1.931,14.212L1.931,14.334C1.93,16.609 2.716,18.814 4.157,20.574C5.597,22.334 7.603,23.542 9.832,23.99C8.384,24.387 6.864,24.444 5.39,24.159C6.019,26.115 7.243,27.826 8.892,29.053C10.54,30.28 12.53,30.962 14.585,31.003C11.097,33.743 6.788,35.229 2.353,35.222C1.567,35.22 0.781,35.172 0,35.077C4.506,37.968 9.747,39.503 15.1,39.5Z" fill="#0059B1"/>
</svg>
