<svg width="48" height="48" viewBox="0 0 48 48" fill="none" xmlns="http://www.w3.org/2000/svg" xmlns:xlink="http://www.w3.org/1999/xlink">
<path d="M37.914,47.985L19.965,47.985C15.554,47.944 12.011,44.334 12.053,39.923C12.087,36.307 14.545,33.166 18.046,32.263C16.82,18.837 35.736,15.263 39.484,28.165C44.923,29.03 48.631,34.14 47.767,39.579C46.997,44.423 42.819,47.987 37.914,47.985ZM7.998,40.008C7.992,35.702 10.304,31.725 14.049,29.601C15.481,14.539 36.243,11.017 42.507,24.814C44.539,25.514 46.38,26.677 47.886,28.209C47.95,20.718 42.801,14.188 35.501,12.503C33.584,3.902 25.058,-1.516 16.457,0.401C7.857,2.318 2.438,10.844 4.355,19.444C4.662,20.82 5.149,22.149 5.805,23.396C0.487,26.321 -1.453,33.003 1.472,38.321C2.973,41.051 5.563,43.015 8.597,43.725C8.202,42.526 8,41.271 7.998,40.008Z" fill="#374957"/>
</svg>
