<svg width="48" height="48" viewBox="0 0 48 48" fill="none" xmlns="http://www.w3.org/2000/svg" xmlns:xlink="http://www.w3.org/1999/xlink">
<path d="M43.71,40.882L47.91,45.082L45.082,47.91L0.086,2.914L2.914,0.086L9.114,6.286C11.168,4.373 13.689,3.035 16.425,2.406C19.16,1.778 22.013,1.881 24.696,2.705C27.379,3.529 29.798,5.046 31.708,7.102C33.619,9.158 34.954,11.682 35.58,14.418C38.316,15.042 40.84,16.377 42.897,18.287C44.954,20.198 46.471,22.616 47.295,25.3C48.12,27.983 48.222,30.836 47.593,33.572C46.963,36.307 45.624,38.829 43.71,40.882ZM4,18C3.998,20.557 4.615,23.076 5.8,25.342C3.642,26.498 1.932,28.342 0.943,30.582C-0.047,32.821 -0.26,35.326 0.338,37.7C0.936,40.074 2.309,42.18 4.241,43.684C6.173,45.188 8.552,46.003 11,46L32,46C33.618,45.995 35.226,45.744 36.77,45.256L4.744,13.228C4.256,14.772 4.005,16.381 4,18L4,18Z" fill="#374957"/>
</svg>
