<svg width="48" height="36" viewBox="0 0 48 36" fill="none" xmlns="http://www.w3.org/2000/svg" xmlns:xlink="http://www.w3.org/1999/xlink">
<path d="M42,8L26,8L26,0L22,0L22,8L6,8C4.409,8 2.883,8.632 1.757,9.757C0.632,10.882 0,12.408 0,14L0,36L48,36L48,14C48,12.408 47.368,10.882 46.243,9.757C45.117,8.632 43.591,8 42,8ZM18,16L24,16L24,20L18,20L18,16ZM12,28L8,28L8,24L12,24L12,28ZM14,20L8,20L8,16L14,16L14,20ZM32,28L16,28L16,24L32,24L32,28ZM40,28L36,28L36,24L40,24L40,28ZM40,20L28,20L28,16L40,16L40,20Z" fill="#374957"/>
</svg>
