<svg width="48" height="50" viewBox="0 0 48 50" fill="none" xmlns="http://www.w3.org/2000/svg" xmlns:xlink="http://www.w3.org/1999/xlink">
<path d="M48,40L29.632,40C29.333,39.164 28.852,38.404 28.224,37.776C27.596,37.148 26.836,36.667 26,36.368L26,28L38,28C39.591,28 41.117,27.368 42.243,26.243C43.368,25.117 44,23.591 44,22L44,16L42,16L42,6C42,4.409 41.368,2.883 40.243,1.757C39.117,0.632 37.591,0 36,0L12,0C10.409,0 8.883,0.632 7.757,1.757C6.632,2.883 6,4.409 6,6L6,16L4,16L4,22C4,23.591 4.632,25.117 5.757,26.243C6.883,27.368 8.409,28 10,28L22,28L22,36.368C21.164,36.667 20.404,37.148 19.776,37.776C19.148,38.404 18.667,39.164 18.368,40L0,40L0,44L18.368,44C18.775,45.169 19.536,46.182 20.545,46.9C21.555,47.617 22.762,48.002 24,48.002C25.238,48.002 26.445,47.617 27.455,46.9C28.464,46.182 29.225,45.169 29.632,44L48,44L48,40ZM10,6C10,5.47 10.211,4.961 10.586,4.586C10.961,4.211 11.47,4 12,4L36,4C36.53,4 37.039,4.211 37.414,4.586C37.789,4.961 38,5.47 38,6L38,16L29.172,16L27.172,18L20.828,18L18.828,16L10,16L10,6ZM8,22L8,20L17.172,20L19.172,22L28.828,22L30.828,20L40,20L40,22C40,22.53 39.789,23.039 39.414,23.414C39.039,23.789 38.53,24 38,24L10,24C9.47,24 8.961,23.789 8.586,23.414C8.211,23.039 8,22.53 8,22ZM24,44C23.604,44 23.218,43.883 22.889,43.663C22.56,43.443 22.304,43.131 22.152,42.765C22.001,42.4 21.961,41.998 22.038,41.61C22.116,41.222 22.306,40.865 22.586,40.586C22.865,40.306 23.222,40.116 23.61,40.038C23.998,39.961 24.4,40.001 24.765,40.152C25.131,40.304 25.443,40.56 25.663,40.889C25.883,41.218 26,41.604 26,42C26,42.53 25.789,43.039 25.414,43.414C25.039,43.789 24.53,44 24,44Z" fill="#374957"/>
</svg>
