<svg width="48" height="48" viewBox="0 0 48 48" fill="none" xmlns="http://www.w3.org/2000/svg" xmlns:xlink="http://www.w3.org/1999/xlink">
<path d="M47.999,23.2C48.024,20.76 46.798,18.477 44.749,17.15C45.887,13.915 46.307,10.472 45.979,7.058C45.948,5.448 45.17,3.945 43.875,2.988C42.635,2.063 41.035,1.767 39.545,2.188C36.43,3.076 33.512,4.546 30.945,6.522C30.098,4.891 29.113,3.336 27.999,1.874C26.286,-0.28 23.15,-0.637 20.996,1.077C20.701,1.312 20.434,1.579 20.199,1.874C19.062,3.367 18.059,4.956 17.199,6.624C14.594,4.594 11.621,3.087 8.443,2.186C6.957,1.768 5.361,2.063 4.123,2.986C2.828,3.943 2.05,5.448 2.019,7.058C1.692,10.471 2.11,13.915 3.245,17.15C1.199,18.478 -0.026,20.761 -0.001,23.2C-0.001,33.066 14.679,39.332 19.999,41.278C19.414,41.807 18.903,42.413 18.479,43.078C17.851,44.068 17.844,45.33 18.459,46.328C19.11,47.375 20.259,48.008 21.491,48L26.507,48C27.744,48.007 28.895,47.369 29.543,46.316C30.159,45.318 30.151,44.056 29.523,43.066C29.282,42.688 29.009,42.332 28.707,42L32.999,42C34.656,42 35.999,43.343 35.999,45C35.999,46.657 37.343,48 38.999,48C40.656,48 41.999,46.657 41.999,45C41.988,41.641 40.101,38.569 37.109,37.04C42.563,33.864 47.999,29.2 47.999,23.2ZM34.365,11.601C34.424,11.511 34.559,11.35 34.559,11.35C36.154,9.993 38.003,8.968 39.999,8.336C40.194,10.513 39.93,12.707 39.225,14.776C38.775,15.411 38.08,15.83 37.307,15.932C36.525,16.047 35.729,15.835 35.107,15.346C33.868,14.517 33.535,12.84 34.365,11.601ZM24.101,6.706C25.47,8.608 26.486,10.741 27.101,13.002C27.101,14.659 25.758,16.002 24.101,16.002C22.445,16.002 21.101,14.659 21.101,13.002C21.718,10.741 22.734,8.609 24.101,6.706ZM7.937,8.336C9.933,8.968 11.782,9.993 13.377,11.35C13.377,11.35 13.512,11.511 13.571,11.601C14.4,12.84 14.068,14.517 12.829,15.346C12.207,15.835 11.411,16.047 10.629,15.932C9.856,15.83 9.161,15.411 8.71,14.776C8.006,12.707 7.742,10.513 7.937,8.336ZM41.999,23.2C41.999,27.07 36.151,30.986 30.691,33.612C31.277,32.293 31.702,30.91 31.959,29.49C32.23,27.855 31.124,26.311 29.489,26.04C27.855,25.769 26.31,26.875 26.039,28.51C25.654,30.27 24.981,31.954 24.049,33.496C23.11,31.884 22.396,30.151 21.927,28.344C21.565,26.727 19.96,25.71 18.343,26.072C16.726,26.434 15.709,28.039 16.071,29.656C16.397,31.035 16.854,32.38 17.437,33.672C11.941,31.046 5.999,27.1 5.999,23.2C5.975,22.562 6.473,22.025 7.111,22.001C7.128,22 7.146,22 7.163,22L40.835,22C41.474,21.995 41.995,22.509 42,23.147C42,23.165 42,23.183 41.999,23.2Z" fill="#374957"/>
</svg>
