<svg width="40" height="50" viewBox="0 0 40 50" fill="none" xmlns="http://www.w3.org/2000/svg" xmlns:xlink="http://www.w3.org/1999/xlink">
<path d="M12,0L28,0L28,4L22,4L22,8.112C23.358,8.244 24.698,8.516 26,8.922L26,18.302C24.034,18.106 22.016,18 20,18C17.984,18 15.966,18.106 14,18.302L14,8.922C15.302,8.516 16.642,8.244 18,8.112L18,4L12,4L12,0ZM0,28C0,29.64 3.758,31.854 10,33.082L10,22.918C3.758,24.146 0,26.36 0,28ZM30,10.706L30,18.85C33.104,19.338 36.118,20.281 38.946,21.65C37.39,17.038 34.211,13.148 30,10.706L30,10.706ZM14,22.32L14,33.68C15.993,33.895 17.996,34.002 20,34C22.004,34.002 24.007,33.895 26,33.68L26,22.32C22.011,21.893 17.989,21.893 14,22.32L14,22.32ZM30,22.92L30,33.084C36.242,31.856 40,29.642 40,28.002C40,26.362 36.242,24.146 30,22.918L30,22.92ZM14,37.7L14,47.08C17.906,48.309 22.094,48.309 26,47.08L26,37.7C24.034,37.9 22.016,38.002 20,38.002C17.984,38.002 15.966,37.894 14,37.698L14,37.7ZM30,45.3C34.209,42.86 37.388,38.973 38.946,34.364C36.117,35.728 33.103,36.667 30,37.15L30,45.3ZM10,45.3L10,37.15C6.896,36.662 3.882,35.719 1.054,34.35C2.61,38.962 5.789,42.852 10,45.294L10,45.3ZM1.054,21.642C3.882,20.276 6.897,19.335 10,18.85L10,10.706C5.791,13.146 2.612,17.033 1.054,21.642L1.054,21.642Z" fill="#374957"/>
</svg>
