<svg width="50" height="48" viewBox="0 0 50 48" fill="none" xmlns="http://www.w3.org/2000/svg" xmlns:xlink="http://www.w3.org/1999/xlink">
<path d="M47.825,40.054L45.711,28.134C46.582,27.348 47.239,26.354 47.623,25.244C48.006,24.135 48.102,22.947 47.903,21.79C47.703,20.634 47.214,19.547 46.481,18.63C45.748,17.714 44.795,16.997 43.711,16.548C42.912,11.975 40.547,7.823 37.022,4.802C33.497,1.782 29.031,0.082 24.39,-0.007C19.749,-0.095 15.221,1.434 11.584,4.318C7.946,7.202 5.425,11.261 4.453,15.8L3.001,24L6.001,24C9.592,23.978 13.133,23.159 16.369,21.6C16.132,22.029 16.005,22.51 16.001,23C15.998,23.583 16.165,24.154 16.481,24.643C16.797,25.132 17.249,25.519 17.781,25.755C18.313,25.992 18.903,26.069 19.478,25.976C20.053,25.883 20.589,25.625 21.02,25.233C21.451,24.841 21.758,24.332 21.904,23.768C22.051,23.204 22.03,22.61 21.844,22.058C21.658,21.506 21.316,21.02 20.859,20.659C20.401,20.298 19.849,20.078 19.269,20.026C23.536,17.364 27.15,13.776 29.843,9.528C28.665,8.875 27.385,8.426 26.057,8.2C22.981,12.758 16.435,19.126 7.787,19.918L8.377,16.58C9.193,12.874 11.3,9.579 14.322,7.283C17.344,4.987 21.083,3.84 24.872,4.047C28.662,4.253 32.254,5.8 35.008,8.41C37.763,11.021 39.5,14.526 39.909,18.298L40.065,19.79L41.541,20.056C42.269,20.199 42.919,20.607 43.365,21.201C43.81,21.795 44.02,22.533 43.952,23.272C43.885,24.011 43.546,24.7 43.001,25.204C42.456,25.708 41.743,25.992 41.001,26C40.829,26 38.827,25.65 38.827,25.65L38.263,27.25C36.429,32.444 30.261,38 24.001,38C18.279,38 12.645,33.354 10.317,28.6L9.297,34.358C11.198,36.69 13.555,38.609 16.223,40L16.001,40L16.001,44L6.477,44C6.105,43.999 5.739,43.915 5.405,43.753C5.07,43.592 4.776,43.357 4.544,43.067C4.313,42.777 4.149,42.438 4.065,42.077C3.981,41.715 3.98,41.339 4.061,40.976L6.361,27.976C6.241,27.976 6.123,27.998 6.001,27.998L2.295,27.998L0.131,40.23C-0.061,41.171 -0.042,42.143 0.188,43.075C0.418,44.007 0.852,44.876 1.46,45.62C2.067,46.364 2.832,46.963 3.699,47.375C4.567,47.787 5.515,48 6.475,48L20.001,48L20.001,41.468C22.62,42.178 25.381,42.178 28.001,41.468L28.001,48L41.525,48C42.514,48.003 43.49,47.778 44.378,47.343C45.266,46.907 46.042,46.272 46.645,45.488C47.241,44.732 47.657,43.849 47.862,42.908C48.066,41.966 48.053,40.99 47.825,40.054L47.825,40.054ZM43.481,43.04C43.25,43.34 42.954,43.582 42.615,43.749C42.276,43.915 41.902,44.002 41.525,44L32.001,44L32.001,39.908C36.129,37.689 39.444,34.213 41.465,29.984C41.635,29.974 41.795,29.926 41.961,29.904L43.919,40.904C44.015,41.27 44.026,41.653 43.95,42.024C43.874,42.394 43.713,42.742 43.481,43.04ZM29.001,26C28.407,26 27.827,25.824 27.334,25.495C26.841,25.165 26.456,24.697 26.229,24.148C26.002,23.6 25.942,22.997 26.058,22.415C26.174,21.833 26.46,21.299 26.879,20.879C27.299,20.46 27.833,20.174 28.415,20.058C28.997,19.942 29.6,20.002 30.149,20.229C30.697,20.456 31.165,20.84 31.495,21.334C31.825,21.827 32.001,22.407 32.001,23C32.001,23.796 31.685,24.559 31.122,25.122C30.559,25.684 29.796,26 29.001,26Z" fill="#374957"/>
</svg>
