<svg width="48" height="50" viewBox="0 0 48 50" fill="none" xmlns="http://www.w3.org/2000/svg" xmlns:xlink="http://www.w3.org/1999/xlink">
<path d="M47.98,16C47.98,15.47 47.769,14.961 47.394,14.586C47.019,14.211 46.51,14 45.98,14L36.842,14C36.446,14 36.06,14.117 35.731,14.337C35.402,14.557 35.146,14.869 34.994,15.235C34.843,15.6 34.804,16.002 34.881,16.39C34.958,16.778 35.148,17.134 35.428,17.414L37.886,19.872L33.81,23.948C31.766,22.676 29.407,22.001 27,22C26.638,22 26.282,22.026 25.928,22.056C25.958,21.704 26,21.358 26,21C25.997,18.596 25.322,16.241 24.052,14.2L28.128,10.124L30.586,12.582C30.866,12.862 31.224,13.053 31.613,13.13C32.002,13.207 32.406,13.166 32.772,13.013C33.138,12.86 33.45,12.601 33.668,12.27C33.887,11.939 34.003,11.551 34,11.154L33.98,2C33.98,1.47 33.769,0.961 33.394,0.586C33.019,0.211 32.51,0 31.98,0L22.842,0C22.446,0 22.06,0.117 21.731,0.337C21.402,0.557 21.146,0.869 20.994,1.235C20.843,1.6 20.804,2.002 20.881,2.39C20.958,2.778 21.148,3.134 21.428,3.414L23.886,5.872L19.8,9.948C18.089,8.888 16.155,8.24 14.15,8.055C12.146,7.87 10.126,8.153 8.249,8.882C6.373,9.61 4.691,10.765 3.337,12.254C1.983,13.743 0.993,15.526 0.445,17.463C-0.102,19.4 -0.193,21.438 0.182,23.416C0.556,25.394 1.384,27.258 2.601,28.861C3.818,30.464 5.391,31.763 7.195,32.655C9,33.546 10.987,34.007 13,34C13.366,34 13.72,33.956 14.08,33.926C14.05,34.284 14,34.636 14,35C13.993,37.013 14.454,39 15.345,40.804C16.237,42.609 17.536,44.182 19.139,45.399C20.742,46.616 22.606,47.444 24.584,47.818C26.562,48.192 28.6,48.102 30.536,47.554C32.473,47.007 34.257,46.017 35.746,44.663C37.235,43.308 38.39,41.627 39.118,39.75C39.847,37.874 40.13,35.854 39.945,33.85C39.76,31.845 39.112,29.911 38.052,28.2L42.128,24.124L44.586,26.582C44.866,26.862 45.224,27.053 45.613,27.13C46.002,27.207 46.406,27.166 46.772,27.013C47.138,26.86 47.45,26.601 47.668,26.27C47.887,25.939 48.003,25.551 48,25.154L47.98,16ZM6,21C6,19.616 6.41,18.262 7.18,17.111C7.949,15.96 9.042,15.063 10.321,14.533C11.6,14.003 13.008,13.864 14.366,14.135C15.723,14.405 16.971,15.071 17.95,16.05C18.929,17.029 19.595,18.276 19.865,19.634C20.135,20.992 19.997,22.4 19.467,23.679C18.937,24.958 18.04,26.051 16.889,26.82C15.738,27.589 14.384,28 13,28C11.143,28 9.363,27.263 8.05,25.95C6.737,24.637 6,22.857 6,21L6,21ZM27,42C25.615,42 24.262,41.589 23.111,40.82C21.96,40.051 21.062,38.958 20.533,37.679C20.003,36.4 19.864,34.992 20.134,33.634C20.404,32.277 21.071,31.029 22.05,30.05C23.029,29.071 24.276,28.405 25.634,28.135C26.992,27.864 28.4,28.003 29.679,28.533C30.958,29.063 32.051,29.96 32.82,31.111C33.589,32.262 34,33.616 34,35C34,36.857 33.262,38.637 31.95,39.95C30.637,41.263 28.856,42 27,42L27,42Z" fill="#374957"/>
</svg>
