<svg width="48" height="48" viewBox="0 0 48 48" fill="none" xmlns="http://www.w3.org/2000/svg" xmlns:xlink="http://www.w3.org/1999/xlink">
<path d="M48,12L48,6C48,4.409 47.368,2.883 46.243,1.757C45.117,0.632 43.591,0 42,0L36,0L36,4L12,4L12,0L6,0C4.409,0 2.883,0.632 1.757,1.757C0.632,2.883 0,4.409 0,6L0,12L4,12L4,36L0,36L0,48L12,48L12,44L36,44L36,48L48,48L48,36L44,36L44,12L48,12ZM40,4L42,4C42.53,4 43.039,4.211 43.414,4.586C43.789,4.961 44,5.47 44,6L44,8L40,8L40,4ZM4,6C4,5.47 4.211,4.961 4.586,4.586C4.961,4.211 5.47,4 6,4L8,4L8,8L4,8L4,6ZM8,44L4,44L4,40L8,40L8,44ZM44,44L40,44L40,40L44,40L44,44ZM40,36L36,36L36,40L12,40L12,36L8,36L8,12L12,12L12,8L36,8L36,12L40,12L40,36ZM28,12L30,12L30,16L28,16C27.47,16 26.961,16.211 26.586,16.586C26.211,16.961 26,17.47 26,18L26,24L30,24L30,28L26,28L26,30C26,30.53 26.211,31.039 26.586,31.414C26.961,31.789 27.47,32 28,32L30,32L30,36L28,36C26.519,35.995 25.093,35.439 24,34.44C22.907,35.439 21.481,35.995 20,36L18,36L18,32L20,32C20.53,32 21.039,31.789 21.414,31.414C21.789,31.039 22,30.53 22,30L22,28L18,28L18,24L22,24L22,18C22,17.47 21.789,16.961 21.414,16.586C21.039,16.211 20.53,16 20,16L18,16L18,12L20,12C21.481,12.005 22.907,12.561 24,13.56C25.093,12.561 26.519,12.005 28,12Z" fill="#374957"/>
</svg>
