<svg width="50" height="50" viewBox="0 0 50 50" fill="none" xmlns="http://www.w3.org/2000/svg" xmlns:xlink="http://www.w3.org/1999/xlink">
<path d="M3,48.017C3.395,48.017 3.785,47.94 4.149,47.789C4.514,47.638 4.844,47.416 5.122,47.137L17.022,35.229L18.478,36.735C20.413,38.765 23.074,39.945 25.878,40.015C26.844,40.016 27.802,39.853 28.712,39.533C30.126,39.034 31.368,38.141 32.292,36.96C33.215,35.778 33.782,34.357 33.924,32.865C34.133,30.895 33.988,28.904 33.498,26.985L33.414,26.585L40.19,19.811L41.094,20.717C41.76,21.415 42.65,21.857 43.609,21.964C44.568,22.071 45.534,21.836 46.336,21.301C46.806,20.965 47.198,20.531 47.484,20.028C47.769,19.526 47.942,18.968 47.99,18.392C48.039,17.816 47.961,17.237 47.763,16.694C47.566,16.151 47.252,15.658 46.844,15.249L32.91,1.283C32.245,0.584 31.355,0.142 30.396,0.035C29.437,-0.072 28.471,0.163 27.668,0.699C27.198,1.034 26.807,1.469 26.521,1.971C26.236,2.473 26.063,3.031 26.014,3.607C25.966,4.183 26.043,4.762 26.241,5.305C26.439,5.848 26.753,6.341 27.16,6.751L28.2,7.801L21.44,14.563C19.478,14.048 17.439,13.895 15.422,14.109C13.866,14.269 12.387,14.871 11.162,15.844C9.936,16.817 9.015,18.121 8.506,19.601C7.958,21.108 7.85,22.741 8.196,24.308C8.542,25.875 9.328,27.31 10.46,28.447L12.86,30.919L0.878,42.897C0.459,43.316 0.174,43.851 0.058,44.433C-0.057,45.014 0.002,45.617 0.23,46.165C0.457,46.713 0.841,47.181 1.334,47.511C1.827,47.841 2.407,48.016 3,48.017ZM14.162,21.601C14.295,21.192 14.544,20.83 14.879,20.559C15.213,20.289 15.619,20.121 16.046,20.077C17.357,19.939 18.682,20.041 19.956,20.377L21.614,20.799C22.119,20.927 22.648,20.922 23.149,20.784C23.651,20.647 24.108,20.381 24.476,20.013L32.44,12.045L35.948,15.565L28.02,23.495C27.668,23.847 27.409,24.282 27.267,24.761C27.124,25.239 27.104,25.745 27.206,26.233L27.656,28.359C27.988,29.625 28.088,30.941 27.952,32.243C27.933,32.609 27.804,32.962 27.581,33.253C27.358,33.545 27.051,33.762 26.702,33.877C25.984,34.045 25.233,34.008 24.535,33.77C23.837,33.531 23.221,33.1 22.756,32.527L14.74,24.237C14.402,23.898 14.168,23.47 14.066,23.003C13.963,22.536 13.997,22.049 14.162,21.601L14.162,21.601Z" fill="#374957"/>
</svg>
