<svg width="48" height="48" viewBox="0 0 48 48" fill="none" xmlns="http://www.w3.org/2000/svg" xmlns:xlink="http://www.w3.org/1999/xlink">
<path d="M16,6C16,4.813 16.352,3.653 17.011,2.667C17.67,1.68 18.607,0.911 19.704,0.457C20.8,0.003 22.006,-0.116 23.17,0.115C24.334,0.347 25.403,0.918 26.242,1.757C27.081,2.596 27.653,3.666 27.884,4.829C28.116,5.993 27.997,7.2 27.543,8.296C27.089,9.392 26.32,10.33 25.333,10.989C24.346,11.648 23.186,12 22,12C20.408,12 18.882,11.368 17.757,10.243C16.632,9.117 16,7.591 16,6L16,6ZM43.442,42L39.442,30L26,30C25.469,30 24.96,29.789 24.585,29.414C24.21,29.039 24,28.53 24,28L24,26L38,26L38,22L24,22L24,16L20,16L20,28C20,29.591 20.632,31.117 21.757,32.243C22.882,33.368 24.408,34 26,34L36.56,34L40.56,46L48,46L48,42L43.442,42ZM16,28L16,16C13.096,15.998 10.247,16.786 7.757,18.28C5.267,19.774 3.231,21.917 1.867,24.48C0.502,27.043 -0.14,29.929 0.011,32.828C0.161,35.728 1.098,38.532 2.72,40.94C4.342,43.348 6.589,45.269 9.22,46.497C11.851,47.726 14.766,48.215 17.654,47.913C20.542,47.611 23.293,46.529 25.612,44.783C27.932,43.036 29.733,40.692 30.822,38L26,38C23.348,37.997 20.807,36.942 18.932,35.068C17.057,33.193 16.003,30.651 16,28L16,28Z" fill="#374957"/>
</svg>
