<svg width="48" height="46" viewBox="0 0 48 46" fill="none" xmlns="http://www.w3.org/2000/svg" xmlns:xlink="http://www.w3.org/1999/xlink">
<path d="M43.884,8.073C43.802,8.025 29.512,1.429 29.512,1.429C26.08,-0.461 21.92,-0.461 18.488,1.429C18.488,1.429 4.2,8.025 4.116,8.073C0.29,10.156 -1.123,14.946 0.96,18.773C1.686,20.107 2.782,21.203 4.116,21.929C4.2,21.977 10,24.657 10,24.657L10,34.111C10.006,38.183 12.658,41.779 16.546,42.987C18.968,43.687 21.479,44.028 24,44.001C26.521,44.028 29.032,43.687 31.454,42.987C35.343,41.779 37.994,38.183 38,34.111L38,24.657L42,22.813L42,37.001C42,38.658 43.343,40.001 45,40.001C46.657,40.001 48,38.658 48,37.001L48,14.923C47.921,11.974 46.511,9.353 43.884,8.073ZM32,34.111C32.007,35.54 31.086,36.809 29.724,37.243C25.974,38.249 22.026,38.249 18.276,37.243C16.914,36.809 15.993,35.54 16,34.111L16,27.425L18.488,28.573C21.919,30.468 26.082,30.468 29.512,28.573L32,27.425L32,34.111L32,34.111ZM40.97,16.681C40.97,16.681 26.712,23.261 26.632,23.309C25,24.237 23,24.237 21.368,23.309C21.288,23.261 7.03,16.681 7.03,16.681C6.102,16.208 5.734,15.072 6.207,14.144C6.388,13.79 6.676,13.502 7.03,13.321C7.03,13.321 21.288,6.741 21.368,6.693C23,5.765 25,5.765 26.632,6.693C26.712,6.741 40.97,13.321 40.97,13.321C41.898,13.794 42.266,14.93 41.793,15.858C41.612,16.212 41.324,16.5 40.97,16.681Z" fill="#374957"/>
</svg>
