<svg width="48" height="48" viewBox="0 0 48 48" fill="none" xmlns="http://www.w3.org/2000/svg" xmlns:xlink="http://www.w3.org/1999/xlink">
<path d="M48,26L48,22L37.856,22C37.697,20.888 37.402,19.799 36.98,18.758L45.764,13.644L43.752,10.188L34.964,15.304C34.292,14.459 33.526,13.694 32.68,13.024L37.78,4.254L34.324,2.242L29.224,11.012C28.188,10.593 27.106,10.302 26,10.144L26,0L22,0L22,10.144C20.903,10.3 19.828,10.587 18.8,11L13.708,2.242L10.252,4.254L15.342,13C14.492,13.673 13.722,14.442 13.048,15.292L4.28,10.188L2.268,13.644L11.026,18.742C10.6,19.788 10.304,20.882 10.144,22L0,22L0,26L10.144,26C10.304,27.113 10.598,28.202 11.02,29.244L2.282,34.33L4.294,37.788L13.038,32.696C13.703,33.534 14.461,34.292 15.298,34.958L10.2,43.73L13.658,45.742L18.754,36.978C19.796,37.402 20.886,37.697 22,37.856L22,48L26,48L26,37.856C27.124,37.695 28.225,37.396 29.276,36.966L34.38,45.742L37.836,43.73L32.724,34.94C33.557,34.275 34.312,33.518 34.974,32.684L43.74,37.788L45.74,34.33L36.976,29.228C37.399,28.191 37.694,27.108 37.856,26L48,26ZM34,24C33.58,37.216 14.418,37.212 14,24C14.42,10.784 33.582,10.788 34,24Z" fill="#374957"/>
</svg>
