<svg width="48" height="48" viewBox="0 0 48 48" fill="none" xmlns="http://www.w3.org/2000/svg" xmlns:xlink="http://www.w3.org/1999/xlink">
<path d="M43.084,14C43.73,14 44.369,13.873 44.966,13.626C45.562,13.379 46.104,13.017 46.561,12.561C47.017,12.104 47.379,11.562 47.626,10.966C47.873,10.369 48,9.73 48,9.084L48,3C48,2.204 47.684,1.441 47.121,0.879C46.559,0.316 45.796,0 45,0L45,0C44.204,0 43.441,0.316 42.879,0.879C42.316,1.441 42,2.204 42,3L42,8L35.252,8C34.045,6.11 32.382,4.554 30.415,3.477C28.449,2.399 26.242,1.834 24,1.834C21.758,1.834 19.551,2.399 17.585,3.477C15.618,4.554 13.955,6.11 12.748,8L6,8L6,3C6,2.204 5.684,1.441 5.121,0.879C4.559,0.316 3.796,0 3,0L3,0C2.204,0 1.441,0.316 0.879,0.879C0.316,1.441 0,2.204 0,3L0,9.084C0.001,10.388 0.519,11.638 1.44,12.56C2.362,13.481 3.612,13.999 4.916,14L10.516,14L8.48,22L3,22C2.204,22 1.441,22.316 0.879,22.879C0.316,23.441 0,24.204 0,25L0,25C0,25.796 0.316,26.559 0.879,27.121C1.441,27.684 2.204,28 3,28L7.144,28C7.112,28.4 7.06,28.8 7.06,29.228C7.062,30.844 7.297,32.451 7.756,34L4.916,34C4.27,34 3.631,34.127 3.034,34.374C2.438,34.621 1.896,34.983 1.439,35.439C0.983,35.896 0.621,36.438 0.374,37.034C0.127,37.631 0,38.27 0,38.916L0,45C0,45.796 0.316,46.559 0.879,47.121C1.441,47.684 2.204,48 3,48C3.796,48 4.559,47.684 5.121,47.121C5.684,46.559 6,45.796 6,45L6,40L10.936,40C12.524,41.928 14.518,43.481 16.777,44.547C19.036,45.613 21.502,46.166 24,46.166C26.498,46.166 28.964,45.613 31.223,44.547C33.482,43.481 35.476,41.928 37.064,40L42,40L42,45C42,45.796 42.316,46.559 42.879,47.121C43.441,47.684 44.204,48 45,48C45.796,48 46.559,47.684 47.121,47.121C47.684,46.559 48,45.796 48,45L48,38.916C47.999,37.612 47.481,36.362 46.56,35.44C45.638,34.519 44.388,34.001 43.084,34L40.244,34C40.703,32.451 40.938,30.844 40.94,29.228C40.94,28.81 40.888,28.408 40.856,28L45,28C45.796,28 46.559,27.684 47.121,27.121C47.684,26.559 48,25.796 48,25L48,25C48,24.204 47.684,23.441 47.121,22.879C46.559,22.316 45.796,22 45,22L39.508,22L37.494,14L43.084,14ZM24,40.166C21.1,40.163 18.319,39.009 16.268,36.959C14.218,34.908 13.064,32.128 13.06,29.228C13.063,28.827 13.088,28.426 13.136,28.028L17.024,12.686C17.552,11.261 18.504,10.033 19.751,9.165C20.998,8.297 22.481,7.832 24,7.832C25.519,7.832 27.002,8.297 28.249,9.165C29.496,10.033 30.448,11.261 30.976,12.686L34.864,28.036C34.912,28.434 34.937,28.835 34.94,29.236C34.934,32.135 33.779,34.913 31.729,36.962C29.678,39.011 26.899,40.163 24,40.166L24,40.166Z" fill="#374957"/>
</svg>
