<svg width="48" height="48" viewBox="0 0 48 48" fill="none" xmlns="http://www.w3.org/2000/svg" xmlns:xlink="http://www.w3.org/1999/xlink">
<path d="M43.993,0L32.021,0L32.021,3.991L41.172,3.991L27.539,17.624C20.16,11.804 9.461,13.067 3.641,20.446C-2.179,27.824 -0.916,38.523 6.463,44.343C13.841,50.163 24.54,48.9 30.36,41.522C35.235,35.342 35.235,26.626 30.36,20.446L43.993,6.813L43.993,15.964L47.984,15.964L47.984,3.991C47.984,1.787 46.198,0 43.993,0ZM17.054,43.901C9.891,43.901 4.084,38.094 4.084,30.93C4.084,23.767 9.891,17.959 17.054,17.959C24.218,17.959 30.025,23.767 30.025,30.93C30.016,38.09 24.214,43.892 17.054,43.901Z" fill="#374957"/>
</svg>
