<svg width="48" height="48" viewBox="0 0 48 48" fill="none" xmlns="http://www.w3.org/2000/svg" xmlns:xlink="http://www.w3.org/1999/xlink">
<path d="M45.832,1.382C45.154,0.818 44.359,0.412 43.506,0.191C42.652,-0.029 41.76,-0.059 40.894,0.106L16.896,4.6C15.519,4.857 14.276,5.589 13.382,6.666C12.488,7.744 11.999,9.101 12,10.502L12,33.112C10.789,32.392 9.409,32.008 8,32C6.418,32 4.871,32.469 3.555,33.348C2.24,34.227 1.214,35.476 0.609,36.938C0.003,38.4 -0.155,40.009 0.154,41.56C0.462,43.112 1.224,44.538 2.343,45.657C3.462,46.775 4.887,47.537 6.439,47.846C7.991,48.155 9.6,47.996 11.061,47.391C12.523,46.785 13.773,45.76 14.652,44.444C15.531,43.129 16,41.582 16,40L16,18.84L44,13.6L44,27.122C42.79,26.398 41.409,26.011 40,26C38.418,26 36.871,26.469 35.555,27.348C34.24,28.227 33.214,29.476 32.609,30.938C32.003,32.4 31.845,34.009 32.154,35.56C32.462,37.112 33.224,38.538 34.343,39.657C35.462,40.775 36.887,41.537 38.439,41.846C39.991,42.155 41.6,41.996 43.061,41.391C44.523,40.785 45.773,39.76 46.652,38.444C47.531,37.129 48,35.582 48,34L48,6C48,5.118 47.806,4.247 47.431,3.449C47.057,2.651 46.511,1.945 45.832,1.382L45.832,1.382Z" fill="#374957"/>
</svg>
