<svg width="48" height="48" viewBox="0 0 48 48" fill="none" xmlns="http://www.w3.org/2000/svg" xmlns:xlink="http://www.w3.org/1999/xlink">
<path d="M32,48L16,48L16,38.2L8.292,43L0.016,29.71L9.186,24L0.016,18.29L8.292,5L16,9.8L16,0L32,0L32,9.8L39.708,5L47.984,18.296L38.814,24L47.984,29.71L39.708,43L32,38.2L32,48ZM20,44L28,44L28,31L38.426,37.494L42.476,31L31.248,24L42.476,17L38.426,10.504L28,17L28,4L20,4L20,17L9.574,10.504L5.524,17L16.752,24L5.524,31L9.574,37.504L20,31L20,44Z" fill="#374957"/>
</svg>
