<svg width="48" height="48" viewBox="0 0 48 48" fill="none" xmlns="http://www.w3.org/2000/svg" xmlns:xlink="http://www.w3.org/1999/xlink">
<path d="M48,36L40,36L40,14C40,12.409 39.368,10.883 38.243,9.757C37.117,8.632 35.591,8 34,8L12,8L12,0L8,0L8,8L0,8L0,12L8,12L8,34C8,35.591 8.632,37.117 9.757,38.243C10.883,39.368 12.409,40 14,40L36,40L36,48L40,48L40,40L48,40L48,36ZM14,36C13.47,36 12.961,35.789 12.586,35.414C12.211,35.039 12,34.53 12,34L12,12L34,12C34.53,12 35.039,12.211 35.414,12.586C35.789,12.961 36,13.47 36,14L36,36L14,36Z" fill="#374957"/>
</svg>
