<svg width="48" height="48" viewBox="0 0 48 48" fill="none" xmlns="http://www.w3.org/2000/svg" xmlns:xlink="http://www.w3.org/1999/xlink">
<path d="M48,48L24,48C19.253,48 14.613,46.592 10.666,43.955C6.72,41.318 3.643,37.57 1.827,33.184C0.01,28.799 -0.465,23.973 0.461,19.318C1.387,14.662 3.673,10.386 7.029,7.029C10.386,3.673 14.662,1.387 19.318,0.461C23.973,-0.465 28.799,0.01 33.184,1.827C37.57,3.643 41.318,6.72 43.955,10.666C46.592,14.613 48,19.253 48,24L48,48ZM24,4C18.696,4 13.609,6.107 9.858,9.858C6.107,13.609 4,18.696 4,24C4,29.304 6.107,34.391 9.858,38.142C13.609,41.893 18.696,44 24,44L44,44L44,24C43.994,18.697 41.885,13.614 38.136,9.864C34.386,6.115 29.303,4.006 24,4L24,4ZM23.818,32.838L37.4,19.424L34.6,16.576L20.988,29.976L13.4,22.57L10.6,25.43L18.17,32.83C18.92,33.577 19.935,33.996 20.993,33.996C22.051,33.996 23.066,33.577 23.816,32.83L23.818,32.838Z" fill="#374957"/>
</svg>
