<svg width="48" height="48" viewBox="0 0 48 48" fill="none" xmlns="http://www.w3.org/2000/svg" xmlns:xlink="http://www.w3.org/1999/xlink">
<path d="M42,0L6,0C4.409,0 2.883,0.632 1.757,1.757C0.632,2.883 0,4.409 0,6L0,24C0.003,26.651 1.058,29.193 2.932,31.068C4.807,32.942 7.349,33.997 10,34L18,34L18,48L30,48L30,34L38,34C40.651,33.997 43.193,32.942 45.068,31.068C46.942,29.193 47.997,26.651 48,24L48,6C48,4.409 47.368,2.883 46.243,1.757C45.117,0.632 43.591,0 42,0L42,0ZM6,4L20,4L20,8L24,8L24,4L28,4L28,12L32,12L32,4L36,4L36,16L40,16L40,4L42,4C42.53,4 43.039,4.211 43.414,4.586C43.789,4.961 44,5.47 44,6L44,20L4,20L4,6C4,5.47 4.211,4.961 4.586,4.586C4.961,4.211 5.47,4 6,4L6,4ZM38,30L26,30L26,44L22,44L22,30L10,30C8.409,30 6.883,29.368 5.757,28.243C4.632,27.117 4,25.591 4,24L44,24C44,25.591 43.368,27.117 42.243,28.243C41.117,29.368 39.591,30 38,30Z" fill="#374957"/>
</svg>
