<svg width="42" height="48" viewBox="0 0 42 48" fill="none" xmlns="http://www.w3.org/2000/svg" xmlns:xlink="http://www.w3.org/1999/xlink">
<path d="M19.968,47.989L34.093,34.174C41.928,26.407 41.984,13.759 34.217,5.924C26.45,-1.912 13.802,-1.967 5.967,5.8C5.925,5.841 5.884,5.882 5.843,5.924C-1.958,13.725 -1.958,26.373 5.843,34.174C5.848,34.179 5.854,34.185 5.859,34.19L19.968,47.989ZM8.667,8.748C14.904,2.503 25.023,2.496 31.268,8.732C37.514,14.969 37.521,25.088 31.284,31.333L19.968,42.4L8.667,31.349C2.426,25.109 2.426,14.99 8.667,8.749C8.667,8.749 8.667,8.749 8.667,8.748ZM17.97,22.046L11.978,22.046L11.978,18.051L17.97,18.051L17.97,12.058L21.965,12.058L21.965,18.051L27.958,18.051L27.958,22.046L21.965,22.046L21.965,28.039L17.97,28.039L17.97,22.046Z" fill="#374957"/>
</svg>
