<svg width="48" height="48" viewBox="0 0 48 48" fill="none" xmlns="http://www.w3.org/2000/svg" xmlns:xlink="http://www.w3.org/1999/xlink">
<path d="M46,20C39.227,20.063 32.501,21.133 26.042,23.174C26.476,17.098 31.656,14 38,14C39.061,14 40.078,13.579 40.828,12.828C41.579,12.078 42,11.061 42,10C42,8.939 41.579,7.922 40.828,7.172C40.078,6.421 39.061,6 38,6C31.372,6 26,9.372 26,16L26,0L22,0L22,16C22,9.372 16.628,6 10,6C8.939,6 7.922,6.421 7.172,7.172C6.421,7.922 6,8.939 6,10C6,11.061 6.421,12.078 7.172,12.828C7.922,13.579 8.939,14 10,14C16.344,14 21.524,17.098 21.958,23.174C15.499,21.133 8.773,20.064 2,20L0,20L0,22C0,44.622 8.772,48 14,48C16.231,47.88 18.368,47.063 20.11,45.664C21.212,44.734 22.566,44.154 24,44C25.434,44.154 26.788,44.734 27.89,45.664C29.632,47.063 31.769,47.88 34,48C39.228,48 48,44.622 48,22L48,20L46,20ZM12.246,38.724C9.166,39.512 8.484,35.63 7.54,30C11.807,30.686 16,31.77 20.064,33.238L21.988,33.996C17.522,34.432 14.6,38.122 12.246,38.724ZM35.698,38.724C33.348,38.124 30.422,34.432 25.956,33.996L27.88,33.238C31.943,31.77 36.135,30.686 40.4,30C39.46,35.63 38.778,39.512 35.698,38.724Z" fill="#374957"/>
</svg>
