<svg width="44" height="48" viewBox="0 0 44 48" fill="none" xmlns="http://www.w3.org/2000/svg" xmlns:xlink="http://www.w3.org/1999/xlink">
<path d="M43.104,26.42L39.6,13.832C38.47,9.776 36.016,6.214 32.63,3.712C29.243,1.21 25.117,-0.089 20.908,0.022C16.699,0.133 12.648,1.648 9.398,4.326C6.148,7.003 3.886,10.69 2.972,14.8L0.264,26.978C-0.093,28.586 -0.085,30.253 0.288,31.857C0.662,33.461 1.39,34.961 2.421,36.246C3.451,37.531 4.757,38.568 6.242,39.281C7.727,39.993 9.353,40.363 11,40.364L11.8,40.364C12.436,42.565 13.771,44.499 15.602,45.876C17.433,47.253 19.663,47.998 21.954,47.998C24.245,47.998 26.474,47.253 28.306,45.876C30.137,44.499 31.471,42.565 32.108,40.364L32.494,40.364C34.19,40.364 35.863,39.972 37.382,39.219C38.901,38.465 40.226,37.371 41.252,36.021C42.278,34.671 42.979,33.102 43.298,31.436C43.618,29.771 43.548,28.054 43.094,26.42L43.104,26.42ZM36.486,32.388C36.022,33.004 35.42,33.504 34.729,33.847C34.037,34.19 33.276,34.367 32.504,34.364L11,34.364C10.251,34.364 9.512,34.195 8.837,33.871C8.163,33.548 7.569,33.076 7.101,32.492C6.632,31.908 6.301,31.227 6.131,30.498C5.961,29.768 5.958,29.011 6.12,28.28L8.828,16.08C9.45,13.272 10.993,10.753 13.212,8.923C15.431,7.094 18.198,6.059 21.073,5.984C23.948,5.91 26.765,6.798 29.077,8.51C31.388,10.221 33.061,12.656 33.828,15.428L37.324,28.016C37.535,28.759 37.569,29.542 37.423,30.301C37.278,31.06 36.957,31.775 36.486,32.388L36.486,32.388Z" fill="#374957"/>
</svg>
