<svg width="50" height="48" viewBox="0 0 50 48" fill="none" xmlns="http://www.w3.org/2000/svg" xmlns:xlink="http://www.w3.org/1999/xlink">
<path d="M10.308,33.66C10.106,34.148 10.001,34.672 10,35.2C10,38.932 13.476,40.482 15.778,41.508C16.484,41.806 17.17,42.148 17.832,42.532C17.73,42.714 17.574,42.97 17.338,43.32C16.894,43.98 16.731,44.79 16.884,45.571C17.037,46.352 17.494,47.04 18.154,47.484C18.814,47.928 19.624,48.091 20.405,47.938C21.186,47.785 21.874,47.328 22.318,46.668C23.296,45.427 23.882,43.922 24,42.346C24,38.614 20.524,37.062 18.222,36.036C17.558,35.754 16.91,35.436 16.28,35.084C16.42,34.85 16.594,34.582 16.778,34.31C18.801,33.616 20.661,32.515 22.243,31.075C23.825,29.635 25.096,27.887 25.978,25.938C27.361,28.609 29.577,30.756 32.29,32.054C31.066,37.146 34.532,39.502 36.376,40.75C38.338,42.078 38.338,42.078 37.576,43.762C37.413,44.121 37.323,44.509 37.31,44.903C37.297,45.297 37.362,45.689 37.501,46.058C37.64,46.427 37.85,46.765 38.12,47.052C38.389,47.34 38.713,47.572 39.072,47.734C39.46,47.91 39.88,48.001 40.306,48C40.883,48.001 41.448,47.835 41.934,47.522C42.419,47.21 42.804,46.764 43.042,46.238C45.888,39.944 41.734,37.132 39.738,35.78C37.882,34.524 37.478,34.23 38.61,32.066C44.142,29.78 48,21.762 48,14.454C48.057,12.791 47.772,11.135 47.162,9.587C46.552,8.039 45.63,6.633 44.453,5.457C43.277,4.28 41.871,3.358 40.323,2.748C38.775,2.138 37.119,1.853 35.456,1.91C33.699,1.871 31.954,2.205 30.335,2.891C28.717,3.576 27.263,4.597 26.068,5.886C24.266,3.434 21.734,1.614 18.836,0.686C15.937,-0.241 12.82,-0.229 9.928,0.721C7.037,1.672 4.52,3.511 2.737,5.978C0.954,8.444 -0.004,11.411 0,14.454C0,22.124 4.27,30.8 10.308,33.66ZM35.456,7.91C36.328,7.86 37.202,7.995 38.018,8.306C38.835,8.618 39.576,9.098 40.194,9.716C40.812,10.334 41.292,11.075 41.604,11.892C41.915,12.708 42.05,13.582 42,14.454C42,20.776 38.312,26.728 35.456,26.728C32.6,26.728 28.908,20.776 28.908,14.454C28.858,13.581 28.993,12.708 29.305,11.891C29.616,11.074 30.097,10.332 30.715,9.714C31.334,9.096 32.076,8.616 32.893,8.305C33.71,7.994 34.583,7.859 35.456,7.91L35.456,7.91ZM14.456,6C16.697,6.003 18.846,6.894 20.43,8.479C22.015,10.064 22.906,12.213 22.908,14.454C22.908,21.082 18.404,28.636 14.456,28.636C10.508,28.636 6,21.082 6,14.454C6.003,12.212 6.894,10.063 8.48,8.478C10.065,6.893 12.214,6.002 14.456,6L14.456,6Z" fill="#374957"/>
</svg>
