<svg width="48" height="48" viewBox="0 0 48 48" fill="none" xmlns="http://www.w3.org/2000/svg" xmlns:xlink="http://www.w3.org/1999/xlink">
<path d="M20,48L0,48L0,44L20,44L20,48ZM16,36L0,36L0,40L16,40L16,36ZM12,28L0,28L0,32L12,32L12,28ZM24,0C17.637,0.007 11.536,2.538 7.037,7.037C2.538,11.536 0.007,17.637 0,24L4,24C4,20.044 5.173,16.178 7.371,12.889C9.568,9.6 12.692,7.036 16.346,5.522C20.001,4.009 24.022,3.613 27.902,4.384C31.781,5.156 35.345,7.061 38.142,9.858C40.939,12.655 42.844,16.219 43.616,20.098C44.387,23.978 43.991,27.999 42.478,31.654C40.964,35.308 38.4,38.432 35.111,40.629C31.822,42.827 27.956,44 24,44L24,48C30.365,48 36.47,45.471 40.971,40.971C45.471,36.47 48,30.365 48,24C48,17.635 45.471,11.53 40.971,7.029C36.47,2.529 30.365,0 24,0L24,0ZM22,14L22,24.828L28.586,31.414L31.414,28.586L26,23.172L26,14L22,14Z" fill="#374957"/>
</svg>
