<svg width="50" height="46" viewBox="0 0 50 46" fill="none" xmlns="http://www.w3.org/2000/svg" xmlns:xlink="http://www.w3.org/1999/xlink">
<path d="M35.001,-0.166C32.749,-0.13 30.546,0.498 28.614,1.657C26.683,2.816 25.092,4.464 24.001,6.434C22.91,4.464 21.319,2.816 19.387,1.657C17.456,0.498 15.253,-0.13 13.001,-0.166C9.411,-0.01 6.028,1.561 3.592,4.203C1.157,6.845 -0.135,10.344 0.001,13.934C0.001,27.484 21.913,43.134 22.845,43.798L24.001,44.616L25.157,43.798C26.089,43.138 48.001,27.484 48.001,13.934C48.136,10.344 46.845,6.845 44.409,4.203C41.973,1.561 38.591,-0.01 35.001,-0.166L35.001,-0.166ZM24.001,39.692C17.495,34.832 4.001,22.892 4.001,13.934C3.864,11.404 4.734,8.922 6.42,7.03C8.106,5.138 10.471,3.989 13.001,3.834C15.53,3.989 17.896,5.138 19.582,7.03C21.268,8.922 22.138,11.404 22.001,13.934L26.001,13.934C25.864,11.404 26.734,8.922 28.42,7.03C30.106,5.138 32.471,3.989 35.001,3.834C37.53,3.989 39.896,5.138 41.582,7.03C43.268,8.922 44.138,11.404 44.001,13.934C44.001,22.896 30.507,34.832 24.001,39.692Z" fill="#374957"/>
</svg>
