<svg width="50" height="50" viewBox="0 0 50 50" fill="none" xmlns="http://www.w3.org/2000/svg" xmlns:xlink="http://www.w3.org/1999/xlink">
<path d="M46.536,1.467C45.943,0.872 45.209,0.436 44.402,0.201C43.595,-0.035 42.742,-0.062 41.922,0.121C36.747,1.682 32.053,4.531 28.28,8.401L11.844,24.845C9.192,23.497 6.354,22.549 3.424,22.031C2.641,21.927 1.848,22.135 1.217,22.611C0.587,23.088 0.17,23.794 0.057,24.576C-0.056,25.358 0.144,26.153 0.614,26.788C1.084,27.424 1.785,27.848 2.566,27.969C5.913,28.604 9.092,29.928 11.9,31.857L6,37.759L5.122,36.879C4.559,36.317 3.796,36 3,36C2.204,36 1.441,36.317 0.878,36.879C0.315,37.442 -0.001,38.205 -0.001,39.001C-0.001,39.797 0.315,40.561 0.878,41.123L6.878,47.123C7.441,47.686 8.204,48.002 9,48.002C9.394,48.002 9.784,47.925 10.148,47.774C10.513,47.623 10.843,47.402 11.122,47.123C11.401,46.845 11.622,46.514 11.773,46.15C11.923,45.786 12.001,45.395 12.001,45.001C12.001,44.607 11.923,44.217 11.773,43.853C11.622,43.489 11.401,43.158 11.122,42.879L10.242,42.001L16.142,36.099C18.072,38.907 19.397,42.086 20.032,45.433C20.136,46.147 20.493,46.798 21.038,47.27C21.583,47.742 22.279,48.001 23,48.001C23.143,48.001 23.286,47.991 23.428,47.971C23.819,47.916 24.194,47.784 24.534,47.582C24.873,47.381 25.17,47.115 25.406,46.8C25.643,46.484 25.815,46.124 25.912,45.742C26.009,45.36 26.031,44.962 25.974,44.571C25.457,41.641 24.508,38.804 23.16,36.151L39.6,19.719C43.362,15.861 46.197,11.196 47.888,6.079C48.07,5.259 48.041,4.406 47.805,3.6C47.568,2.793 47.132,2.06 46.536,1.467L46.536,1.467ZM35.352,15.477L19.8,31.029C19.376,30.525 18.936,30.029 18.454,29.545C17.972,29.061 17.476,28.623 16.972,28.201L32.522,12.649C35.03,10.147 37.992,8.145 41.25,6.751C39.856,10.008 37.854,12.97 35.352,15.477L35.352,15.477Z" fill="#374957"/>
</svg>
