<svg width="48" height="48" viewBox="0 0 48 48" fill="none" xmlns="http://www.w3.org/2000/svg" xmlns:xlink="http://www.w3.org/1999/xlink">
<path d="M46.23,1.772C45.079,0.671 43.547,0.057 41.954,0.057C40.361,0.057 38.829,0.671 37.678,1.772L30.864,8.586C29.591,9.87 27.865,10.605 26.056,10.631C24.247,10.658 22.5,9.975 21.19,8.728L18.4,11.6L22.45,15.65L4.05,34.05C2.979,35.109 2.284,36.489 2.07,37.979C1.856,39.47 2.135,40.99 2.864,42.308L0,45.172L2.828,48L5.692,45.136C7.01,45.865 8.53,46.144 10.02,45.929C11.511,45.715 12.891,45.02 13.95,43.95L32.35,25.55L36.4,29.6L39.268,26.814C38.021,25.503 37.337,23.756 37.363,21.948C37.39,20.139 38.125,18.413 39.41,17.14L46.224,10.326C47.358,9.192 47.995,7.654 47.995,6.051C47.995,4.447 47.358,2.91 46.224,1.776L46.23,1.772ZM11.12,41.122C10.549,41.667 9.789,41.971 8.999,41.971C8.209,41.971 7.449,41.667 6.878,41.122C6.316,40.559 6,39.796 6,39.001C6,38.205 6.316,37.442 6.878,36.88L25.278,18.48L29.52,22.722L11.12,41.122ZM43.4,7.494L36.586,14.308C34.792,16.089 33.671,18.437 33.414,20.952L27.048,14.586C29.563,14.329 31.911,13.208 33.692,11.414L40.508,4.6C40.897,4.227 41.415,4.019 41.954,4.019C42.493,4.019 43.011,4.227 43.4,4.6C43.59,4.79 43.741,5.015 43.844,5.263C43.947,5.512 44,5.778 44,6.047C44,6.316 43.947,6.582 43.844,6.83C43.741,7.078 43.59,7.304 43.4,7.494L43.4,7.494Z" fill="#374957"/>
</svg>
