<svg width="46" height="50" viewBox="0 0 46 50" fill="none" xmlns="http://www.w3.org/2000/svg" xmlns:xlink="http://www.w3.org/1999/xlink">
<path d="M27,12C27.796,12 28.559,12.316 29.121,12.879C29.684,13.441 30,14.204 30,15C30,15.796 29.684,16.559 29.121,17.121C28.559,17.684 27.796,18 27,18L13,18C12.204,18 11.441,17.684 10.879,17.121C10.316,16.559 10,15.796 10,15C10,14.204 10.316,13.441 10.879,12.879C11.441,12.316 12.204,12 13,12L27,12ZM43.122,47.122C42.843,47.401 42.513,47.622 42.148,47.773C41.784,47.924 41.394,48.001 41,48.001C40.606,48.001 40.216,47.924 39.852,47.773C39.487,47.622 39.157,47.401 38.878,47.122L34.856,43.098C33.655,43.685 32.337,43.993 31,44C29.22,44 27.48,43.472 26,42.483C24.52,41.494 23.366,40.089 22.685,38.444C22.004,36.8 21.826,34.99 22.173,33.244C22.52,31.498 23.377,29.895 24.636,28.636C25.895,27.377 27.498,26.52 29.244,26.173C30.99,25.826 32.8,26.004 34.444,26.685C36.089,27.366 37.494,28.52 38.483,30C39.472,31.48 40,33.22 40,35C39.993,36.337 39.685,37.655 39.098,38.856L43.122,42.878C43.401,43.157 43.622,43.487 43.773,43.852C43.924,44.216 44.001,44.606 44.001,45C44.001,45.394 43.924,45.784 43.773,46.148C43.622,46.513 43.401,46.843 43.122,47.122L43.122,47.122ZM31,38C31.593,38 32.173,37.824 32.667,37.494C33.16,37.165 33.545,36.696 33.772,36.148C33.999,35.6 34.058,34.997 33.942,34.415C33.827,33.833 33.541,33.298 33.121,32.879C32.702,32.459 32.167,32.173 31.585,32.058C31.003,31.942 30.4,32.001 29.852,32.228C29.304,32.455 28.835,32.84 28.506,33.333C28.176,33.827 28,34.407 28,35C28,35.796 28.316,36.559 28.879,37.121C29.441,37.684 30.204,38 31,38ZM19,42L11,42C9.674,42 8.402,41.473 7.464,40.536C6.527,39.598 6,38.326 6,37L6,11C6,9.674 6.527,8.402 7.464,7.464C8.402,6.527 9.674,6 11,6L33,6C33.265,6 33.52,6.105 33.707,6.293C33.895,6.48 34,6.735 34,7L34,21C34,21.796 34.316,22.559 34.879,23.121C35.441,23.684 36.204,24 37,24C37.796,24 38.559,23.684 39.121,23.121C39.684,22.559 40,21.796 40,21L40,7C40,5.143 39.263,3.363 37.95,2.05C36.637,0.737 34.857,0 33,0L11,0C8.084,0.003 5.288,1.163 3.225,3.225C1.163,5.288 0.003,8.084 0,11L0,37C0.003,39.916 1.163,42.712 3.225,44.775C5.288,46.837 8.084,47.997 11,48L19,48C19.796,48 20.559,47.684 21.121,47.121C21.684,46.559 22,45.796 22,45C22,44.204 21.684,43.441 21.121,42.879C20.559,42.316 19.796,42 19,42Z" fill="#374957"/>
</svg>
