<svg width="48" height="48" viewBox="0 0 48 48" fill="none" xmlns="http://www.w3.org/2000/svg" xmlns:xlink="http://www.w3.org/1999/xlink">
<path d="M48,28C47.998,27.301 47.812,26.614 47.461,26.009C47.11,25.404 46.606,24.903 46,24.554L46,21C45.994,15.432 43.779,10.095 39.842,6.158C35.905,2.221 30.568,0.006 25,0L23,0C17.433,0.006 12.095,2.221 8.158,6.158C4.221,10.095 2.007,15.432 2,21L2,24.554C1.401,24.907 0.904,25.411 0.558,26.016C0.213,26.62 0.031,27.304 0.031,28C0.031,28.696 0.213,29.38 0.558,29.984C0.904,30.589 1.401,31.093 2,31.446L2,33C2.004,36.977 3.586,40.79 6.398,43.602C9.21,46.414 13.023,47.996 17,48L31,48C34.977,47.996 38.79,46.414 41.602,43.602C44.414,40.79 45.996,36.977 46,33L46,31.446C46.606,31.097 47.11,30.596 47.461,29.991C47.812,29.386 47.998,28.699 48,28ZM23,6L25,6C28.977,6.004 32.79,7.586 35.602,10.398C38.414,13.21 39.996,17.023 40,21L40,24L8,24L8,21C8.004,17.023 9.586,13.21 12.398,10.398C15.21,7.586 19.023,6.004 23,6L23,6ZM31,42L17,42C14.614,41.997 12.326,41.048 10.639,39.361C8.952,37.674 8.003,35.386 8,33L8,32.052C11.184,32.304 12.344,33.8 15.568,36.598C16.595,37.501 17.916,37.999 19.284,37.999C20.652,37.999 21.973,37.501 23,36.598C27.636,32.574 27.74,32 34,32L40,32L40,33C39.997,35.386 39.048,37.674 37.361,39.361C35.674,41.048 33.386,41.997 31,42L31,42ZM12,17C12,16.204 12.316,15.441 12.879,14.879C13.441,14.316 14.205,14 15,14C15.796,14 16.559,14.316 17.122,14.879C17.684,15.441 18,16.204 18,17C18,17.796 17.684,18.559 17.122,19.121C16.559,19.684 15.796,20 15,20C14.205,20 13.441,19.684 12.879,19.121C12.316,18.559 12,17.796 12,17ZM20,13C20,12.204 20.316,11.441 20.879,10.879C21.441,10.316 22.204,10 23,10C23.796,10 24.559,10.316 25.121,10.879C25.684,11.441 26,12.204 26,13C26,13.796 25.684,14.559 25.121,15.121C24.559,15.684 23.796,16 23,16C22.204,16 21.441,15.684 20.879,15.121C20.316,14.559 20,13.796 20,13Z" fill="#374957"/>
</svg>
