<svg width="48" height="48" viewBox="0 0 48 48" fill="none" xmlns="http://www.w3.org/2000/svg" xmlns:xlink="http://www.w3.org/1999/xlink">
<path d="M24,0C17.635,0 11.53,2.529 7.029,7.029C2.529,11.53 0,17.635 0,24C0,30.365 2.529,36.47 7.029,40.971C11.53,45.471 17.635,48 24,48L48,48L48,24C47.993,17.637 45.462,11.536 40.963,7.037C36.464,2.538 30.363,0.007 24,0L24,0ZM44,44L24,44C20.044,44 16.178,42.827 12.889,40.629C9.6,38.432 7.036,35.308 5.522,31.654C4.009,27.999 3.613,23.978 4.384,20.098C5.156,16.219 7.061,12.655 9.858,9.858C12.655,7.061 16.219,5.156 20.098,4.384C23.978,3.613 27.999,4.009 31.654,5.522C35.308,7.036 38.432,9.6 40.629,12.889C42.827,16.178 44,20.044 44,24L44,44ZM29,14C27.137,13.971 25.338,14.683 24,15.98C22.662,14.683 20.863,13.971 19,14C17.092,14.056 15.283,14.867 13.971,16.254C12.659,17.641 11.95,19.491 12,21.4C12,27.912 21.748,34.872 22.86,35.642L24,36.442L25.14,35.642C26.252,34.872 36,27.912 36,21.4C36.05,19.491 35.341,17.641 34.029,16.254C32.717,14.867 30.908,14.056 29,14ZM24,31.524C20.518,28.864 16,24.404 16,21.4C15.952,20.552 16.24,19.72 16.801,19.083C17.363,18.447 18.153,18.058 19,18C19.393,17.971 19.788,18.026 20.159,18.161C20.53,18.296 20.868,18.508 21.151,18.782C21.434,19.057 21.656,19.388 21.803,19.754C21.949,20.121 22.016,20.514 22,20.908L22,22L26,22L26,20.908C25.984,20.514 26.051,20.121 26.197,19.754C26.344,19.388 26.566,19.057 26.849,18.782C27.132,18.508 27.47,18.296 27.841,18.161C28.212,18.026 28.607,17.971 29,18C29.847,18.058 30.637,18.447 31.199,19.083C31.76,19.72 32.048,20.552 32,21.4C32,24.4 27.482,28.864 24,31.524Z" fill="#374957"/>
</svg>
