<svg width="40" height="48" viewBox="0 0 40 48" fill="none" xmlns="http://www.w3.org/2000/svg" xmlns:xlink="http://www.w3.org/1999/xlink">
<path d="M34.142,5.872C32.29,3.987 30.083,2.488 27.649,1.46C25.214,0.433 22.6,-0.102 19.958,-0.113C17.316,-0.124 14.697,0.389 12.254,1.396C9.811,2.402 7.592,3.883 5.724,5.753C3.857,7.622 2.378,9.843 1.374,12.287C0.37,14.731 -0.14,17.35 -0.126,19.992C-0.112,22.635 0.426,25.248 1.455,27.682C2.485,30.115 3.987,32.32 5.874,34.17L20,47.988L34.142,34.154C37.892,30.403 39.999,25.317 39.999,20.013C39.999,14.709 37.892,9.623 34.142,5.872L34.142,5.872ZM30,28L10,28L10,18.818C10.002,18.05 10.181,17.292 10.522,16.604C10.862,15.915 11.356,15.314 11.966,14.846L16.966,11.026C17.839,10.362 18.905,10.003 20.001,10.003C21.097,10.003 22.163,10.362 23.036,11.026L28.036,14.846C28.645,15.314 29.138,15.916 29.479,16.604C29.819,17.293 29.998,18.05 30,18.818L30,28ZM25.6,18.026C25.724,18.119 25.825,18.24 25.894,18.379C25.964,18.518 26,18.671 26,18.826L26,24L22,24L22,20L18,20L18,24L14,24L14,18.818C14,18.663 14.036,18.51 14.106,18.371C14.175,18.232 14.276,18.111 14.4,18.018L19.4,14.2C19.574,14.066 19.788,13.994 20.008,13.994C20.228,13.994 20.441,14.066 20.616,14.2L25.6,18.026Z" fill="#374957"/>
</svg>
