<svg width="46" height="24" viewBox="0 0 46 24" fill="none" xmlns="http://www.w3.org/2000/svg" xmlns:xlink="http://www.w3.org/1999/xlink">
<path d="M6.172,21.368C7.621,11.526 16.773,4.722 26.615,6.17C29.973,6.664 33.123,8.097 35.702,10.303L33.38,12.625C32.602,13.403 32.602,14.665 33.381,15.444C33.754,15.817 34.261,16.027 34.789,16.027L43.929,16.027C45.03,16.027 45.922,15.135 45.922,14.034L45.922,4.894C45.922,3.794 45.029,2.902 43.929,2.902C43.4,2.902 42.894,3.112 42.52,3.485L39.929,6.076C30.049,-2.731 14.9,-1.861 6.093,8.019C2.972,11.519 0.948,15.858 0.269,20.497C0.002,22.142 1.118,23.692 2.763,23.96C2.911,23.984 3.061,23.997 3.211,23.999C4.716,23.983 5.979,22.861 6.172,21.368Z" fill="#374957"/>
</svg>
