<svg width="40" height="48" viewBox="0 0 40 48" fill="none" xmlns="http://www.w3.org/2000/svg" xmlns:xlink="http://www.w3.org/1999/xlink">
<path d="M32,34.999C32,35.795 31.684,36.558 31.121,37.12C30.559,37.683 29.796,37.999 29,37.999L27,37.999C26.204,37.999 25.441,37.683 24.879,37.12C24.316,36.558 24,35.795 24,34.999C24,34.203 24.316,33.44 24.879,32.878C25.441,32.315 26.204,31.999 27,31.999L29,31.999C29.796,31.999 30.559,32.315 31.121,32.878C31.684,33.44 32,34.203 32,34.999ZM22.184,27.999L17.816,27.999C17.574,28.658 17.109,29.211 16.502,29.562C15.894,29.913 15.183,30.041 14.491,29.922C13.8,29.803 13.172,29.445 12.717,28.911C12.262,28.377 12.008,27.701 12,26.999L12,19.999C12,17.877 12.843,15.843 14.343,14.342C15.843,12.842 17.878,11.999 20,11.999C22.122,11.999 24.157,12.842 25.657,14.342C27.157,15.843 28,17.877 28,19.999L28,26.999C27.992,27.701 27.738,28.377 27.283,28.911C26.828,29.445 26.2,29.803 25.509,29.922C24.817,30.041 24.106,29.913 23.498,29.562C22.891,29.211 22.426,28.658 22.184,27.999L22.184,27.999ZM18,19.999L18,21.999L22,21.999L22,19.999C22,19.469 21.789,18.96 21.414,18.585C21.039,18.21 20.53,17.999 20,17.999C19.47,17.999 18.961,18.21 18.586,18.585C18.211,18.96 18,19.469 18,19.999ZM16.862,31.893L15.012,33.775C14.445,33.265 13.705,32.99 12.942,33.006C12.179,33.022 11.451,33.328 10.906,33.862C10.361,34.396 10.04,35.117 10.008,35.879C9.976,36.642 10.236,37.387 10.734,37.965C10.734,37.965 11.06,38.339 11.112,38.387C11.625,38.898 12.234,39.304 12.903,39.58C13.573,39.856 14.291,39.997 15.015,39.996C15.739,39.995 16.456,39.851 17.125,39.572C17.794,39.294 18.401,38.886 18.912,38.373L21.144,36.105C21.421,35.824 21.639,35.492 21.787,35.127C21.935,34.761 22.01,34.371 22.007,33.976C22.004,33.582 21.923,33.193 21.77,32.83C21.616,32.467 21.393,32.138 21.112,31.861C20.831,31.584 20.499,31.366 20.134,31.218C19.768,31.07 19.377,30.995 18.983,30.998C18.589,31.001 18.2,31.082 17.837,31.235C17.474,31.389 17.145,31.612 16.868,31.893L16.862,31.893ZM40,14.313L40,36.999C39.996,39.915 38.836,42.711 36.774,44.773C34.712,46.835 31.916,47.995 29,47.999L11,47.999C8.084,47.995 5.288,46.835 3.226,44.773C1.164,42.711 0.004,39.915 0,36.999L0,10.999C0.004,8.083 1.164,5.287 3.226,3.225C5.288,1.163 8.084,0.003 11,-0.001L25.686,-0.001C27.131,-0.005 28.563,0.278 29.898,0.831C31.233,1.384 32.445,2.196 33.464,3.221L36.778,6.535C37.803,7.554 38.615,8.766 39.168,10.101C39.721,11.436 40.004,12.868 40,14.313L40,14.313ZM33.97,13.999L30,13.999C28.939,13.999 27.922,13.578 27.172,12.827C26.421,12.077 26,11.06 26,9.999L26,6.029C25.894,6.023 11,5.999 11,5.999C9.674,5.999 8.402,6.526 7.464,7.464C6.527,8.401 6,9.673 6,10.999L6,36.999C6,38.325 6.527,39.597 7.464,40.535C8.402,41.472 9.674,41.999 11,41.999L29,41.999C30.326,41.999 31.598,41.472 32.536,40.535C33.473,39.597 34,38.325 34,36.999C34,36.999 33.976,14.105 33.97,13.999Z" fill="#374957"/>
</svg>
