<svg width="36" height="48" viewBox="0 0 36 48" fill="none" xmlns="http://www.w3.org/2000/svg" xmlns:xlink="http://www.w3.org/1999/xlink">
<path d="M32,17.524L32,9C31.997,6.614 31.048,4.326 29.361,2.639C27.674,0.952 25.386,0.003 23,0L13,0C10.614,0.003 8.326,0.952 6.639,2.639C4.952,4.326 4.003,6.614 4,9L4,17.524C2.77,18.346 1.762,19.457 1.064,20.761C0.367,22.065 0.001,23.521 0,25L0,30C0,34.774 1.896,39.352 5.272,42.728C8.648,46.104 13.226,48 18,48C22.774,48 27.352,46.104 30.728,42.728C34.104,39.352 36,34.774 36,30L36,25C35.999,23.521 35.633,22.065 34.936,20.761C34.238,19.457 33.23,18.346 32,17.524L32,17.524ZM10,9C10,8.204 10.316,7.441 10.879,6.879C11.441,6.316 12.204,6 13,6L23,6C23.796,6 24.559,6.316 25.121,6.879C25.684,7.441 26,8.204 26,9L26,16L22,16C22,14.939 21.579,13.922 20.828,13.172C20.078,12.421 19.061,12 18,12C16.939,12 15.922,12.421 15.172,13.172C14.421,13.922 14,14.939 14,16L10,16L10,9ZM30,30C30,33.183 28.736,36.235 26.485,38.485C24.235,40.736 21.183,42 18,42C14.817,42 11.765,40.736 9.515,38.485C7.264,36.235 6,33.183 6,30L6,25C6,24.204 6.316,23.441 6.879,22.879C7.441,22.316 8.204,22 9,22L27,22C27.796,22 28.559,22.316 29.121,22.879C29.684,23.441 30,24.204 30,25L30,30Z" fill="#374957"/>
</svg>
