<svg width="48" height="48" viewBox="0 0 48 48" fill="none" xmlns="http://www.w3.org/2000/svg" xmlns:xlink="http://www.w3.org/1999/xlink">
<path d="M24,0C19.253,0 14.613,1.408 10.666,4.045C6.72,6.682 3.643,10.43 1.827,14.816C0.01,19.201 -0.465,24.027 0.461,28.682C1.387,33.338 3.673,37.614 7.029,40.971C10.386,44.327 14.662,46.613 19.318,47.539C23.973,48.465 28.799,47.99 33.184,46.173C37.57,44.357 41.318,41.28 43.955,37.334C46.592,33.387 48,28.747 48,24C47.993,17.637 45.462,11.536 40.963,7.037C36.464,2.538 30.363,0.007 24,0L24,0ZM26,43.898L26,38L22,38L22,43.898C17.412,43.431 13.126,41.395 9.866,38.134C6.605,34.874 4.569,30.588 4.102,26L10,26L10,22L4.102,22C4.569,17.412 6.605,13.126 9.866,9.866C13.126,6.605 17.412,4.569 22,4.102L22,10L26,10L26,4.102C30.588,4.569 34.874,6.605 38.134,9.866C41.395,13.126 43.431,17.412 43.898,22L38,22L38,26L43.898,26C43.431,30.588 41.395,34.874 38.134,38.134C34.874,41.395 30.588,43.431 26,43.898L26,43.898ZM26,22L30,22L30,26L26,26L26,30L22,30L22,26L18,26L18,22L22,22L22,18L26,18L26,22Z" fill="#374957"/>
</svg>
