<svg width="48" height="48" viewBox="0 0 48 48" fill="none" xmlns="http://www.w3.org/2000/svg" xmlns:xlink="http://www.w3.org/1999/xlink">
<path d="M48,33L48,37C47.997,39.916 46.837,42.712 44.775,44.775C42.712,46.837 39.916,47.997 37,48L11,48C8.084,47.997 5.288,46.837 3.225,44.775C1.163,42.712 0.003,39.916 0,37L0,17C0.003,14.084 1.163,11.288 3.225,9.225C5.288,7.163 8.084,6.003 11,6L23,6C23.796,6 24.559,6.316 25.121,6.879C25.684,7.441 26,8.204 26,9C26,9.796 25.684,10.559 25.121,11.121C24.559,11.684 23.796,12 23,12L11,12C10.093,12.003 9.204,12.253 8.428,12.724C7.653,13.195 7.021,13.868 6.6,14.672L20.462,28.536C21.249,29.299 22.26,29.788 23.347,29.932C24.433,30.076 25.537,29.867 26.496,29.336C26.837,29.139 27.214,29.011 27.605,28.96C27.996,28.909 28.393,28.935 28.774,29.037C29.155,29.139 29.511,29.315 29.824,29.555C30.137,29.795 30.399,30.095 30.596,30.436C30.793,30.777 30.921,31.154 30.972,31.545C31.023,31.936 30.997,32.333 30.895,32.714C30.793,33.095 30.617,33.451 30.377,33.764C30.137,34.077 29.837,34.339 29.496,34.536C27.397,35.74 24.96,36.22 22.561,35.905C20.162,35.589 17.932,34.494 16.216,32.788L6,22.556L6,37C6,38.326 6.527,39.598 7.464,40.536C8.402,41.473 9.674,42 11,42L37,42C38.326,42 39.598,41.473 40.536,40.536C41.473,39.598 42,38.326 42,37L42,33C42,32.204 42.316,31.441 42.879,30.879C43.441,30.316 44.204,30 45,30C45.796,30 46.559,30.316 47.121,30.879C47.684,31.441 48,32.204 48,33ZM44,0L34,0C32.939,0 31.922,0.421 31.172,1.172C30.421,1.922 30,2.939 30,4L30,23.308C30,23.816 30.144,24.315 30.415,24.745C30.685,25.175 31.072,25.52 31.53,25.741C31.989,25.961 32.5,26.047 33.005,25.99C33.51,25.932 33.989,25.733 34.386,25.416L39,21.726L43.614,25.416C44.011,25.733 44.49,25.932 44.995,25.99C45.5,26.047 46.011,25.961 46.47,25.741C46.928,25.52 47.315,25.175 47.585,24.745C47.856,24.315 48,23.816 48,23.308L48,4C48,2.939 47.579,1.922 46.828,1.172C46.078,0.421 45.061,0 44,0L44,0Z" fill="#374957"/>
</svg>
