<svg width="48" height="48" viewBox="0 0 48 48" fill="none" xmlns="http://www.w3.org/2000/svg" xmlns:xlink="http://www.w3.org/1999/xlink">
<path d="M45,26L33,26C32.204,26 31.441,25.684 30.879,25.121C30.316,24.559 30,23.796 30,23C30,22.204 30.316,21.441 30.879,20.879C31.441,20.316 32.204,20 33,20L45,20C45.796,20 46.559,20.316 47.121,20.879C47.684,21.441 48,22.204 48,23C48,23.796 47.684,24.559 47.121,25.121C46.559,25.684 45.796,26 45,26ZM28,12C28,9.627 27.296,7.307 25.978,5.333C24.659,3.36 22.785,1.822 20.592,0.913C18.399,0.005 15.987,-0.232 13.659,0.231C11.331,0.694 9.193,1.836 7.515,3.515C5.836,5.193 4.694,7.331 4.231,9.659C3.768,11.987 4.005,14.399 4.913,16.592C5.822,18.785 7.36,20.659 9.333,21.978C11.307,23.296 13.627,24 16,24C19.182,23.997 22.232,22.732 24.482,20.482C26.732,18.232 27.997,15.182 28,12L28,12ZM22,12C22,13.187 21.648,14.347 20.989,15.333C20.33,16.32 19.392,17.089 18.296,17.543C17.2,17.997 15.993,18.116 14.829,17.885C13.666,17.653 12.596,17.082 11.757,16.243C10.918,15.404 10.347,14.334 10.115,13.171C9.884,12.007 10.003,10.8 10.457,9.704C10.911,8.608 11.68,7.67 12.667,7.011C13.653,6.352 14.813,6 16,6C17.591,6 19.117,6.632 20.243,7.757C21.368,8.883 22,10.409 22,12ZM32,45L32,44C32,39.757 30.314,35.687 27.314,32.686C24.313,29.686 20.243,28 16,28C11.757,28 7.687,29.686 4.686,32.686C1.686,35.687 0,39.757 0,44L0,45C0,45.796 0.316,46.559 0.879,47.121C1.441,47.684 2.204,48 3,48C3.796,48 4.559,47.684 5.121,47.121C5.684,46.559 6,45.796 6,45L6,44C6,41.348 7.054,38.804 8.929,36.929C10.804,35.054 13.348,34 16,34C18.652,34 21.196,35.054 23.071,36.929C24.946,38.804 26,41.348 26,44L26,45C26,45.796 26.316,46.559 26.879,47.121C27.441,47.684 28.204,48 29,48C29.796,48 30.559,47.684 31.121,47.121C31.684,46.559 32,45.796 32,45Z" fill="#374957"/>
</svg>
