<svg width="48" height="48" viewBox="0 0 48 48" fill="none" xmlns="http://www.w3.org/2000/svg" xmlns:xlink="http://www.w3.org/1999/xlink">
<path d="M27.81,2.486C27.48,1.751 26.945,1.128 26.269,0.69C25.593,0.252 24.805,0.02 24,0.02C23.195,0.02 22.407,0.252 21.731,0.69C21.055,1.128 20.52,1.751 20.19,2.486L0,48L48,48L27.81,2.486ZM36.526,32L11.474,32L15.022,24L32.978,24L36.526,32ZM23.838,4.124C23.87,4.054 23.886,4.02 24,4.02C24.114,4.02 24.13,4.054 24.154,4.108L31.2,20L16.8,20L23.838,4.124ZM9.698,36L38.298,36L41.846,44L6.15,44L9.698,36Z" fill="#374957"/>
</svg>
