<svg width="48" height="36" viewBox="0 0 48 36" fill="none" xmlns="http://www.w3.org/2000/svg" xmlns:xlink="http://www.w3.org/1999/xlink">
<path d="M37,0L11,0C8.084,0.003 5.288,1.163 3.225,3.225C1.163,5.288 0.003,8.084 0,11L0,25C0.003,27.916 1.163,30.712 3.225,32.775C5.288,34.837 8.084,35.997 11,36L37,36C39.916,35.997 42.712,34.837 44.775,32.775C46.837,30.712 47.997,27.916 48,25L48,11C47.997,8.084 46.837,5.288 44.775,3.225C42.712,1.163 39.916,0.003 37,0ZM42,25C42,26.326 41.473,27.598 40.536,28.536C39.598,29.473 38.326,30 37,30L11,30C9.674,30 8.402,29.473 7.464,28.536C6.527,27.598 6,26.326 6,25L6,11C6,9.674 6.527,8.402 7.464,7.464C8.402,6.527 9.674,6 11,6L37,6C38.326,6 39.598,6.527 40.536,7.464C41.473,8.402 42,9.674 42,11L42,25Z" fill="#374957"/>
</svg>
