<svg width="48" height="44" viewBox="0 0 48 44" fill="none" xmlns="http://www.w3.org/2000/svg" xmlns:xlink="http://www.w3.org/1999/xlink">
<path d="M42,0L6,0C4.409,0 2.883,0.632 1.757,1.757C0.632,2.883 0,4.409 0,6L0,44L48,44L48,6C48,4.409 47.368,2.883 46.243,1.757C45.117,0.632 43.591,0 42,0L42,0ZM6,4L42,4C42.53,4 43.039,4.211 43.414,4.586C43.789,4.961 44,5.47 44,6L44,12L4,12L4,6C4,5.47 4.211,4.961 4.586,4.586C4.961,4.211 5.47,4 6,4L6,4ZM4,40L4,16L44,16L44,40L4,40ZM10,22L38,22L38,26L10,26L10,22ZM10,30L30,30L30,34L10,34L10,30ZM6,8C6,7.604 6.117,7.218 6.337,6.889C6.557,6.56 6.869,6.304 7.235,6.152C7.6,6.001 8.002,5.961 8.39,6.038C8.778,6.116 9.135,6.306 9.414,6.586C9.694,6.865 9.884,7.222 9.962,7.61C10.039,7.998 9.999,8.4 9.848,8.765C9.696,9.131 9.44,9.443 9.111,9.663C8.782,9.883 8.396,10 8,10C7.47,10 6.961,9.789 6.586,9.414C6.211,9.039 6,8.53 6,8ZM12,8C12,7.604 12.117,7.218 12.337,6.889C12.557,6.56 12.869,6.304 13.235,6.152C13.6,6.001 14.002,5.961 14.39,6.038C14.778,6.116 15.135,6.306 15.414,6.586C15.694,6.865 15.884,7.222 15.962,7.61C16.039,7.998 15.999,8.4 15.848,8.765C15.696,9.131 15.44,9.443 15.111,9.663C14.782,9.883 14.396,10 14,10C13.47,10 12.961,9.789 12.586,9.414C12.211,9.039 12,8.53 12,8ZM18,8C18,7.604 18.117,7.218 18.337,6.889C18.557,6.56 18.869,6.304 19.235,6.152C19.6,6.001 20.002,5.961 20.39,6.038C20.778,6.116 21.135,6.306 21.414,6.586C21.694,6.865 21.884,7.222 21.962,7.61C22.039,7.998 21.999,8.4 21.848,8.765C21.696,9.131 21.44,9.443 21.111,9.663C20.782,9.883 20.396,10 20,10C19.47,10 18.961,9.789 18.586,9.414C18.211,9.039 18,8.53 18,8Z" fill="#374957"/>
</svg>
