<svg width="48" height="48" viewBox="0 0 48 48" fill="none" xmlns="http://www.w3.org/2000/svg" xmlns:xlink="http://www.w3.org/1999/xlink">
<path d="M16,38L22,38L22,42L16,42L16,48L12,48L12,42L6,42L6,38L12,38L12,29.698C9.969,29.29 8.045,28.464 6.348,27.275C4.652,26.085 3.22,24.557 2.144,22.787C1.067,21.017 0.369,19.043 0.093,16.989C-0.182,14.936 -0.03,12.847 0.542,10.856C1.113,8.864 2.091,7.013 3.414,5.418C4.737,3.823 6.375,2.52 8.227,1.59C10.078,0.66 12.102,0.123 14.171,0.014C16.24,-0.095 18.309,0.226 20.248,0.957C18.281,2.729 16.709,4.896 15.633,7.315C14.556,9.734 14,12.353 14,15.001C14,17.648 14.556,20.267 15.633,22.686C16.709,25.105 18.281,27.272 20.248,29.044C18.884,29.552 17.453,29.858 16,29.954L16,38ZM48,15.001C48.003,12.076 47.152,9.214 45.549,6.767C43.947,4.32 41.664,2.395 38.982,1.228C36.3,0.062 33.335,-0.295 30.453,0.202C27.571,0.698 24.896,2.027 22.759,4.024C20.622,6.021 19.116,8.599 18.425,11.441C17.734,14.283 17.889,17.265 18.871,20.02C19.853,22.775 21.619,25.183 23.952,26.947C26.284,28.712 29.082,29.755 32,29.95L32,38L26,38L26,42L32,42L32,48L36,48L36,42L42,42L42,38L36,38L36,29.698C39.386,29.002 42.428,27.16 44.614,24.483C46.8,21.806 47.996,18.457 48,15.001L48,15.001Z" fill="#374957"/>
</svg>
