<svg width="48" height="24" viewBox="0 0 48 24" fill="none" xmlns="http://www.w3.org/2000/svg" xmlns:xlink="http://www.w3.org/1999/xlink">
<path d="M36,0C30.056,0 26.114,4.454 24,7.764C21.886,4.454 17.944,0 12,0C8.817,0 5.765,1.264 3.515,3.515C1.264,5.765 0,8.817 0,12C0,15.183 1.264,18.235 3.515,20.485C5.765,22.736 8.817,24 12,24C17.944,24 21.886,19.546 24,16.236C26.114,19.546 30.056,24 36,24C39.183,24 42.235,22.736 44.485,20.485C46.736,18.235 48,15.183 48,12C48,8.817 46.736,5.765 44.485,3.515C42.235,1.264 39.183,0 36,0ZM12,20C9.878,20 7.843,19.157 6.343,17.657C4.843,16.157 4,14.122 4,12C4,9.878 4.843,7.843 6.343,6.343C7.843,4.843 9.878,4 12,4C17.386,4 20.764,9.89 21.8,12C20.772,14.12 17.416,20 12,20ZM36,20C30.614,20 27.236,14.11 26.2,12C27.23,9.884 30.586,4 36,4C38.122,4 40.157,4.843 41.657,6.343C43.157,7.843 44,9.878 44,12C44,14.122 43.157,16.157 41.657,17.657C40.157,19.157 38.122,20 36,20Z" fill="#374957"/>
</svg>
