<svg width="48" height="48" viewBox="0 0 48 48" fill="none" xmlns="http://www.w3.org/2000/svg" xmlns:xlink="http://www.w3.org/1999/xlink">
<path d="M38,14L37.752,14C36.706,12.56 35.44,11.294 34,10.248C34,10.166 34,10.084 34,10C34,7.348 32.946,4.804 31.071,2.929C29.196,1.054 26.652,0 24,0C21.348,0 18.804,1.054 16.929,2.929C15.054,4.804 14,7.348 14,10C14,10.084 14,10.166 14,10.248C12.56,11.294 11.294,12.56 10.248,14L10,14C7.348,14 4.804,15.054 2.929,16.929C1.054,18.804 0,21.348 0,24C0,26.652 1.054,29.196 2.929,31.071C4.804,32.946 7.348,34 10,34L10.254,34C11.302,35.434 12.566,36.697 14,37.744C14,37.83 14,37.914 14,38C14,40.652 15.054,43.196 16.929,45.071C18.804,46.946 21.348,48 24,48C26.652,48 29.196,46.946 31.071,45.071C32.946,43.196 34,40.652 34,38C34,37.918 34,37.838 34,37.758C35.443,36.712 36.712,35.443 37.758,34L38,34C40.652,34 43.196,32.946 45.071,31.071C46.946,29.196 48,26.652 48,24C48,21.348 46.946,18.804 45.071,16.929C43.196,15.054 40.652,14 38,14L38,14ZM17.978,17.978C19.711,19.29 21.826,20 24,20C26.174,20 28.289,19.29 30.022,17.978C28.71,19.711 28,21.826 28,24C28,26.174 28.71,28.289 30.022,30.022C28.289,28.71 26.174,28 24,28C21.826,28 19.711,28.71 17.978,30.022C19.29,28.289 20,26.174 20,24C20,21.826 19.29,19.711 17.978,17.978L17.978,17.978ZM24,6C24.791,6 25.564,6.235 26.222,6.674C26.88,7.114 27.393,7.738 27.696,8.469C27.998,9.2 28.077,10.004 27.923,10.78C27.769,11.556 27.388,12.269 26.828,12.828C26.269,13.388 25.556,13.769 24.78,13.923C24.004,14.077 23.2,13.998 22.469,13.696C21.738,13.393 21.114,12.88 20.674,12.222C20.235,11.564 20,10.791 20,10C20,8.939 20.421,7.922 21.172,7.172C21.922,6.421 22.939,6 24,6ZM6,24C6,23.209 6.235,22.436 6.674,21.778C7.114,21.12 7.738,20.607 8.469,20.304C9.2,20.002 10.004,19.923 10.78,20.077C11.556,20.231 12.269,20.612 12.828,21.172C13.388,21.731 13.769,22.444 13.923,23.22C14.077,23.996 13.998,24.8 13.696,25.531C13.393,26.262 12.88,26.886 12.222,27.326C11.564,27.765 10.791,28 10,28C8.939,28 7.922,27.579 7.172,26.828C6.421,26.078 6,25.061 6,24ZM24,42C23.209,42 22.436,41.765 21.778,41.326C21.12,40.886 20.607,40.262 20.304,39.531C20.002,38.8 19.923,37.996 20.077,37.22C20.231,36.444 20.612,35.731 21.172,35.172C21.731,34.612 22.444,34.231 23.22,34.077C23.996,33.923 24.8,34.002 25.531,34.304C26.262,34.607 26.886,35.12 27.326,35.778C27.765,36.436 28,37.209 28,38C28,39.061 27.579,40.078 26.828,40.828C26.078,41.579 25.061,42 24,42ZM38,28C37.209,28 36.436,27.765 35.778,27.326C35.12,26.886 34.607,26.262 34.304,25.531C34.002,24.8 33.923,23.996 34.077,23.22C34.231,22.444 34.612,21.731 35.172,21.172C35.731,20.612 36.444,20.231 37.22,20.077C37.996,19.923 38.8,20.002 39.531,20.304C40.262,20.607 40.886,21.12 41.326,21.778C41.765,22.436 42,23.209 42,24C42,25.061 41.579,26.078 40.828,26.828C40.078,27.579 39.061,28 38,28Z" fill="#374957"/>
</svg>
