<svg width="18" height="32" viewBox="0 0 18 32" fill="none" xmlns="http://www.w3.org/2000/svg" xmlns:xlink="http://www.w3.org/1999/xlink">
<path d="M4.519,0.698C3.8,-0.14 2.537,-0.237 1.698,0.481C0.86,1.2 0.763,2.463 1.481,3.302L4.519,0.698ZM15,16L16.519,17.302C17.161,16.553 17.161,15.447 16.519,14.698L15,16ZM1.481,28.698C0.763,29.537 0.86,30.8 1.698,31.519C2.537,32.237 3.8,32.14 4.519,31.302L1.481,28.698ZM1.481,3.302L13.481,17.302L16.519,14.698L4.519,0.698L1.481,3.302ZM13.481,14.698L1.481,28.698L4.519,31.302L16.519,17.302L13.481,14.698Z" transform="rotate(360 9 16)" fill="#FFFFFF"/>
</svg>
