<svg width="48" height="50" viewBox="0 0 48 50" fill="none" xmlns="http://www.w3.org/2000/svg" xmlns:xlink="http://www.w3.org/1999/xlink">
<path d="M13.966,48.014C11.193,48.02 8.481,47.204 6.173,45.667C3.866,44.13 2.066,41.943 1.003,39.382C-0.06,36.822 -0.339,34.003 0.201,31.284C0.742,28.565 2.078,26.067 4.04,24.108L25.24,2.938C27.116,1.057 29.663,-0.001 32.319,-0.004C34.976,-0.007 37.525,1.046 39.406,2.922C41.286,4.798 42.345,7.345 42.348,10.002C42.351,12.658 41.298,15.207 39.422,17.088L18.22,38.256C17.073,39.349 15.55,39.958 13.966,39.958C12.382,39.958 10.858,39.349 9.712,38.256C9.154,37.699 8.711,37.037 8.409,36.309C8.107,35.58 7.952,34.799 7.952,34.011C7.952,33.222 8.107,32.442 8.409,31.713C8.711,30.985 9.154,30.323 9.712,29.766L29.5,10.014L32.336,12.844L12.548,32.6C12.173,32.975 11.962,33.484 11.962,34.014C11.962,34.544 12.173,35.053 12.548,35.428C12.93,35.792 13.438,35.996 13.966,35.996C14.494,35.996 15.002,35.792 15.384,35.428L36.6,14.258C37.726,13.129 38.357,11.6 38.355,10.006C38.353,8.412 37.718,6.884 36.59,5.758C35.461,4.632 33.932,4.001 32.338,4.003C30.744,4.004 29.216,4.639 28.09,5.768L6.876,26.936C4.999,28.816 3.946,31.365 3.949,34.022C3.951,36.678 5.009,39.225 6.89,41.102C8.77,42.979 11.319,44.031 13.976,44.029C16.632,44.026 19.179,42.968 21.056,41.088L45.098,17.088L47.934,19.918L23.892,43.918C22.588,45.22 21.04,46.252 19.337,46.955C17.634,47.658 15.808,48.018 13.966,48.014L13.966,48.014Z" fill="#374957"/>
</svg>
