<svg width="48" height="48" viewBox="0 0 48 48" fill="none" xmlns="http://www.w3.org/2000/svg" xmlns:xlink="http://www.w3.org/1999/xlink">
<path d="M38,38L46.828,38L38,46.828L38,38ZM21.934,12.5L20.504,12.5L20.504,15.446L21.924,15.446C22.314,15.446 22.688,15.291 22.963,15.015C23.239,14.74 23.394,14.366 23.394,13.976C23.394,13.586 23.239,13.212 22.963,12.937C22.688,12.661 22.314,12.506 21.924,12.506L21.934,12.5ZM48,6L48,34L34,34L34,48L0,48L0,6C0,4.409 0.632,2.883 1.757,1.757C2.883,0.632 4.409,0 6,0L42,0C43.591,0 45.117,0.632 46.243,1.757C47.368,2.883 48,4.409 48,6ZM16,10L13.5,10L13.5,18.136C13.502,18.334 13.465,18.53 13.391,18.713C13.316,18.896 13.206,19.063 13.066,19.203C12.926,19.343 12.76,19.453 12.577,19.528C12.394,19.603 12.198,19.64 12,19.638C11.609,19.634 11.234,19.478 10.955,19.204C10.675,18.93 10.512,18.559 10.5,18.168C10.5,18.108 10.5,18 10.5,18L8,18L8,18.168C8.008,19.223 8.434,20.233 9.183,20.976C9.932,21.719 10.945,22.136 12,22.136C12.523,22.138 13.042,22.038 13.526,21.839C14.01,21.641 14.451,21.35 14.822,20.981C15.194,20.613 15.489,20.174 15.691,19.692C15.893,19.209 15.998,18.691 16,18.168L16,10ZM25.958,13.97C25.95,12.91 25.522,11.897 24.767,11.152C24.013,10.408 22.994,9.994 21.934,10L18,10L18,22.138L20.5,22.138L20.5,17.938L21.934,17.938C22.993,17.944 24.012,17.53 24.767,16.786C25.521,16.042 25.95,15.029 25.958,13.97L25.958,13.97ZM30.502,18.136L30.502,14C30.5,13.803 30.537,13.607 30.612,13.424C30.686,13.241 30.796,13.075 30.936,12.935C31.075,12.796 31.241,12.685 31.424,12.61C31.607,12.536 31.803,12.498 32,12.5C32.394,12.511 32.769,12.673 33.048,12.952C33.327,13.231 33.489,13.606 33.5,14L36,14C35.993,12.941 35.57,11.928 34.821,11.179C34.072,10.43 33.059,10.007 32,10C31.477,9.998 30.958,10.098 30.473,10.297C29.989,10.495 29.548,10.787 29.177,11.156C28.805,11.524 28.51,11.963 28.308,12.446C28.106,12.929 28.002,13.447 28,13.97L28,18.17C28.002,18.693 28.106,19.211 28.308,19.694C28.51,20.177 28.805,20.616 29.177,20.984C29.548,21.353 29.989,21.645 30.473,21.843C30.958,22.042 31.477,22.142 32,22.14C33.055,22.14 34.068,21.723 34.817,20.98C35.566,20.237 35.992,19.227 36,18.172L36,16L32,16L32,18L33.498,18L33.498,18.168C33.486,18.559 33.323,18.93 33.043,19.204C32.764,19.478 32.389,19.634 31.998,19.638C31.801,19.64 31.605,19.602 31.422,19.527C31.24,19.452 31.074,19.341 30.934,19.201C30.795,19.061 30.685,18.895 30.611,18.712C30.537,18.529 30.5,18.333 30.502,18.136L30.502,18.136Z" fill="#374957"/>
</svg>
