<svg width="48" height="48" viewBox="0 0 48 48" fill="none" xmlns="http://www.w3.org/2000/svg" xmlns:xlink="http://www.w3.org/1999/xlink">
<path d="M33,48C18.504,48 0,29.496 0,15C-0.013,13.439 0.283,11.892 0.873,10.447C1.462,9.002 2.333,7.689 3.434,6.584L9.774,0.244L22.302,12.774L15.49,19.586C17.945,25.415 22.577,30.056 28.4,32.524L35.228,25.696L47.76,38.226L41.416,44.57C40.311,45.67 38.997,46.54 37.553,47.129C36.108,47.718 34.561,48.014 33,48L33,48ZM9.774,5.902L6.26,9.416C5.532,10.15 4.958,11.022 4.57,11.981C4.182,12.939 3.988,13.966 4,15C4,27.468 20.532,44 33,44C34.034,44.012 35.06,43.818 36.018,43.431C36.977,43.044 37.849,42.47 38.584,41.744L42.102,38.226L35.226,31.352L29.372,37.2L28.16,36.736C24.301,35.299 20.795,33.05 17.881,30.14C14.966,27.231 12.711,23.729 11.268,19.872L10.776,18.646L16.646,12.774L9.774,5.902ZM34.374,21.378L37.12,18.636L34,15.516L34,10L30,10L30,17L34.374,21.378ZM23.13,7.946C24.22,6.742 25.543,5.771 27.018,5.094C28.494,4.417 30.092,4.046 31.716,4.006C33.339,3.965 34.954,4.255 36.462,4.857C37.97,5.46 39.339,6.362 40.488,7.51C41.636,8.658 42.539,10.028 43.142,11.536C43.745,13.044 44.035,14.658 43.994,16.282C43.954,17.905 43.584,19.503 42.907,20.979C42.23,22.455 41.26,23.778 40.056,24.868L42.882,27.696C44.456,26.234 45.719,24.47 46.596,22.51C47.473,20.549 47.945,18.432 47.985,16.284C48.025,14.137 47.631,12.004 46.827,10.012C46.024,8.02 44.827,6.211 43.308,4.692C41.79,3.173 39.98,1.976 37.988,1.173C35.997,0.369 33.863,-0.024 31.716,0.015C29.568,0.055 27.451,0.528 25.49,1.404C23.53,2.281 21.766,3.544 20.304,5.118L23.13,7.946Z" fill="#374957"/>
</svg>
