<svg width="48" height="48" viewBox="0 0 48 48" fill="none" xmlns="http://www.w3.org/2000/svg" xmlns:xlink="http://www.w3.org/1999/xlink">
<path d="M48,18L48,22L36,22L26,12L42,12C43.591,12 45.117,12.632 46.243,13.757C47.368,14.883 48,16.409 48,18ZM0,18L0,22L12,22L22,12L6,12C4.409,12 2.883,12.632 1.757,13.757C0.632,14.883 0,16.409 0,18L0,18ZM34,5L26,0L22,0L22,12L26,12L26,10L34,5ZM34.344,26L48,26L48,48L30,48L30,40C30,38.409 29.368,36.883 28.243,35.757C27.117,34.632 25.591,34 24,34C22.409,34 20.883,34.632 19.757,35.757C18.632,36.883 18,38.409 18,40L18,48L0,48L0,26L13.656,26L24,16L34.344,26ZM12,40L6,40L6,44L12,44L12,40ZM12,32L6,32L6,36L12,36L12,32ZM28,26C28,25.209 27.765,24.436 27.326,23.778C26.886,23.12 26.262,22.607 25.531,22.304C24.8,22.002 23.996,21.923 23.22,22.077C22.444,22.231 21.731,22.612 21.172,23.172C20.612,23.731 20.231,24.444 20.077,25.22C19.923,25.996 20.002,26.8 20.304,27.531C20.607,28.262 21.12,28.886 21.778,29.326C22.436,29.765 23.209,30 24,30C25.061,30 26.078,29.579 26.828,28.828C27.579,28.078 28,27.061 28,26ZM36,36L42,36L42,32L36,32L36,36ZM36,44L42,44L42,40L36,40L36,44ZM24,38C23.47,38 22.961,38.211 22.586,38.586C22.211,38.961 22,39.47 22,40L22,48L26,48L26,40C26,39.47 25.789,38.961 25.414,38.586C25.039,38.211 24.53,38 24,38Z" fill="#374957"/>
</svg>
