<svg width="48" height="44" viewBox="0 0 48 44" fill="none" xmlns="http://www.w3.org/2000/svg" xmlns:xlink="http://www.w3.org/1999/xlink">
<path d="M42,8L32,8L32,0L16,0L16,8L6,8C4.409,8 2.883,8.632 1.757,9.757C0.632,10.882 0,12.408 0,14L0,44L48,44L48,14C48,12.408 47.368,10.882 46.243,9.757C45.117,8.632 43.591,8 42,8ZM20,4L28,4L28,8L20,8L20,4ZM44,40L4,40L4,14C4,13.469 4.211,12.96 4.586,12.585C4.961,12.21 5.47,12 6,12L42,12C42.53,12 43.039,12.21 43.414,12.585C43.789,12.96 44,13.469 44,14L44,40ZM26,24L32,24L32,28L26,28L26,34L22,34L22,28L16,28L16,24L22,24L22,18L26,18L26,24Z" fill="#374957"/>
</svg>
