<svg width="48" height="44" viewBox="0 0 48 44" fill="none" xmlns="http://www.w3.org/2000/svg" xmlns:xlink="http://www.w3.org/1999/xlink">
<path d="M37,0L11,0C8.084,0.003 5.288,1.163 3.225,3.225C1.163,5.287 0.003,8.083 0,11L0,33C0.003,35.916 1.163,38.712 3.225,40.774C5.288,42.836 8.084,43.996 11,44L37,44C39.916,43.996 42.712,42.836 44.775,40.774C46.837,38.712 47.997,35.916 48,33L48,11C47.997,8.083 46.837,5.287 44.775,3.225C42.712,1.163 39.916,0.003 37,0L37,0ZM37,6C38.213,6.004 39.382,6.453 40.286,7.262L27.286,20.262C26.403,21.105 25.229,21.576 24.008,21.576C22.787,21.576 21.613,21.105 20.73,20.262L7.73,7.262C8.63,6.456 9.793,6.007 11,6L37,6ZM37,38L11,38C9.674,38 8.402,37.473 7.464,36.535C6.527,35.597 6,34.326 6,33L6,14.034L16.478,24.512C17.466,25.5 18.638,26.283 19.928,26.818C21.219,27.353 22.602,27.628 23.999,27.628C25.396,27.628 26.779,27.353 28.07,26.818C29.36,26.283 30.532,25.5 31.52,24.512L42,14.034L42,33C42,34.326 41.473,35.597 40.536,36.535C39.598,37.473 38.326,38 37,38Z" fill="#374957"/>
</svg>
