<svg width="48" height="48" viewBox="0 0 48 48" fill="none" xmlns="http://www.w3.org/2000/svg" xmlns:xlink="http://www.w3.org/1999/xlink">
<path d="M24,15.676L8,21.01L8,16C8,14.409 8.632,12.883 9.757,11.757C10.883,10.632 12.409,10 14,10L34,10C35.591,10 37.117,10.632 38.243,11.757C39.368,12.883 40,14.409 40,16L40,21.01L24,15.676ZM44,42C44,42.688 42.636,44 40.5,44C39.89,44.023 39.283,43.91 38.722,43.667C38.162,43.425 37.663,43.06 37.262,42.6C39.392,40.528 41.085,38.051 42.242,35.314C43.399,32.578 43.997,29.637 44,26.666L44,26.558L26,20.558L26,42L22,42L22,20.56L4,26.56L4,26.668C4.005,29.64 4.605,32.58 5.764,35.317C6.923,38.053 8.618,40.529 10.75,42.6C10.348,43.062 9.847,43.427 9.284,43.669C8.722,43.912 8.112,44.025 7.5,44C5.322,44 4,42.612 4,42L0,42C0,45.252 3.436,48 7.5,48C9.514,48.015 11.466,47.305 13,46C14.544,47.284 16.487,47.99 18.495,47.995C20.503,48 22.45,47.304 24,46.028C25.55,47.304 27.497,48 29.505,47.995C31.513,47.99 33.456,47.284 35,46C36.533,47.305 38.485,48.015 40.498,48C44.564,48 48,45.252 48,42L44,42ZM32,4C32,2.939 31.579,1.922 30.828,1.172C30.078,0.421 29.061,0 28,0L20,0C18.939,0 17.922,0.421 17.172,1.172C16.421,1.922 16,2.939 16,4L16,6L32,6L32,4Z" fill="#374957"/>
</svg>
