<svg width="48" height="48" viewBox="0 0 48 48" fill="none" xmlns="http://www.w3.org/2000/svg" xmlns:xlink="http://www.w3.org/1999/xlink">
<path d="M33.585,30C33.649,30 33.523,30 33.585,30L33.585,30ZM42.385,27.13C48.943,33.6 44.985,43.77 41.871,47.028L41.071,47.948L39.887,47.65C34.599,46.174 29.804,43.309 25.999,39.352L25.999,44.038L21.999,44.038L21.999,39.352C18.197,43.311 13.405,46.179 8.119,47.658L6.935,47.956L6.135,47.036C2.965,43.57 -0.917,34.036 5.735,27.226C4.048,26.001 2.659,24.412 1.671,22.577C0.682,20.742 0.12,18.708 0.025,16.626C-0.032,12.576 0.911,8.576 2.769,4.978C3.505,3.711 4.679,2.757 6.07,2.297C7.461,1.836 8.972,1.901 10.319,2.478C15.564,5.051 20.221,8.679 23.999,13.136C27.777,8.679 32.434,5.051 37.679,2.478C39.025,1.901 40.536,1.837 41.926,2.297C43.316,2.757 44.49,3.71 45.227,4.976C47.092,8.574 48.04,12.577 47.987,16.63C47.896,18.689 47.346,20.701 46.376,22.519C45.406,24.338 44.041,25.916 42.381,27.138L42.385,27.13ZM21.999,28.6C19.587,29.563 17.008,30.039 14.411,30C12.705,30.04 11.007,29.769 9.399,29.2C4.599,33.28 5.653,39.57 8.399,43.412C15.015,41.238 21.999,35.134 21.999,31.286L21.999,28.6ZM21.999,16.954C18.419,12.449 13.908,8.772 8.775,6.174C8.331,5.974 7.829,5.943 7.363,6.087C6.898,6.231 6.501,6.54 6.247,6.956C4.754,9.907 3.983,13.17 3.999,16.478C4.187,19.086 5.364,21.524 7.289,23.294C9.214,25.063 11.742,26.031 14.357,26C17.055,26.163 19.734,25.454 21.999,23.978L21.999,16.954ZM41.999,36.018C41.973,34.699 41.662,33.401 41.086,32.214C40.51,31.028 39.683,29.98 38.663,29.144C37.03,29.714 35.312,30.004 33.583,30.004C30.987,30.041 28.409,29.564 25.999,28.6L25.999,31.282C25.999,35.13 32.983,41.234 39.583,43.4C41.074,41.221 41.913,38.661 41.999,36.022L41.999,36.018ZM43.999,16.478C44.018,13.171 43.249,9.907 41.757,6.956C41.503,6.54 41.107,6.232 40.641,6.088C40.176,5.944 39.675,5.974 39.231,6.174C34.094,8.772 29.58,12.451 25.999,16.958L25.999,23.978C28.263,25.453 30.941,26.162 33.639,26C36.263,26.063 38.809,25.106 40.741,23.33C42.674,21.554 43.842,19.098 43.999,16.478L43.999,16.478ZM23.999,7.97C25.062,7.97 26.081,7.547 26.832,6.796C27.584,6.044 28.006,5.025 28.006,3.963C28.006,2.9 27.584,1.881 26.832,1.129C26.081,0.378 25.062,-0.044 23.999,-0.044C22.936,-0.044 21.917,0.378 21.165,1.129C20.414,1.881 19.992,2.9 19.992,3.963C19.992,5.025 20.414,6.044 21.165,6.796C21.917,7.547 22.936,7.97 23.999,7.97L23.999,7.97Z" fill="#374957"/>
</svg>
