<svg width="48" height="50" viewBox="0 0 48 50" fill="none" xmlns="http://www.w3.org/2000/svg" xmlns:xlink="http://www.w3.org/1999/xlink">
<path d="M46.518,32.4L41.318,13.658C40.208,9.649 37.788,6.126 34.444,3.651C31.101,1.176 27.026,-0.11 22.867,-0.002C18.708,0.106 14.705,1.603 11.495,4.249C8.285,6.895 6.052,10.538 5.152,14.6L1.13,32.7C0.935,33.577 0.94,34.486 1.144,35.361C1.347,36.236 1.745,37.054 2.307,37.754C2.869,38.455 3.581,39.02 4.391,39.409C5.201,39.798 6.088,40 6.986,40L14.2,40C14.659,42.26 15.885,44.293 17.671,45.753C19.457,47.212 21.693,48.01 24,48.01C26.307,48.01 28.542,47.212 30.328,45.753C32.114,44.293 33.341,42.26 33.8,40L40.74,40C41.664,39.999 42.576,39.785 43.404,39.375C44.232,38.964 44.953,38.367 45.513,37.632C46.072,36.896 46.454,36.041 46.629,35.134C46.804,34.226 46.766,33.291 46.52,32.4L46.518,32.4ZM24,44C22.763,43.995 21.559,43.608 20.55,42.892C19.542,42.176 18.78,41.166 18.368,40L29.632,40C29.22,41.166 28.457,42.176 27.449,42.892C26.441,43.608 25.236,43.995 24,44L24,44ZM42.33,35.21C42.143,35.457 41.901,35.657 41.624,35.795C41.346,35.932 41.04,36.002 40.73,36L6.986,36C6.686,36 6.391,35.932 6.121,35.803C5.851,35.673 5.613,35.485 5.426,35.251C5.239,35.017 5.106,34.745 5.038,34.453C4.97,34.161 4.969,33.858 5.034,33.566L9.056,15.466C9.765,12.278 11.518,9.419 14.039,7.343C16.559,5.266 19.701,4.092 22.965,4.007C26.23,3.921 29.429,4.929 32.055,6.871C34.68,8.812 36.581,11.576 37.456,14.722L42.656,33.464C42.741,33.76 42.756,34.072 42.699,34.375C42.642,34.678 42.516,34.964 42.33,35.21L42.33,35.21Z" fill="#374957"/>
</svg>
