<svg width="48" height="50" viewBox="0 0 48 50" fill="none" xmlns="http://www.w3.org/2000/svg" xmlns:xlink="http://www.w3.org/1999/xlink">
<path d="M42,10L6,10L6,6C6,4.409 6.632,2.883 7.757,1.757C8.883,0.632 10.409,0 12,0L18.8,0L24.62,4L36,4C37.591,4 39.117,4.632 40.243,5.757C41.368,6.883 42,8.409 42,10ZM48,40L29.632,40C29.333,39.164 28.852,38.404 28.224,37.776C27.596,37.148 26.836,36.667 26,36.368L26,30L42,30L42,14L6,14L6,30L22,30L22,36.368C21.164,36.667 20.404,37.148 19.776,37.776C19.148,38.404 18.667,39.164 18.368,40L0,40L0,44L18.368,44C18.775,45.169 19.536,46.182 20.545,46.9C21.555,47.617 22.762,48.002 24,48.002C25.238,48.002 26.445,47.617 27.455,46.9C28.464,46.182 29.225,45.169 29.632,44L48,44L48,40Z" fill="#374957"/>
</svg>
