<svg width="48" height="48" viewBox="0 0 48 48" fill="none" xmlns="http://www.w3.org/2000/svg" xmlns:xlink="http://www.w3.org/1999/xlink">
<path d="M46.08,17.739C44.524,15.474 42.672,13.428 40.573,11.655L46.236,5.993C47.38,4.782 47.326,2.874 46.115,1.73C44.951,0.631 43.132,0.632 41.97,1.733L35.444,8.261C31.891,6.486 27.969,5.575 23.998,5.603C15.068,5.689 6.775,10.246 1.916,17.739C-0.639,21.497 -0.639,26.434 1.916,30.192C3.472,32.457 5.324,34.503 7.423,36.276L1.76,41.944C0.581,43.122 0.581,45.032 1.76,46.21C2.938,47.388 4.848,47.388 6.026,46.21L12.552,39.682C16.105,41.457 20.027,42.368 23.998,42.34C32.928,42.254 41.22,37.697 46.08,30.204C48.64,26.444 48.64,21.5 46.08,17.739ZM6.89,26.786C5.733,25.088 5.733,22.855 6.89,21.157C10.598,15.275 17.045,11.686 23.998,11.635C26.341,11.623 28.667,12.032 30.866,12.841L27.138,16.567C23.05,14.831 18.329,16.739 16.593,20.827C15.741,22.835 15.741,25.104 16.593,27.112L11.694,32.014C9.845,30.516 8.227,28.754 6.89,26.786ZM41.106,26.786C37.398,32.668 30.95,36.257 23.998,36.308C21.655,36.32 19.329,35.911 17.13,35.102L20.857,31.374C24.946,33.11 29.667,31.203 31.403,27.114C32.255,25.106 32.255,22.837 31.403,20.829L36.302,15.929C38.151,17.427 39.769,19.189 41.105,21.157C42.263,22.855 42.263,25.088 41.106,26.786Z" fill="#374957"/>
</svg>
