<svg width="48" height="44" viewBox="0 0 48 44" fill="none" xmlns="http://www.w3.org/2000/svg" xmlns:xlink="http://www.w3.org/1999/xlink">
<path d="M44,44L4,44L4,17.958C2.338,16.694 1.114,14.941 0.499,12.945C-0.116,10.949 -0.091,8.811 0.571,6.831C1.233,4.85 2.498,3.127 4.189,1.902C5.88,0.677 7.912,0.012 10,0L38,0C40.088,0.012 42.12,0.677 43.812,1.902C45.503,3.127 46.768,4.85 47.429,6.831C48.091,8.811 48.116,10.949 47.501,12.945C46.886,14.941 45.662,16.694 44,17.958L44,44ZM8,40L40,40L40,15.74L41,15.162C42.127,14.494 43.005,13.476 43.499,12.263C43.993,11.049 44.077,9.708 43.737,8.442C43.397,7.177 42.652,6.058 41.616,5.256C40.58,4.454 39.31,4.013 38,4L10,4C8.69,4.013 7.42,4.454 6.385,5.256C5.349,6.058 4.604,7.177 4.264,8.442C3.924,9.708 4.007,11.049 4.501,12.263C4.995,13.476 5.873,14.494 7,15.162L8,15.74L8,40ZM16,22C15.47,22 14.961,22.211 14.586,22.586C14.211,22.961 14,23.47 14,24C14,24.53 14.211,25.039 14.586,25.414C14.961,25.789 15.47,26 16,26C16.531,26 17.039,25.789 17.414,25.414C17.79,25.039 18,24.53 18,24C18,23.47 17.79,22.961 17.414,22.586C17.039,22.211 16.531,22 16,22L16,22ZM24,30C23.47,30 22.961,30.211 22.586,30.586C22.211,30.961 22,31.47 22,32C22,32.53 22.211,33.039 22.586,33.414C22.961,33.789 23.47,34 24,34C24.531,34 25.039,33.789 25.414,33.414C25.789,33.039 26,32.53 26,32C26,31.47 25.789,30.961 25.414,30.586C25.039,30.211 24.531,30 24,30ZM16,30C15.47,30 14.961,30.211 14.586,30.586C14.211,30.961 14,31.47 14,32C14,32.53 14.211,33.039 14.586,33.414C14.961,33.789 15.47,34 16,34C16.531,34 17.039,33.789 17.414,33.414C17.79,33.039 18,32.53 18,32C18,31.47 17.79,30.961 17.414,30.586C17.039,30.211 16.531,30 16,30L16,30Z" fill="#374957"/>
</svg>
