<svg width="48" height="48" viewBox="0 0 48 48" fill="none" xmlns="http://www.w3.org/2000/svg" xmlns:xlink="http://www.w3.org/1999/xlink">
<path d="M48,24C48,10.745 37.255,0 24,0C10.745,0 0,10.745 0,24C0,35.979 8.776,45.908 20.25,47.708L20.25,30.938L14.156,30.938L14.156,24L20.25,24L20.25,18.712C20.25,12.698 23.833,9.375 29.315,9.375C31.94,9.375 34.688,9.844 34.688,9.844L34.688,15.75L31.661,15.75C28.68,15.75 27.75,17.6 27.75,19.5L27.75,24L34.406,24L33.342,30.938L27.75,30.938L27.75,47.708C39.224,45.908 48,35.979 48,24Z" fill="#0059B1"/>
</svg>
