<svg width="48" height="46" viewBox="0 0 48 46" fill="none" xmlns="http://www.w3.org/2000/svg" xmlns:xlink="http://www.w3.org/1999/xlink">
<path d="M39.172,44.092L8.828,44.092C7.323,44.1 5.841,43.721 4.525,42.991C3.208,42.262 2.101,41.206 1.31,39.926C0.526,38.672 0.078,37.239 0.008,35.762C-0.062,34.285 0.248,32.816 0.91,31.494L16.128,4.708C16.877,3.255 18.013,2.038 19.41,1.191C20.808,0.344 22.412,-0.1 24.046,-0.091C25.68,-0.083 27.28,0.378 28.669,1.239C30.058,2.101 31.181,3.33 31.914,4.79L47,31.348C47.695,32.682 48.031,34.175 47.975,35.679C47.92,37.183 47.474,38.646 46.682,39.926C45.892,41.205 44.786,42.26 43.471,42.989C42.156,43.719 40.676,44.098 39.172,44.092L39.172,44.092ZM24,5.91C23.474,5.903 22.957,6.045 22.508,6.319C22.058,6.592 21.695,6.987 21.46,7.458L21.382,7.606L6.2,34.312C6.026,34.705 5.954,35.135 5.989,35.563C6.024,35.991 6.165,36.404 6.4,36.764C6.653,37.176 7.01,37.515 7.433,37.748C7.857,37.981 8.335,38.099 8.818,38.092L39.172,38.092C39.656,38.099 40.133,37.981 40.557,37.748C40.981,37.515 41.337,37.176 41.59,36.764C41.834,36.378 41.973,35.936 41.994,35.48C42.016,35.024 41.919,34.571 41.712,34.164L26.618,7.6C26.388,7.098 26.019,6.672 25.556,6.373C25.092,6.074 24.552,5.913 24,5.91L24,5.91Z" fill="#374957"/>
</svg>
