<svg width="48" height="48" viewBox="0 0 48 48" fill="none" xmlns="http://www.w3.org/2000/svg" xmlns:xlink="http://www.w3.org/1999/xlink">
<path d="M46.018,23.902L42.38,15.72C41.357,13.423 39.691,11.472 37.583,10.102C35.474,8.732 33.014,8.002 30.5,8L29.584,8L28.486,2.716C28.292,1.94 27.844,1.251 27.214,0.759C26.584,0.267 25.807,0 25.007,0C24.207,0 23.43,0.267 22.8,0.759C22.17,1.251 21.722,1.94 21.528,2.716L20.42,8L11,8C8.084,8.003 5.288,9.163 3.225,11.225C1.163,13.288 0.003,16.084 0,19L0,35C0.007,36.679 0.616,38.299 1.718,39.565C2.819,40.832 4.339,41.66 6,41.9L6,42C6,43.591 6.632,45.118 7.757,46.243C8.883,47.368 10.409,48 12,48C13.591,48 15.117,47.368 16.243,46.243C17.368,45.118 18,43.591 18,42L28,42C28,43.591 28.632,45.118 29.757,46.243C30.883,47.368 32.409,48 34,48C35.591,48 37.117,47.368 38.243,46.243C39.368,45.118 40,43.591 40,42L41,42C42.857,42 44.637,41.263 45.95,39.95C47.263,38.637 48,36.857 48,35L48,33.244C48.005,30.025 47.329,26.842 46.018,23.902ZM42,35C42,35.265 41.895,35.52 41.707,35.707C41.52,35.895 41.265,36 41,36L7,36C6.735,36 6.48,35.895 6.293,35.707C6.105,35.52 6,35.265 6,35L6,19C6,17.674 6.527,16.402 7.464,15.465C8.402,14.527 9.674,14 11,14L30.5,14C31.005,14.006 31.508,14.067 32,14.182L32,24C32,25.061 32.421,26.078 33.172,26.829C33.922,27.579 34.939,28 36,28L41.172,28C41.723,29.694 42.002,31.463 42,33.244L42,35ZM26,25C26,25.796 25.684,26.559 25.121,27.121C24.559,27.684 23.796,28 23,28L22,28L22,29C22,29.796 21.684,30.559 21.121,31.121C20.559,31.684 19.796,32 19,32C18.204,32 17.441,31.684 16.879,31.121C16.316,30.559 16,29.796 16,29L16,28L15,28C14.204,28 13.441,27.684 12.879,27.121C12.316,26.559 12,25.796 12,25C12,24.204 12.316,23.441 12.879,22.879C13.441,22.316 14.204,22 15,22L16,22L16,21C16,20.204 16.316,19.441 16.879,18.879C17.441,18.316 18.204,18 19,18C19.796,18 20.559,18.316 21.121,18.879C21.684,19.441 22,20.204 22,21L22,22L23,22C23.796,22 24.559,22.316 25.121,22.879C25.684,23.441 26,24.204 26,25L26,25Z" fill="#374957"/>
</svg>
