<svg width="48" height="50" viewBox="0 0 48 50" fill="none" xmlns="http://www.w3.org/2000/svg" xmlns:xlink="http://www.w3.org/1999/xlink">
<path d="M45.125,2.875C40.377,-1.873 33.287,-0.715 23.999,6.275C14.713,-0.715 7.625,-1.875 2.873,2.875C-1.879,7.625 -0.717,14.713 6.273,24.001C-0.717,33.287 -1.877,40.377 2.873,45.127C3.764,46.05 4.834,46.782 6.018,47.276C7.202,47.77 8.474,48.017 9.757,48.001C13.699,48.001 18.459,45.897 23.999,41.729C29.537,45.897 34.297,48.001 38.241,48.001C39.524,48.017 40.797,47.77 41.981,47.276C43.165,46.782 44.235,46.05 45.125,45.127C49.875,40.377 48.725,33.289 41.725,24.001C48.715,14.713 49.875,7.625 45.125,2.875L45.125,2.875ZM38.169,4.057C38.934,4.034 39.695,4.167 40.405,4.449C41.116,4.731 41.762,5.155 42.303,5.695C45.795,9.189 43.215,15.121 39.127,20.773C37.451,18.797 35.563,16.743 33.411,14.589C31.259,12.435 29.199,10.547 27.223,8.869C31.019,6.123 34.943,4.057 38.169,4.057L38.169,4.057ZM36.621,24.001C34.599,26.441 32.457,28.723 30.589,30.601C28.721,32.479 26.439,34.601 23.999,36.623C21.559,34.601 19.277,32.459 17.409,30.601C15.541,28.743 13.399,26.441 11.377,24.001C13.399,21.561 15.541,19.277 17.409,17.411C19.277,15.545 21.559,13.401 23.999,11.377C26.439,13.397 28.721,15.543 30.599,17.411C32.477,19.279 34.599,21.561 36.621,24.001ZM5.695,5.697C6.236,5.156 6.881,4.731 7.592,4.449C8.303,4.167 9.065,4.033 9.829,4.057C13.055,4.057 16.979,6.123 20.775,8.869C18.799,10.547 16.743,12.435 14.587,14.589C12.431,16.743 10.547,18.789 8.869,20.773C4.783,15.121 2.199,9.189 5.695,5.697L5.695,5.697ZM5.695,42.297C2.203,38.805 4.783,32.871 8.869,27.221C10.547,29.197 12.435,31.251 14.587,33.405C16.739,35.559 18.787,37.451 20.765,39.127C15.115,43.219 9.183,45.801 5.695,42.305L5.695,42.297ZM42.295,42.297C38.805,45.785 32.875,43.211 27.225,39.127C29.197,37.451 31.253,35.553 33.403,33.405C35.553,31.257 37.443,29.205 39.119,27.221C43.215,32.881 45.799,38.813 42.303,42.305L42.295,42.297Z" fill="#374957"/>
</svg>
