<svg width="40" height="48" viewBox="0 0 40 48" fill="none" xmlns="http://www.w3.org/2000/svg" xmlns:xlink="http://www.w3.org/1999/xlink">
<path d="M35.888,5.268L20,0L4.112,5.268C2.915,5.665 1.873,6.429 1.135,7.451C0.397,8.474 0,9.703 0,10.964L0,23.982C0,39.03 18.4,47.34 19.188,47.686L19.896,48L20.632,47.756C21.422,47.494 40,41.136 40,23.982L40,10.964C40,9.703 39.603,8.474 38.865,7.451C38.127,6.429 37.085,5.665 35.888,5.268L35.888,5.268ZM22,38.104L18,38.104L18,34.104L22,34.104L22,38.104ZM23.856,25.114C23.309,25.527 22.86,26.055 22.539,26.66C22.218,27.265 22.034,27.934 22,28.618L22,30.104L18,30.104L18,28.618C18.037,27.22 18.414,25.853 19.098,24.633C19.781,23.414 20.751,22.379 21.924,21.618C22.665,21.212 23.258,20.583 23.619,19.819C23.98,19.056 24.091,18.198 23.934,17.368C23.78,16.576 23.394,15.849 22.824,15.278C22.253,14.708 21.526,14.322 20.734,14.168C20.156,14.06 19.562,14.081 18.993,14.229C18.424,14.377 17.895,14.649 17.443,15.024C16.991,15.4 16.627,15.871 16.378,16.403C16.128,16.935 15.999,17.516 16,18.104L12,18.104C12,16.936 12.256,15.781 12.749,14.722C13.243,13.663 13.963,12.725 14.858,11.974C15.713,11.259 16.709,10.73 17.781,10.423C18.853,10.115 19.977,10.034 21.081,10.187C22.186,10.339 23.247,10.72 24.195,11.307C25.144,11.893 25.959,12.671 26.589,13.591C27.219,14.511 27.65,15.553 27.854,16.649C28.058,17.745 28.031,18.872 27.773,19.957C27.516,21.042 27.035,22.061 26.361,22.949C25.686,23.837 24.834,24.575 23.858,25.114L23.856,25.114Z" fill="#374957"/>
</svg>
