<svg width="28" height="50" viewBox="0 0 28 50" fill="none" xmlns="http://www.w3.org/2000/svg" xmlns:xlink="http://www.w3.org/1999/xlink">
<path d="M26.854,9.822L19.016,1.984C17.682,0.71 15.91,0 14.066,0C12.222,0 10.449,0.71 9.116,1.984L1.278,9.822C0.731,10.388 0.429,11.146 0.436,11.932C0.442,12.719 0.758,13.471 1.314,14.027C1.87,14.584 2.623,14.899 3.409,14.906C4.196,14.913 4.954,14.61 5.52,14.064L11.08,8.504L11.126,45.004C11.126,45.8 11.442,46.563 12.004,47.125C12.567,47.688 13.33,48.004 14.126,48.004L14.126,48.004C14.921,48.004 15.684,47.688 16.247,47.125C16.81,46.563 17.126,45.8 17.126,45.004L17.08,8.532L22.612,14.064C22.888,14.35 23.22,14.579 23.586,14.736C23.952,14.893 24.345,14.976 24.744,14.98C25.142,14.983 25.537,14.907 25.906,14.756C26.274,14.606 26.609,14.383 26.891,14.101C27.173,13.819 27.395,13.484 27.546,13.116C27.697,12.747 27.773,12.352 27.769,11.954C27.766,11.555 27.683,11.162 27.526,10.796C27.369,10.43 27.14,10.099 26.854,9.822L26.854,9.822Z" fill="#374957"/>
</svg>
