<svg width="48" height="48" viewBox="0 0 48 48" fill="none" xmlns="http://www.w3.org/2000/svg" xmlns:xlink="http://www.w3.org/1999/xlink">
<path d="M47.948,5.88C47.063,11.462 45.387,16.89 42.97,22L28.828,22L35.914,14.914L33.086,12.086L20,25.172L20,8.336C26.742,4.147 34.245,1.333 42.078,0.054C42.872,-0.064 43.683,0.005 44.446,0.256C45.208,0.506 45.902,0.931 46.472,1.497C47.042,2.062 47.472,2.753 47.728,3.514C47.984,4.275 48.06,5.085 47.948,5.88L47.948,5.88ZM16,11.066C14.059,12.487 12.225,14.049 10.512,15.738C8.994,17.265 7.81,19.091 7.036,21.101C6.262,23.11 5.916,25.259 6.018,27.41C6.16,30.53 7.255,33.531 9.156,36.01L16,29.172L16,11.066ZM21.172,41.988C23.386,41.979 25.576,41.522 27.608,40.645C29.641,39.767 31.475,38.487 33,36.882C36.091,33.604 38.754,29.948 40.924,26L24.828,26L11.982,38.846C14.607,40.892 17.843,41.998 21.172,41.988L21.172,41.988ZM9.156,36.016L0.086,45.086L2.914,47.914L11.982,38.846C11.874,38.762 11.752,38.704 11.644,38.616C10.719,37.846 9.884,36.974 9.156,36.016L9.156,36.016Z" fill="#374957"/>
</svg>
