<svg width="48" height="48" viewBox="0 0 48 48" fill="none" xmlns="http://www.w3.org/2000/svg" xmlns:xlink="http://www.w3.org/1999/xlink">
<path d="M46.036,17.57C45.451,17.037 44.767,16.625 44.023,16.356C43.279,16.088 42.489,15.969 41.699,16.006C40.909,16.043 40.134,16.236 39.418,16.573C38.702,16.91 38.06,17.384 37.528,17.97L31.094,25.039C30.535,24.113 29.746,23.346 28.803,22.813C27.861,22.28 26.797,22 25.714,21.999L6,21.999C4.409,21.999 2.883,22.632 1.757,23.757C0.632,24.882 0,26.408 0,27.999L0,41.999C0,43.591 0.632,45.117 1.757,46.242C2.883,47.367 4.409,47.999 6,47.999L26.896,47.999L46.47,26.029C47.521,24.844 48.064,23.293 47.983,21.711C47.902,20.128 47.203,18.641 46.036,17.57L46.036,17.57ZM43.484,23.369L25.104,43.999L6,43.999C5.47,43.999 4.961,43.789 4.586,43.414C4.211,43.039 4,42.53 4,41.999L4,27.999C4,27.469 4.211,26.96 4.586,26.585C4.961,26.21 5.47,25.999 6,25.999L25.714,25.999C26.293,25.997 26.852,26.215 27.276,26.608C27.701,27.002 27.961,27.542 28.002,28.12C28.043,28.698 27.864,29.27 27.5,29.72C27.135,30.17 26.614,30.465 26.04,30.545L15.716,32.019L16.284,35.979L26.606,34.503C27.738,34.337 28.804,33.867 29.689,33.142C30.574,32.417 31.246,31.465 31.632,30.387L40.486,20.659C40.664,20.462 40.879,20.303 41.12,20.19C41.36,20.077 41.621,20.013 41.886,20.001C42.421,19.98 42.943,20.168 43.342,20.525C43.733,20.886 43.968,21.386 43.994,21.917C44.021,22.449 43.838,22.97 43.484,23.367L43.484,23.369ZM20.846,18.3L22,19.118L23.154,18.3C24.06,17.66 32,11.884 32,6.4C32.049,4.756 31.445,3.16 30.321,1.961C29.197,0.762 27.643,0.056 26,0C24.534,-0.019 23.112,0.498 22,1.454C20.888,0.498 19.466,-0.019 18,0C16.357,0.056 14.803,0.762 13.679,1.961C12.555,3.16 11.951,4.756 12,6.4C12,11.884 19.94,17.66 20.846,18.3ZM18,4C18.267,3.982 18.535,4.021 18.786,4.116C19.036,4.21 19.264,4.357 19.453,4.546C19.643,4.735 19.79,4.963 19.884,5.214C19.978,5.464 20.018,5.732 20,6L24,6C23.982,5.732 24.022,5.464 24.116,5.214C24.21,4.963 24.357,4.735 24.547,4.546C24.736,4.357 24.964,4.21 25.214,4.116C25.465,4.021 25.733,3.982 26,4C26.581,4.058 27.116,4.342 27.491,4.791C27.865,5.24 28.047,5.817 28,6.4C28,8.548 24.8,11.936 22,14.162C19.52,12.162 16,8.708 16,6.4C15.953,5.817 16.136,5.24 16.51,4.791C16.883,4.342 17.419,4.058 18,4L18,4Z" fill="#374957"/>
</svg>
