<svg width="48" height="44" viewBox="0 0 48 44" fill="none" xmlns="http://www.w3.org/2000/svg" xmlns:xlink="http://www.w3.org/1999/xlink">
<path d="M26,26L32,26L32,30L26,30L26,36L22,36L22,30L16,30L16,26L22,26L22,20L26,20L26,26ZM48,10L48,44L0,44L0,6C0,4.409 0.632,2.883 1.757,1.758C2.883,0.633 4.409,0 6,0L16.472,0L24.472,4L42,4C43.591,4 45.117,4.633 46.243,5.758C47.368,6.883 48,8.409 48,10ZM4,6L4,12L44,12L44,10C44,9.47 43.789,8.961 43.414,8.586C43.039,8.211 42.53,8 42,8L23.528,8L15.528,4L6,4C5.47,4 4.961,4.211 4.586,4.586C4.211,4.961 4,5.47 4,6L4,6ZM44,40L44,16L4,16L4,40L44,40Z" fill="#374957"/>
</svg>
