<svg width="48" height="50" viewBox="0 0 48 50" fill="none" xmlns="http://www.w3.org/2000/svg" xmlns:xlink="http://www.w3.org/1999/xlink">
<path d="M44,24C44.015,28.653 42.413,33.167 39.468,36.77C36.523,40.372 32.417,42.839 27.854,43.748C23.291,44.658 18.553,43.953 14.452,41.755C10.351,39.557 7.141,36.002 5.371,31.699C3.602,27.395 3.383,22.61 4.752,18.163C6.121,13.716 8.993,9.883 12.876,7.319C16.76,4.756 21.413,3.622 26.041,4.111C30.668,4.6 34.982,6.682 38.244,10L30,10L30,14L40.286,14C41.27,13.999 42.214,13.607 42.911,12.911C43.607,12.215 43.999,11.271 44,10.286L44,0L40,0L40,6.156C35.906,2.499 30.682,0.358 25.199,0.09C19.717,-0.178 14.308,1.444 9.878,4.685C5.448,7.925 2.264,12.588 0.858,17.895C-0.547,23.201 -0.088,28.828 2.157,33.837C4.403,38.846 8.299,42.932 13.196,45.413C18.092,47.894 23.692,48.619 29.059,47.468C34.426,46.316 39.235,43.357 42.682,39.086C46.13,34.814 48.007,29.489 48,24L44,24Z" fill="#374957"/>
</svg>
