<svg width="48" height="48" viewBox="0 0 48 48" fill="none" xmlns="http://www.w3.org/2000/svg" xmlns:xlink="http://www.w3.org/1999/xlink">
<path d="M45,36.001C44.204,36.001 43.441,36.317 42.879,36.879C42.316,37.442 42,38.205 42,39.001C42,39.796 41.684,40.559 41.121,41.122C40.559,41.685 39.796,42.001 39,42.001L33,42.001L33,36.001L35.238,36.001C37.571,35.997 39.807,35.069 41.457,33.42C43.107,31.77 44.035,29.534 44.038,27.201C44.038,24.209 43.006,21.31 41.116,18.991C39.227,16.672 36.596,15.075 33.666,14.471L26.8,12.901C26.16,12.762 25.58,12.423 25.146,11.933C24.711,11.443 24.444,10.827 24.384,10.175L23.584,6.011C23.448,5.056 23.115,4.139 22.608,3.318C22.101,2.498 21.429,1.791 20.636,1.242C19.842,0.694 18.944,0.315 17.997,0.13C17.051,-0.056 16.076,-0.043 15.134,0.167C15.046,0.187 6.546,2.877 6.546,2.877C4.664,3.417 3.008,4.553 1.828,6.115C0.647,7.677 0.006,9.581 0,11.539L0,27.001C0.003,29.387 0.952,31.674 2.639,33.362C4.326,35.049 6.614,35.998 9,36.001L9,42.001L3,42.001C2.204,42.001 1.441,42.317 0.879,42.879C0.316,43.442 0,44.205 0,45.001C0,45.796 0.316,46.559 0.879,47.122C1.441,47.685 2.204,48.001 3,48.001L39,48.001C41.386,47.998 43.674,47.049 45.361,45.362C47.048,43.674 47.997,41.387 48,39.001C48,38.205 47.684,37.442 47.121,36.879C46.559,36.317 45.796,36.001 45,36.001ZM6,27.001L6,11.539C6.007,10.871 6.233,10.224 6.643,9.697C7.054,9.171 7.626,8.794 8.272,8.625L16.522,6.011C16.644,5.991 16.768,5.997 16.888,6.026C17.008,6.055 17.121,6.108 17.22,6.181C17.349,6.277 17.456,6.401 17.533,6.543C17.61,6.684 17.656,6.841 17.666,7.003L18.244,9.989L14.988,10.001C14.192,10.002 13.43,10.32 12.868,10.883C12.307,11.447 11.992,12.211 11.994,13.007C11.996,13.802 12.313,14.565 12.877,15.126C13.441,15.688 14.204,16.002 15,16.001L15.012,16.001L20.706,15.981C20.834,16.121 20.972,16.251 21.106,16.381L18.764,19.001C18.499,19.294 18.294,19.637 18.162,20.009C18.029,20.382 17.972,20.777 17.993,21.172C18.013,21.567 18.112,21.954 18.283,22.31C18.454,22.667 18.694,22.986 18.988,23.25C19.283,23.513 19.627,23.716 20,23.846C20.374,23.977 20.769,24.032 21.164,24.009C21.559,23.985 21.945,23.884 22.301,23.711C22.656,23.538 22.974,23.297 23.236,23.001L26.774,19.047L32.412,20.335C33.997,20.656 35.423,21.514 36.449,22.765C37.474,24.016 38.036,25.583 38.04,27.201C38.04,27.943 37.745,28.655 37.22,29.181C36.695,29.706 35.983,30.001 35.24,30.001L9,30.001C8.204,30.001 7.441,29.685 6.879,29.122C6.316,28.559 6,27.796 6,27.001L6,27.001ZM15,36.001L27,36.001L27,42.001L15,42.001L15,36.001Z" fill="#374957"/>
</svg>
