<svg width="24" height="46" viewBox="0 0 24 46" fill="none" xmlns="http://www.w3.org/2000/svg" xmlns:xlink="http://www.w3.org/1999/xlink">
<path d="M18.988,45.999L11.014,45.999C9.104,45.999 7.226,45.5 5.567,44.553C3.908,43.607 2.523,42.244 1.551,40.599C0.578,38.955 0.051,37.086 0.02,35.175C-0.011,33.265 0.457,31.38 1.376,29.705L16.354,2.165C16.535,1.807 16.787,1.488 17.093,1.228C17.4,0.969 17.755,0.773 18.139,0.653C18.522,0.534 18.926,0.492 19.326,0.531C19.725,0.571 20.113,0.69 20.466,0.882C20.819,1.074 21.13,1.335 21.38,1.649C21.63,1.963 21.815,2.325 21.922,2.712C22.03,3.099 22.059,3.504 22.008,3.902C21.956,4.301 21.825,4.685 21.622,5.031L6.638,32.583C6.218,33.344 6.004,34.202 6.016,35.071C6.029,35.94 6.268,36.791 6.71,37.54C7.151,38.289 7.781,38.91 8.536,39.341C9.291,39.772 10.145,39.999 11.014,39.999L18.988,39.999C19.784,39.999 20.547,40.315 21.11,40.878C21.672,41.441 21.988,42.204 21.988,42.999C21.988,43.795 21.672,44.558 21.11,45.121C20.547,45.683 19.784,45.999 18.988,45.999Z" fill="#374957"/>
</svg>
