<svg width="48" height="48" viewBox="0 0 48 48" fill="none" xmlns="http://www.w3.org/2000/svg" xmlns:xlink="http://www.w3.org/1999/xlink">
<path d="M39.021,48L8.977,48C7.432,48.005 5.914,47.607 4.57,46.847C3.226,46.086 2.103,44.988 1.313,43.662C0.507,42.338 0.058,40.829 0.007,39.28C-0.044,37.731 0.306,36.196 1.023,34.822L16.045,4.856C16.795,3.392 17.934,2.164 19.338,1.307C20.742,0.45 22.356,-0.002 24.001,0L24.001,0C25.645,-0.001 27.258,0.451 28.661,1.308C30.065,2.165 31.204,3.393 31.955,4.856L46.995,34.856C47.701,36.227 48.044,37.757 47.99,39.298C47.936,40.84 47.488,42.342 46.688,43.661C45.888,44.979 44.763,46.071 43.42,46.83C42.078,47.59 40.563,47.993 39.021,48L39.021,48ZM21.355,7.616L6.343,37.562C6.095,38.023 5.972,38.54 5.986,39.063C6,39.585 6.151,40.095 6.423,40.542C6.685,40.986 7.058,41.352 7.506,41.606C7.955,41.86 8.462,41.992 8.977,41.988L39.021,41.988C39.538,41.988 40.045,41.854 40.495,41.6C40.945,41.345 41.322,40.979 41.589,40.537C41.856,40.094 42.003,39.59 42.018,39.073C42.033,38.557 41.914,38.045 41.673,37.588L26.635,7.588C26.385,7.107 26.006,6.705 25.541,6.427C25.076,6.148 24.543,6.005 24.001,6.012L24.001,6.012C23.454,6.007 22.917,6.154 22.449,6.437C21.982,6.721 21.603,7.129 21.355,7.616L21.355,7.616Z" fill="#374957"/>
</svg>
