<svg width="48" height="44" viewBox="0 0 48 44" fill="none" xmlns="http://www.w3.org/2000/svg" xmlns:xlink="http://www.w3.org/1999/xlink">
<path d="M3.756,10.242L0.586,7.072L3.414,4.244L6.586,7.414C6.967,7.778 7.473,7.981 8,7.981C8.527,7.981 9.033,7.778 9.414,7.414L16.586,0.244L19.414,3.072L12.242,10.242C11.685,10.799 11.023,11.241 10.295,11.543C9.567,11.845 8.787,12 7.999,12C7.211,12 6.431,11.845 5.703,11.543C4.975,11.241 4.313,10.799 3.756,10.242L3.756,10.242ZM24,10L48,10L48,6L24,6L24,10ZM8,28C8.788,28.002 9.569,27.848 10.297,27.546C11.025,27.245 11.686,26.801 12.242,26.242L19.414,19.072L16.586,16.244L9.414,23.414C9.033,23.778 8.527,23.981 8,23.981C7.473,23.981 6.967,23.778 6.586,23.414L3.414,20.244L0.586,23.072L3.756,26.242C4.312,26.801 4.973,27.244 5.702,27.546C6.43,27.848 7.211,28.002 8,28L8,28ZM24,26L48,26L48,22L24,22L24,26ZM8,44C8.788,44.002 9.569,43.848 10.297,43.546C11.025,43.245 11.686,42.801 12.242,42.242L19.414,35.072L16.586,32.244L9.414,39.414C9.033,39.778 8.527,39.981 8,39.981C7.473,39.981 6.967,39.778 6.586,39.414L3.414,36.244L0.586,39.072L3.756,42.242C4.312,42.801 4.973,43.244 5.702,43.546C6.43,43.848 7.211,44.002 8,44L8,44ZM24,42L48,42L48,38L24,38L24,42Z" fill="#374957"/>
</svg>
