<svg width="48" height="40" viewBox="0 0 48 40" fill="none" xmlns="http://www.w3.org/2000/svg" xmlns:xlink="http://www.w3.org/1999/xlink">
<path d="M35.122,17.122L32.242,20L35.122,22.878C35.684,23.441 36.001,24.204 36.001,25C36.001,25.796 35.684,26.56 35.122,27.122C34.559,27.685 33.796,28.001 33,28.001C32.204,28.001 31.44,27.685 30.878,27.122L28,24.242L25.122,27.122C24.559,27.685 23.796,28.001 23,28.001C22.204,28.001 21.44,27.685 20.878,27.122C20.315,26.56 19.999,25.796 19.999,25C19.999,24.606 20.076,24.216 20.227,23.852C20.378,23.488 20.599,23.157 20.878,22.878L23.758,20L20.878,17.122C20.315,16.56 19.999,15.796 19.999,15C19.999,14.205 20.315,13.441 20.878,12.878C21.44,12.316 22.204,12 23,12C23.796,12 24.559,12.316 25.122,12.878L28,15.758L30.878,12.878C31.44,12.316 32.204,12 33,12C33.796,12 34.559,12.316 35.122,12.878C35.684,13.441 36.001,14.205 36.001,15C36.001,15.796 35.684,16.56 35.122,17.122L35.122,17.122ZM48,10L48,30C47.996,32.652 46.942,35.193 45.067,37.068C43.193,38.943 40.651,39.997 38,40L19.954,40C18.264,39.996 16.598,39.604 15.083,38.855C13.568,38.107 12.244,37.022 11.214,35.682L0.614,21.822C0.214,21.299 -0.003,20.659 -0.003,20C-0.003,19.342 0.214,18.702 0.614,18.178L11.214,4.318C12.244,2.979 13.568,1.894 15.083,1.145C16.598,0.397 18.264,0.005 19.954,0L38,0C40.651,0.004 43.193,1.058 45.067,2.933C46.942,4.808 47.996,7.349 48,10L48,10ZM42,10C42,8.94 41.578,7.922 40.828,7.172C40.078,6.422 39.061,6 38,6L19.954,6C19.186,6.003 18.428,6.181 17.739,6.521C17.05,6.861 16.449,7.354 15.98,7.962L6.778,20L15.978,32.038C16.447,32.647 17.049,33.14 17.738,33.481C18.427,33.821 19.185,33.998 19.954,34L38,34C39.061,34 40.078,33.579 40.828,32.829C41.578,32.079 42,31.061 42,30L42,10Z" fill="#374957"/>
</svg>
