<svg width="48" height="48" viewBox="0 0 48 48" fill="none" xmlns="http://www.w3.org/2000/svg" xmlns:xlink="http://www.w3.org/1999/xlink">
<path d="M24,0C19.253,0 14.613,1.408 10.666,4.045C6.72,6.682 3.643,10.43 1.827,14.816C0.01,19.201 -0.465,24.027 0.461,28.682C1.387,33.338 3.673,37.614 7.029,40.971C10.386,44.327 14.662,46.613 19.318,47.539C23.973,48.465 28.799,47.99 33.184,46.173C37.57,44.357 41.318,41.28 43.955,37.334C46.592,33.387 48,28.747 48,24C47.993,17.637 45.462,11.536 40.963,7.037C36.464,2.538 30.363,0.007 24,0L24,0ZM25,41.95L25,39.38C25,37.157 24.117,35.026 22.546,33.454C20.974,31.883 18.843,31 16.62,31L16.6,31C15.774,31 14.957,30.837 14.194,30.521C13.431,30.205 12.738,29.742 12.154,29.158L6.048,23.048C6.211,19.871 7.215,16.794 8.957,14.131C10.698,11.469 13.116,9.317 15.962,7.895C18.808,6.472 21.98,5.831 25.155,6.037C28.33,6.242 31.393,7.287 34.032,9.064C33.502,9.453 32.863,9.663 32.206,9.664L29.338,9.664C28.929,9.664 28.524,9.745 28.146,9.901C27.769,10.058 27.426,10.288 27.137,10.577C26.848,10.866 26.619,11.21 26.463,11.588C26.307,11.966 26.227,12.371 26.228,12.78L26.228,14.864C26.228,15.689 25.9,16.48 25.317,17.063C24.734,17.646 23.943,17.974 23.118,17.974L23.118,17.974C22.709,17.973 22.304,18.053 21.925,18.208C21.547,18.364 21.203,18.593 20.914,18.882C20.624,19.171 20.394,19.514 20.238,19.892C20.081,20.27 20,20.675 20,21.084L20,23.168C20,23.993 20.328,24.784 20.911,25.367C21.494,25.95 22.285,26.278 23.11,26.278L31.422,26.278C32.247,26.278 33.038,26.606 33.621,27.189C34.204,27.772 34.532,28.563 34.532,29.388L34.532,32.428C34.532,32.837 34.613,33.241 34.769,33.619C34.926,33.996 35.155,34.339 35.444,34.628L37.11,36.294C33.953,39.67 29.615,41.696 25,41.95Z" fill="#374957"/>
</svg>
