<svg width="36" height="48" viewBox="0 0 36 48" fill="none" xmlns="http://www.w3.org/2000/svg" xmlns:xlink="http://www.w3.org/1999/xlink">
<path d="M25,0L11,0C8.084,0.003 5.288,1.163 3.225,3.225C1.163,5.288 0.003,8.084 0,11L0,37C0.003,39.916 1.163,42.712 3.225,44.775C5.288,46.837 8.084,47.997 11,48L25,48C27.916,47.997 30.712,46.837 32.775,44.775C34.837,42.712 35.997,39.916 36,37L36,11C35.997,8.084 34.837,5.288 32.775,3.225C30.712,1.163 27.916,0.003 25,0L25,0ZM30,37C30,38.326 29.473,39.598 28.536,40.536C27.598,41.473 26.326,42 25,42L11,42C9.674,42 8.402,41.473 7.464,40.536C6.527,39.598 6,38.326 6,37L6,11C6,9.674 6.527,8.402 7.464,7.464C8.402,6.527 9.674,6 11,6L25,6C26.326,6 27.598,6.527 28.536,7.464C29.473,8.402 30,9.674 30,11L30,37Z" fill="#374957"/>
</svg>
