<svg width="48" height="48" viewBox="0 0 48 48" fill="none" xmlns="http://www.w3.org/2000/svg" xmlns:xlink="http://www.w3.org/1999/xlink">
<path d="M48,20C48,19.204 47.684,18.441 47.121,17.879C46.559,17.316 45.796,17 45,17L42.064,17L40.506,11.74C39.875,9.694 38.657,7.878 37.002,6.519C35.348,5.16 33.33,4.317 31.2,4.096C30.507,2.856 29.496,1.824 28.272,1.104C27.048,0.384 25.654,0.003 24.234,0L23.766,0C22.346,0.001 20.952,0.38 19.728,1.098C18.504,1.817 17.493,2.849 16.8,4.088C14.644,4.293 12.598,5.133 10.92,6.502C9.242,7.871 8.009,9.707 7.376,11.778L5.832,17L3,17C2.204,17 1.441,17.316 0.879,17.879C0.316,18.441 0,19.204 0,20C0,20.796 0.316,21.559 0.879,22.121C1.441,22.684 2.204,23 3,23L4.056,23L3.102,26.256C1.913,27.279 1.015,28.597 0.499,30.078C-0.018,31.559 -0.136,33.149 0.158,34.69C0.452,36.23 1.147,37.666 2.172,38.853C3.198,40.039 4.518,40.934 6,41.448L6,44C6,45.061 6.421,46.078 7.172,46.828C7.922,47.579 8.939,48 10,48C11.061,48 12.078,47.579 12.828,46.828C13.579,46.078 14,45.061 14,44L14,42L34,42L34,44C34,45.061 34.421,46.078 35.172,46.828C35.922,47.579 36.939,48 38,48C39.061,48 40.078,47.579 40.828,46.828C41.579,46.078 42,45.061 42,44L42,41.448C43.495,40.93 44.825,40.024 45.854,38.822C46.884,37.621 47.575,36.167 47.857,34.61C48.139,33.053 48.002,31.45 47.46,29.963C46.918,28.477 45.99,27.162 44.772,26.152L44.772,26.152L43.84,23L45,23C45.796,23 46.559,22.684 47.121,22.121C47.684,21.559 48,20.796 48,20ZM13.12,13.516C13.433,12.495 14.066,11.602 14.926,10.969C15.786,10.336 16.826,9.996 17.894,10L30,10C31.062,9.994 32.098,10.329 32.955,10.955C33.813,11.582 34.447,12.467 34.764,13.48L37.878,24L10.016,24L13.12,13.516ZM39,36L9,36C8.204,36 7.441,35.684 6.879,35.121C6.316,34.559 6,33.796 6,33C6,32.204 6.316,31.441 6.879,30.879C7.441,30.316 8.204,30 9,30L10,30L10,31C10,31.796 10.316,32.559 10.879,33.121C11.441,33.684 12.204,34 13,34C13.796,34 14.559,33.684 15.121,33.121C15.684,32.559 16,31.796 16,31L16,30L32,30L32,31C32,31.796 32.316,32.559 32.879,33.121C33.441,33.684 34.204,34 35,34C35.796,34 36.559,33.684 37.121,33.121C37.684,32.559 38,31.796 38,31L38,30L39,30C39.796,30 40.559,30.316 41.121,30.879C41.684,31.441 42,32.204 42,33C42,33.796 41.684,34.559 41.121,35.121C40.559,35.684 39.796,36 39,36Z" fill="#374957"/>
</svg>
