<svg width="28" height="50" viewBox="0 0 28 50" fill="none" xmlns="http://www.w3.org/2000/svg" xmlns:xlink="http://www.w3.org/1999/xlink">
<path d="M16,28.345L16,16.001L12,16.001L12,28.345C10.666,28.817 9.541,29.745 8.825,30.966C8.109,32.187 7.847,33.621 8.086,35.016C8.326,36.411 9.051,37.677 10.133,38.589C11.215,39.501 12.585,40.002 14,40.002C15.415,40.002 16.785,39.501 17.867,38.589C18.949,37.677 19.674,36.411 19.914,35.016C20.153,33.621 19.891,32.187 19.175,30.966C18.459,29.745 17.334,28.817 16,28.345L16,28.345ZM24,24.223L24,10.001C23.578,-3.217 4.418,-3.199 4,10.001L4,24.223C2.071,26.192 0.766,28.687 0.249,31.395C-0.269,34.103 0.025,36.903 1.093,39.444C2.161,41.986 3.956,44.156 6.252,45.681C8.548,47.207 11.243,48.021 14,48.021C16.757,48.021 19.452,47.207 21.748,45.681C24.044,44.156 25.839,41.986 26.907,39.444C27.975,36.903 28.269,34.103 27.752,31.395C27.234,28.687 25.929,26.192 24,24.223L24,24.223ZM14,44.001C11.987,43.978 10.027,43.351 8.376,42.2C6.724,41.049 5.456,39.429 4.738,37.548C4.019,35.668 3.883,33.615 4.346,31.656C4.809,29.697 5.851,27.922 7.336,26.563L8,25.963L8,10.001C8,8.41 8.632,6.884 9.757,5.758C10.883,4.633 12.409,4.001 14,4.001C15.591,4.001 17.117,4.633 18.243,5.758C19.368,6.884 20,8.41 20,10.001L20,25.967L20.664,26.567C22.147,27.926 23.188,29.701 23.65,31.659C24.113,33.617 23.976,35.669 23.258,37.549C22.539,39.428 21.272,41.049 19.621,42.199C17.971,43.35 16.012,43.977 14,44.001L14,44.001Z" fill="#374957"/>
</svg>
