<svg width="48" height="48" viewBox="0 0 48 48" fill="none" xmlns="http://www.w3.org/2000/svg" xmlns:xlink="http://www.w3.org/1999/xlink">
<path d="M45.124,17C46.508,15.597 47.445,13.816 47.818,11.881C48.192,9.947 47.985,7.945 47.223,6.128C46.462,4.31 45.18,2.759 43.539,1.669C41.898,0.578 39.971,-0.002 38,0L10,0C8.03,-0.002 6.103,0.578 4.462,1.669C2.821,2.759 1.539,4.31 0.777,6.128C0.016,7.945 -0.191,9.947 0.182,11.881C0.556,13.816 1.493,15.597 2.876,17C1.034,18.864 0,21.379 0,24C0,26.621 1.034,29.136 2.876,31C1.493,32.403 0.556,34.184 0.182,36.119C-0.191,38.053 0.016,40.055 0.777,41.872C1.539,43.69 2.821,45.241 4.462,46.331C6.103,47.422 8.03,48.002 10,48L38,48C39.971,48.002 41.898,47.422 43.539,46.331C45.18,45.241 46.462,43.69 47.223,41.872C47.985,40.055 48.192,38.053 47.818,36.119C47.445,34.184 46.508,32.403 45.124,31C46.967,29.136 48.001,26.621 48.001,24C48.001,21.379 46.967,18.864 45.124,17L45.124,17ZM10,28C8.939,28 7.922,27.579 7.172,26.828C6.422,26.078 6,25.061 6,24C6,22.939 6.422,21.922 7.172,21.172C7.922,20.421 8.939,20 10,20L10,21C10,21.796 10.316,22.559 10.879,23.121C11.442,23.684 12.205,24 13,24C13.796,24 14.559,23.684 15.122,23.121C15.684,22.559 16,21.796 16,21L16,20L20,20L20,21C20,21.796 20.316,22.559 20.879,23.121C21.442,23.684 22.205,24 23,24C23.796,24 24.559,23.684 25.122,23.121C25.684,22.559 26,21.796 26,21L26,20L38,20C39.061,20 40.079,20.421 40.829,21.172C41.579,21.922 42,22.939 42,24C42,25.061 41.579,26.078 40.829,26.828C40.079,27.579 39.061,28 38,28L10,28ZM10,6L10,7C10,7.796 10.316,8.559 10.879,9.121C11.442,9.684 12.205,10 13,10C13.796,10 14.559,9.684 15.122,9.121C15.684,8.559 16,7.796 16,7L16,6L20,6L20,7C20,7.796 20.316,8.559 20.879,9.121C21.442,9.684 22.205,10 23,10C23.796,10 24.559,9.684 25.122,9.121C25.684,8.559 26,7.796 26,7L26,6L38,6C39.061,6 40.079,6.421 40.829,7.172C41.579,7.922 42,8.939 42,10C42,11.061 41.579,12.078 40.829,12.828C40.079,13.579 39.061,14 38,14L10,14C8.939,14 7.922,13.579 7.172,12.828C6.422,12.078 6,11.061 6,10C6,8.939 6.422,7.922 7.172,7.172C7.922,6.421 8.939,6 10,6L10,6ZM38,42L10,42C8.939,42 7.922,41.579 7.172,40.828C6.422,40.078 6,39.061 6,38C6,36.939 6.422,35.922 7.172,35.172C7.922,34.421 8.939,34 10,34L10,35C10,35.796 10.316,36.559 10.879,37.121C11.442,37.684 12.205,38 13,38C13.796,38 14.559,37.684 15.122,37.121C15.684,36.559 16,35.796 16,35L16,34L20,34L20,35C20,35.796 20.316,36.559 20.879,37.121C21.442,37.684 22.205,38 23,38C23.796,38 24.559,37.684 25.122,37.121C25.684,36.559 26,35.796 26,35L26,34L38,34C39.061,34 40.079,34.421 40.829,35.172C41.579,35.922 42,36.939 42,38C42,39.061 41.579,40.078 40.829,40.828C40.079,41.579 39.061,42 38,42Z" fill="#374957"/>
</svg>
