<svg width="48" height="48" viewBox="0 0 48 48" fill="none" xmlns="http://www.w3.org/2000/svg" xmlns:xlink="http://www.w3.org/1999/xlink">
<path d="M4,28L22,28L22,48L4,48L4,28ZM26,48L44,48L44,28L26,28L26,48ZM48,20L48,24L26,24L26,17.906C25.348,17.964 24.684,18 24,18C23.316,18 22.652,17.964 22,17.906L22,24L0,24L0,20C0,18.409 0.632,16.883 1.757,15.757C2.883,14.632 4.409,14 6,14L12.268,14C10.882,12.736 9.783,11.189 9.047,9.464C8.311,7.739 7.954,5.875 8,4L12,4C12,9.762 15.942,12.614 20.304,13.6C18.994,11.264 18.208,8.67 18,6C18,4.409 18.632,2.883 19.757,1.757C20.883,0.632 22.409,0 24,0C25.591,0 27.117,0.632 28.243,1.757C29.368,2.883 30,4.409 30,6C29.792,8.67 29.006,11.264 27.696,13.6C32.058,12.614 36,9.762 36,4L40,4C40.046,5.875 39.689,7.739 38.953,9.464C38.217,11.189 37.118,12.736 35.732,14L42,14C43.591,14 45.117,14.632 46.243,15.757C47.368,16.883 48,18.409 48,20ZM22,6C22.241,8.126 22.923,10.178 24,12.026C25.077,10.178 25.759,8.126 26,6C26,5.47 25.789,4.961 25.414,4.586C25.039,4.211 24.53,4 24,4C23.47,4 22.961,4.211 22.586,4.586C22.211,4.961 22,5.47 22,6L22,6Z" fill="#374957"/>
</svg>
