<svg width="48" height="48" viewBox="0 0 48 48" fill="none" xmlns="http://www.w3.org/2000/svg" xmlns:xlink="http://www.w3.org/1999/xlink">
<path d="M15.07,35.801L3.414,47.415L0.586,44.587L12.242,32.969L15.07,35.801ZM27.67,41.331C29.502,39.491 30.824,37.205 31.505,34.699C32.186,32.193 32.203,29.553 31.554,27.039L30.93,24.487L38.17,17.207L39.31,18.349C40.152,19.219 41.273,19.765 42.477,19.892C43.681,20.018 44.892,19.717 45.896,19.041C46.488,18.619 46.982,18.074 47.341,17.442C47.701,16.81 47.919,16.108 47.98,15.383C48.04,14.659 47.942,13.93 47.692,13.247C47.442,12.565 47.046,11.945 46.532,11.431L36.688,1.577C35.846,0.707 34.724,0.162 33.521,0.035C32.317,-0.091 31.107,0.209 30.102,0.885C29.509,1.306 29.015,1.852 28.655,2.483C28.295,3.115 28.077,3.818 28.016,4.543C27.955,5.267 28.053,5.997 28.303,6.679C28.554,7.362 28.95,7.983 29.464,8.497L30.758,9.789L23.516,17.069L20.98,16.447C18.463,15.795 15.82,15.81 13.311,16.49C10.802,17.171 8.514,18.494 6.672,20.329L5.966,21.037L26.966,42.037L27.67,41.331Z" fill="#374957"/>
</svg>
