<svg width="40" height="48" viewBox="0 0 40 48" fill="none" xmlns="http://www.w3.org/2000/svg" xmlns:xlink="http://www.w3.org/1999/xlink">
<path d="M37.954,22.54C37.497,17.002 34.997,11.832 30.939,8.035C26.881,4.239 21.556,2.087 16,2L16,0L6,0C4.409,0 2.883,0.632 1.757,1.757C0.632,2.883 0,4.409 0,6L0,10L6,10L6,14L0,14L0,18L6,18L6,22L0,22L0,26L6,26L6,30L0,30L0,34L6,34L6,38L0,38L0,42C0,43.591 0.632,45.117 1.757,46.243C2.883,47.368 4.409,48 6,48L16,48L16,46C19.009,45.995 21.985,45.375 24.746,44.179C27.506,42.982 29.993,41.234 32.054,39.042C34.124,36.848 35.717,34.249 36.733,31.409C37.748,28.569 38.164,25.549 37.954,22.54L37.954,22.54ZM16,32L14,32L14,16L16,16C18.122,16 20.157,16.843 21.657,18.343C23.157,19.843 24,21.878 24,24C24,26.122 23.157,28.157 21.657,29.657C20.157,31.157 18.122,32 16,32Z" fill="#374957"/>
</svg>
