<svg width="40" height="48" viewBox="0 0 40 48" fill="none" xmlns="http://www.w3.org/2000/svg" xmlns:xlink="http://www.w3.org/1999/xlink">
<path d="M24.828,0L6,0C4.409,0 2.883,0.632 1.757,1.757C0.632,2.883 0,4.409 0,6L0,48L40,48L40,15.172L24.828,0ZM26,6.828L33.172,14L26,14L26,6.828ZM4,44L4,6C4,5.47 4.211,4.961 4.586,4.586C4.961,4.211 5.47,4 6,4L22,4L22,18L36,18L36,44L4,44ZM22,22L26,22L26,26L22,26L22,35C22,35.989 21.707,36.956 21.157,37.778C20.608,38.6 19.827,39.241 18.913,39.619C18,39.998 16.994,40.097 16.025,39.904C15.055,39.711 14.164,39.235 13.464,38.536C12.765,37.836 12.289,36.945 12.096,35.975C11.903,35.006 12.002,34 12.381,33.087C12.759,32.173 13.4,31.392 14.222,30.843C15.044,30.293 16.011,30 17,30C17.336,30.001 17.671,30.034 18,30.1L18,26C18,24.939 18.421,23.922 19.172,23.172C19.922,22.421 20.939,22 22,22L22,22Z" fill="#374957"/>
</svg>
