<svg width="50" height="28" viewBox="0 0 50 28" fill="none" xmlns="http://www.w3.org/2000/svg" xmlns:xlink="http://www.w3.org/1999/xlink">
<path d="M38.244,26.788L46.082,18.95C47.354,17.616 48.064,15.843 48.064,14C48.064,12.156 47.354,10.383 46.082,9.05L38.244,1.212C37.681,0.649 36.918,0.333 36.122,0.333C35.327,0.332 34.563,0.648 34.001,1.211C33.438,1.773 33.122,2.536 33.121,3.332C33.121,4.128 33.437,4.891 34,5.454L39.56,11.016L3.06,11.062C2.264,11.062 1.501,11.378 0.938,11.94C0.376,12.503 0.06,13.266 0.06,14.062L0.06,14.062C0.06,14.857 0.376,15.62 0.938,16.183C1.501,16.746 2.264,17.062 3.06,17.062L39.522,17.016L34,22.546C33.453,23.112 33.151,23.869 33.158,24.656C33.164,25.443 33.48,26.195 34.036,26.751C34.592,27.308 35.345,27.623 36.131,27.63C36.918,27.637 37.676,27.334 38.242,26.788L38.244,26.788Z" fill="#374957"/>
</svg>
