<svg width="48" height="16" viewBox="0 0 48 16" fill="none" xmlns="http://www.w3.org/2000/svg" xmlns:xlink="http://www.w3.org/1999/xlink">
<path d="M33.334,0.5C31.699,0.506 30.111,1.047 28.812,2.04C27.513,3.033 26.574,4.424 26.14,6L0,6L0,10L26.14,10C26.569,11.58 27.505,12.975 28.805,13.969C30.106,14.964 31.697,15.502 33.334,15.502C34.971,15.502 36.562,14.964 37.863,13.969C39.163,12.975 40.099,11.58 40.528,10L48,10L48,6L40.528,6C40.094,4.424 39.155,3.033 37.856,2.04C36.557,1.047 34.969,0.506 33.334,0.5L33.334,0.5ZM33.334,11.5C32.642,11.5 31.965,11.295 31.39,10.91C30.814,10.526 30.365,9.979 30.1,9.339C29.836,8.7 29.766,7.996 29.901,7.317C30.036,6.638 30.37,6.015 30.859,5.525C31.349,5.036 31.972,4.702 32.651,4.567C33.33,4.432 34.034,4.502 34.673,4.766C35.313,5.031 35.86,5.48 36.244,6.056C36.629,6.631 36.834,7.308 36.834,8C36.833,8.928 36.464,9.818 35.808,10.474C35.152,11.13 34.262,11.499 33.334,11.5L33.334,11.5Z" fill="#374957"/>
</svg>
