<svg width="44" height="48" viewBox="0 0 44 48" fill="none" xmlns="http://www.w3.org/2000/svg" xmlns:xlink="http://www.w3.org/1999/xlink">
<path d="M12,16L12,12L28,12L28,16L12,16ZM6,44C5.47,44 4.961,43.789 4.586,43.414C4.211,43.039 4,42.53 4,42L4,6C4,5.47 4.211,4.961 4.586,4.586C4.961,4.211 5.47,4 6,4L36,4L36,23C37.485,23.625 38.841,24.52 40,25.64L40,0L6,0C4.409,0 2.883,0.632 1.757,1.757C0.632,2.883 0,4.409 0,6L0,42C0,43.591 0.632,45.117 1.757,46.243C2.883,47.368 4.409,48 6,48L31,48C29.251,48 27.52,47.645 25.912,46.958C24.303,46.27 22.851,45.264 21.642,44L6,44ZM41.086,47.914L35.772,42.6C34.346,43.51 32.691,43.995 31,44C29.22,44 27.48,43.472 26,42.483C24.52,41.494 23.366,40.089 22.685,38.444C22.004,36.8 21.826,34.99 22.173,33.244C22.52,31.498 23.377,29.895 24.636,28.636C25.895,27.377 27.498,26.52 29.244,26.173C30.99,25.826 32.8,26.004 34.444,26.685C36.089,27.366 37.494,28.52 38.483,30C39.472,31.48 40,33.22 40,35C39.995,36.691 39.51,38.346 38.6,39.772L43.914,45.086L41.086,47.914ZM31,40C31.989,40 32.956,39.707 33.778,39.157C34.6,38.608 35.241,37.827 35.619,36.913C35.998,36 36.097,34.994 35.904,34.025C35.711,33.055 35.235,32.164 34.536,31.464C33.836,30.765 32.945,30.289 31.975,30.096C31.006,29.903 30,30.002 29.087,30.381C28.173,30.759 27.392,31.4 26.843,32.222C26.293,33.044 26,34.011 26,35C26,36.326 26.527,37.598 27.464,38.536C28.402,39.473 29.674,40 31,40Z" fill="#374957"/>
</svg>
