<svg width="48" height="48" viewBox="0 0 48 48" fill="none" xmlns="http://www.w3.org/2000/svg" xmlns:xlink="http://www.w3.org/1999/xlink">
<path d="M47.17,22.15C43.819,13.722 36.257,7.696 27.293,6.312C28.521,4.487 28.038,2.012 26.213,0.784C24.389,-0.445 21.914,0.039 20.685,1.863C19.78,3.208 19.78,4.967 20.685,6.312C11.724,7.698 4.164,13.723 0.814,22.15C-0.428,24.817 -0.236,27.931 1.326,30.424C2.312,31.929 3.796,33.039 5.518,33.558L6.731,39.821C7.637,44.504 11.734,47.888 16.504,47.896L31.474,47.896C36.242,47.888 40.339,44.507 41.25,39.827L42.46,33.566C44.186,33.046 45.672,31.932 46.656,30.422C48.217,27.93 48.411,24.817 47.17,22.15ZM35.385,38.694C35.023,40.568 33.383,41.922 31.474,41.922L16.504,41.922C14.596,41.921 12.956,40.567 12.595,38.694L12.063,35.948C13.484,35.94 14.867,35.494 16.024,34.67C18.42,36.326 21.592,36.326 23.989,34.67C26.386,36.326 29.558,36.326 31.954,34.67C33.111,35.494 34.495,35.94 35.915,35.948L35.385,38.694ZM41.65,27.162C41.26,27.724 40.601,28.036 39.919,27.983C38.663,28.013 37.486,28.607 36.715,29.6C36.347,30.03 35.699,30.08 35.269,29.711C35.229,29.677 35.192,29.64 35.158,29.6C33.842,27.83 31.341,27.462 29.572,28.778C29.259,29.01 28.983,29.287 28.75,29.6C28.381,30.03 27.734,30.08 27.304,29.711C27.264,29.677 27.227,29.64 27.193,29.6C25.869,27.83 23.361,27.468 21.59,28.792C21.284,29.021 21.012,29.293 20.783,29.6C20.416,30.029 19.772,30.079 19.343,29.713C19.302,29.678 19.264,29.64 19.23,29.6C17.904,27.829 15.395,27.468 13.624,28.793C13.318,29.022 13.047,29.294 12.818,29.6C12.451,30.029 11.806,30.079 11.377,29.713C11.337,29.678 11.299,29.64 11.264,29.6C10.488,28.613 9.314,28.021 8.058,27.983C7.378,28.036 6.721,27.725 6.332,27.164C5.89,26.363 5.869,25.395 6.276,24.576C13.333,7.879 34.686,7.923 41.703,24.576C42.114,25.394 42.094,26.362 41.65,27.162Z" fill="#374957"/>
</svg>
