<svg width="48" height="48" viewBox="0 0 48 48" fill="none" xmlns="http://www.w3.org/2000/svg" xmlns:xlink="http://www.w3.org/1999/xlink">
<path d="M47.058,4.942C46.495,4.38 45.732,4.064 44.937,4.064C44.142,4.064 43.379,4.38 42.816,4.942L36.878,10.878C36.599,11.157 36.379,11.488 36.228,11.852C36.077,12.216 36,12.606 36,13L36,35C36,35.265 35.895,35.52 35.707,35.707C35.52,35.895 35.265,36 35,36L32,36L32,11C31.996,8.084 30.836,5.288 28.774,3.226C26.712,1.164 23.916,0.004 21,0L11,0C8.084,0.004 5.288,1.164 3.226,3.226C1.164,5.288 0.004,8.084 0,11L0,37C0.004,39.916 1.164,42.712 3.226,44.774C5.288,46.836 8.084,47.996 11,48L21,48C23.03,47.998 25.02,47.435 26.749,46.373C28.479,45.31 29.881,43.79 30.8,41.98C30.868,41.98 30.934,42 31,42L35,42C36.857,42 38.637,41.263 39.95,39.95C41.263,38.637 42,36.857 42,35L42,14.242L47.058,9.184C47.62,8.621 47.936,7.859 47.936,7.063C47.936,6.267 47.62,5.505 47.058,4.942ZM11,6L21,6C22.326,6 23.598,6.527 24.536,7.464C25.473,8.402 26,9.674 26,11L26,18L21.632,18C21.395,17.336 21.043,16.72 20.59,16.18L21.572,14.542C21.955,13.861 22.057,13.058 21.857,12.303C21.656,11.548 21.169,10.901 20.499,10.499C19.829,10.097 19.029,9.973 18.269,10.152C17.509,10.331 16.848,10.8 16.428,11.458L14.828,14.118C13.812,14.324 12.867,14.789 12.085,15.47C11.303,16.15 10.712,17.022 10.368,18L6,18L6,11C6,9.674 6.527,8.402 7.464,7.464C8.402,6.527 9.674,6 11,6L11,6ZM21,42L11,42C9.674,42 8.402,41.473 7.464,40.536C6.527,39.598 6,38.326 6,37L6,24L26,24L26,37C26,38.326 25.473,39.598 24.536,40.536C23.598,41.473 22.326,42 21,42Z" fill="#374957"/>
</svg>
