<svg width="48" height="48" viewBox="0 0 48 48" fill="none" xmlns="http://www.w3.org/2000/svg" xmlns:xlink="http://www.w3.org/1999/xlink">
<path d="M42,8L30,8L30,6C30,4.409 29.368,2.883 28.243,1.757C27.117,0.632 25.591,0 24,0C22.409,0 20.883,0.632 19.757,1.757C18.632,2.883 18,4.409 18,6L18,8L6,8C4.409,8 2.883,8.632 1.757,9.757C0.632,10.883 0,12.409 0,14L0,48L48,48L48,14C48,12.409 47.368,10.883 46.243,9.757C45.117,8.632 43.591,8 42,8L42,8ZM22,6C22,5.47 22.211,4.961 22.586,4.586C22.961,4.211 23.47,4 24,4C24.53,4 25.039,4.211 25.414,4.586C25.789,4.961 26,5.47 26,6L26,12L22,12L22,6ZM44,44L4,44L4,14C4,13.47 4.211,12.961 4.586,12.586C4.961,12.211 5.47,12 6,12L18,12L18,16L30,16L30,12L42,12C42.53,12 43.039,12.211 43.414,12.586C43.789,12.961 44,13.47 44,14L44,44ZM8,40L22,40L22,20L8,20L8,40ZM12,24L18,24L18,36L12,36L12,24ZM26,28L40,28L40,32L26,32L26,28ZM26,20L40,20L40,24L26,24L26,20ZM26,36L36,36L36,40L26,40L26,36Z" fill="#374957"/>
</svg>
