<svg width="28" height="30" viewBox="0 0 28 30" fill="none" xmlns="http://www.w3.org/2000/svg" xmlns:xlink="http://www.w3.org/1999/xlink">
<path d="M27.457,4.517L21.942,9.146C21.203,8.251 20.276,7.531 19.226,7.037C18.176,6.543 17.03,6.287 15.869,6.289C11.905,6.289 8.726,9.404 8.726,14.147C8.726,18.891 11.869,22.005 15.869,22.005C17.044,21.994 18.203,21.734 19.27,21.241C20.336,20.749 21.286,20.035 22.056,19.148L27.514,23.813C26.16,25.536 24.421,26.918 22.435,27.846C20.45,28.774 18.274,29.223 16.084,29.156C7.004,29.078 0.932,22.72 0.932,14.147C0.932,5.574 7.004,-0.855 16.07,-0.855C18.257,-0.921 20.429,-0.469 22.408,0.465C24.387,1.399 26.117,2.787 27.457,4.517L27.457,4.517Z" fill="#374957"/>
</svg>
