<svg width="48" height="44" viewBox="0 0 48 44" fill="none" xmlns="http://www.w3.org/2000/svg" xmlns:xlink="http://www.w3.org/1999/xlink">
<path d="M33,26C33,26.796 32.684,27.559 32.121,28.122C31.559,28.684 30.796,29 30,29L27,29L27,32C27,32.796 26.684,33.559 26.121,34.122C25.559,34.684 24.796,35 24,35C23.204,35 22.441,34.684 21.879,34.122C21.316,33.559 21,32.796 21,32L21,29L18,29C17.204,29 16.441,28.684 15.879,28.122C15.316,27.559 15,26.796 15,26C15,25.205 15.316,24.442 15.879,23.879C16.441,23.316 17.204,23 18,23L21,23L21,20C21,19.205 21.316,18.442 21.879,17.879C22.441,17.317 23.204,17 24,17C24.796,17 25.559,17.317 26.121,17.879C26.684,18.442 27,19.205 27,20L27,23L30,23C30.796,23 31.559,23.316 32.121,23.879C32.684,24.442 33,25.205 33,26L33,26ZM48,15L48,33C47.997,35.917 46.837,38.713 44.775,40.775C42.712,42.837 39.916,43.997 37,44L11,44C8.084,43.997 5.288,42.837 3.225,40.775C1.163,38.713 0.003,35.917 0,33L0,11C0.003,8.084 1.163,5.288 3.225,3.226C5.288,1.164 8.084,0.004 11,0L16,0C16.466,0 16.925,0.108 17.342,0.316L24.708,4L37,4C39.916,4.004 42.712,5.164 44.775,7.226C46.837,9.288 47.997,12.084 48,15ZM42,15C42,14.665 41.966,14.33 41.898,14L6,14L6,33C6,34.326 6.527,35.598 7.464,36.536C8.402,37.474 9.674,38 11,38L37,38C38.326,38 39.598,37.474 40.536,36.536C41.473,35.598 42,34.326 42,33L42,15Z" fill="#374957"/>
</svg>
