<svg width="48" height="48" viewBox="0 0 48 48" fill="none" xmlns="http://www.w3.org/2000/svg" xmlns:xlink="http://www.w3.org/1999/xlink">
<path d="M48,31L48,37C47.997,39.916 46.837,42.712 44.775,44.775C42.712,46.837 39.916,47.997 37,48L11,48C8.084,47.997 5.288,46.837 3.225,44.775C1.163,42.712 0.003,39.916 0,37L0,17C0.003,14.084 1.163,11.288 3.225,9.225C5.288,7.163 8.084,6.003 11,6L27,6C27.796,6 28.559,6.316 29.121,6.879C29.684,7.441 30,8.204 30,9C30,9.796 29.684,10.559 29.121,11.121C28.559,11.684 27.796,12 27,12L11,12C10.093,12.003 9.204,12.253 8.428,12.724C7.653,13.195 7.021,13.868 6.6,14.672L20.462,28.536C21.415,29.445 22.681,29.952 23.998,29.952C25.315,29.952 26.581,29.445 27.534,28.536C28.1,27.99 28.858,27.687 29.644,27.694C30.431,27.701 31.183,28.016 31.739,28.573C32.296,29.129 32.611,29.881 32.618,30.668C32.625,31.454 32.322,32.212 31.776,32.778C29.707,34.829 26.911,35.979 23.998,35.979C21.085,35.979 18.289,34.829 16.22,32.778L6,22.554L6,37C6,38.326 6.527,39.598 7.464,40.536C8.402,41.473 9.674,42 11,42L37,42C38.326,42 39.598,41.473 40.536,40.536C41.473,39.598 42,38.326 42,37L42,31C42,30.204 42.316,29.441 42.879,28.879C43.441,28.316 44.204,28 45,28C45.796,28 46.559,28.316 47.121,28.879C47.684,29.441 48,30.204 48,31L48,31ZM29.648,16C29.188,15.999 28.738,16.135 28.355,16.39C27.972,16.645 27.673,17.008 27.496,17.433C27.32,17.858 27.274,18.325 27.363,18.777C27.453,19.228 27.674,19.643 28,19.968L35.352,27.32C35.788,27.755 36.38,28 36.996,28C37.612,28 38.204,27.755 38.64,27.32L46,19.968C46.326,19.643 46.547,19.228 46.637,18.777C46.726,18.325 46.68,17.858 46.504,17.433C46.327,17.008 46.028,16.645 45.645,16.39C45.262,16.135 44.812,15.999 44.352,16L40,16L40,3C40,2.204 39.684,1.441 39.121,0.879C38.559,0.316 37.796,0 37,0C36.204,0 35.441,0.316 34.879,0.879C34.316,1.441 34,2.204 34,3L34,16L29.648,16Z" fill="#374957"/>
</svg>
