<svg width="48" height="44" viewBox="0 0 48 44" fill="none" xmlns="http://www.w3.org/2000/svg" xmlns:xlink="http://www.w3.org/1999/xlink">
<path d="M20,21C20,21.796 19.684,22.559 19.121,23.121C18.558,23.684 17.795,24 17,24C16.204,24 15.441,23.684 14.878,23.121C14.316,22.559 14,21.796 14,21C14,20.204 14.316,19.441 14.878,18.879C15.441,18.316 16.204,18 17,18C17.795,18 18.558,18.316 19.121,18.879C19.684,19.441 20,20.204 20,21ZM27,28C26.204,28 25.441,28.316 24.878,28.879C24.316,29.441 24,30.204 24,31C24,31.796 24.316,32.559 24.878,33.121C25.441,33.684 26.204,34 27,34C27.795,34 28.558,33.684 29.121,33.121C29.684,32.559 30,31.796 30,31C30,30.204 29.684,29.441 29.121,28.879C28.558,28.316 27.795,28 27,28ZM17,28C16.204,28 15.441,28.316 14.878,28.879C14.316,29.441 14,30.204 14,31C14,31.796 14.316,32.559 14.878,33.121C15.441,33.684 16.204,34 17,34C17.795,34 18.558,33.684 19.121,33.121C19.684,32.559 20,31.796 20,31C20,30.204 19.684,29.441 19.121,28.879C18.558,28.316 17.795,28 17,28ZM44,33.012L44,18.708C45.564,17.466 46.743,15.803 47.397,13.915C48.051,12.027 48.154,9.992 47.694,8.048L47.694,8.048C47.086,5.71 45.708,3.644 43.783,2.184C41.858,0.724 39.497,-0.045 37.082,0L10.918,0C8.502,-0.045 6.141,0.724 4.216,2.184C2.291,3.644 0.914,5.71 0.306,8.048C-0.155,9.992 -0.052,12.027 0.602,13.915C1.256,15.803 2.435,17.466 4,18.708L4,33.012C4.003,35.927 5.163,38.722 7.226,40.782C9.288,42.843 12.084,44 15,44L33,44C35.915,44 38.711,42.843 40.774,40.782C42.836,38.722 43.996,35.927 44,33.012L44,33.012ZM37.082,6C38.15,5.969 39.198,6.292 40.063,6.919C40.928,7.546 41.562,8.441 41.866,9.466C42.07,10.457 41.95,11.487 41.522,12.403C41.094,13.32 40.381,14.073 39.49,14.552C39.036,14.816 38.66,15.195 38.398,15.65C38.137,16.105 37.999,16.621 38,17.146L38,33.012C37.996,34.336 37.468,35.605 36.531,36.54C35.594,37.475 34.324,38 33,38L15,38C13.676,38 12.406,37.475 11.468,36.54C10.531,35.605 10.003,34.336 10,33.012L10,17.146C10.001,16.62 9.864,16.103 9.603,15.647C9.341,15.19 8.964,14.811 8.51,14.546C7.62,14.068 6.908,13.315 6.48,12.401C6.052,11.486 5.931,10.457 6.134,9.468C6.437,8.443 7.07,7.547 7.935,6.92C8.801,6.292 9.849,5.969 10.918,6L37.082,6Z" fill="#374957"/>
</svg>
