<svg width="48" height="50" viewBox="0 0 48 50" fill="none" xmlns="http://www.w3.org/2000/svg" xmlns:xlink="http://www.w3.org/1999/xlink">
<path d="M37.001,48.001L26.069,48.001C11.423,48.287 -1.491,36.511 0.113,21.771C0.61,16.542 2.806,11.62 6.364,7.757C9.922,3.894 14.647,1.302 19.817,0.377C23.215,-0.253 26.71,-0.119 30.05,0.77C33.389,1.659 36.489,3.279 39.125,5.515C41.914,7.86 44.155,10.789 45.689,14.095C47.222,17.402 48.012,21.004 48.001,24.649L48.001,37.001C47.998,39.917 46.838,42.713 44.775,44.775C42.713,46.837 39.917,47.997 37.001,48.001ZM24.061,6.001C19.57,5.997 15.239,7.668 11.914,10.687C8.59,13.707 6.511,17.858 6.085,22.329C5.84,24.713 6.102,27.123 6.853,29.399C7.604,31.675 8.827,33.768 10.443,35.539C12.457,37.64 14.887,39.299 17.577,40.412C20.267,41.524 23.159,42.065 26.069,42.001L37.001,42.001C38.327,42.001 39.599,41.474 40.536,40.536C41.474,39.598 42.001,38.327 42.001,37.001L42.001,24.649C42.011,21.88 41.413,19.143 40.249,16.63C39.085,14.118 37.385,11.892 35.267,10.109C32.139,7.45 28.166,5.994 24.061,6.001L24.061,6.001ZM29.001,16.001C27.609,16.07 26.302,16.688 25.365,17.718C24.428,18.749 23.938,20.109 24.001,21.501C24.06,20.808 23.974,20.111 23.749,19.454C23.525,18.796 23.166,18.193 22.696,17.681C22.226,17.169 21.655,16.761 21.019,16.482C20.383,16.202 19.695,16.058 19.001,16.058C18.306,16.058 17.619,16.202 16.983,16.482C16.347,16.761 15.775,17.169 15.305,17.681C14.835,18.193 14.477,18.796 14.252,19.454C14.027,20.111 13.942,20.808 14.001,21.501C14.001,25.827 19.641,31.203 22.451,33.457C22.89,33.809 23.437,34.001 24.001,34.001C24.564,34.001 25.111,33.809 25.551,33.457C28.361,31.201 34.001,25.827 34.001,21.501C34.064,20.109 33.573,18.749 32.636,17.718C31.699,16.688 30.392,16.07 29.001,16.001Z" fill="#374957"/>
</svg>
