<svg width="48" height="48" viewBox="0 0 48 48" fill="none" xmlns="http://www.w3.org/2000/svg" xmlns:xlink="http://www.w3.org/1999/xlink">
<path d="M37,10L26,10L31.714,8.096C32.359,7.88 32.919,7.467 33.316,6.915C33.712,6.363 33.924,5.699 33.922,5.02C33.92,4.34 33.704,3.678 33.304,3.128C32.905,2.578 32.342,2.168 31.696,1.956L26.658,0.308C26.159,0.075 25.61,-0.029 25.061,0.007C24.511,0.042 23.98,0.216 23.515,0.511C23.051,0.807 22.669,1.215 22.404,1.697C22.139,2.18 22,2.722 22,3.272L22,10L11,10C8.084,10.003 5.288,11.163 3.225,13.225C1.163,15.288 0.003,18.084 0,21L0,41C0,42.857 0.737,44.637 2.05,45.95C3.363,47.263 5.143,48 7,48L41,48C42.857,48 44.637,47.263 45.95,45.95C47.263,44.637 48,42.857 48,41L48,21C47.997,18.084 46.837,15.288 44.775,13.225C42.712,11.163 39.916,10.003 37,10ZM41.898,20L39.314,20C38.657,20.002 38.006,19.873 37.399,19.622C36.792,19.371 36.241,19.002 35.778,18.536L33.242,16L37,16C38.152,16 39.269,16.399 40.162,17.127C41.054,17.856 41.668,18.871 41.898,20L41.898,20ZM11,16L14.756,16L12.222,18.536C11.282,19.471 10.011,19.997 8.686,20L6.102,20C6.332,18.871 6.946,17.856 7.838,17.127C8.731,16.399 9.848,16 11,16L11,16ZM41,42L28,42L28,34C28,32.939 27.579,31.922 26.828,31.172C26.078,30.421 25.061,30 24,30C22.939,30 21.922,30.421 21.172,31.172C20.421,31.922 20,32.939 20,34L20,42L7,42C6.735,42 6.48,41.895 6.293,41.707C6.105,41.52 6,41.265 6,41L6,26L8.686,26C10.131,26.004 11.563,25.721 12.898,25.168C14.233,24.615 15.445,23.803 16.464,22.778L21.878,17.364C22.45,16.818 23.21,16.513 24,16.513C24.79,16.513 25.55,16.818 26.122,17.364L31.536,22.778C32.555,23.803 33.767,24.615 35.102,25.168C36.437,25.721 37.869,26.004 39.314,26L42,26L42,41C42,41.265 41.895,41.52 41.707,41.707C41.52,41.895 41.265,42 41,42ZM16,35C16,35.796 15.684,36.559 15.121,37.121C14.559,37.684 13.796,38 13,38L11,38C10.204,38 9.441,37.684 8.879,37.121C8.316,36.559 8,35.796 8,35C8,34.204 8.316,33.441 8.879,32.879C9.441,32.316 10.204,32 11,32L13,32C13.796,32 14.559,32.316 15.121,32.879C15.684,33.441 16,34.204 16,35ZM40,35C40,35.796 39.684,36.559 39.121,37.121C38.559,37.684 37.796,38 37,38L35,38C34.204,38 33.441,37.684 32.879,37.121C32.316,36.559 32,35.796 32,35C32,34.204 32.316,33.441 32.879,32.879C33.441,32.316 34.204,32 35,32L37,32C37.796,32 38.559,32.316 39.121,32.879C39.684,33.441 40,34.204 40,35ZM27,23C27,23.593 26.824,24.173 26.494,24.667C26.165,25.16 25.696,25.545 25.148,25.772C24.6,25.999 23.997,26.058 23.415,25.942C22.833,25.827 22.298,25.541 21.879,25.121C21.459,24.702 21.173,24.167 21.058,23.585C20.942,23.003 21.001,22.4 21.228,21.852C21.455,21.304 21.84,20.835 22.333,20.506C22.827,20.176 23.407,20 24,20C24.796,20 25.559,20.316 26.121,20.879C26.684,21.441 27,22.204 27,23Z" fill="#374957"/>
</svg>
