<svg width="48" height="48" viewBox="0 0 48 48" fill="none" xmlns="http://www.w3.org/2000/svg" xmlns:xlink="http://www.w3.org/1999/xlink">
<path d="M37,4.001L32.95,4.001C31.566,2.426 29.788,1.247 27.799,0.584C25.81,-0.078 23.68,-0.2 21.628,0.231C19.127,0.741 16.866,2.067 15.2,4.001L10,4.001C4.2,4.001 0,8.627 0,15.001L0,37.001C0.004,39.917 1.164,42.713 3.226,44.775C5.288,46.837 8.084,47.997 11,48.001L37,48.001C39.916,47.997 42.712,46.837 44.774,44.775C46.836,42.713 47.996,39.917 48,37.001L48,15.001C47.996,12.084 46.836,9.289 44.774,7.227C42.712,5.165 39.916,4.004 37,4.001L37,4.001ZM42,37.001C42,38.327 41.473,39.599 40.536,40.536C39.598,41.474 38.326,42.001 37,42.001L11,42.001C9.674,42.001 8.402,41.474 7.464,40.536C6.527,39.599 6,38.327 6,37.001L6,15.001C6,14.167 6.2,10.001 10,10.001L12.27,10.001C12.113,10.801 12.031,11.613 12.026,12.429C12.028,13.875 12.593,15.263 13.601,16.3C14.609,17.337 15.981,17.941 17.426,17.985L22.498,9.339C22.939,8.676 23.626,8.215 24.407,8.058C25.188,7.902 25.999,8.061 26.662,8.503C27.325,8.944 27.786,9.631 27.942,10.412C28.099,11.192 27.939,12.004 27.498,12.667L24.632,18.001L30.456,18.001C31.233,18.03 32.007,17.891 32.725,17.594C33.443,17.297 34.089,16.848 34.617,16.278C35.146,15.709 35.546,15.032 35.789,14.293C36.032,13.555 36.113,12.773 36.026,12.001C36.026,12.033 35.952,10.675 35.842,10.001L37,10.001C38.326,10.001 39.598,10.527 40.536,11.465C41.473,12.403 42,13.675 42,15.001L42,37.001Z" fill="#374957"/>
</svg>
