<svg width="48" height="50" viewBox="0 0 48 50" fill="none" xmlns="http://www.w3.org/2000/svg" xmlns:xlink="http://www.w3.org/1999/xlink">
<path d="M44.896,38L30.2,38C29.509,36.557 28.345,35.393 26.9,34.702L26.9,28C28.99,28 30.77,27.98 31.7,27.962C32.445,27.949 33.186,27.86 33.912,27.696C36.178,27.202 38.209,25.956 39.677,24.161C41.146,22.367 41.964,20.129 42,17.81C42.036,15.492 41.287,13.229 39.875,11.39C38.463,9.551 36.471,8.243 34.222,7.678L33.852,7.592C33.74,7.566 33.57,7.526 33.594,7.574C33.576,7.543 33.559,7.51 33.544,7.476C32.452,4.965 30.562,2.883 28.167,1.555C25.772,0.227 23.005,-0.274 20.296,0.13C17.91,0.47 15.68,1.517 13.895,3.137C12.11,4.757 10.851,6.874 10.28,9.216C9.898,10.719 9.814,12.282 10.032,13.816C8.688,14.518 7.589,15.613 6.88,16.954C6.172,18.295 5.888,19.82 6.067,21.326C6.245,22.832 6.877,24.249 7.879,25.388C8.881,26.526 10.205,27.334 11.676,27.702C12.265,27.854 12.869,27.939 13.476,27.956C14.6,27.982 17.6,28 20.896,28L20.896,34.702C19.454,35.394 18.291,36.557 17.6,38L2.896,38C2.101,38 1.338,38.316 0.775,38.879C0.213,39.442 -0.104,40.205 -0.104,41C-0.104,41.796 0.213,42.559 0.775,43.122C1.338,43.684 2.101,44 2.896,44L17.6,44C18.162,45.197 19.052,46.21 20.168,46.919C21.284,47.628 22.578,48.005 23.9,48.005C25.222,48.005 26.517,47.628 27.633,46.919C28.749,46.21 29.639,45.197 30.2,44L44.9,44C45.696,44 46.459,43.684 47.022,43.122C47.584,42.559 47.9,41.796 47.9,41C47.9,40.205 47.584,39.442 47.022,38.879C46.459,38.316 45.696,38 44.9,38L44.896,38ZM13.166,21.886C12.911,21.818 12.676,21.687 12.484,21.505C12.292,21.322 12.149,21.095 12.068,20.842C11.995,20.449 12.065,20.043 12.266,19.697C12.466,19.351 12.783,19.089 13.16,18.956C14.216,18.515 15.083,17.717 15.611,16.702C16.139,15.686 16.294,14.518 16.048,13.4C15.854,12.498 15.872,11.563 16.1,10.668C16.395,9.491 17.03,8.426 17.926,7.608C18.823,6.79 19.941,6.254 21.14,6.068C21.458,6.024 21.779,6.001 22.1,6C23.354,5.987 24.583,6.342 25.637,7.021C26.69,7.7 27.521,8.673 28.026,9.82C28.431,10.775 29.071,11.61 29.888,12.248C30.705,12.886 31.671,13.305 32.694,13.466C33.642,13.689 34.486,14.228 35.087,14.994C35.687,15.76 36.009,16.709 35.998,17.682C35.987,18.656 35.645,19.597 35.028,20.35C34.41,21.103 33.555,21.623 32.602,21.824C32.269,21.9 31.928,21.941 31.586,21.948C28.49,22.004 16.148,22.016 13.632,21.948C13.475,21.945 13.319,21.924 13.166,21.886L13.166,21.886Z" fill="#374957"/>
</svg>
