<svg width="48" height="48" viewBox="0 0 48 48" fill="none" xmlns="http://www.w3.org/2000/svg" xmlns:xlink="http://www.w3.org/1999/xlink">
<path d="M24,0C19.253,0 14.613,1.408 10.666,4.045C6.72,6.682 3.643,10.43 1.827,14.816C0.01,19.201 -0.465,24.027 0.461,28.682C1.387,33.338 3.673,37.614 7.029,40.971C10.386,44.327 14.662,46.613 19.318,47.539C23.973,48.465 28.799,47.99 33.184,46.173C37.57,44.357 41.318,41.28 43.955,37.334C46.592,33.387 48,28.747 48,24C47.993,17.637 45.462,11.536 40.963,7.037C36.464,2.538 30.363,0.007 24,0L24,0ZM40.83,17.672L25.83,20.588C25.742,20.418 25.644,20.254 25.568,20.078L19.694,6.542C23.969,5.464 28.492,6.005 32.394,8.059C36.295,10.113 39.3,13.537 40.83,17.672ZM6,24C6.002,21.005 6.752,18.058 8.182,15.426C9.612,12.795 11.677,10.562 14.188,8.93L20.064,22.466C21.044,24.727 22.583,26.7 24.538,28.2L36.248,37.162C33.687,39.558 30.482,41.153 27.026,41.749C23.57,42.345 20.016,41.917 16.8,40.518C13.584,39.119 10.848,36.81 8.929,33.874C7.01,30.939 5.992,27.507 6,24L6,24ZM39.908,32.4L31.12,25.672L41.978,23.562C41.978,23.708 42,23.852 42,24C42.001,26.929 41.283,29.814 39.908,32.4L39.908,32.4Z" fill="#374957"/>
</svg>
