<svg width="48" height="48" viewBox="0 0 48 48" fill="none" xmlns="http://www.w3.org/2000/svg" xmlns:xlink="http://www.w3.org/1999/xlink">
<path d="M30.001,48L18.001,48L18.001,40.974C15.915,40.236 13.984,39.12 12.303,37.682L6.215,41.2L0.215,30.8L6.301,27.29C5.901,25.115 5.901,22.885 6.301,20.71L0.215,17.2L6.215,6.8L12.303,10.318C13.984,8.88 15.915,7.764 18.001,7.026L18.001,0L30.001,0L30.001,7.026C32.086,7.764 34.018,8.88 35.699,10.318L41.787,6.8L47.787,17.2L41.701,20.71C42.101,22.885 42.101,25.115 41.701,27.29L47.787,30.8L41.787,41.2L35.699,37.684C34.018,39.121 32.086,40.237 30.001,40.974L30.001,48ZM22.001,44L26.001,44L26.001,37.946L27.503,37.558C29.967,36.92 32.21,35.62 33.989,33.8L35.075,32.694L40.321,35.724L42.321,32.26L37.081,29.234L37.493,27.742C38.17,25.288 38.17,22.696 37.493,20.242L37.081,18.75L42.321,15.724L40.321,12.26L35.075,15.298L33.989,14.2C32.209,12.383 29.966,11.086 27.503,10.45L26.001,10.054L26.001,4L22.001,4L22.001,10.054L20.499,10.442C18.035,11.08 15.792,12.38 14.013,14.2L12.927,15.306L7.681,12.268L5.681,15.732L10.921,18.758L10.509,20.25C9.832,22.704 9.832,25.296 10.509,27.75L10.921,29.242L5.681,32.268L7.681,35.732L12.927,32.702L14.013,33.808C15.793,35.625 18.036,36.922 20.499,37.558L22.001,37.946L22.001,44ZM24.001,32C22.419,32 20.872,31.531 19.556,30.652C18.241,29.773 17.215,28.523 16.61,27.061C16.004,25.6 15.846,23.991 16.155,22.439C16.463,20.887 17.225,19.462 18.344,18.343C19.463,17.224 20.888,16.462 22.44,16.154C23.992,15.845 25.6,16.003 27.062,16.609C28.524,17.214 29.774,18.24 30.653,19.555C31.532,20.871 32.001,22.418 32.001,24C32.001,26.122 31.158,28.157 29.658,29.657C28.157,31.157 26.123,32 24.001,32ZM24.001,20C23.21,20 22.436,20.235 21.779,20.674C21.121,21.114 20.608,21.738 20.305,22.469C20.003,23.2 19.923,24.004 20.078,24.78C20.232,25.556 20.613,26.269 21.172,26.828C21.732,27.388 22.445,27.769 23.22,27.923C23.996,28.077 24.801,27.998 25.532,27.696C26.262,27.393 26.887,26.88 27.327,26.222C27.766,25.564 28.001,24.791 28.001,24C28.001,22.939 27.579,21.922 26.829,21.172C26.079,20.421 25.062,20 24.001,20Z" fill="#374957"/>
</svg>
