<svg width="48" height="32" viewBox="0 0 48 32" fill="none" xmlns="http://www.w3.org/2000/svg" xmlns:xlink="http://www.w3.org/1999/xlink">
<path d="M42,0L6,0C4.409,0 2.883,0.633 1.757,1.758C0.632,2.883 0,4.409 0,6L0,32L48,32L48,6C48,4.409 47.368,2.883 46.243,1.758C45.117,0.633 43.591,0 42,0L42,0ZM44,28L4,28L4,6C4,5.47 4.211,4.961 4.586,4.586C4.961,4.211 5.47,4 6,4L42,4C42.53,4 43.039,4.211 43.414,4.586C43.789,4.961 44,5.47 44,6L44,28ZM24,8C22.418,8 20.871,8.47 19.555,9.349C18.24,10.228 17.214,11.477 16.609,12.939C16.003,14.401 15.845,16.009 16.154,17.561C16.462,19.113 17.224,20.538 18.343,21.657C19.462,22.776 20.887,23.538 22.439,23.847C23.991,24.155 25.6,23.997 27.061,23.391C28.523,22.786 29.773,21.761 30.652,20.445C31.531,19.129 32,17.583 32,16C32,13.879 31.157,11.844 29.657,10.344C28.157,8.843 26.122,8 24,8L24,8ZM24,20C23.209,20 22.436,19.766 21.778,19.326C21.12,18.887 20.607,18.262 20.304,17.531C20.002,16.8 19.923,15.996 20.077,15.22C20.231,14.444 20.612,13.731 21.172,13.172C21.731,12.613 22.444,12.232 23.22,12.077C23.996,11.923 24.8,12.002 25.531,12.305C26.262,12.608 26.886,13.12 27.326,13.778C27.765,14.436 28,15.209 28,16C28,17.061 27.579,18.079 26.828,18.829C26.078,19.579 25.061,20 24,20ZM12,10C12,10.396 11.883,10.783 11.663,11.112C11.443,11.441 11.131,11.697 10.765,11.848C10.4,12 9.998,12.039 9.61,11.962C9.222,11.885 8.865,11.694 8.586,11.415C8.306,11.135 8.116,10.779 8.038,10.391C7.961,10.003 8.001,9.601 8.152,9.235C8.304,8.87 8.56,8.557 8.889,8.338C9.218,8.118 9.604,8 10,8C10.53,8 11.039,8.211 11.414,8.586C11.789,8.961 12,9.47 12,10ZM40,10C40,10.396 39.883,10.783 39.663,11.112C39.443,11.441 39.131,11.697 38.765,11.848C38.4,12 37.998,12.039 37.61,11.962C37.222,11.885 36.865,11.694 36.586,11.415C36.306,11.135 36.116,10.779 36.038,10.391C35.961,10.003 36.001,9.601 36.152,9.235C36.304,8.87 36.56,8.557 36.889,8.338C37.218,8.118 37.604,8 38,8C38.53,8 39.039,8.211 39.414,8.586C39.789,8.961 40,9.47 40,10ZM12,22C12,22.396 11.883,22.783 11.663,23.112C11.443,23.44 11.131,23.697 10.765,23.848C10.4,24 9.998,24.039 9.61,23.962C9.222,23.885 8.865,23.694 8.586,23.415C8.306,23.135 8.116,22.779 8.038,22.391C7.961,22.003 8.001,21.6 8.152,21.235C8.304,20.87 8.56,20.557 8.889,20.337C9.218,20.118 9.604,20 10,20C10.53,20 11.039,20.211 11.414,20.586C11.789,20.961 12,21.47 12,22ZM40,22C40,22.396 39.883,22.783 39.663,23.112C39.443,23.44 39.131,23.697 38.765,23.848C38.4,24 37.998,24.039 37.61,23.962C37.222,23.885 36.865,23.694 36.586,23.415C36.306,23.135 36.116,22.779 36.038,22.391C35.961,22.003 36.001,21.6 36.152,21.235C36.304,20.87 36.56,20.557 36.889,20.337C37.218,20.118 37.604,20 38,20C38.53,20 39.039,20.211 39.414,20.586C39.789,20.961 40,21.47 40,22Z" fill="#374957"/>
</svg>
