<svg width="50" height="50" viewBox="0 0 50 50" fill="none" xmlns="http://www.w3.org/2000/svg" xmlns:xlink="http://www.w3.org/1999/xlink">
<path d="M46.4,1.601C45.658,0.853 44.715,0.338 43.685,0.117C42.655,-0.104 41.583,-0.021 40.6,0.357L0,16.645L0,18.001C0.009,25.955 3.173,33.58 8.797,39.204C14.421,44.828 22.046,47.992 30,48.001L31.352,48.001L47.664,7.341C48.028,6.364 48.103,5.303 47.878,4.285C47.654,3.267 47.141,2.335 46.4,1.601L46.4,1.601ZM42.02,4.091C42.282,3.99 42.568,3.969 42.843,4.03C43.117,4.091 43.367,4.231 43.562,4.433C43.76,4.618 43.899,4.856 43.964,5.119C44.029,5.382 44.017,5.657 43.928,5.913L42.576,9.281C31.16,5.369 24.748,21.533 35.644,26.559L31.86,36.001C19.102,35.941 12.058,28.895 12,16.137L42.02,4.091ZM34,18.001C34.001,17.152 34.206,16.316 34.597,15.562C34.987,14.809 35.553,14.16 36.247,13.67C36.94,13.18 37.741,12.864 38.582,12.748C39.423,12.631 40.28,12.718 41.08,13.001L37.134,22.837C36.203,22.416 35.413,21.737 34.857,20.879C34.301,20.022 34.004,19.023 34,18.001ZM28.662,43.967C22.24,43.628 16.17,40.924 11.623,36.375C7.076,31.827 4.372,25.757 4.034,19.335L8.066,17.717C8.708,31.129 16.866,39.291 30.278,39.935L28.662,43.967Z" fill="#374957"/>
</svg>
