<svg width="48" height="48" viewBox="0 0 48 48" fill="none" xmlns="http://www.w3.org/2000/svg" xmlns:xlink="http://www.w3.org/1999/xlink">
<path d="M24,48C21.878,48 19.843,47.157 18.343,45.657C16.843,44.157 16,42.122 16,40L16,32L8,32C5.878,32 3.843,31.157 2.343,29.657C0.843,28.157 0,26.122 0,24C0,21.878 0.843,19.843 2.343,18.343C3.843,16.843 5.878,16 8,16L16,16L16,8C16,5.878 16.843,3.843 18.343,2.343C19.843,0.843 21.878,0 24,0C26.122,0 28.157,0.843 29.657,2.343C31.157,3.843 32,5.878 32,8L32,16L40,16C42.122,16 44.157,16.843 45.657,18.343C47.157,19.843 48,21.878 48,24C48,26.122 47.157,28.157 45.657,29.657C44.157,31.157 42.122,32 40,32L32,32L32,40C32,42.122 31.157,44.157 29.657,45.657C28.157,47.157 26.122,48 24,48ZM8,22C7.47,22 6.961,22.211 6.586,22.586C6.211,22.961 6,23.47 6,24C6,24.53 6.211,25.039 6.586,25.414C6.961,25.789 7.47,26 8,26L19,26C19.796,26 20.559,26.316 21.121,26.879C21.684,27.441 22,28.204 22,29L22,40C22,40.53 22.211,41.039 22.586,41.414C22.961,41.789 23.47,42 24,42C24.53,42 25.039,41.789 25.414,41.414C25.789,41.039 26,40.53 26,40L26,29C26,28.204 26.316,27.441 26.879,26.879C27.441,26.316 28.204,26 29,26L40,26C40.53,26 41.039,25.789 41.414,25.414C41.789,25.039 42,24.53 42,24C42,23.47 41.789,22.961 41.414,22.586C41.039,22.211 40.53,22 40,22L29,22C28.204,22 27.441,21.684 26.879,21.121C26.316,20.559 26,19.796 26,19L26,8C26,7.47 25.789,6.961 25.414,6.586C25.039,6.211 24.53,6 24,6C23.47,6 22.961,6.211 22.586,6.586C22.211,6.961 22,7.47 22,8L22,19C22,19.796 21.684,20.559 21.121,21.121C20.559,21.684 19.796,22 19,22L8,22Z" fill="#374957"/>
</svg>
