<svg width="44" height="44" viewBox="0 0 44 44" fill="none" xmlns="http://www.w3.org/2000/svg" xmlns:xlink="http://www.w3.org/1999/xlink">
<path d="M16,32.5C15.172,32.5 14.5,33.172 14.5,34C14.5,34.828 15.172,35.5 16,35.5L28,35.5C28.828,35.5 29.5,34.828 29.5,34C29.5,33.172 28.828,32.5 28,32.5L16,32.5Z" fill="#ECF5FF"/>
<path d="M22,0.5C20.584,0.5 19.297,0.906 17.901,1.584C16.552,2.241 14.993,3.208 13.046,4.417L8.913,6.982C7.07,8.125 5.595,9.041 4.458,9.912C3.28,10.813 2.376,11.732 1.723,12.925C1.071,14.116 0.777,15.383 0.636,16.881C0.5,18.333 0.5,20.108 0.5,22.334L0.5,25.56C0.5,29.367 0.5,32.373 0.805,34.723C1.119,37.134 1.777,39.08 3.265,40.619C4.759,42.165 6.661,42.855 9.015,43.183C11.297,43.5 14.211,43.5 17.884,43.5L26.116,43.5C29.789,43.5 32.703,43.5 34.985,43.183C37.339,42.855 39.241,42.165 40.735,40.619C42.223,39.08 42.881,37.134 43.195,34.723C43.5,32.373 43.5,29.368 43.5,25.56L43.5,22.334C43.5,20.108 43.5,18.333 43.364,16.881C43.223,15.383 42.929,14.116 42.277,12.925C41.624,11.732 40.72,10.813 39.542,9.912C38.405,9.041 36.93,8.125 35.087,6.982L30.954,4.417C29.007,3.208 27.448,2.241 26.099,1.584C24.703,0.906 23.416,0.5 22,0.5ZM14.559,7.008C16.591,5.747 18.019,4.863 19.213,4.282C20.376,3.717 21.2,3.5 22,3.5C22.8,3.5 23.624,3.717 24.787,4.282C25.981,4.863 27.409,5.747 29.441,7.008L33.441,9.491C35.363,10.683 36.712,11.523 37.718,12.293C38.697,13.043 39.261,13.662 39.646,14.366C40.032,15.072 40.258,15.897 40.377,17.162C40.498,18.457 40.5,20.092 40.5,22.408L40.5,25.45C40.5,29.392 40.497,32.202 40.22,34.337C39.947,36.433 39.434,37.649 38.578,38.534C37.73,39.412 36.574,39.933 34.572,40.211C32.52,40.497 29.815,40.5 26,40.5L18,40.5C14.185,40.5 11.48,40.497 9.428,40.211C7.426,39.933 6.27,39.412 5.422,38.534C4.566,37.649 4.053,36.433 3.78,34.337C3.503,32.202 3.5,29.392 3.5,25.45L3.5,22.408C3.5,20.092 3.502,18.457 3.623,17.162C3.742,15.897 3.968,15.072 4.354,14.366C4.739,13.662 5.303,13.043 6.282,12.293C7.288,11.523 8.637,10.683 10.559,9.491L14.559,7.008Z" clip-rule="evenodd" fill-rule="evenodd" fill="#ECF5FF"/>
</svg>
