<svg width="48" height="48" viewBox="0 0 48 48" fill="none" xmlns="http://www.w3.org/2000/svg" xmlns:xlink="http://www.w3.org/1999/xlink">
<path d="M45.832,1.382C45.154,0.818 44.359,0.412 43.506,0.191C42.652,-0.029 41.76,-0.059 40.894,0.106L16.896,4.6C15.519,4.857 14.276,5.589 13.382,6.666C12.488,7.744 11.999,9.101 12,10.502L12,33.112C10.789,32.392 9.409,32.008 8,32C6.418,32 4.871,32.469 3.555,33.348C2.24,34.227 1.214,35.476 0.609,36.938C0.003,38.4 -0.155,40.009 0.154,41.56C0.462,43.112 1.224,44.538 2.343,45.657C3.462,46.775 4.887,47.537 6.439,47.846C7.991,48.155 9.6,47.996 11.061,47.391C12.523,46.785 13.773,45.76 14.652,44.444C15.531,43.129 16,41.582 16,40L16,18.84L44,13.6L44,27.122C42.79,26.398 41.409,26.011 40,26C38.418,26 36.871,26.469 35.555,27.348C34.24,28.227 33.214,29.476 32.609,30.938C32.003,32.4 31.845,34.009 32.154,35.56C32.462,37.112 33.224,38.538 34.343,39.657C35.462,40.775 36.887,41.537 38.439,41.846C39.991,42.155 41.6,41.996 43.061,41.391C44.523,40.785 45.773,39.76 46.652,38.444C47.531,37.129 48,35.582 48,34L48,6C48,5.118 47.806,4.247 47.431,3.449C47.057,2.651 46.511,1.945 45.832,1.382L45.832,1.382ZM8,44C7.209,44 6.436,43.765 5.778,43.326C5.12,42.886 4.607,42.261 4.304,41.53C4.002,40.8 3.923,39.995 4.077,39.219C4.231,38.443 4.612,37.731 5.172,37.171C5.731,36.612 6.444,36.231 7.22,36.077C7.996,35.922 8.8,36.001 9.531,36.304C10.262,36.607 10.886,37.12 11.326,37.777C11.765,38.435 12,39.209 12,40C12,41.061 11.579,42.078 10.828,42.828C10.078,43.578 9.061,44 8,44ZM16,14.772L16,10.502C16,10.035 16.163,9.584 16.46,9.225C16.758,8.866 17.172,8.622 17.63,8.536L41.63,4.036C41.919,3.981 42.216,3.991 42.501,4.065C42.785,4.138 43.05,4.274 43.276,4.461C43.502,4.649 43.685,4.884 43.81,5.15C43.935,5.416 44,5.706 44,6L44,9.52L16,14.772ZM40,38C39.209,38 38.436,37.765 37.778,37.326C37.12,36.886 36.607,36.261 36.304,35.53C36.002,34.8 35.923,33.995 36.077,33.219C36.231,32.443 36.612,31.731 37.172,31.171C37.731,30.612 38.444,30.231 39.22,30.077C39.996,29.922 40.8,30.001 41.531,30.304C42.262,30.607 42.886,31.12 43.326,31.777C43.765,32.435 44,33.209 44,34C44,35.061 43.579,36.078 42.828,36.828C42.078,37.578 41.061,38 40,38Z" fill="#374957"/>
</svg>
