<svg width="48" height="48" viewBox="0 0 48 48" fill="none" xmlns="http://www.w3.org/2000/svg" xmlns:xlink="http://www.w3.org/1999/xlink">
<path d="M42.001,14C41.159,13.998 40.326,14.173 39.556,14.515C38.786,14.856 38.097,15.355 37.533,15.98C36.969,16.606 36.543,17.342 36.282,18.143C36.022,18.944 35.932,19.79 36.021,20.627C36.109,21.465 36.372,22.274 36.793,23.003C37.215,23.732 37.785,24.364 38.467,24.858C39.148,25.352 39.926,25.697 40.75,25.871C41.574,26.045 42.425,26.043 43.249,25.866C42.022,30.71 39.317,35.051 35.509,38.286C31.7,41.521 26.979,43.489 22.001,43.916L22.001,39.858C25.329,39.523 28.52,38.36 31.282,36.473C34.044,34.586 36.289,32.037 37.811,29.058C36.077,28.264 34.608,26.989 33.577,25.384C32.547,23.78 32,21.913 32,20.006C32,18.099 32.547,16.232 33.577,14.628C34.608,13.023 36.077,11.748 37.811,10.954C36.24,7.856 33.89,5.22 30.992,3.306C28.094,1.392 24.747,0.266 21.281,0.038C17.815,-0.189 14.35,0.49 11.226,2.008C8.102,3.527 5.428,5.833 3.466,8.699C1.504,11.565 0.323,14.893 0.038,18.355C-0.247,21.816 0.375,25.292 1.841,28.441C3.308,31.589 5.57,34.301 8.403,36.31C11.236,38.319 14.544,39.556 18,39.898L18,48L20.001,48C27.424,47.992 34.541,45.039 39.791,39.79C45.04,34.541 47.993,27.424 48.001,20C48.001,18.409 47.368,16.882 46.243,15.757C45.118,14.632 43.592,14 42.001,14ZM20.001,16C20.792,16 21.565,16.234 22.223,16.674C22.881,17.113 23.393,17.738 23.696,18.469C23.999,19.2 24.078,20.004 23.924,20.78C23.769,21.556 23.388,22.269 22.829,22.828C22.27,23.388 21.557,23.769 20.781,23.923C20.005,24.077 19.201,23.998 18.47,23.695C17.739,23.393 17.114,22.88 16.675,22.222C16.235,21.564 16,20.791 16,20C16,18.939 16.422,17.922 17.172,17.171C17.922,16.421 18.94,16 20.001,16L20.001,16Z" fill="#374957"/>
</svg>
