<svg width="48" height="48" viewBox="0 0 48 48" fill="none" xmlns="http://www.w3.org/2000/svg" xmlns:xlink="http://www.w3.org/1999/xlink">
<path d="M48,26.747L41.274,26.747C40.834,24.376 39.304,22.382 37.225,21.308L37.225,10.346L42.351,10.346L42.351,0.001L27.615,0.001L27.615,1.755C27.432,6.545 20.566,6.541 20.385,1.755L20.385,0.001L5.649,0.001L5.649,10.347L10.775,10.347L10.775,21.308C8.696,22.382 7.165,24.376 6.726,26.747L0,26.747L0,29.56L2.413,29.56L7.274,47.998L40.726,47.998L45.587,29.56L48,29.56L48,26.747ZM8.462,7.534L8.462,2.814L17.66,2.814C18.974,9.927 29.029,9.922 30.34,2.814L39.538,2.814L39.538,7.534L34.412,7.534L34.412,20.488C34.179,20.466 33.943,20.455 33.705,20.455L31.456,20.455C27.888,15.57 20.112,15.571 16.544,20.455L14.295,20.455C14.057,20.455 13.821,20.466 13.588,20.488L13.588,7.534L8.462,7.534ZM14.295,23.268L18.047,23.268L18.461,22.618C20.951,18.587 27.05,18.588 29.539,22.618L29.953,23.268L33.705,23.268C35.91,23.268 37.779,24.736 38.384,26.747L9.616,26.747C10.221,24.737 12.09,23.268 14.295,23.268ZM38.559,45.186L9.441,45.186L5.322,29.56L42.678,29.56L38.559,45.186Z" fill="#000000"/>
</svg>
