<svg width="50" height="46" viewBox="0 0 50 46" fill="none" xmlns="http://www.w3.org/2000/svg" xmlns:xlink="http://www.w3.org/1999/xlink">
<path d="M47.8,20.789C47.014,14.741 43.956,9.219 39.245,5.345C34.535,1.47 28.527,-0.465 22.441,-0.069C16.355,0.327 10.648,3.026 6.48,7.478C2.312,11.93 -0.005,17.802 0,23.901C-0.011,27.156 0.652,30.378 1.946,33.365C3.241,36.352 5.139,39.039 7.522,41.257C9.467,43.052 12.026,44.034 14.672,44.001L33.316,44.001C36.102,44.008 38.779,42.922 40.772,40.977C43.441,38.396 45.467,35.225 46.688,31.719C47.908,28.212 48.289,24.469 47.8,20.789ZM36.586,36.677C35.711,37.529 34.537,38.004 33.316,38.001L14.672,38.001C13.555,38.024 12.47,37.626 11.632,36.887C9.849,35.227 8.428,33.217 7.458,30.982C6.489,28.748 5.993,26.337 6,23.901C6.014,19.144 7.915,14.588 11.286,11.232C14.656,7.876 19.22,5.995 23.976,6.001C24.684,6.001 25.392,6.041 26.096,6.121C30.06,6.584 33.757,8.35 36.609,11.142C39.46,13.934 41.303,17.594 41.85,21.547C42.216,24.304 41.931,27.109 41.017,29.737C40.103,32.364 38.587,34.741 36.588,36.677L36.586,36.677ZM18.106,28.971C18.645,29.556 18.928,30.332 18.895,31.127C18.861,31.922 18.513,32.671 17.927,33.21C17.341,33.748 16.566,34.032 15.771,33.998C14.976,33.964 14.227,33.616 13.688,33.031C11.314,30.453 9.997,27.077 10,23.573C10.022,20.124 11.35,16.811 13.716,14.302C16.083,11.793 19.312,10.274 22.754,10.051C23.547,9.985 24.334,10.238 24.941,10.753C25.548,11.267 25.926,12.002 25.991,12.796C26.056,13.589 25.804,14.375 25.289,14.983C24.774,15.59 24.039,15.967 23.246,16.033C21.301,16.118 19.464,16.949 18.115,18.353C16.766,19.757 16.009,21.626 16,23.573C15.999,25.573 16.751,27.5 18.106,28.971L18.106,28.971ZM37.882,25.387C37.514,28.244 36.267,30.916 34.312,33.033C33.773,33.618 33.024,33.966 32.228,33.999C31.433,34.033 30.657,33.748 30.071,33.21C29.485,32.671 29.137,31.921 29.104,31.126C29.071,30.33 29.355,29.554 29.894,28.969C31.01,27.764 31.723,26.243 31.934,24.615C32.055,23.842 32.473,23.148 33.099,22.679C33.725,22.21 34.509,22.004 35.284,22.104C36.059,22.205 36.765,22.604 37.25,23.217C37.735,23.831 37.962,24.609 37.882,25.387L37.882,25.387ZM27.972,24.271C27.924,25.039 27.655,25.777 27.198,26.396C26.741,27.016 26.115,27.49 25.394,27.762C24.674,28.035 23.891,28.093 23.138,27.931C22.386,27.769 21.696,27.394 21.152,26.849C20.607,26.305 20.231,25.615 20.069,24.862C19.907,24.11 19.966,23.326 20.238,22.606C20.511,21.886 20.985,21.26 21.604,20.803C22.224,20.345 22.962,20.077 23.73,20.029L28.878,14.879C29.441,14.316 30.204,14 31,14C31.796,14 32.559,14.316 33.122,14.879C33.685,15.441 34.001,16.205 34.001,17.001C34.001,17.796 33.685,18.56 33.122,19.123L27.972,24.271Z" fill="#374957"/>
</svg>
