<svg width="40" height="48" viewBox="0 0 40 48" fill="none" xmlns="http://www.w3.org/2000/svg" xmlns:xlink="http://www.w3.org/1999/xlink">
<path d="M28,23C28,23.796 27.684,24.559 27.121,25.121C26.559,25.684 25.796,26 25,26L24,26L24,32C24,32.202 23.98,32.403 23.94,32.6C23.821,33.752 23.371,34.845 22.643,35.747C21.915,36.648 20.942,37.319 19.84,37.677C18.739,38.036 17.557,38.068 16.438,37.769C15.319,37.469 14.311,36.851 13.536,35.99C12.761,35.129 12.253,34.062 12.073,32.918C11.892,31.774 12.048,30.602 12.52,29.544C12.993,28.487 13.762,27.589 14.735,26.96C15.707,26.331 16.842,25.997 18,26L18,25C18,23.674 18.527,22.402 19.464,21.465C20.402,20.527 21.674,20 23,20L25,20C25.796,20 26.559,20.316 27.121,20.879C27.684,21.441 28,22.204 28,23ZM40,16.314L40,37C39.996,39.916 38.836,42.712 36.774,44.774C34.712,46.836 31.916,47.996 29,48L11,48C8.084,47.996 5.288,46.836 3.226,44.774C1.164,42.712 0.004,39.916 0,37L0,11C0.004,8.084 1.164,5.288 3.226,3.226C5.288,1.164 8.084,0.004 11,0L23.686,0C25.131,-0.004 26.563,0.279 27.898,0.832C29.233,1.385 30.445,2.197 31.464,3.222L36.778,8.536C37.803,9.555 38.615,10.767 39.168,12.102C39.721,13.437 40.004,14.869 40,16.314L40,16.314ZM34,37L34,18L26,18C24.939,18 23.922,17.579 23.172,16.828C22.421,16.078 22,15.061 22,14L22,6L11,6C9.674,6 8.402,6.527 7.464,7.465C6.527,8.402 6,9.674 6,11L6,37C6,38.326 6.527,39.598 7.464,40.536C8.402,41.473 9.674,42 11,42L29,42C30.326,42 31.598,41.473 32.536,40.536C33.473,39.598 34,38.326 34,37Z" fill="#374957"/>
</svg>
