<svg width="48" height="48" viewBox="0 0 48 48" fill="none" xmlns="http://www.w3.org/2000/svg" xmlns:xlink="http://www.w3.org/1999/xlink">
<path d="M14,0L22,0L22,10L14,10L14,0ZM0,22L10,22L10,14L0,14L0,22ZM22,22L22,14L14,14L14,22L22,22ZM10,34L10,26L0,26L0,34L10,34ZM34,22L34,14L26,14L26,22L34,22ZM38,10L48,10L48,6C48,4.409 47.368,2.883 46.243,1.757C45.117,0.632 43.591,0 42,0L38,0L38,10ZM22,26L14,26L14,34L22,34L22,26ZM26,0L26,10L34,10L34,0L26,0ZM48,26L38,26L38,34L48,34L48,26ZM22,48L22,38L14,38L14,48L22,48ZM10,10L10,0L6,0C4.409,0 2.883,0.632 1.757,1.757C0.632,2.883 0,4.409 0,6L0,10L10,10ZM10,38L0,38L0,48L10,48L10,38ZM38,14L38,22L48,22L48,14L38,14ZM34,38L26,38L26,48L34,48L34,38ZM26,26L26,34L34,34L34,26L26,26ZM38,38L38,48L48,48L48,38L38,38Z" fill="#374957"/>
</svg>
