<svg width="36" height="48" viewBox="0 0 36 48" fill="none" xmlns="http://www.w3.org/2000/svg" xmlns:xlink="http://www.w3.org/1999/xlink">
<path d="M10,40.298L10,48L26,48L26,40.63C25.961,38.925 26.285,37.232 26.951,35.662C27.617,34.092 28.61,32.682 29.864,31.526C32.6,29.128 34.544,25.957 35.442,22.432C36.34,18.906 36.149,15.192 34.893,11.777C33.637,8.363 31.377,5.409 28.409,3.305C25.441,1.201 21.905,0.046 18.268,-0.008C14.63,-0.063 11.061,0.987 8.032,3.001C5.003,5.016 2.655,7.901 1.298,11.276C-0.059,14.651 -0.361,18.359 0.431,21.91C1.223,25.46 3.073,28.687 5.736,31.166C7.04,32.31 8.093,33.712 8.827,35.284C9.561,36.856 9.96,38.564 10,40.298L10,40.298ZM22,44L14,44L14,40.298C14,40.198 13.986,40.098 13.984,40L22.032,40C22.032,40.21 22,40.418 22,40.63L22,44ZM4.12,16.15C4.417,13.906 5.254,11.768 6.559,9.919C7.863,8.069 9.597,6.564 11.611,5.531C13.625,4.499 15.859,3.97 18.122,3.99C20.385,4.01 22.61,4.578 24.605,5.646C26.601,6.714 28.307,8.25 29.579,10.122C30.851,11.994 31.65,14.147 31.907,16.396C32.165,18.644 31.874,20.922 31.058,23.033C30.243,25.144 28.928,27.026 27.226,28.518C25,30.511 23.406,33.112 22.64,36L20,36L20,21.632C21.166,21.22 22.176,20.458 22.892,19.449C23.608,18.441 23.995,17.236 24,16L20,16C20,16.53 19.789,17.039 19.414,17.414C19.039,17.789 18.53,18 18,18C17.469,18 16.961,17.789 16.586,17.414C16.21,17.039 16,16.53 16,16L12,16C12.005,17.236 12.392,18.441 13.108,19.449C13.824,20.458 14.834,21.22 16,21.632L16,36L13.356,36C12.454,33.018 10.762,30.336 8.46,28.238C6.819,26.72 5.568,24.829 4.812,22.724C4.057,20.62 3.819,18.365 4.12,16.15L4.12,16.15Z" fill="#374957"/>
</svg>
