<svg width="48" height="50" viewBox="0 0 48 50" fill="none" xmlns="http://www.w3.org/2000/svg" xmlns:xlink="http://www.w3.org/1999/xlink">
<path d="M14,42.001L14,48.001L10,48.001L10,42.001L4,42.001L4,48.001L0,48.001L0,30.001L4,30.001L4,38.001L10,38.001C11.061,38.001 12.078,38.423 12.828,39.173C13.579,39.923 14,40.94 14,42.001ZM44,38.001L38,38.001C36.939,38.001 35.922,38.423 35.172,39.173C34.421,39.923 34,40.94 34,42.001L34,48.001L38,48.001L38,42.001L44,42.001L44,48.001L48,48.001L48,30.001L44,30.001L44,38.001ZM48,19.093L48,26.001L26,26.001L26,48.001L22,48.001L22,26.001L0,26.001L0,19.093C0.002,18.148 0.226,17.216 0.654,16.373C1.083,15.53 1.703,14.8 2.466,14.241L20.466,1.151C21.492,0.405 22.728,0.003 23.996,0.003C25.264,0.003 26.5,0.405 27.526,1.151L45.526,14.241C46.29,14.799 46.912,15.529 47.342,16.372C47.772,17.215 47.997,18.147 48,19.093ZM40,19.417C40.002,18.236 39.654,17.081 39,16.097L24,0.251L9,16.097C8.346,17.081 7.998,18.236 8,19.417L8,22.001L12,22.001L12,19.417C12,19.072 12.09,18.732 12.26,18.431L22,8.167L22,22.001L26,22.001L26,8.167L35.74,18.431C35.91,18.732 36,19.072 36,19.417L36,22.001L40,22.001L40,19.417Z" fill="#374957"/>
</svg>
