<svg width="48" height="50" viewBox="0 0 48 50" fill="none" xmlns="http://www.w3.org/2000/svg" xmlns:xlink="http://www.w3.org/1999/xlink">
<path d="M48,26.002L0,26.002L0,22.002L48,22.002L48,26.002ZM17.772,0.856L17.572,0.72C16.814,0.265 15.948,0.019 15.064,0.008C14.18,-0.004 13.308,0.22 12.539,0.655C11.769,1.09 11.129,1.722 10.683,2.486C10.237,3.249 10.001,4.117 10,5.002L10,18.002L39.832,18.002L17.772,0.856ZM17.572,47.284L39.832,30.002L10,30.002L10,43.002C9.996,43.888 10.229,44.759 10.674,45.526C11.119,46.293 11.76,46.927 12.531,47.364C13.303,47.8 14.177,48.023 15.063,48.01C15.949,47.996 16.816,47.747 17.574,47.288L17.572,47.284Z" fill="#374957"/>
</svg>
