<svg width="48" height="50" viewBox="0 0 48 50" fill="none" xmlns="http://www.w3.org/2000/svg" xmlns:xlink="http://www.w3.org/1999/xlink">
<path d="M35,48C18.702,48.46 -10.154,19.57 3.726,3.876C3.776,3.828 5.908,1.968 5.908,1.968C7.228,0.692 8.996,-0.014 10.832,0.001C12.668,0.017 14.424,0.752 15.722,2.05L20.028,6.688C21.295,8.013 21.996,9.78 21.982,11.613C21.967,13.446 21.238,15.202 19.95,16.506L19.172,17.294C21.485,22.412 25.575,26.517 30.684,28.848L31.504,28.048C32.837,26.777 34.608,26.069 36.449,26.069C38.291,26.069 40.061,26.777 41.394,28.048L45.87,32.2C47.198,33.493 47.96,35.26 47.991,37.113C48.021,38.966 47.317,40.756 46.032,42.092C46.032,42.092 44.172,44.226 44.124,44.276C42.925,45.469 41.501,46.412 39.935,47.051C38.369,47.691 36.692,48.013 35,48L35,48ZM7.9,8.2C-1.82,20.234 29.286,49.546 39.81,40.1C39.81,40.1 41.658,37.982 41.708,37.932C41.805,37.842 41.883,37.733 41.936,37.611C41.989,37.49 42.016,37.359 42.016,37.226C42.016,37.094 41.989,36.963 41.936,36.841C41.883,36.72 41.805,36.61 41.708,36.52L37.232,32.372C36.632,31.872 36.296,31.866 35.736,32.292L33.466,34.526C33.056,34.929 32.539,35.206 31.977,35.324C31.414,35.442 30.829,35.395 30.292,35.19C26.302,33.706 22.677,31.381 19.664,28.373C16.65,25.365 14.319,21.744 12.828,17.756C12.61,17.215 12.555,16.621 12.67,16.049C12.784,15.477 13.063,14.95 13.472,14.534L15.69,12.28C15.791,12.191 15.873,12.082 15.929,11.959C15.985,11.837 16.015,11.704 16.017,11.569C16.018,11.434 15.992,11.301 15.939,11.177C15.885,11.053 15.807,10.942 15.708,10.85L11.4,6.212C11.207,6.058 10.964,5.981 10.717,5.996C10.47,6.011 10.238,6.116 10.064,6.292C10.018,6.342 7.9,8.2 7.9,8.2ZM47.3,21.866C48.149,18.93 48.195,15.821 47.433,12.861C46.671,9.901 45.13,7.2 42.969,5.039C40.808,2.878 38.107,1.336 35.147,0.574C32.188,-0.188 29.078,-0.142 26.142,0.706C25.765,0.819 25.413,1.005 25.107,1.253C24.802,1.502 24.548,1.808 24.361,2.155C24.173,2.502 24.056,2.882 24.016,3.274C23.975,3.666 24.013,4.062 24.125,4.439C24.238,4.817 24.424,5.168 24.672,5.474C24.921,5.78 25.227,6.034 25.574,6.221C25.921,6.408 26.301,6.525 26.693,6.566C27.085,6.606 27.481,6.569 27.858,6.456C29.757,5.913 31.766,5.888 33.677,6.384C35.589,6.879 37.333,7.876 38.729,9.273C40.125,10.669 41.123,12.413 41.618,14.325C42.113,16.237 42.087,18.246 41.544,20.144C41.432,20.522 41.395,20.918 41.435,21.31C41.476,21.702 41.593,22.082 41.781,22.429C41.969,22.775 42.223,23.081 42.529,23.33C42.835,23.578 43.186,23.764 43.564,23.876C43.843,23.958 44.132,24 44.422,24C45.068,24 45.696,23.79 46.214,23.404C46.731,23.018 47.11,22.475 47.294,21.856L47.3,21.866ZM36.128,22.132C36.407,21.854 36.628,21.523 36.779,21.159C36.93,20.795 37.008,20.404 37.008,20.01C37.008,19.616 36.93,19.226 36.779,18.862C36.628,18.498 36.407,18.167 36.128,17.888L34,15.758L34,13C34,12.205 33.684,11.441 33.122,10.879C32.559,10.316 31.796,10 31,10C30.205,10 29.442,10.316 28.879,10.879C28.316,11.441 28,12.205 28,13L28,17C28,17.394 28.077,17.784 28.228,18.149C28.379,18.513 28.6,18.843 28.878,19.122L31.878,22.122C32.157,22.401 32.488,22.622 32.852,22.773C33.216,22.924 33.606,23.002 34,23.002C34.394,23.002 34.785,22.924 35.149,22.773C35.513,22.622 35.844,22.401 36.122,22.122L36.128,22.132Z" fill="#374957"/>
</svg>
