<svg width="48" height="48" viewBox="0 0 48 48" fill="none" xmlns="http://www.w3.org/2000/svg" xmlns:xlink="http://www.w3.org/1999/xlink">
<path d="M19.924,16L15.286,0L20.8,0C21.878,0 22.936,0.29 23.863,0.841C24.79,1.391 25.552,2.181 26.068,3.128L32.538,16L19.924,16ZM42,20L9.974,20L4.8,14.822C4.324,14.321 3.681,14.013 2.992,13.958C2.304,13.903 1.619,14.105 1.07,14.524C0.521,14.943 0.146,15.55 0.018,16.228C-0.111,16.907 0.016,17.609 0.374,18.2L6.814,30L21.11,30L14.038,48L20.164,48C21.222,48.004 22.261,47.726 23.175,47.194C24.089,46.662 24.845,45.896 25.364,44.974L34.538,30L48,30L48,26C48,24.409 47.368,22.883 46.243,21.757C45.117,20.632 43.591,20 42,20Z" fill="#374957"/>
</svg>
