<svg width="48" height="48" viewBox="0 0 48 48" fill="none" xmlns="http://www.w3.org/2000/svg" xmlns:xlink="http://www.w3.org/1999/xlink">
<path d="M48,6.046C48.002,6.84 47.847,7.627 47.543,8.361C47.239,9.095 46.792,9.762 46.228,10.322L39.414,17.136C38.129,18.409 37.394,20.135 37.367,21.944C37.341,23.752 38.025,25.499 39.272,26.81L36.4,29.6L18.4,11.6L21.2,8.728C22.51,9.975 24.257,10.658 26.066,10.631C27.875,10.605 29.601,9.87 30.874,8.586L37.678,1.772C38.829,0.671 40.361,0.057 41.954,0.057C43.547,0.057 45.079,0.671 46.23,1.772C46.793,2.332 47.24,2.998 47.543,3.731C47.847,4.465 48.002,5.252 48,6.046L48,6.046ZM3.826,35.362C2.9,36.276 2.289,37.462 2.08,38.746C1.871,40.031 2.074,41.348 2.662,42.51L0,45.172L2.828,48L5.49,45.338C6.651,45.925 7.969,46.129 9.254,45.92C10.538,45.711 11.723,45.099 12.638,44.174L28.736,28.076L19.924,19.264L3.826,35.362Z" fill="#374957"/>
</svg>
