<svg width="48" height="48" viewBox="0 0 48 48" fill="none" xmlns="http://www.w3.org/2000/svg" xmlns:xlink="http://www.w3.org/1999/xlink">
<path d="M24,19.999C21.993,20.001 19.988,20.142 18,20.421L18,17.879L27.218,14.063C27.288,14.035 27.358,14.003 27.418,13.969C28.183,13.583 28.837,13.006 29.315,12.294C29.793,11.582 30.08,10.759 30.148,9.904C30.217,9.049 30.064,8.191 29.705,7.413C29.346,6.634 28.792,5.96 28.098,5.457C28,5.385 19.236,0.529 19.236,0.529C18.474,0.148 17.627,-0.032 16.776,0.006C15.924,0.045 15.097,0.3 14.372,0.748C13.647,1.195 13.049,1.821 12.634,2.565C12.219,3.309 12,4.147 12,4.999L12,21.765C4.722,24.117 0,28.599 0,33.999C0,41.981 10.318,47.999 24,47.999C37.682,47.999 48,41.981 48,33.999C48,26.017 37.682,19.999 24,19.999ZM24,41.999C13.698,41.999 6,37.775 6,33.999C6,31.949 8.28,29.773 12,28.199L12,32.999C12,33.795 12.316,34.558 12.879,35.121C13.441,35.683 14.204,35.999 15,35.999C15.796,35.999 16.559,35.683 17.121,35.121C17.684,34.558 18,33.795 18,32.999L18,26.507C19.982,26.168 21.989,25.998 24,25.999C34.302,25.999 42,30.223 42,33.999C42,37.775 34.302,41.999 24,41.999ZM34,33.999C34,34.79 33.765,35.564 33.326,36.222C32.886,36.879 32.262,37.392 31.531,37.695C30.8,37.998 29.996,38.077 29.22,37.922C28.444,37.768 27.731,37.387 27.172,36.828C26.612,36.268 26.231,35.556 26.077,34.78C25.923,34.004 26.002,33.199 26.304,32.468C26.607,31.738 27.12,31.113 27.778,30.673C28.436,30.234 29.209,29.999 30,29.999C31.061,29.999 32.078,30.421 32.828,31.171C33.579,31.921 34,32.938 34,33.999Z" fill="#374957"/>
</svg>
