<svg width="48" height="48" viewBox="0 0 48 48" fill="none" xmlns="http://www.w3.org/2000/svg" xmlns:xlink="http://www.w3.org/1999/xlink">
<path d="M40.654,1.516C39.9,0.787 38.949,0.295 37.918,0.099C36.888,-0.096 35.823,0.014 34.854,0.416C33.99,0.799 33.258,1.429 32.75,2.226C32.243,3.023 31.982,3.953 32,4.898L32,45C32,45.796 32.316,46.559 32.879,47.121C33.441,47.684 34.204,48 35,48C35.796,48 36.559,47.684 37.121,47.121C37.684,46.559 38,45.796 38,45L38,40.034C50.228,30.768 51.28,11.71 40.654,1.516ZM38,31.488L38,7.488C42.982,13.272 43.424,25.444 38,31.488ZM26,3L26,15C25.995,17.923 25.006,20.76 23.191,23.052C21.377,25.345 18.844,26.959 16,27.636L16,45C16,45.796 15.684,46.559 15.121,47.121C14.559,47.684 13.796,48 13,48C12.204,48 11.441,47.684 10.879,47.121C10.316,46.559 10,45.796 10,45L10,27.636C7.156,26.959 4.623,25.345 2.809,23.052C0.994,20.76 0.005,17.923 0,15L0,3C0,2.204 0.316,1.441 0.879,0.879C1.441,0.316 2.204,0 3,0C3.796,0 4.559,0.316 5.121,0.879C5.684,1.441 6,2.204 6,3L6,15C6.005,16.32 6.383,17.612 7.091,18.726C7.799,19.841 8.807,20.732 10,21.298L10,3C10,2.204 10.316,1.441 10.879,0.879C11.441,0.316 12.204,0 13,0C13.796,0 14.559,0.316 15.121,0.879C15.684,1.441 16,2.204 16,3L16,21.298C17.193,20.732 18.201,19.841 18.909,18.726C19.617,17.612 19.995,16.32 20,15L20,3C20,2.204 20.316,1.441 20.879,0.879C21.441,0.316 22.204,0 23,0C23.796,0 24.559,0.316 25.121,0.879C25.684,1.441 26,2.204 26,3L26,3Z" fill="#374957"/>
</svg>
