<svg width="48" height="48" viewBox="0 0 48 48" fill="none" xmlns="http://www.w3.org/2000/svg" xmlns:xlink="http://www.w3.org/1999/xlink">
<path d="M23.999,-0.026L0.815,39.2C0.29,40.085 0.009,41.094 0,42.123C-0.008,43.152 0.255,44.165 0.765,45.059C1.275,45.953 2.012,46.696 2.903,47.213C3.793,47.729 4.804,48.001 5.833,48L42.165,48C43.194,48.001 44.205,47.729 45.095,47.213C45.985,46.696 46.722,45.953 47.232,45.059C47.742,44.165 48.006,43.152 47.997,42.123C47.989,41.094 47.708,40.085 47.183,39.2L23.999,-0.026ZM17.999,44L23.999,33.838L29.999,44L17.999,44ZM43.759,43.078C43.601,43.36 43.371,43.595 43.091,43.757C42.812,43.919 42.494,44.003 42.171,44L34.651,44L23.999,25.974L13.347,44L5.833,44C5.51,44.001 5.194,43.916 4.915,43.754C4.636,43.592 4.404,43.36 4.245,43.08C4.085,42.8 4.002,42.482 4.004,42.16C4.007,41.838 4.095,41.522 4.259,41.244L23.999,7.838L43.739,41.238C43.906,41.515 43.996,41.832 43.999,42.156C44.001,42.48 43.916,42.799 43.753,43.078L43.759,43.078Z" fill="#374957"/>
</svg>
