<svg width="48" height="48" viewBox="0 0 48 48" fill="none" xmlns="http://www.w3.org/2000/svg" xmlns:xlink="http://www.w3.org/1999/xlink">
<path d="M24,6L24,18L14,18L14,22L18,22L18,26L6,26L6,22L10,22L10,18L0,18L0,6C0,4.409 0.632,2.883 1.757,1.757C2.883,0.632 4.409,0 6,0L18,0C19.591,0 21.117,0.632 22.243,1.757C23.368,2.883 24,4.409 24,6ZM36,12L36,18L40,18L40,12C40,10.409 39.368,8.883 38.243,7.757C37.117,6.632 35.591,6 34,6L28,6L28,10L34,10C34.53,10 35.039,10.211 35.414,10.586C35.789,10.961 36,11.47 36,12ZM14,36L14,30L10,30L10,36C10,37.591 10.632,39.117 11.757,40.243C12.883,41.368 14.409,42 16,42L24,42L24,38L16,38C15.47,38 14.961,37.789 14.586,37.414C14.211,37.039 14,36.53 14,36ZM48,28L48,48L28,48L28,28C28,26.409 28.632,24.883 29.757,23.757C30.883,22.632 32.409,22 34,22L42,22C43.591,22 45.117,22.632 46.243,23.757C47.368,24.883 48,26.409 48,28L48,28ZM40,40C40,39.604 39.883,39.218 39.663,38.889C39.443,38.56 39.131,38.304 38.765,38.152C38.4,38.001 37.998,37.961 37.61,38.038C37.222,38.116 36.865,38.306 36.586,38.586C36.306,38.865 36.116,39.222 36.038,39.61C35.961,39.998 36.001,40.4 36.152,40.765C36.304,41.131 36.56,41.443 36.889,41.663C37.218,41.883 37.604,42 38,42C38.53,42 39.039,41.789 39.414,41.414C39.789,41.039 40,40.53 40,40Z" fill="#374957"/>
</svg>
