<svg width="48" height="48" viewBox="0 0 48 48" fill="none" xmlns="http://www.w3.org/2000/svg" xmlns:xlink="http://www.w3.org/1999/xlink">
<path d="M41.886,35.454C39.978,37.77 37.52,39.571 34.737,40.694C31.954,41.817 28.935,42.225 25.954,41.882C22.973,41.538 20.125,40.454 17.67,38.728C15.215,37.002 13.232,34.689 11.9,32L29,32C29.796,32 30.559,31.684 31.121,31.121C31.684,30.559 32,29.795 32,29C32,28.204 31.684,27.441 31.121,26.878C30.559,26.316 29.796,26 29,26L10.118,26C9.961,24.671 9.961,23.328 10.118,22L29,22C29.796,22 30.559,21.684 31.121,21.121C31.684,20.559 32,19.795 32,19C32,18.204 31.684,17.441 31.121,16.878C30.559,16.316 29.796,16 29,16L11.9,16C13.232,13.311 15.215,10.997 17.67,9.271C20.125,7.545 22.973,6.461 25.954,6.118C28.935,5.774 31.954,6.183 34.737,7.305C37.52,8.428 39.978,10.23 41.886,12.546C42.393,13.159 43.122,13.547 43.914,13.623C44.706,13.698 45.496,13.456 46.11,12.95C46.724,12.443 47.111,11.714 47.187,10.921C47.263,10.129 47.021,9.339 46.514,8.726C43.813,5.449 40.289,2.948 36.305,1.479C32.32,0.01 28.016,-0.374 23.835,0.366C19.653,1.106 15.742,2.943 12.503,5.69C9.264,8.437 6.813,11.995 5.4,16L3,16C2.204,16 1.441,16.316 0.879,16.878C0.316,17.441 0,18.204 0,19C0,19.795 0.316,20.559 0.879,21.121C1.441,21.684 2.204,22 3,22L4.102,22C4.046,22.662 4,23.324 4,24C4,24.676 4.046,25.338 4.102,26L3,26C2.204,26 1.441,26.316 0.879,26.878C0.316,27.441 0,28.204 0,29C0,29.795 0.316,30.559 0.879,31.121C1.441,31.684 2.204,32 3,32L5.4,32C6.813,36.005 9.264,39.563 12.503,42.309C15.742,45.056 19.653,46.893 23.835,47.633C28.016,48.373 32.32,47.989 36.305,46.52C40.289,45.052 43.813,42.551 46.514,39.274C47.021,38.66 47.263,37.87 47.187,37.078C47.111,36.286 46.724,35.556 46.11,35.05C45.806,34.799 45.456,34.61 45.079,34.495C44.702,34.38 44.307,34.339 43.914,34.377C43.122,34.453 42.393,34.84 41.886,35.454Z" fill="#374957"/>
</svg>
