<svg width="48" height="48" viewBox="0 0 48 48" fill="none" xmlns="http://www.w3.org/2000/svg" xmlns:xlink="http://www.w3.org/1999/xlink">
<path d="M35,48C33.366,47.922 31.751,47.617 30.2,47.094C26.177,45.721 21.812,45.721 17.788,47.094C11.188,49.454 5.74,47.136 5.988,40.738C6,31.282 14.916,22 24,22C33.084,22 42,31.282 42,40.738C42,44.05 40.786,48 35,48ZM43.688,10.028C40.96,9.702 38.488,12.284 38.06,16.948C37.194,27.964 46.674,29.398 47.942,18.126C48.368,13.464 46.416,10.354 43.688,10.028ZM0.058,18.126C1.328,29.4 10.8,27.956 9.94,16.948C9.512,12.284 7.04,9.702 4.312,10.028C1.584,10.354 -0.368,13.464 0.058,18.126ZM11.954,8.126C13.224,19.404 22.702,17.956 21.834,6.948C21.4,2.284 18.936,-0.298 16.2,0.028C13.464,0.354 11.526,3.464 11.954,8.126L11.954,8.126ZM31.688,0.028C28.96,-0.298 26.488,2.284 26.06,6.948C25.194,17.964 34.674,19.398 35.942,8.126C36.368,3.464 34.416,0.354 31.688,0.028Z" fill="#374957"/>
</svg>
