<svg width="46" height="48" viewBox="0 0 46 48" fill="none" xmlns="http://www.w3.org/2000/svg" xmlns:xlink="http://www.w3.org/1999/xlink">
<path d="M10.972,44.286L8.914,40.856C16,36.6 16,27.46 16,22C16,20.408 16.632,18.882 17.757,17.757C18.883,16.632 20.409,16 22,16C23.591,16 25.117,16.632 26.243,17.757C27.368,18.882 28,20.408 28,22L24,22C24,21.469 23.789,20.961 23.414,20.585C23.039,20.21 22.53,20 22,20C21.47,20 20.961,20.21 20.586,20.585C20.211,20.961 20,21.469 20,22C20,27.894 20,38.868 10.972,44.286ZM27.792,28.168L23.8,27.832C23.168,35.29 20.75,41.062 16.616,44.992L19.37,47.89C24.246,43.268 27.076,36.63 27.8,28.168L27.792,28.168ZM33.284,40.678L29.522,39.322C28.71,41.595 27.636,43.766 26.322,45.792L29.67,47.98C31.154,45.694 32.367,43.244 33.284,40.678L33.284,40.678ZM36,22C35.998,19.166 35.137,16.4 33.529,14.067C31.922,11.733 29.644,9.943 26.997,8.931C24.351,7.92 21.459,7.735 18.706,8.402C15.952,9.069 13.465,10.556 11.574,12.666L14.552,15.334C15.903,13.826 17.679,12.764 19.646,12.288C21.613,11.811 23.678,11.943 25.569,12.665C27.46,13.387 29.087,14.666 30.235,16.333C31.383,18 31.999,19.976 32,22C32.074,25.893 31.764,29.785 31.076,33.618L35.002,34.382C35.742,30.297 36.077,26.15 36,22L36,22ZM12,22C11.999,21.441 12.046,20.884 12.138,20.334L8.2,19.666C8.068,20.437 8.001,21.217 8,22C8,31.29 5.308,36 0,36L0,40C7.738,40 12,33.6 12,22ZM44,22C44.009,18.677 43.257,15.397 41.8,12.412L38.2,14.162C39.39,16.603 40.006,19.284 40,22C40.274,30.186 38.72,38.331 35.452,45.842L39.052,47.564C42.59,39.519 44.281,30.784 44,22L44,22ZM4,22C4.005,17.227 5.903,12.652 9.278,9.278C12.652,5.903 17.228,4.005 22,4C25.897,3.987 29.69,5.251 32.8,7.6L35.2,4.4C31.399,1.53 26.762,-0.015 22,0C16.167,0.006 10.576,2.327 6.451,6.451C2.327,10.575 0.007,16.167 0,22L0,28L4,28L4,22Z" fill="#374957"/>
</svg>
