<svg width="48" height="48" viewBox="0 0 48 48" fill="none" xmlns="http://www.w3.org/2000/svg" xmlns:xlink="http://www.w3.org/1999/xlink">
<path d="M45.648,2.352C44.119,0.891 42.086,0.076 39.972,0.076C37.858,0.076 35.825,0.891 34.296,2.352L3.222,33.426C2.198,34.445 1.386,35.656 0.833,36.99C0.28,38.325 -0.003,39.756 0,41.2L0,45C0,45.796 0.316,46.559 0.879,47.121C1.441,47.684 2.204,48 3,48L6.8,48C8.245,48.004 9.677,47.721 11.012,47.168C12.347,46.615 13.559,45.803 14.578,44.778L45.648,13.704C47.151,12.197 47.995,10.156 47.995,8.028C47.995,5.9 47.151,3.859 45.648,2.352L45.648,2.352ZM10.332,40.536C9.393,41.469 8.124,41.995 6.8,42L6,42L6,41.2C6.004,39.875 6.53,38.604 7.464,37.664L30.6,14.534L33.466,17.4L10.332,40.536ZM41.4,9.462L37.708,13.16L34.84,10.292L38.54,6.6C38.926,6.231 39.439,6.025 39.973,6.025C40.507,6.025 41.02,6.231 41.406,6.6C41.783,6.981 41.994,7.496 41.993,8.032C41.992,8.568 41.779,9.082 41.4,9.462L41.4,9.462Z" fill="#374957"/>
</svg>
