<svg width="28" height="28" viewBox="0 0 28 28" fill="none" xmlns="http://www.w3.org/2000/svg" xmlns:xlink="http://www.w3.org/1999/xlink">
<path d="M14,28C11.231,28 8.524,27.179 6.222,25.641C3.92,24.102 2.125,21.916 1.066,19.358C0.006,16.799 -0.271,13.984 0.269,11.269C0.809,8.553 2.143,6.058 4.101,4.101C6.058,2.143 8.553,0.809 11.269,0.269C13.984,-0.271 16.799,0.006 19.358,1.066C21.916,2.125 24.102,3.92 25.641,6.222C27.179,8.524 28,11.231 28,14C27.996,17.712 26.519,21.27 23.895,23.895C21.27,26.519 17.712,27.996 14,28L14,28ZM14,4C12.022,4 10.089,4.587 8.444,5.685C6.8,6.784 5.518,8.346 4.761,10.173C4.004,12 3.806,14.011 4.192,15.951C4.578,17.891 5.53,19.673 6.929,21.071C8.327,22.47 10.109,23.422 12.049,23.808C13.989,24.194 16,23.996 17.827,23.239C19.654,22.482 21.216,21.2 22.315,19.556C23.414,17.911 24,15.978 24,14C23.997,11.349 22.942,8.807 21.068,6.932C19.193,5.058 16.651,4.003 14,4L14,4Z" fill="#374957"/>
</svg>
