<svg width="40" height="48" viewBox="0 0 40 48" fill="none" xmlns="http://www.w3.org/2000/svg" xmlns:xlink="http://www.w3.org/1999/xlink">
<path d="M24.828,0L6,0C4.409,0 2.883,0.632 1.757,1.757C0.632,2.883 0,4.409 0,6L0,48L40,48L40,15.172L24.828,0ZM26,6.828L33.172,14L26,14L26,6.828ZM4,44L4,6C4,5.47 4.211,4.961 4.586,4.586C4.961,4.211 5.47,4 6,4L22,4L22,18L36,18L36,44L4,44ZM26.586,26.244L29.414,29.072L22.242,36.242C21.685,36.799 21.023,37.241 20.295,37.543C19.567,37.844 18.787,38 17.999,38C17.211,38 16.431,37.844 15.703,37.543C14.975,37.241 14.313,36.799 13.756,36.242L10.586,33.072L13.414,30.244L16.586,33.414C16.967,33.778 17.473,33.981 18,33.981C18.527,33.981 19.033,33.778 19.414,33.414L26.586,26.244Z" fill="#374957"/>
</svg>
