<svg width="44" height="48" viewBox="0 0 44 48" fill="none" xmlns="http://www.w3.org/2000/svg" xmlns:xlink="http://www.w3.org/1999/xlink">
<path d="M41.43,17.89C40.213,15.203 38.405,13.022 36.428,10.875C35.547,12.299 34.727,14.029 33.321,14.989C31.33,16.35 28.563,15.964 27.032,14.098C25.683,12.47 25.273,10.225 25.961,8.24C26.953,5.381 26.429,2.795 25.629,0L23.742,0C22.393,2.448 20.038,4.251 17.43,5.2C12.581,7.585 9.332,12.544 9.105,17.949C7.475,16.811 6.151,15.385 4.813,13.933C3.271,16.437 1.886,19.008 1.225,21.895C0.545,24.861 0.506,27.972 1.106,30.955C3.082,40.779 11.999,48 22.003,48C30.818,48 38.943,42.405 42.002,34.118C43.933,28.888 43.73,22.968 41.43,17.89ZM26.773,42.153C25.808,43.927 24.062,45.188 22,45.188C16.888,45.188 15.082,38.607 17.38,34.817L22.002,26.302L26.61,34.79C27.949,37.031 28.025,39.853 26.773,42.153ZM29.087,43.773C30.941,40.618 30.945,36.567 29.067,33.422L22.002,20.407L14.937,33.422C13.06,36.566 13.063,40.616 14.915,43.771C8.23,40.98 3.506,34.371 3.495,26.706C3.491,23.868 4.135,21.084 5.369,18.56C6.762,19.824 8.311,20.895 9.992,21.755L12.409,22.992C11.874,19.88 11.601,16.776 12.893,13.788C14.331,10.466 16.878,8.697 20.004,7.155C21.379,6.48 22.642,5.594 23.745,4.537C23.761,5.458 23.603,6.456 23.304,7.319C22.049,10.935 23.344,15.354 26.621,17.452C29.964,19.592 34.415,18.657 36.763,15.516C37.595,16.614 38.3,17.797 38.868,19.051C39.983,21.513 40.535,24.143 40.508,26.868C40.432,34.482 35.722,41.007 29.087,43.773Z" fill="#000000"/>
</svg>
