<svg width="48" height="18" viewBox="0 0 48 18" fill="none" xmlns="http://www.w3.org/2000/svg" xmlns:xlink="http://www.w3.org/1999/xlink">
<path d="M34,0.001C32.226,0.001 30.502,0.59 29.1,1.676C27.697,2.762 26.695,4.283 26.252,6.001L0,6.001L0,10.001L26.252,10.001C26.694,11.72 27.695,13.243 29.098,14.331C30.5,15.419 32.225,16.009 34,16.009C35.775,16.009 37.5,15.419 38.902,14.331C40.305,13.243 41.306,11.72 41.748,10.001L48,10.001L48,6.001L41.748,6.001C41.305,4.283 40.303,2.762 38.9,1.676C37.498,0.59 35.774,0.001 34,0.001Z" fill="#374957"/>
</svg>
