<svg width="48" height="46" viewBox="0 0 48 46" fill="none" xmlns="http://www.w3.org/2000/svg" xmlns:xlink="http://www.w3.org/1999/xlink">
<path d="M37.001,0L27.001,0C24.084,0.004 21.288,1.164 19.226,3.226C17.164,5.288 16.004,8.084 16,11L16,23.214C13.903,22.143 11.518,21.773 9.195,22.158C6.871,22.543 4.733,23.664 3.095,25.356C1.456,27.047 0.404,29.22 0.092,31.554C-0.22,33.888 0.226,36.261 1.363,38.323C2.501,40.385 4.27,42.027 6.411,43.009C8.552,43.99 10.951,44.259 13.255,43.775C15.56,43.291 17.649,42.08 19.214,40.321C20.779,38.561 21.738,36.346 21.951,34L22.001,34L22.001,11C22.001,9.674 22.527,8.403 23.465,7.465C24.403,6.527 25.674,6 27.001,6L37.001,6C38.327,6 39.598,6.527 40.536,7.465C41.474,8.403 42.001,9.674 42.001,11L42.001,23.214C39.903,22.143 37.518,21.773 35.195,22.158C32.872,22.543 30.733,23.664 29.095,25.356C27.456,27.047 26.404,29.22 26.092,31.554C25.78,33.888 26.226,36.261 27.364,38.323C28.501,40.385 30.27,42.027 32.411,43.009C34.552,43.99 36.951,44.259 39.256,43.775C41.56,43.291 43.649,42.08 45.214,40.321C46.779,38.561 47.738,36.346 47.951,34L48.001,34L48.001,11C47.997,8.084 46.837,5.288 44.775,3.226C42.713,1.164 39.917,0.004 37.001,0L37.001,0ZM11,38C10.012,38 9.045,37.707 8.223,37.158C7.4,36.608 6.759,35.827 6.381,34.914C6.003,34 5.904,32.995 6.096,32.025C6.289,31.055 6.766,30.164 7.465,29.465C8.164,28.766 9.055,28.289 10.025,28.096C10.995,27.904 12,28.003 12.914,28.381C13.827,28.759 14.608,29.4 15.158,30.223C15.707,31.045 16,32.011 16,33C16,34.326 15.474,35.598 14.536,36.536C13.598,37.474 12.326,38 11,38ZM37.001,38C36.012,38 35.045,37.707 34.223,37.158C33.4,36.608 32.76,35.827 32.381,34.914C32.003,34 31.904,32.995 32.097,32.025C32.29,31.055 32.766,30.164 33.465,29.465C34.164,28.766 35.055,28.289 36.025,28.096C36.995,27.904 38,28.003 38.914,28.381C39.828,28.759 40.608,29.4 41.158,30.223C41.707,31.045 42.001,32.011 42.001,33C42.001,34.326 41.474,35.598 40.536,36.536C39.598,37.474 38.327,38 37.001,38Z" fill="#374957"/>
</svg>
