<svg width="36" height="44" viewBox="0 0 36 44" fill="none" xmlns="http://www.w3.org/2000/svg" xmlns:xlink="http://www.w3.org/1999/xlink">
<path d="M32,40L11,40C9.297,40.005 7.65,39.387 6.371,38.263C5.091,37.139 4.267,35.586 4.052,33.896C3.838,32.207 4.249,30.497 5.207,29.089C6.165,27.681 7.605,26.672 9.256,26.252L12.132,25.51L10.364,23.126C8.827,21.068 7.997,18.568 8,16C8.022,12.972 9.189,10.064 11.266,7.861C13.343,5.657 16.176,4.32 19.197,4.117C22.218,3.915 25.205,4.862 27.557,6.769C29.909,8.676 31.453,11.402 31.88,14.4L32.08,15.872L35.576,12.376C34.679,8.558 32.411,5.203 29.204,2.947C25.996,0.691 22.071,-0.308 18.175,0.139C14.279,0.586 10.683,2.449 8.07,5.373C5.457,8.296 4.008,12.078 4,16C3.998,18.557 4.615,21.076 5.8,23.342C3.642,24.498 1.932,26.342 0.943,28.581C-0.047,30.821 -0.26,33.326 0.338,35.7C0.936,38.074 2.309,40.18 4.241,41.684C6.173,43.188 8.552,44.003 11,44L32,44C32.65,43.996 33.299,43.953 33.944,43.87C33.089,42.721 32.494,41.401 32.2,40C32.134,40 32.068,40 32,40Z" fill="#374957"/>
</svg>
