<svg width="48" height="48" viewBox="0 0 48 48" fill="none" xmlns="http://www.w3.org/2000/svg" xmlns:xlink="http://www.w3.org/1999/xlink">
<path d="M28,48C26.423,48.005 24.861,47.696 23.405,47.092C21.948,46.488 20.627,45.601 19.516,44.482C17.278,42.224 16.023,39.174 16.023,35.995C16.023,32.816 17.278,29.766 19.516,27.508L28,18.506L36.526,27.544C38.743,29.807 39.982,32.851 39.974,36.019C39.966,39.187 38.713,42.225 36.484,44.476C35.373,45.596 34.052,46.484 32.595,47.089C31.139,47.694 29.577,48.004 28,48L28,48ZM28,24.342L22.384,30.296C20.873,31.797 20.02,33.837 20.012,35.967C20.005,38.097 20.844,40.142 22.344,41.654C23.867,43.11 25.893,43.922 28,43.922C30.107,43.922 32.133,43.11 33.656,41.654L33.656,41.654C35.147,40.148 35.984,38.115 35.984,35.996C35.984,33.877 35.147,31.844 33.656,30.338L28,24.342ZM10,23.992C8.686,23.996 7.385,23.739 6.171,23.236C4.957,22.733 3.856,21.994 2.93,21.062C1.065,19.18 0.02,16.639 0.02,13.99C0.02,11.341 1.065,8.8 2.93,6.918L10,0L17.054,6.896C18.925,8.776 19.978,11.32 19.981,13.973C19.984,16.626 18.937,19.172 17.07,21.056C16.144,21.988 15.042,22.727 13.829,23.23C12.615,23.733 11.313,23.99 10,23.986L10,23.992ZM10,5.592L5.742,9.756C4.65,10.889 4.048,12.406 4.064,13.979C4.08,15.553 4.714,17.056 5.828,18.167C6.943,19.278 8.449,19.906 10.022,19.917C11.595,19.928 13.11,19.321 14.24,18.226L14.24,18.226C15.358,17.097 15.986,15.572 15.986,13.983C15.986,12.394 15.358,10.869 14.24,9.74L10,5.592ZM40,19.992C38.948,19.994 37.907,19.787 36.936,19.383C35.965,18.979 35.084,18.387 34.344,17.64C32.853,16.135 32.016,14.102 32.016,11.983C32.016,9.864 32.853,7.831 34.344,6.326L39.964,0.078L45.72,6.4C47.181,7.911 47.993,9.935 47.981,12.037C47.969,14.139 47.135,16.154 45.656,17.648L45.656,17.648C44.914,18.392 44.033,18.982 43.062,19.383C42.091,19.785 41.05,19.989 40,19.986L40,19.992ZM39.984,6.042L37.244,9.084C36.483,9.824 36.048,10.837 36.034,11.898C36.02,12.959 36.428,13.983 37.169,14.743C37.909,15.503 38.921,15.938 39.983,15.953C41.044,15.967 42.067,15.558 42.828,14.818C43.573,14.065 43.992,13.049 43.992,11.989C43.992,10.929 43.573,9.913 42.828,9.16L39.984,6.042Z" fill="#374957"/>
</svg>
