<svg width="48" height="44" viewBox="0 0 48 44" fill="none" xmlns="http://www.w3.org/2000/svg" xmlns:xlink="http://www.w3.org/1999/xlink">
<path d="M48,35.999L48,5.999C48,4.407 47.368,2.881 46.243,1.756C45.117,0.631 43.591,-0.001 42,-0.001L6,-0.001C4.409,-0.001 2.883,0.631 1.757,1.756C0.632,2.881 0,4.407 0,5.999L0,35.999L22,35.999L22,39.999L12,39.999L12,43.999L36,43.999L36,39.999L26,39.999L26,35.999L48,35.999ZM4,5.999C4,5.468 4.211,4.959 4.586,4.584C4.961,4.209 5.47,3.999 6,3.999L42,3.999C42.53,3.999 43.039,4.209 43.414,4.584C43.789,4.959 44,5.468 44,5.999L44,31.999L4,31.999L4,5.999ZM29.93,15.999L40,15.999L40,19.999L32.07,19.999L26.752,27.975L20.752,15.975L18.07,19.999L8,19.999L8,15.999L15.93,15.999L21.248,8.023L27.248,20.023L29.93,15.999Z" fill="#374957"/>
</svg>
