<svg width="48" height="48" viewBox="0 0 48 48" fill="none" xmlns="http://www.w3.org/2000/svg" xmlns:xlink="http://www.w3.org/1999/xlink">
<path d="M45.746,37.126C44.293,35.409 42.276,34.269 40.067,33.918L34.989,33.275L31.456,29.532C33.947,27.393 35.529,24.206 35.529,20.652L35.529,16.18C35.878,15.373 36.092,14.489 36.138,13.56L40.321,5.982L23.994,0L7.667,5.982L11.849,13.56C11.896,14.489 12.11,15.373 12.459,16.18L12.459,20.653C12.459,24.206 14.041,27.393 16.531,29.532L12.998,33.276L7.977,33.911L7.933,33.918C5.724,34.269 3.707,35.409 2.254,37.126C0.8,38.844 0,41.034 0,43.294L0,48L2.785,48L2.785,43.294C2.785,39.993 5.122,37.224 8.345,36.7L13.998,35.985L18.806,43.42L22.601,39.872L22.601,48L25.386,48L25.386,39.872L29.182,43.42L33.991,35.984L39.655,36.7C42.878,37.224 45.215,39.993 45.215,43.294L45.215,48L48,48L48,43.294C48,41.034 47.2,38.844 45.746,37.126ZM14.835,14.584L33.153,14.584C32.592,16.405 30.974,17.725 29.07,17.725L18.918,17.725C17.014,17.725 15.395,16.405 14.835,14.584ZM23.994,2.993L36.295,7.5L33.938,11.77L14.05,11.77L11.693,7.5L23.994,2.993ZM15.243,20.653L15.243,19.466C16.315,20.146 17.573,20.538 18.918,20.538L29.07,20.538C30.415,20.538 31.673,20.146 32.745,19.466L32.745,20.653C32.745,25.528 28.819,29.494 23.994,29.494C19.169,29.494 15.243,25.528 15.243,20.653ZM23.994,32.307C24.78,32.307 25.547,32.227 26.289,32.075L23.994,34.582L21.698,32.075C22.441,32.227 23.208,32.307 23.994,32.307ZM16.09,34.077L17.941,32.115L22.026,36.576L19.334,39.093L16.09,34.077ZM28.653,39.093L25.961,36.576L30.047,32.115L31.898,34.077L28.653,39.093Z" fill="#000000"/>
</svg>
