<svg width="48" height="46" viewBox="0 0 48 46" fill="none" xmlns="http://www.w3.org/2000/svg" xmlns:xlink="http://www.w3.org/1999/xlink">
<path d="M22,44C22,43.605 22.117,43.218 22.337,42.889C22.556,42.56 22.869,42.304 23.234,42.153C23.6,42.001 24.002,41.962 24.39,42.039C24.778,42.116 25.134,42.306 25.414,42.586C25.694,42.866 25.884,43.222 25.961,43.61C26.038,43.998 25.999,44.4 25.847,44.766C25.696,45.131 25.44,45.444 25.111,45.663C24.782,45.883 24.395,46 24,46C23.469,46 22.96,45.79 22.585,45.415C22.21,45.04 22,44.531 22,44ZM31.07,36.928C29.194,35.054 26.651,34.001 24,34.001C21.348,34.001 18.805,35.054 16.93,36.928L19.758,39.756C20.901,38.666 22.42,38.058 24,38.058C25.579,38.058 27.098,38.666 28.242,39.756L31.07,36.928ZM36.728,31.272C33.349,27.902 28.772,26.008 24,26.008C19.227,26.008 14.65,27.902 11.272,31.272L14.1,34.1C16.728,31.48 20.288,30.008 24,30.008C27.711,30.008 31.271,31.48 33.9,34.1L36.728,31.272ZM35.58,12.418C34.687,8.6 32.424,5.243 29.219,2.983C26.015,0.724 22.092,-0.28 18.196,0.162C14.3,0.604 10.702,2.461 8.085,5.381C5.468,8.3 4.014,12.079 4,16C3.998,18.557 4.615,21.076 5.8,23.342C3.642,24.499 1.932,26.343 0.943,28.582C-0.047,30.821 -0.26,33.327 0.338,35.701C0.936,38.075 2.309,40.181 4.241,41.685C6.173,43.188 8.552,44.003 11,44L18,44C18,43.894 18.026,43.8 18.032,43.688L14.344,40L11,40C9.297,40.005 7.65,39.388 6.371,38.264C5.091,37.14 4.267,35.587 4.052,33.897C3.838,32.207 4.249,30.498 5.207,29.09C6.165,27.682 7.605,26.673 9.256,26.252L12.056,25.528L12.112,25.496L10.356,23.126C8.821,21.068 7.994,18.568 8,16C8.026,12.975 9.194,10.071 11.27,7.87C13.347,5.669 16.178,4.333 19.197,4.131C22.216,3.929 25.2,4.874 27.551,6.779C29.903,8.683 31.448,11.405 31.878,14.4L32.078,15.916L33.596,16.116C36.456,16.499 39.082,17.901 40.992,20.064C42.901,22.228 43.966,25.008 43.991,27.894C44.015,30.779 42.997,33.577 41.124,35.772C39.251,37.968 36.649,39.414 33.796,39.844L29.958,43.684C29.958,43.79 29.99,43.884 29.99,43.996L31.99,43.996C35.91,43.982 39.688,42.528 42.608,39.912C45.527,37.296 47.384,33.699 47.827,29.804C48.27,25.909 47.267,21.987 45.01,18.782C42.752,15.577 39.396,13.313 35.58,12.418L35.58,12.418Z" fill="#374957"/>
</svg>
