<svg width="48" height="50" viewBox="0 0 48 50" fill="none" xmlns="http://www.w3.org/2000/svg" xmlns:xlink="http://www.w3.org/1999/xlink">
<path d="M44,36.367L44,31.999C44,30.408 43.368,28.882 42.243,27.757C41.117,26.632 39.591,25.999 38,25.999L26,25.999L26,19.799C28.428,19.304 30.586,17.924 32.054,15.928C33.523,13.932 34.198,11.462 33.949,8.996C33.7,6.531 32.545,4.245 30.706,2.584C28.868,0.922 26.478,0.001 24,0.001C21.522,0.001 19.132,0.922 17.294,2.584C15.455,4.245 14.3,6.531 14.051,8.996C13.802,11.462 14.477,13.932 15.946,15.928C17.414,17.924 19.572,19.304 22,19.799L22,25.999L10,25.999C8.409,25.999 6.883,26.632 5.757,27.757C4.632,28.882 4,30.408 4,31.999L4,36.367C2.666,36.839 1.541,37.767 0.825,38.988C0.109,40.209 -0.153,41.644 0.086,43.039C0.326,44.434 1.051,45.699 2.133,46.612C3.215,47.524 4.585,48.024 6,48.024C7.415,48.024 8.785,47.524 9.867,46.612C10.949,45.699 11.674,44.434 11.914,43.039C12.153,41.644 11.891,40.209 11.175,38.988C10.459,37.767 9.334,36.839 8,36.367L8,31.999C8,31.469 8.211,30.96 8.586,30.585C8.961,30.21 9.47,29.999 10,29.999L22,29.999L22,36.367C20.666,36.839 19.541,37.767 18.825,38.988C18.109,40.209 17.847,41.644 18.086,43.039C18.326,44.434 19.051,45.699 20.133,46.612C21.215,47.524 22.585,48.024 24,48.024C25.415,48.024 26.785,47.524 27.867,46.612C28.949,45.699 29.674,44.434 29.914,43.039C30.153,41.644 29.891,40.209 29.175,38.988C28.459,37.767 27.334,36.839 26,36.367L26,29.999L38,29.999C38.53,29.999 39.039,30.21 39.414,30.585C39.789,30.96 40,31.469 40,31.999L40,36.367C38.666,36.839 37.541,37.767 36.825,38.988C36.109,40.209 35.847,41.644 36.086,43.039C36.326,44.434 37.051,45.699 38.133,46.612C39.215,47.524 40.585,48.024 42,48.024C43.415,48.024 44.785,47.524 45.867,46.612C46.949,45.699 47.674,44.434 47.914,43.039C48.153,41.644 47.891,40.209 47.175,38.988C46.459,37.767 45.334,36.839 44,36.367Z" fill="#374957"/>
</svg>
