<svg width="48" height="48" viewBox="0 0 48 48" fill="none" xmlns="http://www.w3.org/2000/svg" xmlns:xlink="http://www.w3.org/1999/xlink">
<path d="M26,4.102L26,0L22,0L22,4.102C16.007,4.607 10.421,7.343 6.347,11.768C2.274,16.193 0.009,21.985 0,28L0,30L22,30L22,42C22,42.53 21.789,43.039 21.414,43.414C21.039,43.789 20.53,44 20,44C19.47,44 18.961,43.789 18.586,43.414C18.211,43.039 18,42.53 18,42L14,42C14,43.591 14.632,45.117 15.757,46.243C16.883,47.368 18.409,48 20,48C21.591,48 23.117,47.368 24.243,46.243C25.368,45.117 26,43.591 26,42L26,30L48,30L48,28C47.991,21.985 45.726,16.193 41.653,11.768C37.579,7.343 31.993,4.607 26,4.102L26,4.102ZM4.1,26C4.595,21.066 6.906,16.492 10.583,13.166C14.26,9.839 19.041,7.997 24,7.997C28.959,7.997 33.74,9.839 37.417,13.166C41.094,16.492 43.405,21.066 43.9,26L4.1,26Z" fill="#374957"/>
</svg>
