<svg width="48" height="24" viewBox="0 0 48 24" fill="none" xmlns="http://www.w3.org/2000/svg" xmlns:xlink="http://www.w3.org/1999/xlink">
<path d="M36,0C30.62,0 26.488,3.71 24,6.74C21.512,3.71 17.38,0 12,0C8.817,0 5.765,1.264 3.515,3.515C1.264,5.765 0,8.817 0,12C0,15.183 1.264,18.235 3.515,20.485C5.765,22.736 8.817,24 12,24C17.38,24 21.512,20.29 24,17.26C26.488,20.29 30.62,24 36,24C39.183,24 42.235,22.736 44.485,20.485C46.736,18.235 48,15.183 48,12C48,8.817 46.736,5.765 44.485,3.515C42.235,1.264 39.183,0 36,0ZM12,18C10.409,18 8.883,17.368 7.757,16.243C6.632,15.117 6,13.591 6,12C6,10.409 6.632,8.883 7.757,7.757C8.883,6.632 10.409,6 12,6C15.582,6 18.8,9.566 20.478,12C18.8,14.434 15.582,18 12,18L12,18ZM36,18C32.418,18 29.2,14.434 27.522,12C29.2,9.566 32.418,6 36,6C37.591,6 39.117,6.632 40.243,7.757C41.368,8.883 42,10.409 42,12C42,13.591 41.368,15.117 40.243,16.243C39.117,17.368 37.591,18 36,18Z" fill="#374957"/>
</svg>
