<svg width="46" height="48" viewBox="0 0 46 48" fill="none" xmlns="http://www.w3.org/2000/svg" xmlns:xlink="http://www.w3.org/1999/xlink">
<path d="M23.132,48C9.877,47.996 -0.865,37.248 -0.861,23.994C-0.858,10.739 9.89,-0.004 23.145,0C32.197,0.002 40.478,5.098 44.56,13.178C45.282,14.669 44.657,16.463 43.166,17.185C41.712,17.888 39.964,17.315 39.208,15.888C34.728,7.013 23.903,3.451 15.028,7.93C6.154,12.41 2.591,23.236 7.071,32.111C11.55,40.985 22.376,44.548 31.251,40.068C34.671,38.342 37.451,35.569 39.186,32.154C39.938,30.677 41.744,30.089 43.221,30.841C44.698,31.593 45.286,33.399 44.534,34.876C40.455,42.945 32.174,48.023 23.132,48Z" fill="#374957"/>
</svg>
