<svg width="48" height="48" viewBox="0 0 48 48" fill="none" xmlns="http://www.w3.org/2000/svg" xmlns:xlink="http://www.w3.org/1999/xlink">
<path d="M46,1.976C45.292,1.269 44.435,0.728 43.493,0.392C42.551,0.056 41.546,-0.067 40.55,0.032C35.154,0.554 16.986,2.812 9.84,9.958C6.484,13.337 4.445,17.803 4.088,22.552C3.731,27.301 5.081,32.021 7.894,35.864L0.878,42.878C0.315,43.44 -0.001,44.204 -0.001,45C-0.001,45.796 0.315,46.559 0.878,47.122C1.441,47.685 2.204,48.001 3,48.001C3.796,48.001 4.559,47.685 5.122,47.122L12.136,40.106C15.979,42.919 20.699,44.268 25.448,43.912C30.197,43.555 34.663,41.515 38.042,38.16C45.288,30.914 47.474,12.8 47.97,7.418C48.064,6.421 47.936,5.417 47.595,4.476C47.255,3.535 46.71,2.681 46,1.976L46,1.976ZM33.8,33.916C31.55,36.153 28.605,37.559 25.45,37.901C22.295,38.243 19.118,37.502 16.44,35.8L33.122,19.12C33.685,18.557 34.001,17.794 34.001,16.998C34.001,16.202 33.685,15.438 33.122,14.876C32.559,14.313 31.796,13.997 31,13.997C30.204,13.997 29.441,14.313 28.878,14.876L12.2,31.56C10.497,28.882 9.756,25.704 10.099,22.549C10.441,19.395 11.847,16.45 14.084,14.2C18.644,9.64 31.502,6.936 41.13,6C41.246,5.987 41.364,6.001 41.475,6.04C41.585,6.079 41.685,6.143 41.768,6.226C41.853,6.307 41.918,6.408 41.959,6.519C41.999,6.63 42.013,6.748 42,6.866C41.11,16.45 38.432,29.284 33.8,33.916L33.8,33.916Z" fill="#374957"/>
</svg>
