<svg width="48" height="48" viewBox="0 0 48 48" fill="none" xmlns="http://www.w3.org/2000/svg" xmlns:xlink="http://www.w3.org/1999/xlink">
<path d="M37,0L11,0C8.084,0.003 5.288,1.163 3.225,3.225C1.163,5.288 0.003,8.084 0,11L0,37C0.003,39.916 1.163,42.712 3.225,44.775C5.288,46.837 8.084,47.997 11,48L37,48C39.916,47.997 42.712,46.837 44.775,44.775C46.837,42.712 47.997,39.916 48,37L48,11C47.997,8.084 46.837,5.288 44.775,3.225C42.712,1.163 39.916,0.003 37,0L37,0ZM6,20L10,20L10,28L6,28L6,20ZM32,21L16,21L16,6L32,6L32,21ZM16,27L32,27L32,42L16,42L16,27ZM38,20L42,20L42,28L38,28L38,20ZM42,11L42,14L38,14L38,6.102C39.129,6.332 40.144,6.946 40.873,7.838C41.602,8.731 42,9.848 42,11L42,11ZM10,6.102L10,14L6,14L6,11C6,9.848 6.398,8.731 7.127,7.838C7.856,6.946 8.871,6.332 10,6.102ZM6,37L6,34L10,34L10,41.898C8.871,41.668 7.856,41.054 7.127,40.162C6.398,39.269 6,38.152 6,37ZM38,41.898L38,34L42,34L42,37C42,38.152 41.602,39.269 40.873,40.162C40.144,41.054 39.129,41.668 38,41.898L38,41.898Z" fill="#374957"/>
</svg>
