<svg width="48" height="48" viewBox="0 0 48 48" fill="none" xmlns="http://www.w3.org/2000/svg" xmlns:xlink="http://www.w3.org/1999/xlink">
<path d="M24,26.08L8,21.508L8,6.001C8,5.072 8.216,4.156 8.63,3.325C9.044,2.494 9.646,1.771 10.387,1.211C11.129,0.652 11.99,0.273 12.902,0.103C13.815,-0.067 14.755,-0.023 15.648,0.233L17.498,0.601C18.779,0.942 19.913,1.694 20.727,2.742C21.54,3.789 21.987,5.075 22,6.401L22,21.34L24,21.912L26,21.34L26,6.401C26.006,5.099 26.434,3.835 27.218,2.796C28.003,1.758 29.102,1.001 30.352,0.639L32.502,0.201C33.375,-0.036 34.29,-0.067 35.177,0.11C36.064,0.286 36.898,0.665 37.614,1.217C38.357,1.773 38.96,2.495 39.374,3.326C39.789,4.156 40.003,5.072 40,6.001L40,21.506L24,26.08ZM48,40L48,12.001C47.995,10.764 47.608,9.559 46.892,8.551C46.176,7.543 45.166,6.781 44,6.369L44,24.526L24,30.24L4,24.526L4,6.369C2.834,6.781 1.824,7.543 1.108,8.551C0.392,9.559 0.005,10.764 0,12.001L0,40L22,40L22,44L14,44L14,48L34,48L34,44L26,44L26,40L48,40Z" fill="#374957"/>
</svg>
