<svg width="50" height="48" viewBox="0 0 50 48" fill="none" xmlns="http://www.w3.org/2000/svg" xmlns:xlink="http://www.w3.org/1999/xlink">
<path d="M46.491,1.515C45.922,0.942 45.227,0.51 44.46,0.256C43.693,0.002 42.878,-0.067 42.079,0.053C30.2,1.929 19.183,7.403 10.513,15.737C8.995,17.264 7.811,19.091 7.037,21.1C6.263,23.11 5.917,25.258 6.019,27.409C6.161,30.529 7.256,33.531 9.157,36.009L0.087,45.085L2.915,47.913L11.983,38.845C14.611,40.894 17.851,42 21.183,41.987C23.395,41.977 25.583,41.52 27.614,40.642C29.645,39.765 31.477,38.485 33.001,36.881C40.933,28.249 46.135,17.463 47.951,5.881C48.068,5.09 47.996,4.282 47.743,3.524C47.489,2.765 47.06,2.077 46.491,1.515L46.491,1.515ZM10.015,27.215C9.939,25.621 10.195,24.028 10.769,22.538C11.342,21.048 12.219,19.693 13.345,18.561C14.211,17.693 15.101,16.891 16.001,16.121L16.001,29.171L12.021,33.151C10.808,31.4 10.113,29.343 10.015,27.215L10.015,27.215ZM30.109,34.117C28.204,36.193 25.621,37.521 22.825,37.861C20.028,38.201 17.202,37.532 14.855,35.973L24.829,25.999L36.323,25.999C34.545,28.918 32.462,31.639 30.109,34.117L30.109,34.117ZM43.987,5.317C43.04,11.123 41.208,16.749 38.555,21.999L28.829,21.999L35.915,14.913L33.087,12.085L20.001,25.171L20.001,13.033C26.811,8.423 34.54,5.345 42.655,4.011C42.713,4.003 42.772,3.999 42.831,3.999C42.986,3.999 43.139,4.029 43.283,4.089C43.426,4.148 43.556,4.235 43.665,4.345C43.791,4.469 43.886,4.621 43.942,4.789C43.998,4.957 44.014,5.136 43.987,5.311L43.987,5.317Z" fill="#374957"/>
</svg>
