<svg width="28" height="26" viewBox="0 0 28 26" fill="none" xmlns="http://www.w3.org/2000/svg" xmlns:xlink="http://www.w3.org/1999/xlink">
<path d="M18.242,12L26,4.234C26.503,3.661 26.77,2.918 26.746,2.156C26.721,1.394 26.408,0.67 25.869,0.131C25.329,-0.409 24.605,-0.722 23.843,-0.747C23.081,-0.771 22.338,-0.504 21.766,0L14,7.758L6.22,-0.024C5.941,-0.303 5.61,-0.524 5.246,-0.675C4.882,-0.826 4.492,-0.903 4.098,-0.903C3.704,-0.903 3.313,-0.826 2.949,-0.675C2.585,-0.524 2.254,-0.303 1.976,-0.024C1.697,0.254 1.476,0.585 1.325,0.949C1.174,1.313 1.097,1.704 1.097,2.098C1.097,2.492 1.174,2.882 1.325,3.246C1.476,3.61 1.697,3.941 1.976,4.22L9.758,12L2,19.764C1.695,20.036 1.45,20.367 1.278,20.737C1.106,21.107 1.012,21.508 1,21.916C0.989,22.324 1.061,22.73 1.212,23.109C1.362,23.489 1.589,23.833 1.878,24.122C2.166,24.41 2.511,24.637 2.89,24.788C3.269,24.939 3.675,25.01 4.083,24.999C4.491,24.988 4.892,24.893 5.262,24.721C5.633,24.549 5.964,24.304 6.236,24L14,16.242L21.756,24C22.318,24.562 23.082,24.879 23.878,24.879C24.674,24.879 25.437,24.562 26,24C26.562,23.437 26.879,22.673 26.879,21.878C26.879,21.082 26.562,20.318 26,19.756L18.242,12Z" fill="#374957"/>
</svg>
