<svg width="48" height="38" viewBox="0 0 48 38" fill="none" xmlns="http://www.w3.org/2000/svg" xmlns:xlink="http://www.w3.org/1999/xlink">
<path d="M46.148,1.683C45.6,1.456 44.996,1.397 44.414,1.512C43.832,1.628 43.298,1.914 42.878,2.333L35.456,9.757L26.122,0.423C25.843,0.145 25.513,-0.077 25.148,-0.228C24.784,-0.378 24.394,-0.456 24,-0.456C23.606,-0.456 23.216,-0.378 22.852,-0.228C22.487,-0.077 22.157,0.145 21.878,0.423L12.544,9.757L5.122,2.333C4.702,1.913 4.168,1.628 3.586,1.512C3.004,1.396 2.4,1.455 1.852,1.682C1.303,1.91 0.835,2.294 0.505,2.788C0.176,3.281 0,3.862 0,4.455L0,26.999C0.004,29.916 1.164,32.711 3.226,34.773C5.288,36.836 8.084,37.996 11,37.999L37,37.999C39.916,37.996 42.712,36.836 44.774,34.773C46.836,32.711 47.996,29.916 48,26.999L48,4.455C48,3.862 47.824,3.282 47.494,2.788C47.165,2.295 46.696,1.91 46.148,1.683L46.148,1.683ZM42,26.999C42,28.325 41.473,29.597 40.536,30.535C39.598,31.473 38.326,31.999 37,31.999L11,31.999C9.674,31.999 8.402,31.473 7.464,30.535C6.527,29.597 6,28.325 6,26.999L6,11.697L10.424,16.121C10.987,16.684 11.749,17 12.545,17C13.341,17 14.103,16.684 14.666,16.121L24,6.787L33.334,16.121C33.897,16.684 34.66,17 35.455,17C36.25,17 37.013,16.684 37.576,16.121L42,11.697L42,26.999Z" fill="#374957"/>
</svg>
