<svg width="48" height="48" viewBox="0 0 48 48" fill="none" xmlns="http://www.w3.org/2000/svg" xmlns:xlink="http://www.w3.org/1999/xlink">
<path d="M45.698,15.36L27.698,1.274C26.642,0.447 25.339,-0.002 23.998,-0.002C22.657,-0.002 21.354,0.447 20.298,1.274L2.298,15.36C1.58,15.92 0.999,16.637 0.601,17.457C0.202,18.276 -0.003,19.175 0,20.086L0,48L48,48L48,20.086C48.003,19.175 47.797,18.275 47.398,17.456C46.999,16.637 46.417,15.92 45.698,15.36ZM44,44L4,44L4,20.086C3.999,19.782 4.068,19.482 4.201,19.209C4.334,18.936 4.528,18.697 4.768,18.51L22.768,4.424C23.12,4.149 23.553,4 24,4C24.447,4 24.88,4.149 25.232,4.424L43.232,18.51C43.472,18.697 43.666,18.936 43.799,19.209C43.932,19.482 44.001,19.782 44,20.086L44,44ZM24,16.012C22.02,16.012 20.084,16.599 18.439,17.7C16.793,18.801 15.511,20.365 14.755,22.196C13.999,24.026 13.804,26.039 14.194,27.98C14.583,29.922 15.541,31.704 16.944,33.1L24,40L31.072,33.084C32.471,31.686 33.424,29.904 33.81,27.964C34.196,26.024 33.998,24.013 33.241,22.185C32.484,20.358 31.202,18.796 29.557,17.697C27.912,16.598 25.978,16.012 24,16.012ZM28.258,30.24L24,34.4L19.756,30.256C18.918,29.418 18.347,28.35 18.115,27.187C17.883,26.024 18.001,24.819 18.454,23.723C18.906,22.627 19.674,21.69 20.659,21.03C21.644,20.37 22.802,20.016 23.988,20.014C25.173,20.012 26.333,20.361 27.321,21.017C28.308,21.674 29.079,22.608 29.536,23.702C29.993,24.796 30.115,26.001 29.888,27.165C29.66,28.328 29.093,29.399 28.258,30.24ZM26,26C26,26.396 25.883,26.782 25.663,27.111C25.443,27.44 25.131,27.697 24.765,27.848C24.4,27.999 23.998,28.039 23.61,27.962C23.222,27.885 22.866,27.694 22.586,27.414C22.306,27.135 22.116,26.778 22.038,26.39C21.961,26.002 22.001,25.6 22.152,25.235C22.304,24.869 22.56,24.557 22.889,24.337C23.218,24.118 23.604,24 24,24C24.53,24 25.039,24.211 25.414,24.586C25.789,24.961 26,25.47 26,26Z" fill="#374957"/>
</svg>
