<svg width="28" height="28" viewBox="0 0 28 28" fill="none" xmlns="http://www.w3.org/2000/svg" xmlns:xlink="http://www.w3.org/1999/xlink">
<path d="M22.001,16C20.449,16.002 18.959,16.607 17.847,17.688L11.927,14.726C11.966,14.486 11.991,14.243 12.001,14C11.991,13.757 11.966,13.514 11.927,13.274L17.847,10.312C18.843,11.267 20.139,11.848 21.516,11.957C22.892,12.066 24.263,11.696 25.398,10.91C26.533,10.124 27.361,8.97 27.743,7.644C28.125,6.318 28.037,4.9 27.493,3.631C26.95,2.362 25.985,1.32 24.762,0.68C23.538,0.041 22.132,-0.156 20.78,0.123C19.428,0.401 18.214,1.139 17.343,2.21C16.472,3.281 15.998,4.62 16.001,6C16.01,6.243 16.035,6.486 16.075,6.726L10.155,9.688C9.308,8.869 8.239,8.317 7.08,8.101C5.922,7.886 4.726,8.016 3.641,8.476C2.556,8.936 1.63,9.705 0.98,10.687C0.329,11.669 -0.018,12.822 -0.018,14C-0.018,15.178 0.329,16.33 0.98,17.313C1.63,18.295 2.556,19.064 3.641,19.524C4.726,19.984 5.922,20.114 7.08,19.899C8.239,19.683 9.308,19.131 10.155,18.312L16.075,21.274C16.035,21.514 16.01,21.757 16.001,22C16.001,23.187 16.352,24.347 17.012,25.333C17.671,26.32 18.608,27.089 19.704,27.543C20.801,27.997 22.007,28.116 23.171,27.885C24.335,27.653 25.404,27.082 26.243,26.243C27.082,25.403 27.654,24.334 27.885,23.171C28.117,22.007 27.998,20.8 27.544,19.704C27.09,18.607 26.321,17.67 25.334,17.011C24.347,16.352 23.187,16 22.001,16ZM22.001,4C22.396,4 22.783,4.117 23.112,4.337C23.441,4.557 23.697,4.869 23.848,5.235C24,5.6 24.039,6.002 23.962,6.39C23.885,6.778 23.694,7.134 23.415,7.414C23.135,7.694 22.779,7.884 22.391,7.961C22.003,8.039 21.601,7.999 21.235,7.848C20.87,7.696 20.557,7.44 20.338,7.111C20.118,6.782 20.001,6.395 20.001,6C20.001,5.469 20.211,4.961 20.586,4.586C20.961,4.211 21.47,4 22.001,4ZM6.001,16C5.605,16 5.218,15.883 4.889,15.663C4.561,15.443 4.304,15.131 4.153,14.765C4.001,14.4 3.962,13.998 4.039,13.61C4.116,13.222 4.307,12.865 4.586,12.586C4.866,12.306 5.222,12.115 5.61,12.038C5.998,11.961 6.4,12.001 6.766,12.152C7.131,12.303 7.444,12.56 7.663,12.889C7.883,13.218 8.001,13.604 8.001,14C8.001,14.53 7.79,15.039 7.415,15.414C7.04,15.789 6.531,16 6.001,16ZM22.001,24C21.605,24 21.218,23.883 20.889,23.663C20.56,23.443 20.304,23.131 20.153,22.765C20.001,22.4 19.962,21.998 20.039,21.61C20.116,21.222 20.307,20.865 20.586,20.586C20.866,20.306 21.222,20.116 21.61,20.038C21.998,19.961 22.4,20.001 22.766,20.152C23.131,20.304 23.444,20.56 23.663,20.889C23.883,21.218 24.001,21.604 24.001,22C24.001,22.53 23.79,23.039 23.415,23.414C23.04,23.789 22.531,24 22.001,24Z" fill="#374957"/>
</svg>
