<svg width="40" height="50" viewBox="0 0 40 50" fill="none" xmlns="http://www.w3.org/2000/svg" xmlns:xlink="http://www.w3.org/1999/xlink">
<path d="M20,48.002C19.534,48.002 19.074,47.893 18.658,47.684L17.898,47.302C13.704,45.202 0,37.344 0,24.304L0,14.104C-0.002,11.885 0.697,9.722 1.995,7.923C3.294,6.124 5.127,4.781 7.234,4.084L19.056,0.154C19.669,-0.048 20.331,-0.048 20.944,0.154L32.766,4.074C34.873,4.771 36.706,6.114 38.005,7.913C39.303,9.712 40.002,11.875 40,14.094L40,24.294C40,39.034 26.156,45.75 21.914,47.456L21.126,47.774C20.769,47.922 20.387,47.999 20,48.002L20,48.002ZM20,6.162L9.122,9.762C8.211,10.062 7.419,10.643 6.858,11.421C6.298,12.199 5.997,13.135 6,14.094L6,24.294C6,33.508 16.286,39.704 20.136,41.694C23.936,40.078 34,34.806 34,24.294L34,14.094C34.001,13.136 33.7,12.203 33.139,11.426C32.579,10.65 31.787,10.07 30.878,9.77L20,6.162ZM23,25.002L23,13.002C23,12.206 22.684,11.443 22.121,10.88C21.559,10.318 20.796,10.002 20,10.002C19.204,10.002 18.441,10.318 17.879,10.88C17.316,11.443 17,12.206 17,13.002L17,25.002C17,25.797 17.316,26.56 17.879,27.123C18.441,27.686 19.204,28.002 20,28.002C20.796,28.002 21.559,27.686 22.121,27.123C22.684,26.56 23,25.797 23,25.002ZM20,30.002C19.407,30.002 18.827,30.178 18.333,30.507C17.84,30.837 17.455,31.306 17.228,31.854C17.001,32.402 16.942,33.005 17.058,33.587C17.173,34.169 17.459,34.704 17.879,35.123C18.298,35.543 18.833,35.828 19.415,35.944C19.997,36.06 20.6,36 21.148,35.773C21.696,35.546 22.165,35.162 22.494,34.668C22.824,34.175 23,33.595 23,33.002C23,32.206 22.684,31.443 22.121,30.88C21.559,30.318 20.796,30.002 20,30.002L20,30.002Z" fill="#374957"/>
</svg>
