<svg width="30" height="18" viewBox="0 0 30 18" fill="none" xmlns="http://www.w3.org/2000/svg" xmlns:xlink="http://www.w3.org/1999/xlink">
<path d="M28.122,1.708C27.844,1.429 27.513,1.208 27.149,1.057C26.785,0.906 26.394,0.829 26,0.829C25.606,0.829 25.216,0.906 24.852,1.057C24.488,1.208 24.157,1.429 23.878,1.708L14.706,10.878C14.519,11.065 14.264,11.171 13.999,11.171C13.734,11.171 13.48,11.065 13.292,10.878L4.122,1.708C3.56,1.145 2.797,0.829 2.001,0.829C1.205,0.829 0.442,1.144 -0.121,1.707C-0.684,2.269 -1,3.033 -1,3.828C-1,4.624 -0.684,5.387 -0.122,5.95L9.05,15.122C9.7,15.772 10.472,16.288 11.321,16.64C12.171,16.991 13.081,17.172 14,17.172C14.92,17.172 15.83,16.991 16.679,16.64C17.529,16.288 18.3,15.772 18.95,15.122L28.122,5.95C28.685,5.387 29.001,4.624 29.001,3.829C29.001,3.033 28.685,2.271 28.122,1.708Z" fill="#374957"/>
</svg>
