<svg width="48" height="48" viewBox="0 0 48 48" fill="none" xmlns="http://www.w3.org/2000/svg" xmlns:xlink="http://www.w3.org/1999/xlink">
<path d="M42,14L35.732,14C37.118,12.736 38.217,11.189 38.953,9.464C39.689,7.739 40.046,5.875 40,4L36,4C36,9.762 32.058,12.614 27.696,13.6C29.006,11.264 29.792,8.67 30,6C30,4.409 29.368,2.883 28.243,1.757C27.117,0.632 25.591,0 24,0C22.409,0 20.883,0.632 19.757,1.757C18.632,2.883 18,4.409 18,6C18.208,8.67 18.994,11.264 20.304,13.6C15.942,12.614 12,9.762 12,4L8,4C7.954,5.875 8.311,7.739 9.047,9.464C9.783,11.189 10.882,12.736 12.268,14L6,14C4.409,14 2.883,14.632 1.757,15.757C0.632,16.883 0,18.409 0,20L0,28L4,28L4,48L44,48L44,28L48,28L48,20C48,18.409 47.368,16.883 46.243,15.757C45.117,14.632 43.591,14 42,14ZM24,4C24.53,4 25.039,4.211 25.414,4.586C25.789,4.961 26,5.47 26,6C25.759,8.126 25.077,10.178 24,12.026C22.923,10.178 22.241,8.126 22,6C22,5.47 22.211,4.961 22.586,4.586C22.961,4.211 23.47,4 24,4L24,4ZM4,20C4,19.47 4.211,18.961 4.586,18.586C4.961,18.211 5.47,18 6,18L22,18L22,24L4,24L4,20ZM8,28L22,28L22,44L8,44L8,28ZM40,44L26,44L26,28L40,28L40,44ZM44,24L26,24L26,18L42,18C42.53,18 43.039,18.211 43.414,18.586C43.789,18.961 44,19.47 44,20L44,24Z" fill="#374957"/>
</svg>
