<svg width="44" height="48" viewBox="0 0 44 48" fill="none" xmlns="http://www.w3.org/2000/svg" xmlns:xlink="http://www.w3.org/1999/xlink">
<path d="M44,12L0,12L0,10C0,8.409 0.632,6.883 1.757,5.757C2.883,4.632 4.409,4 6,4L6.342,4C6.757,2.831 7.524,1.819 8.537,1.103C9.55,0.387 10.759,0.002 12,0L32,0C33.241,0.002 34.45,0.387 35.463,1.103C36.476,1.819 37.243,2.831 37.658,4L38,4C39.591,4 41.117,4.632 42.243,5.757C43.368,6.883 44,8.409 44,10L44,12ZM18,32C18.21,39.908 25.79,39.906 26,32C25.8,24.092 18.21,24.094 18,32ZM14.162,30C15.946,19.426 28.058,19.432 29.838,30L40.016,30L41.766,16L2.234,16L3.984,30L14.162,30ZM29.838,34C28.054,44.574 15.944,44.568 14.162,34L4.484,34L6.234,48L37.766,48L39.516,34L29.838,34Z" fill="#374957"/>
</svg>
