<svg width="48" height="48" viewBox="0 0 48 48" fill="none" xmlns="http://www.w3.org/2000/svg" xmlns:xlink="http://www.w3.org/1999/xlink">
<path d="M32,21.4C32,24.4 27.482,28.864 24,31.524C20.518,28.864 16,24.404 16,21.4C15.952,20.552 16.24,19.72 16.801,19.084C17.363,18.447 18.153,18.058 19,18C19.393,17.971 19.788,18.026 20.159,18.161C20.53,18.296 20.868,18.508 21.151,18.782C21.434,19.057 21.656,19.388 21.803,19.754C21.949,20.121 22.016,20.514 22,20.908L22,22L26,22L26,20.908C25.984,20.514 26.051,20.121 26.197,19.754C26.344,19.388 26.566,19.057 26.849,18.782C27.132,18.508 27.47,18.296 27.841,18.161C28.212,18.026 28.607,17.971 29,18C29.847,18.058 30.637,18.447 31.199,19.084C31.76,19.72 32.048,20.552 32,21.4L32,21.4ZM48,24L48,48L24,48C19.253,48 14.613,46.592 10.666,43.955C6.72,41.318 3.643,37.57 1.827,33.184C0.01,28.799 -0.465,23.973 0.461,19.318C1.387,14.662 3.673,10.386 7.029,7.029C10.386,3.673 14.662,1.387 19.318,0.461C23.973,-0.465 28.799,0.01 33.184,1.827C37.57,3.643 41.318,6.72 43.955,10.666C46.592,14.613 48,19.253 48,24L48,24ZM36,21.4C36.05,19.491 35.341,17.641 34.029,16.254C32.717,14.867 30.908,14.057 29,14C27.137,13.971 25.338,14.683 24,15.98C22.662,14.683 20.863,13.971 19,14C17.092,14.057 15.283,14.867 13.971,16.254C12.659,17.641 11.951,19.491 12,21.4C12,27.912 21.748,34.872 22.86,35.642L24,36.442L25.14,35.642C26.252,34.872 36,27.912 36,21.4Z" fill="#374957"/>
</svg>
