<svg width="48" height="50" viewBox="0 0 48 50" fill="none" xmlns="http://www.w3.org/2000/svg" xmlns:xlink="http://www.w3.org/1999/xlink">
<path d="M36.898,32.001C35.438,31.997 33.993,32.283 32.645,32.843C31.298,33.402 30.075,34.224 29.048,35.261C24.488,39.831 18.012,42.061 9.248,42.061L7.048,42.061C6.839,42.067 6.633,42.008 6.459,41.891C6.285,41.775 6.153,41.606 6.08,41.411C5.992,41.217 5.967,41.002 6.008,40.794C6.05,40.586 6.155,40.396 6.31,40.251L7.332,39.227C11.954,38.928 16.308,36.95 19.574,33.665L27.242,25.969C27.34,25.969 27.442,25.993 27.536,25.997C27.71,25.997 27.884,26.009 28.056,26.009C31.271,26.005 34.354,24.726 36.628,22.453L38.452,20.627C39.639,19.434 40.566,18.007 41.173,16.437C41.78,14.867 42.055,13.188 41.98,11.507C41.905,9.825 41.481,8.178 40.736,6.668C39.991,5.159 38.941,3.821 37.652,2.739C35.239,0.818 32.198,-0.137 29.121,0.059C26.043,0.255 23.149,1.589 21,3.801L19.844,4.961C18.514,6.292 17.492,7.899 16.852,9.668C16.211,11.438 15.968,13.327 16.138,15.201L8.64,22.713C5.364,25.989 3.394,30.345 3.098,34.969L2.066,36.001C1.08,36.988 0.409,38.245 0.137,39.613C-0.135,40.981 0.005,42.399 0.539,43.688C1.072,44.977 1.975,46.079 3.134,46.855C4.294,47.631 5.657,48.046 7.052,48.049L9.252,48.049C19.688,48.049 27.554,45.249 33.298,39.493C33.769,39.017 34.33,38.641 34.948,38.384C35.566,38.127 36.228,37.995 36.898,37.997C38.254,38 39.553,38.541 40.51,39.502C41.466,40.463 42.002,41.765 42,43.121L42,45.053C42,45.848 42.316,46.611 42.878,47.174C43.441,47.736 44.204,48.053 45,48.053C45.795,48.053 46.558,47.736 47.121,47.174C47.684,46.611 48,45.848 48,45.053L48,43.121C48,40.174 46.831,37.349 44.749,35.264C42.668,33.179 39.844,32.005 36.898,32.001L36.898,32.001ZM24.082,9.201L25.236,8.045C26.508,6.752 28.242,6.016 30.056,6.001C31.42,5.986 32.745,6.456 33.796,7.327C34.448,7.874 34.98,8.552 35.357,9.315C35.734,10.079 35.948,10.913 35.986,11.764C36.024,12.615 35.885,13.464 35.577,14.259C35.27,15.053 34.801,15.775 34.2,16.379L32.376,18.207C31.777,18.808 31.059,19.277 30.268,19.585C29.478,19.892 28.632,20.032 27.784,19.993C26.936,19.955 26.106,19.74 25.346,19.363C24.587,18.985 23.914,18.453 23.372,17.801C22.407,16.532 21.946,14.952 22.077,13.364C22.208,11.777 22.922,10.294 24.082,9.201ZM12.882,26.961L18.524,21.299C18.614,21.415 18.674,21.545 18.768,21.657C19.426,22.436 20.181,23.129 21.014,23.719L15.328,29.421C13.713,31.046 11.699,32.219 9.488,32.821C10.088,30.6 11.26,28.576 12.888,26.951L12.882,26.961Z" fill="#374957"/>
</svg>
