<svg width="48" height="48" viewBox="0 0 48 48" fill="none" xmlns="http://www.w3.org/2000/svg" xmlns:xlink="http://www.w3.org/1999/xlink">
<path d="M36,16.4L36,0L40,0L40,16.4L44.484,11.916L47.312,14.744L41.494,20.562C40.567,21.488 39.31,22.008 38,22.008C36.69,22.008 35.433,21.488 34.506,20.562L28.764,14.812L31.6,11.984L36,16.4ZM24,30.852C25.591,30.854 27.118,30.224 28.244,29.1L32.926,24.418C32.48,24.113 32.061,23.769 31.676,23.39L25.936,17.64C25.186,16.89 24.765,15.873 24.765,14.812C24.765,13.751 25.186,12.734 25.936,11.984L31.92,6L6,6C4.802,6.002 3.633,6.362 2.641,7.034C1.65,7.706 0.883,8.66 0.438,9.772L19.756,29.092C20.882,30.216 22.409,30.846 24,30.844L24,30.852ZM44.322,23.39C43.415,24.374 42.28,25.119 41.017,25.559C39.754,26 38.402,26.124 37.08,25.918L31.08,31.928C29.203,33.801 26.659,34.852 24.008,34.852C21.357,34.852 18.813,33.801 16.936,31.928L0,15L0,48L48,48L48,19.704L44.322,23.39Z" fill="#374957"/>
</svg>
