<svg width="48" height="48" viewBox="0 0 48 48" fill="none" xmlns="http://www.w3.org/2000/svg" xmlns:xlink="http://www.w3.org/1999/xlink">
<path d="M24,0C19.253,0 14.613,1.408 10.666,4.045C6.72,6.682 3.643,10.43 1.827,14.816C0.01,19.201 -0.465,24.027 0.461,28.682C1.387,33.338 3.673,37.614 7.029,40.971C10.386,44.327 14.662,46.613 19.318,47.539C23.973,48.465 28.799,47.99 33.184,46.173C37.57,44.357 41.318,41.28 43.955,37.334C46.592,33.387 48,28.747 48,24C47.993,17.637 45.462,11.536 40.963,7.037C36.464,2.538 30.363,0.007 24,0L24,0ZM40.072,32.058C33.797,33.632 27.189,33.24 21.144,30.934C22.104,29.623 23.229,28.442 24.492,27.42C27.284,28.471 30.243,29.012 33.226,29.02C36.095,29.014 38.942,28.517 41.644,27.552C41.325,29.118 40.796,30.633 40.072,32.058L40.072,32.058ZM24.872,6.044C28.819,10.864 31.249,16.746 31.856,22.946C30.153,22.822 28.475,22.467 26.868,21.892C26.376,16.104 23.891,10.666 19.836,6.506C21.199,6.175 22.597,6.006 24,6C24.292,6 24.576,6.03 24.864,6.044L24.872,6.044ZM41.74,21.014C40.495,21.632 39.186,22.111 37.836,22.442C37.386,17.756 36.059,13.196 33.924,9C35.978,10.362 37.731,12.131 39.074,14.198C40.417,16.264 41.321,18.584 41.732,21.014L41.74,21.014ZM13.834,9.16C14.767,9.915 15.626,10.756 16.4,11.672C12.172,14.77 8.643,18.722 6.04,23.272C6.152,20.476 6.914,17.744 8.267,15.294C9.62,12.844 11.526,10.744 13.834,9.16L13.834,9.16ZM8.422,32.976C10.305,26.523 14.21,20.844 19.562,16.776C20.317,18.64 20.772,20.612 20.908,22.618C16.272,26.294 13.084,31.491 11.908,37.29C10.531,36.04 9.356,34.585 8.422,32.976L8.422,32.976ZM17.484,40.76C17.595,39.229 17.891,37.716 18.366,36.256C22.826,38.074 27.594,39.018 32.41,39.036C32.926,39.036 33.442,39.002 33.958,38.982C31.56,40.587 28.809,41.587 25.94,41.897C23.071,42.206 20.169,41.816 17.484,40.76L17.484,40.76Z" fill="#374957"/>
</svg>
