<svg width="40" height="48" viewBox="0 0 40 48" fill="none" xmlns="http://www.w3.org/2000/svg" xmlns:xlink="http://www.w3.org/1999/xlink">
<path d="M20.001,0.014C16.044,0.014 12.176,1.188 8.886,3.388C5.597,5.587 3.033,8.713 1.521,12.37C0.009,16.027 -0.385,20.05 0.39,23.93C1.165,27.811 3.074,31.374 5.875,34.17L15.925,44L6.001,44L6.001,48L34.001,48L34.001,44L24.077,44L34.143,34.154C36.939,31.356 38.843,27.793 39.615,23.914C40.386,20.034 39.99,16.014 38.476,12.36C36.962,8.706 34.399,5.582 31.111,3.385C27.822,1.187 23.956,0.014 20.001,0.014L20.001,0.014ZM31.331,31.31L20.001,42.4L8.687,31.326C6.45,29.089 4.926,26.239 4.309,23.136C3.691,20.033 4.007,16.817 5.217,13.894C6.426,10.971 8.475,8.472 11.105,6.713C13.734,4.954 16.826,4.014 19.989,4.012C23.153,4.01 26.246,4.946 28.878,6.701C31.51,8.456 33.563,10.952 34.776,13.873C35.99,16.795 36.311,20.01 35.697,23.114C35.084,26.217 33.564,29.069 31.331,31.31L31.331,31.31ZM10.001,12.764L10.001,25.236L20.001,30.236L30.001,25.236L30.001,12.764L20.001,7.764L10.001,12.764ZM26.001,22.764L20.001,25.764L14.001,22.764L14.001,15.236L14.237,15.118L20.001,18L25.765,15.118L26.001,15.236L26.001,22.764Z" fill="#374957"/>
</svg>
