<svg width="48" height="48" viewBox="0 0 48 48" fill="none" xmlns="http://www.w3.org/2000/svg" xmlns:xlink="http://www.w3.org/1999/xlink">
<path d="M42,0L33.172,0L22,11.172L22,21.41C15.468,26.24 6.838,32.676 5.758,33.758C4.888,34.634 4.31,35.758 4.103,36.975C3.897,38.192 4.072,39.444 4.604,40.558L0,45.172L2.828,48L7.428,43.4C8.542,43.944 9.799,44.124 11.021,43.916C12.243,43.709 13.37,43.123 14.242,42.242C15.324,41.16 21.76,32.532 26.6,26L36.838,26L48,14.828L48,6C48,4.409 47.368,2.883 46.243,1.757C45.117,0.632 43.591,0 42,0L42,0ZM11.414,39.414C11.034,39.779 10.527,39.983 10,39.983C9.473,39.983 8.966,39.779 8.586,39.414C8.211,39.039 8,38.53 8,38C8,37.47 8.211,36.961 8.586,36.586C9.264,35.914 14.586,31.9 20.482,27.518C16.098,33.412 12.084,38.738 11.414,39.414L11.414,39.414ZM44,13.172L35.172,22L29.542,22L31.524,19.304L41.414,9.414L38.586,6.586L28.698,16.474L26,18.458L26,12.828L34.828,4L42,4C42.53,4 43.039,4.211 43.414,4.586C43.789,4.961 44,5.47 44,6L44,13.172Z" fill="#374957"/>
</svg>
