<svg width="36" height="48" viewBox="0 0 36 48" fill="none" xmlns="http://www.w3.org/2000/svg" xmlns:xlink="http://www.w3.org/1999/xlink">
<path d="M36,30L36,6C36,4.409 35.368,2.883 34.243,1.757C33.117,0.632 31.591,0 30,0L22,0L22,2C22,3.061 21.579,4.078 20.828,4.828C20.078,5.579 19.061,6 18,6C16.939,6 15.922,5.579 15.172,4.828C14.421,4.078 14,3.061 14,2L14,0L6,0C4.409,0 2.883,0.632 1.757,1.757C0.632,2.883 0,4.409 0,6L0,30L8,30L8,34L0,34L0,48L14,48L14,46C14,44.939 14.421,43.922 15.172,43.172C15.922,42.421 16.939,42 18,42C19.061,42 20.078,42.421 20.828,43.172C21.579,43.922 22,44.939 22,46L22,48L36,48L36,34L28,34L28,30L36,30ZM22,34L14,34L14,30L22,30L22,34Z" fill="#374957"/>
</svg>
