<svg width="48" height="48" viewBox="0 0 48 48" fill="none" xmlns="http://www.w3.org/2000/svg" xmlns:xlink="http://www.w3.org/1999/xlink">
<path d="M30,0L30,17.896C30.001,18.668 30.22,19.424 30.631,20.077C31.043,20.73 31.63,21.254 32.326,21.588C33.022,21.923 33.798,22.054 34.565,21.967C35.332,21.88 36.059,21.578 36.662,21.096L39,19.226L41.338,21.098C41.941,21.58 42.668,21.882 43.436,21.969C44.203,22.056 44.979,21.924 45.675,21.59C46.371,21.256 46.958,20.731 47.37,20.078C47.781,19.424 47.999,18.668 48,17.896L48,0L30,0ZM43.838,17.974L39,14.104L34,17.896L34,4L43.98,4L43.838,17.974ZM44,26L48,26L48,48L0,48L0,12C0,10.409 0.632,8.883 1.757,7.757C2.883,6.632 4.409,6 6,6L26,6L26,10L6,10C5.47,10 4.961,10.211 4.586,10.586C4.211,10.961 4,11.47 4,12L4,12.484L19.756,28.244C20.899,29.334 22.419,29.943 23.999,29.943C25.579,29.943 27.099,29.334 28.242,28.244L30.486,26L36.142,26L31.07,31.072C29.195,32.947 26.651,34.001 23.999,34.001C21.347,34.001 18.803,32.947 16.928,31.072L4,18.142L4,44L44,44L44,26Z" fill="#374957"/>
</svg>
