<svg width="48" height="48" viewBox="0 0 48 48" fill="none" xmlns="http://www.w3.org/2000/svg" xmlns:xlink="http://www.w3.org/1999/xlink">
<path d="M24,18C22.813,18 21.653,18.352 20.667,19.011C19.68,19.67 18.911,20.608 18.457,21.704C18.003,22.8 17.884,24.007 18.115,25.171C18.347,26.334 18.918,27.404 19.757,28.243C20.596,29.082 21.666,29.653 22.829,29.885C23.993,30.116 25.2,29.997 26.296,29.543C27.392,29.089 28.33,28.32 28.989,27.333C29.648,26.347 30,25.187 30,24C30,22.409 29.368,20.883 28.243,19.757C27.117,18.632 25.591,18 24,18ZM24,26C23.604,26 23.218,25.883 22.889,25.663C22.56,25.443 22.304,25.131 22.152,24.765C22.001,24.4 21.961,23.998 22.038,23.61C22.116,23.222 22.306,22.865 22.586,22.586C22.866,22.306 23.222,22.116 23.61,22.038C23.998,21.961 24.4,22.001 24.765,22.152C25.131,22.304 25.443,22.56 25.663,22.889C25.883,23.218 26,23.604 26,24C26,24.53 25.789,25.039 25.414,25.414C25.039,25.789 24.53,26 24,26ZM24,0C19.253,0 14.613,1.408 10.666,4.045C6.72,6.682 3.643,10.43 1.827,14.816C0.01,19.201 -0.465,24.027 0.461,28.682C1.387,33.338 3.673,37.614 7.029,40.971C10.386,44.327 14.662,46.613 19.318,47.539C23.973,48.465 28.799,47.99 33.184,46.173C37.57,44.357 41.318,41.28 43.955,37.334C46.592,33.387 48,28.747 48,24C47.993,17.637 45.462,11.536 40.963,7.037C36.464,2.538 30.363,0.007 24,0L24,0ZM24,34C22.022,34 20.089,33.414 18.444,32.315C16.8,31.216 15.518,29.654 14.761,27.827C14.004,26 13.806,23.989 14.192,22.049C14.578,20.109 15.53,18.327 16.929,16.929C18.327,15.53 20.109,14.578 22.049,14.192C23.989,13.806 26,14.004 27.827,14.761C29.654,15.518 31.216,16.8 32.315,18.444C33.414,20.089 34,22.022 34,24C33.997,26.651 32.942,29.193 31.068,31.068C29.193,32.942 26.651,33.997 24,34L24,34Z" fill="#374957"/>
</svg>
