<svg width="48" height="48" viewBox="0 0 48 48" fill="none" xmlns="http://www.w3.org/2000/svg" xmlns:xlink="http://www.w3.org/1999/xlink">
<path d="M31.999,16.001C28.835,16.001 25.741,16.939 23.11,18.697C20.479,20.455 18.428,22.954 17.217,25.878C16.006,28.801 15.689,32.018 16.307,35.122C16.924,38.226 18.448,41.077 20.685,43.314C22.923,45.552 25.774,47.076 28.878,47.693C31.981,48.311 35.199,47.994 38.122,46.783C41.046,45.572 43.545,43.521 45.303,40.89C47.061,38.259 47.999,35.165 47.999,32.001C47.994,27.759 46.307,23.692 43.308,20.692C40.308,17.693 36.241,16.005 31.999,16.001ZM31.999,44.001C29.626,44.001 27.306,43.297 25.332,41.978C23.359,40.66 21.821,38.786 20.913,36.593C20.004,34.4 19.767,31.987 20.23,29.66C20.693,27.332 21.836,25.194 23.514,23.515C25.192,21.837 27.33,20.694 29.658,20.231C31.986,19.768 34.399,20.006 36.591,20.914C38.784,21.822 40.658,23.36 41.977,25.334C43.295,27.307 43.999,29.627 43.999,32.001C43.996,35.182 42.731,38.233 40.481,40.482C38.231,42.732 35.181,43.997 31.999,44.001ZM33.999,30.001L37.999,30.001L37.999,34.001L33.999,34.001L33.999,38.001L29.999,38.001L29.999,34.001L25.999,34.001L25.999,30.001L29.999,30.001L29.999,26.001L33.999,26.001L33.999,30.001ZM0.287,0.289L9.707,27.821L15.507,15.505L27.823,9.705L0.287,0.289ZM12.487,12.489L10.291,17.181L6.711,6.713L17.179,10.293L12.487,12.489Z" fill="#374957"/>
</svg>
