<svg width="46" height="48" viewBox="0 0 46 48" fill="none" xmlns="http://www.w3.org/2000/svg" xmlns:xlink="http://www.w3.org/1999/xlink">
<path d="M31.546,5.799C30.052,4.531 28.486,3.199 26.892,1.751C26.166,1.089 25.304,0.595 24.365,0.303C23.427,0.011 22.436,-0.072 21.462,0.061C20.515,0.185 19.607,0.515 18.801,1.029C17.996,1.542 17.313,2.226 16.8,3.031L16.8,3.031C14.9,6.153 13.468,9.535 12.548,13.071C12.112,12.491 11.552,12.014 10.909,11.676C10.266,11.338 9.556,11.146 8.83,11.115C8.104,11.084 7.381,11.214 6.711,11.496C6.042,11.778 5.443,12.204 4.958,12.745C1.568,16.213 -0.309,20.883 -0.262,25.732C-0.307,30.653 1.296,35.447 4.291,39.352C7.286,43.257 11.502,46.048 16.266,47.28C18.134,47.755 20.053,47.996 21.98,48C24.905,48.003 27.801,47.431 30.504,46.314C33.207,45.198 35.663,43.559 37.731,41.492C39.8,39.425 41.441,36.971 42.561,34.269C43.68,31.568 44.255,28.672 44.254,25.748C44.254,16.599 38.366,11.599 31.546,5.799ZM31.982,38.572C31.41,39.012 30.809,39.413 30.182,39.772C30.756,38.573 31.057,37.262 31.062,35.934C31.062,32.08 28.376,27.606 25.062,23.684C24.682,23.239 24.21,22.881 23.678,22.636C23.147,22.391 22.569,22.265 21.983,22.265C21.398,22.265 20.82,22.391 20.288,22.636C19.757,22.881 19.284,23.239 18.904,23.684C14.2,29.2 11.254,35.164 14,40C11.475,38.579 9.377,36.508 7.924,34.001C6.472,31.494 5.718,28.643 5.742,25.746C5.68,22.908 6.634,20.142 8.432,17.945C8.715,18.409 9.018,18.858 9.342,19.291C9.877,20.014 10.612,20.564 11.457,20.873C12.301,21.182 13.217,21.237 14.092,21.032C14.98,20.834 15.792,20.384 16.43,19.736C17.069,19.088 17.507,18.27 17.692,17.379C18.431,13.454 19.846,9.687 21.874,6.245C21.916,6.177 21.973,6.119 22.04,6.077C22.108,6.034 22.185,6.008 22.264,5.999C22.37,5.986 22.478,5.995 22.58,6.027C22.682,6.059 22.775,6.113 22.854,6.185C24.502,7.683 26.12,9.059 27.664,10.367C34.042,15.783 38.254,19.367 38.254,25.74C38.262,28.217 37.701,30.663 36.614,32.888C35.526,35.114 33.942,37.06 31.982,38.576L31.982,38.572Z" fill="#374957"/>
</svg>
