<svg width="48" height="48" viewBox="0 0 48 48" fill="none" xmlns="http://www.w3.org/2000/svg" xmlns:xlink="http://www.w3.org/1999/xlink">
<path d="M37,48C36.204,48 35.441,47.684 34.879,47.121C34.316,46.559 34,45.796 34,45C34,44.204 34.316,43.441 34.879,42.879C35.441,42.316 36.204,42 37,42C38.326,42 39.598,41.473 40.536,40.536C41.473,39.598 42,38.326 42,37C42,36.204 42.316,35.441 42.879,34.879C43.441,34.316 44.204,34 45,34C45.796,34 46.559,34.316 47.121,34.879C47.684,35.441 48,36.204 48,37C47.997,39.916 46.837,42.712 44.775,44.775C42.712,46.837 39.916,47.997 37,48ZM48,11C47.997,8.084 46.837,5.288 44.775,3.225C42.712,1.163 39.916,0.003 37,0C36.204,0 35.441,0.316 34.879,0.879C34.316,1.441 34,2.204 34,3C34,3.796 34.316,4.559 34.879,5.121C35.441,5.684 36.204,6 37,6C38.326,6 39.598,6.527 40.536,7.464C41.473,8.402 42,9.674 42,11C42,11.796 42.316,12.559 42.879,13.121C43.441,13.684 44.204,14 45,14C45.796,14 46.559,13.684 47.121,13.121C47.684,12.559 48,11.796 48,11ZM48,27L48,21C48,20.204 47.684,19.441 47.121,18.879C46.559,18.316 45.796,18 45,18C44.204,18 43.441,18.316 42.879,18.879C42.316,19.441 42,20.204 42,21L42,27C42,27.796 42.316,28.559 42.879,29.121C43.441,29.684 44.204,30 45,30C45.796,30 46.559,29.684 47.121,29.121C47.684,28.559 48,27.796 48,27ZM14,45C14,44.204 13.684,43.441 13.121,42.879C12.559,42.316 11.796,42 11,42C9.674,42 8.402,41.473 7.464,40.536C6.527,39.598 6,38.326 6,37C6,36.204 5.684,35.441 5.121,34.879C4.559,34.316 3.796,34 3,34C2.204,34 1.441,34.316 0.879,34.879C0.316,35.441 0,36.204 0,37C0.003,39.916 1.163,42.712 3.225,44.775C5.288,46.837 8.084,47.997 11,48C11.796,48 12.559,47.684 13.121,47.121C13.684,46.559 14,45.796 14,45L14,45ZM6,11C6,9.674 6.527,8.402 7.464,7.464C8.402,6.527 9.674,6 11,6C11.796,6 12.559,5.684 13.121,5.121C13.684,4.559 14,3.796 14,3C14,2.204 13.684,1.441 13.121,0.879C12.559,0.316 11.796,0 11,0C8.084,0.003 5.288,1.163 3.225,3.225C1.163,5.288 0.003,8.084 0,11C0,11.796 0.316,12.559 0.879,13.121C1.441,13.684 2.204,14 3,14C3.796,14 4.559,13.684 5.121,13.121C5.684,12.559 6,11.796 6,11ZM6,27L6,21C6,20.204 5.684,19.441 5.121,18.879C4.559,18.316 3.796,18 3,18C2.204,18 1.441,18.316 0.879,18.879C0.316,19.441 0,20.204 0,21L0,27C0,27.796 0.316,28.559 0.879,29.121C1.441,29.684 2.204,30 3,30C3.796,30 4.559,29.684 5.121,29.121C5.684,28.559 6,27.796 6,27ZM30,3C30,2.204 29.684,1.441 29.121,0.879C28.559,0.316 27.796,0 27,0L21,0C20.204,0 19.441,0.316 18.879,0.879C18.316,1.441 18,2.204 18,3C18,3.796 18.316,4.559 18.879,5.121C19.441,5.684 20.204,6 21,6L27,6C27.796,6 28.559,5.684 29.121,5.121C29.684,4.559 30,3.796 30,3ZM30,45C30,44.204 29.684,43.441 29.121,42.879C28.559,42.316 27.796,42 27,42L21,42C20.204,42 19.441,42.316 18.879,42.879C18.316,43.441 18,44.204 18,45C18,45.796 18.316,46.559 18.879,47.121C19.441,47.684 20.204,48 21,48L27,48C27.796,48 28.559,47.684 29.121,47.121C29.684,46.559 30,45.796 30,45Z" fill="#374957"/>
</svg>
