<svg width="36" height="48" viewBox="0 0 36 48" fill="none" xmlns="http://www.w3.org/2000/svg" xmlns:xlink="http://www.w3.org/1999/xlink">
<path d="M36,12.486C36.003,11.435 35.797,10.393 35.395,9.422C34.992,8.451 34.401,7.569 33.656,6.828L29.172,2.344C27.669,0.848 25.637,0.005 23.516,0L6,0C4.409,0 2.883,0.632 1.757,1.757C0.632,2.883 0,4.409 0,6L0,48L36,48L36,12.486ZM30.828,9.656C30.929,9.765 31.023,9.88 31.11,10L26,10L26,4.89C26.12,4.977 26.235,5.071 26.344,5.172L30.828,9.656ZM4,44L4,6C4,5.47 4.211,4.961 4.586,4.586C4.961,4.211 5.47,4 6,4L22,4L22,14L32,14L32,44L4,44ZM10,18L26,18L26,22L10,22L10,18ZM10,26L26,26L26,30L10,30L10,26ZM22.036,33.628L25.966,34.36C25.584,36.454 23.956,40 20.27,40C18.823,39.999 17.421,39.5 16.298,38.588C15.67,38.142 15.45,38 14.974,38C14.258,38.271 13.626,38.727 13.142,39.32L10.142,36.686C11.352,35.208 13.08,34.247 14.974,34C16.304,34.016 17.588,34.484 18.616,35.328C19.064,35.75 19.654,35.99 20.27,36C21.516,36 22.03,33.654 22.036,33.628Z" fill="#374957"/>
</svg>
