<svg width="48" height="48" viewBox="0 0 48 48" fill="none" xmlns="http://www.w3.org/2000/svg" xmlns:xlink="http://www.w3.org/1999/xlink">
<path d="M48,24C48,28.747 46.592,33.387 43.955,37.334C41.318,41.28 37.57,44.357 33.184,46.173C28.799,47.99 23.973,48.465 19.318,47.539C14.662,46.613 10.386,44.327 7.029,40.971C3.673,37.614 1.387,33.338 0.461,28.682C-0.465,24.027 0.01,19.201 1.827,14.816C3.643,10.43 6.72,6.682 10.666,4.045C14.613,1.408 19.253,0 24,0C30.363,0.007 36.464,2.538 40.963,7.037C45.462,11.536 47.993,17.637 48,24ZM28,24C28,22.939 27.579,21.922 26.828,21.172C26.078,20.421 25.061,20 24,20L20,20L20,24L24,24L24,38L28,38L28,24ZM24,10C23.407,10 22.827,10.176 22.333,10.506C21.84,10.835 21.455,11.304 21.228,11.852C21.001,12.4 20.942,13.003 21.058,13.585C21.173,14.167 21.459,14.702 21.879,15.121C22.298,15.541 22.833,15.827 23.415,15.942C23.997,16.058 24.6,15.999 25.148,15.772C25.696,15.545 26.165,15.16 26.494,14.667C26.824,14.173 27,13.593 27,13C27,12.204 26.684,11.441 26.121,10.879C25.559,10.316 24.796,10 24,10Z" fill="#374957"/>
</svg>
