<svg width="48" height="48" viewBox="0 0 48 48" fill="none" xmlns="http://www.w3.org/2000/svg" xmlns:xlink="http://www.w3.org/1999/xlink">
<path d="M24,0C19.253,0 14.613,1.408 10.666,4.045C6.72,6.682 3.643,10.43 1.827,14.816C0.01,19.201 -0.465,24.027 0.461,28.682C1.387,33.338 3.673,37.614 7.029,40.971C10.386,44.327 14.662,46.613 19.318,47.539C23.973,48.465 28.799,47.99 33.184,46.173C37.57,44.357 41.318,41.28 43.955,37.334C46.592,33.387 48,28.747 48,24C47.993,17.637 45.462,11.536 40.963,7.037C36.464,2.538 30.363,0.007 24,0L24,0ZM41.294,14L34.852,14C33.41,10.658 31.511,7.532 29.21,4.712C34.303,6.098 38.645,9.435 41.294,14L41.294,14ZM33,24C32.984,26.036 32.663,28.059 32.048,30L15.952,30C15.337,28.059 15.016,26.036 15,24C15.016,21.964 15.337,19.941 15.952,18L32.048,18C32.663,19.941 32.984,21.964 33,24L33,24ZM17.556,34L30.444,34C28.746,37.351 26.576,40.442 24,43.176C21.423,40.442 19.253,37.352 17.556,34L17.556,34ZM17.556,14C19.254,10.649 21.424,7.558 24,4.824C26.577,7.558 28.748,10.648 30.444,14L17.556,14ZM18.8,4.712C16.495,7.532 14.593,10.657 13.148,14L6.706,14C9.358,9.433 13.703,6.096 18.8,4.712L18.8,4.712ZM4.922,18L11.8,18C11.282,19.958 11.013,21.974 11,24C11.013,26.026 11.282,28.042 11.8,30L4.922,30C3.693,26.094 3.693,21.906 4.922,18L4.922,18ZM6.706,34L13.148,34C14.593,37.343 16.495,40.468 18.8,43.288C13.703,41.904 9.358,38.567 6.706,34L6.706,34ZM29.21,43.288C31.511,40.468 33.41,37.342 34.852,34L41.294,34C38.645,38.565 34.303,41.902 29.21,43.288L29.21,43.288ZM43.078,30L36.2,30C36.718,28.042 36.987,26.026 37,24C36.987,21.974 36.718,19.958 36.2,18L43.074,18C44.303,21.906 44.303,26.094 43.074,30L43.078,30Z" fill="#374957"/>
</svg>
