<svg width="48" height="48" viewBox="0 0 48 48" fill="none" xmlns="http://www.w3.org/2000/svg" xmlns:xlink="http://www.w3.org/1999/xlink">
<path d="M26,8L22,8L22,0L26,0L26,8ZM26,40L22,40L22,48L26,48L26,40ZM8,22L0,22L0,26L8,26L8,22ZM48,22L40,22L40,26L48,26L48,22ZM45.75,34.33L38.834,30.31L36.822,33.768L43.738,37.788L45.75,34.33ZM37.782,4.252L34.324,2.252L30.304,9.17L33.762,11.17L37.782,4.252ZM45.766,13.652L43.75,10.188L36.84,14.214L38.856,17.672L45.766,13.652ZM37.836,43.728L33.8,36.816L30.344,38.832L34.37,45.744L37.836,43.728ZM11.2,33.768L9.2,30.31L2.282,34.33L4.282,37.788L11.2,33.768ZM17.72,9.168L13.708,2.244L10.252,4.244L14.272,11.162L17.72,9.168ZM11.2,14.214L4.282,10.188L2.266,13.644L9.178,17.672L11.2,14.214ZM17.682,38.832L14.224,36.816L10.2,43.728L13.656,45.744L17.682,38.832Z" fill="#374957"/>
</svg>
