<svg width="48" height="48" viewBox="0 0 48 48" fill="none" xmlns="http://www.w3.org/2000/svg" xmlns:xlink="http://www.w3.org/1999/xlink">
<path d="M48,20L43.6,0L4.4,0L0.048,19.566L0,22C0.007,23.931 0.718,25.792 2,27.236L2,42C2,43.591 2.632,45.117 3.757,46.243C4.883,47.368 6.409,48 8,48L40,48C41.591,48 43.117,47.368 44.243,46.243C45.368,45.117 46,43.591 46,42L46,27.236C47.282,25.792 47.993,23.931 48,22L48,20ZM4,20.218L7.6,4L14,4L14,12L18,12L18,4L30,4L30,12L34,12L34,4L40.4,4L44,20.218L44,22C44,23.061 43.579,24.078 42.828,24.828C42.078,25.579 41.061,26 40,26L38,26C36.939,26 35.922,25.579 35.172,24.828C34.421,24.078 34,23.061 34,22L30,22C30,23.061 29.579,24.078 28.828,24.828C28.078,25.579 27.061,26 26,26L22,26C20.939,26 19.922,25.579 19.172,24.828C18.421,24.078 18,23.061 18,22L14,22C14,23.061 13.579,24.078 12.828,24.828C12.078,25.579 11.061,26 10,26L8,26C6.939,26 5.922,25.579 5.172,24.828C4.421,24.078 4,23.061 4,22L4,20.218ZM40,44L8,44C7.47,44 6.961,43.789 6.586,43.414C6.211,43.039 6,42.53 6,42L6,29.716C6.652,29.896 7.324,29.992 8,30L10,30C11.14,29.996 12.265,29.748 13.301,29.271C14.336,28.794 15.256,28.1 16,27.236C16.744,28.1 17.664,28.794 18.699,29.271C19.735,29.748 20.86,29.996 22,30L26,30C27.136,30.001 28.258,29.759 29.293,29.291C30.328,28.823 31.251,28.139 32,27.286C32.749,28.139 33.672,28.823 34.707,29.291C35.742,29.759 36.864,30.001 38,30L40,30C40.676,29.992 41.348,29.896 42,29.716L42,42C42,42.53 41.789,43.039 41.414,43.414C41.039,43.789 40.53,44 40,44Z" fill="#374957"/>
</svg>
