<svg width="48" height="44" viewBox="0 0 48 44" fill="none" xmlns="http://www.w3.org/2000/svg" xmlns:xlink="http://www.w3.org/1999/xlink">
<path d="M28.24,1.253C26.977,0.435 25.505,0 24,0C22.495,0 21.023,0.435 19.76,1.253L0,13.999L8,19.159L8,38.827L8.586,39.413C8.774,39.599 13.294,43.999 24,43.999C34.706,43.999 39.226,39.599 39.414,39.413L40,38.827L40,19.159L44,16.579L44,37.999L48,37.999L48,13.999L28.24,1.253ZM36,37.031C32.386,39.195 28.207,40.229 24,39.999C19.794,40.23 15.615,39.197 12,37.033L12,21.739L19.76,26.739C21.022,27.559 22.495,27.995 24,27.995C25.505,27.995 26.978,27.559 28.24,26.739L36,21.739L36,37.031ZM26.072,23.383C25.455,23.784 24.736,23.998 24,23.998C23.264,23.998 22.545,23.784 21.928,23.383L7.38,13.999L21.928,4.615C22.545,4.214 23.264,4 24,4C24.736,4 25.455,4.214 26.072,4.615L40.62,13.999L26.072,23.383Z" fill="#374957"/>
</svg>
