<svg width="48" height="48" viewBox="0 0 48 48" fill="none" xmlns="http://www.w3.org/2000/svg" xmlns:xlink="http://www.w3.org/1999/xlink">
<path d="M39,8L30.898,8C30.657,5.806 29.617,3.778 27.976,2.302C26.334,0.826 24.207,0.007 22,0L9,0C6.614,0.003 4.326,0.952 2.639,2.639C0.952,4.326 0.003,6.614 0,9L0,45C0,45.796 0.316,46.559 0.879,47.121C1.441,47.684 2.204,48 3,48C3.796,48 4.559,47.684 5.121,47.121C5.684,46.559 6,45.796 6,45L6,28L19.102,28C19.343,30.194 20.383,32.222 22.024,33.698C23.666,35.174 25.793,35.993 28,36L39,36C41.386,35.997 43.674,35.048 45.361,33.361C47.048,31.674 47.997,29.386 48,27L48,17C47.997,14.614 47.048,12.326 45.361,10.639C43.674,8.952 41.386,8.003 39,8ZM6,9C6,8.204 6.316,7.441 6.879,6.879C7.441,6.316 8.204,6 9,6L22,6C22.796,6 23.559,6.316 24.121,6.879C24.684,7.441 25,8.204 25,9L25,19C25,19.796 24.684,20.559 24.121,21.121C23.559,21.684 22.796,22 22,22L6,22L6,9ZM42,27C42,27.796 41.684,28.559 41.121,29.121C40.559,29.684 39.796,30 39,30L28,30C27.282,29.997 26.588,29.736 26.046,29.266C25.503,28.795 25.148,28.145 25.044,27.434C26.783,26.811 28.288,25.667 29.354,24.158C30.42,22.649 30.995,20.848 31,19L31,14L39,14C39.796,14 40.559,14.316 41.121,14.879C41.684,15.441 42,16.204 42,17L42,27Z" fill="#374957"/>
</svg>
