<svg width="48" height="50" viewBox="0 0 48 50" fill="none" xmlns="http://www.w3.org/2000/svg" xmlns:xlink="http://www.w3.org/1999/xlink">
<path d="M44.586,35.429L42.128,37.887L37.498,33.257C41.706,28.401 44,23.771 44,19.801C44.099,16.779 42.997,13.842 40.936,11.63C38.874,9.419 36.021,8.114 33,8.001C31.479,8.011 29.978,8.348 28.598,8.987C27.218,9.627 25.991,10.555 25,11.709C24.009,10.555 22.782,9.627 21.402,8.987C20.022,8.347 18.521,8.011 17,8.001C15.641,8.004 14.297,8.276 13.044,8.801L5.122,0.879C4.559,0.316 3.796,0 3,0C2.204,0 1.441,0.316 0.878,0.879C0.315,1.442 -0.001,2.205 -0.001,3.001C-0.001,3.797 0.315,4.56 0.878,5.123L8.326,12.569C6.806,14.673 5.992,17.205 6,19.801C6,25.571 10.742,32.725 19.352,39.945C20.934,41.274 22.934,42.003 25,42.003C27.066,42.003 29.066,41.274 30.648,39.945C31.594,39.145 32.474,38.361 33.326,37.571L37.886,42.131L35.428,44.589C35.149,44.869 34.959,45.226 34.882,45.613C34.806,46.001 34.846,46.403 34.998,46.769C35.149,47.134 35.406,47.446 35.735,47.665C36.064,47.884 36.451,48.001 36.846,48.001L46,47.981C46.53,47.981 47.039,47.77 47.414,47.395C47.789,47.02 48,46.511 48,45.981L48,36.843C48,36.447 47.883,36.061 47.663,35.732C47.443,35.403 47.131,35.147 46.765,34.996C46.4,34.844 45.998,34.805 45.61,34.882C45.222,34.959 44.866,35.149 44.586,35.429ZM26.786,35.345C26.281,35.759 25.647,35.985 24.994,35.985C24.341,35.985 23.707,35.759 23.202,35.345C14.944,28.417 12,22.773 12,19.801C11.904,18.371 12.375,16.961 13.31,15.875C14.246,14.79 15.572,14.117 17,14.001C18.428,14.117 19.754,14.79 20.69,15.875C21.625,16.961 22.096,18.371 22,19.801C22,20.195 22.078,20.585 22.228,20.949C22.379,21.313 22.6,21.644 22.879,21.922C23.157,22.201 23.488,22.422 23.852,22.573C24.216,22.723 24.606,22.801 25,22.801C25.394,22.801 25.784,22.723 26.148,22.573C26.512,22.422 26.843,22.201 27.121,21.922C27.4,21.644 27.621,21.313 27.772,20.949C27.922,20.585 28,20.195 28,19.801C27.903,18.371 28.374,16.96 29.31,15.875C30.246,14.789 31.571,14.116 33,14.001C34.429,14.116 35.754,14.789 36.69,15.875C37.626,16.96 38.097,18.371 38,19.801C38,22.773 35.056,28.417 26.8,35.345L26.786,35.345Z" fill="#374957"/>
</svg>
