<svg width="48" height="48" viewBox="0 0 48 48" fill="none" xmlns="http://www.w3.org/2000/svg" xmlns:xlink="http://www.w3.org/1999/xlink">
<path d="M41.4,28.05C40.067,26.78 38.296,26.071 36.454,26.071C34.612,26.071 32.841,26.78 31.508,28.05L30.69,28.85C25.579,26.519 21.487,22.413 19.174,17.294L19.95,16.506C21.239,15.201 21.968,13.446 21.982,11.612C21.997,9.778 21.296,8.011 20.028,6.686L15.724,2.05C14.406,0.79 12.656,0.08 10.832,0.064C9.009,0.049 7.248,0.73 5.908,1.968C5.908,1.968 3.774,3.828 3.724,3.876C-12.066,20.414 27.57,60.076 44.124,44.276C44.172,44.226 46.032,42.094 46.032,42.094C47.313,40.756 48.015,38.967 47.985,37.115C47.955,35.262 47.195,33.497 45.87,32.202L41.4,28.05ZM41.714,37.934C41.664,37.982 39.816,40.1 39.816,40.1C29.31,49.546 -1.82,20.254 7.9,8.2C7.9,8.2 10.018,6.352 10.068,6.302C10.238,6.121 10.471,6.012 10.719,5.997C10.967,5.982 11.212,6.063 11.402,6.222L15.708,10.848C15.807,10.94 15.885,11.052 15.938,11.176C15.991,11.3 16.018,11.434 16.016,11.569C16.014,11.704 15.984,11.837 15.928,11.96C15.872,12.083 15.791,12.192 15.69,12.282L13.474,14.534C13.065,14.95 12.786,15.476 12.671,16.048C12.557,16.62 12.611,17.213 12.828,17.754C14.319,21.744 16.649,25.367 19.663,28.377C22.676,31.387 26.301,33.714 30.292,35.2C30.829,35.405 31.415,35.452 31.978,35.334C32.541,35.217 33.058,34.94 33.468,34.536L35.736,32.3C36.316,31.872 36.618,31.876 37.232,32.38L41.708,36.528C41.893,36.715 41.997,36.968 41.997,37.231C41.997,37.494 41.893,37.747 41.708,37.934L41.714,37.934ZM30,16L30,7.052C30,6.657 30.118,6.27 30.337,5.941C30.557,5.612 30.869,5.356 31.235,5.205C31.6,5.053 32.002,5.014 32.39,5.091C32.778,5.168 33.134,5.358 33.414,5.638L35.788,8.012L42.874,0.884C43.439,0.336 44.196,0.032 44.982,0.037C45.769,0.042 46.522,0.355 47.08,0.91C47.638,1.465 47.955,2.217 47.964,3.004C47.972,3.79 47.671,4.549 47.126,5.116L40.03,12.254L42.362,14.586C42.642,14.866 42.832,15.222 42.909,15.61C42.986,15.998 42.947,16.4 42.795,16.765C42.644,17.131 42.388,17.443 42.059,17.663C41.73,17.883 41.344,18 40.948,18L32,18C31.47,18 30.961,17.789 30.586,17.414C30.211,17.039 30,16.53 30,16L30,16Z" fill="#374957"/>
</svg>
