<svg width="48" height="50" viewBox="0 0 48 50" fill="none" xmlns="http://www.w3.org/2000/svg" xmlns:xlink="http://www.w3.org/1999/xlink">
<path d="M48,13.714C48,15.084 47.318,16 45.948,16L33.968,16C33.636,31.388 29.432,40.4 19.672,44.738C18.482,40.872 16.364,37.356 13.502,34.498C10.641,31.639 7.123,29.524 3.256,28.338C7.6,18.572 16.6,14.364 32,14.032L32,2.052C32,0.682 32.916,0 34.286,0C36.102,0.009 37.84,0.735 39.124,2.019C40.408,3.303 41.133,5.042 41.142,6.858C42.958,6.867 44.696,7.592 45.981,8.876C47.265,10.16 47.99,11.898 48,13.714L48,13.714ZM15.922,46.132C10.728,47.495 5.368,48.124 0,48C-0.124,42.637 0.503,37.283 1.864,32.094C5.195,33.07 8.228,34.867 10.684,37.319C13.14,39.772 14.941,42.802 15.922,46.132L15.922,46.132ZM8,42C8,41.47 7.789,40.961 7.414,40.586C7.039,40.211 6.53,40 6,40C5.469,40 4.961,40.211 4.586,40.586C4.21,40.961 4,41.47 4,42C4,42.53 4.21,43.039 4.586,43.414C4.961,43.789 5.469,44 6,44C6.53,44 7.039,43.789 7.414,43.414C7.789,43.039 8,42.53 8,42ZM24,10.6L24,6C18.245,6.153 12.566,7.356 7.244,9.55C6.266,10.055 5.447,10.82 4.874,11.76C4.302,12.7 4,13.78 4,14.88L4,19.828C8.482,14.8 14.98,11.8 24,10.6ZM37.4,24C36.929,28.147 35.815,32.196 34.098,36L36.588,36C42.764,35.762 41.702,28.828 42.004,24L37.4,24Z" fill="#374957"/>
</svg>
