<svg width="48" height="48" viewBox="0 0 48 48" fill="none" xmlns="http://www.w3.org/2000/svg" xmlns:xlink="http://www.w3.org/1999/xlink">
<path d="M48,19C48.005,17.746 47.673,16.514 47.038,15.433C46.404,14.351 45.491,13.46 44.394,12.852C43.298,12.244 42.058,11.941 40.805,11.976C39.552,12.011 38.331,12.382 37.27,13.05C36.209,13.718 35.347,14.659 34.774,15.775C34.201,16.89 33.938,18.139 34.012,19.39C34.087,20.642 34.497,21.85 35.198,22.89C35.899,23.929 36.867,24.761 38,25.298L38,32C38,34.652 36.946,37.196 35.071,39.071C33.196,40.946 30.652,42 28,42C25.348,42 22.804,40.946 20.929,39.071C19.054,37.196 18,34.652 18,32L18,31.698C21.386,31.002 24.428,29.16 26.613,26.483C28.799,23.805 29.995,20.456 30,17L30,11C29.997,8.084 28.837,5.288 26.775,3.225C24.712,1.163 21.916,0.003 19,0C18.204,0 17.441,0.316 16.879,0.879C16.316,1.441 16,2.204 16,3C16,3.796 16.316,4.559 16.879,5.121C17.441,5.684 18.204,6 19,6C19.657,6 20.307,6.129 20.913,6.381C21.52,6.632 22.071,7 22.536,7.464C23,7.929 23.368,8.48 23.619,9.087C23.871,9.693 24,10.343 24,11L24,17C24,19.387 23.052,21.676 21.364,23.364C19.676,25.052 17.387,26 15,26C12.613,26 10.324,25.052 8.636,23.364C6.948,21.676 6,19.387 6,17L6,11C6,9.674 6.527,8.402 7.464,7.464C8.402,6.527 9.674,6 11,6C11.796,6 12.559,5.684 13.121,5.121C13.684,4.559 14,3.796 14,3C14,2.204 13.684,1.441 13.121,0.879C12.559,0.316 11.796,0 11,0C8.084,0.003 5.288,1.163 3.225,3.225C1.163,5.288 0.003,8.084 0,11L0,17C0.005,20.456 1.201,23.805 3.387,26.483C5.572,29.16 8.614,31.002 12,31.698L12,32C12,36.243 13.686,40.313 16.686,43.314C19.687,46.314 23.757,48 28,48C32.243,48 36.313,46.314 39.314,43.314C42.314,40.313 44,36.243 44,32L44,25.298C45.193,24.732 46.201,23.841 46.909,22.726C47.617,21.612 47.995,20.32 48,19Z" fill="#374957"/>
</svg>
