<svg width="48" height="48" viewBox="0 0 48 48" fill="none" xmlns="http://www.w3.org/2000/svg" xmlns:xlink="http://www.w3.org/1999/xlink">
<path d="M48,42.108L48,39.304L42.894,39.304L42.894,36.499L45.407,36.499L45.407,33.695L42.894,33.695L42.894,30.89L45.407,30.89L45.407,28.086L25.031,28.086L25.031,30.89L27.741,30.89L27.741,33.695L25.031,33.695L25.031,36.499L27.741,36.499L27.741,39.304L22.437,39.304L22.437,42.108L24.936,42.108L24.936,45.07L14.052,45.07L13.987,25.351C15.195,25.054 16.281,24.354 17.049,23.37C17.281,23.4 17.516,23.415 17.752,23.415L17.756,23.415C19.23,23.415 20.616,22.841 21.66,21.799C22.874,20.587 23.441,18.867 23.234,17.194C24.565,16.159 25.382,14.543 25.383,12.827C25.384,11.113 24.571,9.498 23.243,8.461C23.273,8.229 23.287,7.995 23.288,7.758C23.289,6.283 22.715,4.895 21.672,3.851C20.629,2.806 19.242,2.231 17.766,2.229C17.533,2.23 17.296,2.244 17.064,2.273C16.029,0.944 14.414,0.128 12.7,0.127C12.699,0.127 12.698,0.127 12.697,0.127C10.984,0.127 9.37,0.94 8.334,2.267C8.102,2.238 7.867,2.223 7.631,2.223C7.63,2.223 7.629,2.223 7.627,2.223C6.153,2.223 4.767,2.796 3.723,3.838C2.679,4.881 2.104,6.268 2.103,7.744C2.102,7.98 2.117,8.214 2.146,8.446C0.817,9.481 0.001,11.096 0,12.81C-0.001,14.526 0.814,16.142 2.144,17.179C1.934,18.852 2.499,20.573 3.711,21.787C4.754,22.831 6.141,23.407 7.617,23.408L7.621,23.408C7.855,23.408 8.089,23.393 8.319,23.364C9.044,24.295 10.054,24.973 11.182,25.297L11.182,28.888L7.498,27.272L6.371,29.84L11.182,31.95L11.247,45.07L0.082,45.07L0.082,47.874L47.942,47.874L47.942,45.07L45.699,45.07L45.699,42.108L48,42.108ZM10.236,21.167L9.693,20.046L8.516,20.454C8.23,20.553 7.929,20.603 7.621,20.603C7.62,20.603 7.619,20.603 7.619,20.603C6.892,20.603 6.209,20.32 5.696,19.805C4.964,19.073 4.712,17.966 5.053,16.984L5.461,15.808L4.341,15.263C3.407,14.809 2.804,13.847 2.804,12.812C2.805,11.778 3.409,10.817 4.343,10.363L5.464,9.82L5.056,8.643C4.957,8.356 4.907,8.055 4.907,7.746C4.907,7.019 5.191,6.336 5.705,5.822C6.219,5.309 6.902,5.027 7.628,5.027L7.63,5.027C7.939,5.027 8.24,5.078 8.526,5.177L9.702,5.587L10.248,4.467C10.702,3.534 11.663,2.931 12.697,2.931L12.699,2.931C13.733,2.932 14.694,3.536 15.147,4.47L15.691,5.591L16.868,5.183C17.153,5.084 17.454,5.034 17.763,5.034L17.765,5.034C18.491,5.034 19.174,5.318 19.688,5.832C20.201,6.346 20.484,7.03 20.483,7.757C20.483,8.066 20.433,8.367 20.333,8.653L19.923,9.829L21.043,10.375C21.977,10.829 22.58,11.791 22.579,12.825C22.578,13.86 21.974,14.822 21.039,15.275L19.918,15.818L20.325,16.995C20.664,17.977 20.41,19.084 19.678,19.815C19.165,20.328 18.482,20.61 17.756,20.61C17.755,20.61 17.754,20.61 17.754,20.61C17.445,20.61 17.143,20.56 16.857,20.46L15.681,20.05L15.135,21.17C14.681,22.104 13.72,22.706 12.687,22.706C12.686,22.706 12.685,22.706 12.685,22.706C11.651,22.705 10.69,22.101 10.236,21.167ZM30.545,30.89L40.09,30.89L40.09,33.695L30.545,33.695L30.545,30.89ZM30.545,36.499L40.09,36.499L40.09,39.304L30.545,39.304L30.545,36.499ZM42.894,45.07L27.74,45.07L27.74,42.108L42.894,42.108L42.894,45.07Z" fill="#000000"/>
</svg>
