<svg width="48" height="48" viewBox="0 0 48 48" fill="none" xmlns="http://www.w3.org/2000/svg" xmlns:xlink="http://www.w3.org/1999/xlink">
<path d="M42,24C41.999,22.897 41.899,21.795 41.7,20.71L47.786,17.2L41.786,6.8L35.698,10.318C34.017,8.88 32.085,7.764 30,7.026L30,0L18,0L18,7.026C15.914,7.764 13.983,8.88 12.302,10.318L6.214,6.8L0.214,17.2L6.3,20.71C5.9,22.885 5.9,25.115 6.3,27.29L0.214,30.8L6.214,41.2L12.302,37.684C13.983,39.121 15.915,40.237 18,40.974L18,48L30,48L30,40.974C32.085,40.236 34.017,39.12 35.698,37.682L41.786,41.2L47.786,30.8L41.7,27.29C41.899,26.205 41.999,25.103 42,24L42,24ZM30,24C30,25.187 29.648,26.347 28.989,27.333C28.329,28.32 27.392,29.089 26.296,29.543C25.2,29.997 23.993,30.116 22.829,29.885C21.665,29.653 20.596,29.082 19.757,28.243C18.918,27.404 18.347,26.334 18.115,25.171C17.884,24.007 18.002,22.8 18.457,21.704C18.911,20.608 19.68,19.67 20.666,19.011C21.653,18.352 22.813,18 24,18C25.591,18 27.117,18.632 28.242,19.757C29.368,20.883 30,22.409 30,24Z" fill="#374957"/>
</svg>
