<svg width="40" height="48" viewBox="0 0 40 48" fill="none" xmlns="http://www.w3.org/2000/svg" xmlns:xlink="http://www.w3.org/1999/xlink">
<path d="M29,0L11,0C8.084,0.003 5.288,1.163 3.225,3.225C1.163,5.288 0.003,8.084 0,11L0,37C0.003,39.916 1.163,42.712 3.225,44.775C5.288,46.837 8.084,47.997 11,48L29,48C31.916,47.997 34.712,46.837 36.775,44.775C38.837,42.712 39.997,39.916 40,37L40,11C39.997,8.084 38.837,5.288 36.775,3.225C34.712,1.163 31.916,0.003 29,0L29,0ZM34,36L22,36L22,38C22,38.53 21.789,39.039 21.414,39.414C21.039,39.789 20.53,40 20,40C19.47,40 18.961,39.789 18.586,39.414C18.211,39.039 18,38.53 18,38L18,36L6,36L6,11C6,9.674 6.527,8.402 7.464,7.464C8.402,6.527 9.674,6 11,6L29,6C30.326,6 31.598,6.527 32.536,7.464C33.473,8.402 34,9.674 34,11L34,36Z" fill="#374957"/>
</svg>
