<svg width="48" height="48" viewBox="0 0 48 48" fill="none" xmlns="http://www.w3.org/2000/svg" xmlns:xlink="http://www.w3.org/1999/xlink">
<path d="M26.959,33.962C21.136,31.495 16.506,26.853 14.053,21.024L22.301,12.774L9.773,0.244L3.433,6.584C2.332,7.689 1.461,9.002 0.872,10.447C0.282,11.892 -0.014,13.439 -0.001,15C-0.001,29.496 18.503,48 32.999,48C34.559,48.013 36.106,47.717 37.55,47.128C38.995,46.539 40.308,45.67 41.413,44.57L47.755,38.226L35.225,25.696L26.959,33.962ZM20.303,5.118C21.765,3.544 23.529,2.281 25.489,1.404C27.45,0.528 29.567,0.055 31.715,0.015C33.862,-0.024 35.996,0.369 37.987,1.173C39.979,1.976 41.789,3.173 43.307,4.692C44.826,6.211 46.023,8.02 46.826,10.012C47.63,12.004 48.024,14.137 47.984,16.284C47.944,18.432 47.472,20.549 46.595,22.51C45.718,24.47 44.455,26.234 42.881,27.696L40.055,24.868C41.259,23.778 42.229,22.455 42.906,20.979C43.583,19.503 43.953,17.905 43.993,16.282C44.034,14.658 43.744,13.044 43.141,11.536C42.538,10.028 41.635,8.658 40.487,7.51C39.338,6.362 37.969,5.46 36.461,4.857C34.953,4.255 33.338,3.965 31.715,4.006C30.091,4.046 28.493,4.417 27.017,5.094C25.542,5.771 24.219,6.742 23.129,7.946L20.303,5.118ZM29.999,17L29.999,10L33.999,10L33.999,15.516L37.121,18.636L34.377,21.378L29.999,17Z" fill="#374957"/>
</svg>
