<svg width="48" height="40" viewBox="0 0 48 40" fill="none" xmlns="http://www.w3.org/2000/svg" xmlns:xlink="http://www.w3.org/1999/xlink">
<path d="M42,8L22,8C20.622,8 19.286,8.475 18.217,9.344C17.148,10.213 16.41,11.423 16.128,12.772C15.161,12.271 14.089,12.007 13,12C11.143,12 9.363,12.738 8.05,14.05C6.737,15.363 6,17.143 6,19C6.006,20.04 6.246,21.065 6.702,22L4,22L4,0L0,0L0,40L4,40L4,34L44,34L44,40L48,40L48,14C48,12.409 47.368,10.883 46.243,9.757C45.117,8.632 43.591,8 42,8ZM20,14C20,13.47 20.211,12.961 20.586,12.586C20.961,12.211 21.47,12 22,12L42,12C42.53,12 43.039,12.211 43.414,12.586C43.789,12.961 44,13.47 44,14L44,22L20,22L20,14ZM10,19C10,18.407 10.176,17.827 10.506,17.333C10.835,16.84 11.304,16.455 11.852,16.228C12.4,16.001 13.003,15.942 13.585,16.058C14.167,16.173 14.702,16.459 15.121,16.879C15.541,17.298 15.827,17.833 15.942,18.415C16.058,18.997 15.999,19.6 15.772,20.148C15.545,20.696 15.16,21.165 14.667,21.494C14.173,21.824 13.593,22 13,22C12.204,22 11.441,21.684 10.879,21.121C10.316,20.559 10,19.796 10,19ZM4,30L4,26L44,26L44,30L4,30Z" fill="#374957"/>
</svg>
