<svg width="48" height="44" viewBox="0 0 48 44" fill="none" xmlns="http://www.w3.org/2000/svg" xmlns:xlink="http://www.w3.org/1999/xlink">
<path d="M32,44L11,44C8.552,44.003 6.173,43.188 4.241,41.685C2.309,40.181 0.936,38.075 0.338,35.701C-0.26,33.327 -0.047,30.821 0.943,28.582C1.932,26.343 3.642,24.499 5.8,23.342C4.616,21.076 3.998,18.557 4,16C4.012,12.077 5.465,8.295 8.083,5.372C10.701,2.45 14.301,0.592 18.2,0.15C22.098,-0.291 26.023,0.715 29.228,2.978C32.433,5.241 34.695,8.603 35.584,12.424C39.398,13.32 42.751,15.585 45.007,18.788C47.263,21.992 48.265,25.912 47.823,29.805C47.381,33.698 45.526,37.294 42.61,39.91C39.693,42.527 35.918,43.982 32,44ZM20,4C16.818,4.004 13.768,5.269 11.518,7.519C9.268,9.768 8.003,12.819 8,16C7.996,18.568 8.826,21.068 10.364,23.124L12.128,25.51L9.256,26.252C7.605,26.673 6.165,27.682 5.207,29.09C4.249,30.498 3.838,32.207 4.052,33.897C4.267,35.587 5.091,37.14 6.371,38.264C7.65,39.388 9.297,40.005 11,40L32,40C35.023,39.971 37.924,38.801 40.122,36.725C42.32,34.649 43.654,31.82 43.856,28.803C44.058,25.787 43.114,22.805 41.213,20.454C39.311,18.103 36.592,16.557 33.6,16.124L32.086,15.924L31.886,14.408C31.496,11.53 30.078,8.891 27.893,6.977C25.708,5.064 22.904,4.007 20,4L20,4Z" fill="#374957"/>
</svg>
