<svg width="48" height="16" viewBox="0 0 48 16" fill="none" xmlns="http://www.w3.org/2000/svg" xmlns:xlink="http://www.w3.org/1999/xlink">
<path d="M14.666,1C13.03,1.005 11.44,1.545 10.14,2.538C8.84,3.531 7.901,4.923 7.466,6.5L0,6.5L0,10.5L7.472,10.5C7.901,12.079 8.838,13.474 10.139,14.468C11.439,15.462 13.03,16 14.667,16C16.304,16 17.895,15.462 19.195,14.468C20.496,13.474 21.433,12.079 21.862,10.5L48,10.5L48,6.5L21.862,6.5C21.427,4.923 20.489,3.532 19.19,2.539C17.89,1.546 16.301,1.005 14.666,1ZM14.666,12C13.974,12 13.297,11.795 12.721,11.41C12.146,11.026 11.697,10.479 11.432,9.839C11.168,9.2 11.098,8.496 11.233,7.817C11.368,7.138 11.702,6.515 12.191,6.025C12.681,5.536 13.304,5.202 13.983,5.067C14.662,4.932 15.366,5.002 16.005,5.266C16.645,5.531 17.192,5.98 17.576,6.556C17.961,7.131 18.166,7.808 18.166,8.5C18.164,9.428 17.795,10.317 17.139,10.973C16.483,11.629 15.594,11.998 14.666,12L14.666,12Z" fill="#374957"/>
</svg>
