<svg width="50" height="48" viewBox="0 0 50 48" fill="none" xmlns="http://www.w3.org/2000/svg" xmlns:xlink="http://www.w3.org/1999/xlink">
<path d="M23.343,48C22.424,48 21.515,47.819 20.667,47.467C19.819,47.116 19.049,46.6 18.401,45.95L11.621,39.112C11.06,38.547 10.748,37.782 10.751,36.986C10.755,36.191 11.074,35.429 11.64,34.869C12.205,34.309 12.969,33.996 13.765,34C14.561,34.003 15.322,34.323 15.883,34.888L22.653,41.716C22.839,41.899 23.091,42.002 23.353,42.002C23.614,42.002 23.866,41.899 24.053,41.716L34.881,30.886C35.443,30.323 36.207,30.007 37.003,30.007C37.798,30.007 38.562,30.323 39.125,30.886C39.687,31.449 40.004,32.212 40.004,33.008C40.004,33.804 39.687,34.567 39.125,35.13L28.295,45.958C27.644,46.608 26.872,47.123 26.022,47.473C25.173,47.823 24.262,48.002 23.343,48L23.343,48ZM4.171,37.8C4.937,37.556 5.578,37.022 5.955,36.312C6.332,35.601 6.415,34.771 6.187,34C5.874,32.776 5.99,31.481 6.515,30.333C7.041,29.184 7.944,28.25 9.075,27.686C10.231,27.063 11.094,26.007 11.473,24.749C11.852,23.491 11.718,22.134 11.099,20.976C10.067,18.939 9.747,16.616 10.187,14.376C10.565,12.305 11.58,10.403 13.092,8.937C14.603,7.472 16.535,6.514 18.617,6.2C19.985,5.993 21.382,6.061 22.724,6.401C24.066,6.74 25.327,7.345 26.433,8.178C27.521,8.994 28.435,10.019 29.122,11.193C29.809,12.368 30.255,13.667 30.433,15.016C30.52,15.669 30.82,16.275 31.286,16.741C31.753,17.206 32.359,17.505 33.013,17.592C35.641,17.94 38.036,19.286 39.701,21.35C41.365,23.414 42.173,26.039 41.957,28.682L41.957,28.788C41.929,29.176 41.979,29.566 42.104,29.935C42.229,30.304 42.427,30.644 42.684,30.936C42.942,31.227 43.256,31.465 43.606,31.634C43.957,31.803 44.338,31.901 44.727,31.922C45.528,31.964 46.315,31.691 46.918,31.161C47.521,30.631 47.892,29.886 47.953,29.086C48.245,25.297 47.207,21.524 45.016,18.419C42.826,15.313 39.62,13.069 35.953,12.074C35.005,8.605 32.929,5.55 30.053,3.392C28.316,2.077 26.334,1.122 24.224,0.583C22.114,0.043 19.917,-0.07 17.763,0.25C14.441,0.744 11.358,2.264 8.943,4.596C6.528,6.929 4.902,9.958 4.293,13.26C3.659,16.511 4.037,19.878 5.375,22.908C3.319,24.209 1.728,26.127 0.829,28.388C-0.069,30.649 -0.228,33.137 0.375,35.494L0.469,35.842C0.645,36.45 1.015,36.983 1.524,37.36C2.032,37.737 2.65,37.937 3.283,37.93C3.583,37.929 3.882,37.885 4.171,37.8L4.171,37.8Z" fill="#374957"/>
</svg>
