<svg width="48" height="48" viewBox="0 0 48 48" fill="none" xmlns="http://www.w3.org/2000/svg" xmlns:xlink="http://www.w3.org/1999/xlink">
<path d="M48,8L48,12L40,12L40,20L36,20L36,12L28,12L28,8L36,8L36,0L40,0L40,8L48,8ZM24,30.844C25.591,30.846 27.118,30.216 28.244,29.092L33.938,23.4C30.393,22.329 27.418,19.896 25.665,16.634C23.912,13.372 23.525,9.547 24.588,6L6,6C4.802,6.002 3.633,6.362 2.641,7.034C1.65,7.706 0.883,8.66 0.438,9.772L19.756,29.092C20.882,30.216 22.409,30.846 24,30.844ZM31.072,31.92C29.195,33.793 26.651,34.844 24,34.844C21.349,34.844 18.805,33.793 16.928,31.92L0,15L0,48L48,48L48,19.788C45.622,22.221 42.437,23.7 39.044,23.948L31.072,31.92Z" fill="#374957"/>
</svg>
