<svg width="40" height="48" viewBox="0 0 40 48" fill="none" xmlns="http://www.w3.org/2000/svg" xmlns:xlink="http://www.w3.org/1999/xlink">
<path d="M37,42L12.986,42C13.695,40.081 14.039,38.046 14,36L14,28L25,28C25.796,28 26.559,27.684 27.121,27.121C27.684,26.559 28,25.796 28,25C28,24.204 27.684,23.441 27.121,22.879C26.559,22.316 25.796,22 25,22L14,22L14,16C14.005,13.431 14.996,10.962 16.768,9.102C18.541,7.243 20.96,6.134 23.525,6.006C26.091,5.878 28.608,6.739 30.557,8.413C32.506,10.086 33.739,12.444 34,15C34,15.796 34.316,16.559 34.879,17.121C35.441,17.684 36.204,18 37,18C37.796,18 38.559,17.684 39.121,17.121C39.684,16.559 40,15.796 40,15C40,7.01 32.524,0 24,0C19.758,0.005 15.691,1.692 12.692,4.692C9.692,7.691 8.005,11.758 8,16L8,22L5,22C4.204,22 3.441,22.316 2.879,22.879C2.316,23.441 2,24.204 2,25C2,25.796 2.316,26.559 2.879,27.121C3.441,27.684 4.204,28 5,28L8,28L8,36C8,41.166 6.526,42 3,42C2.204,42 1.441,42.316 0.879,42.879C0.316,43.441 0,44.204 0,45C0,45.796 0.316,46.559 0.879,47.121C1.441,47.684 2.204,48 3,48L37,48C37.796,48 38.559,47.684 39.121,47.121C39.684,46.559 40,45.796 40,45C40,44.204 39.684,43.441 39.121,42.879C38.559,42.316 37.796,42 37,42Z" fill="#374957"/>
</svg>
