<svg width="44" height="48" viewBox="0 0 44 48" fill="none" xmlns="http://www.w3.org/2000/svg" xmlns:xlink="http://www.w3.org/1999/xlink">
<path d="M42.816,0.61C42.183,0.13 41.385,-0.08 40.598,0.028C39.81,0.135 39.098,0.55 38.616,1.182L22,23.04L5.388,1.182C4.906,0.549 4.193,0.133 3.405,0.026C2.616,-0.082 1.817,0.129 1.184,0.61C0.551,1.092 0.135,1.806 0.027,2.594C-0.08,3.382 0.13,4.181 0.612,4.814L16.712,25.998L11,25.998C10.204,25.998 9.441,26.314 8.879,26.877C8.316,27.44 8,28.203 8,28.998C8,29.794 8.316,30.557 8.879,31.12C9.441,31.682 10.204,31.998 11,31.998L19,31.998L19,35.998L11,35.998C10.204,35.998 9.441,36.314 8.879,36.877C8.316,37.44 8,38.203 8,38.998C8,39.794 8.316,40.557 8.879,41.12C9.441,41.682 10.204,41.998 11,41.998L19,41.998L19,44.998C19,45.794 19.316,46.557 19.879,47.12C20.441,47.682 21.204,47.998 22,47.998C22.796,47.998 23.559,47.682 24.121,47.12C24.684,46.557 25,45.794 25,44.998L25,41.998L33,41.998C33.796,41.998 34.559,41.682 35.121,41.12C35.684,40.557 36,39.794 36,38.998C36,38.203 35.684,37.44 35.121,36.877C34.559,36.314 33.796,35.998 33,35.998L25,35.998L25,31.998L33,31.998C33.796,31.998 34.559,31.682 35.121,31.12C35.684,30.557 36,29.794 36,28.998C36,28.203 35.684,27.44 35.121,26.877C34.559,26.314 33.796,25.998 33,25.998L27.288,25.998L43.388,4.814C43.627,4.501 43.801,4.143 43.901,3.762C44.002,3.381 44.026,2.984 43.973,2.594C43.92,2.204 43.79,1.827 43.592,1.487C43.393,1.147 43.13,0.849 42.816,0.61L42.816,0.61Z" fill="#374957"/>
</svg>
