<svg width="48" height="48" viewBox="0 0 48 48" fill="none" xmlns="http://www.w3.org/2000/svg" xmlns:xlink="http://www.w3.org/1999/xlink">
<path d="M4.286,16.078C7.077,10.513 11.115,5.668 16.086,1.92C17.735,0.712 19.716,0.043 21.759,0.003C23.802,-0.037 25.808,0.555 27.502,1.698L46.664,16L5.346,16C4.991,16.003 4.637,16.029 4.286,16.078L4.286,16.078ZM48,20L48,48L30,48C30,46.409 29.368,44.883 28.243,43.757C27.118,42.632 25.592,42 24,42C22.409,42 20.883,42.632 19.757,43.757C18.632,44.883 18,46.409 18,48L9.666,48C-1.058,47.844 -1.296,29.684 1.768,22.262C2.089,21.585 2.595,21.012 3.229,20.612C3.862,20.212 4.597,19.999 5.346,20L48,20ZM18,30C18,28.939 17.579,27.922 16.829,27.172C16.078,26.422 15.061,26 14,26C12.939,26 11.922,26.422 11.172,27.172C10.422,27.922 10,28.939 10,30C10,31.061 10.422,32.078 11.172,32.829C11.922,33.579 12.939,34 14,34C15.061,34 16.078,33.579 16.829,32.829C17.579,32.078 18,31.061 18,30ZM40,36C40,34.939 39.579,33.922 38.829,33.172C38.078,32.422 37.061,32 36,32C34.939,32 33.922,32.422 33.172,33.172C32.422,33.922 32,34.939 32,36C32,37.061 32.422,38.078 33.172,38.829C33.922,39.579 34.939,40 36,40C37.061,40 38.078,39.579 38.829,38.829C39.579,38.078 40,37.061 40,36Z" fill="#374957"/>
</svg>
