<svg width="48" height="48" viewBox="0 0 48 48" fill="none" xmlns="http://www.w3.org/2000/svg" xmlns:xlink="http://www.w3.org/1999/xlink">
<path d="M9,14C8.08,14.003 7.169,13.823 6.32,13.471C5.47,13.119 4.699,12.602 4.05,11.95L1,9.24C0.406,8.71 0.047,7.965 0.002,7.17C-0.02,6.776 0.035,6.382 0.165,6.01C0.295,5.637 0.497,5.294 0.76,5C1.023,4.706 1.341,4.467 1.696,4.295C2.051,4.124 2.437,4.024 2.83,4.002C3.625,3.957 4.406,4.23 5,4.76L8.168,7.588C8.271,7.71 8.398,7.81 8.541,7.88C8.684,7.951 8.841,7.992 9,8C9.265,8 9.519,7.895 9.706,7.708L16.932,0.828C17.512,0.303 18.275,0.026 19.056,0.055C19.838,0.084 20.578,0.417 21.118,0.984C21.657,1.551 21.954,2.306 21.945,3.088C21.935,3.871 21.621,4.618 21.068,5.172L13.896,12C13.252,12.639 12.487,13.145 11.647,13.488C10.807,13.831 9.908,14.005 9,14L9,14ZM48,7C48,6.205 47.684,5.442 47.121,4.879C46.559,4.316 45.796,4 45,4L29,4C28.204,4 27.441,4.316 26.879,4.879C26.316,5.442 26,6.205 26,7C26,7.796 26.316,8.559 26.879,9.122C27.441,9.684 28.204,10 29,10L45,10C45.796,10 46.559,9.684 47.121,9.122C47.684,8.559 48,7.796 48,7ZM13.896,28L21.068,21.172C21.621,20.619 21.935,19.871 21.945,19.088C21.954,18.306 21.657,17.551 21.118,16.984C20.578,16.417 19.838,16.084 19.056,16.055C18.275,16.026 17.512,16.303 16.932,16.828L9.706,23.708C9.518,23.896 9.264,24.001 8.999,24.001C8.734,24.001 8.48,23.896 8.292,23.708L5.122,20.536C4.559,19.973 3.796,19.657 3,19.657C2.204,19.657 1.441,19.973 0.878,20.536C0.315,21.099 -0.001,21.862 -0.001,22.658C-0.001,23.454 0.315,24.218 0.878,24.78L4.05,27.95C5.354,29.253 7.119,29.99 8.963,29.999C10.806,30.008 12.579,29.29 13.896,28L13.896,28ZM48,23C48,22.205 47.684,21.442 47.121,20.879C46.559,20.316 45.796,20 45,20L29,20C28.204,20 27.441,20.316 26.879,20.879C26.316,21.442 26,22.205 26,23C26,23.796 26.316,24.559 26.879,25.122C27.441,25.684 28.204,26 29,26L45,26C45.796,26 46.559,25.684 47.121,25.122C47.684,24.559 48,23.796 48,23ZM13.896,44L21.068,37.172C21.621,36.619 21.935,35.871 21.945,35.088C21.954,34.306 21.657,33.551 21.118,32.984C20.578,32.417 19.838,32.084 19.056,32.055C18.275,32.026 17.512,32.303 16.932,32.828L9.706,39.708C9.519,39.895 9.265,40 9,40C8.841,39.992 8.684,39.951 8.541,39.881C8.398,39.81 8.271,39.71 8.168,39.588L5,36.76C4.406,36.23 3.625,35.957 2.83,36.002C2.035,36.047 1.29,36.406 0.76,37C0.23,37.594 -0.043,38.375 0.002,39.17C0.047,39.965 0.406,40.71 1,41.24L4.046,43.95C5.35,45.255 7.116,45.992 8.961,46.001C10.805,46.01 12.579,45.291 13.896,44ZM48,39C48,38.205 47.684,37.442 47.121,36.879C46.559,36.316 45.796,36 45,36L29,36C28.204,36 27.441,36.316 26.879,36.879C26.316,37.442 26,38.205 26,39C26,39.796 26.316,40.559 26.879,41.122C27.441,41.684 28.204,42 29,42L45,42C45.796,42 46.559,41.684 47.121,41.122C47.684,40.559 48,39.796 48,39Z" fill="#374957"/>
</svg>
