<svg width="48" height="48" viewBox="0 0 48 48" fill="none" xmlns="http://www.w3.org/2000/svg" xmlns:xlink="http://www.w3.org/1999/xlink">
<path d="M42,0L6,0C4.409,0 2.883,0.632 1.757,1.757C0.632,2.883 0,4.409 0,6L0,48L36.828,48L48,36.828L48,6C48,4.409 47.368,2.883 46.243,1.757C45.117,0.632 43.591,0 42,0L42,0ZM36,43.172L36,36L43.172,36L36,43.172ZM44,32L32,32L32,44L4,44L4,6C4,5.47 4.211,4.961 4.586,4.586C4.961,4.211 5.47,4 6,4L42,4C42.53,4 43.039,4.211 43.414,4.586C43.789,4.961 44,5.47 44,6L44,32ZM25.5,10L32.026,10L32.026,12.5L28,12.5L28,14.776L31.728,14.776L31.728,17.276L28,17.276L28,22.05L25.5,22.05L25.5,10ZM10.5,14L10.5,18.136C10.498,18.334 10.535,18.53 10.609,18.713C10.684,18.896 10.794,19.063 10.934,19.203C11.074,19.343 11.24,19.453 11.423,19.528C11.606,19.603 11.802,19.64 12,19.638C12.391,19.634 12.766,19.478 13.045,19.204C13.325,18.93 13.488,18.559 13.5,18.168L13.5,18L12,18L12,16L16,16L16,18.168C15.992,19.223 15.566,20.233 14.817,20.976C14.068,21.719 13.055,22.136 12,22.136C11.477,22.138 10.958,22.038 10.474,21.839C9.99,21.641 9.549,21.35 9.178,20.981C8.806,20.613 8.511,20.174 8.309,19.692C8.107,19.209 8.002,18.691 8,18.168L8,13.968C8.002,13.445 8.107,12.927 8.309,12.444C8.511,11.962 8.806,11.524 9.178,11.155C9.549,10.786 9.99,10.495 10.474,10.297C10.958,10.098 11.477,9.998 12,10L12,10C13.059,10.007 14.072,10.43 14.821,11.179C15.57,11.928 15.993,12.941 16,14L13.5,14C13.489,13.606 13.327,13.231 13.048,12.952C12.769,12.673 12.394,12.511 12,12.5C11.803,12.498 11.607,12.536 11.424,12.61C11.241,12.685 11.075,12.796 10.936,12.935C10.796,13.075 10.686,13.241 10.612,13.424C10.537,13.607 10.5,13.803 10.502,14L10.5,14ZM19.5,10L22,10L22,22.138L19.5,22.138L19.5,10Z" fill="#374957"/>
</svg>
