<svg width="40" height="48" viewBox="0 0 40 48" fill="none" xmlns="http://www.w3.org/2000/svg" xmlns:xlink="http://www.w3.org/1999/xlink">
<path d="M12,36L12,28L28,28L28,24L12,24L12,16C12,12.817 13.264,9.765 15.515,7.515C17.765,5.264 20.817,4 24,4C27.183,4 30.235,5.264 32.485,7.515C34.736,9.765 36,12.817 36,16L40,16C40,11.757 38.314,7.687 35.314,4.686C32.313,1.686 28.243,0 24,0C19.757,0 15.687,1.686 12.686,4.686C9.686,7.687 8,11.757 8,16L8,24L2,24L2,28L8,28L8,36C8,38.122 7.157,40.157 5.657,41.657C4.157,43.157 2.122,44 0,44L0,48L40,48L40,44L8.92,44C10.902,41.807 11.999,38.956 12,36L12,36Z" fill="#374957"/>
</svg>
