<svg width="48" height="48" viewBox="0 0 48 48" fill="none" xmlns="http://www.w3.org/2000/svg" xmlns:xlink="http://www.w3.org/1999/xlink">
<path d="M48.001,6L48.001,12C48.001,13.592 47.369,15.118 46.243,16.243C45.118,17.368 43.592,18 42.001,18L36.001,18L36.001,14L41.273,14C39.645,11.188 37.355,8.815 34.603,7.088C31.851,5.36 28.719,4.33 25.478,4.086C22.238,3.842 18.987,4.393 16.008,5.689C13.028,6.986 10.409,8.989 8.379,11.526C6.348,14.063 4.967,17.057 4.355,20.248C3.743,23.44 3.919,26.732 4.867,29.84C5.814,32.949 7.506,35.779 9.795,38.085C12.083,40.392 14.9,42.106 18.001,43.078L18.001,47.21C14.233,46.237 10.758,44.362 7.876,41.746C4.995,39.13 2.793,35.852 1.461,32.195C0.129,28.539 -0.293,24.613 0.231,20.756C0.755,16.9 2.21,13.229 4.469,10.061C6.729,6.892 9.725,4.321 13.2,2.569C16.676,0.817 20.525,-0.064 24.416,0.004C28.307,0.072 32.123,1.085 35.535,2.957C38.947,4.829 41.853,7.503 44.001,10.748L44.001,6L48.001,6ZM34.001,36C34.001,34.409 33.369,32.883 32.243,31.758C31.118,30.633 29.592,30 28.001,30C26.409,30 24.883,30.633 23.758,31.758C22.633,32.883 22.001,34.409 22.001,36L26.001,36C26.001,35.47 26.211,34.961 26.586,34.586C26.962,34.211 27.47,34 28.001,34C28.531,34 29.04,34.211 29.415,34.586C29.79,34.961 30.001,35.47 30.001,36C30.001,37 28.301,38.276 26.801,39.4C24.551,41.088 22.001,43 22.001,46L22.001,48L34.001,48L34.001,44L27.421,44C27.963,43.528 28.599,43.052 29.201,42.6C31.451,40.912 34.001,39 34.001,36ZM44.001,38L40.001,38L40.001,30L36.001,30L36.001,38C36.001,39.061 36.422,40.079 37.172,40.829C37.922,41.579 38.94,42 40.001,42L44.001,42L44.001,48L48.001,48L48.001,30L44.001,30L44.001,38ZM26.001,12L22.001,12L22.001,22L14.001,22L14.001,26L26.001,26L26.001,12Z" fill="#374957"/>
</svg>
