<svg width="42" height="48" viewBox="0 0 42 48" fill="none" xmlns="http://www.w3.org/2000/svg" xmlns:xlink="http://www.w3.org/1999/xlink">
<path d="M22.001,16.36L22.001,6.214C22.019,4.768 21.528,3.361 20.614,2.24C19.7,1.119 18.421,0.355 17.001,0.082C16.14,-0.063 15.258,-0.019 14.417,0.211C13.575,0.441 12.793,0.853 12.127,1.416C11.46,1.98 10.925,2.682 10.558,3.473C10.19,4.265 10,5.127 10.001,6L10.001,21.162L1.759,29.272C0.634,30.397 0.002,31.923 0.002,33.514C0.002,35.105 0.634,36.631 1.759,37.756L12.001,48L42.001,48L42.001,20.36L22.001,16.36ZM38.001,44L13.657,44L4.587,34.928C4.214,34.555 4.003,34.05 4.001,33.522C3.999,32.995 4.205,32.488 4.575,32.112L10.001,26.774L10.001,34L14.001,34L14.001,6C14,5.707 14.064,5.418 14.187,5.153C14.311,4.888 14.491,4.653 14.715,4.465C14.939,4.277 15.202,4.14 15.484,4.065C15.767,3.989 16.063,3.977 16.351,4.028C16.835,4.147 17.264,4.43 17.564,4.828C17.865,5.226 18.019,5.715 18.001,6.214L18.001,19.64L38.001,23.64L38.001,44Z" fill="#374957"/>
</svg>
