<svg width="48" height="48" viewBox="0 0 48 48" fill="none" xmlns="http://www.w3.org/2000/svg" xmlns:xlink="http://www.w3.org/1999/xlink">
<path d="M29,26C28.407,26 27.827,25.825 27.333,25.495C26.84,25.165 26.456,24.697 26.228,24.149C26.001,23.6 25.942,22.997 26.058,22.415C26.174,21.833 26.459,21.299 26.879,20.879C27.298,20.46 27.833,20.174 28.415,20.058C28.997,19.942 29.6,20.002 30.148,20.229C30.696,20.456 31.165,20.84 31.495,21.334C31.824,21.827 32,22.407 32,23C32,23.796 31.684,24.559 31.121,25.122C30.559,25.684 29.796,26 29,26ZM43.774,16.135C42.851,11.574 40.376,7.475 36.771,4.533C33.166,1.592 28.653,-0.01 24,0.001C10.106,0.001 6,9.165 3.562,14.639C3.07,15.992 2.371,17.261 1.49,18.401C0.93,18.719 0.488,19.21 0.228,19.8C-0.031,20.39 -0.094,21.048 0.05,21.676C0.194,22.304 0.536,22.869 1.026,23.288C1.516,23.707 2.127,23.957 2.77,24C7.339,24.183 11.9,23.479 16.2,21.926C15.987,22.479 15.942,23.083 16.071,23.661C16.2,24.239 16.497,24.766 16.925,25.175C17.354,25.585 17.893,25.858 18.477,25.961C19.06,26.064 19.661,25.992 20.203,25.754C20.746,25.517 21.206,25.123 21.525,24.625C21.845,24.126 22.009,23.543 21.998,22.951C21.987,22.359 21.801,21.783 21.463,21.296C21.125,20.81 20.651,20.434 20.1,20.216C22.686,18.889 25.053,17.171 27.116,15.123C27.679,14.56 27.995,13.796 27.995,13.001C27.995,12.205 27.679,11.441 27.116,10.879C26.553,10.316 25.79,10 24.994,10C24.198,10 23.435,10.316 22.872,10.879C19.003,14.554 14.077,16.921 8.79,17.645L9.04,17.089C11.362,11.891 14,6.001 24,6.001C27.502,5.992 30.883,7.284 33.488,9.625C36.092,11.966 37.735,15.191 38.098,18.675C38.166,19.319 38.442,19.925 38.883,20.4C39.325,20.875 39.908,21.195 40.546,21.31C40.953,21.384 41.321,21.598 41.587,21.914C41.853,22.231 41.999,22.631 42,23.044C42.001,23.305 41.949,23.563 41.849,23.803C41.749,24.044 41.602,24.262 41.416,24.444C41.044,24.813 40.54,25.02 40.016,25.018L39.994,25.018L39.67,25.018C39.009,24.968 38.35,25.137 37.794,25.498C37.238,25.86 36.816,26.394 36.594,27.018C35.572,29.562 33.842,31.759 31.61,33.351C29.379,34.942 26.738,35.862 24,36C21.447,35.783 18.989,34.925 16.855,33.507C14.72,32.089 12.977,30.156 11.786,27.886C11.64,27.521 11.423,27.187 11.148,26.905C10.873,26.623 10.545,26.398 10.182,26.243C9.451,25.929 8.625,25.919 7.886,26.214C7.147,26.51 6.556,27.087 6.242,27.818C5.929,28.55 5.919,29.376 6.214,30.114C7.852,33.751 10.571,36.795 14,38.832L14,45C14,45.796 14.316,46.559 14.879,47.122C15.441,47.684 16.204,48 17,48C17.796,48 18.559,47.684 19.121,47.122C19.684,46.559 20,45.796 20,45L20,41.464C21.305,41.811 22.65,41.991 24,42C25.351,41.979 26.694,41.795 28,41.452L28,45C28,45.796 28.316,46.559 28.879,47.122C29.441,47.684 30.204,48 31,48C31.796,48 32.559,47.684 33.121,47.122C33.684,46.559 34,45.796 34,45L34,38.91C37.157,36.956 39.727,34.185 41.438,30.89C43.278,30.558 44.942,29.591 46.141,28.157C47.341,26.723 47.998,24.914 48,23.044C48,21.615 47.605,20.214 46.86,18.995C46.114,17.776 45.046,16.786 43.774,16.135L43.774,16.135Z" fill="#374957"/>
</svg>
