<svg width="48" height="44" viewBox="0 0 48 44" fill="none" xmlns="http://www.w3.org/2000/svg" xmlns:xlink="http://www.w3.org/1999/xlink">
<path d="M8,12C7.211,12.002 6.43,11.848 5.702,11.546C4.973,11.244 4.312,10.801 3.756,10.242L0.586,7.072L3.414,4.244L6.586,7.414C6.967,7.778 7.473,7.981 8,7.981C8.527,7.981 9.033,7.778 9.414,7.414L16.586,0.244L19.414,3.072L12.242,10.242C11.686,10.801 11.025,11.245 10.297,11.546C9.569,11.848 8.788,12.002 8,12L8,12ZM48,6L24,6L24,10L48,10L48,6ZM12.242,26.242L19.414,19.072L16.586,16.244L9.414,23.414C9.033,23.778 8.527,23.981 8,23.981C7.473,23.981 6.967,23.778 6.586,23.414L3.414,20.244L0.586,23.072L3.756,26.242C4.313,26.799 4.975,27.242 5.703,27.543C6.431,27.845 7.211,28 7.999,28C8.787,28 9.567,27.845 10.295,27.543C11.023,27.242 11.685,26.799 12.242,26.242L12.242,26.242ZM48,22L24,22L24,26L48,26L48,22ZM12.242,42.242L19.414,35.072L16.586,32.244L9.414,39.414C9.033,39.778 8.527,39.981 8,39.981C7.473,39.981 6.967,39.778 6.586,39.414L3.414,36.244L0.586,39.072L3.756,42.242C4.313,42.799 4.975,43.242 5.703,43.543C6.431,43.845 7.211,44 7.999,44C8.787,44 9.567,43.845 10.295,43.543C11.023,43.242 11.685,42.799 12.242,42.242L12.242,42.242ZM48,38L24,38L24,42L48,42L48,38Z" fill="#374957"/>
</svg>
