<svg width="48" height="48" viewBox="0 0 48 48" fill="none" xmlns="http://www.w3.org/2000/svg" xmlns:xlink="http://www.w3.org/1999/xlink">
<path d="M47.914,2.914L2.914,47.914L0.086,45.086L9.65,35.522C3.582,29 0,21.482 0,15C-0.012,13.44 0.284,11.893 0.874,10.449C1.463,9.004 2.332,7.691 3.432,6.584L9.774,0.244L22.304,12.774L14.056,21.022C15.053,23.267 16.352,25.364 17.916,27.256L45.086,0.086L47.914,2.914ZM26.96,33.96C25.955,33.516 24.979,33.008 24.038,32.44L15.566,40.912C21.4,45.388 27.67,48 33,48C34.56,48.014 36.107,47.718 37.552,47.128C38.996,46.539 40.309,45.669 41.414,44.568L47.756,38.226L35.226,25.696L26.96,33.96Z" fill="#374957"/>
</svg>
