<svg width="48" height="50" viewBox="0 0 48 50" fill="none" xmlns="http://www.w3.org/2000/svg" xmlns:xlink="http://www.w3.org/1999/xlink">
<path d="M44,0L39.656,0C38.867,-0.003 38.087,0.152 37.358,0.453C36.63,0.755 35.969,1.198 35.414,1.758L18.692,18.478C15.49,17.652 12.106,17.901 9.06,19.187C6.014,20.474 3.476,22.726 1.836,25.597C0.196,28.468 -0.454,31.799 -0.015,35.076C0.424,38.353 1.929,41.395 4.267,43.733C6.605,46.07 9.646,47.575 12.923,48.014C16.2,48.453 19.531,47.803 22.402,46.163C25.273,44.523 27.525,41.985 28.812,38.939C30.098,35.893 30.348,32.509 29.522,29.308L32,26.83L32,22L38,22L38,16L42.828,16L46.242,12.586C46.801,12.029 47.244,11.368 47.545,10.64C47.847,9.911 48.002,9.13 48,8.342L48,4C48,2.939 47.578,1.921 46.828,1.171C46.078,0.421 45.06,0 44,0L44,0ZM44,8.342C44,8.604 43.948,8.865 43.848,9.108C43.747,9.351 43.6,9.572 43.414,9.758L41.172,12L34,12L34,18L28,18L28,25.17L24.91,28.26C25.613,29.742 25.985,31.359 26,33C26,35.175 25.354,37.302 24.146,39.111C22.937,40.92 21.219,42.33 19.209,43.162C17.199,43.995 14.987,44.213 12.854,43.788C10.72,43.364 8.76,42.316 7.221,40.778C5.683,39.239 4.635,37.279 4.211,35.146C3.787,33.012 4.004,30.8 4.837,28.79C5.669,26.78 7.079,25.062 8.888,23.853C10.697,22.645 12.824,22 15,22C16.651,21.892 18.298,22.27 19.738,23.088L38.242,4.586C38.618,4.212 39.126,4.002 39.656,4L44,4L44,8.342ZM10,36C10,36.395 10.117,36.782 10.337,37.111C10.556,37.44 10.869,37.696 11.234,37.847C11.6,37.999 12.002,38.038 12.39,37.961C12.778,37.884 13.134,37.694 13.414,37.414C13.693,37.134 13.884,36.778 13.961,36.39C14.038,36.002 13.999,35.6 13.847,35.234C13.696,34.869 13.44,34.556 13.111,34.337C12.782,34.117 12.395,34 12,34C11.469,34 10.96,34.21 10.585,34.585C10.21,34.96 10,35.469 10,36Z" fill="#374957"/>
</svg>
