<svg width="48" height="48" viewBox="0 0 48 48" fill="none" xmlns="http://www.w3.org/2000/svg" xmlns:xlink="http://www.w3.org/1999/xlink">
<path d="M37,10L34,10L34,7C34,5.143 33.263,3.363 31.95,2.05C30.637,0.737 28.857,0 27,0L21,0C19.143,0 17.363,0.737 16.05,2.05C14.737,3.363 14,5.143 14,7L14,10L11,10C8.084,10.003 5.288,11.163 3.225,13.225C1.163,15.288 0.003,18.084 0,21L0,37C0.003,39.916 1.163,42.712 3.225,44.775C5.288,46.837 8.084,47.997 11,48L37,48C39.916,47.997 42.712,46.837 44.775,44.775C46.837,42.712 47.997,39.916 48,37L48,21C47.997,18.084 46.837,15.288 44.775,13.225C42.712,11.163 39.916,10.003 37,10ZM20,7C20,6.735 20.105,6.48 20.293,6.293C20.48,6.105 20.735,6 21,6L27,6C27.265,6 27.52,6.105 27.707,6.293C27.895,6.48 28,6.735 28,7L28,10L20,10L20,7ZM42,37C42,38.326 41.473,39.598 40.536,40.536C39.598,41.473 38.326,42 37,42L11,42C9.674,42 8.402,41.473 7.464,40.536C6.527,39.598 6,38.326 6,37L6,21C6,19.674 6.527,18.402 7.464,17.464C8.402,16.527 9.674,16 11,16L37,16C38.326,16 39.598,16.527 40.536,17.464C41.473,18.402 42,19.674 42,21L42,37ZM33,29C33,29.796 32.684,30.559 32.121,31.121C31.559,31.684 30.796,32 30,32L27,32L27,35C27,35.796 26.684,36.559 26.121,37.121C25.559,37.684 24.796,38 24,38C23.204,38 22.441,37.684 21.879,37.121C21.316,36.559 21,35.796 21,35L21,32L18,32C17.204,32 16.441,31.684 15.879,31.121C15.316,30.559 15,29.796 15,29C15,28.204 15.316,27.441 15.879,26.879C16.441,26.316 17.204,26 18,26L21,26L21,23C21,22.204 21.316,21.441 21.879,20.879C22.441,20.316 23.204,20 24,20C24.796,20 25.559,20.316 26.121,20.879C26.684,21.441 27,22.204 27,23L27,26L30,26C30.796,26 31.559,26.316 32.121,26.879C32.684,27.441 33,28.204 33,29Z" fill="#374957"/>
</svg>
