<svg width="50" height="44" viewBox="0 0 50 44" fill="none" xmlns="http://www.w3.org/2000/svg" xmlns:xlink="http://www.w3.org/1999/xlink">
<path d="M34.5,-0.298C32.448,-0.278 30.43,0.222 28.607,1.162C26.783,2.102 25.206,3.456 24,5.116C22.794,3.456 21.216,2.102 19.393,1.162C17.569,0.222 15.551,-0.278 13.5,-0.298C9.783,-0.15 6.277,1.464 3.747,4.191C1.217,6.917 -0.13,10.535 0,14.252C0,23.356 9.348,33.102 17.2,39.676C19.106,41.279 21.518,42.158 24.009,42.158C26.5,42.158 28.911,41.279 30.818,39.676C38.662,33.102 48.018,23.356 48.018,14.252C48.148,10.532 46.798,6.912 44.264,4.184C41.731,1.457 38.219,-0.155 34.5,-0.298L34.5,-0.298ZM26.954,35.078C26.127,35.774 25.08,36.156 23.999,36.156C22.917,36.156 21.871,35.774 21.044,35.078C11.484,27.062 6,19.472 6,14.252C5.872,12.126 6.588,10.036 7.993,8.435C9.397,6.834 11.376,5.852 13.5,5.702C15.624,5.852 17.603,6.834 19.007,8.435C20.411,10.036 21.127,12.126 21,14.252C21,15.047 21.316,15.81 21.878,16.373C22.441,16.936 23.204,17.252 24,17.252C24.795,17.252 25.558,16.936 26.121,16.373C26.684,15.81 27,15.047 27,14.252C26.872,12.126 27.588,10.036 28.993,8.435C30.397,6.834 32.376,5.852 34.5,5.702C36.624,5.852 38.603,6.834 40.007,8.435C41.411,10.036 42.127,12.126 42,14.252C42,19.472 36.516,27.062 26.954,35.078Z" fill="#374957"/>
</svg>
