<svg width="48" height="48" viewBox="0 0 48 48" fill="none" xmlns="http://www.w3.org/2000/svg" xmlns:xlink="http://www.w3.org/1999/xlink">
<path d="M45.07,14.648L47.93,11.848L36.43,0.102L33.57,2.902L38.082,7.502L33.724,11.584L31.9,9.758C30.778,8.637 29.257,8.006 27.67,8.003C26.084,8 24.561,8.625 23.434,9.742L29.846,16.154L27.018,18.982L20.6,12.568L17.432,15.74L23.846,22.154L21.018,24.982L14.6,18.568L11.432,21.74L17.846,28.154L15.018,30.982L8.6,24.568L6,27.172L6,39.172L0.086,45.086L2.914,47.914L8.828,42L20.828,42L38.242,24.586C38.799,24.029 39.241,23.368 39.543,22.64C39.844,21.912 40,21.131 40,20.343C40,19.555 39.844,18.775 39.543,18.047C39.241,17.319 38.799,16.657 38.242,16.1L36.554,14.414L40.88,10.368L45.07,14.648Z" fill="#374957"/>
</svg>
