<svg width="48" height="48" viewBox="0 0 48 48" fill="none" xmlns="http://www.w3.org/2000/svg" xmlns:xlink="http://www.w3.org/1999/xlink">
<path d="M27.138,12L31.066,22L16.954,22L20.954,12L27.138,12ZM35.362,22L47.858,22C47.662,21.295 47.339,20.631 46.906,20.042L42.812,14.456C42.254,13.696 41.525,13.078 40.684,12.651C39.843,12.225 38.914,12.002 37.972,12L31.434,12L35.362,22ZM31.228,26L16.772,26L24,47.758L31.228,26ZM35.444,26L29.958,42.51L46.292,27.846C46.825,27.314 47.255,26.688 47.56,26L35.444,26ZM12.556,26L0.46,26C0.777,26.715 1.226,27.364 1.782,27.914L18.042,42.514L12.556,26ZM12.646,22L16.646,12L10.028,12C9.085,12.002 8.156,12.225 7.315,12.651C6.474,13.078 5.746,13.696 5.188,14.456L1.094,20.042C0.661,20.632 0.339,21.295 0.144,22L12.646,22ZM26,0L22,0L22,8L26,8L26,0ZM39.688,3.304L36.312,1.156L32.312,7.44L35.688,9.588L39.688,3.304ZM15.688,7.44L11.688,1.156L8.312,3.304L12.312,9.588L15.688,7.44Z" fill="#374957"/>
</svg>
