<svg width="48" height="28" viewBox="0 0 48 28" fill="none" xmlns="http://www.w3.org/2000/svg" xmlns:xlink="http://www.w3.org/1999/xlink">
<path d="M10,0L10,28L0,28L0,0L10,0ZM48,28L48,0L38,0L38,28L48,28ZM34,0L34,28L14,28L14,0L34,0ZM26,10C26,10.396 26.117,10.782 26.337,11.111C26.557,11.44 26.869,11.696 27.235,11.848C27.6,11.999 28.002,12.039 28.39,11.962C28.778,11.884 29.135,11.694 29.414,11.414C29.694,11.135 29.884,10.778 29.962,10.39C30.039,10.002 29.999,9.6 29.848,9.235C29.696,8.869 29.44,8.557 29.111,8.337C28.782,8.117 28.396,8 28,8C27.47,8 26.961,8.211 26.586,8.586C26.211,8.961 26,9.47 26,10ZM22,18C22,17.604 21.883,17.218 21.663,16.889C21.443,16.56 21.131,16.304 20.765,16.152C20.4,16.001 19.998,15.961 19.61,16.038C19.222,16.116 18.865,16.306 18.586,16.586C18.306,16.865 18.116,17.222 18.038,17.61C17.961,17.998 18.001,18.4 18.152,18.765C18.304,19.131 18.56,19.443 18.889,19.663C19.218,19.883 19.604,20 20,20C20.53,20 21.039,19.789 21.414,19.414C21.789,19.039 22,18.53 22,18ZM22,10C22,9.604 21.883,9.218 21.663,8.889C21.443,8.56 21.131,8.304 20.765,8.152C20.4,8.001 19.998,7.961 19.61,8.038C19.222,8.116 18.865,8.306 18.586,8.586C18.306,8.865 18.116,9.222 18.038,9.61C17.961,9.998 18.001,10.4 18.152,10.765C18.304,11.131 18.56,11.443 18.889,11.663C19.218,11.883 19.604,12 20,12C20.53,12 21.039,11.789 21.414,11.414C21.789,11.039 22,10.53 22,10ZM30,18C30,17.604 29.883,17.218 29.663,16.889C29.443,16.56 29.131,16.304 28.765,16.152C28.4,16.001 27.998,15.961 27.61,16.038C27.222,16.116 26.865,16.306 26.586,16.586C26.306,16.865 26.116,17.222 26.038,17.61C25.961,17.998 26.001,18.4 26.152,18.765C26.304,19.131 26.56,19.443 26.889,19.663C27.218,19.883 27.604,20 28,20C28.53,20 29.039,19.789 29.414,19.414C29.789,19.039 30,18.53 30,18Z" fill="#374957"/>
</svg>
