<svg width="48" height="48" viewBox="0 0 48 48" fill="none" xmlns="http://www.w3.org/2000/svg" xmlns:xlink="http://www.w3.org/1999/xlink">
<path d="M48,30C47.989,26.383 46.756,22.876 44.502,20.047C42.247,17.219 39.103,15.235 35.58,14.418C34.954,11.682 33.619,9.158 31.708,7.102C29.798,5.046 27.379,3.529 24.696,2.705C22.013,1.881 19.16,1.778 16.425,2.406C13.689,3.035 11.168,4.373 9.114,6.286L2.914,0.086L0.086,2.914L45.086,47.914L47.914,45.086L43.714,40.886C46.472,37.933 48.004,34.041 48,30L48,30ZM20,6C22.901,6.008 25.702,7.065 27.885,8.976C30.069,10.888 31.487,13.525 31.878,16.4L32.078,17.916L33.596,18.116C35.763,18.402 37.811,19.277 39.517,20.645C41.223,22.013 42.522,23.822 43.272,25.876C44.022,27.93 44.196,30.15 43.773,32.296C43.351,34.441 42.349,36.43 40.876,38.046L11.946,9.118C14.149,7.113 17.021,6.001 20,6ZM33.4,41.88L36.774,45.256C35.229,45.744 33.619,45.995 32,46L11,46C8.552,46.003 6.173,45.188 4.241,43.684C2.309,42.18 0.936,40.074 0.338,37.7C-0.26,35.326 -0.047,32.821 0.943,30.582C1.932,28.342 3.642,26.498 5.8,25.342C4.615,23.076 3.998,20.557 4,18C4.005,16.381 4.256,14.772 4.744,13.228L8.124,16.6C8.054,17.064 8.012,17.531 8,18C7.997,20.568 8.827,23.068 10.364,25.126L12.132,27.51L9.256,28.252C7.605,28.672 6.165,29.681 5.207,31.089C4.249,32.497 3.838,34.207 4.052,35.897C4.267,37.586 5.091,39.139 6.371,40.263C7.65,41.387 9.297,42.005 11,42L32,42C32.468,41.987 32.936,41.947 33.4,41.88L33.4,41.88Z" fill="#374957"/>
</svg>
