<svg width="12" height="18" viewBox="0 0 12 18" fill="none" xmlns="http://www.w3.org/2000/svg" xmlns:xlink="http://www.w3.org/1999/xlink">
<path d="M12,6C12,4.409 11.368,2.883 10.243,1.757C9.117,0.632 7.591,0 6,0C4.409,0 2.883,0.632 1.757,1.757C0.632,2.883 0,4.409 0,6L4,6C4,5.47 4.211,4.961 4.586,4.586C4.961,4.211 5.47,4 6,4C6.53,4 7.039,4.211 7.414,4.586C7.789,4.961 8,5.47 8,6C8,7 6.3,8.276 4.8,9.4C2.55,11.088 0,13 0,16L0,18L12,18L12,14L5.42,14C5.962,13.528 6.598,13.052 7.2,12.6C9.45,10.912 12,9 12,6Z" fill="#374957"/>
</svg>
