<svg width="48" height="36" viewBox="0 0 48 36" fill="none" xmlns="http://www.w3.org/2000/svg" xmlns:xlink="http://www.w3.org/1999/xlink">
<path d="M45,35.999C44.204,35.999 43.441,35.683 42.879,35.121C42.316,34.558 42,33.795 42,32.999L42,23.999C41.052,0.131 6.94,0.149 6,23.999L6,32.999C6,33.795 5.684,34.558 5.121,35.121C4.559,35.683 3.796,35.999 3,35.999C2.204,35.999 1.441,35.683 0.879,35.121C0.316,34.558 0,33.795 0,32.999L0,23.999C1.322,-7.849 46.69,-7.823 48,23.999L48,32.999C48,33.795 47.684,34.558 47.121,35.121C46.559,35.683 45.796,35.999 45,35.999ZM38,32.999L38,23.999C37.34,5.465 10.654,5.479 10,23.999L10,32.999C10,33.795 10.316,34.558 10.879,35.121C11.441,35.683 12.204,35.999 13,35.999C13.796,35.999 14.559,35.683 15.121,35.121C15.684,34.558 16,33.795 16,32.999L16,23.999C16,21.878 16.843,19.843 18.343,18.342C19.843,16.842 21.878,15.999 24,15.999C26.122,15.999 28.157,16.842 29.657,18.342C31.157,19.843 32,21.878 32,23.999L32,32.999C32,33.795 32.316,34.558 32.879,35.121C33.441,35.683 34.204,35.999 35,35.999C35.796,35.999 36.559,35.683 37.121,35.121C37.684,34.558 38,33.795 38,32.999ZM28,32.999L28,23.999C28,22.938 27.579,21.921 26.828,21.171C26.078,20.421 25.061,19.999 24,19.999C22.939,19.999 21.922,20.421 21.172,21.171C20.421,21.921 20,22.938 20,23.999L20,32.999C20,33.795 20.316,34.558 20.879,35.121C21.441,35.683 22.204,35.999 23,35.999L25,35.999C25.796,35.999 26.559,35.683 27.121,35.121C27.684,34.558 28,33.795 28,32.999L28,32.999Z" fill="#374957"/>
</svg>
