<svg width="48" height="48" viewBox="0 0 48 48" fill="none" xmlns="http://www.w3.org/2000/svg" xmlns:xlink="http://www.w3.org/1999/xlink">
<path d="M47.952,29C47.812,30.826 47.343,32.612 46.57,34.272C46.233,34.993 45.623,35.55 44.875,35.821C44.127,36.092 43.302,36.055 42.581,35.717C41.86,35.38 41.303,34.77 41.032,34.022C40.761,33.274 40.799,32.449 41.136,31.728C41.604,30.72 41.887,29.636 41.97,28.528C42.171,25.895 41.355,23.284 39.691,21.234C38.026,19.183 35.639,17.848 33.02,17.504C32.367,17.417 31.761,17.118 31.296,16.653C30.83,16.188 30.53,15.583 30.442,14.93C30.263,13.582 29.817,12.282 29.13,11.108C28.444,9.933 27.53,8.907 26.442,8.09C25.336,7.257 24.075,6.653 22.733,6.314C21.391,5.975 19.995,5.907 18.626,6.114C16.541,6.428 14.607,7.386 13.094,8.854C11.581,10.322 10.565,12.226 10.188,14.3C9.747,16.54 10.069,18.863 11.1,20.9C11.719,22.059 11.853,23.416 11.474,24.674C11.095,25.932 10.232,26.988 9.076,27.612C7.946,28.176 7.043,29.11 6.517,30.258C5.992,31.407 5.876,32.7 6.188,33.924C6.573,35.136 7.343,36.19 8.38,36.925C9.418,37.661 10.667,38.038 11.938,38L17,38C17.796,38 18.559,38.316 19.121,38.879C19.684,39.442 20,40.205 20,41C20,41.796 19.684,42.559 19.121,43.122C18.559,43.684 17.796,44 17,44L11.938,44C9.336,44.051 6.791,43.238 4.7,41.689C2.61,40.14 1.091,37.942 0.382,35.438C-0.222,33.079 -0.064,30.589 0.834,28.326C1.733,26.062 3.325,24.141 5.382,22.838C3.916,19.544 3.588,15.856 4.45,12.355C5.311,8.854 7.313,5.739 10.139,3.501C12.966,1.263 16.457,0.029 20.062,-0.006C23.667,-0.041 27.182,1.124 30.052,3.306C32.913,5.477 34.984,8.526 35.948,11.986C39.617,12.98 42.824,15.224 45.016,18.33C47.207,21.436 48.246,25.21 47.952,29L47.952,29ZM37.126,36L34,36L34,27C34,26.205 33.684,25.442 33.121,24.879C32.559,24.316 31.796,24 31,24C30.204,24 29.441,24.316 28.879,24.879C28.316,25.442 28,26.205 28,27L28,36L24.874,36C24.491,36 24.116,36.113 23.797,36.326C23.479,36.539 23.23,36.841 23.083,37.195C22.937,37.549 22.898,37.939 22.973,38.314C23.048,38.69 23.233,39.035 23.504,39.306L29.63,45.432C29.81,45.613 30.023,45.756 30.258,45.853C30.493,45.951 30.745,46.001 31,46.001C31.255,46.001 31.507,45.951 31.742,45.853C31.977,45.756 32.19,45.613 32.37,45.432L38.496,39.306C38.767,39.035 38.952,38.69 39.027,38.314C39.102,37.939 39.063,37.549 38.917,37.195C38.77,36.841 38.521,36.539 38.203,36.326C37.884,36.113 37.509,36 37.126,36Z" fill="#374957"/>
</svg>
