<svg width="48" height="48" viewBox="0 0 48 48" fill="none" xmlns="http://www.w3.org/2000/svg" xmlns:xlink="http://www.w3.org/1999/xlink">
<path d="M46.296,11.4L40.56,3.654C39.751,2.525 38.685,1.605 37.45,0.969C36.215,0.334 34.847,0.002 33.458,0L14.542,0C13.164,-0.001 11.806,0.324 10.578,0.95C9.35,1.576 8.289,2.484 7.48,3.6L1.6,11.442C0.513,12.969 -0.052,14.807 -0.009,16.681C0.033,18.556 0.68,20.366 1.836,21.842L18.658,45.42C19.295,46.227 20.107,46.878 21.032,47.325C21.957,47.772 22.972,48.003 24,48C25.052,47.997 26.089,47.752 27.03,47.284C27.972,46.816 28.793,46.137 29.43,45.3L46.03,22.082C47.251,20.582 47.94,18.72 47.988,16.786C48.036,14.853 47.441,12.958 46.296,11.4L46.296,11.4ZM6.454,14.974L12.322,7.142C12.575,6.789 12.908,6.501 13.294,6.303C13.68,6.104 14.108,6 14.542,6L19.324,6L16.364,16.364L16.534,17L31.466,17L31.636,16.364L28.676,6L33.458,6C33.9,6.003 34.336,6.112 34.727,6.318C35.119,6.524 35.455,6.821 35.708,7.184L41.466,14.964C41.674,15.256 41.82,15.587 41.896,15.937C41.971,16.287 41.975,16.649 41.906,17L31.466,17L25.026,41.15L24.64,41.692C24.564,41.789 24.467,41.868 24.356,41.921C24.245,41.974 24.123,42.001 24,42C23.8,42.01 23.604,41.943 23.452,41.812L22.97,41.138L16.534,17L6.082,17C6.004,16.655 5.996,16.297 6.06,15.949C6.124,15.6 6.258,15.269 6.454,14.974L6.454,14.974Z" fill="#374957"/>
</svg>
