<svg width="48" height="48" viewBox="0 0 48 48" fill="none" xmlns="http://www.w3.org/2000/svg" xmlns:xlink="http://www.w3.org/1999/xlink">
<path d="M34,42C34,43.591 33.368,45.117 32.243,46.242C31.118,47.368 29.591,48 28,48C26.409,48 24.883,47.368 23.758,46.242C22.632,45.117 22,43.591 22,42L22,36C22,34.408 22.632,32.882 23.758,31.757C24.883,30.632 26.409,30 28,30L32,30L32,34L28,34C27.47,34 26.961,34.21 26.586,34.585C26.211,34.961 26,35.469 26,36L26,36.342C26.905,36.022 27.874,35.924 28.825,36.055C29.776,36.187 30.681,36.546 31.465,37.1C32.248,37.654 32.888,38.388 33.329,39.241C33.77,40.094 34,41.04 34,42ZM30,42C30,41.604 29.883,41.217 29.663,40.889C29.443,40.56 29.131,40.303 28.766,40.152C28.4,40.001 27.998,39.961 27.61,40.038C27.222,40.115 26.866,40.306 26.586,40.585C26.306,40.865 26.116,41.222 26.039,41.609C25.961,41.997 26.001,42.4 26.152,42.765C26.304,43.13 26.56,43.443 26.889,43.663C27.218,43.882 27.605,44 28,44C28.531,44 29.039,43.789 29.414,43.414C29.789,43.039 30,42.53 30,42ZM48,36L48,42C48,43.591 47.368,45.117 46.243,46.242C45.118,47.368 43.591,48 42,48C40.409,48 38.883,47.368 37.758,46.242C36.632,45.117 36,43.591 36,42L36,36C36,34.408 36.632,32.882 37.758,31.757C38.883,30.632 40.409,30 42,30C43.591,30 45.118,30.632 46.243,31.757C47.368,32.882 48,34.408 48,36ZM44,36C44,35.469 43.789,34.961 43.414,34.585C43.039,34.21 42.531,34 42,34C41.47,34 40.961,34.21 40.586,34.585C40.211,34.961 40,35.469 40,36L40,42C40,42.53 40.211,43.039 40.586,43.414C40.961,43.789 41.47,44 42,44C42.531,44 43.039,43.789 43.414,43.414C43.789,43.039 44,42.53 44,42L44,36ZM26,12L22,12L22,22L14,22L14,26L26,26L26,12ZM44,4L44,10.748C41.853,7.5 38.947,4.824 35.535,2.95C32.122,1.077 28.304,0.062 24.412,-0.007C20.519,-0.076 16.668,0.804 13.191,2.557C9.715,4.309 6.717,6.881 4.456,10.051C2.196,13.221 0.741,16.893 0.217,20.751C-0.307,24.609 0.116,28.537 1.45,32.195C2.783,35.852 4.986,39.131 7.87,41.747C10.753,44.363 14.23,46.238 18,47.21L18,43.078C14.891,42.11 12.065,40.399 9.767,38.091C7.47,35.783 5.77,32.95 4.817,29.836C3.864,26.722 3.685,23.423 4.296,20.225C4.908,17.026 6.291,14.026 8.326,11.483C10.36,8.941 12.985,6.934 15.972,5.636C18.958,4.339 22.217,3.79 25.464,4.038C28.71,4.286 31.848,5.323 34.603,7.059C37.358,8.795 39.647,11.178 41.272,14L34,14L34,18L44,18C45.061,18 46.078,17.578 46.829,16.828C47.579,16.078 48,15.061 48,14L48,4L44,4Z" fill="#374957"/>
</svg>
