<svg width="48" height="44" viewBox="0 0 48 44" fill="none" xmlns="http://www.w3.org/2000/svg" xmlns:xlink="http://www.w3.org/1999/xlink">
<path d="M42,0L22,0C20.409,0 18.883,0.633 17.757,1.758C16.632,2.883 16,4.409 16,6L16,26.052C14.279,24.729 12.171,24.008 10,24C8.022,24 6.089,24.587 4.444,25.686C2.8,26.785 1.518,28.346 0.761,30.174C0.004,32.001 -0.194,34.011 0.192,35.951C0.578,37.891 1.53,39.673 2.929,41.071C4.327,42.47 6.109,43.422 8.049,43.808C9.989,44.194 12,43.996 13.827,43.239C15.654,42.482 17.216,41.201 18.315,39.556C19.414,37.912 20,35.978 20,34L20,6C20,5.47 20.211,4.961 20.586,4.586C20.961,4.211 21.47,4 22,4L42,4C42.53,4 43.039,4.211 43.414,4.586C43.789,4.961 44,5.47 44,6L44,26.052C42.279,24.729 40.171,24.008 38,24C36.022,24 34.089,24.587 32.444,25.686C30.8,26.785 29.518,28.346 28.761,30.174C28.004,32.001 27.806,34.011 28.192,35.951C28.578,37.891 29.53,39.673 30.929,41.071C32.327,42.47 34.109,43.422 36.049,43.808C37.989,44.194 40,43.996 41.827,43.239C43.654,42.482 45.216,41.201 46.315,39.556C47.414,37.912 48,35.978 48,34L48,6C48,4.409 47.368,2.883 46.243,1.758C45.117,0.633 43.591,0 42,0L42,0ZM10,40C8.813,40 7.653,39.649 6.667,38.989C5.68,38.33 4.911,37.393 4.457,36.297C4.003,35.2 3.884,33.994 4.115,32.83C4.347,31.666 4.918,30.597 5.757,29.758C6.596,28.919 7.666,28.347 8.829,28.116C9.993,27.884 11.2,28.003 12.296,28.457C13.392,28.911 14.33,29.68 14.989,30.667C15.648,31.654 16,32.814 16,34C16,35.592 15.368,37.118 14.243,38.243C13.117,39.368 11.591,40 10,40ZM38,40C36.813,40 35.653,39.649 34.667,38.989C33.68,38.33 32.911,37.393 32.457,36.297C32.003,35.2 31.884,33.994 32.115,32.83C32.347,31.666 32.918,30.597 33.757,29.758C34.596,28.919 35.666,28.347 36.829,28.116C37.993,27.884 39.2,28.003 40.296,28.457C41.392,28.911 42.33,29.68 42.989,30.667C43.648,31.654 44,32.814 44,34C44,35.592 43.368,37.118 42.243,38.243C41.117,39.368 39.591,40 38,40Z" fill="#374957"/>
</svg>
