<svg width="48" height="48" viewBox="0 0 48 48" fill="none" xmlns="http://www.w3.org/2000/svg" xmlns:xlink="http://www.w3.org/1999/xlink">
<path d="M37,0L11,0C8.084,0.004 5.288,1.164 3.226,3.226C1.164,5.288 0.004,8.084 0,11L0,37C0.004,39.916 1.164,42.712 3.226,44.774C5.288,46.836 8.084,47.996 11,48L37,48C39.916,47.996 42.712,46.836 44.774,44.774C46.836,42.712 47.996,39.916 48,37L48,11C47.996,8.084 46.836,5.288 44.774,3.226C42.712,1.164 39.916,0.004 37,0L37,0ZM41.898,10L32,10L32,6L37,6C38.152,6 39.269,6.398 40.162,7.127C41.054,7.856 41.668,8.871 41.898,10ZM22,6L26,6L26,14C26,14.53 25.789,15.039 25.414,15.414C25.039,15.789 24.53,16 24,16C23.47,16 22.961,15.789 22.586,15.414C22.211,15.039 22,14.53 22,14L22,6ZM11,6L16,6L16,10L6.102,10C6.332,8.871 6.946,7.856 7.838,7.127C8.731,6.398 9.848,6 11,6L11,6ZM37,42L11,42C9.674,42 8.402,41.473 7.464,40.536C6.527,39.598 6,38.326 6,37L6,16L16.284,16C16.721,17.715 17.716,19.236 19.113,20.322C20.511,21.408 22.23,21.998 24,21.998C25.77,21.998 27.489,21.408 28.887,20.322C30.284,19.236 31.279,17.715 31.716,16L42,16L42,37C42,38.326 41.473,39.598 40.536,40.536C39.598,41.473 38.326,42 37,42ZM38,35C38,35.796 37.684,36.559 37.121,37.121C36.559,37.684 35.796,38 35,38L29,38C28.204,38 27.441,37.684 26.879,37.121C26.316,36.559 26,35.796 26,35C26,34.204 26.316,33.441 26.879,32.879C27.441,32.316 28.204,32 29,32L35,32C35.796,32 36.559,32.316 37.121,32.879C37.684,33.441 38,34.204 38,35Z" fill="#374957"/>
</svg>
