<svg width="48" height="48" viewBox="0 0 48 48" fill="none" xmlns="http://www.w3.org/2000/svg" xmlns:xlink="http://www.w3.org/1999/xlink">
<path d="M24,0C19.253,0 14.613,1.408 10.666,4.045C6.72,6.682 3.643,10.43 1.827,14.816C0.01,19.201 -0.465,24.027 0.461,28.682C1.387,33.338 3.673,37.614 7.029,40.971C10.386,44.327 14.662,46.613 19.318,47.539C23.973,48.465 28.799,47.99 33.184,46.173C37.57,44.357 41.318,41.28 43.955,37.334C46.592,33.387 48,28.747 48,24C47.993,17.637 45.462,11.536 40.963,7.037C36.464,2.538 30.363,0.007 24,0L24,0ZM24,44C20.044,44 16.178,42.827 12.889,40.629C9.6,38.432 7.036,35.308 5.522,31.654C4.009,27.999 3.613,23.978 4.384,20.098C5.156,16.219 7.061,12.655 9.858,9.858C12.655,7.061 16.219,5.156 20.098,4.384C23.978,3.613 27.999,4.009 31.654,5.522C35.308,7.036 38.432,9.6 40.629,12.889C42.827,16.178 44,20.044 44,24C43.994,29.303 41.885,34.386 38.136,38.136C34.386,41.885 29.303,43.994 24,44L24,44ZM24,14C22.586,13.997 21.217,14.495 20.136,15.405C19.054,16.315 18.329,17.578 18.089,18.972C17.85,20.365 18.111,21.798 18.827,23.017C19.543,24.236 20.667,25.162 22,25.632L22,34L26,34L26,25.632C27.333,25.162 28.458,24.236 29.173,23.017C29.889,21.798 30.15,20.365 29.911,18.972C29.671,17.578 28.946,16.315 27.864,15.405C26.783,14.495 25.414,13.997 24,14L24,14ZM24,22C23.604,22 23.218,21.883 22.889,21.663C22.56,21.443 22.304,21.131 22.152,20.765C22.001,20.4 21.961,19.998 22.038,19.61C22.116,19.222 22.306,18.865 22.586,18.586C22.866,18.306 23.222,18.116 23.61,18.038C23.998,17.961 24.4,18.001 24.765,18.152C25.131,18.304 25.443,18.56 25.663,18.889C25.883,19.218 26,19.604 26,20C26,20.53 25.789,21.039 25.414,21.414C25.039,21.789 24.53,22 24,22Z" fill="#374957"/>
</svg>
