<svg width="50" height="50" viewBox="0 0 50 50" fill="none" xmlns="http://www.w3.org/2000/svg" xmlns:xlink="http://www.w3.org/1999/xlink">
<path d="M44.749,7.57C41.962,5.986 38.914,4.914 35.749,4.404C35.445,3.27 34.813,2.252 33.931,1.476C33.268,0.903 32.489,0.48 31.647,0.236C30.805,-0.008 29.92,-0.068 29.053,0.062C25.87,0.537 22.772,1.468 19.853,2.826C19.415,2.566 18.944,2.364 18.453,2.226C17.637,2.003 16.783,1.955 15.947,2.083C15.11,2.211 14.31,2.513 13.597,2.97L13.597,2.97C9.376,5.761 5.758,9.372 2.959,13.588C2.502,14.3 2.2,15.1 2.072,15.937C1.943,16.773 1.992,17.627 2.215,18.444C2.354,18.934 2.556,19.405 2.815,19.844C1.46,22.766 0.532,25.868 0.059,29.054C-0.068,29.921 -0.008,30.806 0.236,31.648C0.481,32.49 0.903,33.27 1.475,33.934C2.25,34.818 3.269,35.452 4.403,35.758C4.913,38.923 5.986,41.971 7.569,44.758C8.229,45.943 9.252,46.885 10.487,47.446C11.722,48.006 13.105,48.156 14.431,47.872C15.804,47.6 17.052,46.894 17.992,45.858C18.932,44.823 19.514,43.512 19.651,42.12C19.812,40.011 20.32,37.943 21.155,36L23.441,36C23.982,34.287 24.68,32.629 25.527,31.046L31.045,25.528C32.629,24.681 34.287,23.982 35.999,23.442L35.999,21.156C37.94,20.322 40.005,19.813 42.111,19.652C43.503,19.514 44.814,18.932 45.85,17.992C46.886,17.052 47.592,15.804 47.863,14.432C48.15,13.105 48.001,11.722 47.441,10.486C46.88,9.25 45.936,8.228 44.749,7.57L44.749,7.57ZM5.999,22.534L21.721,29.644C21.302,30.407 20.927,31.193 20.599,32L5.999,32C5.716,32.002 5.435,31.942 5.177,31.824C4.919,31.706 4.69,31.533 4.505,31.318C4.309,31.088 4.164,30.818 4.081,30.527C3.997,30.236 3.978,29.931 4.023,29.632C4.382,27.192 5.046,24.808 5.999,22.534L5.999,22.534ZM15.673,41.666C15.625,42.217 15.399,42.738 15.028,43.15C14.658,43.561 14.163,43.841 13.619,43.946C13.119,44.06 12.595,44.006 12.129,43.793C11.662,43.579 11.279,43.219 11.037,42.766C9.836,40.659 8.975,38.376 8.487,36L16.919,36C16.353,37.748 15.677,41.666 15.677,41.666L15.673,41.666ZM24.431,26.48L7.109,18.646C6.857,18.519 6.633,18.34 6.454,18.121C6.275,17.902 6.145,17.647 6.07,17.374C5.996,17.101 5.98,16.816 6.024,16.536C6.068,16.257 6.17,15.989 6.323,15.752C8.803,12.01 12.009,8.804 15.751,6.326C15.989,6.168 16.258,6.064 16.54,6.021C16.822,5.977 17.109,5.995 17.383,6.074C17.644,6.141 17.887,6.262 18.099,6.428C18.31,6.594 18.485,6.803 18.611,7.04L26.479,24.44L24.431,26.48ZM31.999,20.6C31.193,20.928 30.406,21.302 29.643,21.722L22.533,6C24.807,5.042 27.191,4.375 29.631,4.014C29.93,3.968 30.235,3.987 30.525,4.07C30.816,4.154 31.085,4.299 31.313,4.496C31.531,4.681 31.705,4.912 31.823,5.172C31.942,5.432 32.002,5.714 31.999,6L31.999,20.6ZM43.945,13.62C43.84,14.163 43.561,14.658 43.149,15.029C42.738,15.399 42.217,15.626 41.665,15.674C41.665,15.674 37.747,16.354 35.999,16.92L35.999,8.488C38.375,8.977 40.659,9.839 42.765,11.042C43.218,11.284 43.578,11.667 43.791,12.134C44.004,12.6 44.058,13.124 43.945,13.624L43.945,13.62Z" fill="#374957"/>
</svg>
