<svg width="50" height="50" viewBox="0 0 50 50" fill="none" xmlns="http://www.w3.org/2000/svg" xmlns:xlink="http://www.w3.org/1999/xlink">
<path d="M45.868,32.201C47.194,33.496 47.954,35.261 47.985,37.113C48.016,38.966 47.314,40.755 46.032,42.093C46.032,42.093 44.172,44.225 44.124,44.275C37.244,50.675 28.592,47.975 20.404,43.053C19.731,42.629 19.254,41.954 19.078,41.178C18.902,40.402 19.041,39.587 19.466,38.914C19.89,38.241 20.564,37.763 21.34,37.587C22.117,37.411 22.931,37.551 23.604,37.975C29.474,41.265 34.966,44.061 39.818,40.101C39.818,40.101 41.666,37.983 41.716,37.935C41.904,37.747 42.009,37.493 42.009,37.228C42.009,36.963 41.904,36.708 41.716,36.521L37.24,32.373C36.64,31.873 36.302,31.867 35.746,32.293L33.474,34.529C33.064,34.932 32.547,35.209 31.984,35.326C31.421,35.444 30.836,35.397 30.298,35.191C29.938,35.058 29.584,34.915 29.234,34.763C28.586,34.489 28.055,33.996 27.734,33.37C27.413,32.744 27.322,32.025 27.477,31.339C27.632,30.652 28.024,30.042 28.583,29.615C29.142,29.189 29.834,28.972 30.536,29.003L31.52,28.035C32.856,26.772 34.626,26.069 36.465,26.072C38.303,26.075 40.071,26.784 41.402,28.051L45.868,32.201ZM47.122,5.123L5.123,47.123C4.56,47.686 3.796,48.002 3.001,48.002C2.205,48.002 1.441,47.686 0.879,47.123C0.316,46.56 0,45.797 0,45.001C0,44.205 0.316,43.442 0.879,42.879L9.761,34.001C1.761,24.601 -4.275,12.801 3.725,3.879C3.775,3.829 5.909,1.969 5.909,1.969C7.248,0.731 9.009,0.05 10.833,0.065C12.657,0.081 14.406,0.791 15.725,2.051L20.028,6.687C21.31,8.005 22.021,9.775 22.006,11.613C21.991,13.451 21.253,15.21 19.951,16.507L19.175,17.293C19.94,18.893 20.865,20.41 21.936,21.823L42.878,0.879C43.441,0.316 44.205,0 45,0C45.796,0 46.56,0.316 47.122,0.879C47.685,1.442 48.001,2.205 48.001,3.001C48.001,3.797 47.685,4.56 47.122,5.123L47.122,5.123ZM14.001,29.761L17.655,26.107C15.644,23.575 14.018,20.761 12.829,17.755C12.612,17.214 12.557,16.621 12.672,16.049C12.786,15.477 13.065,14.951 13.475,14.535L15.691,12.283C15.791,12.193 15.873,12.084 15.929,11.961C15.985,11.838 16.015,11.705 16.016,11.57C16.018,11.435 15.991,11.301 15.938,11.177C15.885,11.053 15.807,10.941 15.709,10.849L11.401,6.213C11.21,6.054 10.966,5.973 10.718,5.988C10.47,6.003 10.237,6.112 10.067,6.293C10.019,6.343 7.901,8.201 7.901,8.201C3.001,14.001 8.449,23.183 14.001,29.761Z" fill="#374957"/>
</svg>
