<svg width="36" height="48" viewBox="0 0 36 48" fill="none" xmlns="http://www.w3.org/2000/svg" xmlns:xlink="http://www.w3.org/1999/xlink">
<path d="M35.664,37.11L36,36.6L36,17.722C31.944,25.316 25.25,32 18,32C10.75,32 4.056,25.316 0,17.722L0,36.6L0.336,37.104C1.16,38.206 2.161,39.163 3.3,39.936L0,48L4.324,48L6.816,41.908C10.361,43.367 14.168,44.079 18,44C21.832,44.079 25.639,43.367 29.184,41.908L31.676,48L36,48L32.7,39.936C33.838,39.165 34.84,38.21 35.664,37.11L35.664,37.11ZM18,40C17.604,40 17.218,39.883 16.889,39.663C16.56,39.443 16.304,39.131 16.152,38.765C16.001,38.4 15.961,37.998 16.038,37.61C16.116,37.222 16.306,36.865 16.586,36.586C16.865,36.306 17.222,36.116 17.61,36.038C17.998,35.961 18.4,36.001 18.765,36.152C19.131,36.304 19.443,36.56 19.663,36.889C19.883,37.218 20,37.604 20,38C20,38.53 19.789,39.039 19.414,39.414C19.039,39.789 18.53,40 18,40ZM18,28C25.558,28 34.162,16.1 35.726,6.814C35.463,5.965 35.013,5.187 34.409,4.535C33.805,3.884 33.062,3.376 32.236,3.05C27.715,1.178 22.891,0.144 18,0C13.109,0.144 8.285,1.177 3.764,3.05C2.938,3.376 2.195,3.884 1.591,4.535C0.987,5.187 0.537,5.965 0.274,6.814C1.838,16.1 10.442,28 18,28ZM12,6L24,6L24,10L12,10L12,6Z" fill="#374957"/>
</svg>
