<svg width="48" height="48" viewBox="0 0 48 48" fill="none" xmlns="http://www.w3.org/2000/svg" xmlns:xlink="http://www.w3.org/1999/xlink">
<path d="M46.242,14.244L41.414,9.414L45.414,5.414L42.586,2.586L38.586,6.586L33.758,1.758C33.201,1.201 32.539,0.759 31.811,0.457C31.083,0.156 30.303,0 29.515,0C28.727,0 27.946,0.156 27.218,0.457C26.49,0.759 25.829,1.201 25.272,1.758L19.616,7.414L28.686,16.486L16.486,28.686L7.414,19.616L1.758,25.272C0.633,26.397 0.001,27.923 0.001,29.514C0.001,31.105 0.633,32.631 1.758,33.756L6.586,38.586L2.586,42.586L5.414,45.414L9.414,41.414L14.242,46.242C14.799,46.799 15.46,47.241 16.188,47.543C16.916,47.845 17.697,48 18.485,48C19.273,48 20.053,47.845 20.781,47.543C21.509,47.241 22.171,46.799 22.728,46.242L28.384,40.586L19.314,31.514L31.514,19.314L40.584,28.384L46.24,22.728C47.365,21.603 47.996,20.077 47.996,18.486C47.996,16.895 47.365,15.369 46.24,14.244L46.242,14.244Z" fill="#374957"/>
</svg>
