<svg width="48" height="48" viewBox="0 0 48 48" fill="none" xmlns="http://www.w3.org/2000/svg" xmlns:xlink="http://www.w3.org/1999/xlink">
<path d="M47.952,34.536L39.702,47.904L36.302,45.802L44.552,32.434L47.952,34.536ZM15.552,3.536L13.458,0.124L-0.012,8.368L2.074,11.778L15.552,3.536ZM40.36,10.468L44.16,6.668L41.336,3.836L37.554,7.618C34.823,5.453 31.484,4.194 28.004,4.019C24.523,3.844 21.074,4.761 18.14,6.642L4.616,14.14C3.897,14.616 3.292,15.246 2.846,15.985C2.399,16.723 2.123,17.552 2.036,18.411C1.95,19.269 2.055,20.136 2.345,20.949C2.635,21.762 3.102,22.5 3.712,23.11L24.88,44.286C25.417,44.829 26.056,45.259 26.761,45.554C27.465,45.848 28.221,46 28.984,46C29.235,46 29.485,45.984 29.734,45.954C30.612,45.847 31.454,45.539 32.194,45.054C32.934,44.569 33.552,43.92 34,43.158L41.856,29.186C43.487,26.268 44.216,22.932 43.95,19.6C43.683,16.268 42.434,13.09 40.36,10.468L40.36,10.468ZM6,36.566C5.989,38.205 6.403,39.818 7.203,41.248C8.003,42.678 9.162,43.876 10.564,44.723C11.967,45.57 13.566,46.038 15.204,46.081C16.842,46.123 18.463,45.739 19.908,44.966L7.12,32.166C6.394,33.519 6.009,35.03 6,36.566L6,36.566Z" fill="#374957"/>
</svg>
