<svg width="48" height="48" viewBox="0 0 48 48" fill="none" xmlns="http://www.w3.org/2000/svg" xmlns:xlink="http://www.w3.org/1999/xlink">
<path d="M42,20L35.386,20L26.892,3.126C26.376,2.18 25.614,1.39 24.687,0.84C23.76,0.29 22.702,0 21.624,0L14.26,0L20.06,20L12.8,20L8.2,15.41C7.68,14.89 7.047,14.497 6.351,14.261C5.654,14.024 4.913,13.951 4.184,14.047C3.454,14.142 2.757,14.404 2.145,14.812C1.533,15.22 1.023,15.764 0.654,16.4C0.227,17.127 0,17.954 -0.003,18.798C-0.006,19.641 0.216,20.47 0.638,21.2L6.814,32L20.038,32L14.038,48L21.624,48C22.684,48.006 23.725,47.729 24.641,47.197C25.558,46.665 26.315,45.897 26.834,44.974L34.928,32L48,32L48,26C48,24.409 47.368,22.883 46.243,21.757C45.118,20.632 43.592,20 42,20ZM19.584,4L21.624,4C21.973,3.997 22.316,4.086 22.62,4.259C22.923,4.431 23.175,4.681 23.35,4.982L30.91,20L24.22,20L19.584,4ZM44,28L32.708,28L23.38,42.958C23.208,43.273 22.954,43.537 22.645,43.72C22.336,43.903 21.984,44 21.624,44L19.8,44L25.8,28L9.134,28L4.11,19.2C4.04,19.078 4.003,18.939 4.003,18.798C4.004,18.656 4.041,18.518 4.113,18.396C4.184,18.274 4.286,18.173 4.409,18.104C4.532,18.034 4.671,17.998 4.812,18C4.918,18 5.023,18.02 5.121,18.061C5.219,18.101 5.308,18.161 5.382,18.236L11.146,24L42,24C42.531,24 43.04,24.211 43.415,24.586C43.79,24.961 44,25.47 44,26L44,28Z" fill="#374957"/>
</svg>
