<svg width="48" height="48" viewBox="0 0 48 48" fill="none" xmlns="http://www.w3.org/2000/svg" xmlns:xlink="http://www.w3.org/1999/xlink">
<path d="M42.828,19.914L47.914,25L45.086,27.828L40,22.742L34.914,27.828L32.086,25L37.172,19.914L32.086,14.828L34.914,12L40,17.086L45.086,12L47.914,14.828L42.828,19.914ZM18,24C20.373,24 22.693,23.296 24.667,21.978C26.64,20.659 28.178,18.785 29.087,16.592C29.995,14.399 30.232,11.987 29.769,9.659C29.306,7.331 28.164,5.193 26.485,3.515C24.807,1.836 22.669,0.694 20.341,0.231C18.013,-0.232 15.601,0.005 13.408,0.913C11.215,1.822 9.341,3.36 8.022,5.333C6.704,7.307 6,9.627 6,12C6,15.183 7.264,18.235 9.515,20.485C11.765,22.736 14.817,24 18,24ZM26.086,28L9.914,28C7.286,28.003 4.766,29.049 2.907,30.907C1.049,32.766 0.003,35.286 0,37.914L0,48L36,48L36,37.914C35.997,35.286 34.951,32.766 33.093,30.907C31.234,29.049 28.714,28.003 26.086,28L26.086,28Z" fill="#374957"/>
</svg>
