<svg width="48" height="40" viewBox="0 0 48 40" fill="none" xmlns="http://www.w3.org/2000/svg" xmlns:xlink="http://www.w3.org/1999/xlink">
<path d="M46,35.999L46,31.999C45.993,26.514 43.938,21.229 40.239,17.178C36.54,13.128 31.462,10.604 26,10.101L26,7.445C26.763,7.005 27.359,6.325 27.696,5.512C28.032,4.698 28.092,3.796 27.864,2.946C27.636,2.095 27.134,1.344 26.435,0.808C25.736,0.272 24.881,-0.019 24,-0.019C23.119,-0.019 22.264,0.272 21.565,0.808C20.866,1.344 20.364,2.095 20.136,2.946C19.908,3.796 19.968,4.698 20.304,5.512C20.641,6.325 21.237,7.005 22,7.445L22,10.101C16.538,10.604 11.46,13.128 7.761,17.178C4.062,21.229 2.007,26.514 2,31.999L2,35.999L0,35.999L0,39.999L48,39.999L48,35.999L46,35.999ZM6,31.999C6.946,8.131 41.062,8.149 42,31.999L42,35.999L6,35.999L6,31.999Z" fill="#374957"/>
</svg>
