<svg width="48" height="50" viewBox="0 0 48 50" fill="none" xmlns="http://www.w3.org/2000/svg" xmlns:xlink="http://www.w3.org/1999/xlink">
<path d="M37.515,32.001C36.137,31.998 34.773,32.267 33.501,32.794C32.228,33.321 31.073,34.095 30.101,35.071L24.101,41.071C23.175,42.002 22.073,42.741 20.859,43.244C19.646,43.747 18.344,44.004 17.031,44.001L6.245,44.001C5.801,44.002 5.367,43.871 4.998,43.624C4.628,43.378 4.341,43.028 4.171,42.618C4,42.208 3.956,41.757 4.042,41.322C4.129,40.886 4.343,40.487 4.657,40.173L5.429,39.401C6.543,39.944 7.8,40.125 9.022,39.917C10.244,39.71 11.371,39.124 12.243,38.243L24.895,25.601C25.739,25.828 26.605,25.962 27.479,26.001C27.651,26.001 27.825,26.001 28.001,26.001C31.185,25.998 34.239,24.734 36.493,22.485L38.493,20.485C39.667,19.308 40.585,17.901 41.187,16.352C41.79,14.803 42.065,13.146 41.995,11.485C41.928,9.817 41.511,8.181 40.77,6.685C40.03,5.189 38.983,3.866 37.697,2.801C35.294,0.898 32.271,-0.044 29.213,0.157C26.155,0.358 23.281,1.688 21.149,3.889L19.883,5.157C18.353,6.681 17.238,8.572 16.645,10.649C16.052,12.726 16,14.92 16.495,17.023L3.759,29.759C2.889,30.635 2.311,31.759 2.104,32.976C1.897,34.193 2.072,35.445 2.605,36.559L1.829,37.335C0.952,38.207 0.354,39.321 0.112,40.534C-0.131,41.746 -0.008,43.004 0.465,44.147C0.938,45.289 1.74,46.266 2.769,46.952C3.798,47.638 5.008,48.003 6.245,48.001L17.031,48.001C18.87,48.006 20.692,47.646 22.391,46.942C24.09,46.238 25.632,45.203 26.929,43.899L32.929,37.899C33.836,36.992 34.991,36.374 36.25,36.124C37.508,35.874 38.812,36.002 39.997,36.493C41.182,36.984 42.195,37.815 42.907,38.882C43.62,39.948 44.001,41.202 44.001,42.485L44.001,48.001L48.001,48.001L48.001,42.485C47.997,39.705 46.891,37.04 44.925,35.075C42.959,33.11 40.294,32.004 37.515,32.001ZM22.715,7.977L23.981,6.709C25.623,5.058 27.852,4.124 30.181,4.109C31.984,4.091 33.734,4.713 35.123,5.863C35.982,6.572 36.682,7.454 37.178,8.452C37.673,9.449 37.954,10.54 38.001,11.653C38.047,12.76 37.863,13.865 37.462,14.897C37.06,15.93 36.449,16.868 35.667,17.653L33.667,19.653C32.881,20.439 31.94,21.052 30.904,21.454C29.868,21.856 28.76,22.038 27.649,21.988C26.539,21.938 25.452,21.657 24.456,21.164C23.46,20.67 22.579,19.974 21.867,19.121C20.603,17.488 19.989,15.445 20.145,13.387C20.301,11.328 21.215,9.4 22.711,7.977L22.715,7.977ZM6.587,32.587L18.259,20.913C18.441,21.173 18.587,21.453 18.793,21.699C19.457,22.483 20.217,23.181 21.055,23.775L9.415,35.415C9.034,35.78 8.528,35.984 8.001,35.984C7.474,35.984 6.967,35.78 6.587,35.415C6.212,35.04 6.001,34.531 6.001,34.001C6.001,33.471 6.212,32.962 6.587,32.587Z" fill="#374957"/>
</svg>
