<svg width="28" height="48" viewBox="0 0 28 48" fill="none" xmlns="http://www.w3.org/2000/svg" xmlns:xlink="http://www.w3.org/1999/xlink">
<path d="M28,16L28,14.136C27.997,11.449 26.929,8.872 25.028,6.972C23.128,5.071 20.551,4.003 17.864,4L16,4L16,0L12,0L12,4L10.136,4C7.731,4.003 5.405,4.86 3.574,6.42C1.743,7.98 0.526,10.14 0.141,12.515C-0.243,14.889 0.229,17.323 1.474,19.381C2.718,21.44 4.655,22.988 6.936,23.75L12,25.44L12,40L10.136,40C8.509,39.998 6.949,39.351 5.799,38.201C4.649,37.051 4.002,35.491 4,33.864L4,32L0,32L0,33.864C0.003,36.551 1.071,39.128 2.972,41.028C4.872,42.929 7.449,43.997 10.136,44L12,44L12,48L16,48L16,44L17.864,44C20.269,43.997 22.595,43.14 24.426,41.58C26.257,40.02 27.474,37.86 27.859,35.485C28.243,33.111 27.771,30.677 26.526,28.619C25.282,26.56 23.345,25.012 21.064,24.25L16,22.56L16,8L17.864,8C19.491,8.002 21.051,8.649 22.201,9.799C23.351,10.949 23.998,12.509 24,14.136L24,16L28,16ZM19.8,28.042C21.183,28.502 22.356,29.439 23.111,30.686C23.866,31.932 24.152,33.406 23.919,34.845C23.687,36.283 22.949,37.592 21.84,38.536C20.73,39.481 19.321,40 17.864,40L16,40L16,26.774L19.8,28.042ZM12,21.226L8.2,19.958C6.817,19.498 5.644,18.561 4.889,17.314C4.134,16.068 3.848,14.594 4.081,13.155C4.313,11.717 5.051,10.408 6.16,9.464C7.27,8.519 8.679,8 10.136,8L12,8L12,21.226Z" fill="#374957"/>
</svg>
