<svg width="36" height="48" viewBox="0 0 36 48" fill="none" xmlns="http://www.w3.org/2000/svg" xmlns:xlink="http://www.w3.org/1999/xlink">
<path d="M36,48L0,48L0,6C0,4.409 0.632,2.883 1.757,1.757C2.883,0.632 4.409,0 6,0L30,0C31.591,0 33.117,0.632 34.243,1.757C35.368,2.883 36,4.409 36,6L36,48ZM18,7C17.407,7 16.827,7.176 16.333,7.506C15.84,7.835 15.455,8.304 15.228,8.852C15.001,9.4 14.942,10.003 15.058,10.585C15.173,11.167 15.459,11.702 15.879,12.121C16.298,12.541 16.833,12.827 17.415,12.942C17.997,13.058 18.6,12.999 19.148,12.772C19.696,12.545 20.165,12.16 20.494,11.667C20.824,11.173 21,10.593 21,10C21,9.204 20.684,8.441 20.121,7.879C19.559,7.316 18.796,7 18,7ZM30,32C30,29.627 29.296,27.307 27.978,25.333C26.659,23.36 24.785,21.822 22.592,20.913C20.399,20.005 17.987,19.768 15.659,20.231C13.331,20.694 11.193,21.836 9.515,23.515C7.836,25.193 6.694,27.331 6.231,29.659C5.768,31.987 6.005,34.399 6.913,36.592C7.822,38.785 9.36,40.659 11.333,41.978C13.307,43.296 15.627,44 18,44C21.182,43.997 24.232,42.732 26.482,40.482C28.732,38.232 29.997,35.182 30,32ZM26,32C26,33.582 25.531,35.129 24.652,36.445C23.773,37.76 22.523,38.786 21.061,39.391C19.6,39.997 17.991,40.155 16.439,39.846C14.887,39.538 13.462,38.776 12.343,37.657C11.224,36.538 10.462,35.113 10.154,33.561C9.845,32.009 10.003,30.4 10.609,28.939C11.214,27.477 12.24,26.227 13.555,25.348C14.871,24.469 16.418,24 18,24C20.122,24 22.157,24.843 23.657,26.343C25.157,27.843 26,29.878 26,32ZM20,30L16,30L16,34L20,34L20,30Z" fill="#374957"/>
</svg>
