<svg width="48" height="48" viewBox="0 0 48 48" fill="none" xmlns="http://www.w3.org/2000/svg" xmlns:xlink="http://www.w3.org/1999/xlink">
<path d="M28.243,24L47.122,5.123C48.294,3.951 48.294,2.051 47.122,0.879C45.95,-0.292 44.05,-0.292 42.878,0.879L24.001,19.759L5.124,0.879C3.952,-0.292 2.052,-0.292 0.88,0.879C-0.292,2.051 -0.292,3.951 0.88,5.123L19.759,24L0.88,42.878C-0.292,44.05 -0.292,45.95 0.88,47.121C2.052,48.293 3.952,48.293 5.124,47.121L24.001,28.242L42.878,47.121C44.05,48.293 45.95,48.293 47.122,47.121C48.294,45.949 48.294,44.049 47.122,42.878L28.243,24Z" fill="#374957"/>
</svg>
