<svg width="48" height="48" viewBox="0 0 48 48" fill="none" xmlns="http://www.w3.org/2000/svg" xmlns:xlink="http://www.w3.org/1999/xlink">
<path d="M45.946,28C41.662,27.949 37.464,29.196 33.903,31.578C30.343,33.96 27.587,37.365 26,41.344L26,27.82C28.793,27.346 31.329,25.899 33.158,23.736C34.988,21.573 35.995,18.833 36,16C36,8 28.216,1.744 28.17,1.7C25.667,6.786 24.247,12.337 24,18L20,18C20.24,11.786 21.779,5.692 24.516,0.108C23.635,0.022 22.747,0.131 21.912,0.426C21.078,0.721 20.319,1.196 19.688,1.816C15.886,5.696 12,10.414 12,16C12.005,18.833 13.012,21.573 14.842,23.736C16.671,25.899 19.207,27.346 22,27.82L22,41.344C20.413,37.365 17.657,33.96 14.097,31.578C10.536,29.196 6.338,27.949 2.054,28L0,28L0.254,30.248C1.846,44.29 15,48 21.72,48L26.28,48C33.01,48 46.152,44.29 47.742,30.248L48,28L45.946,28Z" fill="#374957"/>
</svg>
