<svg width="50" height="48" viewBox="0 0 50 48" fill="none" xmlns="http://www.w3.org/2000/svg" xmlns:xlink="http://www.w3.org/1999/xlink">
<path d="M46.291,23.399C45.264,22.026 43.844,20.999 42.219,20.453C42.998,18.199 43.574,15.88 43.939,13.523C44.079,12.511 43.982,11.479 43.657,10.51C43.331,9.541 42.785,8.66 42.062,7.938C41.339,7.215 40.458,6.67 39.488,6.346C38.519,6.021 37.487,5.926 36.475,6.067C36.129,6.115 34.793,6.313 33.061,6.715L33.001,5.487C32.801,0.199 26.427,-1.913 22.001,2.183C16.309,-2.985 8.733,1.871 11.631,8.533C9.064,9.364 6.892,11.109 5.528,13.436C4.163,15.763 3.702,18.51 4.231,21.155C2.581,22.114 1.302,23.599 0.598,25.373C-0.106,27.146 -0.194,29.104 0.349,30.933C1.66,35.493 4.099,39.647 7.443,43.013C10.734,46.227 15.157,48.018 19.757,47.999L28.245,47.999C32.844,48.018 37.267,46.227 40.559,43.013C43.902,39.647 46.342,35.492 47.655,30.933C48.032,29.658 48.106,28.313 47.869,27.004C47.632,25.695 47.091,24.461 46.291,23.399L46.291,23.399ZM37.295,11.999C37.389,11.984 37.486,11.991 37.577,12.021C37.668,12.05 37.751,12.101 37.819,12.169C37.889,12.239 37.941,12.324 37.971,12.418C38.002,12.512 38.009,12.612 37.993,12.709C37.62,15.059 37.009,17.364 36.169,19.589C36.123,19.72 36.087,19.854 36.061,19.989L26.113,19.989C25.939,19.174 25.972,18.327 26.21,17.528C26.447,16.728 26.88,16.001 27.471,15.411C28.811,14.083 33.127,12.581 37.295,11.999ZM15.001,13.999C15.741,14 16.472,14.165 17.14,14.484C17.809,14.802 18.398,15.265 18.865,15.84C19.331,16.415 19.664,17.086 19.839,17.806C20.014,18.525 20.026,19.275 19.875,19.999L10.127,19.999C9.975,19.275 9.987,18.525 10.162,17.806C10.337,17.086 10.67,16.415 11.137,15.84C11.603,15.265 12.192,14.802 12.861,14.484C13.529,14.165 14.26,14 15.001,13.999L15.001,13.999ZM41.895,29.251C40.855,32.835 38.941,36.104 36.325,38.763C34.16,40.86 31.258,42.022 28.245,41.999L19.757,41.999C16.743,42.022 13.841,40.859 11.677,38.761C9.06,36.104 7.146,32.836 6.109,29.253C5.993,28.872 5.969,28.469 6.039,28.077C6.108,27.684 6.269,27.314 6.509,26.995C6.738,26.682 7.04,26.427 7.388,26.253C7.735,26.079 8.12,25.991 8.509,25.995L39.509,25.995C39.897,25.991 40.282,26.079 40.63,26.253C40.977,26.427 41.279,26.682 41.509,26.995C41.745,27.315 41.903,27.686 41.97,28.077C42.037,28.469 42.011,28.871 41.895,29.251Z" fill="#374957"/>
</svg>
