<svg width="48" height="48" viewBox="0 0 48 48" fill="none" xmlns="http://www.w3.org/2000/svg" xmlns:xlink="http://www.w3.org/1999/xlink">
<path d="M29.999,12.968L29.999,0.272L2.569,18.458L2.511,18.498C1.734,19.053 1.1,19.786 0.663,20.635C0.226,21.485 -0.002,22.426 -0.002,23.381C-0.002,24.337 0.226,25.278 0.663,26.127C1.1,26.977 1.734,27.709 2.511,28.264L29.999,47.884L29.999,35.028L47.999,47.884L47.999,0.112L29.999,12.968ZM43.999,40.112L25.999,27.254L25.999,40.112L4.837,25.008C4.58,24.825 4.37,24.583 4.225,24.303C4.079,24.022 4.002,23.711 4,23.396C3.997,23.08 4.07,22.768 4.211,22.485C4.353,22.203 4.559,21.958 4.813,21.77L25.999,7.724L25.999,20.742L43.999,7.884L43.999,40.112Z" fill="#374957"/>
</svg>
