<svg width="48" height="44" viewBox="0 0 48 44" fill="none" xmlns="http://www.w3.org/2000/svg" xmlns:xlink="http://www.w3.org/1999/xlink">
<path d="M38,7.999L34,7.999L34,5.999C34,4.407 33.368,2.881 32.243,1.756C31.117,0.631 29.591,-0.001 28,-0.001L6,-0.001C4.409,-0.001 2.883,0.631 1.757,1.756C0.632,2.881 0,4.407 0,5.999L0,35.999L4.082,35.999C4.031,36.33 4.003,36.664 4,36.999C4,38.855 4.737,40.636 6.05,41.949C7.363,43.261 9.143,43.999 11,43.999C12.857,43.999 14.637,43.261 15.95,41.949C17.263,40.636 18,38.855 18,36.999C17.997,36.664 17.969,36.33 17.918,35.999L30.082,35.999C30.031,36.33 30.003,36.664 30,36.999C30,38.855 30.737,40.636 32.05,41.949C33.363,43.261 35.143,43.999 37,43.999C38.857,43.999 40.637,43.261 41.95,41.949C43.263,40.636 44,38.855 44,36.999C43.997,36.664 43.969,36.33 43.918,35.999L48,35.999L48,17.999C47.997,15.348 46.942,12.806 45.068,10.931C43.193,9.057 40.651,8.002 38,7.999L38,7.999ZM38,11.999C39.591,11.999 41.117,12.631 42.243,13.756C43.368,14.881 44,16.407 44,17.999L44,19.999L34,19.999L34,11.999L38,11.999ZM14,36.999C14,37.794 13.684,38.558 13.121,39.12C12.559,39.683 11.796,39.999 11,39.999C10.204,39.999 9.441,39.683 8.879,39.12C8.316,38.558 8,37.794 8,36.999C8.001,36.657 8.064,36.318 8.186,35.999L13.814,35.999C13.936,36.318 13.999,36.657 14,36.999L14,36.999ZM30,31.999L4,31.999L4,5.999C4,5.468 4.211,4.96 4.586,4.585C4.961,4.209 5.47,3.999 6,3.999L28,3.999C28.53,3.999 29.039,4.209 29.414,4.585C29.789,4.96 30,5.468 30,5.999L30,31.999ZM40,36.999C40,37.794 39.684,38.558 39.121,39.12C38.559,39.683 37.796,39.999 37,39.999C36.204,39.999 35.441,39.683 34.879,39.12C34.316,38.558 34,37.794 34,36.999C34.001,36.657 34.064,36.318 34.186,35.999L39.814,35.999C39.936,36.318 39.999,36.657 40,36.999L40,36.999ZM34,31.999L34,23.999L44,23.999L44,31.999L34,31.999Z" fill="#374957"/>
</svg>
