<svg width="44" height="48" viewBox="0 0 44 48" fill="none" xmlns="http://www.w3.org/2000/svg" xmlns:xlink="http://www.w3.org/1999/xlink">
<path d="M25.999,39.878L25.999,44L33.999,44L33.999,48L13.999,48L13.999,44L21.999,44L21.999,39.898C17.541,39.528 13.275,37.919 9.683,35.252C6.091,32.585 3.317,28.967 1.673,24.806C0.03,20.645 -0.417,16.108 0.382,11.706C1.182,7.305 3.197,3.215 6.199,-0.102L9.169,2.578C7.332,4.611 5.933,6.999 5.058,9.595C4.183,12.191 3.85,14.939 4.081,17.668C4.311,20.398 5.1,23.051 6.398,25.463C7.697,27.876 9.476,29.996 11.628,31.692C13.779,33.387 16.256,34.623 18.905,35.323C21.553,36.022 24.317,36.17 27.025,35.756C29.733,35.343 32.328,34.378 34.647,32.921C36.967,31.464 38.963,29.546 40.511,27.286L43.813,29.546C41.797,32.483 39.153,34.934 36.071,36.721C32.99,38.508 29.549,39.587 25.999,39.878ZM7.999,16C7.999,12.835 8.937,9.742 10.695,7.111C12.453,4.48 14.952,2.429 17.876,1.218C20.799,0.007 24.017,-0.31 27.12,0.307C30.224,0.925 33.075,2.449 35.313,4.686C37.55,6.924 39.074,9.775 39.691,12.879C40.309,15.982 39.992,19.199 38.781,22.123C37.57,25.047 35.519,27.545 32.888,29.304C30.257,31.062 27.163,32 23.999,32C19.757,31.995 15.69,30.308 12.69,27.308C9.691,24.309 8.004,20.242 7.999,16L7.999,16ZM11.999,16C11.999,18.373 12.703,20.693 14.021,22.667C15.34,24.64 17.214,26.178 19.407,27.087C21.599,27.995 24.012,28.232 26.34,27.769C28.668,27.306 30.806,26.164 32.484,24.485C34.162,22.807 35.305,20.669 35.768,18.341C36.231,16.013 35.994,13.6 35.085,11.408C34.177,9.215 32.639,7.341 30.666,6.022C28.692,4.704 26.372,4 23.999,4C20.817,4.003 17.767,5.268 15.517,7.518C13.267,9.768 12.002,12.818 11.999,16L11.999,16Z" fill="#374957"/>
</svg>
