<svg width="48" height="44" viewBox="0 0 48 44" fill="none" xmlns="http://www.w3.org/2000/svg" xmlns:xlink="http://www.w3.org/1999/xlink">
<path d="M31.999,44L10.999,44C8.551,44.003 6.172,43.188 4.24,41.685C2.308,40.181 0.935,38.075 0.337,35.701C-0.261,33.327 -0.048,30.821 0.942,28.582C1.932,26.343 3.641,24.499 5.799,23.342C4.615,21.076 3.997,18.557 3.999,16C4.011,12.077 5.464,8.295 8.082,5.372C10.7,2.45 14.3,0.592 18.199,0.15C22.097,-0.291 26.022,0.715 29.227,2.978C32.432,5.241 34.694,8.603 35.583,12.424C39.397,13.32 42.75,15.585 45.006,18.788C47.262,21.992 48.264,25.912 47.822,29.805C47.38,33.698 45.525,37.294 42.609,39.91C39.692,42.527 35.917,43.982 31.999,44ZM19.999,4C16.817,4.004 13.767,5.269 11.517,7.519C9.267,9.768 8.002,12.819 7.999,16C7.996,18.568 8.825,21.068 10.363,23.124L12.127,25.51L9.255,26.252C7.604,26.673 6.164,27.682 5.206,29.09C4.248,30.498 3.837,32.207 4.051,33.897C4.266,35.587 5.09,37.14 6.37,38.264C7.649,39.388 9.296,40.005 10.999,40L31.999,40C35.022,39.971 37.923,38.801 40.121,36.725C42.319,34.649 43.653,31.82 43.855,28.803C44.057,25.787 43.113,22.805 41.212,20.454C39.31,18.103 36.591,16.557 33.599,16.124L32.085,15.924L31.885,14.408C31.495,11.53 30.077,8.891 27.892,6.977C25.707,5.064 22.903,4.007 19.999,4L19.999,4Z" fill="#374957"/>
</svg>
