<svg width="44" height="48" viewBox="0 0 44 48" fill="none" xmlns="http://www.w3.org/2000/svg" xmlns:xlink="http://www.w3.org/1999/xlink">
<path d="M44,26C44,24.409 43.368,22.883 42.243,21.757C41.117,20.632 39.591,20 38,20L36,20L36,16L20,16L20,26C20,27.591 19.368,29.118 18.243,30.243C17.117,31.368 15.591,32 14,32C12.409,32 10.883,31.368 9.757,30.243C8.632,29.118 8,27.591 8,26L8,16L0,16L0,42C0,43.591 0.632,45.118 1.757,46.243C2.883,47.368 4.409,48 6,48L30,48C31.591,48 33.117,47.368 34.243,46.243C35.368,45.118 36,43.591 36,42L36,40L44,40L44,26ZM40,36L36,36L36,24L38,24C38.53,24 39.039,24.211 39.414,24.586C39.789,24.961 40,25.47 40,26L40,36ZM12,12L2,12C2,9.96 2.78,7.996 4.179,6.512C5.579,5.027 7.493,4.134 9.53,4.014C10.365,2.786 11.49,1.783 12.805,1.093C14.121,0.404 15.586,0.05 17.071,0.062C18.556,0.074 20.015,0.452 21.319,1.163C22.623,1.873 23.731,2.895 24.546,4.136C25.699,3.927 26.885,3.973 28.018,4.272C29.152,4.57 30.206,5.113 31.107,5.863C32.009,6.612 32.735,7.55 33.234,8.611C33.734,9.671 33.995,10.828 34,12L16,12L16,26C16,26.531 15.789,27.039 15.414,27.414C15.039,27.789 14.53,28 14,28C13.47,28 12.961,27.789 12.586,27.414C12.211,27.039 12,26.531 12,26L12,12Z" fill="#374957"/>
</svg>
