<svg width="48" height="48" viewBox="0 0 48 48" fill="none" xmlns="http://www.w3.org/2000/svg" xmlns:xlink="http://www.w3.org/1999/xlink">
<path d="M44,14C45.061,14 46.078,13.579 46.828,12.828C47.579,12.078 48,11.061 48,10L48,0L44,0L44,10L35.928,10C34.959,7.634 33.309,5.61 31.186,4.185C29.063,2.76 26.565,1.999 24.008,1.999C21.451,1.999 18.953,2.76 16.83,4.185C14.707,5.61 13.057,7.634 12.088,10L4,10L4,0L0,0L0,10C0,11.061 0.421,12.078 1.172,12.828C1.922,13.579 2.939,14 4,14L10.97,14L8.944,22L0,22L0,26L7.93,26L7.64,27.146L7.6,27.4C7.511,28.084 7.464,28.774 7.46,29.464C7.458,30.998 7.67,32.525 8.09,34L4,34C2.939,34 1.922,34.421 1.172,35.172C0.421,35.922 0,36.939 0,38L0,48L4,48L4,38L9.838,38C11.309,40.441 13.386,42.46 15.868,43.861C18.349,45.263 21.15,45.999 24,45.999C26.85,45.999 29.651,45.263 32.132,43.861C34.614,42.46 36.691,40.441 38.162,38L44,38L44,48L48,48L48,38C48,36.939 47.579,35.922 46.828,35.172C46.078,34.421 45.061,34 44,34L39.91,34C40.332,32.522 40.546,30.991 40.544,29.454C40.538,28.767 40.49,28.081 40.4,27.4L40.05,26L48,26L48,22L39.044,22L37.026,14L44,14Z" fill="#374957"/>
</svg>
