<svg width="50" height="50" viewBox="0 0 50 50" fill="none" xmlns="http://www.w3.org/2000/svg" xmlns:xlink="http://www.w3.org/1999/xlink">
<path d="M10.846,33.4C10.38,34.196 10.092,35.082 10,36C10,39.236 12.952,40.712 15.106,41.79C16.8,42.636 18,43.292 18,44C17.847,44.704 17.545,45.368 17.114,45.946L20.542,48C21.372,46.818 21.875,45.438 22,44C22,40.764 19.048,39.288 16.894,38.21C15.2,37.364 14,36.708 13.988,36.15C14.294,35.36 14.686,34.606 15.156,33.902C19.844,33.272 23.786,28.89 26.022,23.502C27.286,26.859 29.735,29.637 32.908,31.312C32.109,32.813 31.842,34.541 32.15,36.214C32.563,37.366 33.215,38.419 34.063,39.302C34.91,40.185 35.935,40.88 37.07,41.34C40.018,43.024 40.73,43.574 39.302,46.234L42.826,48.124C46.156,41.924 41.71,39.384 39.054,37.868C37.624,37.05 36.274,36.28 36.044,35.3C35.964,34.075 36.341,32.863 37.102,31.9C43.4,30.958 48,22.034 48,14C48.056,12.409 47.784,10.824 47.2,9.342C46.617,7.861 45.735,6.516 44.61,5.39C43.484,4.265 42.139,3.383 40.657,2.799C39.176,2.216 37.591,1.944 36,2C34.066,1.947 32.149,2.373 30.42,3.241C28.691,4.109 27.203,5.391 26.09,6.974C24.546,4.311 22.167,2.231 19.322,1.057C16.476,-0.116 13.323,-0.319 10.351,0.482C7.378,1.282 4.753,3.041 2.882,5.485C1.01,7.929 -0.002,10.922 0,14C0,21.97 4.546,31.038 10.846,33.4ZM36,6C37.066,5.94 38.133,6.105 39.131,6.486C40.129,6.867 41.036,7.454 41.791,8.209C42.546,8.964 43.133,9.871 43.514,10.868C43.895,11.866 44.06,12.933 44,14C44,20.8 39.888,28 36,28C32.112,28 28,20.8 28,14C27.94,12.933 28.105,11.866 28.486,10.868C28.867,9.871 29.454,8.964 30.209,8.209C30.964,7.454 31.871,6.867 32.869,6.486C33.867,6.105 34.934,5.94 36,6L36,6ZM14,4C16.651,4.003 19.193,5.058 21.068,6.932C22.942,8.807 23.997,11.349 24,14C24,21.052 19.292,30 14,30C8.708,30 4,21.052 4,14C4.003,11.349 5.058,8.807 6.932,6.932C8.807,5.058 11.349,4.003 14,4L14,4Z" fill="#374957"/>
</svg>
