<svg width="48" height="42" viewBox="0 0 48 42" fill="none" xmlns="http://www.w3.org/2000/svg" xmlns:xlink="http://www.w3.org/1999/xlink">
<path d="M45,36L44,36L44,29C43.998,26.975 43.436,24.989 42.378,23.262C41.319,21.536 39.804,20.135 38,19.214L38,17C37.997,15.069 37.487,13.173 36.519,11.503C35.551,9.832 34.161,8.445 32.488,7.482L31.322,1.6C31.23,1.148 30.984,0.742 30.626,0.45C30.269,0.158 29.821,-0.001 29.36,0L28.64,0C28.179,-0.001 27.731,0.158 27.374,0.45C27.016,0.742 26.77,1.148 26.678,1.6L25.8,6L22,6L23,2C23,1.47 22.789,0.961 22.414,0.586C22.039,0.211 21.53,0 21,0L17,0C16.47,0 15.961,0.211 15.586,0.586C15.211,0.961 15,1.47 15,2L16.27,7.084C14.396,7.977 12.812,9.382 11.703,11.136C10.593,12.891 10.003,14.924 10,17L10,19.214C8.196,20.135 6.681,21.536 5.622,23.262C4.564,24.989 4.002,26.975 4,29L4,36L3,36C2.204,36 1.441,36.316 0.879,36.879C0.316,37.441 0,38.204 0,39C0,39.796 0.316,40.559 0.879,41.121C1.441,41.684 2.204,42 3,42L45,42C45.796,42 46.559,41.684 47.121,41.121C47.684,40.559 48,39.796 48,39C48,38.204 47.684,37.441 47.121,36.879C46.559,36.316 45.796,36 45,36ZM21,12L27,12C28.326,12 29.598,12.527 30.536,13.464C31.473,14.402 32,15.674 32,17L32,18L16,18L16,17C16,15.674 16.527,14.402 17.464,13.464C18.402,12.527 19.674,12 21,12L21,12ZM10,29.48C10.886,29.264 11.689,28.794 12.311,28.127C12.933,27.461 13.346,26.627 13.5,25.728C13.68,26.969 14.32,28.096 15.292,28.887C16.265,29.679 17.499,30.076 18.75,30C20.002,30.08 21.239,29.684 22.212,28.892C23.185,28.1 23.824,26.97 24,25.728C24.18,26.969 24.82,28.096 25.792,28.887C26.765,29.679 27.999,30.076 29.25,30C30.502,30.08 31.739,29.684 32.712,28.892C33.685,28.1 34.324,26.97 34.5,25.728C34.659,26.624 35.074,27.455 35.695,28.12C36.316,28.786 37.117,29.256 38,29.476L38,36L10,36L10,29.48Z" fill="#374957"/>
</svg>
