<svg width="48" height="48" viewBox="0 0 48 48" fill="none" xmlns="http://www.w3.org/2000/svg" xmlns:xlink="http://www.w3.org/1999/xlink">
<path d="M48,25L48,37C47.997,39.916 46.837,42.712 44.775,44.775C42.712,46.837 39.916,47.997 37,48L11,48C8.084,47.997 5.288,46.837 3.225,44.775C1.163,42.712 0.003,39.916 0,37L0,17C0.003,14.084 1.163,11.288 3.225,9.225C5.288,7.163 8.084,6.003 11,6L19,6C19.796,6 20.559,6.316 21.121,6.879C21.684,7.441 22,8.204 22,9C22,9.796 21.684,10.559 21.121,11.121C20.559,11.684 19.796,12 19,12L11,12C10.093,12.003 9.204,12.253 8.428,12.724C7.653,13.195 7.021,13.868 6.6,14.672L20.462,28.536C21.415,29.445 22.681,29.952 23.998,29.952C25.315,29.952 26.581,29.445 27.534,28.536L29.982,25.936C30.253,25.649 30.577,25.419 30.936,25.258C31.296,25.097 31.684,25.008 32.078,24.996C32.472,24.985 32.864,25.051 33.232,25.192C33.6,25.332 33.937,25.543 34.224,25.814C34.511,26.085 34.741,26.409 34.902,26.768C35.063,27.128 35.152,27.516 35.164,27.91C35.175,28.304 35.109,28.696 34.968,29.064C34.828,29.432 34.617,29.769 34.346,30.056L31.836,32.712C30.815,33.742 29.601,34.56 28.263,35.12C26.926,35.681 25.491,35.972 24.041,35.978C22.591,35.984 21.154,35.704 19.812,35.155C18.47,34.606 17.25,33.797 16.22,32.776L6,22.556L6,37C6,38.326 6.527,39.598 7.464,40.536C8.402,41.473 9.674,42 11,42L37,42C38.326,42 39.598,41.473 40.536,40.536C41.473,39.598 42,38.326 42,37L42,25C42,24.204 42.316,23.441 42.879,22.879C43.441,22.316 44.204,22 45,22C45.796,22 46.559,22.316 47.121,22.879C47.684,23.441 48,24.204 48,25L48,25ZM29,14L34,14L34,19C34,19.796 34.316,20.559 34.879,21.121C35.441,21.684 36.204,22 37,22C37.796,22 38.559,21.684 39.121,21.121C39.684,20.559 40,19.796 40,19L40,14L45,14C45.796,14 46.559,13.684 47.121,13.121C47.684,12.559 48,11.796 48,11C48,10.204 47.684,9.441 47.121,8.879C46.559,8.316 45.796,8 45,8L40,8L40,3C40,2.204 39.684,1.441 39.121,0.879C38.559,0.316 37.796,0 37,0C36.204,0 35.441,0.316 34.879,0.879C34.316,1.441 34,2.204 34,3L34,8L29,8C28.204,8 27.441,8.316 26.879,8.879C26.316,9.441 26,10.204 26,11C26,11.796 26.316,12.559 26.879,13.121C27.441,13.684 28.204,14 29,14L29,14Z" fill="#374957"/>
</svg>
