<svg width="48" height="48" viewBox="0 0 48 48" fill="none" xmlns="http://www.w3.org/2000/svg" xmlns:xlink="http://www.w3.org/1999/xlink">
<path d="M37,0L11,0C8.084,0.003 5.288,1.163 3.225,3.225C1.163,5.288 0.003,8.084 0,11L0,27C0.003,29.916 1.163,32.712 3.225,34.775C5.288,36.837 8.084,37.997 11,38L21,38L21,42L15,42C14.204,42 13.441,42.316 12.879,42.879C12.316,43.441 12,44.204 12,45C12,45.796 12.316,46.559 12.879,47.121C13.441,47.684 14.204,48 15,48L33,48C33.796,48 34.559,47.684 35.121,47.121C35.684,46.559 36,45.796 36,45C36,44.204 35.684,43.441 35.121,42.879C34.559,42.316 33.796,42 33,42L27,42L27,38L37,38C39.916,37.997 42.712,36.837 44.775,34.775C46.837,32.712 47.997,29.916 48,27L48,11C47.997,8.084 46.837,5.288 44.775,3.225C42.712,1.163 39.916,0.003 37,0L37,0ZM42,27C42,28.326 41.473,29.598 40.536,30.536C39.598,31.473 38.326,32 37,32L11,32C9.674,32 8.402,31.473 7.464,30.536C6.527,29.598 6,28.326 6,27L6,11C6,9.674 6.527,8.402 7.464,7.464C8.402,6.527 9.674,6 11,6L37,6C38.326,6 39.598,6.527 40.536,7.464C41.473,8.402 42,9.674 42,11L42,27ZM38,19C38,19.796 37.684,20.559 37.121,21.121C36.559,21.684 35.796,22 35,22L32.6,22L29.49,26.664C29.217,27.074 28.846,27.411 28.412,27.644C27.978,27.877 27.493,27.999 27,28C26.937,28 26.875,28 26.814,28C26.289,27.968 25.783,27.798 25.344,27.508C24.906,27.218 24.551,26.818 24.316,26.348L20.628,18.966L19.496,20.664C19.222,21.075 18.851,21.412 18.415,21.645C17.98,21.878 17.494,22 17,22L13,22C12.204,22 11.441,21.684 10.879,21.121C10.316,20.559 10,19.796 10,19C10,18.204 10.316,17.441 10.879,16.879C11.441,16.316 12.204,16 13,16L15.4,16L18.504,11.336C18.795,10.899 19.197,10.545 19.667,10.312C20.138,10.078 20.662,9.973 21.187,10.005C21.711,10.038 22.218,10.208 22.656,10.498C23.095,10.788 23.449,11.188 23.684,11.658L27.372,19.034L28.504,17.336C28.778,16.925 29.149,16.588 29.584,16.355C30.02,16.122 30.506,16 31,16L35,16C35.394,16 35.784,16.078 36.148,16.228C36.512,16.379 36.843,16.6 37.121,16.879C37.4,17.157 37.621,17.488 37.772,17.852C37.922,18.216 38,18.606 38,19L38,19Z" fill="#374957"/>
</svg>
