<svg width="48" height="48" viewBox="0 0 48 48" fill="none" xmlns="http://www.w3.org/2000/svg" xmlns:xlink="http://www.w3.org/1999/xlink">
<path d="M48,10C47.997,8.655 47.542,7.349 46.707,6.294C45.873,5.238 44.708,4.494 43.4,4.18C42.853,2.938 41.957,1.881 40.821,1.139C39.685,0.397 38.357,0.001 37,0L11,0C9.643,0.001 8.315,0.397 7.179,1.139C6.043,1.881 5.147,2.938 4.6,4.18C3.342,4.499 2.222,5.217 1.407,6.227C0.592,7.236 0.126,8.483 0.079,9.779C0.032,11.076 0.407,12.353 1.147,13.418C1.887,14.484 2.953,15.281 4.184,15.69L7.078,38.8C7.398,41.339 8.632,43.673 10.55,45.367C12.468,47.061 14.937,47.997 17.496,48L30.496,48C33.055,47.997 35.524,47.061 37.442,45.367C39.36,43.673 40.594,41.339 40.914,38.8L43.812,15.69C45.023,15.308 46.082,14.551 46.835,13.528C47.587,12.506 47.996,11.27 48,10ZM36.476,26L29.632,26C27.832,18.082 20.166,18.086 18.368,26L11.524,26L10.274,16L37.726,16L36.476,26ZM11,6L37,6C37.265,6 37.52,6.105 37.707,6.293C37.895,6.48 38,6.735 38,7L38,10L10,10L10,7C10,6.735 10.105,6.48 10.293,6.293C10.48,6.105 10.735,6 11,6L11,6ZM30.504,42L17.504,42C16.407,41.998 15.349,41.596 14.527,40.87C13.705,40.145 13.176,39.144 13.038,38.056L12.274,32L18.368,32C20.168,39.918 27.834,39.914 29.632,32L35.726,32L34.968,38.058C34.831,39.146 34.302,40.146 33.48,40.872C32.658,41.597 31.6,41.998 30.504,42L30.504,42Z" fill="#374957"/>
</svg>
