<svg width="42" height="48" viewBox="0 0 42 48" fill="none" xmlns="http://www.w3.org/2000/svg" xmlns:xlink="http://www.w3.org/1999/xlink">
<path d="M10,23C10,22.204 10.316,21.441 10.879,20.879C11.441,20.316 12.204,20 13,20L19,20C19.796,20 20.559,20.316 21.121,20.879C21.684,21.441 22,22.204 22,23C22,23.796 21.684,24.559 21.121,25.121C20.559,25.684 19.796,26 19,26L13,26C12.204,26 11.441,25.684 10.879,25.121C10.316,24.559 10,23.796 10,23ZM13,16L27,16C27.796,16 28.559,15.684 29.121,15.121C29.684,14.559 30,13.796 30,13C30,12.204 29.684,11.441 29.121,10.879C28.559,10.316 27.796,10 27,10L13,10C12.204,10 11.441,10.316 10.879,10.879C10.316,11.441 10,12.204 10,13C10,13.796 10.316,14.559 10.879,15.121C11.441,15.684 12.204,16 13,16ZM38,39.948L38,45.832C38,46.26 37.873,46.678 37.635,47.034C37.397,47.39 37.059,47.667 36.664,47.831C36.269,47.995 35.834,48.038 35.414,47.954C34.994,47.871 34.609,47.665 34.306,47.362L32,45.056L29.694,47.362C29.391,47.665 29.006,47.871 28.586,47.954C28.166,48.038 27.731,47.995 27.336,47.831C26.941,47.667 26.603,47.39 26.365,47.034C26.127,46.678 26,46.26 26,45.832L26,39.948C24.19,38.586 22.898,36.649 22.335,34.455C21.772,32.26 21.973,29.94 22.903,27.875C23.834,25.81 25.44,24.123 27.457,23.092C29.473,22.061 31.781,21.746 34,22.2L34,11C34,9.674 33.473,8.402 32.536,7.464C31.598,6.527 30.326,6 29,6L11.014,6.076C10.356,6.074 9.705,6.202 9.096,6.453C8.488,6.703 7.935,7.071 7.469,7.535C7.004,8 6.634,8.552 6.382,9.159C6.13,9.767 6,10.418 6,11.076L6,35C6,36.326 6.527,37.598 7.464,38.536C8.402,39.473 9.674,40 11,40L19,40C19.796,40 20.559,40.316 21.121,40.879C21.684,41.441 22,42.204 22,43C22,43.796 21.684,44.559 21.121,45.121C20.559,45.684 19.796,46 19,46L11,46C8.084,45.996 5.288,44.836 3.226,42.774C1.164,40.712 0.004,37.916 0,35L0,11.076C0.004,8.16 1.164,5.364 3.226,3.302C5.288,1.24 8.084,0.08 11,0.076L28.986,0C31.904,0.001 34.703,1.16 36.768,3.222C38.833,5.284 39.995,8.082 40,11L40,26.062C40.788,27.102 41.361,28.289 41.687,29.552C42.013,30.815 42.085,32.131 41.899,33.423C41.713,34.714 41.273,35.956 40.603,37.076C39.934,38.196 39.049,39.172 38,39.948L38,39.948ZM28,32C28,32.791 28.235,33.564 28.674,34.222C29.114,34.88 29.738,35.393 30.469,35.696C31.2,35.998 32.004,36.077 32.78,35.923C33.556,35.769 34.269,35.388 34.828,34.828C35.388,34.269 35.769,33.556 35.923,32.78C36.077,32.004 35.998,31.2 35.696,30.469C35.393,29.738 34.88,29.114 34.222,28.674C33.564,28.235 32.791,28 32,28C30.939,28 29.922,28.421 29.172,29.172C28.421,29.922 28,30.939 28,32Z" fill="#374957"/>
</svg>
