<svg width="48" height="48" viewBox="0 0 48 48" fill="none" xmlns="http://www.w3.org/2000/svg" xmlns:xlink="http://www.w3.org/1999/xlink">
<path d="M38,20C40.314,19.999 42.555,19.195 44.343,17.726C46.13,16.257 47.353,14.214 47.803,11.945C48.253,9.675 47.902,7.32 46.81,5.28C45.718,3.241 43.953,1.643 41.815,0.759C39.677,-0.125 37.299,-0.241 35.085,0.433C32.871,1.106 30.96,2.525 29.676,4.45C28.392,6.374 27.815,8.685 28.043,10.987C28.271,13.289 29.291,15.441 30.928,17.076C31.856,18.005 32.959,18.741 34.173,19.243C35.386,19.745 36.687,20.002 38,20ZM42.244,14.248C41.366,15.119 40.24,15.697 39.02,15.903C37.801,16.109 36.548,15.933 35.432,15.4L43.4,7.432C43.933,8.548 44.108,9.802 43.901,11.021C43.694,12.24 43.115,13.366 42.244,14.244L42.244,14.248ZM33.756,5.756C34.634,4.885 35.759,4.306 36.979,4.099C38.198,3.892 39.452,4.067 40.568,4.6L32.6,12.568C32.067,11.452 31.892,10.198 32.099,8.979C32.306,7.76 32.885,6.634 33.756,5.756L33.756,5.756ZM48,19.8L48,48L0,48L0,12C0,10.409 0.632,8.883 1.757,7.757C2.883,6.632 4.409,6 6,6L24.586,6C24.199,7.298 24.002,8.645 24,10L6,10C5.47,10 4.961,10.211 4.586,10.586C4.211,10.961 4,11.47 4,12L4,12.484L19.756,28.244C20.9,29.335 22.419,29.944 24,29.944C25.581,29.944 27.1,29.335 28.244,28.244L33.308,23.18C34.814,23.718 36.401,23.996 38,24C38.052,24 38.102,24 38.154,24L31.072,31.084C30.143,32.013 29.041,32.75 27.827,33.252C26.614,33.755 25.313,34.014 24,34.014C22.687,34.014 21.386,33.755 20.173,33.252C18.959,32.75 17.857,32.013 16.928,31.084L4,18.142L4,44L44,44L44,22.636C45.448,21.955 46.767,21.029 47.9,19.9C47.936,19.864 47.966,19.824 48,19.8Z" fill="#374957"/>
</svg>
