<svg width="48" height="48" viewBox="0 0 48 48" fill="none" xmlns="http://www.w3.org/2000/svg" xmlns:xlink="http://www.w3.org/1999/xlink">
<path d="M6,12C6,9.627 6.704,7.307 8.022,5.333C9.341,3.36 11.215,1.822 13.408,0.913C15.601,0.005 18.013,-0.232 20.341,0.231C22.669,0.694 24.807,1.836 26.485,3.515C28.164,5.193 29.306,7.331 29.769,9.659C30.232,11.987 29.995,14.399 29.087,16.592C28.178,18.785 26.64,20.659 24.667,21.978C22.693,23.296 20.373,24 18,24C14.817,24 11.765,22.736 9.515,20.485C7.264,18.235 6,15.183 6,12L6,12ZM26.086,28L9.914,28C7.286,28.003 4.766,29.049 2.907,30.907C1.049,32.766 0.003,35.286 0,37.914L0,48L36,48L36,37.914C35.997,35.286 34.951,32.766 33.093,30.907C31.234,29.049 28.714,28.003 26.086,28L26.086,28ZM32,20L32,24L48,24L48,20L32,20Z" fill="#374957"/>
</svg>
