<svg width="50" height="50" viewBox="0 0 50 50" fill="none" xmlns="http://www.w3.org/2000/svg" xmlns:xlink="http://www.w3.org/1999/xlink">
<path d="M14,0C10.288,0.004 6.73,1.481 4.105,4.105C1.481,6.73 0.004,10.288 0,14C0,22.514 5.75,32 14,32C22.25,32 28,22.514 28,14C27.996,10.288 26.519,6.73 23.895,4.105C21.27,1.481 17.712,0.004 14,0L14,0ZM21.234,23.292L17.834,21.168C18.904,19.618 19.627,17.855 19.954,16L23.954,16C23.647,18.614 22.714,21.115 21.234,23.292L21.234,23.292ZM36,2C33.511,1.966 31.07,2.689 29,4.072C30.959,7.012 32.003,10.467 32,14C31.969,18.414 30.798,22.746 28.6,26.574C29.533,27.621 30.671,28.466 31.944,29.055C33.217,29.645 34.598,29.966 36,30C42.618,30 48,22.822 48,14C48.056,12.409 47.784,10.824 47.2,9.343C46.617,7.861 45.735,6.516 44.61,5.39C43.484,4.265 42.139,3.383 40.657,2.8C39.176,2.216 37.591,1.944 36,2L36,2ZM40.624,23.504L38,20.496C39.101,19.236 39.784,17.665 39.954,16L43.954,16C43.787,18.822 42.604,21.487 40.624,23.504L40.624,23.504ZM42.824,48.124L39.3,46.234C40.728,43.574 40.016,43.024 37.068,41.34C35.933,40.88 34.908,40.186 34.061,39.302C33.213,38.419 32.561,37.367 32.148,36.214C31.947,35.286 31.958,34.325 32.182,33.402C33.418,33.791 34.705,33.993 36,34C36.05,34 36.096,34 36.146,34C36.004,34.422 35.969,34.872 36.044,35.31C36.274,36.29 37.624,37.06 39.054,37.878C41.71,39.384 46.156,41.922 42.826,48.124L42.824,48.124ZM22,44C21.875,45.439 21.372,46.819 20.542,48L17.114,45.946C17.545,45.368 17.847,44.705 18,44C18,43.292 16.8,42.636 15.106,41.79C12.952,40.712 10,39.236 10,36C10.015,35.822 10.042,35.646 10.082,35.472C11.358,35.823 12.676,36.001 14,36L14.048,36C14.032,36.046 13.996,36.12 13.988,36.154C14,36.712 15.2,37.368 16.894,38.214C19.048,39.288 22,40.764 22,44Z" fill="#374957"/>
</svg>
