<svg width="48" height="48" viewBox="0 0 48 48" fill="none" xmlns="http://www.w3.org/2000/svg" xmlns:xlink="http://www.w3.org/1999/xlink">
<path d="M48,16L48,48L44,48L44,36L4,36L4,48L0,48L0,26.962C0,24.045 1.159,21.247 3.222,19.184C5.285,17.121 8.083,15.962 11,15.962C13.917,15.962 16.715,17.121 18.778,19.184C20.841,21.247 22,24.045 22,26.962L22,32L28,32L28,16L36,16L36,22L40,22L40,16L48,16ZM11,14C12.384,14 13.738,13.589 14.889,12.82C16.04,12.051 16.937,10.958 17.467,9.679C17.997,8.4 18.136,6.992 17.865,5.634C17.595,4.276 16.929,3.029 15.95,2.05C14.971,1.071 13.724,0.405 12.366,0.135C11.008,-0.136 9.6,0.003 8.321,0.533C7.042,1.063 5.949,1.96 5.18,3.111C4.411,4.262 4,5.616 4,7C4,8.857 4.737,10.637 6.05,11.95C7.363,13.262 9.143,14 11,14L11,14Z" fill="#374957"/>
</svg>
