<svg width="30" height="28" viewBox="0 0 30 28" fill="none" xmlns="http://www.w3.org/2000/svg" xmlns:xlink="http://www.w3.org/1999/xlink">
<path d="M26.122,9.05L18.95,1.878C18.387,1.315 17.624,0.999 16.828,1C16.033,1 15.27,1.316 14.707,1.879C14.144,2.442 13.829,3.205 13.829,4C13.829,4.796 14.145,5.559 14.708,6.122L19.586,11L2,11C1.204,11 0.441,11.316 -0.121,11.878C-0.684,12.441 -1,13.204 -1,14C-1,14.795 -0.684,15.558 -0.121,16.121C0.441,16.684 1.204,17 2,17L19.586,17L14.708,21.878C14.145,22.44 13.829,23.203 13.829,23.999C13.829,24.795 14.144,25.558 14.707,26.121C15.27,26.684 16.033,27 16.828,27C17.624,27 18.387,26.684 18.95,26.122L26.122,18.95C27.432,17.636 28.168,15.856 28.168,14C28.168,12.144 27.432,10.364 26.122,9.05L26.122,9.05Z" fill="#374957"/>
</svg>
