<svg width="48" height="50" viewBox="0 0 48 50" fill="none" xmlns="http://www.w3.org/2000/svg" xmlns:xlink="http://www.w3.org/1999/xlink">
<path d="M44.001,24C44.016,28.653 42.414,33.167 39.469,36.77C36.524,40.372 32.418,42.839 27.855,43.748C23.292,44.658 18.554,43.953 14.453,41.755C10.351,39.557 7.142,36.002 5.372,31.699C3.603,27.395 3.384,22.61 4.753,18.163C6.122,13.716 8.994,9.883 12.877,7.319C16.761,4.756 21.414,3.622 26.042,4.111C30.669,4.6 34.983,6.682 38.245,10L30.001,10L30.001,14L40.287,14C41.271,13.999 42.215,13.607 42.912,12.911C43.608,12.215 44,11.271 44.001,10.286L44.001,0L40.001,0L40.001,6.156C35.907,2.499 30.683,0.358 25.2,0.09C19.718,-0.178 14.309,1.444 9.879,4.685C5.448,7.925 2.265,12.588 0.859,17.895C-0.546,23.201 -0.087,28.828 2.158,33.837C4.404,38.846 8.3,42.932 13.197,45.413C18.093,47.894 23.693,48.619 29.06,47.468C34.427,46.316 39.236,43.357 42.683,39.086C46.131,34.814 48.008,29.489 48.001,24L44.001,24Z" fill="#374957"/>
</svg>
