<svg width="48" height="48" viewBox="0 0 48 48" fill="none" xmlns="http://www.w3.org/2000/svg" xmlns:xlink="http://www.w3.org/1999/xlink">
<path d="M28,4C28,5.061 27.579,6.078 26.828,6.828C26.078,7.579 25.061,8 24,8C22.939,8 21.922,7.579 21.172,6.828C20.421,6.078 20,5.061 20,4C20,2.939 20.421,1.922 21.172,1.172C21.922,0.421 22.939,0 24,0C25.061,0 26.078,0.421 26.828,1.172C27.579,1.922 28,2.939 28,4L28,4ZM39.6,37.32C37.144,38.271 34.411,38.21 32,37.15C30.738,37.701 29.377,37.985 28,37.985C26.623,37.985 25.262,37.701 24,37.15C22.738,37.701 21.377,37.985 20,37.985C18.623,37.985 17.262,37.701 16,37.15C13.592,38.209 10.863,38.27 8.41,37.32C7.34,37.765 6.194,37.996 5.036,38L5.936,43.054C6.183,44.44 6.911,45.696 7.99,46.6C9.07,47.504 10.434,48 11.842,48L36.16,48C37.569,48 38.933,47.504 40.013,46.598C41.093,45.693 41.819,44.437 42.066,43.05L42.964,38C41.809,37.994 40.666,37.763 39.6,37.32L39.6,37.32ZM30.28,8.896C29.531,9.845 28.577,10.612 27.489,11.139C26.402,11.666 25.209,11.94 24,11.94C22.791,11.94 21.598,11.666 20.511,11.139C19.423,10.612 18.469,9.845 17.72,8.896C8.144,11.566 0,19.918 0,29C0.012,29.96 0.3,30.896 0.828,31.698C1.356,32.499 2.103,33.132 2.98,33.522C3.858,33.912 4.828,34.042 5.777,33.896C6.726,33.751 7.614,33.336 8.334,32.702C9.437,33.571 10.812,34.022 12.215,33.974C13.618,33.926 14.959,33.382 16,32.44C17.098,33.428 18.523,33.975 20,33.975C21.477,33.975 22.902,33.428 24,32.44C25.098,33.428 26.523,33.975 28,33.975C29.477,33.975 30.902,33.428 32,32.44C33.041,33.382 34.382,33.926 35.785,33.974C37.188,34.022 38.563,33.571 39.666,32.702C40.386,33.336 41.274,33.751 42.223,33.896C43.172,34.042 44.142,33.912 45.019,33.522C45.897,33.132 46.644,32.499 47.172,31.698C47.7,30.896 47.988,29.96 48,29C48,19.918 39.856,11.566 30.28,8.896Z" fill="#374957"/>
</svg>
