<svg width="36" height="48" viewBox="0 0 36 48" fill="none" xmlns="http://www.w3.org/2000/svg" xmlns:xlink="http://www.w3.org/1999/xlink">
<path d="M25.248,38L10.766,38C12.343,34.529 14.859,31.568 18.03,29.452C21.196,31.561 23.699,34.525 25.248,38L25.248,38ZM36,42L36,48L0,48L0,42C0.12,38.541 0.974,35.148 2.505,32.044C4.037,28.941 6.211,26.199 8.884,24C6.211,21.801 4.037,19.059 2.505,15.956C0.974,12.852 0.12,9.459 0,6C0,4.409 0.632,2.883 1.757,1.757C2.883,0.632 4.409,0 6,0L30,0C31.591,0 33.117,0.632 34.243,1.757C35.368,2.883 36,4.409 36,6C35.882,9.456 35.032,12.847 33.506,15.95C31.981,19.052 29.814,21.796 27.15,24C29.814,26.204 31.981,28.948 33.506,32.05C35.032,35.153 35.882,38.544 36,42ZM29.82,39.69C28.698,32.558 22.634,27.644 19.122,25.352L18.024,24.634L16.93,25.354C13.4,27.666 7.318,32.6 6.184,39.684L5.814,42L30.184,42L29.82,39.69Z" fill="#374957"/>
</svg>
