<svg width="48" height="48" viewBox="0 0 48 48" fill="none" xmlns="http://www.w3.org/2000/svg" xmlns:xlink="http://www.w3.org/1999/xlink">
<path d="M48,26.168L44,0L6,0C4.409,0 2.883,0.738 1.757,2.05C0.632,3.363 0,5.144 0,7.001L0,28.002C0,29.859 0.632,31.64 1.757,32.953C2.883,34.265 4.409,35.003 6,35.003L15.424,35.003L19.252,44.055C19.898,45.577 20.99,46.778 22.33,47.44C23.671,48.101 25.17,48.18 26.556,47.66C27.942,47.141 29.122,46.058 29.881,44.609C30.641,43.16 30.929,41.442 30.694,39.766L30.022,35.003L48,35.003L48,26.168ZM4,28.002L4,7.001C4,6.382 4.211,5.788 4.586,5.351C4.961,4.913 5.47,4.667 6,4.667L14,4.667L14,30.336L6,30.336C5.47,30.336 4.961,30.09 4.586,29.652C4.211,29.215 4,28.621 4,28.002L4,28.002ZM44,30.336L25.31,30.336L26.748,40.522C26.799,40.868 26.783,41.224 26.703,41.563C26.622,41.901 26.478,42.215 26.282,42.482C26.051,42.771 25.765,42.993 25.447,43.128C25.129,43.263 24.788,43.309 24.452,43.26C24.116,43.212 23.794,43.072 23.514,42.85C23.233,42.629 23.002,42.333 22.838,41.987L18,30.548L18,4.667L40.66,4.667L44,26.369L44,30.336Z" fill="#374957"/>
</svg>
