<svg width="50" height="48" viewBox="0 0 50 48" fill="none" xmlns="http://www.w3.org/2000/svg" xmlns:xlink="http://www.w3.org/1999/xlink">
<path d="M32.001,48L28.001,48L28.001,44L32.001,44C32.531,44 33.04,43.789 33.415,43.414C33.79,43.039 34.001,42.53 34.001,42C34.001,41.47 33.79,40.961 33.415,40.586C33.04,40.211 32.531,40 32.001,40L24.001,40C22.41,40 20.883,39.368 19.758,38.243C18.633,37.117 18.001,35.591 18.001,34C18.001,32.409 18.633,30.883 19.758,29.757C20.883,28.632 22.41,28 24.001,28L38.001,28C38.531,28 39.04,27.789 39.415,27.414C39.79,27.039 40.001,26.53 40.001,26C40.001,25.47 39.79,24.961 39.415,24.586C39.04,24.211 38.531,24 38.001,24L12.001,24C-3.863,23.494 -3.851,0.5 12.001,0L40.001,0C42.123,0 44.157,0.843 45.658,2.343C47.158,3.843 48.001,5.878 48.001,8C48.001,10.122 47.158,12.157 45.658,13.657C44.157,15.157 42.123,16 40.001,16L12.001,16L12.001,12L40.001,12C41.062,12 42.079,11.579 42.829,10.828C43.579,10.078 44.001,9.061 44.001,8C44.001,6.939 43.579,5.922 42.829,5.172C42.079,4.421 41.062,4 40.001,4L12.001,4C9.879,4 7.844,4.843 6.344,6.343C4.844,7.843 4.001,9.878 4.001,12C4.001,14.122 4.844,16.157 6.344,17.657C7.844,19.157 9.879,20 12.001,20L38.001,20C39.592,20 41.118,20.632 42.244,21.757C43.369,22.883 44.001,24.409 44.001,26C44.001,27.591 43.369,29.117 42.244,30.243C41.118,31.368 39.592,32 38.001,32L24.001,32C23.47,32 22.962,32.211 22.587,32.586C22.212,32.961 22.001,33.47 22.001,34C22.001,34.53 22.212,35.039 22.587,35.414C22.962,35.789 23.47,36 24.001,36L32.001,36C33.592,36 35.118,36.632 36.244,37.757C37.369,38.883 38.001,40.409 38.001,42C38.001,43.591 37.369,45.117 36.244,46.243C35.118,47.368 33.592,48 32.001,48Z" fill="#374957"/>
</svg>
