<svg width="48" height="50" viewBox="0 0 48 50" fill="none" xmlns="http://www.w3.org/2000/svg" xmlns:xlink="http://www.w3.org/1999/xlink">
<path d="M44.999,37.944C44.608,37.937 44.22,38.008 43.856,38.152C43.493,38.297 43.162,38.512 42.883,38.786C42.603,39.06 42.382,39.387 42.23,39.747C42.078,40.108 42,40.495 41.999,40.886C41.751,41.249 41.414,41.542 41.02,41.737C40.626,41.932 40.188,42.023 39.749,42C39.217,42.003 38.691,41.877 38.217,41.634C41.155,38.295 43.121,34.213 43.899,29.834C44.164,28.343 43.924,26.805 43.218,25.465C42.512,24.125 41.379,23.059 39.999,22.434L39.999,17C39.997,14.614 39.048,12.326 37.36,10.639C35.673,8.952 33.386,8.003 30.999,8L29.999,8L29.999,6C29.999,4.409 29.367,2.883 28.242,1.757C27.117,0.632 25.591,0 23.999,0C22.408,0 20.882,0.632 19.757,1.757C18.632,2.883 17.999,4.409 17.999,6L17.999,8L16.999,8C14.613,8.003 12.326,8.952 10.638,10.639C8.951,12.326 8.002,14.614 7.999,17L7.999,22.166C6.632,22.798 5.511,23.865 4.813,25.2C4.116,26.535 3.879,28.064 4.141,29.548C4.94,34.001 6.885,38.168 9.785,41.64C9.309,41.88 8.783,42.003 8.249,42C7.813,42.017 7.379,41.926 6.987,41.735C6.594,41.543 6.255,41.258 5.999,40.904C5.987,40.108 5.658,39.35 5.087,38.797C4.515,38.243 3.747,37.939 2.951,37.952C2.156,37.965 1.398,38.293 0.844,38.865C0.291,39.436 -0.013,40.204 -0.001,41C-0.001,44.728 3.855,48 8.249,48C10.125,48.004 11.958,47.439 13.505,46.38C15.051,47.434 16.878,48 18.749,48.003C20.62,48.007 22.449,47.448 23.999,46.4C25.553,47.45 27.386,48.01 29.261,48.006C31.136,48.002 32.966,47.435 34.515,46.378C36.056,47.435 37.881,48 39.749,48C44.143,48 47.999,44.728 47.999,41C48.003,40.198 47.689,39.427 47.128,38.855C46.566,38.283 45.801,37.956 44.999,37.944ZM16.999,14L30.999,14C31.795,14 32.558,14.316 33.121,14.879C33.683,15.441 33.999,16.204 33.999,17L33.999,20.6L26.151,18.348C24.814,17.896 23.368,17.878 22.019,18.296L13.999,20.442L13.999,17C13.999,16.204 14.315,15.441 14.878,14.879C15.441,14.316 16.204,14 16.999,14ZM18.749,42C18.321,42.026 17.892,41.951 17.497,41.782C17.103,41.612 16.754,41.353 16.477,41.024C16.038,39.964 15.43,38.983 14.677,38.118C12.301,35.401 10.704,32.091 10.055,28.54C10.016,28.365 10.03,28.182 10.096,28.015C10.162,27.848 10.277,27.705 10.425,27.604L20.999,24.776L20.999,41.074C20.718,41.388 20.37,41.634 19.98,41.794C19.591,41.954 19.17,42.025 18.749,42L18.749,42ZM29.249,42C28.424,42.015 27.622,41.724 26.999,41.182L26.999,24.836L37.477,27.86C37.661,27.939 37.812,28.079 37.905,28.256C37.998,28.434 38.026,28.638 37.985,28.834C37.35,32.306 35.736,35.524 33.333,38.11C32.574,38.98 31.962,39.968 31.521,41.036C31.245,41.364 30.895,41.622 30.5,41.789C30.106,41.956 29.677,42.029 29.249,42Z" fill="#374957"/>
</svg>
