<svg width="44" height="48" viewBox="0 0 44 48" fill="none" xmlns="http://www.w3.org/2000/svg" xmlns:xlink="http://www.w3.org/1999/xlink">
<path d="M44,10C44,8.409 43.368,6.883 42.243,5.757C41.117,4.632 39.591,4 38,4L37.658,4C37.243,2.831 36.476,1.819 35.463,1.103C34.45,0.387 33.241,0.002 32,0L12,0C10.759,0.002 9.55,0.387 8.537,1.103C7.524,1.819 6.757,2.831 6.342,4L6,4C4.409,4 2.883,4.632 1.757,5.757C0.632,6.883 0,8.409 0,10L0,16L2.234,16L6.234,48L37.766,48L41.766,16L44,16L44,10ZM4,10C4,9.47 4.211,8.961 4.586,8.586C4.961,8.211 5.47,8 6,8L10,8L10,6C10,5.47 10.211,4.961 10.586,4.586C10.961,4.211 11.47,4 12,4L32,4C32.53,4 33.039,4.211 33.414,4.586C33.789,4.961 34,5.47 34,6L34,8L38,8C38.53,8 39.039,8.211 39.414,8.586C39.789,8.961 40,9.47 40,10L40,12L4,12L4,10ZM9.766,44L8.266,32L14.162,32C15.946,42.574 28.058,42.568 29.838,32L35.734,32L34.234,44L9.766,44ZM18,30C18.21,22.092 25.79,22.094 26,30C25.8,37.908 18.21,37.906 18,30ZM36.234,28L29.834,28C28.05,17.426 15.94,17.432 14.158,28L7.758,28L6.258,16L37.734,16L36.234,28Z" fill="#374957"/>
</svg>
