<svg width="48" height="48" viewBox="0 0 48 48" fill="none" xmlns="http://www.w3.org/2000/svg" xmlns:xlink="http://www.w3.org/1999/xlink">
<path d="M24,0C19.253,0 14.613,1.408 10.666,4.045C6.72,6.682 3.643,10.43 1.827,14.816C0.01,19.201 -0.465,24.027 0.461,28.682C1.387,33.338 3.673,37.614 7.029,40.971C10.386,44.327 14.662,46.613 19.318,47.539C23.973,48.465 28.799,47.99 33.184,46.173C37.57,44.357 41.318,41.28 43.955,37.334C46.592,33.387 48,28.747 48,24C47.993,17.637 45.462,11.536 40.963,7.037C36.464,2.538 30.363,0.007 24,0L24,0ZM27,41.73L27,39C27,38.204 26.684,37.441 26.121,36.879C25.559,36.316 24.796,36 24,36C23.204,36 22.441,36.316 21.879,36.879C21.316,37.441 21,38.204 21,39L21,41.73C17.322,41.101 13.93,39.346 11.292,36.708C8.654,34.07 6.899,30.678 6.27,27L9,27C9.796,27 10.559,26.684 11.121,26.121C11.684,25.559 12,24.796 12,24C12,23.204 11.684,22.441 11.121,21.879C10.559,21.316 9.796,21 9,21L6.27,21C6.899,17.322 8.654,13.93 11.292,11.292C13.93,8.654 17.322,6.899 21,6.27L21,9C21,9.796 21.316,10.559 21.879,11.121C22.441,11.684 23.204,12 24,12C24.796,12 25.559,11.684 26.121,11.121C26.684,10.559 27,9.796 27,9L27,6.27C30.678,6.898 34.071,8.652 36.709,11.291C39.348,13.929 41.102,17.322 41.73,21L39,21C38.204,21 37.441,21.316 36.879,21.879C36.316,22.441 36,23.204 36,24C36,24.796 36.316,25.559 36.879,26.121C37.441,26.684 38.204,27 39,27L41.73,27C41.102,30.678 39.348,34.071 36.709,36.709C34.071,39.348 30.678,41.102 27,41.73L27,41.73ZM32,24C32,24.796 31.684,25.559 31.121,26.121C30.559,26.684 29.796,27 29,27L27,27L27,29C27,29.796 26.684,30.559 26.121,31.121C25.559,31.684 24.796,32 24,32C23.204,32 22.441,31.684 21.879,31.121C21.316,30.559 21,29.796 21,29L21,27L19,27C18.204,27 17.441,26.684 16.879,26.121C16.316,25.559 16,24.796 16,24C16,23.204 16.316,22.441 16.879,21.879C17.441,21.316 18.204,21 19,21L21,21L21,19C21,18.204 21.316,17.441 21.879,16.879C22.441,16.316 23.204,16 24,16C24.796,16 25.559,16.316 26.121,16.879C26.684,17.441 27,18.204 27,19L27,21L29,21C29.796,21 30.559,21.316 31.121,21.879C31.684,22.441 32,23.204 32,24L32,24Z" fill="#374957"/>
</svg>
