<svg width="40" height="48" viewBox="0 0 40 48" fill="none" xmlns="http://www.w3.org/2000/svg" xmlns:xlink="http://www.w3.org/1999/xlink">
<path d="M29,0L13,0C9.553,0.004 6.249,1.375 3.812,3.812C1.375,6.249 0.004,9.553 0,13L0,39C0.003,41.386 0.952,43.674 2.639,45.361C4.326,47.048 6.614,47.997 9,48L29,48C31.916,47.996 34.712,46.836 36.774,44.774C38.836,42.712 39.996,39.916 40,37L40,11C39.996,8.084 38.836,5.288 36.774,3.226C34.712,1.164 31.916,0.004 29,0L29,0ZM12,6.102L12,30L9,30C7.976,30.01 6.961,30.197 6,30.552L6,13C6.005,11.321 6.614,9.7 7.715,8.434C8.817,7.167 10.338,6.339 12,6.102L12,6.102ZM34,37C34,38.326 33.473,39.598 32.536,40.536C31.598,41.473 30.326,42 29,42L9,42C8.204,42 7.441,41.684 6.879,41.121C6.316,40.559 6,39.796 6,39C6,38.204 6.316,37.441 6.879,36.879C7.441,36.316 8.204,36 9,36L34,36L34,37ZM18,30L18,6L29,6C30.326,6 31.598,6.527 32.536,7.464C33.473,8.402 34,9.674 34,11L34,30L18,30Z" fill="#374957"/>
</svg>
