<svg width="22" height="48" viewBox="0 0 22 48" fill="none" xmlns="http://www.w3.org/2000/svg" xmlns:xlink="http://www.w3.org/1999/xlink">
<path d="M18.711,0L0.749,39.518C0.334,40.432 0.155,41.435 0.228,42.437C0.301,43.438 0.624,44.404 1.167,45.248C1.711,46.092 2.457,46.787 3.339,47.267C4.22,47.748 5.208,48 6.211,48L21.999,48L21.999,2.092L21.985,0L18.711,0ZM17.999,44L6.211,44C5.877,44 5.547,43.916 5.253,43.756C4.959,43.596 4.71,43.365 4.529,43.083C4.347,42.802 4.24,42.479 4.215,42.145C4.191,41.811 4.251,41.477 4.389,41.172L17.999,11.232L17.999,44Z" fill="#374957"/>
</svg>
