<svg width="48" height="48" viewBox="0 0 48 48" fill="none" xmlns="http://www.w3.org/2000/svg" xmlns:xlink="http://www.w3.org/1999/xlink">
<path d="M45,26L44,26L44,11C43.997,8.084 42.837,5.288 40.775,3.225C38.712,1.163 35.916,0.003 33,0L15,0C12.084,0.003 9.288,1.163 7.225,3.225C5.163,5.288 4.003,8.084 4,11L4,26L3,26C2.204,26 1.441,26.316 0.879,26.879C0.316,27.441 0,28.204 0,29C0,29.796 0.316,30.559 0.879,31.121C1.441,31.684 2.204,32 3,32L21,32L21,38L18,38C16.143,38 14.363,38.737 13.05,40.05C11.737,41.363 11,43.143 11,45C11,45.796 11.316,46.559 11.879,47.121C12.441,47.684 13.204,48 14,48C14.796,48 15.559,47.684 16.121,47.121C16.684,46.559 17,45.796 17,45C17,44.735 17.105,44.48 17.293,44.293C17.48,44.105 17.735,44 18,44L30,44C30.265,44 30.52,44.105 30.707,44.293C30.895,44.48 31,44.735 31,45C31,45.796 31.316,46.559 31.879,47.121C32.441,47.684 33.204,48 34,48C34.796,48 35.559,47.684 36.121,47.121C36.684,46.559 37,45.796 37,45C37,43.143 36.263,41.363 34.95,40.05C33.637,38.737 31.857,38 30,38L27,38L27,32L45,32C45.796,32 46.559,31.684 47.121,31.121C47.684,30.559 48,29.796 48,29C48,28.204 47.684,27.441 47.121,26.879C46.559,26.316 45.796,26 45,26ZM10,11C10,9.674 10.527,8.402 11.464,7.464C12.402,6.527 13.674,6 15,6L33,6C34.326,6 35.598,6.527 36.536,7.464C37.473,8.402 38,9.674 38,11L38,26L10,26L10,11Z" fill="#374957"/>
</svg>
