<svg width="48" height="48" viewBox="0 0 48 48" fill="none" xmlns="http://www.w3.org/2000/svg" xmlns:xlink="http://www.w3.org/1999/xlink">
<path d="M43.727,36.254C43.182,33.909 41.859,31.818 39.975,30.319C38.09,28.821 35.755,28.004 33.347,28L26.999,28L26.999,24.768C29.981,24.035 32.591,22.235 34.336,19.709C36.082,17.183 36.841,14.105 36.472,11.056C36.103,8.008 34.63,5.201 32.332,3.164C30.034,1.128 27.07,0.003 23.999,0.003C20.929,0.003 17.965,1.128 15.667,3.164C13.369,5.201 11.896,8.008 11.527,11.056C11.157,14.105 11.917,17.183 13.662,19.709C15.408,22.235 18.018,24.035 20.999,24.768L20.999,28L14.651,28C12.244,28.004 9.908,28.821 8.024,30.319C6.14,31.818 4.817,33.909 4.271,36.254C3.007,36.634 1.903,37.421 1.13,38.492C0.358,39.564 -0.039,40.86 0.001,42.18C0.04,43.5 0.514,44.77 1.349,45.793C2.184,46.817 3.333,47.536 4.619,47.839C5.904,48.143 7.254,48.014 8.458,47.473C9.663,46.931 10.655,46.007 11.281,44.845C11.907,43.682 12.132,42.345 11.921,41.041C11.71,39.737 11.074,38.54 10.113,37.634C10.346,36.604 10.922,35.683 11.747,35.023C12.571,34.363 13.595,34.002 14.651,34L20.999,34L20.999,36.8C19.856,37.46 18.962,38.48 18.456,39.7C17.951,40.92 17.862,42.273 18.204,43.549C18.546,44.825 19.299,45.952 20.347,46.756C21.395,47.56 22.679,47.996 23.999,47.996C25.32,47.996 26.604,47.56 27.652,46.756C28.7,45.952 29.453,44.825 29.795,43.549C30.137,42.273 30.048,40.92 29.543,39.7C29.037,38.48 28.143,37.46 26.999,36.8L26.999,34L33.347,34C34.404,34.002 35.428,34.363 36.252,35.023C37.077,35.683 37.652,36.604 37.885,37.634C36.924,38.54 36.289,39.737 36.078,41.041C35.867,42.345 36.092,43.682 36.718,44.845C37.344,46.007 38.336,46.931 39.541,47.473C40.745,48.014 42.095,48.143 43.38,47.839C44.665,47.536 45.815,46.817 46.65,45.793C47.484,44.77 47.958,43.5 47.998,42.18C48.038,40.86 47.641,39.564 46.868,38.492C46.096,37.421 44.992,36.634 43.727,36.254L43.727,36.254ZM17.435,12.566C17.435,11.268 17.82,9.999 18.542,8.919C19.263,7.84 20.288,6.998 21.487,6.502C22.687,6.005 24.007,5.875 25.28,6.128C26.553,6.381 27.723,7.007 28.641,7.925C29.559,8.843 30.184,10.012 30.437,11.285C30.691,12.559 30.561,13.878 30.064,15.078C29.567,16.277 28.726,17.302 27.646,18.024C26.567,18.745 25.298,19.13 23.999,19.13C22.259,19.128 20.591,18.436 19.36,17.205C18.13,15.975 17.438,14.306 17.435,12.566L17.435,12.566Z" fill="#374957"/>
</svg>
