<svg width="48" height="46" viewBox="0 0 48 46" fill="none" xmlns="http://www.w3.org/2000/svg" xmlns:xlink="http://www.w3.org/1999/xlink">
<path d="M45.844,1.4C45.17,0.835 44.381,0.427 43.531,0.203C42.681,-0.021 41.792,-0.055 40.928,0.104L28.568,2.35C26.799,2.669 25.19,3.575 24,4.922C22.811,3.573 21.201,2.665 19.432,2.344L7.072,0.098C6.208,-0.059 5.319,-0.024 4.47,0.2C3.62,0.424 2.83,0.832 2.156,1.395C1.481,1.958 0.938,2.662 0.566,3.458C0.193,4.254 0,5.121 0,6L0,39.668L24,44.034L48,39.668L48,6C48,5.122 47.807,4.255 47.434,3.46C47.062,2.665 46.519,1.962 45.844,1.4L45.844,1.4ZM22,39.6L4,36.332L4,6C4,5.707 4.065,5.418 4.189,5.153C4.313,4.888 4.494,4.653 4.719,4.466C4.944,4.278 5.207,4.142 5.491,4.068C5.774,3.993 6.07,3.982 6.358,4.034L18.716,6.28C19.638,6.448 20.471,6.934 21.071,7.653C21.671,8.372 22,9.279 22,10.216L22,39.6ZM44,36.328L26,39.6L26,10.216C26,9.279 26.329,8.372 26.929,7.653C27.529,6.934 28.362,6.448 29.284,6.28L41.642,4.034C41.93,3.982 42.226,3.993 42.509,4.068C42.793,4.142 43.056,4.278 43.281,4.466C43.506,4.653 43.687,4.888 43.811,5.153C43.935,5.418 44,5.707 44,6L44,36.328Z" fill="#374957"/>
</svg>
