<svg width="48" height="48" viewBox="0 0 48 48" fill="none" xmlns="http://www.w3.org/2000/svg" xmlns:xlink="http://www.w3.org/1999/xlink">
<path d="M37,48L11,48C8.084,47.997 5.288,46.837 3.225,44.775C1.163,42.712 0.003,39.916 0,37L0,11C0.003,8.084 1.163,5.288 3.225,3.225C5.288,1.163 8.084,0.003 11,0L37,0C39.916,0.003 42.712,1.163 44.775,3.225C46.837,5.288 47.997,8.084 48,11L48,37C47.997,39.916 46.837,42.712 44.775,44.775C42.712,46.837 39.916,47.997 37,48ZM11,6C9.674,6 8.402,6.527 7.464,7.464C6.527,8.402 6,9.674 6,11L6,37C6,38.326 6.527,39.598 7.464,40.536C8.402,41.473 9.674,42 11,42L37,42C38.326,42 39.598,41.473 40.536,40.536C41.473,39.598 42,38.326 42,37L42,11C42,9.674 41.473,8.402 40.536,7.464C39.598,6.527 38.326,6 37,6L11,6ZM15.984,18.678L15.984,29.322C15.984,29.79 16.107,30.25 16.341,30.656C16.574,31.062 16.911,31.399 17.316,31.635C17.721,31.87 18.18,31.994 18.648,31.996C19.117,31.998 19.577,31.876 19.984,31.644L30.638,26.322C31.047,26.088 31.388,25.75 31.624,25.342C31.861,24.935 31.986,24.472 31.986,24C31.986,23.528 31.861,23.065 31.624,22.658C31.388,22.25 31.047,21.912 30.638,21.678L19.984,16.356C19.577,16.124 19.117,16.002 18.648,16.004C18.18,16.006 17.721,16.13 17.316,16.365C16.911,16.601 16.574,16.938 16.341,17.344C16.107,17.75 15.984,18.21 15.984,18.678L15.984,18.678Z" fill="#374957"/>
</svg>
