<svg width="44" height="48" viewBox="0 0 44 48" fill="none" xmlns="http://www.w3.org/2000/svg" xmlns:xlink="http://www.w3.org/1999/xlink">
<path d="M27.986,23C27.986,23.594 27.81,24.174 27.48,24.667C27.151,25.16 26.682,25.545 26.134,25.772C25.586,25.999 24.983,26.058 24.401,25.943C23.819,25.827 23.284,25.541 22.865,25.122C22.445,24.702 22.159,24.167 22.044,23.585C21.928,23.004 21.987,22.4 22.214,21.852C22.441,21.304 22.826,20.835 23.319,20.506C23.813,20.176 24.393,20 24.986,20C25.782,20 26.545,20.316 27.107,20.879C27.67,21.441 27.986,22.205 27.986,23L27.986,23ZM43.986,23C43.985,21.621 43.576,20.272 42.811,19.124C42.046,17.976 40.959,17.08 39.686,16.548C38.882,11.981 36.516,7.835 32.992,4.819C29.469,1.804 25.007,0.107 20.37,0.019C15.733,-0.07 11.21,1.456 7.574,4.335C3.938,7.214 1.415,11.267 0.438,15.8L-1,24C-1,24 2.212,24 2.556,23.974C5.953,23.872 9.291,23.061 12.356,21.592C12.12,22.022 11.995,22.502 11.99,22.992C11.985,23.576 12.151,24.148 12.467,24.639C12.783,25.13 13.235,25.518 13.768,25.756C14.301,25.993 14.892,26.07 15.468,25.977C16.044,25.884 16.581,25.625 17.012,25.232C17.443,24.838 17.75,24.328 17.896,23.762C18.041,23.197 18.018,22.601 17.83,22.049C17.642,21.496 17.297,21.011 16.836,20.651C16.376,20.292 15.822,20.075 15.24,20.026C15.29,19.994 15.344,19.966 15.394,19.936C20.922,16.745 25.386,11.995 28.228,6.28C30.351,7.55 32.149,9.298 33.48,11.384C34.811,13.47 35.637,15.837 35.894,18.298L36.05,19.79L37.526,20.056C38.215,20.182 38.839,20.546 39.288,21.084C39.737,21.621 39.984,22.299 39.986,23L40,23C40,23.796 39.684,24.559 39.121,25.122C38.559,25.684 37.796,26 37,26C36.831,25.995 36.662,25.977 36.496,25.946L34.826,25.65L34.262,27.25C32.43,32.442 26.26,38 20,38C13.948,38 7.954,32.762 5.918,27.694C4.621,27.891 3.312,27.993 2,28L1.76,28C1.884,28.362 1.972,28.6 2,28.678C3.901,33.478 7.445,37.448 12,39.878L12,48L28,48L28,39.908C32.128,37.689 35.443,34.213 37.464,29.984C39.236,29.866 40.897,29.079 42.111,27.783C43.325,26.486 44,24.776 44,23L43.986,23Z" fill="#374957"/>
</svg>
