<svg width="48" height="48" viewBox="0 0 48 48" fill="none" xmlns="http://www.w3.org/2000/svg" xmlns:xlink="http://www.w3.org/1999/xlink">
<path d="M38,30C38,31.06 37.578,32.078 36.828,32.828C36.078,33.578 35.061,34 34,34C32.939,34 31.922,33.578 31.171,32.828C30.421,32.078 30,31.06 30,30C30,28.939 30.421,27.921 31.171,27.171C31.922,26.421 32.939,26 34,26C35.061,26 36.078,26.421 36.828,27.171C37.578,27.921 38,28.939 38,30ZM16,24C14.939,24 13.921,24.421 13.171,25.171C12.421,25.921 12,26.939 12,28C12,29.06 12.421,30.078 13.171,30.828C13.921,31.578 14.939,32 16,32C17.061,32 18.078,31.578 18.828,30.828C19.578,30.078 20,29.06 20,28C20,26.939 19.578,25.921 18.828,25.171C18.078,24.421 17.061,24 16,24ZM48,22.014L48,37C47.997,39.916 46.837,42.712 44.774,44.774C42.712,46.836 39.916,47.996 37,48L12.05,48C9.751,47.999 7.511,47.278 5.642,45.94C3.773,44.601 2.37,42.712 1.63,40.536C-0.529,34.396 -0.54,27.706 1.6,21.56C4.075,13.783 8.933,6.982 15.488,2.12C17.301,0.787 19.482,0.047 21.733,0.001C23.983,-0.044 26.192,0.607 28.058,1.866L42.636,11.498C44.289,12.71 45.636,14.292 46.567,16.118C47.499,17.945 47.989,19.964 48,22.014L48,22.014ZM12.102,14L35.544,14L24.744,6.866C23.91,6.29 22.918,5.987 21.904,5.998C20.891,6.009 19.906,6.333 19.084,6.926C16.416,8.922 14.063,11.306 12.102,14L12.102,14ZM42,22.014C41.999,21.331 41.898,20.653 41.702,20L12.052,20C11.005,20 9.985,20.329 9.135,20.938C8.285,21.548 7.646,22.409 7.31,23.4C5.566,28.316 5.566,33.683 7.31,38.6C7.645,39.591 8.282,40.453 9.133,41.062C9.983,41.672 11.003,42 12.05,42L18,42C18,40.408 18.632,38.882 19.757,37.757C20.882,36.632 22.409,36 24,36C25.591,36 27.117,36.632 28.242,37.757C29.368,38.882 30,40.408 30,42L37,42C38.326,42 39.598,41.473 40.535,40.535C41.473,39.597 42,38.326 42,37L42,22.014Z" fill="#374957"/>
</svg>
