<svg width="50" height="48" viewBox="0 0 50 48" fill="none" xmlns="http://www.w3.org/2000/svg" xmlns:xlink="http://www.w3.org/1999/xlink">
<path d="M42.9,27.729L24.384,46.243C23.827,46.8 23.165,47.242 22.437,47.544C21.709,47.845 20.929,48.001 20.141,48.001C19.353,48.001 18.572,47.845 17.844,47.544C17.116,47.242 16.455,46.8 15.898,46.243L1.758,32.101C0.633,30.976 0.001,29.45 0.001,27.859C0.001,26.268 0.633,24.742 1.758,23.617L14.358,11.017L8.636,5.245L11.48,2.433L29.418,20.593L32.492,17.541L20.242,5.141L20.272,5.109L18.072,2.909L20.902,0.075L48.056,27.227L45.226,30.057L42.9,27.729ZM38,43.001C38,44.327 38.527,45.599 39.464,46.536C40.402,47.474 41.674,48.001 43,48.001C44.326,48.001 45.598,47.474 46.535,46.536C47.473,45.599 48,44.327 48,43.001C48,40.239 43,34.001 43,34.001C43,34.001 38,40.501 38,43.001Z" fill="#374957"/>
</svg>
