<svg width="50" height="48" viewBox="0 0 50 48" fill="none" xmlns="http://www.w3.org/2000/svg" xmlns:xlink="http://www.w3.org/1999/xlink">
<path d="M48.072,21.856C47.49,16.052 44.839,10.651 40.602,6.641C36.366,2.631 30.828,0.279 25,0.016C21.812,-0.1 18.633,0.421 15.648,1.547C12.663,2.674 9.933,4.385 7.618,6.579C5.302,8.773 3.447,11.407 2.161,14.327C0.875,17.247 0.184,20.394 0.129,23.583C0.073,26.773 0.654,29.942 1.838,32.905C3.022,35.867 4.784,38.564 7.022,40.838C9.26,43.111 11.929,44.915 14.873,46.145C17.817,47.375 20.976,48.006 24.166,48C24.842,48 25.504,47.956 26.166,47.902C26.921,47.84 27.624,47.494 28.134,46.935C28.645,46.375 28.925,45.644 28.918,44.886L28.858,38.036C28.848,36.901 29.176,35.789 29.801,34.841C30.425,33.893 31.318,33.153 32.364,32.714C33.411,32.275 34.565,32.157 35.678,32.376C36.792,32.595 37.815,33.14 38.618,33.942L38.818,34.142C39.382,34.707 40.078,35.121 40.844,35.346C41.609,35.571 42.419,35.6 43.198,35.43C43.965,35.266 44.678,34.911 45.273,34.399C45.867,33.887 46.324,33.234 46.6,32.5C47.895,29.111 48.399,25.47 48.072,21.856L48.072,21.856ZM41.574,28.588C39.824,27.286 37.746,26.497 35.572,26.312C33.399,26.126 31.217,26.551 29.272,27.538C27.326,28.526 25.695,30.036 24.562,31.9C23.429,33.764 22.838,35.907 22.856,38.088L22.89,41.954C18.241,41.621 13.902,39.498 10.786,36.03C7.671,32.562 6.022,28.021 6.188,23.363C6.353,18.705 8.318,14.292 11.671,11.053C15.024,7.815 19.503,6.004 24.164,6C24.364,6 24.588,6 24.8,6.012C29.168,6.21 33.319,7.973 36.495,10.978C39.671,13.984 41.659,18.032 42.096,22.382C42.286,24.466 42.109,26.566 41.574,28.588L41.574,28.588Z" fill="#374957"/>
</svg>
