<svg width="38" height="50" viewBox="0 0 38 50" fill="none" xmlns="http://www.w3.org/2000/svg" xmlns:xlink="http://www.w3.org/1999/xlink">
<path d="M32.05,44.052L32.05,37.09L31.3,36.49C26.2,32.4 24.2,27.874 24.076,20.052L28.05,20.052L28.05,16.052L24.938,16.052C25.659,14.842 26.042,13.461 26.05,12.052C26.05,9.502 23.868,5.806 21.436,1.922C21.076,1.35 20.576,0.878 19.984,0.551C19.392,0.225 18.727,0.053 18.051,0.053C17.375,0.053 16.709,0.225 16.117,0.551C15.526,0.878 15.026,1.35 14.666,1.922C12.234,5.8 10.052,9.502 10.052,12.052C10.06,13.461 10.444,14.841 11.164,16.052L8.052,16.052L8.052,20.052L12.026,20.052C11.896,27.874 9.908,32.4 4.8,36.49L4.05,37.09L4.05,44.052L0.05,44.052L0.05,48.052L36.05,48.052L36.05,44.052L32.05,44.052ZM14.05,12.052C14.05,10.44 16.85,5.958 18.05,4.052C19.25,5.964 22.05,10.452 22.05,12.052C22.05,13.113 21.628,14.13 20.878,14.881C20.128,15.631 19.111,16.052 18.05,16.052C16.989,16.052 15.972,15.631 15.221,14.881C14.471,14.13 14.05,13.113 14.05,12.052ZM20.05,20.052C20.132,26.13 21.18,31.35 25.12,36.052L10.972,36.052C14.912,31.35 15.96,26.13 16.042,20.052L20.05,20.052ZM8.05,40.052L28.05,40.052L28.05,44.052L8.05,44.052L8.05,40.052Z" fill="#374957"/>
</svg>
