<svg width="48" height="48" viewBox="0 0 48 48" fill="none" xmlns="http://www.w3.org/2000/svg" xmlns:xlink="http://www.w3.org/1999/xlink">
<path d="M46.828,1.175C46.326,0.68 45.704,0.325 45.023,0.145C44.342,-0.035 43.626,-0.034 42.946,0.149L35.516,2.585L11.036,27.065C8.3,25.59 5.345,24.562 2.284,24.021L1.712,27.979C5.606,28.709 9.274,30.344 12.42,32.753L5,40.173L2.952,38.125L0.124,40.953L7.124,47.953L9.952,45.125L7.828,43.001L15.248,35.581C17.657,38.726 19.292,42.394 20.02,46.289L23.98,45.717C23.44,42.655 22.413,39.7 20.936,36.965L45.416,12.485L47.906,4.865C48.052,4.208 48.029,3.526 47.841,2.881C47.652,2.236 47.304,1.649 46.828,1.175L46.828,1.175Z" fill="#374957"/>
</svg>
