<svg width="48" height="48" viewBox="0 0 48 48" fill="none" xmlns="http://www.w3.org/2000/svg" xmlns:xlink="http://www.w3.org/1999/xlink">
<path d="M47.999,28C47.999,18.528 40.047,10.588 29.419,8.534C29.848,7.621 30.04,6.615 29.976,5.608C29.912,4.602 29.596,3.628 29.055,2.777C28.515,1.925 27.768,1.224 26.884,0.738C26,0.253 25.008,-0.002 24,-0.002C22.992,-0.002 21.999,0.253 21.116,0.738C20.232,1.224 19.485,1.925 18.945,2.777C18.404,3.628 18.087,4.602 18.024,5.608C17.96,6.615 18.152,7.621 18.581,8.534C7.951,10.588 -0.001,18.528 -0.001,28C-0.024,29.3 0.383,30.571 1.158,31.616C1.933,32.66 3.032,33.419 4.283,33.774L5.935,43.05C6.182,44.437 6.908,45.693 7.988,46.598C9.068,47.503 10.432,47.999 11.841,48L36.159,48C37.568,47.999 38.932,47.503 40.012,46.598C41.091,45.693 41.818,44.437 42.065,43.05L43.715,33.774C44.966,33.419 46.065,32.66 46.84,31.616C47.615,30.571 48.022,29.3 47.999,28ZM21.999,6C21.999,5.469 22.21,4.961 22.585,4.585C22.96,4.21 23.469,4 23.999,4C24.529,4 25.038,4.21 25.413,4.585C25.788,4.961 25.999,5.469 25.999,6C25.999,6.53 25.788,7.039 25.413,7.414C25.038,7.789 24.529,8 23.999,8C23.469,8 22.96,7.789 22.585,7.414C22.21,7.039 21.999,6.53 21.999,6ZM36.159,44L11.841,44C11.372,43.999 10.917,43.834 10.558,43.533C10.198,43.232 9.956,42.814 9.873,42.352L8.545,34.89C9.655,35.671 10.996,36.051 12.351,35.97C13.705,35.888 14.991,35.348 15.999,34.44C17.097,35.428 18.522,35.974 19.999,35.974C21.476,35.974 22.901,35.428 23.999,34.44C25.097,35.428 26.522,35.974 27.999,35.974C29.476,35.974 30.901,35.428 31.999,34.44C33.008,35.346 34.294,35.885 35.648,35.966C37.002,36.048 38.344,35.669 39.455,34.89L38.127,42.35C38.045,42.812 37.803,43.231 37.443,43.532C37.083,43.834 36.628,43.999 36.159,44L36.159,44ZM41.999,30L37.999,30C37.999,30.53 37.788,31.039 37.413,31.414C37.038,31.789 36.529,32 35.999,32C35.469,32 34.96,31.789 34.585,31.414C34.21,31.039 33.999,30.53 33.999,30L29.999,30C29.999,30.53 29.788,31.039 29.413,31.414C29.038,31.789 28.529,32 27.999,32C27.469,32 26.96,31.789 26.585,31.414C26.21,31.039 25.999,30.53 25.999,30L21.999,30C21.999,30.53 21.788,31.039 21.413,31.414C21.038,31.789 20.529,32 19.999,32C19.469,32 18.96,31.789 18.585,31.414C18.21,31.039 17.999,30.53 17.999,30L13.999,30C13.999,30.53 13.788,31.039 13.413,31.414C13.038,31.789 12.529,32 11.999,32C11.469,32 10.96,31.789 10.585,31.414C10.21,31.039 9.999,30.53 9.999,30L5.999,30C5.73,30.026 5.458,29.993 5.203,29.901C4.949,29.81 4.717,29.664 4.526,29.472C4.335,29.281 4.188,29.05 4.097,28.795C4.006,28.541 3.973,28.269 3.999,28C5.011,6.8 42.983,6.818 43.999,27.976C44.028,28.247 43.997,28.52 43.907,28.778C43.817,29.035 43.671,29.269 43.479,29.462C43.288,29.656 43.056,29.805 42.8,29.898C42.544,29.991 42.27,30.026 41.999,30Z" fill="#374957"/>
</svg>
