<svg width="48" height="48" viewBox="0 0 48 48" fill="none" xmlns="http://www.w3.org/2000/svg" xmlns:xlink="http://www.w3.org/1999/xlink">
<path d="M30,48L23,48C22.204,48 21.441,47.684 20.879,47.121C20.316,46.559 20,45.796 20,45C20,44.204 20.316,43.441 20.879,42.879C21.441,42.316 22.204,42 23,42L30,42C30.53,42 31.039,41.789 31.414,41.414C31.789,41.039 32,40.53 32,40C32,39.47 31.789,38.961 31.414,38.586C31.039,38.211 30.53,38 30,38L14,38C11.878,38 9.843,37.157 8.343,35.657C6.843,34.157 6,32.122 6,30C6,27.878 6.843,25.843 8.343,24.343C9.843,22.843 11.878,22 14,22L40,22C40.53,22 41.039,21.789 41.414,21.414C41.789,21.039 42,20.53 42,20C42,19.47 41.789,18.961 41.414,18.586C41.039,18.211 40.53,18 40,18L9,18C6.613,18 4.324,17.052 2.636,15.364C0.948,13.676 0,11.387 0,9C0,6.613 0.948,4.324 2.636,2.636C4.324,0.948 6.613,0 9,0L45,0C45.796,0 46.559,0.316 47.121,0.879C47.684,1.441 48,2.204 48,3C48,3.796 47.684,4.559 47.121,5.121C46.559,5.684 45.796,6 45,6L9,6C8.204,6 7.441,6.316 6.879,6.879C6.316,7.441 6,8.204 6,9C6,9.796 6.316,10.559 6.879,11.121C7.441,11.684 8.204,12 9,12L40,12C42.122,12 44.157,12.843 45.657,14.343C47.157,15.843 48,17.878 48,20C48,22.122 47.157,24.157 45.657,25.657C44.157,27.157 42.122,28 40,28L14,28C13.47,28 12.961,28.211 12.586,28.586C12.211,28.961 12,29.47 12,30C12,30.53 12.211,31.039 12.586,31.414C12.961,31.789 13.47,32 14,32L30,32C32.122,32 34.157,32.843 35.657,34.343C37.157,35.843 38,37.878 38,40C38,42.122 37.157,44.157 35.657,45.657C34.157,47.157 32.122,48 30,48Z" fill="#374957"/>
</svg>
