<svg width="44" height="48" viewBox="0 0 44 48" fill="none" xmlns="http://www.w3.org/2000/svg" xmlns:xlink="http://www.w3.org/1999/xlink">
<path d="M33,0L15,0C12.975,0.002 10.989,0.564 9.262,1.622C7.536,2.681 6.135,4.196 5.214,6L3,6C2.204,6 1.441,6.316 0.879,6.879C0.316,7.441 0,8.204 0,9C0,9.796 0.316,10.559 0.879,11.121C1.441,11.684 2.204,12 3,12L4,12L4,16L3,16C2.204,16 1.441,16.316 0.879,16.879C0.316,17.441 0,18.204 0,19C0,19.796 0.316,20.559 0.879,21.121C1.441,21.684 2.204,22 3,22L4,22L4,26L3,26C2.204,26 1.441,26.316 0.879,26.879C0.316,27.441 0,28.204 0,29C0,29.796 0.316,30.559 0.879,31.121C1.441,31.684 2.204,32 3,32L4,32L4,36L3,36C2.204,36 1.441,36.316 0.879,36.879C0.316,37.441 0,38.204 0,39C0,39.796 0.316,40.559 0.879,41.121C1.441,41.684 2.204,42 3,42L5.214,42C6.135,43.804 7.536,45.319 9.262,46.378C10.989,47.436 12.975,47.998 15,48L33,48C35.916,47.997 38.712,46.837 40.775,44.775C42.837,42.712 43.997,39.916 44,37L44,11C43.997,8.084 42.837,5.288 40.775,3.225C38.712,1.163 35.916,0.003 33,0L33,0ZM38,37C38,38.326 37.473,39.598 36.536,40.536C35.598,41.473 34.326,42 33,42L15,42C13.674,42 12.402,41.473 11.464,40.536C10.527,39.598 10,38.326 10,37L10,11C10,9.674 10.527,8.402 11.464,7.464C12.402,6.527 13.674,6 15,6L33,6C34.326,6 35.598,6.527 36.536,7.464C37.473,8.402 38,9.674 38,11L38,37ZM19,19C19,17.674 19.527,16.402 20.464,15.464C21.402,14.527 22.674,14 24,14C25.326,14 26.598,14.527 27.536,15.464C28.473,16.402 29,17.674 29,19C29,20.326 28.473,21.598 27.536,22.536C26.598,23.473 25.326,24 24,24C22.674,24 21.402,23.473 20.464,22.536C19.527,21.598 19,20.326 19,19ZM31.976,32.464C32.006,32.656 31.994,32.853 31.94,33.04C31.885,33.227 31.791,33.4 31.662,33.547C31.534,33.693 31.375,33.81 31.197,33.888C31.018,33.967 30.825,34.005 30.63,34L17.308,34C17.113,34.005 16.92,33.967 16.741,33.888C16.563,33.81 16.404,33.693 16.276,33.547C16.147,33.4 16.053,33.227 15.998,33.04C15.944,32.853 15.932,32.656 15.962,32.464C17.684,23.93 30.256,23.936 31.976,32.464Z" fill="#374957"/>
</svg>
