<svg width="26" height="48" viewBox="0 0 26 48" fill="none" xmlns="http://www.w3.org/2000/svg" xmlns:xlink="http://www.w3.org/1999/xlink">
<path d="M20.952,42C20.952,42.53 20.741,43.039 20.366,43.414C19.991,43.789 19.482,44 18.952,44L6,44C5.47,44 4.961,43.789 4.586,43.414C4.211,43.039 4,42.53 4,42L4,6C4,5.47 4.211,4.961 4.586,4.586C4.961,4.211 5.47,4 6,4L18.952,4C19.482,4 19.991,4.211 20.366,4.586C20.741,4.961 20.952,5.47 20.952,6L20.952,16.666L24.952,16.666L24.952,6C24.952,4.409 24.32,2.883 23.195,1.757C22.069,0.632 20.543,0 18.952,0L6,0C4.409,0 2.883,0.632 1.757,1.757C0.632,2.883 0,4.409 0,6L0,42C0,43.591 0.632,45.117 1.757,46.243C2.883,47.368 4.409,48 6,48L18.952,48C20.543,48 22.069,47.368 23.195,46.243C24.32,45.117 24.952,43.591 24.952,42L24.952,31.334L20.952,31.334L20.952,42Z" fill="#374957"/>
</svg>
