<svg width="48" height="36" viewBox="0 0 48 36" fill="none" xmlns="http://www.w3.org/2000/svg" xmlns:xlink="http://www.w3.org/1999/xlink">
<path d="M37,0L11,0C8.083,0 5.285,1.159 3.222,3.222C1.159,5.285 0,8.083 0,11L0,16L4.012,16C4.539,16 5.045,16.209 5.418,16.582C5.791,16.955 6,17.461 6,17.988L6,17.988C6,18.249 5.949,18.507 5.849,18.748C5.749,18.99 5.602,19.209 5.418,19.393C5.233,19.577 5.014,19.724 4.773,19.823C4.531,19.923 4.273,19.974 4.012,19.974L0,19.974L0,25C0,27.917 1.159,30.715 3.222,32.778C5.285,34.841 8.083,36 11,36L37,36C39.917,36 42.715,34.841 44.778,32.778C46.841,30.715 48,27.917 48,25L48,11C48,8.083 46.841,5.285 44.778,3.222C42.715,1.159 39.917,0 37,0L37,0ZM42,25C42.02,26.304 41.523,27.562 40.617,28.499C39.71,29.437 38.47,29.976 37.166,30L13.962,30L13.962,6L37.162,6C38.466,6.023 39.708,6.562 40.615,7.499C41.522,8.437 42.02,9.696 42,11L42,25Z" fill="#374957"/>
</svg>
