<svg width="50" height="50" viewBox="0 0 50 50" fill="none" xmlns="http://www.w3.org/2000/svg" xmlns:xlink="http://www.w3.org/1999/xlink">
<path d="M39.279,0.009C31.713,0.009 23.187,4.021 16.479,10.739C9.821,17.337 4.467,25.131 0.695,33.713C0.002,35.317 -0.192,37.093 0.139,38.81C0.469,40.526 1.309,42.103 2.549,43.335L4.663,45.449C5.894,46.688 7.469,47.528 9.183,47.859C10.898,48.19 12.672,47.997 14.275,47.305C22.863,43.543 30.661,38.191 37.259,31.531C43.977,24.811 47.999,16.285 47.999,8.719C48.109,7.547 47.959,6.365 47.559,5.258C47.16,4.15 46.521,3.145 45.688,2.313C44.855,1.481 43.849,0.843 42.741,0.445C41.633,0.047 40.451,-0.102 39.279,0.009L39.279,0.009ZM33.017,27.289C26.959,33.411 19.799,38.334 11.913,41.799C11.403,42.017 10.837,42.071 10.293,41.955L33.121,19.121C33.684,18.558 34,17.795 34,16.999C34,16.203 33.684,15.44 33.121,14.877C32.559,14.314 31.795,13.998 30.999,13.998C30.204,13.998 29.44,14.314 28.877,14.877L6.053,37.703C5.939,37.159 5.993,36.593 6.209,36.081C9.674,28.199 14.594,21.04 20.711,14.981C27.327,8.367 34.639,6.009 39.279,6.009C41.433,6.009 41.999,6.565 41.999,8.719C41.999,13.359 39.631,20.673 33.017,27.289L33.017,27.289Z" fill="#374957"/>
</svg>
