<svg width="48" height="50" viewBox="0 0 48 50" fill="none" xmlns="http://www.w3.org/2000/svg" xmlns:xlink="http://www.w3.org/1999/xlink">
<path d="M36,6L36,8L48,8L48,12L36,12L36,16L48,16L48,20L36,20L36,24L48,24L48,28L36,28L36,32L48,32L48,36L36,36L36,48L32,48L32,6C32,4.409 32.632,2.883 33.757,1.757C34.882,0.632 36.409,0 38,0L48,0L48,4L38,4C37.469,4 36.961,4.211 36.586,4.586C36.211,4.961 36,5.47 36,6L36,6ZM28,40C28.007,41.629 27.515,43.221 26.589,44.561C25.664,45.901 24.35,46.926 22.824,47.497C21.299,48.067 19.635,48.156 18.057,47.752C16.479,47.348 15.063,46.47 14,45.236C13.161,46.2 12.104,46.949 10.916,47.42C9.727,47.89 8.444,48.068 7.172,47.939C5.901,47.81 4.679,47.377 3.61,46.677C2.541,45.977 1.655,45.031 1.028,43.918C0.401,42.804 0.05,41.557 0.006,40.28C-0.039,39.002 0.224,37.733 0.772,36.579C1.321,35.425 2.138,34.419 3.156,33.647C4.174,32.874 5.363,32.357 6.622,32.14L11.824,20L8.526,12.302C6.855,8.416 5.995,4.23 6,0L10,0C9.995,3.689 10.743,7.339 12.2,10.728L14,14.928L15.8,10.728C17.256,7.339 18.005,3.689 18,0L22,0C22.004,4.23 21.145,8.416 19.474,12.302L16.176,20L21.376,32.14C23.227,32.463 24.906,33.428 26.117,34.865C27.328,36.303 27.995,38.12 28,40ZM12,40C12,39.209 11.765,38.436 11.326,37.778C10.886,37.12 10.261,36.607 9.531,36.304C8.8,36.002 7.995,35.923 7.219,36.077C6.444,36.231 5.731,36.612 5.171,37.172C4.612,37.731 4.231,38.444 4.077,39.22C3.922,39.996 4.002,40.8 4.304,41.531C4.607,42.262 5.12,42.886 5.778,43.326C6.435,43.765 7.209,44 8,44C9.061,44 10.078,43.579 10.828,42.828C11.578,42.078 12,41.061 12,40ZM14,34.764C14.865,33.767 15.965,33.001 17.2,32.534L14,25.076L10.8,32.534C12.035,33.001 13.135,33.767 14,34.764L14,34.764ZM24,40C24,39.209 23.765,38.436 23.326,37.778C22.886,37.12 22.262,36.607 21.531,36.304C20.8,36.002 19.995,35.923 19.219,36.077C18.444,36.231 17.731,36.612 17.171,37.172C16.612,37.731 16.231,38.444 16.077,39.22C15.922,39.996 16.002,40.8 16.304,41.531C16.607,42.262 17.12,42.886 17.778,43.326C18.435,43.765 19.209,44 20,44C21.061,44 22.078,43.579 22.828,42.828C23.578,42.078 24,41.061 24,40Z" fill="#374957"/>
</svg>
