<svg width="48" height="48" viewBox="0 0 48 48" fill="none" xmlns="http://www.w3.org/2000/svg" xmlns:xlink="http://www.w3.org/1999/xlink">
<path d="M17,0L9,0C6.614,0.003 4.326,0.952 2.639,2.639C0.952,4.326 0.003,6.614 0,9L0,11C0.003,13.386 0.952,15.674 2.639,17.361C4.326,19.048 6.614,19.997 9,20L10,20L10,22L9,22C8.204,22 7.441,22.316 6.879,22.879C6.316,23.441 6,24.204 6,25C6,25.796 6.316,26.559 6.879,27.121C7.441,27.684 8.204,28 9,28L17,28C17.796,28 18.559,27.684 19.121,27.121C19.684,26.559 20,25.796 20,25C20,24.204 19.684,23.441 19.121,22.879C18.559,22.316 17.796,22 17,22L16,22L16,20L17,20C19.386,19.997 21.674,19.048 23.361,17.361C25.048,15.674 25.997,13.386 26,11L26,9C25.997,6.614 25.048,4.326 23.361,2.639C21.674,0.952 19.386,0.003 17,0L17,0ZM20,11C20,11.796 19.684,12.559 19.121,13.121C18.559,13.684 17.796,14 17,14L9,14C8.204,14 7.441,13.684 6.879,13.121C6.316,12.559 6,11.796 6,11L6,9C6,8.204 6.316,7.441 6.879,6.879C7.441,6.316 8.204,6 9,6L17,6C17.796,6 18.559,6.316 19.121,6.879C19.684,7.441 20,8.204 20,9L20,11ZM30,9C30,8.204 30.316,7.441 30.879,6.879C31.441,6.316 32.204,6 33,6L35,6C36.857,6 38.637,6.738 39.95,8.05C41.263,9.363 42,11.143 42,13L42,15C42,15.796 41.684,16.559 41.121,17.121C40.559,17.684 39.796,18 39,18C38.204,18 37.441,17.684 36.879,17.121C36.316,16.559 36,15.796 36,15L36,13C36,12.735 35.895,12.48 35.707,12.293C35.52,12.105 35.265,12 35,12L33,12C32.204,12 31.441,11.684 30.879,11.121C30.316,10.559 30,9.796 30,9ZM26,41C26,41.796 25.684,42.559 25.121,43.121C24.559,43.684 23.796,44 23,44L17,44C15.143,44 13.363,43.263 12.05,41.95C10.737,40.637 10,38.857 10,37L10,35C10,34.204 10.316,33.441 10.879,32.879C11.441,32.316 12.204,32 13,32C13.796,32 14.559,32.316 15.121,32.879C15.684,33.441 16,34.204 16,35L16,37C16,37.265 16.105,37.52 16.293,37.707C16.48,37.895 16.735,38 17,38L23,38C23.796,38 24.559,38.316 25.121,38.879C25.684,39.441 26,40.204 26,41ZM42,22L36,22C34.409,22 32.883,22.632 31.757,23.757C30.632,24.883 30,26.409 30,28L30,42C30,43.591 30.632,45.117 31.757,46.243C32.883,47.368 34.409,48 36,48L42,48C43.591,48 45.117,47.368 46.243,46.243C47.368,45.117 48,43.591 48,42L48,28C48,26.409 47.368,24.883 46.243,23.757C45.117,22.632 43.591,22 42,22L42,22ZM39,44C38.407,44 37.827,43.824 37.333,43.494C36.84,43.165 36.455,42.696 36.228,42.148C36.001,41.6 35.942,40.997 36.058,40.415C36.173,39.833 36.459,39.298 36.879,38.879C37.298,38.459 37.833,38.173 38.415,38.058C38.997,37.942 39.6,38.001 40.148,38.228C40.696,38.455 41.165,38.84 41.494,39.333C41.824,39.827 42,40.407 42,41C42,41.796 41.684,42.559 41.121,43.121C40.559,43.684 39.796,44 39,44Z" fill="#374957"/>
</svg>
