<svg width="48" height="42" viewBox="0 0 48 42" fill="none" xmlns="http://www.w3.org/2000/svg" xmlns:xlink="http://www.w3.org/1999/xlink">
<path d="M31.982,6.001C30.903,6.004 29.854,6.355 28.989,7C28.125,7.646 27.491,8.553 27.182,9.587L19.156,36.849C18.897,37.753 18.352,38.549 17.603,39.117C16.854,39.685 15.941,39.996 15,40.001C14.083,39.991 13.19,39.701 12.443,39.169C11.695,38.637 11.128,37.889 10.818,37.025L6.198,23.625C5.889,22.742 5.374,21.946 4.695,21.302C4.016,20.658 3.193,20.186 2.294,19.925C1.911,19.833 1.55,19.665 1.232,19.433C0.914,19.201 0.644,18.908 0.439,18.572C0.025,17.893 -0.103,17.077 0.084,16.303C0.272,15.53 0.758,14.863 1.438,14.448C2.117,14.034 2.933,13.906 3.706,14.093C5.575,14.59 7.294,15.536 8.714,16.848C10.134,18.161 11.212,19.8 11.854,21.623L14.836,30.283L21.436,7.901C22.114,5.627 23.505,3.632 25.404,2.209C27.303,0.787 29.61,0.013 31.982,0.001L45,0.001C45.796,0.001 46.559,0.317 47.122,0.88C47.684,1.443 48,2.206 48,3.001C48,3.797 47.684,4.56 47.122,5.123C46.559,5.685 45.796,6.001 45,6.001L31.982,6.001ZM46.8,18.601C46.485,18.365 46.126,18.193 45.745,18.095C45.363,17.997 44.966,17.976 44.576,18.031C43.788,18.144 43.078,18.565 42.6,19.201L39,24.001L35.4,19.201C35.164,18.886 34.868,18.621 34.529,18.42C34.19,18.219 33.815,18.087 33.425,18.031C33.035,17.976 32.637,17.997 32.256,18.095C31.874,18.193 31.515,18.365 31.2,18.601C30.885,18.838 30.62,19.134 30.419,19.473C30.218,19.812 30.086,20.187 30.03,20.577C29.975,20.967 29.996,21.364 30.094,21.746C30.192,22.127 30.364,22.486 30.6,22.801L35.25,29.001L30.6,35.201C30.364,35.516 30.192,35.875 30.094,36.257C29.996,36.638 29.975,37.035 30.03,37.425C30.086,37.815 30.218,38.191 30.419,38.53C30.62,38.869 30.885,39.165 31.2,39.401C31.515,39.638 31.874,39.81 32.256,39.907C32.637,40.005 33.035,40.027 33.425,39.971C33.815,39.915 34.19,39.783 34.529,39.583C34.868,39.382 35.164,39.116 35.4,38.801L39,34.001L42.6,38.801C43.078,39.438 43.788,39.859 44.576,39.971C45.364,40.084 46.164,39.879 46.8,39.401C47.437,38.924 47.858,38.213 47.97,37.425C48.083,36.638 47.878,35.838 47.4,35.201L42.75,29.001L47.4,22.801C47.878,22.165 48.083,21.365 47.97,20.577C47.858,19.789 47.437,19.079 46.8,18.601L46.8,18.601Z" fill="#374957"/>
</svg>
