<svg width="50" height="50" viewBox="0 0 50 50" fill="none" xmlns="http://www.w3.org/2000/svg" xmlns:xlink="http://www.w3.org/1999/xlink">
<path d="M30,15.001C30,14.408 30.176,13.828 30.506,13.335C30.835,12.841 31.304,12.457 31.852,12.23C32.4,12.003 33.003,11.943 33.585,12.059C34.167,12.175 34.702,12.461 35.121,12.88C35.541,13.3 35.827,13.834 35.942,14.416C36.058,14.998 35.999,15.601 35.772,16.149C35.545,16.698 35.16,17.166 34.667,17.496C34.173,17.826 33.593,18.001 33,18.001C32.204,18.001 31.441,17.685 30.879,17.123C30.316,16.56 30,15.797 30,15.001L30,15.001ZM27,24.001C27.593,24.001 28.173,23.826 28.667,23.496C29.16,23.166 29.545,22.698 29.772,22.15C29.999,21.601 30.058,20.998 29.942,20.416C29.827,19.834 29.541,19.3 29.121,18.88C28.702,18.461 28.167,18.175 27.585,18.059C27.003,17.943 26.4,18.003 25.852,18.23C25.304,18.457 24.835,18.841 24.506,19.335C24.176,19.828 24,20.408 24,21.001C24,21.797 24.316,22.56 24.879,23.123C25.441,23.685 26.204,24.001 27,24.001ZM21,30.001C21.593,30.001 22.173,29.826 22.667,29.496C23.16,29.166 23.545,28.698 23.772,28.15C23.999,27.601 24.058,26.998 23.942,26.416C23.827,25.834 23.541,25.3 23.121,24.88C22.702,24.461 22.167,24.175 21.585,24.059C21.003,23.943 20.4,24.003 19.852,24.23C19.304,24.457 18.835,24.841 18.506,25.335C18.176,25.828 18,26.408 18,27.001C18,27.797 18.316,28.56 18.879,29.123C19.441,29.685 20.204,30.001 21,30.001ZM47.682,7.107L47.532,7.525C44.224,16.703 41.064,25.375 33.782,32.907C33.241,38.066 30.905,42.87 27.182,46.481C26.162,47.453 24.809,47.996 23.4,48.001C21.968,48.001 20.594,47.433 19.582,46.42C18.569,45.407 18,44.034 18,42.601L18,39.339C16.825,38.908 15.737,38.271 14.786,37.457L11.122,41.123C10.559,41.686 9.796,42.002 9,42.002C8.204,42.002 7.441,41.686 6.878,41.123C6.315,40.561 5.999,39.797 5.999,39.001C5.999,38.206 6.315,37.442 6.878,36.879L10.546,33.211C9.32,31.717 8.528,29.915 8.256,28.001L5.4,28.001C3.968,28.001 2.594,27.433 1.582,26.42C0.569,25.407 0,24.034 0,22.601C0.006,21.194 0.549,19.841 1.52,18.821C3.603,16.694 6.085,14.999 8.825,13.835C11.566,12.67 14.509,12.06 17.486,12.037C24.438,6.251 32.258,3.437 40.486,0.469L40.902,0.319C41.849,-0.022 42.874,-0.087 43.856,0.133C44.839,0.352 45.739,0.847 46.451,1.559C47.162,2.271 47.657,3.171 47.877,4.153C48.096,5.136 48.031,6.16 47.69,7.107L47.682,7.107ZM41.536,6.465C32.824,9.611 25.27,12.481 18.8,18.945C17.423,20.5 16.14,22.136 14.958,23.843C14.328,24.739 14.035,25.828 14.131,26.918C14.227,28.008 14.704,29.029 15.48,29.801L18.328,32.641C19.1,33.415 20.121,33.89 21.21,33.985C22.299,34.079 23.386,33.786 24.28,33.157C25.986,31.982 27.584,30.659 29.056,29.201C35.52,22.731 38.4,15.177 41.536,6.465L41.536,6.465Z" fill="#374957"/>
</svg>
