<svg width="48" height="48" viewBox="0 0 48 48" fill="none" xmlns="http://www.w3.org/2000/svg" xmlns:xlink="http://www.w3.org/1999/xlink">
<path d="M28.829,9.244C30.333,8.194 31.58,6.816 32.476,5.215C33.372,3.614 33.893,1.831 34.001,0L38.001,0C37.997,2.448 37.346,4.852 36.115,6.968C38.72,6.48 41.354,6.157 44.001,6C43.797,10.772 42.898,15.488 41.331,20L32.829,20L37.415,15.414L34.587,12.586L27.173,20L24.489,20C23.942,18.418 23.851,16.715 24.226,15.084C24.602,13.453 25.429,11.961 26.613,10.778C27.269,10.157 28.017,9.64 28.829,9.244L28.829,9.244ZM46.761,26.348C46.197,25.615 45.473,25.022 44.643,24.615C43.813,24.208 42.901,23.997 41.977,24L6.001,24C5.076,23.998 4.164,24.208 3.335,24.616C2.505,25.023 1.78,25.615 1.217,26.348C0.665,27.05 0.283,27.87 0.1,28.744C-0.083,29.619 -0.062,30.523 0.161,31.388C2.001,37.388 9.817,44.672 16.001,48L32.001,48C38.087,44.65 52.033,33.284 46.761,26.348ZM4.041,20L20.761,20C20.646,17.86 19.715,15.846 18.16,14.372C16.605,12.897 14.543,12.076 12.401,12.076C10.258,12.076 8.196,12.897 6.641,14.372C5.086,15.846 4.155,17.86 4.041,20L4.041,20ZM12.401,8C14.039,7.998 15.662,8.325 17.173,8.959C18.684,9.593 20.054,10.523 21.201,11.694C22.305,9.204 24.218,7.16 26.629,5.894C27.876,4.911 28.869,3.645 29.527,2.2C28.122,0.862 26.276,0.084 24.337,0.012C22.399,-0.06 20.501,0.58 19.001,1.81C17.724,0.755 16.149,0.126 14.497,0.01C12.845,-0.105 11.199,0.299 9.788,1.166C8.377,2.033 7.273,3.319 6.629,4.845C5.986,6.371 5.836,8.06 6.201,9.676C8.082,8.578 10.222,7.999 12.401,8L12.401,8Z" fill="#374957"/>
</svg>
