<svg width="50" height="50" viewBox="0 0 50 50" fill="none" xmlns="http://www.w3.org/2000/svg" xmlns:xlink="http://www.w3.org/1999/xlink">
<path d="M32,16C29.74,16.002 27.506,16.484 25.446,17.415C23.386,18.346 21.548,19.705 20.052,21.4C19.1,20.937 18.096,20.585 17.063,20.352L20.434,13.6L16.829,10L11.173,10L7.573,13.6L10.945,20.342C8.886,20.795 6.957,21.707 5.301,23.01C3.644,24.312 2.303,25.972 1.378,27.866C0.452,29.759 -0.034,31.837 -0.045,33.944C-0.055,36.051 0.41,38.134 1.316,40.036C2.223,41.939 3.547,43.612 5.19,44.931C6.833,46.251 8.753,47.182 10.807,47.656C12.86,48.13 14.994,48.134 17.049,47.668C19.104,47.203 21.028,46.279 22.676,44.966C24.723,46.446 27.091,47.42 29.586,47.809C32.082,48.198 34.634,47.991 37.034,47.204C39.434,46.418 41.613,45.074 43.394,43.284C45.176,41.493 46.507,39.307 47.281,36.903C48.055,34.498 48.249,31.945 47.847,29.452C47.445,26.959 46.458,24.596 44.967,22.557C43.477,20.518 41.525,18.861 39.271,17.722C37.018,16.582 34.526,15.992 32,16L32,16ZM22.468,39.26C21.14,37.534 20.312,35.477 20.072,33.313C19.833,31.148 20.193,28.96 21.112,26.986C22.697,28.575 23.695,30.655 23.941,32.885C24.187,35.116 23.668,37.364 22.468,39.26L22.468,39.26ZM4.001,34C3.996,32.361 4.396,30.745 5.165,29.297C5.934,27.849 7.048,26.613 8.408,25.698C9.768,24.783 11.333,24.218 12.964,24.052C14.595,23.886 16.242,24.124 17.759,24.746C16.331,27.525 15.754,30.662 16.097,33.767C16.441,36.872 17.69,39.807 19.691,42.206C18.193,43.251 16.437,43.865 14.615,43.981C12.793,44.097 10.973,43.711 9.355,42.864C7.737,42.018 6.382,40.744 5.438,39.181C4.494,37.618 3.997,35.826 4.001,34L4.001,34ZM32,44C29.67,44.001 27.391,43.319 25.444,42.038C27.414,39.255 28.293,35.845 27.916,32.457C27.54,29.068 25.933,25.935 23.4,23.652C24.78,22.228 26.49,21.168 28.379,20.566C30.268,19.964 32.276,19.84 34.225,20.204C36.174,20.568 38.002,21.41 39.546,22.653C41.09,23.896 42.302,25.502 43.074,27.328C43.846,29.154 44.153,31.143 43.969,33.117C43.784,35.091 43.114,36.988 42.017,38.64C40.92,40.291 39.431,41.645 37.683,42.58C35.935,43.516 33.983,44.003 32,44L32,44ZM20.836,8L18.001,5.162L22.586,0.586L25.414,3.414L20.836,8ZM7.087,7.914L2.587,3.414L5.415,0.586L9.915,5.086L7.087,7.914ZM16.001,6L12.001,6L12.001,0L16.001,0L16.001,6Z" fill="#374957"/>
</svg>
