<svg width="48" height="44" viewBox="0 0 48 44" fill="none" xmlns="http://www.w3.org/2000/svg" xmlns:xlink="http://www.w3.org/1999/xlink">
<path d="M35.582,12.418C34.691,8.598 32.428,5.239 29.223,2.977C26.018,0.716 22.094,-0.289 18.196,0.153C14.299,0.595 10.7,2.454 8.082,5.375C5.465,8.297 4.012,12.078 4,16C3.998,18.557 4.615,21.076 5.8,23.342C3.642,24.499 1.932,26.343 0.943,28.582C-0.047,30.821 -0.26,33.327 0.338,35.7C0.936,38.074 2.309,40.181 4.241,41.684C6.173,43.188 8.552,44.003 11,44L32,44C35.922,43.988 39.703,42.535 42.625,39.918C45.546,37.3 47.405,33.701 47.847,29.803C48.289,25.906 47.284,21.982 45.023,18.777C42.761,15.572 39.402,13.309 35.582,12.418L35.582,12.418ZM27.626,36.242C26.5,37.367 24.975,37.999 23.384,37.999C21.793,37.999 20.267,37.367 19.142,36.242L12.374,29.474L15.2,26.646L21.968,33.414C22.348,33.778 22.855,33.981 23.382,33.981C23.908,33.981 24.415,33.778 24.796,33.414L36.104,22.106L38.932,24.934L27.626,36.242Z" fill="#374957"/>
</svg>
