<svg width="48" height="48" viewBox="0 0 48 48" fill="none" xmlns="http://www.w3.org/2000/svg" xmlns:xlink="http://www.w3.org/1999/xlink">
<path d="M48,30C48,32.122 47.157,34.157 45.657,35.657C44.157,37.157 42.122,38 40,38C37.878,38 35.843,37.157 34.343,35.657C32.843,34.157 32,32.122 32,30L36,30C36,30.791 36.235,31.564 36.674,32.222C37.114,32.88 37.738,33.393 38.469,33.696C39.2,33.998 40.004,34.077 40.78,33.923C41.556,33.769 42.269,33.388 42.828,32.828C43.388,32.269 43.769,31.556 43.923,30.78C44.077,30.004 43.998,29.2 43.696,28.469C43.393,27.738 42.88,27.114 42.222,26.674C41.564,26.235 40.791,26 40,26L20,26L20,22L34,22C35.187,22 36.347,21.648 37.333,20.989C38.32,20.33 39.089,19.392 39.543,18.296C39.997,17.2 40.116,15.993 39.885,14.829C39.653,13.666 39.082,12.596 38.243,11.757C37.404,10.918 36.334,10.347 35.171,10.115C34.007,9.884 32.8,10.003 31.704,10.457C30.608,10.911 29.67,11.68 29.011,12.667C28.352,13.653 28,14.813 28,16L28,18L24,18L24,16C23.997,14.404 24.376,12.831 25.106,11.413C25.835,9.994 26.895,8.771 28.195,7.846C29.495,6.921 30.998,6.321 32.578,6.097C34.157,5.873 35.768,6.031 37.274,6.557C38.78,7.084 40.138,7.964 41.234,9.124C42.33,10.284 43.131,11.689 43.572,13.222C44.013,14.756 44.079,16.373 43.766,17.937C43.453,19.502 42.769,20.968 41.772,22.214C43.538,22.615 45.116,23.604 46.247,25.018C47.379,26.432 47.997,28.189 48,30ZM16,22L0,22L0,26L16,26L16,22ZM22,8C22,5.878 21.157,3.843 19.657,2.343C18.157,0.843 16.122,0 14,0C11.878,0 9.843,0.843 8.343,2.343C6.843,3.843 6,5.878 6,8L10,8C10,7.209 10.235,6.436 10.674,5.778C11.114,5.12 11.738,4.607 12.469,4.304C13.2,4.002 14.004,3.923 14.78,4.077C15.556,4.231 16.269,4.612 16.828,5.172C17.388,5.731 17.769,6.444 17.923,7.22C18.077,7.996 17.998,8.8 17.696,9.531C17.393,10.262 16.88,10.886 16.222,11.326C15.564,11.765 14.791,12 14,12L0,12L0,16L14,16C16.122,16 18.157,15.157 19.657,13.657C21.157,12.157 22,10.122 22,8ZM22,32L0,32L0,36L22,36C22.791,36 23.564,36.235 24.222,36.674C24.88,37.114 25.393,37.738 25.696,38.469C25.998,39.2 26.077,40.004 25.923,40.78C25.769,41.556 25.388,42.269 24.828,42.828C24.269,43.388 23.556,43.769 22.78,43.923C22.004,44.077 21.2,43.998 20.469,43.696C19.738,43.393 19.114,42.88 18.674,42.222C18.235,41.564 18,40.791 18,40L14,40C14,41.582 14.469,43.129 15.348,44.445C16.227,45.76 17.477,46.786 18.939,47.391C20.4,47.997 22.009,48.155 23.561,47.846C25.113,47.538 26.538,46.776 27.657,45.657C28.776,44.538 29.538,43.113 29.846,41.561C30.155,40.009 29.997,38.4 29.391,36.939C28.786,35.477 27.76,34.227 26.445,33.348C25.129,32.469 23.582,32 22,32Z" fill="#374957"/>
</svg>
