<svg width="40" height="48" viewBox="0 0 40 48" fill="none" xmlns="http://www.w3.org/2000/svg" xmlns:xlink="http://www.w3.org/1999/xlink">
<path d="M30,15.928L30,8L26,8L26,4L36,4L36,0L20,0C18.409,0 16.883,0.632 15.757,1.757C14.632,2.883 14,4.409 14,6L14,8L10,8L10,15.928C6.997,17.403 4.467,19.692 2.7,22.533C0.932,25.374 -0.003,28.654 0,32L0,48L40,48L40,32C40.003,28.654 39.068,25.374 37.3,22.533C35.533,19.692 33.003,17.403 30,15.928L30,15.928ZM18,6C18,5.47 18.211,4.961 18.586,4.586C18.961,4.211 19.47,4 20,4L22,4L22,8L18,8L18,6ZM14,12L26,12L26,16L14,16L14,12ZM36,44L4,44L4,32C3.994,29.583 4.617,27.206 5.807,25.102C6.997,22.998 8.713,21.24 10.788,20L29.212,20C31.287,21.24 33.003,22.998 34.193,25.102C35.383,27.206 36.006,29.583 36,32L36,44ZM8,40L32,40L32,28L8,28L8,40ZM12,32L28,32L28,36L12,36L12,32Z" fill="#374957"/>
</svg>
