<svg width="48" height="48" viewBox="0 0 48 48" fill="none" xmlns="http://www.w3.org/2000/svg" xmlns:xlink="http://www.w3.org/1999/xlink">
<path d="M41.401,28.05C40.068,26.78 38.297,26.071 36.456,26.071C34.614,26.071 32.844,26.78 31.511,28.05L30.689,28.85C25.578,26.519 21.486,22.413 19.173,17.294L19.949,16.506C21.238,15.202 21.967,13.446 21.982,11.612C21.996,9.778 21.295,8.011 20.027,6.686L15.723,2.05C14.404,0.791 12.655,0.081 10.832,0.066C9.009,0.05 7.248,0.731 5.909,1.968L3.875,3.736C3.823,3.782 3.773,3.828 3.725,3.876C-12.075,20.416 27.571,60.076 44.125,44.276C44.171,44.226 44.217,44.178 44.263,44.126L46.033,42.094C47.314,40.756 48.015,38.967 47.985,37.115C47.954,35.262 47.193,33.497 45.869,32.202L41.401,28.05ZM41.713,37.934C41.665,37.982 41.617,38.034 41.571,38.084L39.817,40.1C29.309,49.546 -1.819,20.254 7.899,8.2L9.915,6.446C9.967,6.398 10.019,6.352 10.067,6.302C10.237,6.121 10.47,6.012 10.719,5.997C10.967,5.982 11.212,6.063 11.403,6.222L15.707,10.848C15.805,10.94 15.884,11.052 15.937,11.176C15.99,11.3 16.016,11.434 16.014,11.569C16.013,11.704 15.983,11.837 15.927,11.96C15.871,12.083 15.79,12.193 15.689,12.282L13.473,14.534C13.064,14.95 12.785,15.476 12.671,16.048C12.557,16.62 12.611,17.213 12.829,17.754C14.319,21.744 16.649,25.367 19.663,28.377C22.676,31.387 26.301,33.714 30.293,35.2C30.83,35.405 31.414,35.451 31.976,35.333C32.538,35.216 33.055,34.939 33.465,34.536L35.719,32.318L35.739,32.3C36.295,31.874 36.639,31.88 37.233,32.38L41.707,36.528C41.892,36.715 41.996,36.968 41.996,37.231C41.996,37.494 41.892,37.747 41.707,37.934L41.713,37.934ZM47.121,12.878C47.684,13.441 48,14.204 48,15C48,15.795 47.684,16.558 47.122,17.121C46.559,17.684 45.796,18 45,18.001C44.205,18.001 43.442,17.685 42.879,17.122L39.001,13.242L35.121,17.122C34.558,17.685 33.795,18.001 32.999,18.001C32.203,18 31.44,17.684 30.878,17.121C30.315,16.558 29.999,15.795 29.999,15C30,14.204 30.316,13.441 30.879,12.878L34.757,9L30.879,5.122C30.316,4.56 30,3.797 29.999,3.001C29.999,2.205 30.315,1.442 30.878,0.879C31.44,0.316 32.203,0 32.999,0C33.795,0 34.558,0.316 35.121,0.878L39.001,4.758L42.879,0.878C43.442,0.316 44.205,0 45,0C45.796,0 46.559,0.316 47.122,0.879C47.684,1.442 48,2.205 48,3.001C48,3.797 47.684,4.56 47.121,5.122L43.243,9L47.121,12.878Z" fill="#374957"/>
</svg>
