<svg width="48" height="48" viewBox="0 0 48 48" fill="none" xmlns="http://www.w3.org/2000/svg" xmlns:xlink="http://www.w3.org/1999/xlink">
<path d="M37,48L11,48C8.084,47.997 5.288,46.837 3.225,44.775C1.163,42.712 0.003,39.916 0,37L0,11C0.003,8.084 1.163,5.288 3.225,3.225C5.288,1.163 8.084,0.003 11,0L37,0C39.916,0.003 42.712,1.163 44.775,3.225C46.837,5.288 47.997,8.084 48,11L48,37C47.997,39.916 46.837,42.712 44.775,44.775C42.712,46.837 39.916,47.997 37,48ZM11,6C9.674,6 8.402,6.527 7.464,7.464C6.527,8.402 6,9.674 6,11L6,37C6,38.326 6.527,39.598 7.464,40.536C8.402,41.473 9.674,42 11,42L37,42C38.326,42 39.598,41.473 40.536,40.536C41.473,39.598 42,38.326 42,37L42,11C42,9.674 41.473,8.402 40.536,7.464C39.598,6.527 38.326,6 37,6L11,6ZM21,24C21,24.593 21.176,25.173 21.506,25.667C21.835,26.16 22.304,26.545 22.852,26.772C23.4,26.999 24.003,27.058 24.585,26.942C25.167,26.827 25.702,26.541 26.121,26.121C26.541,25.702 26.827,25.167 26.942,24.585C27.058,24.003 26.999,23.4 26.772,22.852C26.545,22.304 26.16,21.835 25.667,21.506C25.173,21.176 24.593,21 24,21C23.204,21 22.441,21.316 21.879,21.879C21.316,22.441 21,23.204 21,24L21,24ZM12,15C12,15.593 12.176,16.173 12.506,16.667C12.835,17.16 13.304,17.545 13.852,17.772C14.4,17.999 15.003,18.058 15.585,17.942C16.167,17.827 16.702,17.541 17.121,17.121C17.541,16.702 17.827,16.167 17.942,15.585C18.058,15.003 17.999,14.4 17.772,13.852C17.545,13.304 17.16,12.835 16.667,12.506C16.173,12.176 15.593,12 15,12C14.204,12 13.441,12.316 12.879,12.879C12.316,13.441 12,14.204 12,15ZM30,15C30,15.593 30.176,16.173 30.506,16.667C30.835,17.16 31.304,17.545 31.852,17.772C32.4,17.999 33.003,18.058 33.585,17.942C34.167,17.827 34.702,17.541 35.121,17.121C35.541,16.702 35.827,16.167 35.942,15.585C36.058,15.003 35.999,14.4 35.772,13.852C35.545,13.304 35.16,12.835 34.667,12.506C34.173,12.176 33.593,12 33,12C32.204,12 31.441,12.316 30.879,12.879C30.316,13.441 30,14.204 30,15L30,15ZM12,33C12,33.593 12.176,34.173 12.506,34.667C12.835,35.16 13.304,35.545 13.852,35.772C14.4,35.999 15.003,36.058 15.585,35.942C16.167,35.827 16.702,35.541 17.121,35.121C17.541,34.702 17.827,34.167 17.942,33.585C18.058,33.003 17.999,32.4 17.772,31.852C17.545,31.304 17.16,30.835 16.667,30.506C16.173,30.176 15.593,30 15,30C14.204,30 13.441,30.316 12.879,30.879C12.316,31.441 12,32.204 12,33ZM30,33C30,33.593 30.176,34.173 30.506,34.667C30.835,35.16 31.304,35.545 31.852,35.772C32.4,35.999 33.003,36.058 33.585,35.942C34.167,35.827 34.702,35.541 35.121,35.121C35.541,34.702 35.827,34.167 35.942,33.585C36.058,33.003 35.999,32.4 35.772,31.852C35.545,31.304 35.16,30.835 34.667,30.506C34.173,30.176 33.593,30 33,30C32.204,30 31.441,30.316 30.879,30.879C30.316,31.441 30,32.204 30,33L30,33Z" fill="#374957"/>
</svg>
