<svg width="40" height="48" viewBox="0 0 40 48" fill="none" xmlns="http://www.w3.org/2000/svg" xmlns:xlink="http://www.w3.org/1999/xlink">
<path d="M36,0L6,0C4.409,0 2.883,0.632 1.757,1.757C0.632,2.883 0,4.409 0,6L0,42C0,43.591 0.632,45.117 1.757,46.243C2.883,47.368 4.409,48 6,48L40,48L40,4C40,2.939 39.579,1.922 38.828,1.172C38.078,0.421 37.061,0 36,0L36,0ZM36,36L12,36L12,4L36,4L36,36ZM6,4L8,4L8,36L6.034,36C5.339,36.006 4.651,36.133 4,36.374L4,6C4,5.47 4.211,4.961 4.586,4.586C4.961,4.211 5.47,4 6,4ZM6,44C5.472,44 4.966,43.792 4.591,43.42C4.217,43.048 4.004,42.544 4,42.016L4.03,42.016C4.028,41.752 4.078,41.49 4.178,41.246C4.277,41.001 4.424,40.779 4.61,40.591C4.796,40.404 5.017,40.255 5.261,40.154C5.505,40.052 5.766,40 6.03,40L36,40L36,44L6,44Z" fill="#374957"/>
</svg>
