<svg width="40" height="48" viewBox="0 0 40 48" fill="none" xmlns="http://www.w3.org/2000/svg" xmlns:xlink="http://www.w3.org/1999/xlink">
<path d="M40.001,20.013C40.001,16.058 38.828,12.191 36.63,8.902C34.432,5.613 31.309,3.05 27.654,1.536C24,0.022 19.979,-0.374 16.099,0.398C12.219,1.17 8.656,3.074 5.859,5.871C4.001,7.73 2.527,9.936 1.522,12.365C0.517,14.793 0,17.396 0.002,20.024C0.003,22.652 0.523,25.254 1.531,27.681C2.538,30.108 4.014,32.313 5.875,34.169L15.925,43.999L6.001,43.999L6.001,47.999L34.001,47.999L34.001,43.999L24.077,43.999L34.143,34.153C36.006,32.301 37.483,30.097 38.488,27.67C39.494,25.243 40.008,22.64 40.001,20.013L40.001,20.013ZM30.001,25.235L20.001,30.235L10.001,25.235L10.001,12.763L20.001,7.763L30.001,12.763L30.001,25.235ZM20.001,17.999L26.001,14.999L26.001,22.763L20.001,25.763L14.001,22.763L14.001,14.999L20.001,17.999Z" fill="#374957"/>
</svg>
