<svg width="48" height="48" viewBox="0 0 48 48" fill="none" xmlns="http://www.w3.org/2000/svg" xmlns:xlink="http://www.w3.org/1999/xlink">
<path d="M18,24C20.373,24 22.693,23.296 24.667,21.978C26.64,20.659 28.178,18.785 29.087,16.592C29.995,14.4 30.232,11.987 29.769,9.659C29.306,7.331 28.164,5.193 26.485,3.515C24.807,1.836 22.669,0.694 20.341,0.231C18.013,-0.232 15.601,0.005 13.408,0.913C11.215,1.822 9.341,3.36 8.022,5.333C6.704,7.307 6,9.627 6,12C6.003,15.182 7.268,18.232 9.518,20.482C11.768,22.732 14.818,23.997 18,24ZM18,4C19.582,4 21.129,4.469 22.445,5.348C23.76,6.227 24.786,7.477 25.391,8.939C25.997,10.4 26.155,12.009 25.846,13.561C25.538,15.113 24.776,16.538 23.657,17.657C22.538,18.776 21.113,19.538 19.561,19.846C18.009,20.155 16.4,19.997 14.939,19.391C13.477,18.786 12.227,17.76 11.348,16.445C10.469,15.129 10,13.582 10,12C10,9.878 10.843,7.843 12.343,6.343C13.843,4.843 15.878,4 18,4L18,4ZM36,38L36,48L32,48L32,38C32,36.409 31.368,34.883 30.243,33.757C29.117,32.632 27.591,32 26,32L10,32C8.409,32 6.883,32.632 5.757,33.757C4.632,34.883 4,36.409 4,38L4,48L0,48L0,38C0.003,35.349 1.058,32.807 2.932,30.932C4.807,29.058 7.349,28.003 10,28L26,28C28.651,28.003 31.193,29.058 33.068,30.932C34.942,32.807 35.997,35.349 36,38ZM42.828,20L47.914,25.086L45.086,27.914L40,22.828L34.914,27.914L32.086,25.086L37.172,20L32.086,14.914L34.914,12.086L40,17.172L45.086,12.086L47.914,14.914L42.828,20Z" fill="#374957"/>
</svg>
