<svg width="48" height="48" viewBox="0 0 48 48" fill="none" xmlns="http://www.w3.org/2000/svg" xmlns:xlink="http://www.w3.org/1999/xlink">
<path d="M48,42.484L48,48L44,48L44,42.484C44,41.201 43.619,39.948 42.906,38.882C42.194,37.815 41.181,36.985 39.996,36.494C38.811,36.003 37.507,35.875 36.249,36.125C34.991,36.376 33.835,36.993 32.928,37.9L26.928,43.9C25.632,45.204 24.089,46.238 22.39,46.942C20.691,47.646 18.87,48.005 17.03,48L6.244,48C5.01,48 3.802,47.635 2.776,46.949C1.749,46.263 0.948,45.288 0.476,44.148C0.003,43.007 -0.121,41.752 0.12,40.541C0.361,39.33 0.955,38.217 1.828,37.344L2.44,36.732C2.019,35.746 1.902,34.656 2.104,33.603C2.307,32.55 2.819,31.582 3.576,30.822L15.576,18.822C16.139,20.062 16.866,21.22 17.738,22.266C19.22,24.036 21.067,25.465 23.152,26.454L11.178,38.424C10.42,39.185 9.451,39.7 8.397,39.903C7.342,40.106 6.251,39.988 5.264,39.564L4.664,40.164C4.348,40.477 4.132,40.877 4.044,41.312C3.955,41.748 3.999,42.201 4.168,42.612C4.337,43.023 4.625,43.375 4.995,43.622C5.365,43.869 5.8,44.001 6.244,44L17.03,44C18.344,44.003 19.645,43.746 20.859,43.243C22.073,42.74 23.174,42.002 24.1,41.07L30.1,35.07C31.567,33.604 33.435,32.605 35.469,32.201C37.503,31.796 39.611,32.004 41.527,32.798C43.443,33.591 45.081,34.935 46.233,36.659C47.385,38.383 48,40.41 48,42.484L48,42.484ZM30,24C32.374,24 34.694,23.296 36.667,21.978C38.641,20.659 40.179,18.785 41.087,16.592C41.995,14.4 42.233,11.987 41.77,9.659C41.307,7.331 40.164,5.193 38.486,3.515C36.808,1.836 34.669,0.694 32.342,0.231C30.014,-0.232 27.601,0.005 25.408,0.913C23.216,1.822 21.341,3.36 20.023,5.333C18.704,7.307 18,9.627 18,12C18,15.183 19.265,18.235 21.515,20.485C23.766,22.736 26.818,24 30,24Z" fill="#374957"/>
</svg>
