<svg width="48" height="48" viewBox="0 0 48 48" fill="none" xmlns="http://www.w3.org/2000/svg" xmlns:xlink="http://www.w3.org/1999/xlink">
<path d="M48.001,23.968C48.001,21.861 47.17,19.839 45.688,18.341C44.206,16.843 42.194,15.991 40.087,15.968C38.333,12.476 35.497,9.645 32.001,7.898C31.898,5.848 31.012,3.916 29.524,2.501C28.037,1.087 26.063,0.298 24.011,0.298C21.958,0.298 19.984,1.087 18.497,2.501C17.01,3.916 16.123,5.848 16.021,7.898C12.516,9.643 9.672,12.478 7.915,15.976C5.818,16.005 3.816,16.857 2.341,18.349C0.867,19.84 0.038,21.852 0.034,23.949C0.03,26.047 0.851,28.061 2.319,29.559C3.787,31.057 5.786,31.917 7.883,31.954C9.633,35.482 12.487,38.343 16.011,40.102C16.113,42.152 17,44.084 18.487,45.499C19.974,46.913 21.948,47.702 24.001,47.702C26.053,47.702 28.027,46.913 29.514,45.499C31.002,44.084 31.888,42.152 31.991,40.102C35.515,38.343 38.369,35.482 40.119,31.954C42.218,31.923 44.22,31.068 45.695,29.574C47.169,28.081 47.997,26.067 48.001,23.968ZM24.001,4C24.792,4 25.565,4.235 26.223,4.674C26.881,5.114 27.394,5.738 27.696,6.469C27.999,7.2 28.078,8.004 27.924,8.78C27.77,9.556 27.389,10.269 26.829,10.828C26.27,11.388 25.557,11.769 24.781,11.923C24.005,12.077 23.201,11.998 22.47,11.695C21.739,11.393 21.114,10.88 20.675,10.222C20.235,9.564 20.001,8.791 20.001,8C20.001,6.939 20.422,5.922 21.172,5.172C21.923,4.421 22.94,4 24.001,4ZM4.001,23.968C4.001,23.177 4.235,22.403 4.675,21.746C5.114,21.088 5.739,20.575 6.47,20.272C7.201,19.97 8.005,19.89 8.781,20.045C9.557,20.199 10.27,20.58 10.829,21.139C11.389,21.699 11.77,22.412 11.924,23.188C12.078,23.963 11.999,24.768 11.696,25.499C11.394,26.23 10.881,26.854 10.223,27.294C9.565,27.733 8.792,27.968 8.001,27.968C6.94,27.968 5.922,27.546 5.172,26.796C4.422,26.046 4.001,25.029 4.001,23.968ZM24.001,44C23.21,44 22.436,43.765 21.779,43.326C21.121,42.886 20.608,42.262 20.305,41.531C20.003,40.8 19.923,39.995 20.078,39.22C20.232,38.444 20.613,37.731 21.172,37.171C21.732,36.612 22.445,36.231 23.22,36.077C23.996,35.922 24.801,36.002 25.532,36.304C26.262,36.607 26.887,37.12 27.327,37.778C27.766,38.435 28.001,39.209 28.001,40C28.001,41.061 27.579,42.078 26.829,42.828C26.079,43.578 25.062,44 24.001,44ZM30.957,36.122C30.274,34.874 29.268,33.833 28.044,33.108C26.82,32.382 25.423,32 24.001,32C22.578,32 21.182,32.382 19.958,33.108C18.734,33.833 17.728,34.874 17.045,36.122C14.89,34.875 13.103,33.081 11.865,30.922C13.114,30.241 14.157,29.237 14.885,28.015C15.613,26.792 15.999,25.397 16.002,23.974C16.005,22.551 15.625,21.154 14.903,19.928C14.18,18.703 13.141,17.694 11.895,17.008C13.132,14.874 14.908,13.101 17.045,11.868C17.728,13.116 18.734,14.157 19.958,14.882C21.182,15.608 22.578,15.99 24.001,15.99C25.423,15.99 26.82,15.608 28.044,14.882C29.268,14.157 30.274,13.116 30.957,11.868C33.093,13.101 34.869,14.874 36.107,17.008C34.86,17.694 33.822,18.703 33.099,19.928C32.376,21.154 31.997,22.551 32,23.974C32.003,25.397 32.389,26.792 33.116,28.015C33.844,29.237 34.888,30.241 36.137,30.922C34.899,33.081 33.112,34.875 30.957,36.122ZM40.001,27.966C39.21,27.966 38.436,27.731 37.779,27.292C37.121,26.852 36.608,26.228 36.305,25.497C36.003,24.766 35.923,23.961 36.078,23.186C36.232,22.41 36.613,21.697 37.172,21.137C37.732,20.578 38.445,20.197 39.22,20.043C39.996,19.888 40.801,19.968 41.532,20.27C42.262,20.573 42.887,21.086 43.327,21.744C43.766,22.401 44.001,23.175 44.001,23.966C44.001,25.027 43.579,26.044 42.829,26.794C42.079,27.544 41.062,27.966 40.001,27.966Z" fill="#374957"/>
</svg>
