<svg width="50" height="48" viewBox="0 0 50 48" fill="none" xmlns="http://www.w3.org/2000/svg" xmlns:xlink="http://www.w3.org/1999/xlink">
<path d="M4.014,47.998L0.014,47.998L0.014,31.998C0.017,27.228 1.913,22.654 5.285,19.279C8.657,15.905 13.229,14.006 18,13.998L27.686,13.69L27.686,0.862L46.26,19.448C47.384,20.573 48.016,22.099 48.016,23.69C48.016,25.281 47.384,26.807 46.26,27.932L27.69,46.518L27.69,33.69L18,33.998C14.29,34.005 10.735,35.483 8.113,38.107C5.491,40.732 4.017,44.289 4.014,47.998L4.014,47.998ZM18.014,29.998L31.698,29.69L31.698,36.862L43.446,25.104C43.821,24.729 44.031,24.221 44.031,23.69C44.031,23.16 43.821,22.651 43.446,22.276L31.688,10.518L31.688,17.69L18,17.998C14.288,18.001 10.729,19.477 8.104,22.102C5.479,24.727 4.003,28.286 4,31.998L4,36.696C5.684,34.604 7.816,32.916 10.239,31.757C12.662,30.598 15.314,29.997 18,29.998L18.014,29.998Z" fill="#374957"/>
</svg>
