<svg width="48" height="48" viewBox="0 0 48 48" fill="none" xmlns="http://www.w3.org/2000/svg" xmlns:xlink="http://www.w3.org/1999/xlink">
<path d="M45.88,2.117C44.52,0.76 42.677,-0.003 40.756,-0.003C38.835,-0.003 36.992,0.76 35.632,2.117L0,37.749L0,47.997L10.248,47.997L45.88,12.365C47.237,11.005 47.999,9.162 47.999,7.241C47.999,5.32 47.237,3.477 45.88,2.117L45.88,2.117ZM8.6,43.997L4,43.997L4,39.397L30.62,12.797L35.22,17.397L8.6,43.997ZM43.052,9.537L38.038,14.551L33.448,9.951L38.46,4.945C39.07,4.335 39.897,3.993 40.76,3.993C41.623,3.993 42.45,4.335 43.06,4.945C43.67,5.555 44.013,6.383 44.013,7.245C44.013,8.108 43.67,8.935 43.06,9.545L43.052,9.537Z" fill="#374957"/>
</svg>
