<svg width="48" height="44" viewBox="0 0 48 44" fill="none" xmlns="http://www.w3.org/2000/svg" xmlns:xlink="http://www.w3.org/1999/xlink">
<path d="M30,33.999L0,33.999L0,5.999C0,4.407 0.632,2.881 1.757,1.756C2.883,0.631 4.409,-0.001 6,-0.001L24,-0.001C25.591,-0.001 27.117,0.631 28.243,1.756C29.368,2.881 30,4.407 30,5.999L30,33.999ZM34,33.999L48,33.999L48,23.999L34,23.999L34,33.999ZM38,7.999L34,7.999L34,19.999L48,19.999L48,17.999C47.997,15.348 46.942,12.806 45.068,10.931C43.193,9.057 40.651,8.002 38,7.999L38,7.999ZM6.116,37.999C6.043,38.327 6.004,38.662 6,38.999C6,40.325 6.527,41.597 7.464,42.534C8.402,43.472 9.674,43.999 11,43.999C12.326,43.999 13.598,43.472 14.536,42.534C15.473,41.597 16,40.325 16,38.999C15.996,38.662 15.957,38.327 15.884,37.999L6.116,37.999ZM34.116,37.999C34.043,38.327 34.004,38.662 34,38.999C34,40.325 34.527,41.597 35.464,42.534C36.402,43.472 37.674,43.999 39,43.999C40.326,43.999 41.598,43.472 42.536,42.534C43.473,41.597 44,40.325 44,38.999C43.996,38.662 43.957,38.327 43.884,37.999L34.116,37.999Z" fill="#374957"/>
</svg>
