<svg width="48" height="48" viewBox="0 0 48 48" fill="none" xmlns="http://www.w3.org/2000/svg" xmlns:xlink="http://www.w3.org/1999/xlink">
<path d="M29.4,28L23.4,32L0,32L0,48L28,48C30.626,48 33.227,47.483 35.654,46.478C38.08,45.472 40.285,43.999 42.142,42.142C43.999,40.285 45.472,38.08 46.478,35.654C47.483,33.227 48,30.626 48,28L29.4,28ZM6,42C5.604,42 5.218,41.883 4.889,41.663C4.56,41.443 4.304,41.131 4.152,40.765C4.001,40.4 3.961,39.998 4.038,39.61C4.116,39.222 4.306,38.865 4.586,38.586C4.865,38.306 5.222,38.116 5.61,38.038C5.998,37.961 6.4,38.001 6.765,38.152C7.131,38.304 7.443,38.56 7.663,38.889C7.883,39.218 8,39.604 8,40C8,40.53 7.789,41.039 7.414,41.414C7.039,41.789 6.53,42 6,42ZM14,42C13.604,42 13.218,41.883 12.889,41.663C12.56,41.443 12.304,41.131 12.152,40.765C12.001,40.4 11.961,39.998 12.038,39.61C12.116,39.222 12.306,38.865 12.586,38.586C12.865,38.306 13.222,38.116 13.61,38.038C13.998,37.961 14.4,38.001 14.765,38.152C15.131,38.304 15.443,38.56 15.663,38.889C15.883,39.218 16,39.604 16,40C16,40.53 15.789,41.039 15.414,41.414C15.039,41.789 14.53,42 14,42ZM22,42C21.604,42 21.218,41.883 20.889,41.663C20.56,41.443 20.304,41.131 20.152,40.765C20.001,40.4 19.961,39.998 20.038,39.61C20.116,39.222 20.306,38.865 20.586,38.586C20.865,38.306 21.222,38.116 21.61,38.038C21.998,37.961 22.4,38.001 22.765,38.152C23.131,38.304 23.443,38.56 23.663,38.889C23.883,39.218 24,39.604 24,40C24,40.53 23.789,41.039 23.414,41.414C23.039,41.789 22.53,42 22,42ZM20,22L20,18L0,18L0,12L23.56,12C25.879,12.004 28.126,12.809 29.92,14.278C33.117,16.963 35.734,20.271 37.612,24L28.184,24L22.184,28L0,28L0,22L20,22ZM4.166,8L2.058,0L14,0L16.112,8L4.166,8Z" fill="#374957"/>
</svg>
