<svg width="48" height="48" viewBox="0 0 48 48" fill="none" xmlns="http://www.w3.org/2000/svg" xmlns:xlink="http://www.w3.org/1999/xlink">
<path d="M30.134,32C43.312,31.946 48,24.976 48,19C47.999,17.402 47.45,15.852 46.446,14.608C45.442,13.364 44.042,12.502 42.48,12.164C43.058,10.538 43.526,8.875 43.88,7.186C44.058,6.321 44.04,5.428 43.828,4.571C43.615,3.714 43.214,2.916 42.654,2.234C42.086,1.535 41.37,0.972 40.557,0.585C39.744,0.199 38.854,-0.001 37.954,0L10.046,0C9.145,-0.001 8.256,0.198 7.442,0.585C6.629,0.971 5.912,1.535 5.344,2.234C4.784,2.916 4.383,3.714 4.17,4.571C3.958,5.428 3.94,6.321 4.118,7.186C4.471,8.875 4.939,10.538 5.518,12.164C3.956,12.502 2.557,13.365 1.553,14.609C0.549,15.852 0.001,17.402 0,19C0,24.976 4.688,31.946 17.866,32C17.941,32.421 17.986,32.847 18,33.274L18,40C18.034,40.534 17.954,41.07 17.766,41.57C17.577,42.071 17.283,42.526 16.905,42.905C16.526,43.283 16.071,43.577 15.57,43.766C15.07,43.954 14.534,44.034 14,44L10,44L10,48L38,48L38,44L34.016,44C33.481,44.036 32.944,43.958 32.441,43.769C31.939,43.581 31.482,43.288 31.102,42.91C30.722,42.531 30.427,42.076 30.237,41.574C30.047,41.072 29.966,40.535 30,40L30,33.274C30.014,32.847 30.059,32.421 30.134,32ZM41,16C41.796,16 42.559,16.316 43.121,16.879C43.684,17.441 44,18.204 44,19C44,23.096 40.738,27.45 31.752,27.95C32.106,27.485 32.514,27.065 32.968,26.698C36.378,23.772 39.084,20.116 40.886,16L41,16ZM4,19C4,18.204 4.316,17.441 4.879,16.879C5.441,16.316 6.204,16 7,16L7.114,16C8.915,20.116 11.62,23.773 15.03,26.698C15.485,27.065 15.894,27.485 16.248,27.95C7.262,27.45 4,23.096 4,19ZM26,33.274L26,40C25.977,41.395 26.313,42.772 26.974,44L21.026,44C21.687,42.772 22.023,41.395 22,40L22,33.274C22.034,31.424 21.649,29.591 20.875,27.911C20.101,26.231 18.956,24.748 17.528,23.572C12.6,19.632 9.2,12.1 8.036,6.38C7.976,6.098 7.981,5.805 8.05,5.525C8.12,5.245 8.252,4.984 8.436,4.762C8.63,4.523 8.876,4.33 9.154,4.198C9.433,4.066 9.738,3.998 10.046,4L37.954,4C38.261,4 38.563,4.068 38.84,4.2C39.117,4.332 39.361,4.524 39.554,4.762C39.738,4.984 39.869,5.245 39.939,5.525C40.008,5.805 40.013,6.098 39.954,6.38C38.782,12.1 35.39,19.632 30.46,23.58C29.035,24.756 27.894,26.239 27.122,27.917C26.35,29.596 25.966,31.427 26,33.274L26,33.274Z" fill="#374957"/>
</svg>
