<svg width="48" height="48" viewBox="0 0 48 48" fill="none" xmlns="http://www.w3.org/2000/svg" xmlns:xlink="http://www.w3.org/1999/xlink">
<path d="M48,48L36,48L36,44L44,44L44,36L48,36L48,48ZM48,6C48,4.409 47.368,2.883 46.243,1.757C45.117,0.632 43.591,0 42,0L36,0L36,4L42,4C42.53,4 43.039,4.211 43.414,4.586C43.789,4.961 44,5.47 44,6L44,12L48,12L48,6ZM12,44L4,44L4,36L0,36L0,48L12,48L12,44ZM4,6C4,5.47 4.211,4.961 4.586,4.586C4.961,4.211 5.47,4 6,4L12,4L12,0L6,0C4.409,0 2.883,0.632 1.757,1.757C0.632,2.883 0,4.409 0,6L0,12L4,12L4,6ZM32,24C32,22.418 31.531,20.871 30.652,19.555C29.773,18.24 28.523,17.214 27.061,16.609C25.6,16.003 23.991,15.845 22.439,16.154C20.887,16.462 19.462,17.224 18.343,18.343C17.224,19.462 16.462,20.887 16.154,22.439C15.845,23.991 16.003,25.6 16.609,27.061C17.214,28.523 18.24,29.773 19.555,30.652C20.871,31.531 22.418,32 24,32C26.122,32 28.157,31.157 29.657,29.657C31.157,28.157 32,26.122 32,24Z" fill="#374957"/>
</svg>
