<svg width="48" height="48" viewBox="0 0 48 48" fill="none" xmlns="http://www.w3.org/2000/svg" xmlns:xlink="http://www.w3.org/1999/xlink">
<path d="M2.719,12.72C3.469,11.312 4.357,9.982 5.369,8.748L8.401,11.362C7.596,12.348 6.886,13.409 6.281,14.528L2.719,12.72ZM0.919,17.104C0.46,18.635 0.155,20.208 0.011,21.8L3.991,22.2C4.11,20.883 4.36,19.58 4.737,18.312L0.919,17.104ZM12.689,2.786C11.312,3.517 10.01,4.38 8.801,5.362L11.283,8.488C12.306,7.657 13.409,6.929 14.575,6.314L12.689,2.786ZM21.727,0.11C20.157,0.253 18.605,0.551 17.095,1L18.229,4.834C19.488,4.462 20.781,4.215 22.089,4.098L21.727,0.11ZM2.719,35.28C3.469,36.688 4.357,38.019 5.369,39.252L8.401,36.638C7.596,35.652 6.886,34.592 6.281,33.472L2.719,35.28ZM4.737,29.708C4.363,28.44 4.117,27.137 4.001,25.82L0.021,26.22C0.165,27.809 0.469,29.378 0.927,30.906L4.737,29.708ZM14.575,41.686C13.409,41.072 12.306,40.343 11.283,39.512L8.801,42.638C10.013,43.621 11.318,44.484 12.697,45.214L14.575,41.686ZM22.089,43.908C20.781,43.791 19.488,43.544 18.229,43.172L17.095,47C18.606,47.447 20.157,47.744 21.727,47.884L22.089,43.908ZM41.519,33.578C40.915,34.699 40.206,35.759 39.401,36.744L42.435,39.358C43.448,38.126 44.336,36.795 45.085,35.386L41.519,33.578ZM46.887,31C47.345,29.472 47.648,27.903 47.793,26.314L43.813,25.914C43.694,27.232 43.444,28.535 43.067,29.804L46.887,31ZM35.115,45.32C36.494,44.59 37.799,43.727 39.011,42.744L36.521,39.62C35.497,40.453 34.395,41.183 33.229,41.8L35.115,45.32ZM26.077,48C27.646,47.859 29.198,47.563 30.709,47.116L29.575,43.28C28.316,43.653 27.023,43.9 25.715,44.018L26.077,48ZM39.761,22C40.167,25.225 39.582,28.497 38.082,31.381C36.583,34.265 34.24,36.624 31.367,38.144C28.494,39.664 25.225,40.272 21.998,39.888C18.77,39.505 15.736,38.147 13.299,35.996C10.862,33.845 9.137,31.003 8.356,27.848C7.574,24.693 7.772,21.374 8.923,18.335C10.074,15.295 12.123,12.678 14.799,10.831C17.474,8.985 20.648,7.998 23.899,8C24.562,8.004 25.224,8.05 25.881,8.136L25.899,8.136L25.899,0.102C31.546,0.581 36.843,3.042 40.851,7.05C44.859,11.057 47.321,16.353 47.801,22L39.761,22ZM33.899,22L27.345,22C26.996,21.401 26.498,20.903 25.899,20.554L25.899,12L21.899,12L21.899,20.554C21.368,20.86 20.915,21.283 20.575,21.792C20.234,22.3 20.015,22.881 19.935,23.487C19.855,24.094 19.915,24.711 20.112,25.291C20.309,25.871 20.636,26.397 21.069,26.83C21.502,27.263 22.028,27.59 22.608,27.787C23.188,27.984 23.805,28.044 24.412,27.964C25.018,27.884 25.599,27.665 26.107,27.324C26.616,26.984 27.039,26.531 27.345,26L33.899,26L33.899,22Z" fill="#374957"/>
</svg>
