<svg width="48" height="50" viewBox="0 0 48 50" fill="none" xmlns="http://www.w3.org/2000/svg" xmlns:xlink="http://www.w3.org/1999/xlink">
<path d="M26,0C13.87,0 4,8.074 4,18C4.006,18.751 4.068,19.501 4.188,20.242C4.152,20.276 4.11,20.298 4.074,20.334C2.771,21.641 1.961,23.36 1.782,25.197C1.604,27.034 2.067,28.876 3.094,30.41C1.025,32.786 -0.079,35.851 0,39C-0.035,40.191 0.174,41.377 0.614,42.485C1.053,43.593 1.715,44.599 2.558,45.442C3.401,46.285 4.407,46.947 5.515,47.387C6.623,47.826 7.809,48.035 9,48C9.787,47.999 10.542,47.688 11.1,47.133C11.658,46.578 11.973,45.825 11.978,45.038C11.984,44.247 11.679,43.485 11.129,42.917C10.578,42.349 9.827,42.019 9.036,42C8.63,42.043 8.219,41.996 7.834,41.861C7.448,41.726 7.097,41.507 6.807,41.22C6.516,40.933 6.293,40.585 6.153,40.201C6.014,39.817 5.962,39.407 6,39C5.957,37.957 6.155,36.918 6.579,35.964C7.003,35.01 7.641,34.167 8.444,33.5C10.589,33.879 12.766,34.055 14.944,34.026C15.28,34.026 15.594,34.006 15.928,34C19.12,35.325 22.544,36.005 26,36C38.13,36 48,27.926 48,18C48,8.074 38.13,0 26,0ZM26,30C24.151,29.995 22.311,29.741 20.53,29.246C19.223,26.051 17.48,23.052 15.35,20.336C13.924,18.917 12.011,18.093 10,18.032L10,18C10,11.382 17.178,6 26,6C34.822,6 42,11.382 42,18C42,24.618 34.822,30 26,30Z" fill="#374957"/>
</svg>
