<svg width="48" height="48" viewBox="0 0 48 48" fill="none" xmlns="http://www.w3.org/2000/svg" xmlns:xlink="http://www.w3.org/1999/xlink">
<path d="M45.534,16.784L31.07,2.928C29.2,1.058 26.665,0.006 24.021,0C21.377,-0.006 18.838,1.036 16.96,2.898L2.466,16.784C1.688,17.532 1.069,18.429 0.645,19.421C0.222,20.413 0.002,21.481 0,22.56L0,48L48,48L48,22.56C47.998,21.481 47.778,20.413 47.355,19.421C46.931,18.429 46.312,17.532 45.534,16.784L45.534,16.784ZM19.758,5.756C20.904,4.656 22.434,4.044 24.022,4.05C25.611,4.056 27.136,4.679 28.274,5.788L41.77,18.716L28.242,32.244C27.099,33.334 25.58,33.942 24,33.942C22.42,33.942 20.901,33.334 19.758,32.244L6.23,18.716L19.758,5.756ZM44,44L4,44L4,22.56C4,22.432 4.026,22.308 4.038,22.18L16.93,35.072C18.805,36.947 21.348,38 24,38C26.652,38 29.195,36.947 31.07,35.072L43.962,22.18C43.974,22.308 44,22.432 44,22.56L44,44Z" fill="#374957"/>
</svg>
