<svg width="48" height="48" viewBox="0 0 48 48" fill="none" xmlns="http://www.w3.org/2000/svg" xmlns:xlink="http://www.w3.org/1999/xlink">
<path d="M45.07,14.648L47.93,11.848L36.43,0.102L33.57,2.902L38.082,7.502L33.724,11.584L31.9,9.758C31.343,9.201 30.681,8.759 29.953,8.457C29.225,8.156 28.445,8 27.657,8C26.869,8 26.089,8.156 25.361,8.457C24.633,8.759 23.971,9.201 23.414,9.758L6,27.172L6,39.172L0.086,45.086L2.914,47.914L8.828,42L20.828,42L38.242,24.586C38.799,24.029 39.241,23.367 39.543,22.639C39.844,21.911 40,21.131 40,20.343C40,19.555 39.844,18.775 39.543,18.047C39.241,17.319 38.799,16.657 38.242,16.1L36.554,14.414L40.88,10.368L45.07,14.648ZM35.414,21.758L19.172,38L10,38L10,30.578L13.836,34.414L16.664,31.586L11.954,26.876L15.126,23.704L19.836,28.414L22.664,25.586L17.954,20.876L21.126,17.704L25.836,22.414L28.664,19.586L23.954,14.876L26.242,12.586C26.428,12.4 26.648,12.253 26.891,12.152C27.134,12.051 27.394,11.999 27.657,11.999C27.92,11.999 28.18,12.051 28.423,12.152C28.666,12.253 28.886,12.4 29.072,12.586L35.414,18.928C35.6,19.114 35.747,19.334 35.848,19.577C35.949,19.82 36.001,20.08 36.001,20.343C36.001,20.606 35.949,20.866 35.848,21.109C35.747,21.352 35.6,21.572 35.414,21.758L35.414,21.758Z" fill="#374957"/>
</svg>
