<svg width="48" height="48" viewBox="0 0 48 48" fill="none" xmlns="http://www.w3.org/2000/svg" xmlns:xlink="http://www.w3.org/1999/xlink">
<path d="M41,12.4L36,12.4L36,12C36,8.817 34.736,5.765 32.485,3.515C30.235,1.264 27.183,0 24,0C20.817,0 17.765,1.264 15.515,3.515C13.264,5.765 12,8.817 12,12L12,12.4L7,12.4C5.15,12.422 3.383,13.167 2.075,14.475C0.767,15.783 0.022,17.55 0,19.4L0,37C0.026,39.909 1.193,42.693 3.25,44.75C5.307,46.807 8.091,47.974 11,48L37,48C39.909,47.974 42.693,46.807 44.75,44.75C46.807,42.693 47.974,39.909 48,37L48,19.4C47.978,17.55 47.233,15.783 45.925,14.475C44.617,13.167 42.85,12.422 41,12.4L41,12.4ZM18,12C18,10.409 18.632,8.883 19.757,7.757C20.883,6.632 22.409,6 24,6C25.591,6 27.117,6.632 28.243,7.757C29.368,8.883 30,10.409 30,12L30,12.4L18,12.4L18,12ZM42,37C42.006,37.658 41.881,38.311 41.632,38.921C41.383,39.531 41.015,40.084 40.55,40.55C40.084,41.015 39.531,41.383 38.921,41.632C38.311,41.881 37.658,42.006 37,42L11,42C10.342,42.006 9.689,41.881 9.079,41.632C8.469,41.383 7.916,41.015 7.45,40.55C6.985,40.084 6.617,39.531 6.368,38.921C6.119,38.311 5.994,37.658 6,37L6,19.4C5.992,19.267 6.012,19.133 6.059,19.008C6.107,18.883 6.18,18.769 6.275,18.675C6.369,18.58 6.483,18.507 6.608,18.459C6.733,18.412 6.867,18.392 7,18.4L12,18.4L12,21C12,21.796 12.316,22.559 12.879,23.121C13.441,23.684 14.204,24 15,24C15.796,24 16.559,23.684 17.121,23.121C17.684,22.559 18,21.796 18,21L18,18.4L30,18.4L30,21C30,21.796 30.316,22.559 30.879,23.121C31.441,23.684 32.204,24 33,24C33.796,24 34.559,23.684 35.121,23.121C35.684,22.559 36,21.796 36,21L36,18.4L41,18.4C41.133,18.392 41.267,18.412 41.392,18.459C41.517,18.507 41.631,18.58 41.725,18.675C41.82,18.769 41.893,18.883 41.941,19.008C41.988,19.133 42.008,19.267 42,19.4L42,37Z" fill="#374957"/>
</svg>
