<svg width="48" height="46" viewBox="0 0 48 46" fill="none" xmlns="http://www.w3.org/2000/svg" xmlns:xlink="http://www.w3.org/1999/xlink">
<path d="M48,38.502L48,46L32,46L32,36.51C29.401,35.539 26.654,35.028 23.88,35C21.184,35.006 18.513,35.511 16,36.488L16,46L0,46L0,38.5C0.003,37.089 0.286,35.693 0.833,34.392C1.38,33.092 2.18,31.913 3.186,30.924C7.482,26.628 15.26,24.042 24,24C32.728,24.026 40.384,26.482 44.824,30.924C45.829,31.914 46.627,33.094 47.172,34.395C47.717,35.695 47.998,37.092 48,38.502L48,38.502ZM10,6.778L21.856,18.676C22.267,19.091 22.757,19.42 23.297,19.645C23.837,19.869 24.416,19.983 25,19.982L25,19.982C25.583,19.984 26.162,19.871 26.701,19.647C27.24,19.424 27.729,19.096 28.14,18.682L41.908,4.914L39.086,2.086L25.318,15.854C25.277,15.895 25.228,15.927 25.175,15.949C25.121,15.971 25.064,15.983 25.006,15.982L25.006,15.982C24.948,15.982 24.89,15.971 24.836,15.949C24.782,15.926 24.733,15.893 24.692,15.852L12.878,4L20,4L20,0L11,0C9.682,-0.006 8.415,0.51 7.478,1.437C6.54,2.364 6.009,3.624 6,4.942L6,14L10,14L10,6.778Z" fill="#374957"/>
</svg>
