<svg width="48" height="50" viewBox="0 0 48 50" fill="none" xmlns="http://www.w3.org/2000/svg" xmlns:xlink="http://www.w3.org/1999/xlink">
<path d="M48,19.848L48,37C47.997,39.916 46.837,42.712 44.775,44.775C42.712,46.837 39.916,47.997 37,48C36.204,48 35.441,47.684 34.879,47.121C34.316,46.559 34,45.795 34,45C34,44.204 34.316,43.441 34.879,42.879C35.441,42.316 36.204,42 37,42C38.326,42 39.598,41.473 40.536,40.535C41.473,39.598 42,38.326 42,37L42,19.848C42.001,19.03 41.8,18.224 41.417,17.501C41.033,16.778 40.478,16.16 39.8,15.702L26.6,6.8C25.835,6.28 24.932,6.002 24.007,6.002C23.082,6.002 22.179,6.28 21.414,6.8L8.2,15.702C7.522,16.16 6.967,16.778 6.583,17.501C6.2,18.224 5.999,19.03 6,19.848L6,37C6,38.326 6.527,39.598 7.464,40.535C8.402,41.473 9.674,42 11,42C11.796,42 12.559,42.316 13.121,42.879C13.684,43.441 14,44.204 14,45C14,45.795 13.684,46.559 13.121,47.121C12.559,47.684 11.796,48 11,48C8.084,47.997 5.288,46.837 3.225,44.775C1.163,42.712 0.003,39.916 0,37L0,19.848C0,18.047 0.441,16.274 1.286,14.684C2.131,13.094 3.353,11.735 4.846,10.728L18.05,1.82C19.805,0.626 21.878,-0.012 24,-0.012C26.122,-0.012 28.195,0.626 29.95,1.82L43.15,10.728C44.643,11.735 45.866,13.093 46.712,14.683C47.558,16.273 48,18.047 48,19.848ZM38,30C38.005,31.839 37.646,33.661 36.942,35.36C36.238,37.059 35.204,38.601 33.9,39.898L26.714,46.928C25.991,47.64 25.017,48.039 24.002,48.039C22.987,48.039 22.013,47.64 21.29,46.928L14.124,39.922C12.491,38.297 11.285,36.294 10.611,34.091C9.938,31.887 9.819,29.552 10.264,27.292C10.71,25.032 11.706,22.916 13.165,21.133C14.624,19.35 16.5,17.955 18.628,17.071C20.755,16.187 23.068,15.841 25.36,16.065C27.653,16.289 29.855,17.075 31.772,18.354C33.688,19.633 35.259,21.365 36.345,23.396C37.432,25.428 38,27.696 38,30L38,30ZM32,30C32,28.684 31.675,27.389 31.055,26.229C30.435,25.069 29.539,24.079 28.445,23.348C27.351,22.618 26.094,22.168 24.785,22.039C23.475,21.91 22.155,22.106 20.939,22.609C19.724,23.112 18.651,23.907 17.817,24.924C16.982,25.941 16.411,27.148 16.154,28.438C15.897,29.728 15.962,31.062 16.344,32.321C16.726,33.58 17.412,34.725 18.342,35.656L24,41.2L29.68,35.642C30.42,34.901 31.006,34.021 31.405,33.053C31.803,32.085 32.005,31.047 32,30L32,30ZM24,26C23.209,26 22.436,26.234 21.778,26.674C21.12,27.113 20.607,27.738 20.304,28.469C20.002,29.2 19.923,30.004 20.077,30.78C20.231,31.556 20.612,32.269 21.172,32.828C21.731,33.388 22.444,33.769 23.22,33.923C23.996,34.077 24.8,33.998 25.531,33.695C26.262,33.393 26.886,32.88 27.326,32.222C27.765,31.564 28,30.791 28,30C28,28.939 27.579,27.922 26.828,27.171C26.078,26.421 25.061,26 24,26Z" fill="#374957"/>
</svg>
