<svg width="50" height="48" viewBox="0 0 50 48" fill="none" xmlns="http://www.w3.org/2000/svg" xmlns:xlink="http://www.w3.org/1999/xlink">
<path d="M38.84,17.184C38.947,16.461 39.001,15.731 39,15C39,11.022 37.42,7.206 34.607,4.393C31.794,1.58 27.979,0 24,0C20.022,0 16.207,1.58 13.394,4.393C10.581,7.206 9,11.022 9,15C9,15.731 9.053,16.461 9.16,17.184C7.204,18.011 5.446,19.243 4.001,20.8C2.557,22.358 1.46,24.204 0.783,26.217C0.105,28.229 -0.137,30.363 0.072,32.477C0.281,34.59 0.936,36.635 1.995,38.477C3.053,40.318 4.49,41.913 6.212,43.158C7.933,44.402 9.899,45.266 11.979,45.694C14.059,46.121 16.207,46.102 18.279,45.638C20.351,45.174 22.301,44.274 24,43C25.698,44.284 27.649,45.192 29.725,45.664C31.801,46.136 33.953,46.161 36.039,45.736C38.124,45.312 40.096,44.449 41.823,43.204C43.549,41.959 44.991,40.361 46.052,38.516C47.114,36.671 47.77,34.621 47.978,32.503C48.186,30.385 47.941,28.246 47.259,26.23C46.576,24.214 45.473,22.366 44.022,20.809C42.57,19.252 40.804,18.022 38.84,17.2L38.84,17.184ZM24,6C26.387,6.003 28.674,6.952 30.361,8.639C32.049,10.326 32.998,12.614 33,15C33,15.334 32.981,15.668 32.944,16C29.717,16.007 26.579,17.059 24,19C21.422,17.059 18.284,16.007 15.056,16C15.02,15.668 15.001,15.334 15,15C15.003,12.614 15.952,10.326 17.639,8.639C19.327,6.952 21.614,6.003 24,6ZM6,31C6.002,29.284 6.493,27.604 7.417,26.158C8.341,24.711 9.658,23.559 11.214,22.836C12.854,25.501 15.281,27.591 18.16,28.816C17.669,32.153 18.317,35.557 20,38.48C18.646,39.385 17.07,39.906 15.443,39.986C13.815,40.066 12.196,39.703 10.759,38.935C9.322,38.167 8.12,37.023 7.282,35.626C6.444,34.228 6.001,32.63 6,31L6,31ZM33,40C31.22,40.003 29.478,39.473 28,38.48C29.684,35.557 30.332,32.153 29.84,28.816C32.72,27.591 35.147,25.501 36.786,22.836C38.646,23.699 40.155,25.17 41.064,27.007C41.974,28.844 42.229,30.937 41.787,32.939C41.346,34.94 40.234,36.731 38.636,38.015C37.038,39.299 35.05,40 33,40L33,40Z" fill="#374957"/>
</svg>
