<svg width="48" height="50" viewBox="0 0 48 50" fill="none" xmlns="http://www.w3.org/2000/svg" xmlns:xlink="http://www.w3.org/1999/xlink">
<path d="M42.98,5.019C39.765,1.81 35.408,0.007 30.865,0.007C26.322,0.007 21.965,1.81 18.75,5.019C14.274,9.497 12.624,19.085 12.03,26.337C11.916,27.896 12.214,29.457 12.894,30.865L6.694,37.065C6.215,36.622 5.636,36.303 5.005,36.135C4.375,35.967 3.713,35.957 3.078,36.103C2.442,36.25 1.852,36.55 1.359,36.977C0.866,37.404 0.485,37.945 0.249,38.552C0.013,39.16 -0.071,39.817 0.005,40.465C0.08,41.112 0.313,41.732 0.683,42.269C1.053,42.806 1.548,43.245 2.127,43.547C2.705,43.848 3.348,44.004 4,44.001C3.997,44.653 4.153,45.295 4.456,45.873C4.758,46.451 5.196,46.946 5.734,47.315C6.271,47.684 6.89,47.917 7.538,47.992C8.185,48.068 8.841,47.984 9.449,47.747C10.056,47.511 10.597,47.13 11.024,46.637C11.451,46.145 11.75,45.555 11.897,44.92C12.044,44.285 12.033,43.623 11.866,42.993C11.699,42.363 11.38,41.783 10.938,41.305L17.122,35.121C18.533,35.801 20.1,36.095 21.662,35.971C28.918,35.371 38.506,33.727 42.98,29.251C46.175,26.027 47.967,21.673 47.967,17.135C47.967,12.596 46.175,8.242 42.98,5.019L42.98,5.019ZM38.738,25.001C36.322,27.415 29.756,29.279 21.17,29.983C20.746,30.02 20.318,29.964 19.917,29.819C19.516,29.673 19.153,29.441 18.851,29.14C18.55,28.838 18.318,28.474 18.173,28.074C18.028,27.673 17.972,27.245 18.01,26.821C18.714,18.245 20.578,11.677 23,9.261C25.108,7.274 27.906,6.187 30.802,6.23C33.698,6.273 36.463,7.442 38.51,9.49C40.558,11.538 41.727,14.304 41.77,17.199C41.812,20.095 40.725,22.893 38.738,25.001L38.738,25.001Z" fill="#374957"/>
</svg>
