<svg width="16" height="32" viewBox="0 0 16 32" fill="none" xmlns="http://www.w3.org/2000/svg" xmlns:xlink="http://www.w3.org/1999/xlink">
<path d="M5.914,16.708C5.821,16.615 5.747,16.505 5.697,16.383C5.646,16.262 5.621,16.131 5.621,16C5.621,15.868 5.646,15.738 5.697,15.616C5.747,15.495 5.821,15.385 5.914,15.292L15.086,6.122C15.649,5.559 15.965,4.796 15.966,4C15.966,3.205 15.65,2.442 15.087,1.879C14.525,1.316 13.762,1 12.966,1C12.17,0.999 11.407,1.315 10.844,1.878L1.672,11.05C0.362,12.364 -0.374,14.144 -0.374,16C-0.374,17.856 0.362,19.636 1.672,20.95L10.844,30.122C11.407,30.684 12.17,31 12.966,31C13.762,31 14.525,30.684 15.087,30.121C15.65,29.558 15.966,28.795 15.966,27.999C15.965,27.203 15.649,26.44 15.086,25.878L5.914,16.708Z" fill="#374957"/>
</svg>
