<svg width="48" height="50" viewBox="0 0 48 50" fill="none" xmlns="http://www.w3.org/2000/svg" xmlns:xlink="http://www.w3.org/1999/xlink">
<path d="M26,0C13.87,0 4,8.074 4,18C4.019,20.141 4.491,22.254 5.384,24.2C4.675,25.041 4.216,26.064 4.06,27.152C3.904,28.241 4.056,29.352 4.5,30.358C1.788,32.853 0.17,36.318 0,40C-0.031,41.059 0.155,42.113 0.546,43.098C0.937,44.082 1.525,44.977 2.275,45.726C3.024,46.475 3.918,47.063 4.903,47.454C5.887,47.845 6.941,48.031 8,48L8.016,44C7.481,44.036 6.944,43.957 6.442,43.769C5.939,43.581 5.483,43.288 5.102,42.91C4.722,42.531 4.427,42.076 4.237,41.574C4.047,41.072 3.966,40.535 4,40C4.185,37.364 5.394,34.905 7.368,33.148C9.593,33.804 11.909,34.097 14.226,34.018C14.826,34.018 15.38,34.004 15.912,33.986C19.108,35.32 22.537,36.005 26,36C38.13,36 48,27.926 48,18C48,8.074 38.13,0 26,0ZM26,32C23.331,31.998 20.684,31.516 18.186,30.576C17.176,28.13 15.835,25.833 14.2,23.752C13.501,23.076 12.649,22.578 11.717,22.3C10.785,22.022 9.8,21.971 8.844,22.152C8.301,20.835 8.014,19.425 8,18C8,10.282 16.074,4 26,4C35.926,4 44,10.282 44,18C44,25.718 35.926,32 26,32Z" fill="#374957"/>
</svg>
