<svg width="28" height="24" viewBox="0 0 28 24" fill="none" xmlns="http://www.w3.org/2000/svg" xmlns:xlink="http://www.w3.org/1999/xlink">
<path d="M7.521,4.026C7.912,4.024 8.298,4.119 8.645,4.301C8.991,4.483 9.288,4.747 9.509,5.07L18.055,18L13.625,17.126L12.853,21.05L20.093,22.478C20.612,22.58 21.145,22.579 21.663,22.474C22.181,22.369 22.674,22.163 23.111,21.866C23.549,21.57 23.924,21.19 24.214,20.748C24.504,20.306 24.703,19.811 24.801,19.292L26.169,11.964L22.235,11.23L21.385,15.788L12.847,2.866C12.26,1.981 11.461,1.257 10.523,0.761C9.584,0.264 8.536,0.011 7.475,0.024C6.413,0.038 5.372,0.317 4.446,0.837C3.52,1.357 2.739,2.1 2.175,3L-0.295,6.936L3.091,9.064L5.567,5.122C5.772,4.787 6.059,4.51 6.401,4.319C6.743,4.127 7.129,4.026 7.521,4.026L7.521,4.026Z" fill="#374957"/>
</svg>
