<svg width="48" height="48" viewBox="0 0 48 48" fill="none" xmlns="http://www.w3.org/2000/svg" xmlns:xlink="http://www.w3.org/1999/xlink">
<path d="M48,26L48,38C47.997,39.944 47.429,41.844 46.363,43.47C45.297,45.095 43.781,46.375 42,47.152L42,26L48,26ZM38,22L38,34.712C36.317,32.617 34.186,30.926 31.763,29.764C29.34,28.603 26.687,28 24,28C21.313,28 18.66,28.603 16.237,29.764C13.814,30.926 11.683,32.617 10,34.712L10,22C10.001,19.746 10.548,17.525 11.592,15.528C12.637,13.53 14.149,11.815 16,10.528L16,8C16,5.878 16.843,3.843 18.343,2.343C19.843,0.843 21.878,0 24,0C26.122,0 28.157,0.843 29.657,2.343C31.157,3.843 32,5.878 32,8L32,10.528C33.851,11.815 35.363,13.53 36.408,15.528C37.452,17.525 37.999,19.746 38,22L38,22ZM20,8.6C22.609,7.813 25.391,7.813 28,8.6L28,8C28,6.939 27.579,5.922 26.828,5.172C26.078,4.421 25.061,4 24,4C22.939,4 21.922,4.421 21.172,5.172C20.421,5.922 20,6.939 20,8L20,8.6ZM30,18L18,18L18,22L30,22L30,18ZM0,38C0.003,39.944 0.571,41.844 1.637,43.47C2.703,45.095 4.219,46.375 6,47.152L6,26L0,26L0,38ZM24,32C20.288,32.004 16.73,33.481 14.105,36.105C11.481,38.73 10.004,42.288 10,46L10,48L38,48L38,46C37.996,42.288 36.519,38.73 33.895,36.105C31.27,33.481 27.712,32.004 24,32L24,32Z" fill="#374957"/>
</svg>
