<svg width="48" height="48" viewBox="0 0 48 48" fill="none" xmlns="http://www.w3.org/2000/svg" xmlns:xlink="http://www.w3.org/1999/xlink">
<path d="M44,0L44,6L40,6L40,0L8,0L8,6L4,6L4,0L0,0L0,48L4,48L4,42L8,42L8,48L40,48L40,42L44,42L44,48L48,48L48,0L44,0ZM44,10L44,14L40,14L40,10L44,10ZM40,26L44,26L44,30L40,30L40,26ZM40,22L40,18L44,18L44,22L40,22ZM36,4L36,22L12,22L12,4L36,4ZM4,22L4,18L8,18L8,22L4,22ZM8,26L8,30L4,30L4,26L8,26ZM8,10L8,14L4,14L4,10L8,10ZM4,38L4,34L8,34L8,38L4,38ZM12,44L12,26L36,26L36,44L12,44ZM40,38L40,34L44,34L44,38L40,38Z" fill="#374957"/>
</svg>
