<svg width="48" height="46" viewBox="0 0 48 46" fill="none" xmlns="http://www.w3.org/2000/svg" xmlns:xlink="http://www.w3.org/1999/xlink">
<path d="M47.121,0.241C45.95,-0.93 44.051,-0.93 42.88,0.241L33.355,9.766C29.52,6.32 23.808,5.995 19.607,8.984C17.134,10.825 14.395,12.278 11.485,13.293L7.908,14.341C2.08,16.048 -1.261,22.157 0.446,27.986C0.576,28.429 0.734,28.863 0.918,29.287C3.094,34.681 7.083,39.148 12.199,41.917C16.232,43.81 20.651,44.739 25.105,44.628L25.231,44.628C26.732,44.629 28.193,44.142 29.394,43.241C35.693,38.717 39.998,31.933 41.41,24.308C42.036,20.715 40.857,17.043 38.255,14.487L37.68,13.927L47.127,4.478C48.293,3.305 48.291,1.41 47.121,0.241ZM25.767,38.46C25.602,38.578 25.403,38.637 25.201,38.63C23.1,38.629 21.005,38.416 18.947,37.992C21.624,36.317 23.929,34.112 25.721,31.512L26.709,30.058C27.668,28.708 27.35,26.836 26,25.877C24.649,24.918 22.777,25.235 21.818,26.586C21.795,26.619 21.772,26.652 21.75,26.685L20.762,28.135C19.125,30.527 16.908,32.465 14.318,33.767L12.243,34.809C11.077,33.863 10.034,32.777 9.136,31.574C11.909,30.443 14.438,28.786 16.584,26.695C17.75,25.519 17.741,23.62 16.565,22.454C15.412,21.312 13.56,21.293 12.385,22.413C10.626,24.12 8.523,25.432 6.217,26.262C5.443,23.636 6.944,20.88 9.57,20.106C9.58,20.103 9.59,20.1 9.6,20.097L13.173,19.048C16.243,18.024 19.153,16.573 21.816,14.735L34.468,27.065C32.739,31.629 29.715,35.589 25.767,38.46Z" fill="#374957"/>
</svg>
