<svg width="48" height="48" viewBox="0 0 48 48" fill="none" xmlns="http://www.w3.org/2000/svg" xmlns:xlink="http://www.w3.org/1999/xlink">
<path d="M38,28.001C36.354,28.012 34.737,28.434 33.296,29.231L26.6,21.201L41.534,3.281L38.462,0.721L24,18.077L9.536,0.721L6.464,3.281L21.4,21.201L14.704,29.231C13.263,28.435 11.646,28.013 10,28.001C8.022,28.001 6.089,28.587 4.444,29.686C2.8,30.785 1.518,32.347 0.761,34.174C0.004,36.001 -0.194,38.012 0.192,39.952C0.578,41.892 1.53,43.673 2.929,45.072C4.327,46.47 6.109,47.423 8.049,47.809C9.989,48.195 12,47.996 13.827,47.24C15.654,46.483 17.216,45.201 18.315,43.557C19.414,41.912 20,39.979 20,38.001C19.989,35.741 19.204,33.553 17.776,31.801L24,24.325L30.222,31.801C28.796,33.554 28.012,35.741 28,38.001C28,39.979 28.586,41.912 29.685,43.557C30.784,45.201 32.346,46.483 34.173,47.24C36,47.996 38.011,48.195 39.951,47.809C41.891,47.423 43.673,46.47 45.071,45.072C46.47,43.673 47.422,41.892 47.808,39.952C48.194,38.012 47.996,36.001 47.239,34.174C46.482,32.347 45.2,30.785 43.556,29.686C41.911,28.587 39.978,28.001 38,28.001L38,28.001ZM10,44.001C8.813,44.001 7.653,43.649 6.667,42.99C5.68,42.33 4.911,41.393 4.457,40.297C4.003,39.201 3.884,37.994 4.115,36.83C4.347,35.666 4.918,34.597 5.757,33.758C6.596,32.919 7.666,32.348 8.829,32.116C9.993,31.885 11.2,32.003 12.296,32.458C13.392,32.912 14.33,33.681 14.989,34.667C15.648,35.654 16,36.814 16,38.001C16,39.592 15.368,41.118 14.243,42.243C13.117,43.369 11.591,44.001 10,44.001ZM38,44.001C36.813,44.001 35.653,43.649 34.667,42.99C33.68,42.33 32.911,41.393 32.457,40.297C32.003,39.201 31.884,37.994 32.115,36.83C32.347,35.666 32.918,34.597 33.757,33.758C34.596,32.919 35.666,32.348 36.829,32.116C37.993,31.885 39.2,32.003 40.296,32.458C41.392,32.912 42.33,33.681 42.989,34.667C43.648,35.654 44,36.814 44,38.001C44,39.592 43.368,41.118 42.243,42.243C41.117,43.369 39.591,44.001 38,44.001Z" fill="#374957"/>
</svg>
