<svg width="40" height="48" viewBox="0 0 40 48" fill="none" xmlns="http://www.w3.org/2000/svg" xmlns:xlink="http://www.w3.org/1999/xlink">
<path d="M36.82,8.098L32.036,3.262C29.965,1.181 27.152,0.008 24.216,0L11,0C4.928,0.007 0.007,4.928 0,11L0,37C0.007,43.072 4.928,47.993 11,48L29,48C35.072,47.993 39.993,43.072 40,37L40,15.834C40.008,12.936 38.864,10.153 36.82,8.098ZM34,37C34,39.761 31.761,42 29,42L11,42C8.239,42 6,39.761 6,37L6,11C6,8.239 8.239,6 11,6L22,6L22,14C22,16.209 23.791,18 26,18L34,18L34,37L34,37Z" fill="#374957"/>
</svg>
