<svg width="40" height="48" viewBox="0 0 40 48" fill="none" xmlns="http://www.w3.org/2000/svg" xmlns:xlink="http://www.w3.org/1999/xlink">
<path d="M21.999,5.16C22.012,3.956 21.6,2.786 20.837,1.855C20.074,0.924 19.008,0.292 17.825,0.068C17.109,-0.052 16.374,-0.015 15.674,0.178C14.973,0.37 14.323,0.713 13.769,1.183C13.214,1.652 12.768,2.237 12.463,2.896C12.157,3.555 11.999,4.273 11.999,5L11.999,34L7.999,34L7.999,23.222L1.757,29.272C1.065,29.963 0.552,30.813 0.263,31.748C-0.026,32.683 -0.081,33.674 0.101,34.636C0.354,35.885 0.982,37.027 1.901,37.91L11.999,48L39.999,48L39.999,20.388L21.999,16.36L21.999,5.16Z" fill="#374957"/>
</svg>
