<svg width="48" height="34" viewBox="0 0 48 34" fill="none" xmlns="http://www.w3.org/2000/svg" xmlns:xlink="http://www.w3.org/1999/xlink">
<path d="M44,24L44,11C43.997,8.084 42.837,5.288 40.775,3.225C38.712,1.163 35.916,0.003 33,0L15,0C12.084,0.003 9.288,1.163 7.225,3.225C5.163,5.288 4.003,8.084 4,11L4,24C2.939,24 1.922,24.421 1.172,25.172C0.421,25.922 0,26.939 0,28L0,30.308C0.001,31.287 0.39,32.226 1.082,32.918C1.774,33.61 2.713,33.999 3.692,34L44.308,34C45.287,33.999 46.226,33.61 46.918,32.918C47.61,32.226 47.999,31.287 48,30.308L48,28C48,26.939 47.579,25.922 46.828,25.172C46.078,24.421 45.061,24 44,24ZM29.538,26L18.462,26L16.616,24L10,24L10,11C10,9.674 10.527,8.402 11.464,7.464C12.402,6.527 13.674,6 15,6L33,6C34.326,6 35.598,6.527 36.536,7.464C37.473,8.402 38,9.674 38,11L38,24L31.384,24L29.538,26Z" fill="#374957"/>
</svg>
