<svg width="50" height="24" viewBox="0 0 50 24" fill="none" xmlns="http://www.w3.org/2000/svg" xmlns:xlink="http://www.w3.org/1999/xlink">
<path d="M32,21C32,21.796 31.684,22.559 31.121,23.122C30.559,23.684 29.796,24 29,24L19,24C18.204,24 17.441,23.684 16.879,23.122C16.316,22.559 16,21.796 16,21C16,20.205 16.316,19.442 16.879,18.879C17.441,18.316 18.204,18 19,18L29,18C29.796,18 30.559,18.316 31.121,18.879C31.684,19.442 32,20.205 32,21ZM17.878,13.122C18.157,13.401 18.487,13.622 18.851,13.773C19.216,13.924 19.606,14.002 20,14.002C20.394,14.002 20.784,13.924 21.148,13.773C21.513,13.622 21.843,13.401 22.122,13.122L24,11.242L25.878,13.122C26.441,13.685 27.204,14.001 28,14.001C28.796,14.001 29.559,13.685 30.122,13.122C30.685,12.56 31.001,11.796 31.001,11C31.001,10.204 30.685,9.441 30.122,8.878L28.242,7L30.122,5.122C30.685,4.56 31.001,3.796 31.001,3C31.001,2.204 30.685,1.441 30.122,0.878C29.559,0.316 28.796,-0.001 28,-0.001C27.204,-0.001 26.441,0.316 25.878,0.878L24,2.758L22.122,0.878C21.559,0.316 20.796,-0.001 20,-0.001C19.204,-0.001 18.441,0.316 17.878,0.878C17.315,1.441 16.999,2.204 16.999,3C16.999,3.796 17.315,4.56 17.878,5.122L19.758,7L17.878,8.878C17.599,9.157 17.378,9.488 17.227,9.852C17.076,10.216 16.999,10.606 16.999,11C16.999,11.395 17.076,11.785 17.227,12.149C17.378,12.513 17.599,12.844 17.878,13.122L17.878,13.122ZM11,18L3,18C2.204,18 1.441,18.316 0.879,18.879C0.316,19.442 0,20.205 0,21C0,21.796 0.316,22.559 0.879,23.122C1.441,23.684 2.204,24 3,24L11,24C11.796,24 12.559,23.684 13.121,23.122C13.684,22.559 14,21.796 14,21C14,20.205 13.684,19.442 13.121,18.879C12.559,18.316 11.796,18 11,18ZM13.122,0.878C12.843,0.6 12.513,0.378 12.148,0.228C11.784,0.077 11.394,-0.001 11,-0.001C10.606,-0.001 10.216,0.077 9.851,0.228C9.487,0.378 9.157,0.6 8.878,0.878L7,2.758L5.122,0.878C4.559,0.316 3.796,-0.001 3,-0.001C2.204,-0.001 1.441,0.316 0.878,0.878C0.315,1.441 -0.001,2.204 -0.001,3C-0.001,3.796 0.315,4.56 0.878,5.122L2.758,7L0.878,8.878C0.315,9.441 -0.001,10.204 -0.001,11C-0.001,11.796 0.315,12.56 0.878,13.122C1.441,13.685 2.204,14.001 3,14.001C3.796,14.001 4.559,13.685 5.122,13.122L7,11.242L8.878,13.122C9.441,13.685 10.204,14.001 11,14.001C11.796,14.001 12.559,13.685 13.122,13.122C13.685,12.56 14.001,11.796 14.001,11C14.001,10.204 13.685,9.441 13.122,8.878L11.242,7L13.122,5.122C13.401,4.844 13.622,4.513 13.773,4.149C13.924,3.785 14.001,3.395 14.001,3C14.001,2.606 13.924,2.216 13.773,1.852C13.622,1.488 13.401,1.157 13.122,0.878ZM45,18L37,18C36.204,18 35.441,18.316 34.879,18.879C34.316,19.442 34,20.205 34,21C34,21.796 34.316,22.559 34.879,23.122C35.441,23.684 36.204,24 37,24L45,24C45.796,24 46.559,23.684 47.121,23.122C47.684,22.559 48,21.796 48,21C48,20.205 47.684,19.442 47.121,18.879C46.559,18.316 45.796,18 45,18ZM45.242,7L47.122,5.122C47.401,4.844 47.622,4.513 47.772,4.149C47.923,3.785 48.001,3.394 48.001,3C48.001,2.606 47.923,2.216 47.772,1.852C47.622,1.488 47.401,1.157 47.122,0.878C46.843,0.6 46.512,0.379 46.148,0.228C45.784,0.077 45.394,-0.001 45,-0.001C44.606,-0.001 44.216,0.077 43.852,0.228C43.487,0.379 43.157,0.6 42.878,0.878L41,2.758L39.122,0.878C38.843,0.6 38.512,0.379 38.148,0.228C37.784,0.077 37.394,-0.001 37,-0.001C36.204,-0.001 35.441,0.316 34.878,0.878C34.599,1.157 34.378,1.488 34.227,1.852C34.077,2.216 33.999,2.606 33.999,3C33.999,3.796 34.315,4.56 34.878,5.122L36.758,7L34.878,8.878C34.315,9.441 33.999,10.204 33.999,11C33.999,11.796 34.315,12.56 34.878,13.122C35.441,13.685 36.204,14.001 37,14.001C37.796,14.001 38.559,13.685 39.122,13.122L41,11.242L42.878,13.122C43.441,13.685 44.204,14.001 45,14.001C45.796,14.001 46.559,13.685 47.122,13.122C47.685,12.56 48.001,11.796 48.001,11C48.001,10.204 47.685,9.441 47.122,8.878L45.242,7Z" fill="#374957"/>
</svg>
