<svg width="48" height="48" viewBox="0 0 48 48" fill="none" xmlns="http://www.w3.org/2000/svg" xmlns:xlink="http://www.w3.org/1999/xlink">
<path d="M40,16C37.878,16 35.843,15.157 34.343,13.657C32.843,12.157 32,10.122 32,8C32,5.878 32.843,3.843 34.343,2.343C35.843,0.843 37.878,0 40,0C42.122,0 44.157,0.843 45.657,2.343C47.157,3.843 48,5.878 48,8C48,10.122 47.157,12.157 45.657,13.657C44.157,15.157 42.122,16 40,16ZM22,48L22,45.562L30.554,26.876C30.954,26.036 31.584,25.326 32.371,24.829C33.158,24.332 34.069,24.068 35,24.068C35.931,24.068 36.842,24.332 37.629,24.829C38.416,25.326 39.046,26.036 39.446,26.876L48,45.474L48,47.912L22,48ZM24.496,13.082C24.064,12.172 23.383,11.403 22.532,10.865C21.68,10.326 20.693,10.04 19.686,10.04C18.679,10.04 17.692,10.326 16.84,10.865C15.989,11.403 15.308,12.172 14.876,13.082L0,45.562L0,48L18,48L18,44L26.92,25.2C27.388,24.194 28.038,23.283 28.838,22.514L24.496,13.082Z" fill="#374957"/>
</svg>
