<svg width="36" height="48" viewBox="0 0 36 48" fill="none" xmlns="http://www.w3.org/2000/svg" xmlns:xlink="http://www.w3.org/1999/xlink">
<path d="M20,16L24,16L24,20L20,20L20,24L16,24L16,20L12,20L12,16L16,16L16,12L20,12L20,16ZM8,32L28,32L28,28L8,28L8,32ZM8,40L20,40L20,36L8,36L8,40ZM36,4L36,42C36,43.591 35.368,45.117 34.243,46.243C33.117,47.368 31.591,48 30,48L6,48C4.409,48 2.883,47.368 1.757,46.243C0.632,45.117 0,43.591 0,42L0,4L10.342,4C10.757,2.831 11.524,1.819 12.537,1.103C13.55,0.387 14.759,0.002 16,0L20,0C21.241,0.002 22.45,0.387 23.463,1.103C24.476,1.819 25.243,2.831 25.658,4L36,4ZM32,8L22,8L22,6C22,5.47 21.789,4.961 21.414,4.586C21.039,4.211 20.53,4 20,4L16,4C15.47,4 14.961,4.211 14.586,4.586C14.211,4.961 14,5.47 14,6L14,8L4,8L4,42C4,42.53 4.211,43.039 4.586,43.414C4.961,43.789 5.47,44 6,44L30,44C30.53,44 31.039,43.789 31.414,43.414C31.789,43.039 32,42.53 32,42L32,8Z" fill="#374957"/>
</svg>
