<svg width="48" height="36" viewBox="0 0 48 36" fill="none" xmlns="http://www.w3.org/2000/svg" xmlns:xlink="http://www.w3.org/1999/xlink">
<path d="M48,35.999L44,35.999L44,23.999C42.898,-2.541 5.092,-2.519 4,23.999L4,35.999L0,35.999L0,23.999C1.322,-7.849 46.69,-7.823 48,23.999L48,35.999ZM40,35.999L36,35.999L36,23.999C35.494,8.135 12.5,8.147 12,23.999L12,35.999L8,35.999L8,23.999C8.8,2.799 39.2,2.813 40,23.999L40,35.999ZM32,35.999L28,35.999L28,23.999C28,22.938 27.579,21.921 26.828,21.171C26.078,20.421 25.061,19.999 24,19.999C22.939,19.999 21.922,20.421 21.172,21.171C20.421,21.921 20,22.938 20,23.999L20,35.999L16,35.999L16,23.999C16,21.878 16.843,19.843 18.343,18.342C19.843,16.842 21.878,15.999 24,15.999C26.122,15.999 28.157,16.842 29.657,18.342C31.157,19.843 32,21.878 32,23.999L32,35.999Z" fill="#374957"/>
</svg>
