<svg width="48" height="48" viewBox="0 0 48 48" fill="none" xmlns="http://www.w3.org/2000/svg" xmlns:xlink="http://www.w3.org/1999/xlink">
<path d="M0,44L48,44L48,48L0,48L0,44ZM48,15.818L48,20L42,20L42,36L46,36L46,40L2,40L2,36L6,36L6,20L0,20L0,15.818C0,14.74 0.29,13.682 0.84,12.755C1.39,11.828 2.18,11.066 3.126,10.55L21.126,0.732C22.007,0.25 22.995,-0.003 24,-0.003C25.005,-0.003 25.993,0.25 26.874,0.732L44.874,10.55C45.82,11.066 46.61,11.828 47.16,12.755C47.71,13.682 48,14.74 48,15.818ZM10,36L16,36L16,20L10,20L10,36ZM20,20L20,36L28,36L28,20L20,20ZM38,20L32,20L32,36L38,36L38,20ZM44,15.818C44,15.459 43.903,15.106 43.72,14.797C43.537,14.488 43.273,14.234 42.958,14.062L24.958,4.244C24.664,4.084 24.335,4 24,4C23.665,4 23.336,4.084 23.042,4.244L5.042,14.062C4.727,14.234 4.463,14.488 4.28,14.797C4.097,15.106 4,15.459 4,15.818L4,16L44,16L44,15.818Z" fill="#374957"/>
</svg>
