<svg width="50" height="48" viewBox="0 0 50 48" fill="none" xmlns="http://www.w3.org/2000/svg" xmlns:xlink="http://www.w3.org/1999/xlink">
<path d="M47.122,26.878C47.685,27.441 48.001,28.204 48.001,29C48.001,29.796 47.685,30.559 47.122,31.122C46.559,31.685 45.796,32.001 45,32.001C44.204,32.001 43.441,31.685 42.878,31.122L40,28.242L37.122,31.122C36.559,31.685 35.796,32.001 35,32.001C34.204,32.001 33.441,31.685 32.878,31.122C32.315,30.559 31.999,29.796 31.999,29C31.999,28.204 32.315,27.441 32.878,26.878L35.758,24L32.878,21.122C32.315,20.559 31.999,19.796 31.999,19C31.999,18.204 32.315,17.441 32.878,16.878C33.441,16.315 34.204,15.999 35,15.999C35.796,15.999 36.559,16.315 37.122,16.878L40,19.758L42.878,16.878C43.441,16.315 44.204,15.999 45,15.999C45.796,15.999 46.559,16.315 47.122,16.878C47.685,17.441 48.001,18.204 48.001,19C48.001,19.796 47.685,20.559 47.122,21.122L44.242,24L47.122,26.878ZM4,12C4,9.627 4.704,7.307 6.022,5.333C7.341,3.36 9.215,1.822 11.408,0.913C13.601,0.005 16.013,-0.232 18.341,0.231C20.669,0.694 22.807,1.836 24.485,3.515C26.164,5.193 27.306,7.331 27.769,9.659C28.232,11.987 27.995,14.399 27.087,16.592C26.178,18.785 24.64,20.659 22.667,21.978C20.693,23.296 18.373,24 16,24C12.818,23.997 9.768,22.732 7.518,20.482C5.268,18.232 4.003,15.182 4,12L4,12ZM10,12C10,13.187 10.352,14.347 11.011,15.333C11.67,16.32 12.608,17.089 13.704,17.543C14.8,17.997 16.007,18.116 17.171,17.885C18.334,17.653 19.404,17.082 20.243,16.243C21.082,15.404 21.653,14.334 21.885,13.171C22.116,12.007 21.997,10.8 21.543,9.704C21.089,8.608 20.32,7.67 19.333,7.011C18.347,6.352 17.187,6 16,6C14.409,6 12.883,6.632 11.757,7.757C10.632,8.883 10,10.409 10,12L10,12ZM16,28C11.758,28.005 7.691,29.692 4.692,32.692C1.692,35.691 0.005,39.758 0,44L0,45C0,45.796 0.316,46.559 0.879,47.121C1.441,47.684 2.204,48 3,48C3.796,48 4.559,47.684 5.121,47.121C5.684,46.559 6,45.796 6,45L6,44C6,41.348 7.054,38.804 8.929,36.929C10.804,35.054 13.348,34 16,34C18.652,34 21.196,35.054 23.071,36.929C24.946,38.804 26,41.348 26,44L26,45C26,45.796 26.316,46.559 26.879,47.121C27.441,47.684 28.204,48 29,48C29.796,48 30.559,47.684 31.121,47.121C31.684,46.559 32,45.796 32,45L32,44C31.995,39.758 30.308,35.691 27.308,32.692C24.309,29.692 20.242,28.005 16,28Z" fill="#374957"/>
</svg>
