<svg width="42" height="48" viewBox="0 0 42 48" fill="none" xmlns="http://www.w3.org/2000/svg" xmlns:xlink="http://www.w3.org/1999/xlink">
<path d="M17.361,48C12.507,48.006 7.845,46.109 4.374,42.716C-2.888,35.17 -2.746,23.191 4.693,15.819L16.361,4.152C21.129,-0.752 28.784,-1.391 34.298,2.657C40.172,7.167 41.278,15.586 36.768,21.46C36.416,21.919 36.034,22.355 35.626,22.764L23.415,34.975C22.041,36.412 20.217,37.336 18.246,37.595C15.574,37.888 12.928,36.849 11.17,34.816C8.474,31.362 8.762,26.443 11.843,23.328L21.152,14.028C22.332,12.847 24.246,12.847 25.426,14.028C26.606,15.208 26.606,17.122 25.426,18.302L15.831,27.899C14.987,28.744 14.987,30.113 15.832,30.957C16.677,31.802 18.046,31.801 18.891,30.956L31.212,18.637C33.742,16.177 34.21,12.285 32.335,9.296C30.121,5.885 25.562,4.915 22.151,7.129C21.724,7.407 21.327,7.727 20.966,8.086L8.806,20.257C4.21,24.72 3.612,31.891 7.407,37.053C11.628,42.55 19.507,43.585 25.004,39.364C25.433,39.034 25.841,38.677 26.224,38.294L35.821,28.699C37.002,27.519 38.915,27.519 40.096,28.699C41.276,29.88 41.276,31.793 40.096,32.974L30.499,42.569C27.017,46.055 22.289,48.01 17.361,48Z" fill="#374957"/>
</svg>
