<svg width="48" height="48" viewBox="0 0 48 48" fill="none" xmlns="http://www.w3.org/2000/svg" xmlns:xlink="http://www.w3.org/1999/xlink">
<path d="M16.948,22C14.772,22 12.646,21.355 10.837,20.146C9.028,18.937 7.618,17.22 6.785,15.21C5.953,13.2 5.735,10.988 6.159,8.854C6.584,6.72 7.631,4.76 9.17,3.222C10.708,1.683 12.668,0.636 14.802,0.211C16.936,-0.213 19.148,0.005 21.158,0.837C23.168,1.67 24.885,3.08 26.094,4.889C27.303,6.698 27.948,8.824 27.948,11C27.945,13.916 26.785,16.712 24.723,18.775C22.66,20.837 19.864,21.997 16.948,22L16.948,22ZM34,20C31.231,20 28.524,20.821 26.222,22.359C23.92,23.898 22.125,26.084 21.066,28.642C20.006,31.201 19.729,34.016 20.269,36.731C20.809,39.447 22.143,41.942 24.101,43.899C26.058,45.857 28.553,47.191 31.269,47.731C33.984,48.271 36.799,47.994 39.358,46.934C41.916,45.875 44.102,44.08 45.641,41.778C47.179,39.476 48,36.769 48,34C47.996,30.288 46.519,26.73 43.895,24.105C41.27,21.481 37.712,20.004 34,20ZM38,40.828L32,34.828L32,26L36,26L36,33.172L40.828,38L38,40.828ZM16,34C16.001,31.222 16.65,28.483 17.894,26L10,26C7.349,26.003 4.807,27.058 2.932,28.932C1.058,30.807 0.003,33.349 0,36L0,48L22.698,48C20.606,46.316 18.918,44.184 17.759,41.761C16.6,39.338 15.999,36.686 16,34L16,34Z" fill="#374957"/>
</svg>
