<svg width="48" height="48" viewBox="0 0 48 48" fill="none" xmlns="http://www.w3.org/2000/svg" xmlns:xlink="http://www.w3.org/1999/xlink">
<path d="M43.999,0L35.999,0L35.999,4L41.171,4L36.371,8.8C34.182,7.147 31.552,6.179 28.814,6.02C26.076,5.86 23.351,6.515 20.985,7.902C19.202,6.871 17.212,6.248 15.16,6.076C13.107,5.904 11.041,6.187 9.111,6.906C7.181,7.626 5.434,8.763 3.994,10.236C2.554,11.709 1.458,13.483 0.784,15.429C0.11,17.375 -0.126,19.447 0.093,21.495C0.313,23.543 0.983,25.517 2.054,27.277C3.126,29.036 4.573,30.536 6.292,31.671C8.011,32.806 9.96,33.546 11.999,33.84L11.999,38L5.999,38L5.999,42L11.999,42L11.999,48L15.999,48L15.999,42L21.999,42L21.999,38L15.999,38L15.999,33.854C17.757,33.592 19.449,32.995 20.981,32.094C23.767,33.724 27.032,34.338 30.221,33.834C33.409,33.329 36.324,31.735 38.47,29.324C40.617,26.913 41.863,23.834 41.995,20.608C42.128,17.383 41.14,14.211 39.199,11.632L43.999,6.832L43.999,12L47.999,12L47.999,4C47.999,2.939 47.578,1.922 46.827,1.172C46.077,0.421 45.06,0 43.999,0L43.999,0ZM3.999,20C3.99,18.376 4.378,16.774 5.131,15.334C5.884,13.895 6.978,12.662 8.317,11.743C9.657,10.825 11.201,10.248 12.815,10.064C14.429,9.88 16.063,10.094 17.575,10.688C15.273,13.243 13.999,16.561 13.999,20C13.999,23.439 15.273,26.757 17.575,29.312C16.063,29.906 14.429,30.12 12.815,29.936C11.201,29.752 9.657,29.175 8.317,28.257C6.978,27.338 5.884,26.105 5.131,24.666C4.378,23.226 3.99,21.624 3.999,20L3.999,20ZM27.999,30C26.021,30 24.088,29.414 22.443,28.315C20.799,27.216 19.517,25.654 18.76,23.827C18.003,22 17.805,19.989 18.191,18.049C18.577,16.109 19.529,14.327 20.928,12.929C22.326,11.53 24.108,10.578 26.048,10.192C27.988,9.806 29.999,10.004 31.826,10.761C33.653,11.518 35.215,12.8 36.314,14.444C37.413,16.089 37.999,18.022 37.999,20C37.996,22.651 36.941,25.193 35.067,27.068C33.192,28.942 30.65,29.997 27.999,30Z" fill="#374957"/>
</svg>
