<svg width="48" height="48" viewBox="0 0 48 48" fill="none" xmlns="http://www.w3.org/2000/svg" xmlns:xlink="http://www.w3.org/1999/xlink">
<path d="M39,14L37.818,14C39.282,11.963 40.047,9.508 40,7C40,6.204 39.684,5.441 39.121,4.879C38.559,4.316 37.796,4 37,4C36.204,4 35.441,4.316 34.879,4.879C34.316,5.441 34,6.204 34,7C34,11.34 30.352,12.986 27.442,13.614C28.882,11.313 29.759,8.704 30,6C30,4.409 29.368,2.883 28.243,1.757C27.117,0.632 25.591,0 24,0C22.409,0 20.883,0.632 19.757,1.757C18.632,2.883 18,4.409 18,6C18.241,8.704 19.118,11.313 20.558,13.614C17.648,12.986 14,11.34 14,7C14,6.204 13.684,5.441 13.121,4.879C12.559,4.316 11.796,4 11,4C10.204,4 9.441,4.316 8.879,4.879C8.316,5.441 8,6.204 8,7C7.953,9.508 8.718,11.963 10.182,14L9,14C6.614,14.003 4.326,14.952 2.639,16.639C0.952,18.326 0.003,20.614 0,23L0,25C0,26.152 0.398,27.269 1.127,28.162C1.856,29.054 2.871,29.668 4,29.898L4,37.364C4.003,40.184 5.125,42.887 7.119,44.881C9.113,46.875 11.816,47.997 14.636,48L33.364,48C36.184,47.997 38.887,46.875 40.881,44.881C42.875,42.887 43.997,40.184 44,37.364L44,29.898C45.129,29.668 46.144,29.054 46.873,28.162C47.602,27.269 48,26.152 48,25L48,23C47.997,20.614 47.048,18.326 45.361,16.639C43.674,14.952 41.386,14.003 39,14ZM42,23L42,24L27,24L27,20L39,20C39.796,20 40.559,20.316 41.121,20.879C41.684,21.441 42,22.204 42,23ZM6,23C6,22.204 6.316,21.441 6.879,20.879C7.441,20.316 8.204,20 9,20L21,20L21,24L6,24L6,23ZM10,37.364L10,30L21,30L21,42L14.636,42C13.407,41.998 12.229,41.509 11.36,40.64C10.491,39.771 10.002,38.593 10,37.364L10,37.364ZM33.364,42L27,42L27,30L38,30L38,37.364C37.998,38.593 37.509,39.771 36.64,40.64C35.771,41.509 34.593,41.998 33.364,42Z" fill="#374957"/>
</svg>
