<svg width="48" height="48" viewBox="0 0 48 48" fill="none" xmlns="http://www.w3.org/2000/svg" xmlns:xlink="http://www.w3.org/1999/xlink">
<path d="M37.07,35.332L39.898,38.16L33.498,44.56C32.57,45.484 31.313,46.003 30.004,46.003C28.694,46.003 27.437,45.484 26.51,44.56L20.11,38.16L22.938,35.332L28,40.4L28,24L32,24L32,40.4L37.07,35.332ZM35.58,12.418C34.687,8.6 32.424,5.242 29.219,2.983C26.015,0.723 22.092,-0.281 18.196,0.161C14.3,0.603 10.702,2.46 8.085,5.38C5.468,8.3 4.014,12.079 4,16C3.998,18.556 4.615,21.076 5.8,23.342C3.642,24.498 1.932,26.342 0.943,28.581C-0.047,30.82 -0.26,33.326 0.338,35.7C0.936,38.074 2.309,40.18 4.241,41.684C6.173,43.188 8.552,44.003 11,44L20.284,44L16.284,40L11,40C9.297,40.005 7.65,39.387 6.371,38.263C5.091,37.139 4.267,35.586 4.052,33.896C3.838,32.207 4.249,30.497 5.207,29.089C6.165,27.681 7.605,26.672 9.256,26.252L12.13,25.51L10.364,23.126C8.826,21.068 7.996,18.568 8,16C8.026,12.974 9.194,10.07 11.27,7.869C13.347,5.668 16.178,4.332 19.197,4.13C22.216,3.928 25.2,4.874 27.551,6.778C29.903,8.682 31.448,11.405 31.878,14.4L32.078,15.916L33.596,16.116C35.61,16.383 37.523,17.158 39.154,18.368C40.786,19.578 42.084,21.183 42.924,23.033C43.765,24.883 44.121,26.916 43.959,28.941C43.797,30.966 43.123,32.917 42,34.61L44.86,37.47C46.439,35.339 47.461,32.848 47.835,30.222C48.209,27.596 47.923,24.918 47.001,22.431C46.08,19.944 44.553,17.726 42.559,15.978C40.565,14.229 38.166,13.006 35.58,12.418Z" fill="#374957"/>
</svg>
