<svg width="48" height="38" viewBox="0 0 48 38" fill="none" xmlns="http://www.w3.org/2000/svg" xmlns:xlink="http://www.w3.org/1999/xlink">
<path d="M41.4,0.6L40.8,0L7.2,0L6.6,0.6C2.4,5.4 0,11.6 0,18C0,29 4.4,38 10,38C14.4,38 16.6,31.6 17.6,28L30.4,28C31.4,31.6 33.6,38 38,38C43.6,38 48,29 48,18C48,11.6 45.6,5.4 41.4,0.6ZM18,16L14,16L14,20L10,20L10,16L6,16L6,12L10,12L10,8L14,8L14,12L18,12L18,16ZM31,20C29.4,20 28,18.6 28,17C28,15.4 29.4,14 31,14C32.6,14 34,15.4 34,17C34,18.6 32.6,20 31,20ZM37,14C35.4,14 34,12.6 34,11C34,9.4 35.4,8 37,8C38.6,8 40,9.4 40,11C40,12.6 38.6,14 37,14Z" fill="#374957"/>
</svg>
