<svg width="50" height="48" viewBox="0 0 50 48" fill="none" xmlns="http://www.w3.org/2000/svg" xmlns:xlink="http://www.w3.org/1999/xlink">
<path d="M33,0C32.204,0 31.441,0.316 30.879,0.879C30.316,1.441 30,2.204 30,3C30,5.634 29.312,8 21,8L9,8C6.614,8.003 4.326,8.952 2.639,10.639C0.952,12.326 0.003,14.614 0,17L0,23C0.005,24.621 0.45,26.211 1.288,27.6C2.125,28.988 3.323,30.124 4.754,30.886L11.11,45.072C11.498,45.943 12.13,46.684 12.929,47.203C13.729,47.723 14.662,48 15.616,48C16.345,48 17.063,47.817 17.704,47.469C18.345,47.12 18.889,46.618 19.286,46.006C19.684,45.394 19.922,44.693 19.979,43.966C20.037,43.239 19.912,42.509 19.616,41.842L15.102,32L21,32C29.312,32 30,34.366 30,37C30,37.796 30.316,38.559 30.879,39.121C31.441,39.684 32.204,40 33,40C33.796,40 34.559,39.684 35.121,39.121C35.684,38.559 36,37.796 36,37L36,3C36,2.204 35.684,1.441 35.121,0.879C34.559,0.316 33.796,0 33,0L33,0ZM30,27.422C27.123,26.359 24.064,25.876 21,26L9,26C8.204,26 7.441,25.684 6.879,25.121C6.316,24.559 6,23.796 6,23L6,17C6,16.204 6.316,15.441 6.879,14.879C7.441,14.316 8.204,14 9,14L21,14C24.064,14.124 27.123,13.641 30,12.578L30,27.422ZM47.684,31.342C47.508,31.695 47.264,32.009 46.966,32.267C46.669,32.525 46.323,32.722 45.949,32.847C45.575,32.972 45.18,33.021 44.787,32.994C44.394,32.966 44.01,32.86 43.658,32.684L41.658,31.684C40.946,31.328 40.405,30.704 40.153,29.949C39.902,29.194 39.96,28.37 40.316,27.658C40.672,26.946 41.296,26.405 42.051,26.153C42.806,25.902 43.63,25.96 44.342,26.316L46.342,27.316C46.695,27.492 47.009,27.736 47.267,28.034C47.525,28.331 47.723,28.677 47.847,29.051C47.972,29.425 48.021,29.82 47.994,30.213C47.966,30.606 47.86,30.99 47.684,31.342L47.684,31.342ZM40.316,12.342C40.14,11.99 40.034,11.606 40.007,11.213C39.979,10.82 40.028,10.425 40.153,10.051C40.278,9.677 40.475,9.331 40.733,9.034C40.991,8.736 41.305,8.492 41.658,8.316L43.658,7.316C44.37,6.96 45.194,6.902 45.949,7.153C46.704,7.405 47.328,7.946 47.684,8.658C48.04,9.37 48.098,10.194 47.847,10.949C47.595,11.704 47.054,12.328 46.342,12.684L44.342,13.684C43.99,13.86 43.606,13.966 43.213,13.993C42.82,14.021 42.425,13.972 42.051,13.847C41.677,13.722 41.331,13.525 41.034,13.267C40.736,13.009 40.492,12.695 40.316,12.342L40.316,12.342ZM40,20C40,19.204 40.316,18.441 40.879,17.879C41.441,17.316 42.204,17 43,17L45,17C45.796,17 46.559,17.316 47.121,17.879C47.684,18.441 48,19.204 48,20C48,20.796 47.684,21.559 47.121,22.121C46.559,22.684 45.796,23 45,23L43,23C42.204,23 41.441,22.684 40.879,22.121C40.316,21.559 40,20.796 40,20Z" fill="#374957"/>
</svg>
