<svg width="48" height="44" viewBox="0 0 48 44" fill="none" xmlns="http://www.w3.org/2000/svg" xmlns:xlink="http://www.w3.org/1999/xlink">
<path d="M35.583,12.424C34.694,8.603 32.432,5.241 29.227,2.978C26.022,0.715 22.097,-0.291 18.199,0.15C14.3,0.592 10.7,2.45 8.082,5.372C5.464,8.295 4.011,12.077 3.999,16C3.997,18.557 4.615,21.076 5.799,23.342C3.641,24.499 1.932,26.343 0.942,28.582C-0.048,30.821 -0.261,33.327 0.337,35.701C0.935,38.075 2.308,40.181 4.24,41.685C6.172,43.188 8.551,44.003 10.999,44L31.999,44C35.917,43.982 39.692,42.527 42.609,39.91C45.525,37.294 47.38,33.698 47.822,29.805C48.264,25.912 47.262,21.992 45.006,18.788C42.75,15.585 39.397,13.32 35.583,12.424L35.583,12.424Z" fill="#374957"/>
</svg>
