<svg width="48" height="40" viewBox="0 0 48 40" fill="none" xmlns="http://www.w3.org/2000/svg" xmlns:xlink="http://www.w3.org/1999/xlink">
<path d="M42,20.848L42,18C42,13.226 40.104,8.647 36.728,5.272C33.353,1.896 28.774,0 24,0C19.226,0 14.648,1.896 11.272,5.272C7.897,8.647 6,13.226 6,18L6,20.848C3.903,21.771 2.186,23.388 1.138,25.426C0.089,27.464 -0.227,29.8 0.242,32.044C0.71,34.288 1.935,36.302 3.712,37.751C5.488,39.199 7.708,39.993 10,40L14,40L14,20L10,20L10,18C10,14.286 11.475,10.726 14.101,8.1C16.726,5.475 20.287,4 24,4C27.713,4 31.274,5.475 33.9,8.1C36.525,10.726 38,14.286 38,18L38,20L34,20L34,40L38,40C40.292,39.993 42.512,39.199 44.289,37.751C46.065,36.302 47.291,34.288 47.759,32.044C48.228,29.8 47.911,27.464 46.863,25.426C45.815,23.388 44.098,21.771 42,20.848L42,20.848ZM10,36C8.409,36 6.883,35.367 5.758,34.242C4.633,33.117 4,31.591 4,30C4,28.408 4.633,26.882 5.758,25.757C6.883,24.632 8.409,24 10,24L10,36ZM38,36L38,24C39.592,24 41.118,24.632 42.243,25.757C43.368,26.882 44,28.408 44,30C44,31.591 43.368,33.117 42.243,34.242C41.118,35.367 39.592,36 38,36Z" fill="#374957"/>
</svg>
