<svg width="48" height="50" viewBox="0 0 48 50" fill="none" xmlns="http://www.w3.org/2000/svg" xmlns:xlink="http://www.w3.org/1999/xlink">
<path d="M48,44L29.632,44C29.225,45.169 28.464,46.182 27.455,46.9C26.445,47.617 25.238,48.002 24,48.002C22.762,48.002 21.555,47.617 20.545,46.9C19.536,46.182 18.775,45.169 18.368,44L0,44L0,40L18.368,40C18.667,39.164 19.148,38.404 19.776,37.776C20.404,37.148 21.164,36.667 22,36.368L22,28L10,28C8.409,28 6.883,27.368 5.757,26.243C4.632,25.117 4,23.591 4,22L4,20L17.172,20L19.172,22L28.828,22L30.828,20L44,20L44,22C44,23.591 43.368,25.117 42.243,26.243C41.117,27.368 39.591,28 38,28L26,28L26,36.368C26.836,36.667 27.596,37.148 28.224,37.776C28.852,38.404 29.333,39.164 29.632,40L48,40L48,44ZM20.828,18L27.172,18L29.172,16L42,16L42,6C42,4.409 41.368,2.883 40.243,1.757C39.117,0.632 37.591,0 36,0L12,0C10.409,0 8.883,0.632 7.757,1.757C6.632,2.883 6,4.409 6,6L6,16L18.828,16L20.828,18Z" fill="#374957"/>
</svg>
