<svg width="48" height="48" viewBox="0 0 48 48" fill="none" xmlns="http://www.w3.org/2000/svg" xmlns:xlink="http://www.w3.org/1999/xlink">
<path d="M19,16C19.594,16 20.174,16.176 20.667,16.505C21.161,16.835 21.545,17.304 21.772,17.852C21.999,18.4 22.059,19.003 21.943,19.585C21.827,20.167 21.541,20.702 21.122,21.121C20.702,21.541 20.168,21.827 19.586,21.942C19.004,22.058 18.401,21.999 17.852,21.772C17.304,21.544 16.836,21.16 16.506,20.667C16.176,20.173 16,19.593 16,19C16,18.204 16.316,17.441 16.879,16.879C17.442,16.316 18.205,16 19,16ZM41,14C39.205,14.066 37.503,14.82 36.248,16.107C34.994,17.393 34.281,19.112 34.259,20.909C34.237,22.706 34.907,24.442 36.13,25.759C37.353,27.076 39.035,27.871 40.828,27.982C38.328,35.152 31.936,40.382 23.138,41.982C23.004,42.007 22.865,42.002 22.732,41.965C22.6,41.929 22.477,41.863 22.374,41.772C22.256,41.675 22.161,41.553 22.096,41.414C22.032,41.276 21.999,41.125 22,40.972L22,37.742C26.127,37.101 29.921,35.103 32.784,32.064C33.055,31.778 33.267,31.441 33.408,31.073C33.549,30.705 33.616,30.313 33.605,29.919C33.594,29.525 33.506,29.137 33.345,28.777C33.185,28.417 32.955,28.093 32.668,27.822C32.382,27.551 32.046,27.339 31.678,27.198C31.31,27.058 30.917,26.991 30.523,27.001C30.13,27.012 29.742,27.1 29.382,27.261C29.022,27.422 28.697,27.652 28.426,27.938C27.218,29.226 25.758,30.251 24.136,30.95C22.515,31.649 20.766,32.006 19,32C16.771,32.002 14.579,31.431 12.635,30.342C10.69,29.252 9.058,27.681 7.896,25.779C6.733,23.878 6.08,21.709 5.997,19.481C5.914,17.254 6.406,15.043 7.424,13.06C8.443,11.077 9.954,9.39 11.813,8.16C13.671,6.929 15.815,6.198 18.038,6.035C20.261,5.872 22.489,6.283 24.507,7.229C26.525,8.176 28.266,9.625 29.562,11.438C29.791,11.762 30.08,12.037 30.416,12.248C30.751,12.46 31.124,12.602 31.515,12.669C31.905,12.735 32.305,12.723 32.691,12.634C33.077,12.544 33.441,12.38 33.763,12.149C34.085,11.918 34.358,11.626 34.567,11.289C34.775,10.952 34.915,10.577 34.977,10.186C35.04,9.795 35.025,9.395 34.932,9.01C34.84,8.625 34.672,8.262 34.438,7.942C32.62,5.392 30.2,3.331 27.392,1.943C24.585,0.554 21.478,-0.119 18.348,-0.017C15.218,0.086 12.161,0.96 9.451,2.529C6.74,4.098 4.46,6.312 2.812,8.976C1.164,11.639 0.2,14.668 0.005,17.794C-0.189,20.92 0.392,24.045 1.698,26.892C3.003,29.739 4.992,32.219 7.487,34.112C9.983,36.004 12.907,37.251 16,37.74L16,40.98C16,42.011 16.226,43.029 16.663,43.962C17.1,44.895 17.738,45.721 18.53,46.38C19.776,47.425 21.349,47.998 22.974,48C23.389,47.999 23.803,47.962 24.21,47.888C38.44,45.304 48,34.5 48,21C47.987,19.147 47.246,17.374 45.936,16.065C44.626,14.755 42.853,14.013 41,14L41,14Z" fill="#374957"/>
</svg>
