<svg width="48" height="44" viewBox="0 0 48 44" fill="none" xmlns="http://www.w3.org/2000/svg" xmlns:xlink="http://www.w3.org/1999/xlink">
<path d="M24,0C18.898,-0.002 13.929,1.623 9.813,4.638C5.698,7.653 2.651,11.902 1.115,16.767C-0.421,21.632 -0.366,26.861 1.272,31.692C2.91,36.524 6.046,40.708 10.224,43.636L10.742,44L37.258,44L37.776,43.636C41.954,40.708 45.09,36.524 46.728,31.692C48.366,26.861 48.421,21.632 46.885,16.767C45.349,11.902 42.302,7.653 38.187,4.638C34.072,1.623 29.102,-0.002 24,0L24,0ZM12.12,37.502C8.848,34.64 6.724,30.689 6.141,26.38C5.559,22.072 6.557,17.699 8.952,14.071C11.347,10.443 14.976,7.805 19.166,6.647C23.356,5.49 27.824,5.89 31.742,7.774L28.69,10.826C27.186,10.282 25.599,10.002 24,10C21.155,9.996 18.376,10.861 16.036,12.478C13.695,14.095 11.903,16.388 10.899,19.05C9.895,21.713 9.728,24.618 10.418,27.378C11.109,30.138 12.625,32.622 14.764,34.498L12.12,37.502ZM24,28C23.427,28.007 22.858,27.891 22.334,27.66C21.809,27.429 21.34,27.087 20.959,26.659C20.578,26.231 20.293,25.725 20.125,25.177C19.956,24.629 19.907,24.051 19.981,23.483C20.055,22.914 20.251,22.368 20.554,21.882C20.858,21.395 21.263,20.98 21.741,20.664C22.219,20.347 22.76,20.137 23.326,20.048C23.893,19.959 24.472,19.993 25.024,20.148L34.586,10.586L37.414,13.414L27.852,22.976C28.019,23.567 28.045,24.189 27.929,24.793C27.814,25.397 27.559,25.965 27.185,26.453C26.811,26.94 26.328,27.334 25.775,27.603C25.222,27.871 24.615,28.007 24,28L24,28ZM35.88,37.502L33.236,34.502C35.347,32.662 36.853,30.227 37.555,27.517C38.258,24.807 38.125,21.947 37.174,19.314L40.226,16.262C41.925,19.79 42.421,23.778 41.635,27.615C40.85,31.451 38.829,34.924 35.88,37.502L35.88,37.502Z" fill="#374957"/>
</svg>
