<svg width="48" height="46" viewBox="0 0 48 46" fill="none" xmlns="http://www.w3.org/2000/svg" xmlns:xlink="http://www.w3.org/1999/xlink">
<path d="M22,44.001C22,43.605 22.117,43.218 22.337,42.889C22.556,42.561 22.869,42.304 23.234,42.153C23.6,42.001 24.002,41.962 24.39,42.039C24.778,42.116 25.134,42.307 25.414,42.586C25.694,42.866 25.884,43.222 25.961,43.61C26.038,43.998 25.999,44.4 25.847,44.766C25.696,45.131 25.44,45.444 25.111,45.664C24.782,45.883 24.395,46.001 24,46.001C23.469,46.001 22.96,45.79 22.585,45.415C22.21,45.04 22,44.531 22,44.001ZM31.07,36.929C29.194,35.054 26.651,34.001 24,34.001C21.348,34.001 18.805,35.054 16.93,36.929L19.758,39.757C20.901,38.667 22.42,38.059 24,38.059C25.579,38.059 27.098,38.667 28.242,39.757L31.07,36.929ZM36.728,31.273C33.349,27.902 28.772,26.009 24,26.009C19.227,26.009 14.65,27.902 11.272,31.273L14.1,34.101C16.728,31.48 20.288,30.009 24,30.009C27.711,30.009 31.271,31.48 33.9,34.101L36.728,31.273ZM35.58,12.419C34.687,8.601 32.424,5.243 29.219,2.984C26.015,0.724 22.092,-0.28 18.196,0.162C14.3,0.604 10.702,2.461 8.085,5.381C5.468,8.301 4.014,12.08 4,16.001C3.998,18.557 4.615,21.077 5.8,23.343C3.642,24.499 1.932,26.343 0.943,28.582C-0.047,30.821 -0.26,33.327 0.338,35.701C0.936,38.075 2.309,40.181 4.241,41.685C6.173,43.189 8.552,44.004 11,44.001L18,44.001C18,43.895 18.026,43.801 18.032,43.689L14.344,40.001L11,40.001C9.297,40.006 7.65,39.388 6.371,38.264C5.091,37.14 4.267,35.587 4.052,33.897C3.838,32.208 4.249,30.498 5.207,29.09C6.165,27.682 7.605,26.673 9.256,26.253L12.056,25.529L12.112,25.497L10.356,23.127C8.821,21.068 7.994,18.568 8,16.001C8.026,12.975 9.194,10.071 11.27,7.87C13.347,5.669 16.178,4.333 19.197,4.131C22.216,3.929 25.2,4.875 27.551,6.779C29.903,8.683 31.448,11.405 31.878,14.401L32.078,15.917L33.596,16.117C36.456,16.499 39.082,17.901 40.992,20.065C42.901,22.228 43.966,25.008 43.991,27.894C44.015,30.779 42.997,33.577 41.124,35.773C39.251,37.968 36.649,39.414 33.796,39.845L29.958,43.685C29.958,43.791 29.99,43.885 29.99,43.997L31.99,43.997C35.91,43.982 39.688,42.529 42.608,39.912C45.527,37.296 47.384,33.699 47.827,29.804C48.27,25.909 47.267,21.987 45.01,18.782C42.752,15.577 39.396,13.313 35.58,12.419L35.58,12.419Z" fill="#374957"/>
</svg>
