<svg width="50" height="50" viewBox="0 0 50 50" fill="none" xmlns="http://www.w3.org/2000/svg" xmlns:xlink="http://www.w3.org/1999/xlink">
<path d="M26,44L11,44C8.552,44.003 6.173,43.188 4.241,41.684C2.309,40.181 0.936,38.074 0.338,35.7C-0.26,33.327 -0.047,30.821 0.943,28.582C1.932,26.343 3.642,24.499 5.8,23.342C4.615,21.076 3.998,18.557 4,16C4.012,12.078 5.465,8.297 8.082,5.375C10.7,2.454 14.299,0.595 18.196,0.153C22.094,-0.289 26.018,0.716 29.223,2.977C32.428,5.239 34.691,8.598 35.582,12.418C38.197,13.022 40.617,14.275 42.62,16.062C42.41,16.05 42.212,16 42,16C39.659,16.003 37.393,16.826 35.595,18.326C33.798,19.826 32.582,21.908 32.16,24.21L30.466,25.058C29.08,24.361 27.551,23.998 26,24C23.347,24 20.804,25.054 18.929,26.929C17.053,28.805 16,31.348 16,34C16,36.652 17.053,39.196 18.929,41.071C20.804,42.947 23.347,44 26,44L26,44ZM42,32C43.186,32 44.346,31.648 45.333,30.989C46.32,30.33 47.089,29.393 47.543,28.296C47.997,27.2 48.116,25.994 47.884,24.83C47.653,23.666 47.081,22.597 46.242,21.758C45.403,20.918 44.334,20.347 43.17,20.116C42.006,19.884 40.8,20.003 39.704,20.457C38.607,20.911 37.67,21.68 37.011,22.667C36.352,23.654 36,24.814 36,26C36.009,26.244 36.034,26.486 36.074,26.726L30.154,29.688C29.307,28.869 28.238,28.317 27.079,28.101C25.921,27.886 24.725,28.016 23.64,28.476C22.555,28.936 21.63,29.705 20.979,30.687C20.328,31.67 19.982,32.822 19.982,34C19.982,35.178 20.328,36.331 20.979,37.313C21.63,38.295 22.555,39.065 23.64,39.524C24.725,39.984 25.921,40.115 27.079,39.899C28.238,39.683 29.307,39.132 30.154,38.312L36.074,41.274C36.034,41.514 36.009,41.757 36,42C35.993,43.392 36.467,44.743 37.343,45.825C38.218,46.906 39.441,47.652 40.803,47.935C42.166,48.218 43.584,48.021 44.818,47.377C46.052,46.733 47.025,45.683 47.573,44.404C48.121,43.124 48.209,41.695 47.823,40.358C47.437,39.021 46.601,37.859 45.455,37.068C44.31,36.278 42.927,35.907 41.54,36.02C40.153,36.133 38.848,36.723 37.846,37.688L31.926,34.726C31.966,34.486 31.99,34.244 32,34C31.99,33.757 31.966,33.514 31.926,33.274L37.846,30.312C38.958,31.393 40.448,31.998 42,32Z" fill="#374957"/>
</svg>
