<svg width="36" height="48" viewBox="0 0 36 48" fill="none" xmlns="http://www.w3.org/2000/svg" xmlns:xlink="http://www.w3.org/1999/xlink">
<path d="M32,4L32,0L28,0L28,4L24,4L24,0L20,0L20,4L16,4L16,0L12,0L12,4L8,4L8,0L4,0L4,4L0,4L0,42C0,43.591 0.632,45.117 1.757,46.243C2.883,47.368 4.409,48 6,48L30,48C31.591,48 33.117,47.368 34.243,46.243C35.368,45.117 36,43.591 36,42L36,4L32,4ZM32,42C32,42.53 31.789,43.039 31.414,43.414C31.039,43.789 30.53,44 30,44L6,44C5.47,44 4.961,43.789 4.586,43.414C4.211,43.039 4,42.53 4,42L4,8L32,8L32,42ZM28,18L8,18L8,14L28,14L28,18ZM28,26L8,26L8,22L28,22L28,26ZM20,34L8,34L8,30L20,30L20,34Z" fill="#374957"/>
</svg>
