<svg width="36" height="48" viewBox="0 0 36 48" fill="none" xmlns="http://www.w3.org/2000/svg" xmlns:xlink="http://www.w3.org/1999/xlink">
<path d="M18.001,0C8.416,0 0.617,7.798 0.617,17.384C0.617,29.279 16.174,46.743 16.836,47.481C17.458,48.174 18.545,48.172 19.166,47.481C19.828,46.743 35.385,29.279 35.385,17.384C35.385,7.798 27.586,0 18.001,0ZM18.001,26.13C13.178,26.13 9.255,22.206 9.255,17.384C9.255,12.561 13.178,8.638 18.001,8.638C22.824,8.638 26.747,12.561 26.747,17.384C26.747,22.206 22.824,26.13 18.001,26.13Z" fill="#000000"/>
</svg>
