<svg width="48" height="42" viewBox="0 0 48 42" fill="none" xmlns="http://www.w3.org/2000/svg" xmlns:xlink="http://www.w3.org/1999/xlink">
<path d="M3,40.898C2.204,40.898 1.441,40.582 0.879,40.019C0.316,39.457 0,38.694 0,37.898L0,25.898C0.006,20.861 2.009,16.031 5.571,12.469C9.133,8.907 13.963,6.904 19,6.898L26.328,6.898L26.328,3.536C26.328,2.646 26.596,1.777 27.097,1.042C27.598,0.307 28.309,-0.26 29.137,-0.585C29.965,-0.911 30.872,-0.979 31.739,-0.782C32.607,-0.584 33.394,-0.13 34,0.522L46.434,13.912C47.434,14.998 47.99,16.421 47.99,17.897C47.99,19.374 47.434,20.796 46.434,21.882L34,35.272C33.395,35.925 32.607,36.379 31.739,36.577C30.871,36.775 29.964,36.707 29.135,36.382C28.307,36.056 27.596,35.489 27.094,34.753C26.593,34.018 26.326,33.148 26.326,32.258L26.326,28.898L15,28.898C12.613,28.898 10.324,29.846 8.636,31.534C6.948,33.222 6,35.511 6,37.898C6,38.694 5.684,39.457 5.121,40.019C4.559,40.582 3.796,40.898 3,40.898L3,40.898ZM15,22.898L29.328,22.898C30.124,22.898 30.887,23.214 31.449,23.777C32.012,24.339 32.328,25.102 32.328,25.898L32.328,28.256L42.038,17.8L32.328,7.494L32.328,9.894C32.328,10.69 32.012,11.453 31.449,12.015C30.887,12.578 30.124,12.894 29.328,12.894L19,12.894C15.553,12.898 12.249,14.269 9.812,16.706C7.375,19.143 6.004,22.448 6,25.894L6,25.894C8.594,23.943 11.754,22.891 15,22.898ZM29.6,4.6L29.616,4.616L29.6,4.6Z" fill="#374957"/>
</svg>
