<svg width="40" height="48" viewBox="0 0 40 48" fill="none" xmlns="http://www.w3.org/2000/svg" xmlns:xlink="http://www.w3.org/1999/xlink">
<path d="M0,0L0,42C0,43.591 0.632,45.117 1.757,46.243C2.883,47.368 4.409,48 6,48L34,48C35.591,48 37.117,47.368 38.243,46.243C39.368,45.117 40,43.591 40,42L40,0L0,0ZM36,4L36,34L4,34L4,4L36,4ZM34,44L6,44C5.47,44 4.961,43.789 4.586,43.414C4.211,43.039 4,42.53 4,42L4,38L18,38L18,42L22,42L22,38L36,38L36,42C36,42.53 35.789,43.039 35.414,43.414C35.039,43.789 34.53,44 34,44Z" fill="#374957"/>
</svg>
