<svg width="40" height="48" viewBox="0 0 40 48" fill="none" xmlns="http://www.w3.org/2000/svg" xmlns:xlink="http://www.w3.org/1999/xlink">
<path d="M29.304,31.096C29.806,31.705 30.048,32.487 29.977,33.274C29.907,34.06 29.529,34.786 28.926,35.296C26.959,36.913 24.528,37.86 21.986,38C20.378,37.984 18.83,37.386 17.628,36.318C17.478,36.193 17.32,36.076 17.156,35.97C16.35,36.266 15.604,36.705 14.956,37.268C14.354,37.777 13.576,38.028 12.79,37.968C12.004,37.908 11.274,37.54 10.756,36.946C10.239,36.351 9.976,35.577 10.025,34.79C10.074,34.004 10.431,33.268 11.018,32.742C12.751,31.177 14.945,30.215 17.27,30C18.773,30.029 20.215,30.597 21.334,31.6C21.846,32 21.874,32 21.986,32C23.123,31.865 24.199,31.41 25.088,30.688C25.702,30.184 26.49,29.944 27.28,30.021C28.071,30.097 28.798,30.484 29.304,31.096L29.304,31.096ZM27,20L13,20C12.204,20 11.441,20.316 10.879,20.879C10.316,21.441 10,22.204 10,23C10,23.796 10.316,24.559 10.879,25.121C11.441,25.684 12.204,26 13,26L27,26C27.796,26 28.559,25.684 29.121,25.121C29.684,24.559 30,23.796 30,23C30,22.204 29.684,21.441 29.121,20.879C28.559,20.316 27.796,20 27,20L27,20ZM40,14.314L40,37C39.997,39.916 38.837,42.712 36.775,44.775C34.712,46.837 31.916,47.997 29,48L11,48C8.084,47.997 5.288,46.837 3.225,44.775C1.163,42.712 0.003,39.916 0,37L0,11C0.003,8.084 1.163,5.288 3.225,3.225C5.288,1.163 8.084,0.003 11,0L25.686,0C27.131,-0.004 28.563,0.279 29.898,0.832C31.233,1.385 32.445,2.197 33.464,3.222L36.778,6.536C37.803,7.555 38.615,8.767 39.168,10.102C39.721,11.437 40.004,12.869 40,14.314L40,14.314ZM34,37L34,14L30,14C28.939,14 27.922,13.579 27.172,12.828C26.421,12.078 26,11.061 26,10L26,6L11,6C9.674,6 8.402,6.527 7.464,7.465C6.527,8.402 6,9.674 6,11L6,37C6,38.326 6.527,39.598 7.464,40.536C8.402,41.473 9.674,42 11,42L29,42C30.326,42 31.598,41.473 32.536,40.536C33.473,39.598 34,38.326 34,37Z" fill="#374957"/>
</svg>
