<svg width="40" height="50" viewBox="0 0 40 50" fill="none" xmlns="http://www.w3.org/2000/svg" xmlns:xlink="http://www.w3.org/1999/xlink">
<path d="M27.874,16.565C28.168,18.216 27.939,19.917 27.218,21.431C26.498,22.945 25.322,24.196 23.856,25.009C23.31,25.422 22.86,25.95 22.539,26.555C22.219,27.161 22.035,27.829 22,28.513L22,29.999L18,29.999L18,28.513C18.038,27.116 18.414,25.748 19.098,24.529C19.782,23.309 20.751,22.274 21.924,21.513C22.665,21.107 23.258,20.478 23.619,19.714C23.98,18.951 24.091,18.093 23.934,17.263C23.78,16.472 23.393,15.744 22.823,15.174C22.253,14.604 21.525,14.217 20.734,14.063C20.156,13.955 19.562,13.976 18.993,14.124C18.424,14.272 17.895,14.544 17.443,14.919C16.991,15.295 16.627,15.766 16.378,16.298C16.128,16.831 15.999,17.411 16,17.999L12,17.999C11.999,16.831 12.254,15.676 12.748,14.617C13.242,13.559 13.962,12.621 14.858,11.871C15.931,10.97 17.221,10.366 18.601,10.121C19.98,9.875 21.399,9.996 22.717,10.471C24.035,10.947 25.205,11.76 26.11,12.829C27.015,13.898 27.623,15.187 27.874,16.565ZM40,10.933L40,23.981C40,38.855 25.906,45.679 21.586,47.415L19.916,48.087L18.316,47.287C14.01,45.133 0,37.107 0,23.981L0,10.933C0,9.674 0.396,8.447 1.134,7.426C1.872,6.406 2.912,5.644 4.108,5.249L20,-0.021L35.892,5.249C37.088,5.644 38.128,6.406 38.866,7.426C39.604,8.447 40,9.674 40,10.933L40,10.933ZM36,10.933C35.998,10.515 35.865,10.108 35.62,9.769C35.374,9.43 35.029,9.177 34.632,9.045L20,4.199L5.368,9.045C4.971,9.177 4.626,9.43 4.38,9.769C4.135,10.108 4.002,10.515 4,10.933L4,23.981C4,34.813 16.318,41.815 20.094,43.705C23.826,42.199 36,36.347 36,23.981L36,10.933ZM18,37.999L22,37.999L22,33.999L18,33.999L18,37.999Z" fill="#374957"/>
</svg>
