<svg width="48" height="42" viewBox="0 0 48 42" fill="none" xmlns="http://www.w3.org/2000/svg" xmlns:xlink="http://www.w3.org/1999/xlink">
<path d="M42,21.11L42,17.988C42,13.214 40.104,8.636 36.728,5.26C33.352,1.885 28.774,-0.012 24,-0.012C19.226,-0.012 14.648,1.885 11.272,5.26C7.896,8.636 6,13.214 6,17.988L6,21.11C4.207,21.976 2.694,23.328 1.633,25.012C0.572,26.697 0.006,28.645 0,30.636L0,31.364C0.003,34.184 1.125,36.888 3.119,38.881C5.113,40.875 7.816,41.997 10.636,42L11,42C12.326,42 13.598,41.473 14.536,40.536C15.473,39.598 16,38.326 16,37L16,25C16,23.848 15.602,22.731 14.873,21.839C14.144,20.946 13.129,20.333 12,20.102L12,17.988C12,14.806 13.264,11.753 15.515,9.503C17.765,7.253 20.817,5.988 24,5.988C27.183,5.988 30.235,7.253 32.485,9.503C34.736,11.753 36,14.806 36,17.988L36,20.102C34.871,20.333 33.856,20.946 33.127,21.839C32.398,22.731 32,23.848 32,25L32,37C32,38.326 32.527,39.598 33.464,40.536C34.402,41.473 35.674,42 37,42L37.364,42C40.184,41.997 42.887,40.875 44.881,38.881C46.875,36.888 47.997,34.184 48,31.364L48,30.636C47.994,28.645 47.428,26.697 46.367,25.012C45.306,23.328 43.793,21.976 42,21.11ZM10,35.956C8.89,35.801 7.874,35.25 7.139,34.405C6.404,33.559 5.999,32.477 6,31.356L6,30.628C5.999,29.508 6.404,28.425 7.139,27.58C7.874,26.734 8.89,26.183 10,26.028L10,35.956ZM42,31.356C42.001,32.477 41.596,33.559 40.861,34.405C40.126,35.25 39.11,35.801 38,35.956L38,26.044C39.11,26.199 40.126,26.75 40.861,27.596C41.596,28.441 42.001,29.524 42,30.644L42,31.356Z" fill="#374957"/>
</svg>
