<svg width="48" height="50" viewBox="0 0 48 50" fill="none" xmlns="http://www.w3.org/2000/svg" xmlns:xlink="http://www.w3.org/1999/xlink">
<path d="M45,38L30.298,38C29.607,36.557 28.443,35.393 27,34.702L27,28L42.308,28C43.287,27.999 44.226,27.61 44.918,26.918C45.61,26.226 45.999,25.287 46,24.308L46,22C46,20.939 45.579,19.922 44.828,19.172C44.078,18.421 43.061,18 42,18L42,9C41.997,6.614 41.048,4.326 39.361,2.639C37.674,0.952 35.386,0.003 33,0L15,0C12.614,0.003 10.326,0.952 8.639,2.639C6.952,4.326 6.003,6.614 6,9L6,18C4.939,18 3.922,18.421 3.172,19.172C2.421,19.922 2,20.939 2,22L2,24.308C2.001,25.287 2.39,26.226 3.082,26.918C3.774,27.61 4.713,27.999 5.692,28L21,28L21,34.702C19.557,35.393 18.393,36.557 17.702,38L3,38C2.204,38 1.441,38.316 0.879,38.879C0.316,39.441 0,40.204 0,41C0,41.796 0.316,42.559 0.879,43.121C1.441,43.684 2.204,44 3,44L17.702,44C18.263,45.197 19.154,46.209 20.27,46.919C21.385,47.628 22.68,48.004 24.002,48.004C25.324,48.004 26.619,47.628 27.734,46.919C28.85,46.209 29.741,45.197 30.302,44L45,44C45.796,44 46.559,43.684 47.121,43.121C47.684,42.559 48,41.796 48,41C48,40.204 47.684,39.441 47.121,38.879C46.559,38.316 45.796,38 45,38ZM17.868,19.356L17.21,18.644C17.023,18.441 16.795,18.279 16.542,18.168C16.289,18.057 16.016,18 15.74,18L12,18L12,9C12,8.204 12.316,7.441 12.879,6.879C13.441,6.316 14.204,6 15,6L33,6C33.796,6 34.559,6.316 35.121,6.879C35.684,7.441 36,8.204 36,9L36,18L32.26,18C31.984,18 31.711,18.057 31.458,18.168C31.205,18.279 30.977,18.441 30.79,18.644L30.132,19.356C29.945,19.559 29.717,19.721 29.464,19.832C29.211,19.943 28.938,20 28.662,20L19.338,20C19.062,20 18.789,19.943 18.536,19.832C18.283,19.721 18.055,19.559 17.868,19.356L17.868,19.356Z" fill="#374957"/>
</svg>
