<svg width="50" height="44" viewBox="0 0 50 44" fill="none" xmlns="http://www.w3.org/2000/svg" xmlns:xlink="http://www.w3.org/1999/xlink">
<path d="M20,-0.001L3,-0.001C2.204,-0.001 1.441,0.315 0.879,0.877C0.316,1.44 0,2.203 0,2.999C0,3.794 0.316,4.557 0.879,5.12C1.441,5.683 2.204,5.999 3,5.999L5.96,5.999L5.96,11.999L3,11.999C2.204,11.999 1.441,12.315 0.879,12.877C0.316,13.44 0,14.203 0,14.999C0,15.794 0.316,16.557 0.879,17.12C1.441,17.683 2.204,17.999 3,17.999L39.102,17.999C40.303,19.909 41.26,21.961 41.952,24.109C42.093,24.555 42.126,25.029 42.048,25.491C41.97,25.952 41.784,26.389 41.504,26.765C41.225,27.148 40.859,27.46 40.436,27.674C40.014,27.889 39.546,28 39.072,27.999L3,27.999C2.204,27.999 1.441,28.315 0.879,28.877C0.316,29.44 0,30.203 0,30.999C0,31.794 0.316,32.558 0.879,33.12C1.441,33.683 2.204,33.999 3,33.999L39.072,33.999C40.484,34 41.877,33.669 43.138,33.033C44.399,32.396 45.492,31.471 46.33,30.334C47.167,29.196 47.725,27.878 47.958,26.485C48.191,25.091 48.093,23.663 47.672,22.315C44.2,11.225 33.576,-0.001 20,-0.001ZM24,6.453C27.811,7.383 31.312,9.295 34.154,11.999L24,11.999L24,6.453ZM11.96,5.999L18,5.999L18,11.999L11.96,11.999L11.96,5.999ZM48,40.999C48,41.794 47.684,42.558 47.121,43.12C46.559,43.683 45.796,43.999 45,43.999L3,43.999C2.204,43.999 1.441,43.683 0.879,43.12C0.316,42.558 0,41.794 0,40.999C0,40.203 0.316,39.44 0.879,38.877C1.441,38.315 2.204,37.999 3,37.999L45,37.999C45.796,37.999 46.559,38.315 47.121,38.877C47.684,39.44 48,40.203 48,40.999Z" fill="#374957"/>
</svg>
