<svg width="48" height="44" viewBox="0 0 48 44" fill="none" xmlns="http://www.w3.org/2000/svg" xmlns:xlink="http://www.w3.org/1999/xlink">
<path d="M43.999,44L3.999,44L3.999,17.958C2.338,16.694 1.113,14.941 0.498,12.945C-0.117,10.949 -0.092,8.811 0.57,6.831C1.232,4.85 2.497,3.127 4.188,1.902C5.879,0.677 7.911,0.012 9.999,0L37.999,0C40.087,0.012 42.119,0.677 43.811,1.902C45.502,3.127 46.767,4.85 47.428,6.831C48.09,8.811 48.115,10.949 47.5,12.945C46.885,14.941 45.661,16.694 43.999,17.958L43.999,44ZM7.999,40L39.999,40L39.999,15.74L40.999,15.162C42.126,14.494 43.004,13.476 43.498,12.263C43.992,11.049 44.076,9.708 43.736,8.442C43.396,7.177 42.651,6.058 41.615,5.256C40.579,4.454 39.309,4.013 37.999,4L9.999,4C8.689,4.013 7.419,4.454 6.384,5.256C5.348,6.058 4.603,7.177 4.263,8.442C3.923,9.708 4.006,11.049 4.5,12.263C4.994,13.476 5.872,14.494 6.999,15.162L7.999,15.74L7.999,40ZM15.999,22C15.469,22 14.96,22.211 14.585,22.586C14.21,22.961 13.999,23.47 13.999,24C13.999,24.53 14.21,25.039 14.585,25.414C14.96,25.789 15.469,26 15.999,26C16.53,26 17.038,25.789 17.414,25.414C17.789,25.039 17.999,24.53 17.999,24C17.999,23.47 17.789,22.961 17.414,22.586C17.038,22.211 16.53,22 15.999,22L15.999,22ZM23.999,30C23.469,30 22.96,30.211 22.585,30.586C22.21,30.961 21.999,31.47 21.999,32C21.999,32.53 22.21,33.039 22.585,33.414C22.96,33.789 23.469,34 23.999,34C24.53,34 25.038,33.789 25.413,33.414C25.788,33.039 25.999,32.53 25.999,32C25.999,31.47 25.788,30.961 25.413,30.586C25.038,30.211 24.53,30 23.999,30ZM15.999,30C15.469,30 14.96,30.211 14.585,30.586C14.21,30.961 13.999,31.47 13.999,32C13.999,32.53 14.21,33.039 14.585,33.414C14.96,33.789 15.469,34 15.999,34C16.53,34 17.038,33.789 17.414,33.414C17.789,33.039 17.999,32.53 17.999,32C17.999,31.47 17.789,30.961 17.414,30.586C17.038,30.211 16.53,30 15.999,30L15.999,30Z" fill="#374957"/>
</svg>
