<svg width="48" height="44" viewBox="0 0 48 44" fill="none" xmlns="http://www.w3.org/2000/svg" xmlns:xlink="http://www.w3.org/1999/xlink">
<path d="M46,36.185L46,30.001C45.991,24.691 44.064,19.563 40.572,15.563C37.08,11.562 32.26,8.958 27,8.231L27,6.621C27.506,6.044 27.835,5.334 27.947,4.576C28.06,3.817 27.951,3.042 27.635,2.344C27.318,1.645 26.807,1.053 26.162,0.637C25.518,0.222 24.767,0 24,0C23.233,0 22.483,0.222 21.838,0.637C21.194,1.053 20.682,1.645 20.366,2.344C20.049,3.042 19.941,3.817 20.053,4.576C20.166,5.334 20.495,6.044 21,6.621L21,8.231C15.74,8.958 10.92,11.562 7.429,15.563C3.937,19.563 2.009,24.691 2,30.001L2,36.185C1.342,36.427 0.788,36.892 0.437,37.499C0.086,38.107 -0.041,38.818 0.078,39.51C0.196,40.201 0.554,40.829 1.088,41.284C1.622,41.739 2.299,41.993 3,42.001L45,42.001C45.702,41.993 46.379,41.739 46.912,41.284C47.446,40.829 47.804,40.201 47.923,39.51C48.042,38.818 47.915,38.107 47.563,37.499C47.212,36.892 46.659,36.427 46,36.185L46,36.185ZM24,14.001C28.242,14.006 32.309,15.693 35.309,18.693C38.308,21.692 39.995,25.759 40,30.001L40,36.001L8,36.001L8,30.001C8.005,25.759 9.692,21.692 12.692,18.693C15.691,15.693 19.758,14.006 24,14.001L24,14.001Z" fill="#374957"/>
</svg>
