<svg width="48" height="48" viewBox="0 0 48 48" fill="none" xmlns="http://www.w3.org/2000/svg" xmlns:xlink="http://www.w3.org/1999/xlink">
<path d="M13.704,46.875C12.177,46.868 10.692,46.378 9.462,45.475C8.204,44.59 7.266,43.323 6.786,41.862C6.307,40.401 6.311,38.824 6.8,37.367L9.14,30.129L2.98,25.625C1.745,24.722 0.827,23.452 0.357,21.996C-0.113,20.541 -0.11,18.974 0.365,17.52C0.84,16.066 1.763,14.799 3.001,13.901C4.239,13.003 5.73,12.52 7.26,12.521L14.8,12.521L17.09,5.381C17.56,3.918 18.482,2.643 19.723,1.739C20.964,0.834 22.46,0.346 23.996,0.346C25.532,0.346 27.028,0.834 28.269,1.739C29.51,2.643 30.432,3.918 30.902,5.381L30.902,5.381L33.2,12.521L40.74,12.521C42.269,12.52 43.76,13.004 44.998,13.902C46.236,14.8 47.158,16.067 47.633,17.521C48.107,18.975 48.11,20.541 47.64,21.997C47.171,23.453 46.253,24.722 45.018,25.625L38.86,30.129L41.2,37.367C41.672,38.827 41.668,40.399 41.19,41.857C40.712,43.315 39.783,44.583 38.539,45.48C37.294,46.377 35.796,46.856 34.262,46.848C32.728,46.84 31.235,46.346 30,45.437L24,41.025L18,45.439C16.758,46.365 15.253,46.868 13.704,46.875L13.704,46.875ZM7.26,18.521C6.996,18.521 6.739,18.604 6.525,18.759C6.311,18.914 6.152,19.132 6.07,19.383C5.988,19.634 5.987,19.905 6.068,20.156C6.149,20.407 6.307,20.627 6.52,20.783L14.432,26.565C14.941,26.937 15.32,27.461 15.515,28.061C15.709,28.662 15.71,29.308 15.516,29.909L12.516,39.209C12.433,39.461 12.432,39.733 12.513,39.986C12.595,40.239 12.755,40.459 12.97,40.615C13.185,40.771 13.444,40.854 13.71,40.853C13.976,40.852 14.234,40.766 14.448,40.609L22.226,34.887C22.741,34.507 23.364,34.303 24.004,34.303C24.643,34.303 25.266,34.507 25.782,34.887L33.56,40.607C33.773,40.766 34.032,40.852 34.298,40.854C34.565,40.856 34.825,40.773 35.04,40.616C35.256,40.46 35.416,40.239 35.497,39.986C35.578,39.732 35.576,39.459 35.492,39.207L32.492,29.907C32.298,29.306 32.298,28.66 32.493,28.059C32.687,27.459 33.066,26.935 33.576,26.563L41.486,20.781C41.699,20.625 41.857,20.406 41.938,20.154C42.018,19.903 42.018,19.633 41.936,19.382C41.854,19.131 41.695,18.913 41.482,18.758C41.269,18.603 41.012,18.519 40.748,18.519L31,18.519C30.364,18.518 29.745,18.317 29.232,17.942C28.719,17.567 28.338,17.04 28.144,16.435L25.2,7.213C25.119,6.96 24.96,6.74 24.745,6.584C24.531,6.428 24.273,6.344 24.008,6.344C23.743,6.344 23.484,6.428 23.27,6.584C23.056,6.74 22.897,6.96 22.816,7.213L19.85,16.437C19.656,17.041 19.276,17.568 18.764,17.942C18.252,18.317 17.634,18.519 17,18.521L7.26,18.521Z" fill="#374957"/>
</svg>
