<svg width="48" height="48" viewBox="0 0 48 48" fill="none" xmlns="http://www.w3.org/2000/svg" xmlns:xlink="http://www.w3.org/1999/xlink">
<path d="M37,6L35.716,6C35.274,4.288 34.277,2.77 32.881,1.685C31.485,0.599 29.768,0.007 28,0L20,0C18.232,0.007 16.515,0.599 15.119,1.685C13.723,2.77 12.726,4.288 12.284,6L11,6C8.084,6.003 5.288,7.163 3.225,9.225C1.163,11.288 0.003,14.084 0,17L0,37C0.003,39.916 1.163,42.712 3.225,44.775C5.288,46.837 8.084,47.997 11,48L37,48C39.916,47.996 42.712,46.836 44.774,44.774C46.836,42.712 47.996,39.916 48,37L48,17C47.996,14.084 46.836,11.288 44.774,9.226C42.712,7.164 39.916,6.004 37,6L37,6ZM11,12L37,12C38.326,12 39.598,12.527 40.536,13.464C41.473,14.402 42,15.674 42,17L42,22L6,22L6,17C6,15.674 6.527,14.402 7.464,13.464C8.402,12.527 9.674,12 11,12L11,12ZM37,42L11,42C9.674,42 8.402,41.473 7.464,40.536C6.527,39.598 6,38.326 6,37L6,28L20,28C20,29.061 20.421,30.078 21.172,30.828C21.922,31.579 22.939,32 24,32C25.061,32 26.078,31.579 26.828,30.828C27.579,30.078 28,29.061 28,28L42,28L42,37C42,38.326 41.473,39.598 40.536,40.536C39.598,41.473 38.326,42 37,42Z" fill="#374957"/>
</svg>
