<svg width="44" height="24" viewBox="0 0 44 24" fill="none" xmlns="http://www.w3.org/2000/svg" xmlns:xlink="http://www.w3.org/1999/xlink">
<path d="M24,4C26.659,4.005 29.29,4.538 31.742,5.568C34.193,6.598 36.415,8.104 38.28,10L30,10L30,14L40.286,14C41.271,13.999 42.215,13.607 42.911,12.911C43.607,12.215 43.999,11.271 44,10.286L44,0L40,0L40,6.12C36.547,3.032 32.275,1.009 27.698,0.295C23.121,-0.419 18.435,0.208 14.206,2.098C9.977,3.988 6.385,7.062 3.865,10.949C1.344,14.835 0.002,19.368 0,24L4,24C4.006,18.697 6.115,13.614 9.864,9.864C13.614,6.115 18.697,4.006 24,4L24,4Z" fill="#374957"/>
</svg>
