<svg width="26" height="32" viewBox="0 0 26 32" fill="none" xmlns="http://www.w3.org/2000/svg" xmlns:xlink="http://www.w3.org/1999/xlink">
<path d="M24.122,9.05L16.95,1.878C15.617,0.605 13.844,-0.105 12,-0.105C10.157,-0.105 8.384,0.605 7.05,1.878L-0.122,9.05C-0.684,9.613 -1,10.376 -1,11.172C-1,11.967 -0.684,12.73 -0.121,13.293C0.442,13.855 1.205,14.171 2.001,14.171C2.797,14.171 3.56,13.855 4.122,13.292L9,8.414L9,28C9,28.796 9.316,29.559 9.879,30.121C10.442,30.684 11.205,31 12,31C12.796,31 13.559,30.684 14.122,30.121C14.684,29.559 15,28.796 15,28L15,8.414L19.878,13.292C20.157,13.571 20.487,13.792 20.851,13.942C21.215,14.093 21.606,14.171 22,14.171C22.394,14.171 22.784,14.094 23.148,13.943C23.512,13.792 23.843,13.571 24.121,13.293C24.4,13.014 24.621,12.684 24.772,12.32C24.923,11.956 25,11.566 25.001,11.172C25.001,10.778 24.923,10.387 24.772,10.023C24.622,9.659 24.401,9.329 24.122,9.05Z" fill="#374957"/>
</svg>
