<svg width="32" height="48" viewBox="0 0 32 48" fill="none" xmlns="http://www.w3.org/2000/svg" xmlns:xlink="http://www.w3.org/1999/xlink">
<path d="M32,16C32.006,13.41 31.382,10.857 30.184,8.56C28.985,6.264 27.247,4.293 25.118,2.817C22.989,1.341 20.534,0.404 17.964,0.086C15.393,-0.232 12.784,0.079 10.36,0.992C7.936,1.905 5.769,3.393 4.047,5.328C2.326,7.263 1.099,9.587 0.474,12.101C-0.152,14.615 -0.158,17.243 0.456,19.759C1.071,22.275 2.287,24.605 4,26.548L4,43C4,43.942 4.266,44.864 4.767,45.662C5.269,46.459 5.985,47.099 6.834,47.506C7.683,47.914 8.63,48.074 9.566,47.968C10.502,47.861 11.389,47.492 12.124,46.904L16,43.8L19.876,46.9C20.611,47.488 21.497,47.857 22.433,47.964C23.368,48.07 24.315,47.911 25.164,47.503C26.013,47.096 26.729,46.457 27.231,45.66C27.733,44.864 27.999,43.941 28,43L28,26.548C30.577,23.638 31.999,19.886 32,16L32,16ZM16,4C18.373,4 20.693,4.704 22.667,6.022C24.64,7.341 26.178,9.215 27.087,11.408C27.995,13.6 28.232,16.013 27.769,18.341C27.306,20.669 26.163,22.807 24.485,24.485C22.807,26.163 20.669,27.306 18.341,27.769C16.013,28.232 13.6,27.995 11.408,27.086C9.215,26.178 7.341,24.64 6.022,22.667C4.704,20.693 4,18.373 4,16C4.003,12.818 5.268,9.768 7.518,7.518C9.768,5.268 12.818,4.003 16,4L16,4ZM23.434,43.896C23.265,43.98 23.075,44.013 22.887,43.992C22.7,43.97 22.522,43.895 22.376,43.776L16,38.674L9.626,43.776C9.479,43.894 9.302,43.968 9.115,43.989C8.928,44.011 8.739,43.979 8.569,43.898C8.399,43.817 8.256,43.69 8.155,43.531C8.054,43.372 8.001,43.188 8,43L8,29.836C10.428,31.253 13.189,32 16,32C18.811,32 21.572,31.253 24,29.836L24,43C24.002,43.188 23.95,43.372 23.849,43.531C23.749,43.69 23.605,43.817 23.434,43.896L23.434,43.896Z" fill="#374957"/>
</svg>
