<svg width="48" height="48" viewBox="0 0 48 48" fill="none" xmlns="http://www.w3.org/2000/svg" xmlns:xlink="http://www.w3.org/1999/xlink">
<path d="M38,38L46.828,38L38,46.828L38,38ZM48,6L48,34L34,34L34,48L0,48L0,6C0,4.409 0.632,2.883 1.757,1.757C2.883,0.632 4.409,0 6,0L42,0C43.591,0 45.117,0.632 46.243,1.757C47.368,2.883 48,4.409 48,6ZM11,18L11,13.864C10.998,13.666 11.035,13.47 11.109,13.287C11.183,13.104 11.294,12.938 11.433,12.798C11.573,12.658 11.739,12.547 11.922,12.473C12.104,12.398 12.3,12.36 12.498,12.362C12.892,12.373 13.267,12.535 13.546,12.814C13.825,13.093 13.987,13.468 13.998,13.862L16.5,13.862C16.493,12.803 16.07,11.79 15.321,11.041C14.572,10.292 13.559,9.869 12.5,9.862C11.977,9.86 11.458,9.96 10.973,10.159C10.489,10.357 10.048,10.649 9.677,11.018C9.305,11.386 9.01,11.825 8.808,12.308C8.606,12.791 8.502,13.309 8.5,13.832L8.5,18.032C8.502,18.555 8.607,19.073 8.809,19.556C9.011,20.038 9.306,20.477 9.678,20.845C10.049,21.214 10.49,21.505 10.974,21.703C11.458,21.902 11.977,22.002 12.5,22C13.555,22 14.568,21.583 15.317,20.84C16.066,20.097 16.492,19.087 16.5,18.032L16.5,15.862L12.5,15.862L12.5,17.862L14,17.862L14,18.03C13.988,18.421 13.825,18.792 13.545,19.066C13.266,19.34 12.891,19.496 12.5,19.5C12.302,19.502 12.106,19.465 11.923,19.39C11.74,19.316 11.574,19.205 11.435,19.065C11.295,18.926 11.184,18.76 11.11,18.577C11.035,18.394 10.998,18.198 11,18L11,18ZM22.5,9.862L20,9.862L20,22L22.5,22L22.5,9.862ZM32.526,9.862L26,9.862L26,21.912L28.5,21.912L28.5,17.138L32.228,17.138L32.228,14.638L28.5,14.638L28.5,12.362L32.526,12.362L32.526,9.862Z" fill="#374957"/>
</svg>
