<svg width="48" height="48" viewBox="0 0 48 48" fill="none" xmlns="http://www.w3.org/2000/svg" xmlns:xlink="http://www.w3.org/1999/xlink">
<path d="M44.884,23.976C43.37,23.989 42.098,25.117 41.904,26.619C40.461,36.473 31.303,43.293 21.448,41.851C11.593,40.408 4.774,31.25 6.216,21.395C7.658,11.541 16.817,4.721 26.671,6.163C30.031,6.655 33.183,8.085 35.765,10.289L33.503,12.551C32.721,13.333 32.722,14.6 33.504,15.382C33.88,15.759 34.392,15.97 34.925,15.968L44.106,15.968C45.211,15.968 46.108,15.072 46.108,13.966L46.108,4.785C46.107,3.679 45.211,2.783 44.105,2.784C43.574,2.784 43.065,2.995 42.69,3.37L40.024,6.036C30.103,-2.753 14.935,-1.836 6.145,8.085C-2.645,18.006 -1.728,33.174 8.193,41.964C18.114,50.753 33.282,49.836 42.072,39.915C45.166,36.423 47.175,32.104 47.853,27.488C48.119,25.835 46.994,24.28 45.341,24.014C45.19,23.99 45.038,23.977 44.884,23.976Z" fill="#374957"/>
</svg>
