<svg width="48" height="48" viewBox="0 0 48 48" fill="none" xmlns="http://www.w3.org/2000/svg" xmlns:xlink="http://www.w3.org/1999/xlink">
<path d="M42,27C40.823,27.001 39.673,27.349 38.694,28L36.656,26.982C37.167,24.813 37.113,22.549 36.497,20.407C35.881,18.265 34.725,16.318 33.14,14.751C31.555,13.185 29.593,12.052 27.444,11.462C25.295,10.872 23.031,10.845 20.868,11.382L19.668,9.22C20.375,8.105 20.695,6.788 20.578,5.473C20.46,4.158 19.913,2.918 19.019,1.946C18.126,0.974 16.936,0.323 15.636,0.096C14.335,-0.132 12.996,0.076 11.825,0.687C10.655,1.298 9.718,2.278 9.161,3.475C8.604,4.672 8.458,6.02 8.745,7.309C9.031,8.598 9.735,9.756 10.747,10.604C11.759,11.452 13.023,11.943 14.342,12L15.542,14.148C13.204,16.152 11.654,18.922 11.17,21.962C10.686,25.003 11.298,28.117 12.898,30.748L7.28,36.138C5.99,35.856 4.644,36.007 3.449,36.568C2.254,37.129 1.278,38.068 0.671,39.24C0.063,40.411 -0.14,41.751 0.091,43.05C0.322,44.35 0.975,45.537 1.949,46.427C2.923,47.318 4.164,47.863 5.478,47.977C6.793,48.091 8.109,47.769 9.222,47.06C10.335,46.35 11.184,45.294 11.635,44.054C12.087,42.814 12.118,41.459 11.722,40.2L17.108,35.028C19.767,36.695 22.94,37.342 26.039,36.849C29.139,36.356 31.955,34.757 33.966,32.348L36.012,33.37C36.084,34.539 36.497,35.661 37.199,36.598C37.901,37.535 38.862,38.246 39.963,38.644C41.065,39.041 42.258,39.108 43.397,38.835C44.536,38.563 45.57,37.963 46.372,37.11C47.174,36.257 47.709,35.187 47.911,34.034C48.112,32.88 47.972,31.693 47.507,30.618C47.043,29.544 46.273,28.628 45.295,27.986C44.316,27.343 43.171,27 42,27L42,27ZM24,31C22.615,31 21.262,30.59 20.111,29.82C18.96,29.051 18.063,27.958 17.533,26.679C17.003,25.4 16.864,23.992 17.134,22.635C17.404,21.277 18.071,20.029 19.05,19.05C20.029,18.072 21.276,17.405 22.634,17.135C23.992,16.865 25.4,17.003 26.679,17.533C27.958,18.063 29.051,18.96 29.82,20.111C30.589,21.262 31,22.616 31,24C31,25.857 30.262,27.637 28.95,28.95C27.637,30.263 25.856,31 24,31L24,31Z" fill="#374957"/>
</svg>
