<svg width="44" height="48" viewBox="0 0 44 48" fill="none" xmlns="http://www.w3.org/2000/svg" xmlns:xlink="http://www.w3.org/1999/xlink">
<path d="M22,32C19.878,32 17.843,31.157 16.343,29.657C14.843,28.157 14,26.122 14,24C14,21.878 14.843,19.843 16.343,18.343C17.843,16.843 19.878,16 22,16C24.121,16 26.156,16.843 27.657,18.343C29.157,19.843 30,21.878 30,24C30,26.122 29.157,28.157 27.657,29.657C26.156,31.157 24.121,32 22,32ZM22,20C20.939,20 19.921,20.421 19.171,21.172C18.421,21.922 18,22.939 18,24C18,25.061 18.421,26.078 19.171,26.828C19.921,27.579 20.939,28 22,28C23.061,28 24.078,27.579 24.828,26.828C25.578,26.078 26,25.061 26,24C26,22.939 25.578,21.922 24.828,21.172C24.078,20.421 23.061,20 22,20ZM22,48C19.801,47.997 17.665,47.271 15.92,45.934C14.175,44.596 12.918,42.722 12.344,40.6C10.239,41.09 8.033,40.885 6.055,40.017C4.077,39.148 2.433,37.662 1.37,35.781C0.307,33.9 -0.118,31.725 0.158,29.583C0.434,27.44 1.397,25.444 2.902,23.894C1.393,22.341 0.429,20.339 0.155,18.191C-0.119,16.042 0.312,13.863 1.383,11.981C2.454,10.098 4.107,8.614 6.094,7.752C8.08,6.89 10.293,6.696 12.4,7.2C13.022,5.138 14.292,3.332 16.021,2.048C17.75,0.764 19.846,0.07 22,0.07C24.153,0.07 26.25,0.764 27.979,2.048C29.708,3.332 30.977,5.138 31.6,7.2C33.707,6.695 35.921,6.888 37.909,7.75C39.897,8.612 41.551,10.097 42.622,11.98C43.694,13.864 44.124,16.044 43.849,18.194C43.574,20.343 42.609,22.345 41.098,23.898C42.601,25.448 43.562,27.444 43.837,29.585C44.112,31.727 43.687,33.901 42.624,35.781C41.561,37.661 39.918,39.146 37.941,40.015C35.964,40.883 33.759,41.089 31.656,40.6C31.081,42.722 29.825,44.596 28.08,45.934C26.335,47.271 24.198,47.997 22,48L22,48ZM16.114,34.23L15.99,38.17C16.012,39.763 16.667,41.281 17.809,42.391C18.951,43.501 20.487,44.113 22.08,44.09C23.672,44.067 25.191,43.413 26.301,42.271C27.411,41.129 28.022,39.593 28,38C28,38.086 27.886,34.23 27.886,34.23L30.99,36.05C32.369,36.826 34,37.022 35.524,36.596C37.048,36.169 38.34,35.155 39.116,33.776C39.892,32.397 40.088,30.766 39.662,29.242C39.235,27.718 38.221,26.426 36.842,25.65L33.614,23.894L36.842,22.136C37.541,21.762 38.159,21.252 38.659,20.636C39.159,20.02 39.531,19.31 39.754,18.549C39.976,17.787 40.044,16.989 39.955,16.201C39.865,15.412 39.618,14.65 39.23,13.958C38.842,13.266 38.319,12.659 37.693,12.171C37.068,11.684 36.351,11.326 35.585,11.119C34.819,10.912 34.019,10.86 33.233,10.966C32.447,11.072 31.69,11.334 31.006,11.736L28,13.486L28,10C28,8.409 27.368,6.882 26.242,5.757C25.117,4.632 23.591,4 22,4C20.408,4 18.882,4.632 17.757,5.757C16.632,6.882 16,8.409 16,10L16,13.478L13,11.736C12.316,11.334 11.559,11.072 10.772,10.966C9.986,10.86 9.187,10.912 8.421,11.119C7.655,11.326 6.938,11.684 6.312,12.171C5.686,12.659 5.164,13.266 4.775,13.958C4.387,14.65 4.141,15.412 4.051,16.201C3.961,16.989 4.029,17.787 4.252,18.549C4.474,19.31 4.846,20.02 5.346,20.636C5.846,21.252 6.464,21.762 7.164,22.136L10.392,23.894L7.164,25.65C5.785,26.426 4.77,27.718 4.344,29.242C4.133,29.997 4.072,30.785 4.166,31.563C4.259,32.341 4.505,33.093 4.89,33.776C5.274,34.459 5.789,35.059 6.405,35.543C7.022,36.027 7.727,36.385 8.482,36.596C10.006,37.022 11.637,36.826 13.016,36.05L16.114,34.23Z" fill="#374957"/>
</svg>
