<svg width="50" height="48" viewBox="0 0 50 48" fill="none" xmlns="http://www.w3.org/2000/svg" xmlns:xlink="http://www.w3.org/1999/xlink">
<path d="M39.764,8.875C37.293,5.562 33.942,3.009 30.092,1.507C26.242,0.004 22.048,-0.388 17.986,0.375C13.924,1.139 10.158,3.027 7.116,5.824C4.074,8.622 1.878,12.217 0.779,16.201C-0.105,19.504 -0.203,22.968 0.491,26.316C1.186,29.664 2.654,32.804 4.779,35.483C5.535,36.408 5.964,37.557 6.001,38.751L6.001,38.971C5.999,41.361 6.946,43.654 8.634,45.347C10.321,47.039 12.61,47.994 15,48.001L25.001,48.001C26.875,47.999 28.703,47.412 30.228,46.323C31.754,45.233 32.902,43.695 33.513,41.923C35.884,41.645 38.099,40.6 39.821,38.947C41.543,37.293 42.678,35.123 43.052,32.765L43.34,30.995C44.63,30.93 45.841,30.359 46.713,29.407C47.586,28.456 48.048,27.199 48,25.909C48,22.711 42.106,11.765 39.764,8.875ZM40.788,25.001C40.076,25.001 39.387,25.255 38.845,25.717C38.303,26.178 37.942,26.818 37.828,27.521L37.13,31.801C36.945,32.974 36.345,34.042 35.441,34.812C34.538,35.582 33.388,36.004 32.201,36.001L31.001,36.001C30.607,36.001 30.216,36.078 29.852,36.229C29.488,36.38 29.158,36.601 28.879,36.88C28.601,37.158 28.38,37.489 28.229,37.853C28.078,38.217 28.001,38.607 28.001,39.001C28.001,39.797 27.684,40.56 27.122,41.122C26.559,41.685 25.796,42.001 25.001,42.001L15,42.001C14.201,41.996 13.437,41.674 12.874,41.106C12.312,40.538 11.998,39.77 12,38.971L12,38.751C11.975,36.222 11.102,33.775 9.521,31.801C7.96,29.857 6.88,27.573 6.367,25.134C5.854,22.694 5.924,20.168 6.571,17.761C7.394,14.829 9.03,12.19 11.291,10.149C13.551,8.108 16.344,6.749 19.344,6.229C20.23,6.08 21.126,6.004 22.025,6.001C24.552,6.003 27.044,6.596 29.302,7.733C31.559,8.871 33.519,10.521 35.024,12.551C37.684,16.449 39.914,20.623 41.674,25.001L40.788,25.001ZM32.451,16.103C32.06,15.41 31.41,14.901 30.644,14.687C29.877,14.473 29.058,14.572 28.365,14.963L26.949,15.763C26.358,15.285 25.702,14.893 25.001,14.601L25.001,13.001C25.001,12.205 24.684,11.442 24.122,10.88C23.559,10.317 22.796,10.001 22.001,10.001C21.205,10.001 20.442,10.317 19.879,10.88C19.317,11.442 19,12.205 19,13.001L19,14.601C18.299,14.895 17.643,15.289 17.052,15.769L15.636,14.969C15.293,14.775 14.915,14.651 14.523,14.604C14.132,14.557 13.735,14.587 13.355,14.693C12.975,14.799 12.62,14.979 12.31,15.222C11.999,15.465 11.74,15.767 11.546,16.111C11.353,16.454 11.229,16.833 11.182,17.224C11.134,17.616 11.164,18.013 11.27,18.392C11.485,19.159 11.995,19.81 12.688,20.201L14.102,21.001C14.048,21.332 14.014,21.666 14,22.001C14.013,22.34 14.047,22.678 14.102,23.013L12.688,23.813C11.995,24.204 11.486,24.854 11.272,25.621C11.058,26.387 11.158,27.208 11.548,27.901C11.939,28.594 12.59,29.104 13.356,29.318C14.123,29.531 14.943,29.432 15.636,29.041L17.052,28.241C17.643,28.718 18.299,29.109 19,29.401L19,31.001C19,31.797 19.317,32.56 19.879,33.122C20.442,33.685 21.205,34.001 22.001,34.001C22.796,34.001 23.559,33.685 24.122,33.122C24.684,32.56 25.001,31.797 25.001,31.001L25.001,29.401C25.702,29.106 26.358,28.713 26.949,28.233L28.365,29.033C29.058,29.424 29.878,29.523 30.645,29.31C31.411,29.096 32.062,28.586 32.453,27.893C32.843,27.2 32.943,26.379 32.729,25.613C32.515,24.846 32.006,24.196 31.313,23.805L29.899,23.005C29.954,22.673 29.988,22.337 30.001,22.001C29.988,21.662 29.954,21.324 29.899,20.989L31.313,20.189C32.005,19.798 32.514,19.148 32.727,18.381C32.941,17.615 32.841,16.796 32.451,16.103L32.451,16.103ZM24.001,22.001C24.001,22.396 23.883,22.783 23.663,23.112C23.444,23.441 23.131,23.697 22.766,23.849C22.4,24 21.998,24.04 21.61,23.962C21.222,23.885 20.866,23.695 20.586,23.415C20.307,23.135 20.116,22.779 20.039,22.391C19.962,22.003 20.001,21.601 20.153,21.236C20.304,20.87 20.56,20.558 20.889,20.338C21.218,20.118 21.605,20.001 22.001,20.001C22.531,20.001 23.04,20.212 23.415,20.587C23.79,20.962 24.001,21.47 24.001,22.001Z" fill="#374957"/>
</svg>
