<svg width="40" height="48" viewBox="0 0 40 48" fill="none" xmlns="http://www.w3.org/2000/svg" xmlns:xlink="http://www.w3.org/1999/xlink">
<path d="M29,0L11,0C8.084,0.003 5.288,1.163 3.225,3.225C1.163,5.288 0.003,8.084 0,11L0,37C0.003,39.916 1.163,42.712 3.225,44.775C5.288,46.837 8.084,47.997 11,48L29,48C31.916,47.997 34.712,46.837 36.775,44.775C38.837,42.712 39.997,39.916 40,37L40,11C39.997,8.084 38.837,5.288 36.775,3.225C34.712,1.163 31.916,0.003 29,0L29,0ZM34,37C34,38.326 33.473,39.598 32.536,40.536C31.598,41.473 30.326,42 29,42L23,42L23,41C23,40.204 22.684,39.441 22.121,38.879C21.559,38.316 20.796,38 20,38C19.204,38 18.441,38.316 17.879,38.879C17.316,39.441 17,40.204 17,41L17,42L11,42C9.674,42 8.402,41.473 7.464,40.536C6.527,39.598 6,38.326 6,37L6,11C6,9.674 6.527,8.402 7.464,7.464C8.402,6.527 9.674,6 11,6L29,6C30.326,6 31.598,6.527 32.536,7.464C33.473,8.402 34,9.674 34,11L34,37ZM28,33C28,33.796 27.684,34.559 27.121,35.121C26.559,35.684 25.796,36 25,36L15,36C14.204,36 13.441,35.684 12.879,35.121C12.316,34.559 12,33.796 12,33C12,32.204 12.316,31.441 12.879,30.879C13.441,30.316 14.204,30 15,30L25,30C25.796,30 26.559,30.316 27.121,30.879C27.684,31.441 28,32.204 28,33ZM20,8C17.878,8 15.843,8.843 14.343,10.343C12.843,11.843 12,13.878 12,16L12,23C12.008,23.702 12.262,24.378 12.717,24.912C13.172,25.446 13.8,25.804 14.491,25.923C15.183,26.042 15.894,25.914 16.502,25.563C17.109,25.212 17.574,24.659 17.816,24L22.184,24C22.426,24.659 22.891,25.212 23.498,25.563C24.106,25.914 24.817,26.042 25.509,25.923C26.2,25.804 26.828,25.446 27.283,24.912C27.738,24.378 27.992,23.702 28,23L28,16C28,13.878 27.157,11.843 25.657,10.343C24.157,8.843 22.122,8 20,8L20,8ZM20,14C20.53,14 21.039,14.211 21.414,14.586C21.789,14.961 22,15.47 22,16L22,18L18,18L18,16C18,15.47 18.211,14.961 18.586,14.586C18.961,14.211 19.47,14 20,14L20,14Z" fill="#374957"/>
</svg>
