<svg width="50" height="48" viewBox="0 0 50 48" fill="none" xmlns="http://www.w3.org/2000/svg" xmlns:xlink="http://www.w3.org/1999/xlink">
<path d="M47.824,40.054L45.71,28.134C46.581,27.348 47.238,26.353 47.622,25.244C48.005,24.135 48.101,22.947 47.902,21.79C47.702,20.634 47.213,19.546 46.48,18.63C45.747,17.713 44.794,16.997 43.71,16.548C42.911,11.975 40.546,7.823 37.021,4.802C33.496,1.782 29.03,0.082 24.389,-0.007C19.748,-0.095 15.22,1.434 11.583,4.318C7.945,7.201 5.424,11.261 4.452,15.8L3,24L6,24C9.591,23.978 13.132,23.158 16.368,21.6C16.131,22.029 16.004,22.51 16,23C15.997,23.583 16.164,24.153 16.48,24.643C16.796,25.132 17.248,25.518 17.78,25.755C18.312,25.992 18.902,26.069 19.477,25.976C20.052,25.883 20.588,25.625 21.019,25.233C21.45,24.841 21.757,24.332 21.903,23.768C22.05,23.204 22.029,22.61 21.843,22.058C21.657,21.506 21.315,21.02 20.858,20.659C20.4,20.298 19.848,20.078 19.268,20.026C23.535,17.364 27.149,13.776 29.842,9.528C28.664,8.874 27.384,8.425 26.056,8.2C22.98,12.758 16.434,19.126 7.786,19.918L8.376,16.58C9.192,12.874 11.299,9.579 14.321,7.283C17.343,4.987 21.082,3.84 24.871,4.047C28.661,4.253 32.253,5.8 35.007,8.41C37.762,11.021 39.499,14.525 39.908,18.298L40.064,19.79L41.54,20.056C42.268,20.199 42.918,20.606 43.364,21.2C43.809,21.794 44.019,22.532 43.951,23.272C43.884,24.011 43.545,24.7 43,25.204C42.455,25.707 41.742,25.991 41,26C40.828,26 38.826,25.65 38.826,25.65L38.262,27.25C36.428,32.444 30.26,38 24,38C18.278,38 12.644,33.354 10.316,28.6L9.296,34.358C11.197,36.689 13.554,38.609 16.222,40L16,40L16,44L6.476,44C6.104,43.999 5.738,43.914 5.404,43.753C5.069,43.591 4.775,43.357 4.544,43.067C4.312,42.777 4.148,42.438 4.064,42.076C3.98,41.715 3.979,41.339 4.06,40.976L6.36,27.976C6.24,27.976 6.122,27.998 6,27.998L2.294,27.998L0.13,40.23C-0.062,41.171 -0.042,42.143 0.187,43.075C0.417,44.007 0.851,44.876 1.459,45.62C2.066,46.364 2.831,46.963 3.698,47.375C4.566,47.786 5.514,48 6.474,48L20,48L20,41.468C22.619,42.178 25.38,42.178 28,41.468L28,48L41.524,48C42.513,48.003 43.489,47.778 44.377,47.342C45.265,46.907 46.041,46.272 46.644,45.488C47.24,44.732 47.656,43.849 47.861,42.907C48.065,41.966 48.052,40.99 47.824,40.054L47.824,40.054ZM43.48,43.04C43.249,43.34 42.953,43.582 42.614,43.749C42.275,43.915 41.901,44.001 41.524,44L32,44L32,39.908C36.128,37.689 39.443,34.213 41.464,29.984C41.634,29.974 41.794,29.926 41.96,29.904L43.918,40.904C44.014,41.27 44.025,41.653 43.949,42.024C43.873,42.394 43.712,42.742 43.48,43.04ZM29,26C28.406,26 27.826,25.824 27.333,25.495C26.84,25.165 26.455,24.696 26.228,24.148C26.001,23.6 25.941,22.997 26.057,22.415C26.173,21.833 26.459,21.298 26.878,20.879C27.298,20.459 27.832,20.174 28.414,20.058C28.996,19.942 29.599,20.002 30.148,20.229C30.696,20.456 31.164,20.84 31.494,21.334C31.824,21.827 32,22.407 32,23C32,23.796 31.684,24.559 31.121,25.122C30.558,25.684 29.795,26 29,26Z" fill="#374957"/>
</svg>
