<svg width="48" height="48" viewBox="0 0 48 48" fill="none" xmlns="http://www.w3.org/2000/svg" xmlns:xlink="http://www.w3.org/1999/xlink">
<path d="M37.84,26C37.684,27.105 37.395,28.188 36.98,29.224L45.75,34.33L43.75,37.788L34.974,32.678C34.314,33.512 33.561,34.268 32.73,34.932L37.846,43.732L34.38,45.742L29.274,36.96C28.223,37.387 27.123,37.682 26,37.84L26,48L22,48L22,37.84C20.887,37.684 19.796,37.391 18.754,36.97L13.654,45.742L10.2,43.73L15.306,34.95C14.47,34.286 13.713,33.528 13.05,32.692L4.294,37.788L2.282,34.33L11.026,29.238C10.608,28.198 10.317,27.11 10.16,26L0,26L0,22L10.16,22C10.318,20.884 10.611,19.791 11.032,18.746L2.268,13.644L4.28,10.188L13.054,15.296C13.728,14.45 14.498,13.685 15.348,13.016L10.252,4.254L13.708,2.242L18.8,11.01C19.829,10.6 20.903,10.314 22,10.16L22,0L26,0L26,10.16C27.104,10.316 28.185,10.605 29.22,11.02L34.324,2.242L37.78,4.254L32.676,13.034C33.52,13.703 34.285,14.466 34.956,15.308L43.756,10.188L45.768,13.644L36.968,18.762C37.388,19.802 37.681,20.889 37.84,22L48,22L48,26L37.84,26Z" fill="#374957"/>
</svg>
