<svg width="48" height="50" viewBox="0 0 48 50" fill="none" xmlns="http://www.w3.org/2000/svg" xmlns:xlink="http://www.w3.org/1999/xlink">
<path d="M44,12L36,12L36,16L41.172,16L34.372,22.8C32.467,21.368 30.227,20.45 27.866,20.134C27.549,17.774 26.631,15.535 25.2,13.632L32,6.832L32,12L36,12L36,4C36,2.939 35.578,1.922 34.828,1.172C34.078,0.421 33.061,0 32,0L24,0L24,4L29.172,4L22.372,10.8C20.661,9.52 18.679,8.65 16.579,8.255C14.479,7.86 12.317,7.951 10.258,8.522C8.199,9.093 6.298,10.128 4.701,11.548C3.105,12.968 1.854,14.734 1.047,16.713C0.239,18.691 -0.105,20.828 0.042,22.959C0.188,25.091 0.821,27.16 1.892,29.009C2.963,30.858 4.443,32.437 6.219,33.625C7.995,34.813 10.02,35.578 12.138,35.862C12.413,37.988 13.174,40.022 14.36,41.807C15.546,43.593 17.126,45.082 18.979,46.16C20.831,47.239 22.907,47.877 25.045,48.027C27.183,48.176 29.328,47.833 31.312,47.023C33.297,46.212 35.069,44.957 36.492,43.354C37.915,41.751 38.951,39.843 39.519,37.776C40.088,35.709 40.175,33.54 39.773,31.434C39.37,29.329 38.49,27.344 37.2,25.632L44,18.832L44,24L48,24L48,16C48,14.939 47.578,13.922 46.828,13.172C46.078,12.421 45.061,12 44,12L44,12ZM4,22C4,20.022 4.586,18.089 5.685,16.444C6.784,14.8 8.346,13.518 10.173,12.761C12,12.004 14.011,11.806 15.951,12.192C17.89,12.578 19.672,13.53 21.071,14.929C22.469,16.327 23.422,18.109 23.808,20.049C24.193,21.989 23.995,24 23.238,25.827C22.482,27.654 21.2,29.216 19.555,30.315C17.911,31.414 15.977,32 14,32C11.348,31.997 8.807,30.942 6.932,29.068C5.057,27.193 4.003,24.651 4,22L4,22ZM26,44C23.665,43.996 21.405,43.175 19.613,41.679C17.82,40.184 16.607,38.108 16.184,35.812C19.1,35.347 21.795,33.972 23.883,31.884C25.971,29.795 27.346,27.1 27.812,24.184C30.264,24.634 32.46,25.985 33.967,27.972C35.475,29.958 36.185,32.436 35.957,34.92C35.73,37.403 34.583,39.712 32.74,41.392C30.898,43.072 28.493,44.002 26,44L26,44Z" fill="#374957"/>
</svg>
