<svg width="48" height="44" viewBox="0 0 48 44" fill="none" xmlns="http://www.w3.org/2000/svg" xmlns:xlink="http://www.w3.org/1999/xlink">
<path d="M44.048,2.556C42.8,1.517 41.338,0.766 39.765,0.359C38.193,-0.049 36.55,-0.103 34.954,0.2L28.388,1.576C26.757,1.868 25.238,2.606 24,3.708C22.788,2.614 21.296,1.879 19.69,1.584L12.968,0.184C11.383,-0.104 9.755,-0.04 8.197,0.37C6.64,0.78 5.191,1.528 3.954,2.559C2.717,3.591 1.722,4.882 1.039,6.34C0.356,7.799 0.001,9.39 0,11L0,30.584C-0.004,33.153 0.894,35.643 2.535,37.619C4.177,39.595 6.46,40.933 8.986,41.4L20.6,43.694C21.718,43.898 22.852,44.001 23.988,44C25.147,44 26.304,43.894 27.444,43.686L38.968,41.4C41.501,40.94 43.792,39.605 45.443,37.629C47.093,35.653 47.998,33.161 48,30.586L48,11C48.002,9.389 47.648,7.797 46.965,6.338C46.282,4.878 45.286,3.587 44.048,2.556L44.048,2.556ZM21,37.658L10.106,35.506C8.954,35.297 7.912,34.69 7.161,33.791C6.411,32.891 6,31.757 6,30.586L6,11C6.004,9.677 6.53,8.41 7.464,7.473C8.399,6.537 9.665,6.007 10.988,6C11.266,6 11.543,6.025 11.816,6.074L18.538,7.474C19.229,7.6 19.853,7.964 20.303,8.503C20.753,9.042 21,9.722 21,10.424L21,37.658ZM42,30.586C41.998,31.764 41.581,32.904 40.822,33.805C40.063,34.707 39.011,35.312 37.85,35.514L27,37.658L27,10.424C27.004,9.709 27.262,9.018 27.727,8.475C28.193,7.932 28.836,7.572 29.542,7.458L36.106,6.084C36.826,5.953 37.566,5.982 38.274,6.169C38.982,6.355 39.64,6.695 40.203,7.164C40.765,7.633 41.217,8.22 41.528,8.882C41.838,9.545 42,10.268 42,11L42,30.586Z" fill="#374957"/>
</svg>
