<svg width="24" height="48" viewBox="0 0 24 48" fill="none" xmlns="http://www.w3.org/2000/svg" xmlns:xlink="http://www.w3.org/1999/xlink">
<path d="M0.158,45C0.159,44.205 0.475,43.442 1.038,42.88L16.382,27.536C16.847,27.072 17.215,26.52 17.466,25.914C17.718,25.307 17.847,24.657 17.847,24C17.847,23.343 17.718,22.693 17.466,22.086C17.215,21.48 16.847,20.928 16.382,20.464L1.058,5.13C0.512,4.564 0.209,3.806 0.216,3.02C0.223,2.233 0.539,1.481 1.095,0.925C1.651,0.368 2.403,0.053 3.19,0.046C3.977,0.039 4.734,0.342 5.3,0.888L20.624,16.21C22.685,18.275 23.842,21.072 23.842,23.989C23.842,26.906 22.685,29.703 20.624,31.768L5.28,47.112C4.861,47.531 4.327,47.817 3.746,47.933C3.165,48.049 2.563,47.991 2.015,47.765C1.467,47.539 0.998,47.156 0.668,46.664C0.337,46.172 0.16,45.593 0.158,45L0.158,45Z" fill="#374957"/>
</svg>
