<svg width="48" height="48" viewBox="0 0 48 48" fill="none" xmlns="http://www.w3.org/2000/svg" xmlns:xlink="http://www.w3.org/1999/xlink">
<path d="M22,18.334C22,18.334 12,11.26 12,5.5C11.937,4.108 12.428,2.749 13.365,1.718C14.302,0.687 15.609,0.069 17,0C18.391,0.069 19.698,0.687 20.635,1.718C21.572,2.749 22.063,4.108 22,5.5C21.937,4.108 22.428,2.749 23.365,1.718C24.302,0.687 25.609,0.069 27,0C28.391,0.069 29.698,0.687 30.635,1.718C31.572,2.749 32.063,4.108 32,5.5C32,11.26 22,18.334 22,18.334ZM46.296,17.362C45.279,16.434 43.936,15.946 42.56,16.005C41.185,16.064 39.888,16.664 38.954,17.676L31.87,25.15C31.947,25.571 31.99,25.998 32,26.426C31.991,28.452 31.257,30.408 29.93,31.938C28.602,33.469 26.77,34.473 24.766,34.768L16.284,35.98L15.716,32.02L24.2,30.8C25.298,30.631 26.292,30.054 26.985,29.186C27.678,28.317 28.019,27.22 27.94,26.112C27.861,25.003 27.368,23.965 26.56,23.204C25.751,22.442 24.685,22.012 23.574,22L6,22C4.409,22 2.883,22.632 1.757,23.757C0.632,24.883 0,26.409 0,28L0,42C0,43.591 0.632,45.117 1.757,46.243C2.883,47.368 4.409,48 6,48L25.328,48L46.676,24.69C47.587,23.663 48.057,22.319 47.986,20.948C47.915,19.577 47.308,18.289 46.296,17.362L46.296,17.362Z" fill="#374957"/>
</svg>
