<svg width="44" height="50" viewBox="0 0 44 50" fill="none" xmlns="http://www.w3.org/2000/svg" xmlns:xlink="http://www.w3.org/1999/xlink">
<path d="M0.886,43.648C1.686,45.055 2.865,46.21 4.289,46.979C5.714,47.748 7.326,48.102 8.942,48L35.058,48C36.673,48.102 38.285,47.748 39.71,46.979C41.134,46.21 42.313,45.055 43.114,43.648C43.813,42.168 44.095,40.526 43.928,38.898C43.761,37.27 43.153,35.719 42.168,34.412L25.688,10.686C26.665,9.919 27.378,8.866 27.729,7.674C28.079,6.483 28.05,5.212 27.644,4.038C27.238,2.864 26.476,1.845 25.465,1.125C24.453,0.404 23.242,0.017 22,0.017C20.757,0.017 19.546,0.404 18.535,1.125C17.523,1.845 16.761,2.864 16.355,4.038C15.949,5.212 15.92,6.483 16.27,7.674C16.621,8.866 17.335,9.919 18.312,10.686L1.834,34.412C0.848,35.718 0.238,37.269 0.071,38.898C-0.096,40.526 0.186,42.168 0.886,43.648L0.886,43.648ZM31.908,30.158L23.684,42L16.884,42L28.512,25.262L31.908,30.158ZM37.8,40.868C37.286,41.852 35.864,42 35.062,42L31,42L35.572,35.418L37.25,37.834C37.601,38.246 37.836,38.744 37.933,39.277C38.03,39.81 37.984,40.358 37.8,40.868L37.8,40.868ZM6.762,37.834L22,15.896L24.852,20L9.57,42L8.942,42C8.142,42 6.718,41.852 6.204,40.868C6.02,40.358 5.975,39.808 6.073,39.275C6.171,38.743 6.409,38.245 6.762,37.834L6.762,37.834Z" fill="#374957"/>
</svg>
