<svg width="40" height="48" viewBox="0 0 40 48" fill="none" xmlns="http://www.w3.org/2000/svg" xmlns:xlink="http://www.w3.org/1999/xlink">
<path d="M20.001,0.014C16.044,0.014 12.176,1.188 8.886,3.388C5.597,5.587 3.033,8.713 1.521,12.37C0.009,16.027 -0.385,20.05 0.39,23.93C1.165,27.811 3.074,31.374 5.875,34.17L20.001,47.986L34.143,34.154C36.939,31.356 38.843,27.793 39.615,23.914C40.386,20.034 39.99,16.014 38.476,12.36C36.962,8.706 34.399,5.582 31.111,3.385C27.822,1.187 23.956,0.014 20.001,0.014L20.001,0.014ZM31.331,31.31L20.001,42.4L8.687,31.326C6.45,29.089 4.926,26.239 4.309,23.136C3.691,20.033 4.007,16.817 5.217,13.894C6.426,10.971 8.475,8.472 11.105,6.713C13.734,4.954 16.826,4.015 19.989,4.012C23.153,4.01 26.246,4.946 28.878,6.701C31.51,8.456 33.563,10.952 34.776,13.873C35.99,16.795 36.311,20.01 35.697,23.114C35.084,26.217 33.564,29.069 31.331,31.31L31.331,31.31ZM28.037,14.846L23.037,11.026C22.164,10.362 21.098,10.003 20.002,10.003C18.905,10.003 17.839,10.362 16.967,11.026L11.967,14.846C11.357,15.313 10.863,15.915 10.522,16.603C10.181,17.292 10.003,18.049 10.001,18.818L10.001,28L30.001,28L30.001,18.818C29.998,18.05 29.82,17.292 29.48,16.604C29.139,15.915 28.646,15.314 28.037,14.846L28.037,14.846ZM26.001,24L22.001,24L22.001,20L18.001,20L18.001,24L14.001,24L14.001,18.818C14.001,18.662 14.037,18.509 14.106,18.37C14.176,18.232 14.276,18.111 14.401,18.018L19.401,14.2C19.575,14.066 19.789,13.994 20.009,13.994C20.229,13.994 20.442,14.066 20.617,14.2L25.617,18.02C25.741,18.113 25.842,18.234 25.911,18.372C25.981,18.511 26.017,18.664 26.017,18.82L26.001,24Z" fill="#374957"/>
</svg>
