<svg width="48" height="48" viewBox="0 0 48 48" fill="none" xmlns="http://www.w3.org/2000/svg" xmlns:xlink="http://www.w3.org/1999/xlink">
<path d="M33.999,42C33.999,43.591 33.367,45.117 32.242,46.242C31.117,47.368 29.59,48 27.999,48C26.408,48 24.882,47.368 23.757,46.242C22.631,45.117 21.999,43.591 21.999,42L21.999,36C21.999,34.408 22.631,32.882 23.757,31.757C24.882,30.632 26.408,30 27.999,30L31.999,30L31.999,34L27.999,34C27.469,34 26.96,34.21 26.585,34.585C26.21,34.961 25.999,35.469 25.999,36L25.999,36.342C26.904,36.022 27.873,35.924 28.824,36.055C29.775,36.187 30.68,36.546 31.464,37.1C32.247,37.654 32.887,38.388 33.328,39.241C33.769,40.094 33.999,41.04 33.999,42ZM29.999,42C29.999,41.604 29.882,41.217 29.662,40.889C29.442,40.56 29.13,40.303 28.765,40.152C28.399,40.001 27.997,39.961 27.609,40.038C27.221,40.115 26.865,40.306 26.585,40.585C26.305,40.865 26.115,41.222 26.038,41.609C25.96,41.997 26,42.4 26.151,42.765C26.303,43.13 26.559,43.443 26.888,43.663C27.217,43.882 27.604,44 27.999,44C28.53,44 29.038,43.789 29.413,43.414C29.788,43.039 29.999,42.53 29.999,42ZM47.999,36L47.999,42C47.999,43.591 47.367,45.117 46.242,46.242C45.117,47.368 43.59,48 41.999,48C40.408,48 38.882,47.368 37.757,46.242C36.631,45.117 35.999,43.591 35.999,42L35.999,36C35.999,34.408 36.631,32.882 37.757,31.757C38.882,30.632 40.408,30 41.999,30C43.59,30 45.117,30.632 46.242,31.757C47.367,32.882 47.999,34.408 47.999,36ZM43.999,36C43.999,35.469 43.788,34.961 43.413,34.585C43.038,34.21 42.53,34 41.999,34C41.469,34 40.96,34.21 40.585,34.585C40.21,34.961 39.999,35.469 39.999,36L39.999,42C39.999,42.53 40.21,43.039 40.585,43.414C40.96,43.789 41.469,44 41.999,44C42.53,44 43.038,43.789 43.413,43.414C43.788,43.039 43.999,42.53 43.999,42L43.999,36ZM25.999,12L21.999,12L21.999,22L13.999,22L13.999,26L25.999,26L25.999,12ZM43.999,4L43.999,10.748C41.852,7.5 38.946,4.824 35.534,2.95C32.121,1.077 28.303,0.062 24.411,-0.007C20.518,-0.076 16.667,0.804 13.19,2.557C9.714,4.309 6.716,6.881 4.455,10.051C2.195,13.221 0.74,16.893 0.216,20.751C-0.308,24.609 0.115,28.537 1.449,32.195C2.782,35.852 4.985,39.131 7.869,41.747C10.752,44.363 14.229,46.238 17.999,47.21L17.999,43.078C14.89,42.11 12.064,40.399 9.766,38.091C7.469,35.783 5.769,32.95 4.816,29.836C3.863,26.722 3.684,23.423 4.295,20.225C4.907,17.026 6.29,14.026 8.325,11.483C10.359,8.941 12.984,6.934 15.971,5.636C18.957,4.339 22.216,3.79 25.463,4.038C28.709,4.286 31.847,5.323 34.602,7.059C37.357,8.795 39.646,11.178 41.271,14L33.999,14L33.999,18L43.999,18C45.06,18 46.077,17.578 46.828,16.828C47.578,16.078 47.999,15.061 47.999,14L47.999,4L43.999,4Z" fill="#374957"/>
</svg>
