<svg width="28" height="48" viewBox="0 0 28 48" fill="none" xmlns="http://www.w3.org/2000/svg" xmlns:xlink="http://www.w3.org/1999/xlink">
<path d="M26.854,33.87C26.291,33.308 25.528,32.992 24.733,32.992C23.937,32.992 23.174,33.308 22.612,33.87L17.05,39.428L17,3C17,2.204 16.684,1.441 16.121,0.879C15.558,0.316 14.795,0 14,0L14,0C13.204,0 12.441,0.316 11.878,0.879C11.316,1.441 11,2.204 11,3L11.046,39.4L5.52,33.87C4.954,33.324 4.196,33.021 3.409,33.028C2.623,33.035 1.87,33.35 1.314,33.907C0.758,34.463 0.442,35.215 0.436,36.002C0.429,36.788 0.731,37.546 1.278,38.112L9.116,45.95C10.428,47.262 12.209,47.999 14.065,47.999C15.921,47.999 17.701,47.262 19.014,45.95L26.854,38.112C27.416,37.549 27.732,36.786 27.732,35.991C27.732,35.195 27.416,34.433 26.854,33.87Z" fill="#374957"/>
</svg>
