<svg width="48" height="48" viewBox="0 0 48 48" fill="none" xmlns="http://www.w3.org/2000/svg" xmlns:xlink="http://www.w3.org/1999/xlink">
<path d="M48.001,6L48.001,12C48.001,13.592 47.369,15.118 46.243,16.243C45.118,17.368 43.592,18 42.001,18L36.001,18L36.001,14L41.275,14C39.647,11.188 37.357,8.816 34.605,7.088C31.853,5.361 28.721,4.331 25.481,4.087C22.241,3.843 18.99,4.393 16.01,5.69C13.031,6.986 10.412,8.989 8.382,11.526C6.351,14.063 4.97,17.057 4.358,20.248C3.746,23.439 3.921,26.731 4.869,29.84C5.816,32.948 7.507,35.778 9.796,38.085C12.084,40.392 14.9,42.106 18.001,43.078L18.001,47.21C14.233,46.237 10.758,44.362 7.876,41.746C4.995,39.13 2.793,35.852 1.461,32.195C0.129,28.539 -0.293,24.613 0.231,20.756C0.755,16.9 2.21,13.229 4.469,10.061C6.729,6.892 9.725,4.321 13.2,2.569C16.676,0.817 20.525,-0.064 24.416,0.004C28.307,0.072 32.123,1.085 35.535,2.957C38.947,4.829 41.853,7.503 44.001,10.748L44.001,6L48.001,6ZM34.001,42C34.001,43.592 33.369,45.118 32.243,46.243C31.118,47.368 29.592,48 28.001,48C26.409,48 24.883,47.368 23.758,46.243C22.633,45.118 22.001,43.592 22.001,42L22.001,36C22.001,34.409 22.633,32.883 23.758,31.758C24.883,30.633 26.409,30 28.001,30L32.001,30L32.001,34L28.001,34C27.47,34 26.962,34.211 26.586,34.586C26.211,34.961 26.001,35.47 26.001,36L26.001,36.342C26.906,36.022 27.874,35.924 28.825,36.056C29.776,36.188 30.681,36.546 31.465,37.101C32.249,37.655 32.888,38.389 33.33,39.242C33.771,40.094 34.001,41.04 34.001,42ZM30.001,42C30.001,41.605 29.883,41.218 29.664,40.889C29.444,40.56 29.132,40.304 28.766,40.153C28.401,40.001 27.998,39.962 27.611,40.039C27.223,40.116 26.866,40.306 26.586,40.586C26.307,40.866 26.116,41.222 26.039,41.61C25.962,41.998 26.002,42.4 26.153,42.766C26.304,43.131 26.561,43.444 26.89,43.663C27.218,43.883 27.605,44 28.001,44C28.531,44 29.04,43.79 29.415,43.415C29.79,43.04 30.001,42.531 30.001,42ZM48.001,36L48.001,42C48.001,43.592 47.369,45.118 46.243,46.243C45.118,47.368 43.592,48 42.001,48C40.409,48 38.883,47.368 37.758,46.243C36.633,45.118 36.001,43.592 36.001,42L36.001,36C36.001,34.409 36.633,32.883 37.758,31.758C38.883,30.633 40.409,30 42.001,30C43.592,30 45.118,30.633 46.243,31.758C47.369,32.883 48.001,34.409 48.001,36ZM44.001,36C44.001,35.47 43.79,34.961 43.415,34.586C43.04,34.211 42.531,34 42.001,34C41.47,34 40.962,34.211 40.586,34.586C40.211,34.961 40.001,35.47 40.001,36L40.001,42C40.001,42.531 40.211,43.04 40.586,43.415C40.962,43.79 41.47,44 42.001,44C42.531,44 43.04,43.79 43.415,43.415C43.79,43.04 44.001,42.531 44.001,42L44.001,36ZM26.001,12L22.001,12L22.001,22L14.001,22L14.001,26L26.001,26L26.001,12Z" fill="#374957"/>
</svg>
