<svg width="48" height="50" viewBox="0 0 48 50" fill="none" xmlns="http://www.w3.org/2000/svg" xmlns:xlink="http://www.w3.org/1999/xlink">
<path d="M36,14.002C36,14.397 35.883,14.784 35.663,15.113C35.443,15.442 35.131,15.698 34.765,15.849C34.4,16.001 33.998,16.04 33.61,15.963C33.222,15.886 32.865,15.696 32.586,15.416C32.306,15.136 32.116,14.78 32.038,14.392C31.961,14.004 32.001,13.602 32.152,13.236C32.304,12.871 32.56,12.558 32.889,12.339C33.218,12.119 33.604,12.002 34,12.002C34.53,12.002 35.039,12.212 35.414,12.587C35.789,12.962 36,13.471 36,14.002ZM28,18.002C27.604,18.002 27.218,18.119 26.889,18.339C26.56,18.558 26.304,18.871 26.152,19.236C26.001,19.602 25.961,20.004 26.038,20.392C26.116,20.78 26.306,21.136 26.586,21.416C26.865,21.696 27.222,21.886 27.61,21.963C27.998,22.04 28.4,22.001 28.765,21.849C29.131,21.698 29.443,21.442 29.663,21.113C29.883,20.784 30,20.397 30,20.002C30,19.471 29.789,18.962 29.414,18.587C29.039,18.212 28.53,18.002 28,18.002ZM22,24.002C21.604,24.002 21.218,24.119 20.889,24.339C20.56,24.558 20.304,24.871 20.152,25.236C20.001,25.602 19.961,26.004 20.038,26.392C20.116,26.78 20.306,27.136 20.586,27.416C20.865,27.696 21.222,27.886 21.61,27.963C21.998,28.04 22.4,28.001 22.765,27.849C23.131,27.698 23.443,27.442 23.663,27.113C23.883,26.784 24,26.397 24,26.002C24,25.471 23.789,24.963 23.414,24.587C23.039,24.212 22.53,24.002 22,24.002ZM46.704,1.298C47.3,1.888 47.714,2.638 47.896,3.457C48.078,4.276 48.021,5.13 47.732,5.918L47.582,6.34C44.578,14.676 41.696,22.602 36,29.642L36,30.002C35.991,33.415 35.192,36.781 33.665,39.834C32.139,42.888 29.926,45.546 27.2,47.602L26.664,48.002L18,48.002L18,40.83L14,36.83L9.414,41.416L6.586,38.588L11.172,34.002L7.172,30.002L0,30.002L0,20.882L0.4,20.35C2.476,17.678 5.15,15.531 8.207,14.081C11.263,12.631 14.618,11.919 18,12.002L18.36,12.002C25.4,6.308 33.32,3.426 41.652,0.424L42.084,0.27C42.872,-0.02 43.726,-0.077 44.545,0.105C45.364,0.288 46.113,0.702 46.704,1.298L46.704,1.298ZM4,26.002L6.838,26.002C8.793,22.628 11.057,19.443 13.6,16.488C9.842,17.265 6.459,19.292 4,22.238L4,26.002ZM31.4,34.51C28.475,37.008 25.329,39.235 22,41.164L22,44.002L25.314,44.002C28.301,41.566 30.433,38.241 31.4,34.51L31.4,34.51ZM43.874,4.128C43.821,4.068 43.75,4.027 43.672,4.01C43.595,3.993 43.513,4 43.44,4.032L43.01,4.188C33.322,7.678 24.956,10.694 17.752,17.896C14.974,20.87 12.541,24.15 10.5,27.672L20.33,37.504C23.851,35.461 27.13,33.028 30.106,30.25C37.306,23.05 40.326,14.676 43.818,4.984L43.97,4.562C44.001,4.488 44.008,4.407 43.991,4.329C43.974,4.252 43.933,4.181 43.874,4.128L43.874,4.128Z" fill="#374957"/>
</svg>
