<svg width="48" height="48" viewBox="0 0 48 48" fill="none" xmlns="http://www.w3.org/2000/svg" xmlns:xlink="http://www.w3.org/1999/xlink">
<path d="M40.97,7.032C37.614,3.679 33.34,1.397 28.687,0.473C24.034,-0.451 19.212,0.026 14.83,1.842C10.448,3.658 6.703,6.733 4.069,10.677C1.434,14.621 0.027,19.258 0.027,24.002C0.027,28.745 1.434,33.382 4.069,37.326C6.703,41.271 10.448,44.345 14.83,46.161C19.212,47.978 24.034,48.454 28.687,47.53C33.34,46.607 37.614,44.324 40.97,40.972C45.464,36.467 47.988,30.364 47.988,24.002C47.988,17.639 45.464,11.536 40.97,7.032L40.97,7.032ZM43.868,21.866C41.469,22.157 39.036,21.898 36.752,21.11C34.469,20.322 32.394,19.024 30.686,17.316C28.978,15.607 27.681,13.533 26.893,11.249C26.105,8.965 25.846,6.532 26.138,4.134C30.677,4.611 34.915,6.633 38.142,9.86C41.37,13.088 43.391,17.326 43.868,21.866L43.868,21.866ZM4.132,26.138C6.53,25.847 8.963,26.105 11.247,26.893C13.53,27.682 15.605,28.979 17.313,30.688C19.021,32.396 20.319,34.471 21.107,36.754C21.895,39.038 22.153,41.471 21.862,43.87C17.322,43.392 13.084,41.371 9.857,38.143C6.629,34.915 4.608,30.677 4.132,26.138L4.132,26.138ZM38.142,38.138C34.856,41.431 30.52,43.468 25.888,43.896C26.175,40.962 25.808,38.002 24.813,35.227C23.819,32.452 22.222,29.932 20.138,27.849C18.053,25.765 15.532,24.17 12.757,23.177C9.982,22.184 7.021,21.819 4.088,22.108C4.523,17.476 6.562,13.142 9.853,9.855C13.144,6.567 17.48,4.532 22.112,4.102C21.843,6.875 22.157,9.673 23.034,12.318C23.911,14.962 25.332,17.394 27.205,19.457C29.078,21.519 31.362,23.167 33.91,24.294C36.458,25.421 39.213,26.003 42,26.002C42.634,26.002 43.27,25.97 43.906,25.91C43.471,30.535 41.432,34.863 38.142,38.144L38.142,38.138Z" fill="#374957"/>
</svg>
