<svg width="48" height="48" viewBox="0 0 48 48" fill="none" xmlns="http://www.w3.org/2000/svg" xmlns:xlink="http://www.w3.org/1999/xlink">
<path d="M25.993,18.457C25.993,20.601 22.799,23.985 20.005,26.204C17.21,23.985 14.017,20.601 14.017,18.457C13.917,17.248 14.805,16.182 16.013,16.062C17.043,15.99 17.937,16.767 18.009,17.798C18.015,17.884 18.015,17.971 18.009,18.058L22.001,18.058C21.929,17.028 22.706,16.134 23.736,16.062C23.823,16.056 23.91,16.056 23.997,16.062C25.204,16.183 26.092,17.248 25.993,18.457ZM48,45.177L45.178,48L32.678,35.5C24.13,42.489 11.534,41.226 4.545,32.678C-2.444,24.13 -1.181,11.534 7.368,4.545C15.916,-2.445 28.511,-1.181 35.501,7.367C41.521,14.73 41.521,25.315 35.501,32.678L48,45.177ZM29.985,18.457C30.087,15.043 27.411,12.188 23.997,12.07C22.506,12.077 21.075,12.66 20.005,13.699C18.934,12.662 17.504,12.079 16.013,12.07C12.598,12.187 9.921,15.043 10.024,18.457C10.024,23.931 17.947,29.693 18.851,30.332L20.005,31.149L21.157,30.332C22.061,29.693 29.985,23.931 29.985,18.457Z" fill="#374957"/>
</svg>
