<svg width="40" height="48" viewBox="0 0 40 48" fill="none" xmlns="http://www.w3.org/2000/svg" xmlns:xlink="http://www.w3.org/1999/xlink">
<path d="M12.066,25.105L17.172,19.999L12.066,14.893L14.894,12.065L20,17.171L25.106,12.065L27.934,14.893L22.828,19.999L27.934,25.105L25.106,27.933L20,22.827L14.894,27.933L12.066,25.105ZM5.866,34.157C4.007,32.3 2.533,30.096 1.527,27.67C0.521,25.243 0.002,22.642 0.001,20.016C0,17.389 0.516,14.787 1.52,12.36C2.525,9.933 3.997,7.727 5.854,5.869C7.71,4.011 9.915,2.537 12.341,1.53C14.767,0.524 17.368,0.006 19.995,0.004C22.622,0.003 25.223,0.52 27.65,1.524C30.078,2.528 32.283,4 34.142,5.857C37.892,9.608 39.999,14.695 39.999,19.999C39.999,25.303 37.892,30.39 34.142,34.141L20,47.973L5.866,34.157ZM4,19.999C3.994,22.101 4.405,24.183 5.209,26.125C6.014,28.067 7.195,29.831 8.686,31.313L20,42.377L31.33,31.297C33.187,29.435 34.556,27.143 35.317,24.625C36.077,22.107 36.205,19.441 35.689,16.861C35.173,14.282 34.029,11.87 32.359,9.838C30.688,7.807 28.543,6.218 26.112,5.213C23.681,4.208 21.041,3.818 18.423,4.077C15.806,4.337 13.293,5.237 11.106,6.699C8.92,8.161 7.127,10.14 5.888,12.459C4.648,14.779 4,17.369 4,19.999L4,19.999Z" fill="#374957"/>
</svg>
