<svg width="48" height="48" viewBox="0 0 48 48" fill="none" xmlns="http://www.w3.org/2000/svg" xmlns:xlink="http://www.w3.org/1999/xlink">
<path d="M24,48C19.253,48 14.613,46.592 10.666,43.955C6.72,41.318 3.643,37.57 1.827,33.184C0.01,28.799 -0.465,23.973 0.461,19.318C1.387,14.662 3.673,10.386 7.029,7.029C10.386,3.673 14.662,1.387 19.318,0.461C23.973,-0.465 28.799,0.01 33.184,1.827C37.57,3.643 41.318,6.72 43.955,10.666C46.592,14.613 48,19.253 48,24C47.993,30.363 45.462,36.464 40.963,40.963C36.464,45.462 30.363,47.993 24,48L24,48ZM24,4C20.044,4 16.178,5.173 12.889,7.371C9.6,9.568 7.036,12.692 5.522,16.346C4.009,20.001 3.613,24.022 4.384,27.902C5.156,31.781 7.061,35.345 9.858,38.142C12.655,40.939 16.219,42.844 20.098,43.616C23.978,44.387 27.999,43.991 31.654,42.478C35.308,40.964 38.432,38.4 40.629,35.111C42.827,31.822 44,27.956 44,24C43.994,18.697 41.885,13.614 38.136,9.864C34.386,6.115 29.303,4.006 24,4L24,4ZM24,40C20.836,40 17.742,39.062 15.111,37.304C12.48,35.545 10.429,33.047 9.218,30.123C8.007,27.199 7.69,23.982 8.307,20.879C8.925,17.775 10.449,14.924 12.686,12.686C14.924,10.449 17.775,8.925 20.879,8.307C23.982,7.69 27.199,8.007 30.123,9.218C33.047,10.429 35.545,12.48 37.304,15.111C39.062,17.742 40,20.836 40,24C39.995,28.242 38.308,32.309 35.308,35.308C32.309,38.308 28.242,39.995 24,40L24,40ZM24,12C21.627,12 19.307,12.704 17.333,14.022C15.36,15.341 13.822,17.215 12.913,19.408C12.005,21.601 11.768,24.013 12.231,26.341C12.694,28.669 13.837,30.807 15.515,32.485C17.193,34.164 19.331,35.306 21.659,35.769C23.987,36.232 26.399,35.995 28.592,35.087C30.785,34.178 32.659,32.64 33.978,30.667C35.296,28.693 36,26.373 36,24C35.997,20.818 34.732,17.768 32.482,15.518C30.232,13.268 27.182,12.003 24,12L24,12ZM30,20.896L30,18L18,18L18,22L24.924,22L20.224,31.08L23.776,32.92L30,20.896Z" fill="#374957"/>
</svg>
