<svg width="48" height="48" viewBox="0 0 48 48" fill="none" xmlns="http://www.w3.org/2000/svg" xmlns:xlink="http://www.w3.org/1999/xlink">
<path d="M24,0C19.253,0 14.613,1.408 10.666,4.045C6.72,6.682 3.643,10.43 1.827,14.816C0.01,19.201 -0.465,24.027 0.461,28.682C1.387,33.338 3.673,37.614 7.029,40.971C10.386,44.327 14.662,46.613 19.318,47.539C23.973,48.465 28.799,47.99 33.184,46.173C37.57,44.357 41.318,41.28 43.955,37.334C46.592,33.387 48,28.747 48,24C47.993,17.637 45.462,11.536 40.963,7.037C36.464,2.538 30.363,0.007 24,0L24,0ZM24,30.544C13.18,30.544 6,26.6 6,24C6,21.4 13.18,17.456 24,17.456C34.82,17.456 42,21.4 42,24C42,26.6 34.82,30.544 24,30.544ZM24,6C26.973,6.003 29.899,6.742 32.516,8.152C35.134,9.562 37.361,11.598 39,14.078C34.212,12.26 29.121,11.37 24,11.456C18.879,11.37 13.788,12.26 9,14.078C10.639,11.598 12.866,9.562 15.484,8.152C18.101,6.742 21.027,6.003 24,6L24,6ZM24,42C21.027,41.997 18.101,41.258 15.484,39.848C12.866,38.438 10.639,36.402 9,33.922C13.788,35.74 18.879,36.63 24,36.544C29.121,36.63 34.212,35.74 39,33.922C37.361,36.402 35.134,38.438 32.516,39.848C29.899,41.258 26.973,41.997 24,42L24,42Z" fill="#374957"/>
</svg>
