<svg width="36" height="48" viewBox="0 0 36 48" fill="none" xmlns="http://www.w3.org/2000/svg" xmlns:xlink="http://www.w3.org/1999/xlink">
<path d="M27.264,48L8.736,48C7.476,48 6.23,47.728 5.085,47.202C3.939,46.676 2.92,45.909 2.098,44.954C1.288,44.015 0.689,42.913 0.344,41.722C-0.001,40.53 -0.085,39.279 0.098,38.052C1.056,32.613 3.83,27.659 7.966,24C3.829,20.342 1.055,15.389 0.096,9.95C-0.087,8.723 -0.003,7.472 0.342,6.28C0.687,5.089 1.286,3.987 2.096,3.048C2.919,2.092 3.937,1.325 5.083,0.799C6.229,0.272 7.475,0 8.736,0L27.264,0C28.525,0 29.77,0.273 30.915,0.798C32.06,1.324 33.079,2.091 33.9,3.046C34.711,3.983 35.309,5.085 35.655,6.275C36,7.466 36.084,8.716 35.9,9.942C34.938,15.383 32.162,20.338 28.024,24C32.164,27.662 34.941,32.618 35.904,38.06C36.087,39.285 36.003,40.536 35.658,41.726C35.313,42.916 34.715,44.017 33.904,44.954C33.082,45.91 32.063,46.677 30.917,47.203C29.771,47.728 28.525,48 27.264,48L27.264,48ZM27.264,6L8.736,6C8.339,6 7.947,6.086 7.586,6.252C7.225,6.418 6.904,6.659 6.644,6.96C6.396,7.244 6.213,7.578 6.107,7.94C6.001,8.302 5.975,8.683 6.03,9.056C6.704,13.542 9.522,17.78 14.406,21.656C14.761,21.937 15.048,22.294 15.245,22.702C15.442,23.109 15.544,23.556 15.544,24.008C15.544,24.46 15.442,24.907 15.245,25.314C15.048,25.722 14.761,26.079 14.406,26.36C9.522,30.226 6.704,34.464 6.03,38.96C5.975,39.333 6.001,39.714 6.107,40.076C6.213,40.438 6.396,40.772 6.644,41.056C6.905,41.354 7.227,41.593 7.588,41.755C7.949,41.918 8.34,42.002 8.736,42L27.264,42C27.662,41.999 28.054,41.913 28.415,41.747C28.776,41.581 29.097,41.339 29.356,41.038C29.604,40.755 29.788,40.422 29.894,40.062C30,39.701 30.026,39.322 29.97,38.95C29.3,34.478 26.48,30.24 21.588,26.35C21.235,26.069 20.95,25.712 20.754,25.305C20.558,24.899 20.456,24.453 20.456,24.002C20.456,23.551 20.558,23.105 20.754,22.699C20.95,22.292 21.235,21.935 21.588,21.654C26.48,17.762 29.3,13.524 29.97,9.054C30.025,8.682 29.999,8.302 29.893,7.942C29.787,7.581 29.604,7.247 29.356,6.964C29.097,6.663 28.776,6.42 28.415,6.254C28.054,6.088 27.662,6.001 27.264,6L27.264,6Z" fill="#374957"/>
</svg>
