<svg width="48" height="48" viewBox="0 0 48 48" fill="none" xmlns="http://www.w3.org/2000/svg" xmlns:xlink="http://www.w3.org/1999/xlink">
<path d="M48.001,23.968C48.001,21.861 47.17,19.839 45.688,18.341C44.206,16.843 42.194,15.991 40.087,15.968C38.333,12.476 35.497,9.645 32.001,7.898C31.898,5.848 31.012,3.916 29.524,2.501C28.037,1.087 26.063,0.298 24.011,0.298C21.958,0.298 19.984,1.087 18.497,2.501C17.01,3.916 16.123,5.848 16.021,7.898C12.516,9.643 9.672,12.478 7.915,15.976C5.818,16.005 3.816,16.857 2.341,18.349C0.867,19.84 0.038,21.852 0.034,23.949C0.03,26.047 0.851,28.061 2.319,29.559C3.787,31.057 5.786,31.917 7.883,31.954C9.633,35.482 12.487,38.343 16.011,40.102C16.113,42.152 17,44.084 18.487,45.499C19.974,46.913 21.948,47.702 24.001,47.702C26.053,47.702 28.027,46.913 29.514,45.499C31.002,44.084 31.888,42.152 31.991,40.102C35.515,38.343 38.369,35.482 40.119,31.954C42.218,31.923 44.22,31.068 45.695,29.574C47.169,28.081 47.997,26.067 48.001,23.968ZM30.957,36.122C30.274,34.874 29.268,33.833 28.044,33.108C26.82,32.382 25.423,32 24.001,32C22.578,32 21.182,32.382 19.958,33.108C18.734,33.833 17.728,34.874 17.045,36.122C14.89,34.875 13.103,33.081 11.865,30.922C13.114,30.241 14.157,29.237 14.885,28.015C15.613,26.792 15.999,25.397 16.002,23.974C16.005,22.551 15.625,21.154 14.903,19.928C14.18,18.703 13.141,17.694 11.895,17.008C13.132,14.874 14.908,13.101 17.045,11.868C17.728,13.116 18.734,14.157 19.958,14.882C21.182,15.608 22.578,15.99 24.001,15.99C25.423,15.99 26.82,15.608 28.044,14.882C29.268,14.157 30.274,13.116 30.957,11.868C33.093,13.101 34.869,14.874 36.107,17.008C34.86,17.694 33.822,18.703 33.099,19.928C32.376,21.154 31.997,22.551 32,23.974C32.003,25.397 32.389,26.792 33.116,28.015C33.844,29.237 34.888,30.241 36.137,30.922C34.899,33.081 33.112,34.875 30.957,36.122Z" fill="#374957"/>
</svg>
