<svg width="28" height="48" viewBox="0 0 28 48" fill="none" xmlns="http://www.w3.org/2000/svg" xmlns:xlink="http://www.w3.org/1999/xlink">
<path d="M22,4L28,4L28,0L22,0C20.442,0.004 18.906,0.374 17.517,1.08C16.128,1.785 14.923,2.807 14,4.062C13.077,2.807 11.872,1.785 10.483,1.08C9.094,0.374 7.558,0.004 6,0L0,0L0,4L6,4C7.591,4 9.117,4.632 10.243,5.757C11.368,6.883 12,8.409 12,10L12,28L4,28L4,32L12,32L12,38C12,39.591 11.368,41.117 10.243,42.243C9.117,43.368 7.591,44 6,44L0,44L0,48L6,48C7.558,47.996 9.094,47.626 10.483,46.92C11.872,46.215 13.077,45.193 14,43.938C14.923,45.193 16.128,46.215 17.517,46.92C18.906,47.626 20.442,47.996 22,48L28,48L28,44L22,44C20.409,44 18.883,43.368 17.757,42.243C16.632,41.117 16,39.591 16,38L16,32L24,32L24,28L16,28L16,10C16,8.409 16.632,6.883 17.757,5.757C18.883,4.632 20.409,4 22,4L22,4Z" fill="#374957"/>
</svg>
