<svg width="30" height="28" viewBox="0 0 30 28" fill="none" xmlns="http://www.w3.org/2000/svg" xmlns:xlink="http://www.w3.org/1999/xlink">
<path d="M25.999,11L8.413,11L13.291,6.122C13.854,5.559 14.17,4.796 14.171,4C14.171,3.205 13.855,2.442 13.292,1.879C12.73,1.316 11.967,1 11.171,1C10.375,0.999 9.612,1.315 9.049,1.878L1.877,9.05C0.567,10.364 -0.169,12.144 -0.169,14C-0.169,15.856 0.567,17.636 1.877,18.95L9.049,26.122C9.612,26.684 10.375,27 11.171,27C11.967,27 12.73,26.684 13.292,26.121C13.855,25.558 14.171,24.795 14.171,23.999C14.17,23.203 13.854,22.44 13.291,21.878L8.413,17L25.999,17C26.795,17 27.558,16.684 28.121,16.121C28.683,15.558 28.999,14.795 28.999,14C28.999,13.204 28.683,12.441 28.121,11.878C27.558,11.316 26.795,11 25.999,11Z" fill="#374957"/>
</svg>
