<svg width="48" height="48" viewBox="0 0 48 48" fill="none" xmlns="http://www.w3.org/2000/svg" xmlns:xlink="http://www.w3.org/1999/xlink">
<path d="M48,24L40.97,31.03L40.97,40.97L31.03,40.97L24,48L16.97,40.97L7.03,40.97L7.03,31.03L0,24L7.03,16.97L7.03,7.03L16.97,7.03L24,0L31.03,7.03L40.97,7.03L40.97,16.97L48,24ZM38.142,28.198L42.342,23.998L38.142,19.798L36.97,18.628L36.97,11.028L29.37,11.028L28.2,9.856L24,5.656L24,5.658L18.628,11.03L11.028,11.03L11.028,18.63L9.856,19.8L5.656,24L9.858,28.2L11.03,29.368L11.03,36.968L18.63,36.968L19.8,38.14L24,42.34L28.2,38.14L29.37,36.968L36.97,36.968L36.97,29.368L38.142,28.198Z" fill="#374957"/>
</svg>
