<svg width="50" height="50" viewBox="0 0 50 50" fill="none" xmlns="http://www.w3.org/2000/svg" xmlns:xlink="http://www.w3.org/1999/xlink">
<path d="M34.484,12.384C36.971,9.466 38.225,5.694 37.978,1.868L37.85,0.15L36.132,0.022C32.305,-0.227 28.531,1.028 25.614,3.52C25.189,3.951 24.803,4.42 24.46,4.92C23.905,3.258 23.209,1.647 22.38,0.104L18.87,2.02C20.531,5.114 21.563,8.505 21.906,12L17,12C12.362,12.141 7.969,14.115 4.783,17.489C1.597,20.862 -0.123,25.361 0,30C-0.214,42.662 12.834,51.906 24,46.4C35.168,51.904 48.214,42.662 48,30C48.077,25.966 46.781,22.027 44.326,18.826C41.87,15.625 38.4,13.354 34.484,12.384L34.484,12.384ZM28.442,6.348C29.968,5.009 31.893,4.212 33.918,4.082C33.788,6.107 32.991,8.032 31.652,9.558C30.104,10.911 28.16,11.729 26.11,11.89C26.272,9.84 27.089,7.896 28.442,6.348L28.442,6.348ZM31,44C28.889,43.999 26.815,43.448 24.982,42.4L24,41.848L23.018,42.404C14.4,47.4 3.814,40.122 4,30C3.877,26.422 5.175,22.941 7.611,20.317C10.047,17.694 13.423,16.141 17,16L31,16C48.2,16.642 48.2,43.364 31,44Z" fill="#374957"/>
</svg>
