<svg width="44" height="48" viewBox="0 0 44 48" fill="none" xmlns="http://www.w3.org/2000/svg" xmlns:xlink="http://www.w3.org/1999/xlink">
<path d="M27,48C26.457,48.001 25.923,47.853 25.458,47.572L15.458,41.572C15.014,41.306 14.646,40.929 14.39,40.478C14.135,40.027 14,39.518 14,39L14,28.67L2.068,14.07C0.725,12.529 -0.011,10.551 0,8.506C0.003,6.251 0.9,4.089 2.494,2.494C4.089,0.9 6.251,0.003 8.506,0L35.494,0C37.134,0.001 38.738,0.475 40.115,1.366C41.491,2.257 42.581,3.527 43.252,5.023C43.924,6.518 44.149,8.176 43.901,9.797C43.652,11.418 42.941,12.932 41.852,14.158L30,28.764L30,45C30,45.796 29.684,46.559 29.121,47.121C28.559,47.684 27.796,48 27,48L27,48ZM20,37.3L24,39.7L24,27.7C24,27.011 24.236,26.343 24.67,25.808L37.28,10.274C37.734,9.796 37.991,9.165 38,8.506C37.999,7.842 37.735,7.205 37.265,6.735C36.795,6.265 36.158,6.001 35.494,6L8.506,6C8.023,6 7.55,6.14 7.145,6.403C6.74,6.666 6.419,7.04 6.221,7.48C6.023,7.921 5.956,8.409 6.029,8.887C6.102,9.364 6.312,9.811 6.632,10.172L19.324,25.702C19.762,26.238 20,26.908 20,27.6L20,37.3Z" fill="#374957"/>
</svg>
