<svg width="48" height="38" viewBox="0 0 48 38" fill="none" xmlns="http://www.w3.org/2000/svg" xmlns:xlink="http://www.w3.org/1999/xlink">
<path d="M42,0L6,0C4.409,0 2.883,0.632 1.757,1.757C0.632,2.883 0,4.409 0,6L0,38L48,38L48,6C48,4.409 47.368,2.883 46.243,1.757C45.117,0.632 43.591,0 42,0ZM24,32C21.627,32 19.307,31.296 17.333,29.978C15.36,28.659 13.822,26.785 12.913,24.592C12.005,22.399 11.768,19.987 12.231,17.659C12.694,15.331 13.836,13.193 15.515,11.515C17.193,9.836 19.331,8.694 21.659,8.231C23.987,7.768 26.399,8.005 28.592,8.913C30.785,9.822 32.659,11.36 33.978,13.333C35.296,15.307 36,17.627 36,20C35.997,23.182 34.732,26.232 32.482,28.482C30.232,30.731 27.182,31.997 24,32L24,32Z" fill="#374957"/>
</svg>
