<svg width="48" height="48" viewBox="0 0 48 48" fill="none" xmlns="http://www.w3.org/2000/svg" xmlns:xlink="http://www.w3.org/1999/xlink">
<path d="M45,27L3,27C2.204,27 1.441,26.684 0.879,26.121C0.316,25.559 0,24.796 0,24C0,23.204 0.316,22.441 0.879,21.879C1.441,21.316 2.204,21 3,21L45,21C45.796,21 46.559,21.316 47.121,21.879C47.684,22.441 48,23.204 48,24C48,24.796 47.684,25.559 47.121,26.121C46.559,26.684 45.796,27 45,27ZM37.734,13.8C38.019,12.609 37.892,11.356 37.376,10.246C36.859,9.135 35.982,8.232 34.888,7.682C34.807,7.641 34.723,7.603 34.636,7.568L17.726,0.8C16.692,0.256 15.537,-0.019 14.368,0.001C13.199,0.021 12.055,0.336 11.04,0.916C10.106,1.464 9.334,2.248 8.8,3.19C8.266,4.132 7.99,5.198 8,6.28L8,11.57C8.002,13.275 8.68,14.909 9.885,16.115C11.091,17.32 12.725,17.998 14.43,18L32,18C33.294,18.072 34.573,17.692 35.619,16.926C36.664,16.16 37.412,15.056 37.734,13.8L37.734,13.8ZM29.558,12L14.43,12C14.316,12 14.207,11.955 14.126,11.874C14.045,11.793 14,11.684 14,11.57L14,6.28C14,6.136 14.018,6.126 14.084,6.08C14.204,6.02 14.337,5.993 14.47,6C14.634,6 29.558,12 29.558,12ZM17.726,47.2L34.636,40.422C34.721,40.387 34.805,40.349 34.888,40.308C35.983,39.758 36.859,38.854 37.376,37.743C37.892,36.632 38.019,35.38 37.734,34.188C37.41,32.935 36.661,31.833 35.616,31.069C34.57,30.306 33.293,29.928 32,30L14.43,30C12.726,30.002 11.091,30.679 9.886,31.884C8.68,33.089 8.002,34.724 8,36.428L8,41.718C7.99,42.8 8.266,43.866 8.8,44.807C9.334,45.749 10.106,46.533 11.04,47.08C12.08,47.686 13.262,48.004 14.466,48C15.601,47.998 16.719,47.723 17.726,47.2L17.726,47.2ZM29.558,36C29.558,36 15.114,41.8 15,41.86C14.862,41.943 14.707,41.991 14.546,42C14.386,42.009 14.226,41.978 14.08,41.91C14.014,41.87 13.996,41.86 13.996,41.71L13.996,36.428C13.996,36.371 14.008,36.315 14.03,36.263C14.052,36.211 14.084,36.164 14.124,36.124C14.164,36.084 14.212,36.053 14.265,36.031C14.317,36.01 14.373,35.999 14.43,36L29.558,36Z" fill="#374957"/>
</svg>
