<svg width="48" height="48" viewBox="0 0 48 48" fill="none" xmlns="http://www.w3.org/2000/svg" xmlns:xlink="http://www.w3.org/1999/xlink">
<path d="M4.666,29.148L0.8,30.178C0.442,28.831 0.203,27.455 0.086,26.066L4.07,25.728C4.17,26.883 4.369,28.027 4.666,29.148L4.666,29.148ZM6.978,40.916C7.959,41.905 9.025,42.807 10.164,43.61L12.468,40.342C11.52,39.672 10.632,38.921 9.814,38.098L6.978,40.916ZM5.85,32.416L2.224,34.102C2.81,35.365 3.505,36.574 4.302,37.716L7.584,35.43C6.921,34.477 6.341,33.468 5.85,32.416L5.85,32.416ZM4.674,18.816L0.81,17.8C0.451,19.146 0.21,20.52 0.09,21.908L4.074,22.258C4.175,21.098 4.376,19.948 4.674,18.822L4.674,18.816ZM7.6,12.548L4.324,10.256C3.525,11.398 2.828,12.607 2.24,13.87L5.866,15.558C6.357,14.507 6.937,13.5 7.6,12.548L7.6,12.548ZM13.8,2.274L15.504,5.892C16.554,5.398 17.646,4.997 18.766,4.692L17.71,0.834C16.367,1.199 15.059,1.681 13.8,2.274L13.8,2.274ZM7,7.062L9.834,9.88C10.653,9.059 11.542,8.309 12.49,7.64L10.186,4.372C9.047,5.174 7.981,6.074 7,7.062L7,7.062ZM13.762,45.714C15.024,46.31 16.335,46.793 17.682,47.158L18.728,43.298C17.609,42.994 16.52,42.593 15.472,42.098L13.762,45.714ZM24,0C23.266,0 22.54,0.034 21.822,0.098L22.182,4.082C22.782,4.028 23.382,4 24,4C29.304,4 34.391,6.107 38.142,9.858C41.893,13.609 44,18.696 44,24C44,29.304 41.893,34.391 38.142,38.142C34.391,41.893 29.304,44 24,44C23.386,44 22.782,43.972 22.182,43.918L21.822,47.902C22.54,47.966 23.266,48 24,48C30.365,48 36.47,45.471 40.971,40.971C45.471,36.47 48,30.365 48,24C48,17.635 45.471,11.53 40.971,7.029C36.47,2.529 30.365,0 24,0L24,0ZM22,34L26,34L26,27.446C26.608,27.099 27.113,26.598 27.464,25.992C27.816,25.387 28.001,24.7 28.001,24C28.001,23.3 27.816,22.613 27.464,22.008C27.113,21.402 26.608,20.901 26,20.554L26,12L22,12L22,20.554C21.392,20.901 20.887,21.402 20.536,22.008C20.184,22.613 19.999,23.3 19.999,24C19.999,24.7 20.184,25.387 20.536,25.992C20.887,26.598 21.392,27.099 22,27.446L22,34Z" fill="#374957"/>
</svg>
