<svg width="44" height="48" viewBox="0 0 44 48" fill="none" xmlns="http://www.w3.org/2000/svg" xmlns:xlink="http://www.w3.org/1999/xlink">
<path d="M26.001,24C26.001,25.061 25.579,26.078 24.829,26.829C24.079,27.579 23.062,28 22.001,28C20.94,28 19.922,27.579 19.172,26.829C18.422,26.078 18.001,25.061 18.001,24C18.001,22.939 18.422,21.922 19.172,21.172C19.922,20.422 20.94,20 22.001,20C23.062,20 24.079,20.422 24.829,21.172C25.579,21.922 26.001,22.939 26.001,24L26.001,24ZM43.819,31.524C43.807,33.054 43.395,34.553 42.623,35.873C41.851,37.193 40.746,38.288 39.418,39.047C38.091,39.807 36.587,40.205 35.058,40.201C33.529,40.198 32.027,39.793 30.703,39.028C30.689,50.894 13.303,50.888 13.303,39.028C2.993,44.682 -5.347,29.724 4.771,23.888C-5.337,18.056 2.971,3.12 13.279,8.736C13.279,6.422 14.198,4.202 15.835,2.566C17.471,0.93 19.69,0.01 22.005,0.01C24.319,0.01 26.539,0.93 28.175,2.566C29.811,4.202 30.731,6.422 30.731,8.736C41.041,3.118 49.343,18.064 39.239,23.888C40.62,24.629 41.775,25.731 42.581,27.075C43.388,28.419 43.815,29.957 43.819,31.524L43.819,31.524ZM30.001,24C30.001,21.878 29.158,19.844 27.658,18.343C26.157,16.843 24.123,16 22.001,16C19.879,16 17.844,16.843 16.344,18.343C14.844,19.844 14.001,21.878 14.001,24C14.001,26.122 14.844,28.157 16.344,29.657C17.844,31.157 19.879,32 22.001,32C24.123,32 26.157,31.157 27.658,29.657C29.158,28.157 30.001,26.122 30.001,24Z" fill="#374957"/>
</svg>
