<svg width="48" height="48" viewBox="0 0 48 48" fill="none" xmlns="http://www.w3.org/2000/svg" xmlns:xlink="http://www.w3.org/1999/xlink">
<path d="M24,0C19.253,0 14.613,1.408 10.666,4.045C6.72,6.682 3.643,10.43 1.827,14.816C0.01,19.201 -0.465,24.027 0.461,28.682C1.387,33.338 3.673,37.614 7.029,40.971C10.386,44.327 14.662,46.613 19.318,47.539C23.973,48.465 28.799,47.99 33.184,46.173C37.57,44.357 41.318,41.28 43.955,37.334C46.592,33.387 48,28.747 48,24C47.993,17.637 45.462,11.536 40.963,7.037C36.464,2.538 30.363,0.007 24,0L24,0ZM40.454,12.658C42.547,15.689 43.756,19.242 43.946,22.92L38.474,19.066L40.454,12.658ZM29.422,4.768L24,8.708L18.578,4.768C22.12,3.744 25.88,3.744 29.422,4.768L29.422,4.768ZM29,22.112L27.096,28L20.896,28L19,22.112L24,18.472L29,22.112ZM9.526,19.066L4.054,22.92C4.244,19.242 5.453,15.689 7.544,12.658L9.526,19.066ZM8.014,35.97L14.964,36L17.134,42.76C13.503,41.423 10.336,39.065 8.014,35.97L8.014,35.97ZM21.686,43.854L17.884,32L5.662,31.964C5.057,30.569 4.615,29.108 4.344,27.612L14.2,20.662L10.648,9.152C11.748,8.155 12.956,7.283 14.248,6.552L23.914,13.6L14.288,20.6L18,32L30,32L33.71,20.584L24.086,13.6L33.76,6.56C35.052,7.291 36.26,8.163 37.36,9.16L33.8,20.662L43.662,27.61C43.391,29.106 42.949,30.565 42.344,31.96L30.116,32L26.316,43.854C24.779,44.049 23.225,44.049 21.688,43.854L21.686,43.854ZM30.864,42.76L33.036,36L39.986,35.978C37.664,39.072 34.495,41.427 30.864,42.76L30.864,42.76Z" fill="#374957"/>
</svg>
