<svg width="48" height="40" viewBox="0 0 48 40" fill="none" xmlns="http://www.w3.org/2000/svg" xmlns:xlink="http://www.w3.org/1999/xlink">
<path d="M41.999,20.848L41.999,18C41.999,13.226 40.103,8.647 36.727,5.272C33.352,1.896 28.773,0 23.999,0C19.226,0 14.647,1.896 11.271,5.272C7.896,8.647 5.999,13.226 5.999,18L5.999,20.848C3.902,21.771 2.185,23.388 1.137,25.426C0.088,27.464 -0.228,29.8 0.241,32.044C0.709,34.288 1.934,36.302 3.711,37.751C5.487,39.199 7.707,39.993 9.999,40L13.999,40L13.999,20L9.999,20L9.999,18C9.999,14.286 11.474,10.726 14.1,8.1C16.725,5.475 20.286,4 23.999,4C27.712,4 31.273,5.475 33.899,8.1C36.524,10.726 37.999,14.286 37.999,18L37.999,20L33.999,20L33.999,36L25.999,36L25.999,40L37.999,40C40.291,39.993 42.511,39.199 44.288,37.751C46.064,36.302 47.29,34.288 47.758,32.044C48.227,29.8 47.91,27.464 46.862,25.426C45.814,23.388 44.097,21.771 41.999,20.848L41.999,20.848ZM9.999,36C8.408,36 6.882,35.367 5.757,34.242C4.632,33.117 3.999,31.591 3.999,30C3.999,28.408 4.632,26.882 5.757,25.757C6.882,24.632 8.408,24 9.999,24L9.999,36ZM37.999,36L37.999,24C39.591,24 41.117,24.632 42.242,25.757C43.367,26.882 43.999,28.408 43.999,30C43.999,31.591 43.367,33.117 42.242,34.242C41.117,35.367 39.591,36 37.999,36Z" fill="#374957"/>
</svg>
