<svg width="50" height="48" viewBox="0 0 50 48" fill="none" xmlns="http://www.w3.org/2000/svg" xmlns:xlink="http://www.w3.org/1999/xlink">
<path d="M46.973,2.634C46.422,1.822 45.681,1.157 44.814,0.698C43.947,0.238 42.98,-0.001 41.999,0L5.999,0C5.018,-0.001 4.052,0.238 3.186,0.697C2.319,1.155 1.578,1.819 1.028,2.631C0.477,3.442 0.134,4.376 0.027,5.351C-0.079,6.325 0.056,7.311 0.419,8.222C2.186,12.596 5.146,16.385 8.961,19.16C12.776,21.934 17.293,23.582 21.999,23.916L21.999,44L11.999,44L11.999,48L35.999,48L35.999,44L25.999,44L25.999,23.916C30.704,23.582 35.221,21.934 39.036,19.16C42.851,16.385 45.811,12.596 47.579,8.222C47.942,7.312 48.076,6.327 47.971,5.353C47.865,4.379 47.522,3.445 46.973,2.634L46.973,2.634ZM4.337,4.88C4.519,4.607 4.766,4.383 5.056,4.229C5.346,4.076 5.67,3.997 5.999,4L41.999,4C42.326,3.999 42.649,4.078 42.938,4.231C43.228,4.383 43.476,4.605 43.66,4.876C43.844,5.146 43.958,5.458 43.994,5.783C44.029,6.109 43.984,6.438 43.863,6.742C43.697,7.158 43.509,7.578 43.305,8L4.693,8C4.493,7.578 4.293,7.158 4.135,6.742C4.011,6.439 3.965,6.111 4,5.785C4.036,5.46 4.151,5.149 4.337,4.88L4.337,4.88ZM23.999,20C20.778,20.041 17.592,19.341 14.685,17.954C11.779,16.567 9.23,14.53 7.237,12L40.761,12C38.767,14.53 36.219,16.567 33.312,17.954C30.406,19.341 27.219,20.041 23.999,20L23.999,20Z" fill="#374957"/>
</svg>
