<svg width="48" height="32" viewBox="0 0 48 32" fill="none" xmlns="http://www.w3.org/2000/svg" xmlns:xlink="http://www.w3.org/1999/xlink">
<path d="M42,0L4,0L4,14L0,14L0,18L4,18L4,32L42,32C43.591,32 45.117,31.368 46.243,30.243C47.368,29.118 48,27.592 48,26L48,6C48,4.409 47.368,2.883 46.243,1.758C45.117,0.633 43.591,0 42,0L42,0ZM8,18L10,18L10,14L8,14L8,4L14,4L14,28L8,28L8,18ZM44,26C44,26.531 43.789,27.04 43.414,27.415C43.039,27.79 42.53,28 42,28L18,28L18,4L42,4C42.53,4 43.039,4.211 43.414,4.586C43.789,4.961 44,5.47 44,6L44,26Z" fill="#374957"/>
</svg>
