<svg width="48" height="48" viewBox="0 0 48 48" fill="none" xmlns="http://www.w3.org/2000/svg" xmlns:xlink="http://www.w3.org/1999/xlink">
<path d="M37,22C39.176,22 41.302,21.355 43.111,20.146C44.92,18.937 46.33,17.22 47.163,15.21C47.995,13.2 48.213,10.988 47.789,8.854C47.364,6.72 46.317,4.76 44.778,3.222C43.24,1.683 41.28,0.636 39.146,0.211C37.012,-0.213 34.8,0.005 32.79,0.837C30.78,1.67 29.063,3.08 27.854,4.889C26.645,6.698 26,8.824 26,11C26.003,13.916 27.163,16.712 29.225,18.775C31.288,20.837 34.084,21.997 37,22L37,22ZM37,18C35.843,17.992 34.707,17.694 33.696,17.132L43.132,7.696C43.694,8.707 43.992,9.843 44,11C44,12.857 43.263,14.637 41.95,15.95C40.637,17.262 38.857,18 37,18L37,18ZM37,4C38.157,4.008 39.293,4.306 40.304,4.868L30.868,14.304C30.306,13.293 30.008,12.157 30,11C30,9.144 30.737,7.363 32.05,6.05C33.363,4.738 35.143,4 37,4L37,4ZM19.756,29.092L0.438,9.772C0.883,8.66 1.65,7.706 2.641,7.034C3.633,6.362 4.802,6.002 6,6L22.872,6C22.204,7.868 21.915,9.85 22.021,11.831C22.127,13.812 22.627,15.751 23.491,17.537C24.355,19.323 25.565,20.919 27.052,22.232C28.539,23.544 30.273,24.548 32.152,25.184L28.244,29.092C27.117,30.214 25.591,30.844 24,30.844C22.409,30.844 20.883,30.214 19.756,29.092L19.756,29.092ZM37,26C39.068,26 41.113,25.571 43.006,24.741C44.899,23.91 46.6,22.695 48,21.174L48,48L0,48L0,15L16.928,31.92C18.805,33.793 21.349,34.844 24,34.844C26.651,34.844 29.195,33.793 31.072,31.92L37,26Z" fill="#374957"/>
</svg>
