<svg width="48" height="48" viewBox="0 0 48 48" fill="none" xmlns="http://www.w3.org/2000/svg" xmlns:xlink="http://www.w3.org/1999/xlink">
<path d="M48,14.999C48.006,12.212 47.233,9.479 45.77,7.107C44.307,4.736 42.211,2.82 39.717,1.575C37.224,0.33 34.433,-0.194 31.658,0.061C28.883,0.317 26.234,1.342 24.01,3.021C22.212,1.664 20.132,0.73 17.924,0.287C15.716,-0.155 13.436,-0.095 11.254,0.464C9.073,1.022 7.045,2.065 5.321,3.515C3.598,4.964 2.222,6.783 1.298,8.837C0.373,10.891 -0.077,13.126 -0.02,15.377C0.038,17.629 0.602,19.838 1.63,21.842C2.658,23.846 4.124,25.592 5.919,26.952C7.714,28.312 9.793,29.25 12,29.697L12,35.999L10,35.999C9.204,35.999 8.441,36.315 7.879,36.877C7.316,37.44 7,38.203 7,38.999C7,39.794 7.316,40.557 7.879,41.12C8.441,41.683 9.204,41.999 10,41.999L12,41.999L12,44.999C12,45.794 12.316,46.557 12.879,47.12C13.441,47.683 14.204,47.999 15,47.999C15.796,47.999 16.559,47.683 17.121,47.12C17.684,46.557 18,45.794 18,44.999L18,41.999L20,41.999C20.796,41.999 21.559,41.683 22.121,41.12C22.684,40.557 23,39.794 23,38.999C23,38.203 22.684,37.44 22.121,36.877C21.559,36.315 20.796,35.999 20,35.999L18,35.999L18,29.693C20.181,29.249 22.235,28.32 24.01,26.977C25.779,28.318 27.826,29.248 30,29.697L30,35.999L28,35.999C27.204,35.999 26.441,36.315 25.879,36.877C25.316,37.44 25,38.203 25,38.999C25,39.794 25.316,40.557 25.879,41.12C26.441,41.683 27.204,41.999 28,41.999L30,41.999L30,44.999C30,45.794 30.316,46.557 30.879,47.12C31.441,47.683 32.204,47.999 33,47.999C33.796,47.999 34.559,47.683 35.121,47.12C35.684,46.557 36,45.794 36,44.999L36,41.999L38,41.999C38.796,41.999 39.559,41.683 40.121,41.12C40.684,40.557 41,39.794 41,38.999C41,38.203 40.684,37.44 40.121,36.877C39.559,36.315 38.796,35.999 38,35.999L36,35.999L36,29.697C39.386,29.001 42.428,27.159 44.613,24.481C46.799,21.804 47.995,18.455 48,14.999L48,14.999ZM6,14.999C5.998,13.368 6.44,11.768 7.278,10.37C8.116,8.971 9.319,7.827 10.757,7.06C12.196,6.293 13.816,5.932 15.445,6.016C17.073,6.099 18.647,6.625 20,7.535C18.685,9.802 17.992,12.377 17.992,14.999C17.992,17.62 18.685,20.195 20,22.463C18.647,23.373 17.073,23.898 15.445,23.982C13.816,24.065 12.196,23.704 10.757,22.937C9.319,22.17 8.116,21.026 7.278,19.628C6.44,18.229 5.998,16.629 6,14.999L6,14.999ZM24,14.999C24,13.219 24.528,11.479 25.517,9.999C26.506,8.519 27.911,7.365 29.556,6.684C31.2,6.003 33.01,5.824 34.756,6.172C36.502,6.519 38.105,7.376 39.364,8.635C40.623,9.893 41.48,11.497 41.827,13.243C42.174,14.989 41.996,16.798 41.315,18.443C40.634,20.087 39.48,21.493 38,22.482C36.52,23.471 34.78,23.999 33,23.999C30.614,23.996 28.326,23.047 26.639,21.36C24.952,19.673 24.003,17.385 24,14.999L24,14.999Z" fill="#374957"/>
</svg>
