<svg width="50" height="48" viewBox="0 0 50 48" fill="none" xmlns="http://www.w3.org/2000/svg" xmlns:xlink="http://www.w3.org/1999/xlink">
<path d="M32,5.5C32,9.826 26.36,15.202 23.55,17.456C23.11,17.809 22.564,18.001 22,18.001C21.436,18.001 20.89,17.809 20.45,17.456C17.64,15.2 12,9.826 12,5.5C11.937,4.108 12.428,2.749 13.365,1.718C14.302,0.687 15.609,0.069 17,0C18.391,0.069 19.698,0.687 20.635,1.718C21.572,2.749 22.063,4.108 22,5.5C21.937,4.108 22.428,2.749 23.365,1.718C24.302,0.687 25.609,0.069 27,0C28.391,0.069 29.698,0.687 30.635,1.718C31.572,2.749 32.063,4.108 32,5.5L32,5.5ZM35.636,40.822L46.036,28.936C47.415,27.406 48.13,25.39 48.023,23.333C47.916,21.276 46.996,19.345 45.466,17.966C43.936,16.587 41.92,15.872 39.863,15.979C37.806,16.086 35.875,17.006 34.496,18.536L29.62,23.894C28.279,22.672 26.529,21.996 24.714,22L9,22C6.614,22.003 4.326,22.952 2.639,24.639C0.952,26.326 0.003,28.614 0,31L0,39C0.003,41.386 0.952,43.674 2.639,45.361C4.326,47.048 6.614,47.997 9,48L19.828,48C22.822,48 25.782,47.359 28.509,46.121C31.235,44.883 33.665,43.076 35.636,40.822ZM24.714,28C25.04,27.998 25.355,28.12 25.594,28.341C25.834,28.562 25.98,28.866 26.004,29.192C26.027,29.517 25.926,29.839 25.721,30.092C25.515,30.346 25.221,30.512 24.898,30.556L14.576,32.03C13.788,32.142 13.078,32.563 12.6,33.2C12.123,33.836 11.918,34.636 12.03,35.424C12.142,36.212 12.563,36.922 13.2,37.4C13.836,37.877 14.636,38.082 15.424,37.97L25.748,36.496C27.314,36.264 28.762,35.532 29.877,34.409C30.992,33.285 31.714,31.831 31.934,30.264L38.934,22.578C39.09,22.406 39.278,22.267 39.488,22.168C39.698,22.069 39.926,22.013 40.158,22.002C40.389,21.991 40.621,22.026 40.839,22.104C41.058,22.183 41.258,22.304 41.43,22.46C41.775,22.779 41.98,23.22 42,23.689C42.021,24.158 41.856,24.616 41.54,24.964L31.128,36.874C29.719,38.485 27.981,39.775 26.032,40.659C24.084,41.543 21.968,42.001 19.828,42L9,42C8.204,42 7.441,41.684 6.879,41.121C6.316,40.559 6,39.796 6,39L6,31C6,30.204 6.316,29.441 6.879,28.879C7.441,28.316 8.204,28 9,28L24.714,28Z" fill="#374957"/>
</svg>
