<svg width="48" height="48" viewBox="0 0 48 48" fill="none" xmlns="http://www.w3.org/2000/svg" xmlns:xlink="http://www.w3.org/1999/xlink">
<path d="M18,36L0,36L0,18C0,14.44 1.056,10.96 3.034,8C5.011,5.04 7.823,2.733 11.112,1.37C14.401,0.008 18.02,-0.349 21.512,0.346C25.003,1.04 28.211,2.755 30.728,5.272C33.245,7.789 34.96,10.997 35.654,14.488C36.349,17.98 35.992,21.599 34.63,24.888C33.267,28.177 30.96,30.989 28,32.966C25.04,34.944 21.56,36 18,36L18,36ZM40,18.16C39.954,23.938 37.638,29.467 33.552,33.552C29.466,37.638 23.938,39.954 18.16,40L18.16,40C19.563,42.43 21.58,44.448 24.009,45.852C26.438,47.256 29.194,47.997 32,48L48,48L48,32C47.997,29.194 47.256,26.438 45.852,24.009C44.448,21.58 42.43,19.563 40,18.16Z" fill="#374957"/>
</svg>
