<svg width="48" height="48" viewBox="0 0 48 48" fill="none" xmlns="http://www.w3.org/2000/svg" xmlns:xlink="http://www.w3.org/1999/xlink">
<path d="M40,18.001L36.748,18.001L28.63,3.673C27.995,2.472 27.021,1.484 25.83,0.831C24.639,0.178 23.282,-0.11 21.928,0.001C20.987,0.024 20.063,0.261 19.227,0.694C18.39,1.127 17.664,1.745 17.102,2.501C16.508,3.292 16.11,4.213 15.941,5.189C15.771,6.164 15.836,7.165 16.128,8.111L19.41,18.001L16.246,18.001C15.589,18.002 14.938,17.873 14.331,17.622C13.724,17.371 13.172,17.002 12.708,16.537L9.874,13.703C8.999,12.828 7.869,12.254 6.646,12.065C5.423,11.876 4.172,12.082 3.074,12.653C2.393,13.004 1.792,13.491 1.306,14.083C0.82,14.675 0.46,15.361 0.248,16.097C-0.197,17.607 -0.037,19.231 0.694,20.625C0.694,20.625 3.964,28.355 4.024,28.459C4.988,30.141 6.379,31.538 8.055,32.511C9.732,33.484 11.636,33.998 13.574,34.001L18.91,34.001L16.4,39.543C16.045,40.49 15.925,41.509 16.05,42.513C16.175,43.516 16.542,44.475 17.118,45.306C17.694,46.137 18.463,46.816 19.359,47.286C20.255,47.755 21.251,48 22.262,48.001C23.482,48.001 24.681,47.682 25.739,47.076C26.798,46.471 27.68,45.599 28.298,44.547L35.98,34.001L40,34.001C42.122,34.001 44.157,33.158 45.657,31.658C47.157,30.157 48,28.123 48,26.001C48,23.879 47.157,21.844 45.657,20.344C44.157,18.844 42.122,18.001 40,18.001L40,18.001ZM21.858,6.331C21.848,6.297 21.8,6.001 22.106,6.001L22.49,6.001C22.677,5.993 22.862,6.042 23.02,6.143C23.178,6.243 23.302,6.39 23.374,6.563L29.852,18.001L25.73,18.001L21.858,6.331ZM40,28.001L34.454,28.001C33.981,28.001 33.515,28.113 33.094,28.327C32.673,28.542 32.308,28.853 32.03,29.235C32.03,29.235 23.2,41.367 23.14,41.479C23.054,41.637 22.927,41.769 22.773,41.86C22.618,41.952 22.442,42.001 22.262,42.001C21.94,42.001 21.996,41.759 21.984,41.759L26.292,32.239C26.499,31.782 26.588,31.28 26.551,30.78C26.514,30.28 26.353,29.797 26.081,29.375C25.809,28.954 25.436,28.607 24.996,28.367C24.555,28.127 24.062,28.001 23.56,28.001L13.574,28.001C12.72,27.999 11.88,27.78 11.135,27.363C10.389,26.946 9.763,26.346 9.314,25.619L6.4,18.709L8.468,20.779C9.487,21.803 10.7,22.615 12.035,23.168C13.37,23.721 14.801,24.004 16.246,24.001L40,24.001C40.531,24.001 41.039,24.212 41.414,24.587C41.789,24.962 42,25.47 42,26.001C42,26.531 41.789,27.04 41.414,27.415C41.039,27.79 40.531,28.001 40,28.001Z" fill="#374957"/>
</svg>
