<svg width="48" height="50" viewBox="0 0 48 50" fill="none" xmlns="http://www.w3.org/2000/svg" xmlns:xlink="http://www.w3.org/1999/xlink">
<path d="M39.694,14.2C38.066,1.2 30.018,0.032 29.926,0.022C29.807,0.008 29.688,0 29.568,0C27.529,0.087 25.561,0.774 23.912,1.976C22.332,0.764 20.414,0.074 18.424,0C18.306,0 18.187,0.008 18.07,0.022C17.98,0.032 9.934,1.2 8.306,14.2C5.448,15.126 0,17.416 0,21.428C0,29.338 12.388,30 24,30C35.612,30 48,29.338 48,21.428C48,17.416 42.552,15.126 39.694,14.2ZM14,20.672L14,19C14,8.878 17.686,6.51 18.716,6.046C19.274,6.155 19.8,6.39 20.254,6.732C21.329,7.557 22.645,8.004 24,8.004C25.355,8.004 26.671,7.557 27.746,6.732C28.2,6.391 28.724,6.156 29.28,6.044C30.304,6.504 34,8.868 34,19L34,20.672C30.749,21.597 27.38,22.044 24,22C20.62,22.044 17.251,21.597 14,20.672L14,20.672ZM42,40C42.007,41.912 41.327,43.763 40.084,45.216C38.842,46.669 37.118,47.627 35.228,47.916C33.338,48.205 31.407,47.806 29.787,46.791C28.167,45.776 26.965,44.213 26.4,42.386C25.616,42.173 24.811,42.044 24,42C23.189,42.044 22.384,42.173 21.6,42.386C21.047,44.156 19.897,45.678 18.346,46.694C16.795,47.709 14.94,48.155 13.097,47.954C11.254,47.753 9.538,46.919 8.242,45.593C6.947,44.267 6.152,42.532 5.993,40.685C5.835,38.838 6.322,36.993 7.373,35.466C8.424,33.939 9.973,32.824 11.755,32.312C13.536,31.8 15.441,31.923 17.142,32.66C18.843,33.396 20.236,34.7 21.082,36.35C22.041,36.138 23.018,36.021 24,36C24.983,36.021 25.962,36.138 26.922,36.35C27.737,34.752 29.066,33.476 30.695,32.727C32.325,31.978 34.159,31.8 35.902,32.222C37.645,32.644 39.195,33.641 40.302,35.052C41.408,36.463 42.006,38.207 42,40L42,40Z" fill="#374957"/>
</svg>
