<svg width="48" height="48" viewBox="0 0 48 48" fill="none" xmlns="http://www.w3.org/2000/svg" xmlns:xlink="http://www.w3.org/1999/xlink">
<path d="M31,27L26.62,27C25.86,27.669 24.874,28.023 23.862,27.991C22.851,27.959 21.889,27.542 21.173,26.827C20.458,26.111 20.041,25.149 20.009,24.138C19.977,23.126 20.331,22.14 21,21.38L21,14C21,13.204 21.316,12.441 21.879,11.879C22.441,11.316 23.204,11 24,11C24.796,11 25.559,11.316 26.121,11.879C26.684,12.441 27,13.204 27,14L27,21L31,21C31.796,21 32.559,21.316 33.121,21.879C33.684,22.441 34,23.204 34,24C34,24.796 33.684,25.559 33.121,26.121C32.559,26.684 31.796,27 31,27L31,27ZM24,0C23.204,0 22.441,0.316 21.879,0.879C21.316,1.441 21,2.204 21,3C21,3.796 21.316,4.559 21.879,5.121C22.441,5.684 23.204,6 24,6C28.772,6.005 33.348,7.903 36.722,11.278C40.097,14.652 41.995,19.228 42,24C42,24.796 42.316,25.559 42.879,26.121C43.441,26.684 44.204,27 45,27C45.796,27 46.559,26.684 47.121,26.121C47.684,25.559 48,24.796 48,24C47.993,17.637 45.462,11.536 40.963,7.037C36.464,2.538 30.363,0.007 24,0L24,0ZM6,25C6,24.407 5.824,23.827 5.494,23.333C5.165,22.84 4.696,22.455 4.148,22.228C3.6,22.001 2.997,21.942 2.415,22.058C1.833,22.173 1.298,22.459 0.879,22.879C0.459,23.298 0.173,23.833 0.058,24.415C-0.058,24.997 0.001,25.6 0.228,26.148C0.455,26.696 0.84,27.165 1.333,27.494C1.827,27.824 2.407,28 3,28C3.796,28 4.559,27.684 5.121,27.121C5.684,26.559 6,25.796 6,25L6,25ZM13.48,3.788C12.887,3.788 12.307,3.964 11.813,4.294C11.32,4.623 10.935,5.092 10.708,5.64C10.481,6.188 10.422,6.791 10.538,7.373C10.653,7.955 10.939,8.49 11.359,8.909C11.778,9.329 12.313,9.615 12.895,9.73C13.477,9.846 14.08,9.787 14.628,9.56C15.176,9.333 15.645,8.948 15.974,8.455C16.304,7.961 16.48,7.381 16.48,6.788C16.48,5.992 16.164,5.229 15.601,4.667C15.039,4.104 14.276,3.788 13.48,3.788ZM5.826,11.5C5.233,11.5 4.653,11.676 4.159,12.006C3.666,12.335 3.281,12.804 3.054,13.352C2.827,13.9 2.768,14.503 2.884,15.085C2.999,15.667 3.285,16.202 3.705,16.621C4.124,17.041 4.659,17.327 5.241,17.442C5.823,17.558 6.426,17.499 6.974,17.272C7.522,17.045 7.991,16.66 8.32,16.167C8.65,15.673 8.826,15.093 8.826,14.5C8.826,13.704 8.51,12.941 7.947,12.379C7.385,11.816 6.622,11.5 5.826,11.5ZM13.48,40.212C12.887,40.212 12.307,40.388 11.813,40.718C11.32,41.047 10.935,41.516 10.708,42.064C10.481,42.612 10.422,43.215 10.538,43.797C10.653,44.379 10.939,44.914 11.359,45.333C11.778,45.753 12.313,46.039 12.895,46.154C13.477,46.27 14.08,46.211 14.628,45.984C15.176,45.757 15.645,45.372 15.974,44.879C16.304,44.385 16.48,43.805 16.48,43.212C16.48,42.416 16.164,41.653 15.601,41.091C15.039,40.528 14.276,40.212 13.48,40.212ZM5.826,32.5C5.233,32.5 4.653,32.676 4.159,33.006C3.666,33.335 3.281,33.804 3.054,34.352C2.827,34.9 2.768,35.503 2.884,36.085C2.999,36.667 3.285,37.202 3.705,37.621C4.124,38.041 4.659,38.327 5.241,38.442C5.823,38.558 6.426,38.499 6.974,38.272C7.522,38.045 7.991,37.66 8.32,37.167C8.65,36.673 8.826,36.093 8.826,35.5C8.826,34.704 8.51,33.941 7.947,33.379C7.385,32.816 6.622,32.5 5.826,32.5ZM24,42C23.407,42 22.827,42.176 22.333,42.506C21.84,42.835 21.455,43.304 21.228,43.852C21.001,44.4 20.942,45.003 21.058,45.585C21.173,46.167 21.459,46.702 21.879,47.121C22.298,47.541 22.833,47.827 23.415,47.942C23.997,48.058 24.6,47.999 25.148,47.772C25.696,47.545 26.165,47.16 26.494,46.667C26.824,46.173 27,45.593 27,45C27,44.204 26.684,43.441 26.121,42.879C25.559,42.316 24.796,42 24,42ZM42.212,31.52C41.619,31.52 41.039,31.696 40.545,32.026C40.052,32.355 39.667,32.824 39.44,33.372C39.213,33.92 39.154,34.523 39.27,35.105C39.385,35.687 39.671,36.222 40.091,36.641C40.51,37.061 41.045,37.347 41.627,37.462C42.209,37.578 42.812,37.519 43.36,37.292C43.908,37.065 44.377,36.68 44.706,36.187C45.036,35.693 45.212,35.113 45.212,34.52C45.212,33.724 44.896,32.961 44.333,32.399C43.771,31.836 43.008,31.52 42.212,31.52L42.212,31.52ZM34.5,39.174C33.907,39.174 33.327,39.35 32.833,39.68C32.34,40.009 31.955,40.478 31.728,41.026C31.501,41.574 31.442,42.177 31.558,42.759C31.673,43.341 31.959,43.876 32.379,44.295C32.798,44.715 33.333,45.001 33.915,45.116C34.497,45.232 35.1,45.173 35.648,44.946C36.196,44.719 36.665,44.334 36.994,43.841C37.324,43.347 37.5,42.767 37.5,42.174C37.5,41.378 37.184,40.615 36.621,40.053C36.059,39.49 35.296,39.174 34.5,39.174Z" fill="#374957"/>
</svg>
