<svg width="48" height="44" viewBox="0 0 48 44" fill="none" xmlns="http://www.w3.org/2000/svg" xmlns:xlink="http://www.w3.org/1999/xlink">
<path d="M44,24C44,22.409 43.368,20.883 42.243,19.757C41.117,18.632 39.591,18 38,18L38,14C37.994,12.702 37.567,11.44 36.783,10.405C35.999,9.37 34.9,8.617 33.652,8.26L32.322,1.6C32.23,1.148 31.984,0.742 31.626,0.45C31.269,0.158 30.821,-0.001 30.36,0L29.64,0C29.179,-0.001 28.731,0.158 28.374,0.45C28.016,0.742 27.77,1.148 27.678,1.6L26.4,8L20.5,8L22,2C22,1.47 21.789,0.961 21.414,0.586C21.039,0.211 20.53,0 20,0L16,0C15.47,0 14.961,0.211 14.586,0.586C14.211,0.961 14,1.47 14,2L15.512,8.05C14.014,8.169 12.616,8.847 11.595,9.949C10.574,11.051 10.004,12.497 10,14L10,18C8.409,18 6.883,18.632 5.757,19.757C4.632,20.883 4,22.409 4,24L4,38.02L0,38.02L0,42.02L48,42.02L48,38.02L44,38.02L44,24ZM14,14C14,13.47 14.211,12.961 14.586,12.586C14.961,12.211 15.47,12 16,12L32,12C32.53,12 33.039,12.211 33.414,12.586C33.789,12.961 34,13.47 34,14L34,18L14,18L14,14ZM10,22L38,22C38.53,22 39.039,22.211 39.414,22.586C39.789,22.961 40,23.47 40,24L40,27.96C38.128,27.76 37,26.56 37,26L33,26C33,26.688 31.636,28 29.5,28C27.322,28 26,26.612 26,26L22,26C22,26.688 20.636,28 18.5,28C16.322,28 15,26.612 15,26L11,26C11,26.632 9.842,27.776 8,27.962L8,24C8,23.47 8.211,22.961 8.586,22.586C8.961,22.211 9.47,22 10,22ZM8,31.958C9.837,31.876 11.596,31.188 13,30C14.543,31.286 16.486,31.993 18.495,31.998C20.503,32.004 22.45,31.308 24,30.03C25.55,31.308 27.497,32.004 29.505,31.998C31.514,31.993 33.457,31.286 35,30C36.404,31.187 38.163,31.875 40,31.956L40,38.02L8,38.02L8,31.958Z" fill="#374957"/>
</svg>
