<svg width="48" height="48" viewBox="0 0 48 48" fill="none" xmlns="http://www.w3.org/2000/svg" xmlns:xlink="http://www.w3.org/1999/xlink">
<path d="M26.291,0.121C31.842,0.646 37.037,3.09 40.98,7.033C44.923,10.975 47.367,16.17 47.891,21.721C44.94,22.236 41.909,22.032 39.053,21.129C36.197,20.225 33.601,18.648 31.483,16.53C29.365,14.412 27.787,11.815 26.884,8.959C25.98,6.104 25.777,3.072 26.291,0.121L26.291,0.121ZM16.553,31.447C14.433,29.327 11.831,27.753 8.97,26.858C6.108,25.963 3.073,25.775 0.123,26.309C0.652,31.851 3.095,37.035 7.031,40.971C10.967,44.908 16.151,47.35 21.693,47.879C22.227,44.929 22.038,41.893 21.143,39.032C20.248,36.17 18.673,33.568 16.553,31.447L16.553,31.447ZM44.715,26.001C41.463,26.003 38.25,25.305 35.292,23.955C32.334,22.605 29.701,20.634 27.572,18.177C25.443,15.72 23.867,12.834 22.952,9.714C22.036,6.594 21.803,3.314 22.267,0.095C16.514,0.493 11.1,2.959 7.024,7.038C2.949,11.116 0.487,16.533 0.095,22.285C3.581,21.756 7.143,22.054 10.493,23.154C13.843,24.255 16.888,26.127 19.381,28.621C21.874,31.114 23.747,34.159 24.847,37.509C25.947,40.859 26.244,44.421 25.715,47.907C31.467,47.517 36.883,45.059 40.964,40.986C45.044,36.914 47.513,31.502 47.915,25.751C46.855,25.909 45.786,25.993 44.715,26.001L44.715,26.001Z" fill="#374957"/>
</svg>
