<svg width="48" height="48" viewBox="0 0 48 48" fill="none" xmlns="http://www.w3.org/2000/svg" xmlns:xlink="http://www.w3.org/1999/xlink">
<path d="M40.938,2.293L40.876,2.271L35.694,0.545C33.689,-0.122 31.531,-0.179 29.494,0.383L18.88,3.469C17.827,3.755 16.707,3.66 15.718,3.201L14.718,2.741C13.102,2.069 11.346,1.807 9.605,1.976C7.864,2.146 6.191,2.742 4.735,3.713C3.28,4.684 2.086,5.998 1.26,7.541C0.434,9.083 0.001,10.805 0,12.555L0,35.601C0.005,37.898 0.751,40.132 2.129,41.97C3.506,43.808 5.441,45.151 7.644,45.801L13.124,47.515C14.151,47.835 15.22,47.999 16.296,48.001C17.252,47.981 18.202,47.853 19.128,47.617L30.2,44.561C31.019,44.337 31.883,44.344 32.698,44.581L37.216,45.883C38.5,46.194 39.838,46.21 41.129,45.929C42.42,45.649 43.63,45.078 44.669,44.261C45.707,43.445 46.546,42.403 47.124,41.214C47.701,40.026 48,38.722 48,37.401L48,12.309C47.997,10.115 47.317,7.976 46.053,6.184C44.789,4.391 43.003,3.032 40.938,2.293L40.938,2.293ZM28,7.069L28,38.941L20,41.151L20,9.337L28,7.069ZM9.364,40.055C8.397,39.776 7.546,39.191 6.94,38.388C6.333,37.585 6.004,36.607 6,35.601L6,12.555C5.994,11.79 6.18,11.037 6.54,10.363C6.901,9.689 7.425,9.116 8.064,8.697C8.832,8.178 9.737,7.9 10.664,7.897C11.229,7.895 11.788,8.005 12.31,8.221L14,8.929L14,41.505L9.364,40.055ZM42,37.401C42,37.803 41.91,38.201 41.738,38.565C41.567,38.929 41.317,39.25 41.006,39.506C40.696,39.763 40.332,39.947 39.942,40.047C39.552,40.146 39.145,40.159 38.75,40.083L34,38.741L34,6.307L38.95,7.953C39.843,8.279 40.614,8.872 41.16,9.651C41.705,10.43 41.999,11.358 42,12.309L42,37.401Z" fill="#374957"/>
</svg>
