<svg width="48" height="48" viewBox="0 0 48 48" fill="none" xmlns="http://www.w3.org/2000/svg" xmlns:xlink="http://www.w3.org/1999/xlink">
<path d="M16.948,22C14.772,22 12.646,21.355 10.837,20.146C9.028,18.937 7.618,17.22 6.785,15.21C5.953,13.2 5.735,10.988 6.159,8.854C6.584,6.72 7.631,4.76 9.17,3.222C10.708,1.683 12.668,0.636 14.802,0.211C16.936,-0.213 19.148,0.005 21.158,0.837C23.168,1.67 24.885,3.08 26.094,4.889C27.303,6.698 27.948,8.824 27.948,11C27.945,13.916 26.785,16.712 24.723,18.775C22.66,20.837 19.864,21.997 16.948,22L16.948,22ZM16.948,4C15.564,4 14.21,4.411 13.059,5.18C11.908,5.949 11.011,7.042 10.481,8.321C9.951,9.6 9.812,11.008 10.083,12.366C10.353,13.724 11.019,14.971 11.998,15.95C12.977,16.929 14.225,17.595 15.582,17.865C16.94,18.136 18.348,17.997 19.627,17.467C20.906,16.937 21.999,16.04 22.768,14.889C23.537,13.738 23.948,12.384 23.948,11C23.948,9.144 23.211,7.363 21.898,6.05C20.585,4.738 18.805,4 16.948,4L16.948,4ZM34,48C31.231,48 28.524,47.179 26.222,45.641C23.92,44.102 22.125,41.916 21.066,39.358C20.006,36.799 19.729,33.984 20.269,31.269C20.809,28.553 22.143,26.058 24.101,24.101C26.058,22.143 28.553,20.809 31.269,20.269C33.984,19.729 36.799,20.006 39.358,21.066C41.916,22.125 44.102,23.92 45.641,26.222C47.179,28.524 48,31.231 48,34C47.996,37.712 46.519,41.27 43.895,43.895C41.27,46.519 37.712,47.996 34,48L34,48ZM34,24C32.022,24 30.089,24.586 28.444,25.685C26.8,26.784 25.518,28.346 24.761,30.173C24.004,32 23.806,34.011 24.192,35.951C24.578,37.891 25.53,39.673 26.929,41.071C28.327,42.47 30.109,43.422 32.049,43.808C33.989,44.194 36,43.996 37.827,43.239C39.654,42.482 41.216,41.2 42.315,39.556C43.414,37.911 44,35.978 44,34C43.997,31.349 42.942,28.807 41.068,26.932C39.193,25.058 36.651,24.003 34,24ZM39.414,36.586L36,33.172L36,28L32,28L32,34.828L36.586,39.414L39.414,36.586ZM17.894,26L10,26C7.349,26.003 4.807,27.058 2.932,28.932C1.058,30.807 0.003,33.349 0,36L0,48L4,48L4,36C4,34.409 4.632,32.883 5.757,31.757C6.883,30.632 8.409,30 10,30L16.462,30C16.777,28.614 17.258,27.271 17.894,26L17.894,26Z" fill="#374957"/>
</svg>
