<svg width="40" height="50" viewBox="0 0 40 50" fill="none" xmlns="http://www.w3.org/2000/svg" xmlns:xlink="http://www.w3.org/1999/xlink">
<path d="M35.888,5.285L20,0.019L4.112,5.285C2.915,5.682 1.873,6.446 1.135,7.468C0.397,8.491 0,9.72 0,10.981L0,24.001C0,39.049 18.4,47.359 19.188,47.705L19.896,48.019L20.632,47.775C21.424,47.511 40,41.155 40,24.001L40,10.981C40,9.72 39.603,8.491 38.865,7.468C38.127,6.446 37.085,5.682 35.888,5.285L35.888,5.285ZM20.888,27.979C20.538,28.331 20.122,28.61 19.664,28.8C19.206,28.99 18.714,29.087 18.218,29.085L18.152,29.085C17.646,29.077 17.146,28.967 16.684,28.761C16.222,28.554 15.806,28.257 15.462,27.885L10.85,23.085L13.736,20.321L18.224,25.001L28.586,14.639L31.414,17.467L20.888,27.979Z" fill="#374957"/>
</svg>
