<svg width="48" height="50" viewBox="0 0 48 50" fill="none" xmlns="http://www.w3.org/2000/svg" xmlns:xlink="http://www.w3.org/1999/xlink">
<path d="M43.023,4.98C39.833,1.796 35.509,0.007 31.002,0.007C26.494,0.007 22.171,1.796 18.981,4.98C12.637,11.322 12.025,27.256 12.001,27.932L11.973,28.8L14.173,31L5.615,39.558C5.333,39.042 4.905,38.62 4.385,38.345C3.865,38.07 3.275,37.954 2.69,38.012C2.104,38.069 1.548,38.297 1.092,38.668C0.635,39.039 0.297,39.536 0.121,40.097C-0.056,40.658 -0.064,41.259 0.099,41.824C0.261,42.39 0.586,42.895 1.033,43.278C1.48,43.66 2.03,43.902 2.614,43.974C3.198,44.047 3.79,43.946 4.317,43.684C4.055,44.211 3.954,44.803 4.026,45.387C4.099,45.971 4.341,46.521 4.723,46.968C5.106,47.415 5.611,47.74 6.177,47.902C6.742,48.064 7.343,48.057 7.904,47.88C8.465,47.704 8.962,47.366 9.333,46.909C9.704,46.452 9.932,45.897 9.989,45.311C10.047,44.726 9.931,44.136 9.656,43.616C9.381,43.096 8.959,42.668 8.443,42.386L17.001,33.828L19.201,36.028L20.069,36C20.745,35.976 36.669,35.364 43.023,29.02C46.206,25.83 47.994,21.507 47.994,17C47.994,12.493 46.206,8.17 43.023,4.98L43.023,4.98ZM40.201,26.2C36.129,30.27 25.531,31.688 20.801,31.968L16.041,27.21C16.321,22.476 17.739,11.878 21.809,7.81C24.247,5.371 27.555,4.001 31.004,4.001C34.453,4 37.761,5.37 40.2,7.809C42.639,10.248 44.009,13.555 44.009,17.004C44.009,20.453 42.639,23.761 40.201,26.2L40.201,26.2Z" fill="#374957"/>
</svg>
