<svg width="48" height="48" viewBox="0 0 48 48" fill="none" xmlns="http://www.w3.org/2000/svg" xmlns:xlink="http://www.w3.org/1999/xlink">
<path d="M20,4C20,2.939 20.421,1.922 21.172,1.172C21.922,0.421 22.939,0 24,0C25.061,0 26.078,0.421 26.828,1.172C27.579,1.922 28,2.939 28,4C28,5.061 27.579,6.078 26.828,6.828C26.078,7.579 25.061,8 24,8C22.939,8 21.922,7.579 21.172,6.828C20.421,6.078 20,5.061 20,4L20,4ZM42.494,26.35C44.114,28.122 45.238,30.29 45.752,32.636C46.266,34.981 46.152,37.421 45.422,39.708C45.058,40.956 44.42,42.108 43.555,43.079C42.69,44.05 41.62,44.816 40.422,45.322C39.254,45.821 37.989,46.054 36.719,46.004C35.45,45.954 34.207,45.622 33.082,45.032C30.917,43.902 28.878,42.544 27,40.982L27,43.096C27,43.892 26.684,44.655 26.121,45.217C25.559,45.78 24.796,46.096 24,46.096C23.204,46.096 22.441,45.78 21.879,45.217C21.316,44.655 21,43.892 21,43.096L21,41.05C19.15,42.578 17.146,43.909 15.02,45.02C13.895,45.61 12.653,45.942 11.384,45.992C10.114,46.042 8.85,45.809 7.682,45.31C6.486,44.806 5.416,44.042 4.551,43.073C3.687,42.105 3.048,40.956 2.682,39.71C1.965,37.439 1.862,35.018 2.384,32.694C2.905,30.37 4.033,28.225 5.652,26.478C5.314,26.196 4.984,25.904 4.666,25.592C3.23,24.22 2.079,22.578 1.278,20.761C0.478,18.943 0.043,16.986 0,15C0,2.626 7.498,2 9,2C14.782,2 19.746,7.682 24,13.512C28.258,7.684 33.218,2 39,2C40.504,2 48,2.626 48,15C47.957,16.983 47.525,18.937 46.726,20.753C45.928,22.568 44.78,24.208 43.348,25.58C43.078,25.848 42.786,26.1 42.494,26.35ZM21,29.026C19.076,29.658 17.065,29.987 15.04,30C13.732,29.998 12.43,29.809 11.176,29.438C9.881,30.399 8.92,31.742 8.427,33.278C7.934,34.813 7.935,36.465 8.428,38C8.545,38.398 8.75,38.764 9.026,39.073C9.303,39.381 9.645,39.624 10.028,39.784C10.377,39.936 10.756,40.007 11.137,39.994C11.517,39.98 11.89,39.882 12.228,39.706C17.344,37.024 20.524,33.534 20.996,31.382L21,29.026ZM21,19.626C20.774,19.314 20.528,18.968 20.258,18.588C18.2,15.684 12.738,8 9,8C7.152,8 6,10.68 6,15C6.082,17.402 7.114,19.673 8.868,21.316C9.653,22.148 10.596,22.813 11.642,23.274C12.689,23.735 13.817,23.982 14.96,24C17.088,24.086 19.193,23.528 21,22.4L21,19.626ZM40.096,35.384C40.073,34.224 39.783,33.085 39.248,32.056C38.713,31.026 37.948,30.134 37.012,29.448L36.978,29.418C35.674,29.806 34.321,30.008 32.96,30.018C30.935,30.005 28.924,29.676 27,29.042C27,29.042 27,31.132 27,31.264C27.35,33.402 30.628,36.992 35.862,39.736C36.201,39.914 36.576,40.013 36.959,40.027C37.342,40.04 37.723,39.968 38.074,39.814C38.457,39.654 38.799,39.411 39.076,39.103C39.352,38.794 39.557,38.428 39.674,38.03C39.952,37.172 40.094,36.276 40.096,35.374L40.096,35.384ZM42,15C41.816,-0.2 31.134,13.556 27.752,18.574C27.476,18.962 27.224,19.316 26.994,19.632L26.994,22.4C28.8,23.53 30.905,24.088 33.034,24C34.179,23.984 35.31,23.737 36.358,23.275C37.405,22.812 38.349,22.142 39.132,21.306C40.884,19.666 41.915,17.398 42,15L42,15Z" fill="#374957"/>
</svg>
