<svg width="48" height="50" viewBox="0 0 48 50" fill="none" xmlns="http://www.w3.org/2000/svg" xmlns:xlink="http://www.w3.org/1999/xlink">
<path d="M43,16C42.204,16 41.441,15.684 40.878,15.121C40.316,14.559 40,13.796 40,13L40,3C40,2.204 40.316,1.441 40.878,0.879C41.441,0.316 42.204,0 43,0C43.795,0 44.558,0.316 45.121,0.879C45.684,1.441 46,2.204 46,3L46,13C46,13.796 45.684,14.559 45.121,15.121C44.558,15.684 43.795,16 43,16ZM36,13L36,3C36,2.204 35.684,1.441 35.121,0.879C34.558,0.316 33.795,0 33,0C32.204,0 31.441,0.316 30.878,0.879C30.316,1.441 30,2.204 30,3L30,13C30,13.796 30.316,14.559 30.878,15.121C31.441,15.684 32.204,16 33,16C33.795,16 34.558,15.684 35.121,15.121C35.684,14.559 36,13.796 36,13ZM44.124,44.276C44.172,44.226 46.032,42.092 46.032,42.092C47.317,40.756 48.021,38.966 47.99,37.113C47.96,35.259 47.198,33.493 45.87,32.2L41.4,28.05C40.067,26.78 38.296,26.071 36.455,26.071C34.613,26.071 32.843,26.78 31.51,28.05L30.69,28.85C25.578,26.52 21.485,22.414 19.172,17.294L19.95,16.506C21.238,15.202 21.967,13.446 21.982,11.613C21.997,9.779 21.295,8.013 20.028,6.688L15.722,2.05C14.423,0.752 12.667,0.016 10.831,0.001C8.996,-0.014 7.228,0.692 5.908,1.968C5.908,1.968 3.776,3.828 3.726,3.876C-10.146,19.57 18.684,48.448 35,48C36.691,48.013 38.368,47.69 39.935,47.051C41.501,46.412 42.924,45.469 44.124,44.276L44.124,44.276ZM10.066,6.292C10.238,6.113 10.471,6.006 10.718,5.991C10.966,5.976 11.21,6.055 11.402,6.212L15.708,10.85C15.807,10.942 15.885,11.053 15.938,11.177C15.991,11.301 16.018,11.434 16.016,11.569C16.014,11.704 15.985,11.837 15.928,11.959C15.872,12.082 15.791,12.191 15.69,12.28L13.472,14.534C13.063,14.95 12.784,15.477 12.669,16.049C12.555,16.621 12.61,17.215 12.828,17.756C14.318,21.746 16.648,25.369 19.662,28.378C22.675,31.388 26.3,33.715 30.292,35.2C30.829,35.405 31.414,35.452 31.976,35.334C32.539,35.216 33.056,34.939 33.466,34.536L35.736,32.302C36.296,31.876 36.638,31.882 37.232,32.382L41.708,36.53C41.805,36.62 41.882,36.729 41.935,36.851C41.988,36.972 42.015,37.104 42.015,37.236C42.015,37.369 41.988,37.5 41.935,37.621C41.882,37.743 41.805,37.852 41.708,37.942C41.658,37.992 39.81,40.11 39.81,40.11C29.308,49.546 -1.822,20.254 7.9,8.2C7.9,8.2 10.018,6.342 10.066,6.292Z" fill="#374957"/>
</svg>
