<svg width="48" height="48" viewBox="0 0 48 48" fill="none" xmlns="http://www.w3.org/2000/svg" xmlns:xlink="http://www.w3.org/1999/xlink">
<path d="M42,0L6,0C4.409,0 2.883,0.632 1.757,1.757C0.632,2.883 0,4.409 0,6L0,48L48,48L48,6C48,4.409 47.368,2.883 46.243,1.757C45.117,0.632 43.591,0 42,0L42,0ZM44,6L44,10L30,10L30,4L42,4C42.53,4 43.039,4.211 43.414,4.586C43.789,4.961 44,5.47 44,6ZM22,4L26,4L26,16L22,16L22,4ZM6,4L18,4L18,10L4,10L4,6C4,5.47 4.211,4.961 4.586,4.586C4.961,4.211 5.47,4 6,4L6,4ZM4,44L4,14L18,14L18,20L30,20L30,14L44,14L44,44L4,44ZM30,36L40,36L40,40L30,40L30,36Z" fill="#374957"/>
</svg>
