<svg width="48" height="50" viewBox="0 0 48 50" fill="none" xmlns="http://www.w3.org/2000/svg" xmlns:xlink="http://www.w3.org/1999/xlink">
<path d="M26.676,1.666C25.941,1.005 24.988,0.639 24,0.639C23.012,0.639 22.059,1.005 21.324,1.666L0,20.858L0,41.658C0,43.356 0.674,44.983 1.875,46.184C3.075,47.384 4.703,48.058 6.4,48.058L41.6,48.058C43.297,48.058 44.925,47.384 46.125,46.184C47.326,44.983 48,43.356 48,41.658L48,20.858L26.676,1.666ZM30,44.052L18,44.052L18,34C18,32.409 18.632,30.883 19.757,29.758C20.883,28.632 22.409,28 24,28C25.591,28 27.117,28.632 28.243,29.758C29.368,30.883 30,32.409 30,34L30,44.052ZM44,41.652C44,42.289 43.747,42.899 43.297,43.349C42.847,43.799 42.237,44.052 41.6,44.052L34,44.052L34,34C34,31.348 32.946,28.804 31.071,26.929C29.196,25.054 26.652,24 24,24C21.348,24 18.804,25.054 16.929,26.929C15.054,28.804 14,31.348 14,34L14,44.052L6.4,44.052C5.763,44.052 5.153,43.799 4.703,43.349C4.253,42.899 4,42.289 4,41.652L4,22.638L24,4.638L44,22.638L44,41.652Z" fill="#374957"/>
</svg>
