<svg width="22" height="46" viewBox="0 0 22 46" fill="none" xmlns="http://www.w3.org/2000/svg" xmlns:xlink="http://www.w3.org/1999/xlink">
<path d="M20.631,29.714L5.611,2.164C5.23,1.466 4.588,0.947 3.825,0.722C3.062,0.497 2.241,0.584 1.543,0.964C1.03,1.284 0.613,1.735 0.334,2.271C0.055,2.807 -0.075,3.407 -0.043,4.01L-0.043,43C-0.043,43.796 0.273,44.559 0.836,45.122C1.398,45.684 2.161,46 2.957,46L10.989,46C12.899,46 14.775,45.502 16.434,44.555C18.093,43.609 19.477,42.248 20.45,40.604C21.423,38.961 21.951,37.093 21.983,35.183C22.014,33.274 21.549,31.389 20.631,29.714L20.631,29.714Z" fill="#374957"/>
</svg>
