<svg width="20" height="20" viewBox="0 0 20 20" fill="none" xmlns="http://www.w3.org/2000/svg" xmlns:xlink="http://www.w3.org/1999/xlink">
<path d="M16,0L16,2.052C14.279,0.728 12.171,0.007 10,0C7.348,0 4.804,1.053 2.929,2.928C1.054,4.804 0,7.347 0,10C0,12.652 1.054,15.195 2.929,17.071C4.804,18.946 7.348,20 10,20C12.171,19.992 14.279,19.271 16,17.948L16,20L20,20L20,0L16,0ZM10,16C8.813,16 7.653,15.648 6.667,14.988C5.68,14.329 4.911,13.392 4.457,12.296C4.003,11.199 3.884,9.993 4.115,8.829C4.347,7.665 4.918,6.596 5.757,5.757C6.596,4.918 7.666,4.346 8.829,4.115C9.993,3.883 11.2,4.002 12.296,4.456C13.392,4.91 14.33,5.679 14.989,6.666C15.648,7.653 16,8.813 16,10C16,11.591 15.368,13.117 14.243,14.242C13.117,15.367 11.591,16 10,16Z" fill="#374957"/>
</svg>
