<svg width="50" height="50" viewBox="0 0 50 50" fill="none" xmlns="http://www.w3.org/2000/svg" xmlns:xlink="http://www.w3.org/1999/xlink">
<path d="M47.122,8.877L39.122,0.877C38.844,0.598 38.513,0.377 38.149,0.226C37.785,0.076 37.394,-0.002 37,-0.002C36.204,-0.002 35.441,0.314 34.878,0.877C34.315,1.44 33.999,2.203 33.999,2.999C33.999,3.795 34.315,4.558 34.878,5.121L36.758,6.999L34.08,9.677C31.982,8.356 29.496,7.788 27.032,8.069C24.568,8.349 22.272,9.46 20.524,11.219L10.36,21.365C8.965,22.754 7.858,24.406 7.104,26.226C6.351,28.045 5.965,29.996 5.97,31.965L5.97,37.765L0.874,42.883C0.589,43.16 0.361,43.492 0.205,43.858C0.048,44.225 -0.034,44.619 -0.036,45.017C-0.039,45.415 0.038,45.81 0.19,46.178C0.342,46.547 0.565,46.881 0.848,47.162C1.13,47.443 1.465,47.665 1.834,47.815C2.203,47.965 2.598,48.04 2.997,48.035C3.395,48.031 3.788,47.947 4.154,47.789C4.52,47.631 4.85,47.402 5.126,47.115L10.218,41.999L16,41.999C17.97,42.004 19.922,41.618 21.742,40.862C23.561,40.107 25.213,38.998 26.6,37.599L36.764,27.453C38.507,25.701 39.609,23.412 39.893,20.957C40.176,18.502 39.624,16.022 38.326,13.919L41,11.241L42.878,13.121C43.441,13.684 44.204,14 45,14C45.796,14 46.559,13.684 47.122,13.121C47.685,12.558 48.001,11.795 48.001,10.999C48.001,10.203 47.685,9.44 47.122,8.877L47.122,8.877ZM32.51,23.219L22.346,33.365C21.515,34.201 20.526,34.865 19.437,35.317C18.348,35.769 17.18,36.001 16,35.999L11.97,35.999L11.97,31.969C11.979,30.887 12.182,29.815 12.57,28.805L14.884,31.121C15.163,31.4 15.494,31.621 15.858,31.771C16.222,31.922 16.612,32 17.006,32C17.4,32 17.791,31.922 18.155,31.771C18.519,31.621 18.85,31.4 19.128,31.121C19.407,30.842 19.628,30.511 19.779,30.147C19.93,29.783 20.007,29.393 20.007,28.999C20.007,28.605 19.93,28.215 19.779,27.851C19.628,27.486 19.407,27.156 19.128,26.877L16.228,23.983L19.988,20.229L22.878,23.121C23.441,23.684 24.204,24 25,24C25.796,24 26.559,23.684 27.122,23.121C27.685,22.558 28.001,21.795 28.001,20.999C28.001,20.203 27.685,19.44 27.122,18.877L24.234,15.999L24.764,15.469C25.715,14.561 26.979,14.055 28.293,14.055C29.608,14.055 30.872,14.561 31.822,15.469L32.508,16.157C33.443,17.094 33.969,18.364 33.969,19.688C33.97,21.011 33.445,22.281 32.51,23.219L32.51,23.219Z" fill="#374957"/>
</svg>
