<svg width="50" height="50" viewBox="0 0 50 50" fill="none" xmlns="http://www.w3.org/2000/svg" xmlns:xlink="http://www.w3.org/1999/xlink">
<path d="M44.047,3.95C36.999,-3.108 18.753,-0.356 9.199,9.198C-0.355,18.752 -3.103,36.998 3.951,44.046C7.244,46.858 11.504,48.276 15.825,47.998C24.366,47.92 32.565,44.637 38.799,38.798C48.353,29.24 51.101,10.998 44.047,3.95L44.047,3.95ZM34.555,34.55C30.213,38.545 24.724,41.071 18.865,41.768L6.227,29.134C6.924,23.275 9.448,17.785 13.443,13.442C17.785,9.448 23.276,6.923 29.135,6.226L41.771,18.862C41.075,24.721 38.55,30.212 34.555,34.554L34.555,34.55ZM35.121,23.116C34.842,23.395 34.512,23.616 34.148,23.767C33.783,23.918 33.393,23.996 32.999,23.996C32.605,23.996 32.215,23.918 31.851,23.767C31.486,23.616 31.156,23.395 30.877,23.116L29.999,22.24L28.241,23.998L29.121,24.876C29.684,25.439 30,26.202 30,26.998C30,27.794 29.684,28.558 29.121,29.12C28.558,29.683 27.795,29.999 26.999,29.999C26.203,29.999 25.44,29.683 24.877,29.12L23.999,28.24L22.241,29.998L23.121,30.876C23.684,31.439 24,32.202 24,32.998C24,33.794 23.684,34.558 23.121,35.12C22.558,35.683 21.795,35.999 20.999,35.999C20.203,35.999 19.44,35.683 18.877,35.12L12.877,29.12C12.598,28.842 12.377,28.511 12.227,28.147C12.076,27.783 11.998,27.392 11.998,26.998C11.998,26.202 12.314,25.439 12.877,24.876C13.44,24.314 14.203,23.997 14.999,23.997C15.795,23.997 16.558,24.314 17.121,24.876L17.999,25.756L19.757,23.998L18.877,23.12C18.314,22.558 17.998,21.794 17.998,20.998C17.998,20.202 18.314,19.439 18.877,18.876C19.44,18.314 20.203,17.997 20.999,17.997C21.795,17.997 22.558,18.314 23.121,18.876L23.999,19.756L25.757,17.998L24.877,17.12C24.314,16.558 23.998,15.794 23.998,14.998C23.998,14.604 24.076,14.214 24.227,13.85C24.377,13.486 24.598,13.155 24.877,12.876C25.156,12.598 25.487,12.377 25.851,12.226C26.215,12.075 26.605,11.997 26.999,11.997C27.795,11.997 28.558,12.314 29.121,12.876L35.121,18.876C35.4,19.155 35.621,19.486 35.772,19.85C35.923,20.214 36,20.604 36,20.998C36,21.393 35.923,21.783 35.772,22.147C35.621,22.511 35.4,22.842 35.121,23.12L35.121,23.116Z" fill="#374957"/>
</svg>
