<svg width="48" height="48" viewBox="0 0 48 48" fill="none" xmlns="http://www.w3.org/2000/svg" xmlns:xlink="http://www.w3.org/1999/xlink">
<path d="M20.516,10.946L20.504,7.5L22.18,7.5C22.642,7.499 23.086,7.678 23.418,7.999C23.75,8.32 23.944,8.758 23.958,9.22C23.944,9.682 23.75,10.119 23.418,10.44C23.086,10.761 22.642,10.94 22.18,10.938L20.516,10.946ZM48,9L48,31.686C48.004,33.131 47.721,34.563 47.168,35.898C46.615,37.233 45.803,38.445 44.778,39.464L39.464,44.778C38.445,45.803 37.233,46.615 35.898,47.168C34.563,47.721 33.131,48.004 31.686,48L9,48C6.614,47.997 4.326,47.048 2.639,45.361C0.952,43.674 0.003,41.386 0,39L0,9C0.003,6.614 0.952,4.326 2.639,2.639C4.326,0.952 6.614,0.003 9,0L39,0C41.386,0.003 43.674,0.952 45.361,2.639C47.048,4.326 47.997,6.614 48,9L48,9ZM28,13.168C28.002,13.691 28.106,14.209 28.308,14.692C28.51,15.175 28.805,15.614 29.177,15.982C29.548,16.351 29.989,16.643 30.473,16.841C30.958,17.04 31.477,17.14 32,17.138C33.055,17.138 34.068,16.721 34.817,15.978C35.566,15.235 35.992,14.225 36,13.17L36,12.5C36,12.102 35.842,11.721 35.561,11.439C35.279,11.158 34.898,11 34.5,11L33,11C32.735,11 32.48,11.105 32.293,11.293C32.105,11.48 32,11.735 32,12C32,12.265 32.105,12.52 32.293,12.707C32.48,12.895 32.735,13 33,13L33.498,13L33.498,13.168C33.486,13.559 33.323,13.93 33.043,14.204C32.764,14.478 32.389,14.634 31.998,14.638C31.8,14.64 31.604,14.602 31.422,14.527C31.239,14.453 31.073,14.342 30.933,14.202C30.794,14.062 30.683,13.896 30.609,13.713C30.535,13.53 30.498,13.334 30.5,13.136L30.5,9C30.498,8.802 30.535,8.606 30.61,8.423C30.684,8.24 30.795,8.074 30.935,7.935C31.074,7.795 31.24,7.684 31.423,7.61C31.606,7.535 31.802,7.498 32,7.5C32.273,7.508 32.539,7.588 32.771,7.732C33.004,7.875 33.194,8.078 33.324,8.318C33.4,8.464 33.504,8.593 33.63,8.699C33.757,8.804 33.902,8.884 34.059,8.933C34.216,8.982 34.381,9 34.545,8.985C34.709,8.971 34.868,8.924 35.014,8.848C35.16,8.772 35.289,8.668 35.395,8.542C35.5,8.415 35.58,8.27 35.629,8.113C35.678,7.956 35.696,7.791 35.681,7.627C35.667,7.463 35.62,7.304 35.544,7.158C35.203,6.512 34.694,5.97 34.07,5.59C33.446,5.21 32.731,5.006 32,5L32,5C31.477,4.998 30.958,5.098 30.473,5.297C29.989,5.495 29.548,5.787 29.177,6.156C28.805,6.524 28.51,6.963 28.308,7.446C28.106,7.929 28.002,8.447 28,8.97L28,13.168ZM18,15.888C18,16.22 18.132,16.537 18.366,16.772C18.601,17.006 18.918,17.138 19.25,17.138C19.582,17.138 19.899,17.006 20.134,16.772C20.368,16.537 20.5,16.22 20.5,15.888L20.5,13.446L22.18,13.446C22.742,13.458 23.3,13.358 23.823,13.152C24.345,12.945 24.822,12.636 25.223,12.243C25.625,11.85 25.944,11.381 26.162,10.863C26.38,10.345 26.492,9.789 26.492,9.227C26.492,8.665 26.38,8.109 26.162,7.591C25.944,7.073 25.625,6.604 25.223,6.211C24.822,5.818 24.345,5.509 23.823,5.302C23.3,5.096 22.742,4.996 22.18,5.008L20,5.008C19.47,5.008 18.961,5.219 18.586,5.594C18.211,5.969 18,6.478 18,7.008L18,15.888ZM8.144,14.8C8.487,15.491 9.014,16.074 9.666,16.487C10.318,16.9 11.071,17.126 11.842,17.14L11.842,17.14C12.386,17.143 12.926,17.038 13.429,16.832C13.933,16.626 14.391,16.322 14.777,15.939C15.164,15.555 15.47,15.099 15.68,14.597C15.89,14.095 15.999,13.556 16,13.012L16,6.3C16,5.955 15.863,5.625 15.619,5.381C15.375,5.137 15.045,5 14.7,5C14.355,5 14.025,5.137 13.781,5.381C13.537,5.625 13.4,5.955 13.4,6.3L13.4,12.98C13.403,13.185 13.364,13.389 13.287,13.579C13.21,13.77 13.096,13.943 12.951,14.088C12.806,14.234 12.633,14.349 12.443,14.427C12.253,14.505 12.049,14.544 11.844,14.542C11.554,14.525 11.274,14.431 11.033,14.269C10.791,14.108 10.597,13.885 10.47,13.624C10.314,13.316 10.042,13.082 9.714,12.974C9.385,12.866 9.027,12.893 8.719,13.049C8.411,13.205 8.177,13.477 8.069,13.805C7.961,14.134 7.988,14.492 8.144,14.8L8.144,14.8ZM9,42L30,42L30,34C30,32.939 30.421,31.922 31.172,31.172C31.922,30.421 32.939,30 34,30L42,30L42,22L6,22L6,39C6,39.796 6.316,40.559 6.879,41.121C7.441,41.684 8.204,42 9,42Z" fill="#374957"/>
</svg>
