<svg width="48" height="48" viewBox="0 0 48 48" fill="none" xmlns="http://www.w3.org/2000/svg" xmlns:xlink="http://www.w3.org/1999/xlink">
<path d="M46.143,1.858C45.286,0.996 44.198,0.401 43.01,0.145C41.822,-0.111 40.585,-0.017 39.449,0.416L6.707,13.306C4.324,14.252 2.364,16.029 1.191,18.309C0.018,20.589 -0.289,23.217 0.327,25.706C1.766,30.959 4.548,35.747 8.399,39.598C12.25,43.449 17.037,46.232 22.289,47.672L22.289,47.672C24.782,48.288 27.413,47.978 29.695,46.801C31.977,45.624 33.755,43.66 34.699,41.272L47.613,8.472C48.03,7.345 48.113,6.122 47.852,4.949C47.591,3.776 46.998,2.703 46.143,1.858L46.143,1.858ZM38.719,14.688C37.978,14.314 37.167,14.098 36.337,14.055C35.508,14.012 34.678,14.142 33.902,14.438C33.126,14.733 32.42,15.188 31.829,15.772C31.239,16.356 30.777,17.057 30.472,17.829C30.168,18.602 30.028,19.43 30.062,20.26C30.096,21.09 30.303,21.903 30.669,22.649C31.035,23.394 31.553,24.055 32.189,24.589C32.825,25.123 33.566,25.519 34.363,25.75L29.123,39.058C28.989,39.382 28.82,39.69 28.617,39.976C18.465,39.724 8.271,29.53 8.017,19.376C8.298,19.178 8.6,19.012 8.917,18.88L41.573,6.028C41.628,6.001 41.69,5.993 41.75,6.006C41.81,6.019 41.863,6.052 41.901,6.1C41.938,6.13 41.967,6.169 41.985,6.213C42.002,6.257 42.008,6.305 42.001,6.352L42.001,6.352L38.719,14.688ZM23.999,24C23.999,25.061 23.578,26.078 22.828,26.829C22.078,27.579 21.06,28 19.999,28C18.938,28 17.921,27.579 17.171,26.829C16.421,26.078 15.999,25.061 15.999,24C15.999,22.939 16.421,21.922 17.171,21.172C17.921,20.422 18.938,20 19.999,20C21.06,20 22.078,20.422 22.828,21.172C23.578,21.922 23.999,22.939 23.999,24L23.999,24Z" fill="#374957"/>
</svg>
