<svg width="48" height="48" viewBox="0 0 48 48" fill="none" xmlns="http://www.w3.org/2000/svg" xmlns:xlink="http://www.w3.org/1999/xlink">
<path d="M43.892,22C42.963,21.999 42.062,21.681 41.338,21.098L39,19.226L36.662,21.098C36.059,21.58 35.332,21.882 34.564,21.969C33.797,22.056 33.021,21.924 32.325,21.59C31.629,21.256 31.042,20.731 30.63,20.078C30.219,19.424 30.001,18.668 30,17.896L30,0L48,0L48,17.896C47.997,18.984 47.564,20.027 46.794,20.796C46.024,21.566 44.98,21.998 43.892,22L43.892,22ZM24,30.844C25.591,30.846 27.118,30.216 28.244,29.092L31.706,25.63C31.327,25.514 30.958,25.37 30.6,25.2C29.218,24.546 28.051,23.512 27.236,22.218C26.421,20.924 25.992,19.425 26,17.896L26,6L6,6C4.802,6.002 3.633,6.362 2.641,7.034C1.65,7.706 0.883,8.66 0.438,9.772L19.756,29.092C20.882,30.216 22.409,30.846 24,30.844ZM47.4,25.2C46.054,25.833 44.562,26.089 43.082,25.939C41.603,25.789 40.191,25.24 39,24.35L38.788,24.208L31.072,31.92C29.195,33.793 26.651,34.844 24,34.844C21.349,34.844 18.805,33.793 16.928,31.92L0,15L0,48L48,48L48,24.86C47.8,24.974 47.616,25.096 47.4,25.2Z" fill="#374957"/>
</svg>
