<svg width="48" height="48" viewBox="0 0 48 48" fill="none" xmlns="http://www.w3.org/2000/svg" xmlns:xlink="http://www.w3.org/1999/xlink">
<path d="M40.8,10.102C40.402,8.909 39.64,7.871 38.62,7.135C37.601,6.399 36.375,6.002 35.118,6L33.44,6L32.8,4.102C32.402,2.909 31.64,1.871 30.62,1.135C29.601,0.399 28.375,0.002 27.118,0L20.882,0C19.624,0 18.398,0.397 17.378,1.134C16.358,1.87 15.596,2.91 15.2,4.104L14.56,6L12.882,6C11.625,6.002 10.399,6.399 9.38,7.135C8.36,7.871 7.598,8.909 7.2,10.102L4.56,18L0,18L0,22L3.226,22L2.104,25.368L2.2,25.4C1.516,25.956 0.964,26.658 0.584,27.453C0.203,28.248 0.004,29.118 0,30L0,40L4,40L4,48L16,48L16,40L32,40L32,48L44,48L44,40L48,40L48,30C47.996,29.118 47.797,28.248 47.416,27.453C47.036,26.658 46.484,25.956 45.8,25.4L45.892,25.37L44.774,22L48,22L48,18L43.44,18L40.8,10.102ZM18.984,5.368C19.117,4.97 19.371,4.623 19.712,4.378C20.053,4.132 20.462,4 20.882,4L27.118,4C27.538,4 27.947,4.132 28.288,4.378C28.629,4.623 28.883,4.97 29.016,5.368L29.226,6L18.774,6L18.984,5.368ZM10.984,11.368C11.117,10.97 11.371,10.623 11.712,10.378C12.053,10.132 12.462,10 12.882,10L35.118,10C35.538,10 35.947,10.132 36.288,10.378C36.629,10.623 36.883,10.97 37.016,11.368L41.226,24L6.774,24L10.984,11.368ZM12,44L8,44L8,40L12,40L12,44ZM40,44L36,44L36,40L40,40L40,44ZM44,36L4,36L4,30C4,29.47 4.211,28.961 4.586,28.586C4.961,28.211 5.47,28 6,28L8,28L8,30C8,30.53 8.211,31.039 8.586,31.414C8.961,31.789 9.47,32 10,32C10.53,32 11.039,31.789 11.414,31.414C11.789,31.039 12,30.53 12,30L12,28L36,28L36,30C36,30.53 36.211,31.039 36.586,31.414C36.961,31.789 37.47,32 38,32C38.53,32 39.039,31.789 39.414,31.414C39.789,31.039 40,30.53 40,30L40,28L42,28C42.53,28 43.039,28.211 43.414,28.586C43.789,28.961 44,29.47 44,30L44,36Z" fill="#374957"/>
</svg>
