<svg width="48" height="50" viewBox="0 0 48 50" fill="none" xmlns="http://www.w3.org/2000/svg" xmlns:xlink="http://www.w3.org/1999/xlink">
<path d="M39.122,14.878C39.401,15.157 39.622,15.487 39.773,15.852C39.924,16.216 40.002,16.606 40.002,17C40.002,17.394 39.924,17.784 39.773,18.149C39.622,18.513 39.401,18.843 39.122,19.122L33.122,25.122C32.56,25.685 31.796,26.001 31,26.001C30.204,26.001 29.441,25.685 28.878,25.122C28.316,24.559 27.999,23.796 27.999,23C27.999,22.204 28.316,21.441 28.878,20.878L29.758,20L28,18.242L27.122,19.122C26.559,19.685 25.796,20.001 25,20.001C24.204,20.001 23.441,19.685 22.878,19.122C22.316,18.559 21.999,17.796 21.999,17C21.999,16.204 22.316,15.441 22.878,14.878L28.878,8.878C29.441,8.315 30.204,7.999 31,7.999C31.796,7.999 32.56,8.315 33.122,8.878C33.685,9.441 34.001,10.204 34.001,11C34.001,11.796 33.685,12.559 33.122,13.122L32.242,14L34,15.758L34.878,14.878C35.157,14.599 35.488,14.378 35.852,14.227C36.216,14.076 36.606,13.999 37,13.999C37.394,13.999 37.785,14.076 38.149,14.227C38.513,14.378 38.844,14.599 39.122,14.878L39.122,14.878ZM20.878,28.878L20,29.758L18.242,28L19.122,27.122C19.685,26.559 20.001,25.796 20.001,25C20.001,24.204 19.685,23.441 19.122,22.878C18.559,22.315 17.796,21.999 17,21.999C16.204,21.999 15.441,22.315 14.878,22.878L8.878,28.878C8.315,29.441 7.999,30.204 7.999,31C7.999,31.796 8.315,32.559 8.878,33.122C9.441,33.685 10.204,34.001 11,34.001C11.796,34.001 12.559,33.685 13.122,33.122L14,32.242L15.758,34L14.878,34.878C14.315,35.441 13.999,36.204 13.999,37C13.999,37.796 14.315,38.559 14.878,39.122C15.441,39.685 16.204,40.001 17,40.001C17.796,40.001 18.559,39.685 19.122,39.122L25.122,33.122C25.685,32.559 26.001,31.796 26.001,31C26.001,30.204 25.685,29.441 25.122,28.878C24.559,28.315 23.796,27.999 23,27.999C22.204,27.999 21.441,28.315 20.878,28.878ZM48,15.782C48.006,17.855 47.6,19.909 46.806,21.824C46.012,23.74 44.847,25.478 43.376,26.94L26.94,43.376C25.478,44.854 23.738,46.028 21.82,46.831C19.902,47.634 17.845,48.05 15.766,48.055C13.687,48.06 11.627,47.655 9.705,46.861C7.783,46.068 6.037,44.903 4.567,43.433C3.097,41.963 1.932,40.217 1.139,38.295C0.346,36.373 -0.06,34.314 -0.055,32.235C-0.049,30.156 0.367,28.098 1.17,26.181C1.973,24.263 3.147,22.523 4.624,21.06L21.06,4.624C23.267,2.418 26.079,0.915 29.14,0.306C32.201,-0.302 35.374,0.01 38.257,1.204C41.141,2.399 43.605,4.421 45.34,7.016C47.074,9.61 48,12.661 48,15.782L48,15.782ZM42,15.782C42.001,13.847 41.428,11.956 40.353,10.347C39.278,8.738 37.75,7.484 35.963,6.743C34.175,6.003 32.208,5.81 30.31,6.187C28.413,6.565 26.67,7.497 25.302,8.866L8.866,25.302C7.032,27.136 6.001,29.624 6.001,32.218C6.001,34.812 7.032,37.3 8.866,39.134C10.7,40.968 13.188,41.999 15.782,41.999C18.376,41.999 20.864,40.968 22.698,39.134L39.134,22.698C40.045,21.792 40.768,20.714 41.26,19.527C41.752,18.34 42.003,17.067 42,15.782Z" fill="#374957"/>
</svg>
