<svg width="48" height="48" viewBox="0 0 48 48" fill="none" xmlns="http://www.w3.org/2000/svg" xmlns:xlink="http://www.w3.org/1999/xlink">
<path d="M48,48L0,48L0,6C0,4.409 0.632,2.883 1.757,1.757C2.883,0.632 4.409,0 6,0L42,0C43.591,0 45.117,0.632 46.243,1.757C47.368,2.883 48,4.409 48,6L48,48ZM4,44L44,44L44,6C44,5.47 43.789,4.961 43.414,4.586C43.039,4.211 42.53,4 42,4L6,4C5.47,4 4.961,4.211 4.586,4.586C4.211,4.961 4,5.47 4,6L4,44ZM22,24C22,24.396 22.117,24.782 22.337,25.111C22.557,25.44 22.869,25.696 23.235,25.848C23.6,25.999 24.002,26.039 24.39,25.962C24.778,25.884 25.135,25.694 25.414,25.414C25.694,25.135 25.884,24.778 25.962,24.39C26.039,24.002 25.999,23.6 25.848,23.235C25.696,22.869 25.44,22.557 25.111,22.337C24.782,22.117 24.396,22 24,22C23.47,22 22.961,22.211 22.586,22.586C22.211,22.961 22,23.47 22,24ZM12,14C12,14.396 12.117,14.782 12.337,15.111C12.557,15.44 12.869,15.696 13.235,15.848C13.6,15.999 14.002,16.039 14.39,15.962C14.778,15.884 15.135,15.694 15.414,15.414C15.694,15.135 15.884,14.778 15.962,14.39C16.039,14.002 15.999,13.6 15.848,13.235C15.696,12.869 15.44,12.557 15.111,12.337C14.782,12.117 14.396,12 14,12C13.47,12 12.961,12.211 12.586,12.586C12.211,12.961 12,13.47 12,14ZM32,14C32,14.396 32.117,14.782 32.337,15.111C32.557,15.44 32.869,15.696 33.235,15.848C33.6,15.999 34.002,16.039 34.39,15.962C34.778,15.884 35.135,15.694 35.414,15.414C35.694,15.135 35.884,14.778 35.962,14.39C36.039,14.002 35.999,13.6 35.848,13.235C35.696,12.869 35.44,12.557 35.111,12.337C34.782,12.117 34.396,12 34,12C33.47,12 32.961,12.211 32.586,12.586C32.211,12.961 32,13.47 32,14ZM12,34C12,34.396 12.117,34.782 12.337,35.111C12.557,35.44 12.869,35.696 13.235,35.848C13.6,35.999 14.002,36.039 14.39,35.962C14.778,35.884 15.135,35.694 15.414,35.414C15.694,35.135 15.884,34.778 15.962,34.39C16.039,34.002 15.999,33.6 15.848,33.235C15.696,32.869 15.44,32.557 15.111,32.337C14.782,32.117 14.396,32 14,32C13.47,32 12.961,32.211 12.586,32.586C12.211,32.961 12,33.47 12,34ZM32,34C32,34.396 32.117,34.782 32.337,35.111C32.557,35.44 32.869,35.696 33.235,35.848C33.6,35.999 34.002,36.039 34.39,35.962C34.778,35.884 35.135,35.694 35.414,35.414C35.694,35.135 35.884,34.778 35.962,34.39C36.039,34.002 35.999,33.6 35.848,33.235C35.696,32.869 35.44,32.557 35.111,32.337C34.782,32.117 34.396,32 34,32C33.47,32 32.961,32.211 32.586,32.586C32.211,32.961 32,33.47 32,34Z" fill="#374957"/>
</svg>
