<svg width="48" height="48" viewBox="0 0 48 48" fill="none" xmlns="http://www.w3.org/2000/svg" xmlns:xlink="http://www.w3.org/1999/xlink">
<path d="M42,48L6,48C4.409,48 2.883,47.368 1.757,46.243C0.632,45.117 0,43.591 0,42C0,40.409 0.632,38.883 1.757,37.757C2.883,36.632 4.409,36 6,36L42,36C43.591,36 45.117,36.632 46.243,37.757C47.368,38.883 48,40.409 48,42C48,43.591 47.368,45.117 46.243,46.243C45.117,47.368 43.591,48 42,48ZM48,27C48,26.343 47.871,25.693 47.619,25.087C47.368,24.48 47,23.929 46.536,23.464C46.071,23 45.52,22.632 44.913,22.381C44.307,22.129 43.657,22 43,22L5,22C3.674,22 2.402,22.527 1.464,23.464C0.527,24.402 0,25.674 0,27C0,28.326 0.527,29.598 1.464,30.536C2.402,31.473 3.674,32 5,32L43,32C43.657,32 44.307,31.871 44.913,31.619C45.52,31.368 46.071,31 46.536,30.536C47,30.071 47.368,29.52 47.619,28.913C47.871,28.307 48,27.657 48,27L48,27ZM48,14C48,12.939 47.579,11.922 46.828,11.172C46.078,10.421 45.061,10 44,10L4,10C2.939,10 1.922,10.421 1.172,11.172C0.421,11.922 0,12.939 0,14C0,15.061 0.421,16.078 1.172,16.828C1.922,17.579 2.939,18 4,18L44,18C45.061,18 46.078,17.579 46.828,16.828C47.579,16.078 48,15.061 48,14ZM48,3C48,2.204 47.684,1.441 47.121,0.879C46.559,0.316 45.796,0 45,0L3,0C2.204,0 1.441,0.316 0.879,0.879C0.316,1.441 0,2.204 0,3C0,3.796 0.316,4.559 0.879,5.121C1.441,5.684 2.204,6 3,6L45,6C45.796,6 46.559,5.684 47.121,5.121C47.684,4.559 48,3.796 48,3Z" fill="#374957"/>
</svg>
