<svg width="48" height="48" viewBox="0 0 48 48" fill="none" xmlns="http://www.w3.org/2000/svg" xmlns:xlink="http://www.w3.org/1999/xlink">
<path d="M32.001,32C32.001,32.396 31.883,32.782 31.664,33.111C31.444,33.44 31.131,33.696 30.766,33.848C30.401,33.999 29.998,34.039 29.61,33.962C29.223,33.884 28.866,33.694 28.586,33.414C28.307,33.135 28.116,32.778 28.039,32.39C27.962,32.002 28.002,31.6 28.153,31.235C28.304,30.869 28.561,30.557 28.89,30.337C29.218,30.117 29.605,30 30.001,30C30.531,30 31.04,30.211 31.415,30.586C31.79,30.961 32.001,31.47 32.001,32ZM38.001,30C37.605,30 37.218,30.117 36.89,30.337C36.561,30.557 36.304,30.869 36.153,31.235C36.002,31.6 35.962,32.002 36.039,32.39C36.116,32.778 36.307,33.135 36.586,33.414C36.866,33.694 37.223,33.884 37.61,33.962C37.998,34.039 38.401,33.999 38.766,33.848C39.131,33.696 39.444,33.44 39.664,33.111C39.883,32.782 40.001,32.396 40.001,32C40.001,31.47 39.79,30.961 39.415,30.586C39.04,30.211 38.531,30 38.001,30ZM34.001,24C33.605,24 33.218,24.117 32.89,24.337C32.561,24.557 32.304,24.869 32.153,25.235C32.002,25.6 31.962,26.002 32.039,26.39C32.116,26.778 32.307,27.135 32.586,27.414C32.866,27.694 33.223,27.884 33.61,27.962C33.998,28.039 34.401,27.999 34.766,27.848C35.131,27.696 35.444,27.44 35.664,27.111C35.883,26.782 36.001,26.396 36.001,26C36.001,25.47 35.79,24.961 35.415,24.586C35.04,24.211 34.531,24 34.001,24ZM48.001,32C48.004,35.056 47.131,38.049 45.485,40.624C43.839,43.199 41.49,45.248 38.715,46.529C35.94,47.809 32.856,48.267 29.829,47.848C26.801,47.43 23.958,46.152 21.635,44.166C21.045,45.344 20.298,46.436 19.415,47.414L18.829,48L5.173,48L4.587,47.414C1.426,43.678 -0.211,38.889 0.001,34C0.241,30.128 1.433,26.375 3.473,23.074C4.836,20.936 5.7,18.518 6.001,16C5.773,14.518 5.402,13.061 4.893,11.65C4.437,10.478 4.137,9.251 4.001,8C4.001,5.878 4.844,3.843 6.344,2.343C7.844,0.843 9.879,0 12.001,0C14.122,0 16.157,0.843 17.658,2.343C19.158,3.843 20.001,5.878 20.001,8C19.865,9.251 19.565,10.478 19.109,11.65C18.6,13.061 18.229,14.518 18.001,16C18.171,18.005 18.791,19.946 19.815,21.678C21.927,19.173 24.759,17.378 27.926,16.537C31.093,15.695 34.443,15.849 37.52,16.976C40.597,18.102 43.253,20.148 45.128,22.836C47.003,25.524 48.006,28.723 48.001,32L48.001,32ZM8.001,8C8.033,8.3 8.423,9.544 8.709,10.452C9.384,12.236 9.819,14.101 10.001,16L14.001,16C14.182,14.101 14.617,12.236 15.293,10.452C15.574,9.63 15.81,8.794 16.001,7.946C15.994,6.885 15.565,5.871 14.81,5.125C14.055,4.38 13.035,3.966 11.974,3.973C10.913,3.98 9.898,4.408 9.153,5.164C8.408,5.919 7.994,6.939 8.001,8L8.001,8ZM20.001,34C19.735,30.773 18.698,27.658 16.977,24.916C16.111,23.334 15.362,21.691 14.737,20L9.265,20C8.64,21.691 7.891,23.334 7.025,24.916C5.303,27.658 4.266,30.773 4.001,34C3.881,37.561 4.908,41.067 6.933,44L17.071,44C19.094,41.067 20.122,37.561 20.001,34ZM44.001,32C44.004,29.393 43.157,26.856 41.588,24.773C40.019,22.691 37.814,21.177 35.307,20.462C32.8,19.746 30.127,19.868 27.696,20.809C25.264,21.749 23.206,23.458 21.833,25.674C23.172,28.251 23.913,31.097 24.001,34C24.01,36.069 23.74,38.13 23.201,40.128C24.836,41.902 26.968,43.142 29.319,43.684C31.67,44.227 34.13,44.047 36.377,43.169C38.624,42.291 40.554,40.755 41.914,38.762C43.275,36.77 44.002,34.413 44.001,32Z" fill="#374957"/>
</svg>
