<svg width="28" height="16" viewBox="0 0 28 16" fill="none" xmlns="http://www.w3.org/2000/svg" xmlns:xlink="http://www.w3.org/1999/xlink">
<path d="M2.828,0L25.172,0C25.567,0 25.954,0.117 26.283,0.337C26.612,0.557 26.868,0.869 27.019,1.235C27.17,1.6 27.21,2.002 27.133,2.39C27.056,2.778 26.865,3.134 26.586,3.414L15.414,14.586C15.039,14.961 14.53,15.172 14,15.172C13.469,15.172 12.961,14.961 12.586,14.586L1.414,3.414C1.134,3.134 0.944,2.778 0.867,2.39C0.789,2.002 0.829,1.6 0.98,1.235C1.132,0.869 1.388,0.557 1.717,0.337C2.046,0.117 2.432,0 2.828,0Z" fill="#374957"/>
</svg>
