<svg width="48" height="46" viewBox="0 0 48 46" fill="none" xmlns="http://www.w3.org/2000/svg" xmlns:xlink="http://www.w3.org/1999/xlink">
<path d="M37,0.001L11,0.001C8.084,0.005 5.288,1.165 3.225,3.227C1.163,5.289 0.003,8.085 0,11.001L0,23.001C0.003,25.918 1.163,28.714 3.225,30.776C5.288,32.838 8.084,33.998 11,34.001L21,34.001L21,38.001L16,38.001C15.204,38.001 14.441,38.317 13.879,38.88C13.316,39.443 13,40.206 13,41.001C13,41.797 13.316,42.56 13.879,43.123C14.441,43.685 15.204,44.001 16,44.001L32,44.001C32.796,44.001 33.559,43.685 34.121,43.123C34.684,42.56 35,41.797 35,41.001C35,40.206 34.684,39.443 34.121,38.88C33.559,38.317 32.796,38.001 32,38.001L27,38.001L27,34.001L37,34.001C39.916,33.998 42.712,32.838 44.775,30.776C46.837,28.714 47.997,25.918 48,23.001L48,11.001C47.997,8.085 46.837,5.289 44.775,3.227C42.712,1.165 39.916,0.005 37,0.001L37,0.001ZM42,23.001C42,24.327 41.473,25.599 40.536,26.537C39.598,27.475 38.326,28.001 37,28.001L11,28.001C9.674,28.001 8.402,27.475 7.464,26.537C6.527,25.599 6,24.327 6,23.001L6,11.001C6,9.675 6.527,8.404 7.464,7.466C8.402,6.528 9.674,6.001 11,6.001L37,6.001C38.326,6.001 39.598,6.528 40.536,7.466C41.473,8.404 42,9.675 42,11.001L42,23.001Z" fill="#374957"/>
</svg>
