<svg width="42" height="48" viewBox="0 0 42 48" fill="none" xmlns="http://www.w3.org/2000/svg" xmlns:xlink="http://www.w3.org/1999/xlink">
<path d="M40.8,43.999L32.532,31.999L38.17,31.999L29.6,19.999L35.91,19.999L24.11,2.141C23.643,1.483 23.024,0.947 22.305,0.578C21.587,0.209 20.79,0.019 19.983,0.023C19.175,0.026 18.381,0.225 17.666,0.6C16.951,0.976 16.337,1.518 15.876,2.181L4.088,19.999L10.4,19.999L1.824,31.999L7.462,31.999L-0.8,43.999L18,43.999L18,47.999L22,47.999L22,43.999L40.8,43.999ZM12.32,31.999L22.822,31.999L20.066,27.999L9.6,27.999L15.316,19.999L19.772,19.999L16.912,15.999L11.53,15.999L19.178,4.429C19.265,4.295 19.382,4.185 19.521,4.107C19.66,4.029 19.816,3.986 19.976,3.982C20.135,3.978 20.293,4.013 20.435,4.084C20.578,4.155 20.701,4.26 20.794,4.389L28.47,15.999L21.828,15.999L30.4,27.999L24.924,27.999L33.2,39.999L6.8,39.999L12.32,31.999Z" fill="#374957"/>
</svg>
