<svg width="48" height="48" viewBox="0 0 48 48" fill="none" xmlns="http://www.w3.org/2000/svg" xmlns:xlink="http://www.w3.org/1999/xlink">
<path d="M44,20L48,20L48,48L0,48L0,12C0,10.409 0.632,8.883 1.757,7.757C2.883,6.632 4.409,6 6,6L28,6L28,10L6,10C5.47,10 4.961,10.211 4.586,10.586C4.211,10.961 4,11.47 4,12L4,12.484L19.756,28.244C20.9,29.335 22.419,29.944 24,29.944C25.581,29.944 27.1,29.335 28.244,28.244L36.484,20L42.142,20L31.072,31.072C30.143,32.001 29.041,32.738 27.827,33.24C26.614,33.743 25.313,34.002 24,34.002C22.687,34.002 21.386,33.743 20.173,33.24C18.959,32.738 17.857,32.001 16.928,31.072L4,18.142L4,44L44,44L44,20ZM42,6L42,0L38,0L38,6L32,6L32,10L38,10L38,16L42,16L42,10L48,10L48,6L42,6Z" fill="#374957"/>
</svg>
