<svg width="48" height="48" viewBox="0 0 48 48" fill="none" xmlns="http://www.w3.org/2000/svg" xmlns:xlink="http://www.w3.org/1999/xlink">
<path d="M42,32.253L42,29.999C42,28.408 41.368,26.882 40.243,25.757C39.117,24.632 37.591,23.999 36,23.999L26,23.999L26,19.799C28.428,19.304 30.586,17.924 32.054,15.928C33.523,13.932 34.198,11.462 33.949,8.996C33.7,6.531 32.545,4.245 30.706,2.584C28.868,0.922 26.478,0.001 24,0.001C21.522,0.001 19.132,0.922 17.294,2.584C15.455,4.245 14.3,6.531 14.051,8.996C13.802,11.462 14.477,13.932 15.946,15.928C17.414,17.924 19.572,19.304 22,19.799L22,23.999L12,23.999C10.409,23.999 8.883,24.632 7.757,25.757C6.632,26.882 6,28.408 6,29.999L6,32.253C4.115,32.74 2.472,33.898 1.379,35.509C0.286,37.121 -0.182,39.076 0.064,41.007C0.309,42.939 1.251,44.715 2.712,46.002C4.173,47.289 6.053,47.999 8,47.999C9.947,47.999 11.827,47.289 13.288,46.002C14.749,44.715 15.691,42.939 15.936,41.007C16.182,39.076 15.714,37.121 14.621,35.509C13.528,33.898 11.885,32.74 10,32.253L10,29.999C10,29.469 10.211,28.96 10.586,28.585C10.961,28.21 11.47,27.999 12,27.999L22,27.999L22,32.253C20.115,32.74 18.472,33.898 17.379,35.509C16.286,37.121 15.818,39.076 16.064,41.007C16.309,42.939 17.251,44.715 18.712,46.002C20.173,47.289 22.053,47.999 24,47.999C25.947,47.999 27.827,47.289 29.288,46.002C30.749,44.715 31.691,42.939 31.936,41.007C32.182,39.076 31.714,37.121 30.621,35.509C29.528,33.898 27.885,32.74 26,32.253L26,27.999L36,27.999C36.53,27.999 37.039,28.21 37.414,28.585C37.789,28.96 38,29.469 38,29.999L38,32.253C36.115,32.74 34.472,33.898 33.379,35.509C32.286,37.121 31.818,39.076 32.064,41.007C32.309,42.939 33.251,44.715 34.712,46.002C36.173,47.289 38.053,47.999 40,47.999C41.947,47.999 43.827,47.289 45.288,46.002C46.749,44.715 47.691,42.939 47.936,41.007C48.182,39.076 47.714,37.121 46.621,35.509C45.528,33.898 43.885,32.74 42,32.253L42,32.253ZM18,9.999C18,8.813 18.352,7.653 19.011,6.666C19.671,5.679 20.608,4.91 21.704,4.456C22.8,4.002 24.007,3.883 25.171,4.115C26.334,4.346 27.404,4.918 28.243,5.757C29.082,6.596 29.653,7.665 29.885,8.829C30.116,9.993 29.997,11.199 29.543,12.296C29.089,13.392 28.32,14.329 27.333,14.988C26.347,15.648 25.187,15.999 24,15.999C22.409,15.999 20.883,15.367 19.757,14.242C18.632,13.117 18,11.591 18,9.999L18,9.999ZM12,39.999C12,40.79 11.765,41.564 11.326,42.222C10.886,42.879 10.262,43.392 9.531,43.695C8.8,43.998 7.996,44.077 7.22,43.923C6.444,43.768 5.731,43.387 5.172,42.828C4.612,42.268 4.231,41.556 4.077,40.78C3.923,40.004 4.002,39.2 4.305,38.469C4.607,37.738 5.12,37.113 5.778,36.673C6.436,36.234 7.209,35.999 8,35.999C9.061,35.999 10.078,36.421 10.828,37.171C11.579,37.921 12,38.938 12,39.999ZM28,39.999C28,40.79 27.765,41.564 27.326,42.222C26.886,42.879 26.262,43.392 25.531,43.695C24.8,43.998 23.996,44.077 23.22,43.923C22.444,43.768 21.731,43.387 21.172,42.828C20.612,42.268 20.231,41.556 20.077,40.78C19.923,40.004 20.002,39.2 20.305,38.469C20.607,37.738 21.12,37.113 21.778,36.673C22.436,36.234 23.209,35.999 24,35.999C25.061,35.999 26.078,36.421 26.828,37.171C27.579,37.921 28,38.938 28,39.999ZM40,43.999C39.209,43.999 38.436,43.765 37.778,43.325C37.12,42.886 36.607,42.261 36.305,41.53C36.002,40.799 35.923,39.995 36.077,39.219C36.231,38.443 36.612,37.73 37.172,37.171C37.731,36.612 38.444,36.231 39.22,36.076C39.996,35.922 40.8,36.001 41.531,36.304C42.262,36.607 42.886,37.119 43.326,37.777C43.765,38.435 44,39.208 44,39.999C44,41.06 43.579,42.078 42.828,42.828C42.078,43.578 41.061,43.999 40,43.999Z" fill="#374957"/>
</svg>
