<svg width="48" height="48" viewBox="0 0 48 48" fill="none" xmlns="http://www.w3.org/2000/svg" xmlns:xlink="http://www.w3.org/1999/xlink">
<path d="M47.308,10.498C46.581,9.505 45.66,8.669 44.6,8.043C43.54,7.417 42.363,7.014 41.142,6.858C40.986,5.637 40.583,4.461 39.957,3.401C39.331,2.34 38.496,1.419 37.502,0.692C36.992,0.309 36.386,0.075 35.75,0.016C35.115,-0.042 34.476,0.078 33.905,0.362C33.334,0.646 32.853,1.084 32.517,1.626C32.18,2.168 32.001,2.793 32,3.43L32,14L31,14C27.983,13.988 24.972,14.242 22,14.758L22,14.4C22.005,13.77 21.872,13.145 21.612,12.571C21.352,11.996 20.97,11.485 20.493,11.073C20.016,10.66 19.454,10.356 18.848,10.182C18.242,10.007 17.605,9.967 16.982,10.062C13.946,10.641 11.2,12.245 9.204,14.605C7.208,16.965 6.083,19.938 6.016,23.029C2.351,27.503 0.245,33.05 0.016,38.829C-0.07,40.056 0.111,41.288 0.544,42.439C0.978,43.59 1.655,44.635 2.53,45.501C3.294,46.32 4.225,46.966 5.26,47.396C6.295,47.826 7.41,48.03 8.53,47.995C16.93,47.345 26.072,44.149 30.778,33.995L33.446,33.995C38.414,34.149 40.012,26.243 34.394,25.995L33.22,25.995C33.748,23.026 34.009,20.016 34,17L34,16L44.57,16C45.208,15.999 45.833,15.82 46.375,15.484C46.917,15.147 47.354,14.666 47.639,14.095C47.923,13.524 48.042,12.885 47.984,12.25C47.926,11.615 47.692,11.008 47.308,10.498L47.308,10.498ZM9,42.001C8.204,42.001 7.441,41.684 6.879,41.122C6.316,40.559 6,39.796 6,39.001C6,38.205 6.316,37.442 6.879,36.879C7.441,36.317 8.204,36.001 9,36.001C9.795,36.001 10.559,36.317 11.121,36.879C11.684,37.442 12,38.205 12,39.001C12,39.796 11.684,40.559 11.121,41.122C10.559,41.684 9.795,42.001 9,42.001ZM18.6,39.145C17.692,36.954 16.36,34.964 14.681,33.289C13.001,31.614 11.007,30.288 8.814,29.387C12.178,23.695 18.498,20.619 27.912,20.085C27.378,29.457 24.3,35.763 18.6,39.145Z" fill="#374957"/>
</svg>
