<svg width="48" height="48" viewBox="0 0 48 48" fill="none" xmlns="http://www.w3.org/2000/svg" xmlns:xlink="http://www.w3.org/1999/xlink">
<path d="M24,0C19.253,0 14.613,1.408 10.666,4.045C6.72,6.682 3.643,10.43 1.827,14.816C0.01,19.201 -0.465,24.027 0.461,28.682C1.387,33.338 3.673,37.614 7.029,40.971C10.386,44.327 14.662,46.613 19.318,47.539C23.973,48.465 28.799,47.99 33.184,46.173C37.57,44.357 41.318,41.28 43.955,37.334C46.592,33.387 48,28.747 48,24C47.993,17.637 45.462,11.536 40.963,7.037C36.464,2.538 30.363,0.007 24,0L24,0ZM44,24C43.997,25.276 43.873,26.548 43.628,27.8L39.764,26.64C40.079,24.894 40.079,23.106 39.764,21.36L43.628,20.2C43.873,21.452 43.997,22.724 44,24L44,24ZM42.48,16.368L38.62,17.526C37.003,13.899 34.101,10.997 30.474,9.38L31.632,5.52C36.539,7.561 40.439,11.461 42.48,16.368L42.48,16.368ZM24,36C21.627,36 19.307,35.296 17.333,33.978C15.36,32.659 13.822,30.785 12.913,28.592C12.005,26.399 11.768,23.987 12.231,21.659C12.694,19.331 13.836,17.193 15.515,15.515C17.193,13.837 19.331,12.694 21.659,12.231C23.987,11.768 26.399,12.005 28.592,12.913C30.785,13.822 32.659,15.36 33.978,17.333C35.296,19.307 36,21.627 36,24C35.997,27.182 34.732,30.232 32.482,32.482C30.232,34.732 27.182,35.997 24,36ZM27.8,4.372L26.64,8.236C24.894,7.921 23.106,7.921 21.36,8.236L20.2,4.372C22.709,3.876 25.291,3.876 27.8,4.372L27.8,4.372ZM16.368,5.52L17.526,9.38C13.899,10.997 10.997,13.899 9.38,17.526L5.52,16.368C7.561,11.461 11.461,7.561 16.368,5.52L16.368,5.52ZM4,24C4.003,22.724 4.127,21.452 4.372,20.2L8.236,21.36C7.921,23.106 7.921,24.894 8.236,26.64L4.372,27.8C4.127,26.548 4.003,25.276 4,24L4,24ZM5.52,31.632L9.38,30.474C10.997,34.101 13.899,37.003 17.526,38.62L16.368,42.48C11.461,40.439 7.561,36.539 5.52,31.632L5.52,31.632ZM20.2,43.632L21.36,39.768C23.106,40.083 24.894,40.083 26.64,39.768L27.8,43.632C25.291,44.128 22.709,44.128 20.2,43.632L20.2,43.632ZM31.632,42.482L30.474,38.624C34.101,37.007 37.003,34.105 38.62,30.478L42.48,31.636C40.439,36.541 36.539,40.439 31.632,42.478L31.632,42.482ZM24,16L30,24L24,32L18,24L24,16Z" fill="#374957"/>
</svg>
