<svg width="44" height="48" viewBox="0 0 44 48" fill="none" xmlns="http://www.w3.org/2000/svg" xmlns:xlink="http://www.w3.org/1999/xlink">
<path d="M30.764,8.134C28.367,6.103 25.898,3.995 23.399,1.504L21.975,0.09L20.576,1.506C16.078,6.017 13.952,12.942 13.029,17.097C12.323,16.003 11.799,14.8 11.477,13.538L10.632,10.276L8.175,12.585C3.87,16.626 1,20.635 1,27.055C0.917,36.583 7.327,44.946 16.549,47.343C17.9,47.671 19.278,47.872 20.666,47.942C21.122,47.975 22.428,48.008 22.652,47.994C33.966,47.654 42.959,38.379 42.949,27.059C42.949,18.482 37.302,13.687 30.764,8.134ZM22.361,43.973C22.152,43.991 21.962,43.993 21.751,43.991C18.015,43.877 15.044,40.821 15.035,37.083C15.035,34.552 16.392,33.29 19.465,30.675C20.239,30.016 21.082,29.299 21.968,28.479C22.745,29.184 23.499,29.823 24.196,30.415C27.283,33.035 28.894,34.522 28.894,37.077C28.887,40.743 26.022,43.768 22.361,43.973ZM32.383,40.437L32.344,40.465C32.702,39.374 32.885,38.232 32.887,37.083C32.887,32.562 29.92,30.042 26.782,27.377C25.67,26.434 24.522,25.46 23.376,24.314L21.962,22.903L20.551,24.314C19.257,25.606 17.991,26.684 16.875,27.634C13.745,30.298 11.04,32.599 11.04,37.083C11.044,38.282 11.246,39.471 11.639,40.603C7.426,37.368 4.968,32.351 4.993,27.039C4.96,23.536 6.316,20.162 8.764,17.656C9.186,18.512 9.685,19.326 10.257,20.09C11.111,21.241 12.567,21.776 13.963,21.449C15.382,21.133 16.485,20.017 16.784,18.595C17.62,14.006 19.428,9.65 22.086,5.818C24.192,7.814 26.279,9.581 28.161,11.18C34.414,16.49 38.942,20.327 38.942,27.051C38.952,32.29 36.528,37.236 32.382,40.437L32.383,40.437L32.383,40.437Z" fill="#374957"/>
</svg>
