<svg width="28" height="48" viewBox="0 0 28 48" fill="none" xmlns="http://www.w3.org/2000/svg" xmlns:xlink="http://www.w3.org/1999/xlink">
<path d="M25,42L22,42C20.674,42 19.402,41.473 18.464,40.536C17.527,39.598 17,38.326 17,37L17,32L23,32C23.796,32 24.559,31.684 25.121,31.121C25.684,30.559 26,29.796 26,29C26,28.204 25.684,27.441 25.121,26.879C24.559,26.316 23.796,26 23,26L17,26L17,11C17,9.674 17.527,8.402 18.464,7.464C19.402,6.527 20.674,6 22,6L25,6C25.796,6 26.559,5.684 27.121,5.121C27.684,4.559 28,3.796 28,3C28,2.204 27.684,1.441 27.121,0.879C26.559,0.316 25.796,0 25,0L22,0C20.5,0.001 19.016,0.31 17.64,0.907C16.264,1.505 15.025,2.379 14,3.474C12.975,2.379 11.736,1.505 10.36,0.907C8.984,0.31 7.5,0.001 6,0L3,0C2.204,0 1.441,0.316 0.879,0.879C0.316,1.441 0,2.204 0,3C0,3.796 0.316,4.559 0.879,5.121C1.441,5.684 2.204,6 3,6L6,6C7.326,6 8.598,6.527 9.536,7.464C10.473,8.402 11,9.674 11,11L11,26L5,26C4.204,26 3.441,26.316 2.879,26.879C2.316,27.441 2,28.204 2,29C2,29.796 2.316,30.559 2.879,31.121C3.441,31.684 4.204,32 5,32L11,32L11,37C11,38.326 10.473,39.598 9.536,40.536C8.598,41.473 7.326,42 6,42L3,42C2.204,42 1.441,42.316 0.879,42.879C0.316,43.441 0,44.204 0,45C0,45.796 0.316,46.559 0.879,47.121C1.441,47.684 2.204,48 3,48L6,48C7.5,47.999 8.984,47.69 10.36,47.093C11.736,46.495 12.975,45.621 14,44.526C15.025,45.621 16.264,46.495 17.64,47.093C19.016,47.69 20.5,47.999 22,48L25,48C25.796,48 26.559,47.684 27.121,47.121C27.684,46.559 28,45.796 28,45C28,44.204 27.684,43.441 27.121,42.879C26.559,42.316 25.796,42 25,42Z" fill="#374957"/>
</svg>
