<svg width="48" height="48" viewBox="0 0 48 48" fill="none" xmlns="http://www.w3.org/2000/svg" xmlns:xlink="http://www.w3.org/1999/xlink">
<path d="M44,39.999C44,41.06 43.579,42.077 42.828,42.827C42.078,43.578 41.061,43.999 40,43.999L32,43.999L32,35.999L44,35.999L44,28.199C43.995,25.427 43.031,22.741 41.274,20.597C39.516,18.453 37.072,16.982 34.354,16.433L26.6,14.879C25.781,14.716 25.033,14.3 24.462,13.69C23.891,13.081 23.525,12.307 23.416,11.479L22.6,5.151C22.482,4.322 22.191,3.528 21.747,2.818C21.303,2.108 20.716,1.499 20.022,1.03C19.329,0.561 18.545,0.242 17.721,0.094C16.897,-0.053 16.051,-0.027 15.238,0.171L0,4.487L0,35.999L10,35.999L10,43.999L0,43.999L0,47.999L40,47.999C42.122,47.999 44.157,47.156 45.657,45.656C47.157,44.156 48,42.121 48,39.999L44,39.999ZM4,7.511L16.214,4.047C16.481,3.987 16.758,3.983 17.028,4.034C17.297,4.086 17.552,4.192 17.779,4.347C18.005,4.501 18.197,4.701 18.343,4.933C18.49,5.165 18.586,5.424 18.628,5.695L18.932,7.999L14,7.999L14,11.999L19.458,11.999C19.547,12.626 19.712,13.241 19.948,13.829L15.27,16.675L17.348,20.093L22.28,17.093C22.801,17.523 23.374,17.884 23.986,18.169L21.276,22.783L24.724,24.809L28,19.239L33.568,20.353C35.38,20.719 37.01,21.7 38.182,23.13C39.354,24.559 39.996,26.35 40,28.199L40,31.999L4,31.999L4,7.511ZM14,35.999L28,35.999L28,43.999L14,43.999L14,35.999Z" fill="#374957"/>
</svg>
