<svg width="48" height="48" viewBox="0 0 48 48" fill="none" xmlns="http://www.w3.org/2000/svg" xmlns:xlink="http://www.w3.org/1999/xlink">
<path d="M48,6.95L41.05,0L10.868,26.334L0,31.936L0,35.2C0.004,38.594 1.353,41.847 3.753,44.247C6.153,46.647 9.406,47.996 12.8,48L16.092,48L21.668,37.128L48,6.95ZM19.9,33.072L14.928,28.1L18.528,24.952L23.04,29.464L19.9,33.072ZM42.53,7.136L25.684,26.444L21.556,22.316L40.864,5.47L42.53,7.136ZM13.648,44L12.8,44C10.467,43.997 8.23,43.069 6.58,41.42C4.931,39.77 4.003,37.533 4,35.2L4,34.374L11.618,30.448L17.556,36.382L13.648,44Z" fill="#374957"/>
</svg>
