<svg width="48" height="48" viewBox="0 0 48 48" fill="none" xmlns="http://www.w3.org/2000/svg" xmlns:xlink="http://www.w3.org/1999/xlink">
<path d="M44,39.999C44,41.06 43.579,42.077 42.828,42.827C42.078,43.578 41.061,43.999 40,43.999L32,43.999L32,35.999L44,35.999L44,30.199C43.995,27.427 43.031,24.741 41.274,22.597C39.516,20.453 37.072,18.982 34.354,18.433L30.882,17.737L26.724,24.813L23.276,22.787L26.73,16.907C26.264,16.811 25.814,16.647 25.396,16.419L19.348,20.093L17.27,16.675L23.37,12.967L23.274,11.999L16,11.999L16,7.999L22.876,7.999L22.6,5.151C22.482,4.322 22.191,3.528 21.747,2.818C21.303,2.108 20.716,1.499 20.022,1.03C19.329,0.561 18.545,0.242 17.721,0.094C16.897,-0.053 16.051,-0.027 15.238,0.171L0,4.487L0,35.999L10,35.999L10,43.999L0,43.999L0,47.999L40,47.999C42.122,47.999 44.157,47.156 45.657,45.656C47.157,44.156 48,42.121 48,39.999L44,39.999ZM28,43.999L14,43.999L14,35.999L28,35.999L28,43.999Z" fill="#374957"/>
</svg>
