<svg width="50" height="36" viewBox="0 0 50 36" fill="none" xmlns="http://www.w3.org/2000/svg" xmlns:xlink="http://www.w3.org/1999/xlink">
<path d="M45.968,12.036C44.56,10.69 42.675,9.957 40.728,10L11.308,10L10.782,5.876C10.591,4.257 9.813,2.765 8.595,1.682C7.377,0.599 5.804,0.001 4.174,0L3,0C2.204,0 1.441,0.316 0.879,0.879C0.316,1.441 0,2.204 0,3L0,3C0,3.796 0.316,4.559 0.879,5.121C1.441,5.684 2.204,6 3,6L4.174,6C4.338,6.002 4.495,6.064 4.615,6.175C4.736,6.286 4.811,6.437 4.826,6.6L7.826,30.118C8.015,31.738 8.793,33.232 10.011,34.316C11.229,35.401 12.803,36 14.434,36L34.678,36C37.086,35.999 39.427,35.207 41.342,33.747C43.257,32.286 44.64,30.238 45.278,27.916L47.77,18.854C48.102,17.66 48.11,16.399 47.794,15.201C47.477,14.002 46.847,12.91 45.968,12.036ZM39.5,26.326C39.207,27.381 38.577,28.311 37.707,28.974C36.836,29.637 35.773,29.998 34.678,30L14.434,30C14.27,29.999 14.113,29.936 13.993,29.826C13.873,29.715 13.798,29.563 13.784,29.4L12.074,16L41.028,16C41.182,15.999 41.335,16.033 41.474,16.101C41.613,16.169 41.734,16.268 41.828,16.39C41.922,16.513 41.987,16.655 42.017,16.807C42.047,16.959 42.041,17.115 42,17.264L39.5,26.326Z" fill="#374957"/>
</svg>
