<svg width="48" height="48" viewBox="0 0 48 48" fill="none" xmlns="http://www.w3.org/2000/svg" xmlns:xlink="http://www.w3.org/1999/xlink">
<path d="M37.519,32C36.142,31.996 34.778,32.265 33.505,32.792C32.232,33.319 31.077,34.093 30.105,35.07L24.105,41.07C23.179,42.001 22.077,42.74 20.863,43.243C19.649,43.746 18.347,44.003 17.033,44L6.245,44C5.802,44 5.368,43.869 4.999,43.623C4.63,43.376 4.343,43.026 4.173,42.616C4.003,42.206 3.959,41.755 4.045,41.32C4.132,40.885 4.346,40.486 4.659,40.172L11.039,33.8L37.545,26.73C38.824,26.389 39.953,25.635 40.759,24.586C41.564,23.537 42,22.251 41.999,20.928L41.999,6C41.999,4.409 41.367,2.883 40.242,1.757C39.117,0.632 37.591,0 35.999,0L21.071,0C19.749,-0.001 18.463,0.436 17.414,1.241C16.366,2.047 15.612,3.176 15.271,4.454L8.199,30.97L1.831,37.344C0.958,38.217 0.364,39.329 0.123,40.54C-0.118,41.751 0.006,43.006 0.478,44.147C0.951,45.287 1.751,46.262 2.777,46.948C3.804,47.634 5.011,48 6.245,48L17.033,48C18.873,48.005 20.695,47.645 22.394,46.941C24.094,46.237 25.636,45.202 26.933,43.898L32.933,37.898C33.841,36.993 34.996,36.377 36.253,36.128C37.51,35.879 38.813,36.008 39.997,36.499C41.18,36.989 42.192,37.82 42.905,38.885C43.617,39.95 43.998,41.203 43.999,42.484L43.999,48L47.999,48L47.999,42.484C47.996,39.705 46.891,37.041 44.926,35.076C42.962,33.111 40.298,32.005 37.519,32L37.519,32ZM37.999,6.832L37.999,19.172L31.829,13L37.999,6.832ZM28.999,10.174L22.827,4L35.175,4L28.999,10.174ZM36.131,22.962L16.683,28.148L28.999,15.83L36.131,22.962ZM19.037,5.866L26.173,13L13.849,25.326L19.037,5.866Z" fill="#374957"/>
</svg>
