<svg width="46" height="48" viewBox="0 0 46 48" fill="none" xmlns="http://www.w3.org/2000/svg" xmlns:xlink="http://www.w3.org/1999/xlink">
<path d="M43.748,29.754C43.491,28.76 43.037,27.828 42.413,27.013C41.789,26.198 41.007,25.517 40.114,25.01L38.348,24.01L40.116,23C41.009,22.494 41.791,21.812 42.415,20.997C43.039,20.182 43.492,19.25 43.748,18.256C44.015,17.233 44.073,16.167 43.919,15.122C43.764,14.076 43.401,13.072 42.85,12.17C42.132,10.973 41.133,9.968 39.939,9.243C38.746,8.519 37.394,8.095 36,8.01C34.557,7.962 33.13,8.315 31.876,9.03L30,10.102L30,8C30,5.878 29.157,3.843 27.657,2.343C26.157,0.843 24.122,0 22,0C19.878,0 17.843,0.843 16.343,2.343C14.843,3.843 14,5.878 14,8L14,10.102L12.122,9.03C10.881,8.319 9.468,7.962 8.038,8C6.636,8.084 5.275,8.508 4.074,9.236C2.872,9.963 1.866,10.972 1.142,12.176C0.594,13.076 0.233,14.078 0.081,15.121C-0.072,16.164 -0.013,17.226 0.254,18.246C0.509,19.242 0.963,20.176 1.587,20.993C2.211,21.81 2.994,22.492 3.888,23L5.654,24L3.886,25.01C2.993,25.517 2.211,26.198 1.587,27.013C0.963,27.828 0.509,28.76 0.252,29.754C-0.014,30.776 -0.072,31.841 0.082,32.885C0.237,33.93 0.6,34.933 1.15,35.834C1.924,37.121 3.024,38.183 4.338,38.911C5.651,39.639 7.134,40.009 8.636,39.984C9.862,39.926 11.058,39.578 12.124,38.97L14,37.898L14,40C14,42.122 14.843,44.157 16.343,45.657C17.843,47.157 19.878,48 22,48C24.122,48 26.157,47.157 27.657,45.657C29.157,44.157 30,42.122 30,40L30,37.898L31.878,38.97C33.13,39.688 34.557,40.045 36,40C37.395,39.912 38.748,39.486 39.942,38.761C41.137,38.035 42.138,37.031 42.86,35.834C43.408,34.932 43.77,33.929 43.922,32.884C44.075,31.84 44.016,30.775 43.748,29.754L43.748,29.754ZM37.568,32.972C37.301,33.424 36.872,33.758 36.367,33.904C35.863,34.05 35.322,33.999 34.854,33.76L28.488,30.126C28.032,29.865 27.515,29.729 26.989,29.731C26.464,29.733 25.948,29.873 25.494,30.137C25.039,30.401 24.662,30.779 24.4,31.235C24.138,31.69 24,32.206 24,32.732L24,40C24,40.53 23.789,41.039 23.414,41.414C23.039,41.789 22.53,42 22,42C21.47,42 20.961,41.789 20.586,41.414C20.211,41.039 20,40.53 20,40L20,32.732C19.999,32.207 19.86,31.691 19.598,31.237C19.335,30.782 18.958,30.404 18.504,30.141C18.05,29.878 17.534,29.739 17.009,29.737C16.484,29.735 15.968,29.872 15.512,30.132L9.148,33.76C8.678,34 8.133,34.051 7.627,33.902C7.12,33.753 6.69,33.416 6.424,32.96C6.273,32.751 6.164,32.515 6.104,32.264C6.044,32.014 6.034,31.754 6.075,31.499C6.115,31.245 6.206,31.001 6.341,30.781C6.476,30.562 6.653,30.371 6.862,30.22L13.2,26.6C13.66,26.338 14.042,25.959 14.308,25.501C14.574,25.043 14.714,24.523 14.714,23.994C14.714,23.465 14.574,22.945 14.308,22.487C14.042,22.029 13.66,21.65 13.2,21.388L6.864,17.782C6.476,17.449 6.22,16.989 6.141,16.485C6.061,15.98 6.165,15.463 6.432,15.028C6.699,14.576 7.128,14.242 7.633,14.096C8.137,13.949 8.678,14.001 9.146,14.24L15.512,17.874C15.968,18.135 16.485,18.271 17.011,18.269C17.536,18.267 18.052,18.127 18.506,17.863C18.961,17.6 19.338,17.221 19.6,16.765C19.862,16.31 20,15.794 20,15.268L20,8C20,7.47 20.211,6.961 20.586,6.586C20.961,6.211 21.47,6 22,6C22.53,6 23.039,6.211 23.414,6.586C23.789,6.961 24,7.47 24,8L24,15.268C24.001,15.793 24.139,16.309 24.402,16.763C24.665,17.218 25.042,17.596 25.496,17.859C25.95,18.122 26.466,18.261 26.991,18.263C27.516,18.265 28.032,18.128 28.488,17.868L34.852,14.24C35.323,14 35.867,13.949 36.374,14.098C36.881,14.247 37.312,14.584 37.578,15.04C37.845,15.473 37.948,15.988 37.867,16.49C37.786,16.992 37.527,17.449 37.138,17.776L30.8,21.4C30.34,21.662 29.958,22.041 29.692,22.499C29.426,22.957 29.286,23.477 29.286,24.006C29.286,24.535 29.426,25.055 29.692,25.513C29.958,25.971 30.34,26.35 30.8,26.612L37.13,30.224C37.531,30.546 37.797,31.006 37.878,31.514C37.959,32.021 37.849,32.541 37.568,32.972L37.568,32.972Z" fill="#374957"/>
</svg>
