<svg width="48" height="48" viewBox="0 0 48 48" fill="none" xmlns="http://www.w3.org/2000/svg" xmlns:xlink="http://www.w3.org/1999/xlink">
<path d="M37,0L21,0C18.084,0.004 15.288,1.164 13.226,3.226C11.164,5.288 10.004,8.084 10,11L10,20.05C7.269,20.302 4.731,21.565 2.881,23.59C1.032,25.615 0.004,28.257 0,31L0,37C0.004,39.916 1.164,42.712 3.226,44.774C5.288,46.836 8.084,47.996 11,48L17,48C19.743,47.996 22.385,46.968 24.41,45.119C26.435,43.269 27.698,40.731 27.95,38L37,38C39.916,37.996 42.712,36.836 44.774,34.774C46.836,32.712 47.996,29.916 48,27L48,11C47.996,8.084 46.836,5.288 44.774,3.226C42.712,1.164 39.916,0.004 37,0L37,0ZM17,42L11,42C9.674,42 8.402,41.473 7.464,40.536C6.527,39.598 6,38.326 6,37L6,31C6,29.848 6.398,28.731 7.127,27.838C7.856,26.946 8.871,26.332 10,26.102L10,27C10.004,29.916 11.164,32.712 13.226,34.774C15.288,36.836 18.084,37.996 21,38L21.898,38C21.668,39.129 21.054,40.144 20.162,40.873C19.269,41.602 18.152,42 17,42ZM42,27C42,28.326 41.473,29.598 40.536,30.536C39.598,31.473 38.326,32 37,32L28,32L28,31C28.001,29.124 27.519,27.279 26.6,25.644L32,20.244L32,23C32,23.796 32.316,24.559 32.879,25.121C33.441,25.684 34.204,26 35,26C35.796,26 36.559,25.684 37.121,25.121C37.684,24.559 38,23.796 38,23L38,17C38,15.143 37.263,13.363 35.95,12.05C34.637,10.738 32.857,10 31,10L25,10C24.204,10 23.441,10.316 22.879,10.879C22.316,11.441 22,12.204 22,13C22,13.796 22.316,14.559 22.879,15.121C23.441,15.684 24.204,16 25,16L27.758,16L22.358,21.4C20.722,20.48 18.877,19.998 17,20L16,20L16,11C16,9.674 16.527,8.402 17.464,7.464C18.402,6.527 19.674,6 21,6L37,6C38.326,6 39.598,6.527 40.536,7.464C41.473,8.402 42,9.674 42,11L42,27Z" fill="#374957"/>
</svg>
