<svg width="48" height="48" viewBox="0 0 48 48" fill="none" xmlns="http://www.w3.org/2000/svg" xmlns:xlink="http://www.w3.org/1999/xlink">
<path d="M3,41.999L26.124,41.999C33.392,41.999 39.216,38.567 41.702,32.819C41.939,32.289 42.039,31.707 41.991,31.129C41.943,30.55 41.749,29.993 41.428,29.509C41.127,29.044 40.713,28.663 40.225,28.401C39.738,28.139 39.192,28.005 38.638,28.011L30.018,28.011C29.805,27.999 29.594,28.058 29.418,28.179L25.452,30.823C24.304,31.588 22.956,31.997 21.576,31.999L3,31.999C2.204,31.999 1.441,31.683 0.879,31.12C0.316,30.558 0,29.794 0,28.999C0,28.203 0.316,27.44 0.879,26.878C1.441,26.315 2.204,25.999 3,25.999L21.576,25.999C21.775,25.999 21.969,25.94 22.134,25.829L26.098,23.185C27.247,22.418 28.597,22.009 29.978,22.011L33.542,22.011C31.949,18.599 29.633,15.574 26.754,13.147C25.643,12.403 24.337,12.003 23,11.999L3,11.999C2.204,11.999 1.441,11.683 0.879,11.12C0.316,10.557 0,9.794 0,8.999C0,8.203 0.316,7.44 0.879,6.877C1.441,6.315 2.204,5.999 3,5.999L8.362,5.999L8.174,5.285C7.889,4.205 8.045,3.055 8.608,2.09C9.17,1.125 10.093,0.423 11.173,0.138C12.253,-0.147 13.402,0.009 14.368,0.571C15.333,1.134 16.035,2.057 16.32,3.137L17.074,5.999L23,5.999C25.721,6.003 28.368,6.881 30.552,8.503C34.865,12.149 38.164,16.847 40.128,22.143C41.405,22.345 42.626,22.811 43.714,23.512C44.801,24.212 45.73,25.131 46.442,26.211C47.306,27.528 47.828,29.039 47.96,30.609C48.092,32.178 47.831,33.756 47.2,35.199C43.744,43.213 35.862,47.999 26.124,47.999L3,47.999C2.204,47.999 1.441,47.683 0.879,47.12C0.316,46.558 0,45.794 0,44.999C0,44.203 0.316,43.44 0.879,42.878C1.441,42.315 2.204,41.999 3,41.999L3,41.999ZM19,21.999C19.796,21.999 20.559,21.683 21.121,21.12C21.684,20.558 22,19.794 22,18.999C22,18.203 21.684,17.44 21.121,16.877C20.559,16.315 19.796,15.999 19,15.999L3,15.987C2.204,15.987 1.441,16.303 0.879,16.865C0.316,17.428 0,18.191 0,18.987C0,19.782 0.316,20.546 0.879,21.108C1.441,21.671 2.204,21.987 3,21.987L19,21.999ZM18,37.011C18,36.417 17.824,35.837 17.494,35.344C17.165,34.851 16.696,34.466 16.148,34.239C15.6,34.012 14.997,33.953 14.415,34.068C13.833,34.184 13.298,34.47 12.879,34.89C12.459,35.309 12.173,35.844 12.058,36.426C11.942,37.008 12.001,37.611 12.228,38.159C12.455,38.707 12.84,39.176 13.333,39.505C13.827,39.835 14.407,40.011 15,40.011C15.796,40.011 16.559,39.695 17.121,39.132C17.684,38.57 18,37.806 18,37.011ZM8,37.011C8,36.417 7.824,35.837 7.494,35.344C7.165,34.851 6.696,34.466 6.148,34.239C5.6,34.012 4.997,33.953 4.415,34.068C3.833,34.184 3.298,34.47 2.879,34.89C2.459,35.309 2.173,35.844 2.058,36.426C1.942,37.008 2.001,37.611 2.228,38.159C2.455,38.707 2.84,39.176 3.333,39.505C3.827,39.835 4.407,40.011 5,40.011C5.796,40.011 6.559,39.695 7.121,39.132C7.684,38.57 8,37.806 8,37.011ZM28,37.011C28,36.417 27.824,35.837 27.494,35.344C27.165,34.851 26.696,34.466 26.148,34.239C25.6,34.012 24.997,33.953 24.415,34.068C23.833,34.184 23.298,34.47 22.879,34.89C22.459,35.309 22.173,35.844 22.058,36.426C21.942,37.008 22.001,37.611 22.228,38.159C22.455,38.707 22.84,39.176 23.333,39.505C23.827,39.835 24.407,40.011 25,40.011C25.796,40.011 26.559,39.695 27.121,39.132C27.684,38.57 28,37.806 28,37.011L28,37.011Z" fill="#374957"/>
</svg>
