<svg width="32" height="48" viewBox="0 0 32 48" fill="none" xmlns="http://www.w3.org/2000/svg" xmlns:xlink="http://www.w3.org/1999/xlink">
<path d="M22,32.073C22.002,33.125 21.727,34.158 21.203,35.069C20.679,35.98 19.925,36.738 19.016,37.265C18.106,37.793 17.074,38.072 16.023,38.074C14.972,38.076 13.939,37.802 13.027,37.279C12.115,36.755 11.358,36.001 10.83,35.092C10.302,34.183 10.023,33.151 10.02,32.1C10.017,31.049 10.291,30.015 10.814,29.103C11.337,28.192 12.091,27.434 13,26.905L13,16.073C13,15.278 13.316,14.515 13.879,13.952C14.441,13.389 15.204,13.073 16,13.073C16.796,13.073 17.559,13.389 18.121,13.952C18.684,14.515 19,15.278 19,16.073L19,26.905C19.91,27.428 20.666,28.18 21.192,29.087C21.719,29.995 21.998,31.024 22,32.073L22,32.073ZM32,31.999C31.995,36.241 30.308,40.308 27.308,43.308C24.309,46.307 20.242,47.995 16,47.999C2.454,48.177 -5.126,31.475 4,21.457L4,12.073C4.506,-3.789 27.5,-3.779 28,12.073L28,21.457C30.584,24.36 32.008,28.113 32,31.999ZM26,31.999C26,30.656 25.727,29.327 25.197,28.092C24.667,26.858 23.892,25.744 22.918,24.819C22.627,24.539 22.397,24.204 22.239,23.833C22.081,23.462 22,23.063 22,22.659L22,12.073C22,10.482 21.368,8.956 20.242,7.831C19.117,6.706 17.591,6.073 16,6.073C14.409,6.073 12.882,6.706 11.757,7.831C10.632,8.956 10,10.482 10,12.073L10,22.659C10,23.063 9.919,23.462 9.761,23.833C9.603,24.204 9.372,24.539 9.082,24.819C7.893,25.965 7.007,27.387 6.502,28.959C5.997,30.531 5.89,32.203 6.19,33.827C6.49,35.45 7.188,36.974 8.221,38.262C9.254,39.55 10.59,40.561 12.11,41.206C13.63,41.851 15.285,42.109 16.929,41.958C18.573,41.806 20.154,41.249 21.53,40.337C22.906,39.425 24.035,38.186 24.815,36.731C25.595,35.276 26.002,33.65 26,31.999L26,31.999Z" fill="#374957"/>
</svg>
