<svg width="40" height="48" viewBox="0 0 40 48" fill="none" xmlns="http://www.w3.org/2000/svg" xmlns:xlink="http://www.w3.org/1999/xlink">
<path d="M20,0.014C16.043,0.014 12.175,1.188 8.885,3.388C5.596,5.587 3.033,8.713 1.52,12.37C0.008,16.027 -0.386,20.05 0.389,23.93C1.164,27.811 3.073,31.374 5.874,34.17L20,47.986L34.142,34.154C36.938,31.356 38.842,27.793 39.614,23.914C40.385,20.034 39.989,16.014 38.475,12.36C36.961,8.706 34.398,5.582 31.11,3.385C27.821,1.187 23.955,0.014 20,0.014L20,0.014ZM31.33,31.31L20,42.4L8.686,31.326C6.449,29.089 4.925,26.239 4.308,23.136C3.69,20.033 4.006,16.817 5.216,13.894C6.425,10.971 8.474,8.472 11.104,6.713C13.733,4.954 16.825,4.015 19.988,4.012C23.152,4.01 26.245,4.946 28.877,6.701C31.509,8.456 33.562,10.952 34.775,13.873C35.989,16.795 36.31,20.01 35.696,23.114C35.083,26.217 33.563,29.069 31.33,31.31L31.33,31.31ZM28.036,14.846L23.036,11.026C22.163,10.362 21.097,10.003 20.001,10.003C18.904,10.003 17.838,10.362 16.966,11.026L11.966,14.846C11.356,15.313 10.862,15.915 10.521,16.603C10.18,17.292 10.002,18.049 10,18.818L10,28L30,28L30,18.818C29.997,18.05 29.819,17.292 29.479,16.604C29.138,15.915 28.645,15.314 28.036,14.846L28.036,14.846ZM26,24L22,24L22,20L18,20L18,24L14,24L14,18.818C14,18.662 14.036,18.509 14.105,18.37C14.175,18.232 14.276,18.111 14.4,18.018L19.4,14.2C19.574,14.066 19.788,13.994 20.008,13.994C20.228,13.994 20.441,14.066 20.616,14.2L25.616,18.02C25.74,18.113 25.841,18.234 25.91,18.372C25.98,18.511 26.016,18.664 26.016,18.82L26,24Z" fill="#374957"/>
</svg>
