<svg width="44" height="48" viewBox="0 0 44 48" fill="none" xmlns="http://www.w3.org/2000/svg" xmlns:xlink="http://www.w3.org/1999/xlink">
<path d="M38,0L4,0L4,6L0,6L0,10L4,10L4,14L0,14L0,18L4,18L4,22L0,22L0,26L4,26L4,30L0,30L0,34L4,34L4,38L0,38L0,42L4,42L4,48L38,48C39.591,48 41.117,47.368 42.243,46.243C43.368,45.117 44,43.591 44,42L44,6C44,4.409 43.368,2.883 42.243,1.757C41.117,0.632 39.591,0 38,0L38,0ZM24,8C25.384,8 26.738,8.411 27.889,9.18C29.04,9.949 29.937,11.042 30.467,12.321C30.997,13.6 31.136,15.008 30.865,16.366C30.595,17.724 29.929,18.971 28.95,19.95C27.971,20.929 26.723,21.595 25.366,21.865C24.008,22.136 22.6,21.997 21.321,21.467C20.042,20.937 18.949,20.04 18.18,18.889C17.411,17.738 17,16.384 17,15C17,13.143 17.737,11.363 19.05,10.05C20.363,8.738 22.143,8 24,8L24,8ZM36,36L32,36L32,32C32,31.47 31.789,30.961 31.414,30.586C31.039,30.211 30.53,30 30,30L18,30C17.47,30 16.961,30.211 16.586,30.586C16.211,30.961 16,31.47 16,32L16,36L12,36L12,32C12,30.409 12.632,28.883 13.757,27.757C14.883,26.632 16.409,26 18,26L30,26C31.591,26 33.117,26.632 34.243,27.757C35.368,28.883 36,30.409 36,32L36,36ZM21,15C21,14.407 21.176,13.827 21.506,13.333C21.835,12.84 22.304,12.455 22.852,12.228C23.4,12.001 24.003,11.942 24.585,12.058C25.167,12.173 25.702,12.459 26.121,12.879C26.541,13.298 26.827,13.833 26.942,14.415C27.058,14.997 26.999,15.6 26.772,16.148C26.545,16.696 26.16,17.165 25.667,17.494C25.173,17.824 24.593,18 24,18C23.204,18 22.441,17.684 21.879,17.121C21.316,16.559 21,15.796 21,15L21,15Z" fill="#374957"/>
</svg>
