<svg width="48" height="48" viewBox="0 0 48 48" fill="none" xmlns="http://www.w3.org/2000/svg" xmlns:xlink="http://www.w3.org/1999/xlink">
<path d="M45,10L42.242,10L45.122,7.122C45.685,6.559 46.001,5.796 46.001,5C46.001,4.204 45.685,3.441 45.122,2.878C44.559,2.315 43.796,1.999 43,1.999C42.204,1.999 41.441,2.315 40.878,2.878L38,5.758L38,3C38,2.204 37.684,1.441 37.121,0.879C36.558,0.316 35.795,0 35,0C34.204,0 33.441,0.316 32.878,0.879C32.316,1.441 32,2.204 32,3L32,9.074C30.901,8.114 29.669,7.319 28.342,6.714C26.717,5.994 24.903,5.821 23.171,6.221C21.44,6.622 19.885,7.574 18.742,8.934C15.31,12.37 5.964,29.498 0.7,39.4C0.111,40.505 -0.108,41.769 0.076,43.008C0.26,44.246 0.838,45.392 1.723,46.277C2.608,47.163 3.754,47.74 4.992,47.925C6.23,48.109 7.495,47.891 8.6,47.302C18.506,42.036 35.634,32.686 39.068,29.254C44,24.33 41.94,19.71 38.904,16L45,16C45.795,16 46.558,15.684 47.121,15.121C47.684,14.559 48,13.796 48,13C48,12.204 47.684,11.441 47.121,10.879C46.558,10.316 45.795,10 45,10ZM34.824,25.01C33.049,26.471 31.152,27.777 29.154,28.912L27.122,26.878C26.559,26.315 25.796,25.999 25,25.999C24.204,25.999 23.441,26.315 22.878,26.878C22.315,27.441 21.999,28.204 21.999,29C21.999,29.394 22.076,29.784 22.227,30.148C22.378,30.513 22.599,30.843 22.878,31.122L23.838,32.08C19.058,34.858 13.01,38.228 6.146,41.936C8.072,38.32 9.902,34.936 11.61,31.852L12.878,33.122C13.441,33.685 14.204,34.001 15,34.001C15.796,34.001 16.559,33.685 17.122,33.122C17.685,32.559 18.001,31.796 18.001,31C18.001,30.204 17.685,29.441 17.122,28.878L14.654,26.412C16.254,23.612 17.68,21.16 18.908,19.15L20.878,21.122C21.441,21.685 22.204,22.001 23,22.001C23.796,22.001 24.559,21.685 25.122,21.122C25.685,20.559 26.001,19.796 26.001,19C26.001,18.204 25.685,17.441 25.122,16.878L22.274,14.032C22.495,13.733 22.733,13.447 22.988,13.176C24.292,11.958 24.854,11.76 25.988,12.228C27.991,13.423 29.797,14.921 31.342,16.668C36.962,22.298 36.626,23.2 34.824,25.01L34.824,25.01Z" fill="#374957"/>
</svg>
