<svg width="48" height="48" viewBox="0 0 48 48" fill="none" xmlns="http://www.w3.org/2000/svg" xmlns:xlink="http://www.w3.org/1999/xlink">
<path d="M47.916,26.97C47.164,31.438 45.376,35.667 42.695,39.319C40.015,42.971 36.515,45.944 32.478,48L15.546,48C11.506,45.946 8.002,42.974 5.317,39.322C2.632,35.67 0.84,31.439 0.084,26.97C-0.06,26.117 -0.016,25.243 0.213,24.408C0.442,23.574 0.85,22.8 1.41,22.14C1.976,21.469 2.682,20.93 3.477,20.56C4.273,20.191 5.141,20 6.018,20L41.98,20C42.856,20 43.722,20.192 44.517,20.562C45.311,20.931 46.015,21.47 46.58,22.14C47.142,22.799 47.552,23.573 47.783,24.407C48.014,25.241 48.059,26.116 47.916,26.97L47.916,26.97ZM28,10.828L28,14L32,14L32,10.828C32.004,9.668 31.777,8.519 31.333,7.448C30.889,6.376 30.237,5.403 29.414,4.586C28.512,3.678 28.004,2.452 28,1.172L28,0L24,0L24,1.172C24.007,3.512 24.936,5.755 26.584,7.416C27.034,7.863 27.391,8.394 27.634,8.98C27.878,9.566 28.002,10.194 28,10.828L28,10.828ZM20,12.828L20,16L24,16L24,12.828C24.003,11.668 23.777,10.519 23.333,9.447C22.889,8.375 22.237,7.402 21.414,6.584C20.964,6.137 20.607,5.606 20.364,5.02C20.122,4.434 19.998,3.806 20,3.172L20,0L16,0L16,3.172C15.997,4.332 16.223,5.48 16.667,6.552C17.11,7.623 17.762,8.596 18.584,9.414C19.488,10.321 19.996,11.548 20,12.828L20,12.828Z" fill="#374957"/>
</svg>
