<svg width="48" height="36" viewBox="0 0 48 36" fill="none" xmlns="http://www.w3.org/2000/svg" xmlns:xlink="http://www.w3.org/1999/xlink">
<path d="M8.32,35.617C6.114,35.613 4,34.735 2.441,33.175C0.881,31.615 0.004,29.501 0,27.295L0,8.695C0.002,7.16 0.429,5.655 1.233,4.347C2.038,3.039 3.189,1.98 4.56,1.286C5.93,0.593 7.465,0.292 8.996,0.418C10.526,0.544 11.992,1.091 13.23,1.999L19.054,6.269C19.443,5 20.13,3.843 21.058,2.894C21.986,1.945 23.127,1.231 24.387,0.813C25.647,0.395 26.988,0.285 28.3,0.491C29.611,0.698 30.853,1.215 31.924,1.999L44.6,11.295C45.652,12.068 46.507,13.076 47.096,14.24C47.686,15.404 47.993,16.691 47.993,17.995C47.993,19.3 47.686,20.587 47.096,21.75C46.507,22.914 45.652,23.923 44.6,24.695L31.926,33.999C30.855,34.784 29.612,35.301 28.301,35.508C26.99,35.714 25.648,35.603 24.388,35.186C23.128,34.768 21.987,34.054 21.059,33.105C20.131,32.156 19.443,30.998 19.054,29.729L13.23,33.999C11.808,35.049 10.087,35.616 8.32,35.617L8.32,35.617ZM21.696,21.073C22.492,21.073 23.255,21.39 23.817,21.952C24.38,22.515 24.696,23.278 24.696,24.073L24.696,27.295C24.696,27.723 24.814,28.143 25.038,28.507C25.261,28.872 25.582,29.167 25.963,29.361C26.344,29.554 26.772,29.638 27.198,29.603C27.625,29.569 28.033,29.416 28.378,29.163L41.054,19.865C41.347,19.65 41.585,19.37 41.75,19.045C41.914,18.721 42,18.363 42,17.999C42,17.636 41.914,17.278 41.75,16.953C41.585,16.629 41.347,16.348 41.054,16.133L28.376,6.835C28.031,6.583 27.623,6.431 27.197,6.397C26.771,6.362 26.344,6.446 25.963,6.64C25.582,6.833 25.261,7.128 25.038,7.493C24.814,7.857 24.696,8.276 24.696,8.703L24.696,11.925C24.696,12.48 24.543,13.024 24.253,13.497C23.962,13.97 23.547,14.353 23.052,14.604C22.557,14.854 22.002,14.963 21.449,14.917C20.897,14.872 20.367,14.674 19.92,14.345L9.682,6.835C9.337,6.583 8.929,6.432 8.503,6.397C8.077,6.363 7.649,6.447 7.268,6.64C6.887,6.834 6.567,7.129 6.343,7.493C6.119,7.857 6,8.276 6,8.703L6,27.303C6,27.731 6.119,28.15 6.343,28.514C6.567,28.878 6.887,29.173 7.268,29.367C7.649,29.56 8.077,29.644 8.503,29.61C8.929,29.575 9.337,29.424 9.682,29.171L19.92,21.653C20.436,21.277 21.057,21.074 21.696,21.073L21.696,21.073Z" fill="#374957"/>
</svg>
