<svg width="48" height="48" viewBox="0 0 48 48" fill="none" xmlns="http://www.w3.org/2000/svg" xmlns:xlink="http://www.w3.org/1999/xlink">
<path d="M42,30.07L42,22.998C41.998,19.809 41.149,16.678 39.54,13.925C37.932,11.171 35.621,8.894 32.844,7.326C32.455,5.265 31.359,3.404 29.744,2.066C28.129,0.727 26.097,-0.005 24,-0.005C21.903,-0.005 19.871,0.727 18.256,2.066C16.641,3.404 15.545,5.265 15.156,7.326C12.379,8.894 10.068,11.171 8.46,13.925C6.851,16.678 6.002,19.809 6,22.998L6,30.07C4.334,30.311 2.811,31.143 1.709,32.416C0.607,33.688 0,35.315 0,36.998L0,40.998C0,42.855 0.737,44.635 2.05,45.948C3.363,47.261 5.143,47.998 7,47.998L11,47.998C12.857,47.998 14.637,47.261 15.95,45.948C17.263,44.635 18,42.855 18,40.998L18,36.998C18,35.315 17.393,33.688 16.291,32.416C15.189,31.143 13.666,30.311 12,30.07L12,22.998C12,21.231 12.391,19.485 13.145,17.886C13.899,16.288 14.998,14.876 16.362,13.752C17.17,15.049 18.296,16.119 19.632,16.861C20.968,17.603 22.472,17.992 24,17.992C25.528,17.992 27.032,17.603 28.368,16.861C29.704,16.119 30.83,15.049 31.638,13.752C33.002,14.876 34.101,16.288 34.855,17.886C35.609,19.485 36,21.231 36,22.998L36,30.07C34.334,30.311 32.811,31.143 31.709,32.416C30.607,33.688 30,35.315 30,36.998L30,40.998C30,42.855 30.737,44.635 32.05,45.948C33.363,47.261 35.143,47.998 37,47.998L41,47.998C42.857,47.998 44.637,47.261 45.95,45.948C47.263,44.635 48,42.855 48,40.998L48,36.998C48,35.315 47.393,33.688 46.291,32.416C45.189,31.143 43.666,30.311 42,30.07L42,30.07ZM12,40.998C12,41.263 11.895,41.518 11.707,41.705C11.52,41.893 11.265,41.998 11,41.998L7,41.998C6.735,41.998 6.48,41.893 6.293,41.705C6.105,41.518 6,41.263 6,40.998L6,36.998C6,36.733 6.105,36.479 6.293,36.291C6.48,36.104 6.735,35.998 7,35.998L11,35.998C11.265,35.998 11.52,36.104 11.707,36.291C11.895,36.479 12,36.733 12,36.998L12,40.998ZM24,11.998C23.407,11.998 22.827,11.822 22.333,11.493C21.84,11.163 21.455,10.694 21.228,10.146C21.001,9.598 20.942,8.995 21.058,8.413C21.173,7.831 21.459,7.296 21.879,6.877C22.298,6.457 22.833,6.172 23.415,6.056C23.997,5.94 24.6,5.999 25.148,6.227C25.696,6.454 26.165,6.838 26.494,7.331C26.824,7.825 27,8.405 27,8.998C27,9.794 26.684,10.557 26.121,11.12C25.559,11.682 24.796,11.998 24,11.998ZM42,40.998C42,41.263 41.895,41.518 41.707,41.705C41.52,41.893 41.265,41.998 41,41.998L37,41.998C36.735,41.998 36.48,41.893 36.293,41.705C36.105,41.518 36,41.263 36,40.998L36,36.998C36,36.733 36.105,36.479 36.293,36.291C36.48,36.104 36.735,35.998 37,35.998L41,35.998C41.265,35.998 41.52,36.104 41.707,36.291C41.895,36.479 42,36.733 42,36.998L42,40.998Z" fill="#374957"/>
</svg>
