<svg width="48" height="48" viewBox="0 0 48 48" fill="none" xmlns="http://www.w3.org/2000/svg" xmlns:xlink="http://www.w3.org/1999/xlink">
<path d="M43.312,10.838L29.95,1.82C28.195,0.627 26.122,-0.011 24,-0.011C21.878,-0.011 19.805,0.627 18.05,1.82L4.688,10.836C3.243,11.809 2.06,13.122 1.243,14.66C0.425,16.197 -0.001,17.913 0,19.654L0,37.364C0.003,40.184 1.125,42.887 3.119,44.881C5.113,46.875 7.816,47.997 10.636,48L37.364,48C40.184,47.997 42.887,46.875 44.881,44.881C46.875,42.887 47.997,40.184 48,37.364L48,19.654C48.002,17.913 47.575,16.198 46.757,14.66C45.94,13.123 44.757,11.81 43.312,10.838L43.312,10.838ZM42,37.364C41.998,38.593 41.509,39.771 40.64,40.64C39.771,41.509 38.593,41.998 37.364,42L10.636,42C9.407,41.998 8.229,41.509 7.36,40.64C6.491,39.771 6.002,38.593 6,37.364L6,19.654C6,18.895 6.186,18.148 6.542,17.477C6.898,16.807 7.413,16.235 8.042,15.81L21.4,6.8C22.165,6.281 23.069,6.004 23.993,6.004C24.917,6.004 25.821,6.281 26.586,6.8L39.95,15.82C40.58,16.242 41.096,16.813 41.453,17.481C41.811,18.15 41.998,18.896 42,19.654L42,37.364ZM24,16C22.022,16 20.089,16.587 18.445,17.685C16.8,18.784 15.519,20.345 14.762,22.173C14.005,24 13.806,26.01 14.192,27.95C14.578,29.89 15.53,31.671 16.928,33.07L22.226,38.252C22.7,38.715 23.337,38.975 24,38.975C24.663,38.975 25.3,38.715 25.774,38.252L31.07,33.07C32.468,31.671 33.42,29.89 33.806,27.95C34.192,26.011 33.993,24 33.237,22.173C32.48,20.346 31.199,18.785 29.555,17.686C27.91,16.587 25.978,16 24,16L24,16ZM24,29.108C23.407,29.108 22.827,28.932 22.333,28.602C21.84,28.273 21.455,27.804 21.228,27.256C21.001,26.708 20.942,26.105 21.058,25.523C21.173,24.941 21.459,24.406 21.879,23.987C22.298,23.567 22.833,23.281 23.415,23.166C23.997,23.05 24.6,23.109 25.148,23.336C25.696,23.563 26.165,23.948 26.494,24.441C26.824,24.935 27,25.515 27,26.108C27,26.904 26.684,27.667 26.121,28.229C25.559,28.792 24.796,29.108 24,29.108L24,29.108Z" fill="#374957"/>
</svg>
