<svg width="36" height="48" viewBox="0 0 36 48" fill="none" xmlns="http://www.w3.org/2000/svg" xmlns:xlink="http://www.w3.org/1999/xlink">
<path d="M25.658,4C25.243,2.831 24.476,1.819 23.463,1.103C22.45,0.387 21.241,0.002 20,0L16,0C14.759,0.002 13.55,0.387 12.537,1.103C11.524,1.819 10.757,2.831 10.342,4L0,4L0,42C0,43.591 0.632,45.117 1.757,46.243C2.883,47.368 4.409,48 6,48L30,48C31.591,48 33.117,47.368 34.243,46.243C35.368,45.117 36,43.591 36,42L36,4L25.658,4ZM10,16L16,16L16,10L20,10L20,16L26,16L26,20L20,20L20,26L16,26L16,20L10,20L10,16ZM20,42L8,42L8,38L20,38L20,42ZM28,34L8,34L8,30L28,30L28,34Z" fill="#374957"/>
</svg>
