<svg width="48" height="48" viewBox="0 0 48 48" fill="none" xmlns="http://www.w3.org/2000/svg" xmlns:xlink="http://www.w3.org/1999/xlink">
<path d="M24,0C19.253,0 14.613,1.408 10.666,4.045C6.72,6.682 3.643,10.43 1.827,14.816C0.01,19.201 -0.465,24.027 0.461,28.682C1.387,33.338 3.673,37.614 7.029,40.971C10.386,44.327 14.662,46.613 19.318,47.539C23.973,48.465 28.799,47.99 33.184,46.173C37.57,44.357 41.318,41.28 43.955,37.334C46.592,33.387 48,28.747 48,24C47.993,17.637 45.462,11.536 40.963,7.037C36.464,2.538 30.363,0.007 24,0L24,0ZM24,30C11.976,30 4,26.388 4,24C4,21.612 11.976,18 24,18C36.024,18 44,21.612 44,24C44,26.388 36.024,30 24,30ZM24,4C28.188,4.007 32.269,5.327 35.668,7.775C39.066,10.222 41.612,13.674 42.946,17.644C36.978,15.043 30.507,13.799 24,14C17.493,13.799 11.022,15.043 5.054,17.644C6.388,13.674 8.934,10.222 12.332,7.775C15.731,5.327 19.812,4.007 24,4L24,4ZM24,44C19.812,43.993 15.731,42.673 12.332,40.225C8.934,37.778 6.388,34.326 5.054,30.356C11.022,32.957 17.493,34.201 24,34C30.507,34.201 36.978,32.957 42.946,30.356C41.612,34.326 39.066,37.778 35.668,40.225C32.269,42.673 28.188,43.993 24,44L24,44Z" fill="#374957"/>
</svg>
