<svg width="48" height="48" viewBox="0 0 48 48" fill="none" xmlns="http://www.w3.org/2000/svg" xmlns:xlink="http://www.w3.org/1999/xlink">
<path d="M4.726,9.761L7.43,18.511L0.014,23.737C0.067,18.697 1.717,13.804 4.726,9.761L4.726,9.761ZM13.746,38.001L4.524,37.979C7.501,42.127 11.72,45.22 16.572,46.811L13.746,38.001ZM24,6.505L31.352,1.163C26.573,-0.386 21.427,-0.386 16.648,1.163L24,6.505ZM43.256,9.737L40.544,18.511L47.988,23.755C47.936,18.699 46.279,13.79 43.256,9.737L43.256,9.737ZM34.23,38.001L31.4,46.821C36.264,45.23 40.495,42.13 43.478,37.971L34.23,38.001ZM26.882,47.819C25.925,47.937 24.963,47.998 24,48.001C23.027,47.993 22.056,47.926 21.092,47.801L16.666,34.001L2.2,33.965C1.376,32.174 0.778,30.288 0.42,28.349L12.116,20.107L7.85,6.307C9.229,5.036 10.752,3.93 12.388,3.013L24,11.449L35.612,3.013C37.242,3.925 38.76,5.024 40.136,6.287L35.866,20.107L47.584,28.365C47.224,30.298 46.627,32.179 45.806,33.965L31.31,34.001L26.882,47.819ZM16.698,34.001L31.298,34.001L35.81,20.113L24,11.529L12.186,20.113L16.698,34.001ZM16.898,21.639L19.6,30.001L28.4,30.001L31.116,21.639L24,16.473L16.898,21.639Z" fill="#374957"/>
</svg>
