<svg width="48" height="48" viewBox="0 0 48 48" fill="none" xmlns="http://www.w3.org/2000/svg" xmlns:xlink="http://www.w3.org/1999/xlink">
<path d="M35.226,25.696L47.756,38.226L41.414,44.568C40.309,45.669 38.996,46.539 37.552,47.128C36.107,47.717 34.56,48.014 33,48C18.504,48 0,29.496 0,15C-0.012,13.44 0.284,11.893 0.874,10.448C1.463,9.004 2.332,7.69 3.432,6.584L9.774,0.244L22.304,12.774L14.054,21.024C16.507,26.853 21.138,31.494 26.96,33.96L35.226,25.696ZM44,20L48,20C47.995,14.697 45.886,9.614 42.136,5.864C38.387,2.115 33.303,0.006 28,0L28,4C32.242,4.005 36.309,5.692 39.309,8.692C42.308,11.691 43.996,15.758 44,20ZM36,20L40,20C39.997,16.818 38.732,13.768 36.482,11.518C34.232,9.268 31.182,8.003 28,8L28,12C30.122,12 32.157,12.843 33.657,14.343C35.158,15.843 36,17.878 36,20Z" fill="#374957"/>
</svg>
