<svg width="40" height="48" viewBox="0 0 40 48" fill="none" xmlns="http://www.w3.org/2000/svg" xmlns:xlink="http://www.w3.org/1999/xlink">
<path d="M30,8L30,4C30,2.939 29.579,1.922 28.828,1.172C28.078,0.421 27.061,0 26,0L14,0C12.939,0 11.922,0.421 11.172,1.172C10.421,1.922 10,2.939 10,4L10,8L0,8L0,12L4,12L4,42C4,43.591 4.632,45.117 5.757,46.243C6.883,47.368 8.409,48 10,48L30,48C31.591,48 33.117,47.368 34.243,46.243C35.368,45.117 36,43.591 36,42L36,12L40,12L40,8L30,8ZM18,34L14,34L14,22L18,22L18,34ZM26,34L22,34L22,22L26,22L26,34ZM26,8L14,8L14,4L26,4L26,8Z" fill="#374957"/>
</svg>
