<svg width="48" height="48" viewBox="0 0 48 48" fill="none" xmlns="http://www.w3.org/2000/svg" xmlns:xlink="http://www.w3.org/1999/xlink">
<path d="M32.999,48C18.503,48 -0.001,29.496 -0.001,15C-0.014,13.439 0.282,11.892 0.872,10.447C1.461,9.002 2.332,7.689 3.433,6.584L9.773,0.244L22.301,12.774L15.489,19.586C17.944,25.415 22.576,30.056 28.399,32.524L35.227,25.696L47.759,38.226L41.415,44.57C40.31,45.67 38.996,46.54 37.552,47.129C36.107,47.718 34.56,48.014 32.999,48L32.999,48ZM9.773,5.902L6.259,9.416C5.531,10.15 4.957,11.022 4.569,11.981C4.181,12.939 3.987,13.966 3.999,15C3.999,27.468 20.531,44 32.999,44C34.033,44.012 35.059,43.818 36.017,43.431C36.976,43.044 37.848,42.47 38.583,41.744L42.101,38.226L35.225,31.352L29.371,37.2L28.159,36.736C24.3,35.299 20.794,33.05 17.88,30.14C14.965,27.231 12.71,23.729 11.267,19.872L10.775,18.646L16.645,12.774L9.773,5.902ZM34.373,21.378L37.119,18.636L33.999,15.516L33.999,10L29.999,10L29.999,17L34.373,21.378ZM23.129,7.946C24.219,6.742 25.542,5.771 27.017,5.094C28.493,4.417 30.091,4.046 31.715,4.006C33.338,3.965 34.953,4.255 36.461,4.857C37.969,5.46 39.338,6.362 40.487,7.51C41.635,8.658 42.538,10.028 43.141,11.536C43.744,13.044 44.034,14.658 43.993,16.282C43.953,17.905 43.583,19.503 42.906,20.979C42.229,22.455 41.259,23.778 40.055,24.868L42.881,27.696C44.455,26.234 45.718,24.47 46.595,22.51C47.472,20.549 47.944,18.432 47.984,16.284C48.024,14.137 47.63,12.004 46.826,10.012C46.023,8.02 44.826,6.211 43.307,4.692C41.789,3.173 39.979,1.976 37.987,1.173C35.996,0.369 33.862,-0.024 31.715,0.015C29.567,0.055 27.45,0.528 25.489,1.404C23.529,2.281 21.765,3.544 20.303,5.118L23.129,7.946Z" fill="#374957"/>
</svg>
