<svg width="48" height="50" viewBox="0 0 48 50" fill="none" xmlns="http://www.w3.org/2000/svg" xmlns:xlink="http://www.w3.org/1999/xlink">
<path d="M43.999,0L41.127,0C40.339,-0.003 39.558,0.152 38.83,0.453C38.102,0.755 37.441,1.198 36.885,1.758L19.831,18.8C16.617,17.701 13.125,17.724 9.926,18.864C6.726,20.004 4.006,22.193 2.21,25.076C0.413,27.959 -0.354,31.365 0.032,34.739C0.419,38.114 1.937,41.259 4.339,43.66C6.74,46.062 9.885,47.58 13.259,47.967C16.634,48.353 20.04,47.586 22.923,45.789C25.806,43.993 27.995,41.273 29.135,38.073C30.275,34.873 30.297,31.382 29.199,28.168L33.999,23.368L33.999,16L39.999,16L39.999,10L47.101,10C47.685,9.06 47.996,7.977 47.999,6.872L47.999,4C47.999,2.939 47.578,1.921 46.828,1.171C46.078,0.421 45.06,0 43.999,0L43.999,0ZM10.999,40C10.406,40 9.826,39.824 9.333,39.494C8.839,39.164 8.455,38.696 8.228,38.148C8.001,37.599 7.941,36.996 8.057,36.414C8.173,35.832 8.458,35.298 8.878,34.878C9.298,34.459 9.832,34.173 10.414,34.057C10.996,33.942 11.599,34.001 12.147,34.228C12.695,34.455 13.164,34.84 13.494,35.333C13.823,35.826 13.999,36.406 13.999,37C13.999,37.795 13.683,38.558 13.121,39.121C12.558,39.684 11.795,40 10.999,40Z" fill="#374957"/>
</svg>
