<svg width="44" height="24" viewBox="0 0 44 24" fill="none" xmlns="http://www.w3.org/2000/svg" xmlns:xlink="http://www.w3.org/1999/xlink">
<path d="M24,4C26.653,4.009 29.278,4.544 31.723,5.574C34.168,6.603 36.384,8.108 38.244,10L30,10L30,14L40.286,14C41.271,13.999 42.215,13.607 42.911,12.911C43.607,12.215 43.999,11.271 44,10.286L44,0L40,0L40,6.156C36.555,3.054 32.284,1.017 27.705,0.294C23.126,-0.43 18.435,0.19 14.201,2.079C9.967,3.968 6.372,7.044 3.852,10.935C1.331,14.826 -0.007,19.364 0,24L4,24C4.006,18.698 6.115,13.614 9.864,9.864C13.614,6.115 18.697,4.006 24,4L24,4Z" fill="#374957"/>
</svg>
