<svg width="48" height="48" viewBox="0 0 48 48" fill="none" xmlns="http://www.w3.org/2000/svg" xmlns:xlink="http://www.w3.org/1999/xlink">
<path d="M35.226,25.696L28.4,32.524C22.577,30.057 17.946,25.415 15.492,19.586L22.292,12.774L9.774,0.244L3.434,6.584C2.333,7.689 1.462,9.002 0.873,10.447C0.283,11.892 -0.013,13.44 0,15C0,29.496 18.504,48 33,48C34.56,48.013 36.107,47.717 37.551,47.128C38.996,46.54 40.309,45.67 41.414,44.57L47.756,38.226L35.226,25.696ZM38.584,41.742C37.849,42.469 36.977,43.043 36.019,43.431C35.06,43.818 34.034,44.012 33,44C20.534,44 4,27.468 4,15C3.988,13.966 4.182,12.94 4.57,11.981C4.958,11.022 5.532,10.15 6.26,9.416L9.774,5.902L16.646,12.774L10.778,18.646L11.27,19.872C12.712,23.731 14.966,27.235 17.88,30.146C20.795,33.057 24.302,35.307 28.162,36.744L29.374,37.208L35.226,31.352L42.1,38.226L38.584,41.742ZM44,16L40,16L40,0L44,0L44,16ZM36,16L32,16L32,0L36,0L36,16Z" fill="#374957"/>
</svg>
