<svg width="48" height="50" viewBox="0 0 48 50" fill="none" xmlns="http://www.w3.org/2000/svg" xmlns:xlink="http://www.w3.org/1999/xlink">
<path d="M28,44.001C23.745,43.995 19.603,42.636 16.173,40.119C12.743,37.602 10.203,34.058 8.922,30.001L32,30.001L32,26.001L8.102,26.001C7.966,24.671 7.966,23.331 8.102,22.001L32,22.001L32,18.001L8.922,18.001C10.002,14.566 11.989,11.487 14.674,9.088C17.358,6.689 20.641,5.059 24.175,4.37C27.709,3.681 31.363,3.959 34.752,5.174C38.141,6.39 41.139,8.497 43.43,11.275L46.514,8.727C43.699,5.315 39.996,2.749 35.813,1.311C31.631,-0.127 27.132,-0.38 22.815,0.58C18.498,1.54 14.53,3.675 11.351,6.75C8.171,9.824 5.904,13.718 4.8,18.001L0,18.001L0,22.001L4.102,22.001C4.046,22.663 4,23.325 4,24.001C4,24.677 4.046,25.339 4.102,26.001L0,26.001L0,30.001L4.8,30.001C5.903,34.286 8.17,38.182 11.35,41.258C14.53,44.334 18.499,46.471 22.819,47.431C27.138,48.391 31.638,48.137 35.822,46.697C40.006,45.258 43.71,42.689 46.524,39.275L43.44,36.727C41.565,39.006 39.207,40.84 36.537,42.098C33.867,43.356 30.951,44.006 28,44.001L28,44.001Z" fill="#374957"/>
</svg>
