<svg width="40" height="40" viewBox="0 0 40 40" fill="none" xmlns="http://www.w3.org/2000/svg" xmlns:xlink="http://www.w3.org/1999/xlink">
<path d="M27.85,22.78C29.481,20.356 30.435,17.439 30.435,14.304C30.435,5.913 23.608,-0.914 15.217,-0.914C6.826,-0.914 0,5.913 0,14.304C0,22.695 6.827,29.521 15.217,29.521C18.415,29.521 21.384,28.529 23.836,26.838L35.964,38.914L40,34.878L27.85,22.78ZM15.217,25.247C9.197,25.247 4.298,20.349 4.298,14.328C4.298,8.307 9.197,3.409 15.217,3.409C21.238,3.409 26.137,8.307 26.137,14.328C26.137,20.349 21.238,25.247 15.217,25.247Z" fill="#FFFFFF"/>
</svg>
