<svg width="48" height="48" viewBox="0 0 48 48" fill="none" xmlns="http://www.w3.org/2000/svg" xmlns:xlink="http://www.w3.org/1999/xlink">
<path d="M45.086,0.085L19.354,25.817C17.791,23.923 16.493,21.826 15.494,19.583L22.294,12.783L9.774,0.243L3.432,6.583C2.332,7.689 1.463,9.003 0.874,10.447C0.284,11.892 -0.012,13.439 0,14.999C0,21.481 3.582,28.999 9.65,35.521L0.086,45.085L2.914,47.913L47.914,2.913L45.086,0.085ZM4,14.999C3.989,13.965 4.182,12.938 4.57,11.979C4.958,11.02 5.533,10.148 6.26,9.413L9.774,5.899L16.648,12.773L10.778,18.643L11.268,19.871C12.53,23.063 14.304,26.028 16.522,28.647L12.472,32.699C7.138,26.931 4,20.463 4,14.999ZM35.226,25.695L47.756,38.225L41.414,44.567C40.309,45.668 38.996,46.538 37.552,47.127C36.107,47.716 34.56,48.013 33,47.999C27.67,47.999 21.4,45.387 15.566,40.911L18.418,38.059C23.4,41.779 28.712,43.999 33,43.999C34.034,44.011 35.061,43.818 36.019,43.43C36.978,43.042 37.85,42.467 38.584,41.739L42.1,38.225L35.226,31.351L29.374,37.199L28.162,36.737C26.203,35.989 24.326,35.041 22.562,33.907L25.476,30.999C26.418,31.567 27.395,32.075 28.4,32.519L35.226,25.695Z" fill="#374957"/>
</svg>
