<svg width="50" height="48" viewBox="0 0 50 48" fill="none" xmlns="http://www.w3.org/2000/svg" xmlns:xlink="http://www.w3.org/1999/xlink">
<path d="M32.6,28.014C33.163,28.576 33.926,28.892 34.721,28.892C35.516,28.892 36.279,28.576 36.842,28.014L46.294,18.564C47.392,17.464 48.008,15.973 48.008,14.419C48.008,12.864 47.392,11.374 46.294,10.274L36.832,0.824C36.559,0.522 36.228,0.279 35.858,0.109C35.488,-0.061 35.087,-0.154 34.68,-0.164C34.273,-0.174 33.869,-0.101 33.491,0.051C33.113,0.202 32.77,0.429 32.483,0.717C32.195,1.005 31.969,1.348 31.819,1.727C31.669,2.105 31.597,2.509 31.608,2.916C31.619,3.323 31.712,3.724 31.883,4.093C32.053,4.463 32.297,4.793 32.6,5.066L39.064,11.4L10.638,11.4C7.818,11.403 5.114,12.525 3.12,14.52C1.126,16.514 0.004,19.217 0,22.038L0,35.4C0.003,38.219 1.125,40.923 3.119,42.917C5.113,44.911 7.816,46.032 10.636,46.036L37.364,46.036C38.16,46.036 38.923,45.72 39.485,45.157C40.048,44.594 40.364,43.831 40.364,43.036C40.364,42.24 40.048,41.477 39.485,40.914C38.923,40.352 38.16,40.036 37.364,40.036L10.636,40.036C9.407,40.034 8.229,39.545 7.36,38.676C6.491,37.807 6.002,36.629 6,35.4L6,22.038C6.001,20.808 6.49,19.629 7.36,18.759C8.229,17.89 9.408,17.401 10.638,17.4L38.956,17.4L32.6,23.772C32.038,24.334 31.722,25.097 31.722,25.893C31.722,26.688 32.038,27.451 32.6,28.014L32.6,28.014Z" fill="#374957"/>
</svg>
