<svg width="48" height="48" viewBox="0 0 48 48" fill="none" xmlns="http://www.w3.org/2000/svg" xmlns:xlink="http://www.w3.org/1999/xlink">
<path d="M20.494,19.504L28.868,11.132L36.868,19.132L28.496,27.506L20.494,19.504ZM17.666,22.332L1.666,38.332C0.875,39.123 0.337,40.131 0.118,41.229C-0.1,42.326 0.012,43.463 0.44,44.497C0.868,45.531 1.593,46.414 2.524,47.036C3.454,47.658 4.547,47.99 5.666,47.99C6.409,47.992 7.146,47.847 7.832,47.562C8.519,47.278 9.142,46.859 9.666,46.332L25.666,30.332L17.666,22.332ZM37.334,34.6L40,39.924L42.666,34.6L48,31.924L42.666,29.256L40,23.924L37.334,29.256L32,31.924L37.334,34.6ZM13.334,10.676L16,16L18.666,10.666L24,8L18.666,5.334L16,0L13.334,5.334L8,8L13.334,10.676ZM38.666,9.344L41,14L43.334,9.334L48,7L43.334,4.666L41,0L38.666,4.666L34,7L38.666,9.344Z" fill="#374957"/>
</svg>
