<svg width="48" height="48" viewBox="0 0 48 48" fill="none" xmlns="http://www.w3.org/2000/svg" xmlns:xlink="http://www.w3.org/1999/xlink">
<path d="M48,22C48,20.409 47.368,18.883 46.243,17.757C45.117,16.632 43.591,16 42,16L34,16L34,6C34,4.409 33.368,2.883 32.243,1.757C31.117,0.632 29.591,0 28,0L20,0C18.409,0 16.883,0.632 15.757,1.757C14.632,2.883 14,4.409 14,6L14,16L6,16C4.409,16 2.883,16.632 1.757,17.757C0.632,18.883 0,20.409 0,22L0,44L4,44L4,48L8,48L8,44L40,44L40,48L44,48L44,44L48,44L48,22ZM18,6C18,5.47 18.211,4.961 18.586,4.586C18.961,4.211 19.47,4 20,4L28,4C28.53,4 29.039,4.211 29.414,4.586C29.789,4.961 30,5.47 30,6L30,16L18,16L18,6ZM34,28L14,28L14,24L34,24L34,28Z" fill="#374957"/>
</svg>
