<svg width="48" height="48" viewBox="0 0 48 48" fill="none" xmlns="http://www.w3.org/2000/svg" xmlns:xlink="http://www.w3.org/1999/xlink">
<path d="M42,0L6,0C4.409,0 2.883,0.632 1.757,1.757C0.632,2.883 0,4.409 0,6L0,48L8,48L8,34C8,32.409 8.632,30.883 9.757,29.757C10.883,28.632 12.409,28 14,28L34,28C35.591,28 37.117,28.632 38.243,29.757C39.368,30.883 40,32.409 40,34L40,48L48,48L48,6C48,4.409 47.368,2.883 46.243,1.757C45.117,0.632 43.591,0 42,0L42,0ZM24,24C22.022,24 20.089,23.414 18.444,22.315C16.8,21.216 15.518,19.654 14.761,17.827C14.004,16 13.806,13.989 14.192,12.049C14.578,10.109 15.53,8.327 16.929,6.929C18.327,5.53 20.109,4.578 22.049,4.192C23.989,3.806 26,4.004 27.827,4.761C29.654,5.518 31.216,6.8 32.315,8.444C33.414,10.089 34,12.022 34,14C33.997,16.651 32.942,19.193 31.068,21.068C29.193,22.942 26.651,23.997 24,24L24,24Z" fill="#374957"/>
</svg>
