<svg width="36" height="48" viewBox="0 0 36 48" fill="none" xmlns="http://www.w3.org/2000/svg" xmlns:xlink="http://www.w3.org/1999/xlink">
<path d="M5.737,31.166C3.628,29.217 2.019,26.789 1.046,24.088C0.074,21.386 -0.233,18.489 0.151,15.644C0.531,12.758 1.604,10.008 3.28,7.628C4.956,5.249 7.183,3.311 9.772,1.981C12.361,0.651 15.234,-0.031 18.144,-0.007C21.054,0.017 23.915,0.746 26.482,2.118C29.049,3.489 31.244,5.463 32.881,7.87C34.518,10.276 35.546,13.044 35.879,15.935C36.212,18.826 35.838,21.755 34.791,24.471C33.743,27.186 32.053,29.607 29.865,31.526C27.98,33.226 26.712,35.502 26.257,38L20.001,38L20.001,21.632C21.167,21.219 22.177,20.457 22.893,19.449C23.609,18.441 23.996,17.236 24.001,16L20.001,16C20.001,16.53 19.79,17.039 19.415,17.414C19.04,17.789 18.531,18 18.001,18C17.47,18 16.962,17.789 16.587,17.414C16.212,17.039 16.001,16.53 16.001,16L12.001,16C12.006,17.236 12.393,18.441 13.109,19.449C13.825,20.457 14.835,21.219 16.001,21.632L16.001,38L9.751,38C9.152,35.361 7.75,32.974 5.737,31.166L5.737,31.166ZM10.001,42L10.001,48L26.001,48L26.001,42L10.001,42Z" fill="#374957"/>
</svg>
