<svg width="48" height="48" viewBox="0 0 48 48" fill="none" xmlns="http://www.w3.org/2000/svg" xmlns:xlink="http://www.w3.org/1999/xlink">
<path d="M47.979,2C47.979,1.47 47.769,0.961 47.394,0.586C47.018,0.211 46.51,0 45.979,0L36.841,0C36.446,0 36.059,0.117 35.73,0.337C35.402,0.557 35.145,0.869 34.994,1.235C34.843,1.6 34.803,2.002 34.88,2.39C34.957,2.778 35.148,3.134 35.427,3.414L37.885,5.872L33.809,9.948C31.735,8.657 29.336,7.983 26.893,8.003C24.45,8.023 22.062,8.737 20.009,10.062C18.418,9.041 16.623,8.381 14.75,8.125C12.877,7.87 10.971,8.027 9.164,8.585C7.358,9.143 5.695,10.088 4.292,11.355C2.889,12.622 1.779,14.179 1.04,15.919C0.301,17.66 -0.049,19.54 0.014,21.429C0.077,23.319 0.552,25.172 1.405,26.859C2.258,28.546 3.469,30.026 4.953,31.197C6.438,32.367 8.16,33.2 9.999,33.636L9.999,36L7.999,36C7.204,36 6.441,36.316 5.878,36.879C5.315,37.441 4.999,38.204 4.999,39C4.999,39.796 5.315,40.559 5.878,41.121C6.441,41.684 7.204,42 7.999,42L9.999,42L9.999,45C9.999,45.796 10.315,46.559 10.878,47.121C11.441,47.684 12.204,48 12.999,48C13.795,48 14.558,47.684 15.121,47.121C15.683,46.559 15.999,45.796 15.999,45L15.999,42L17.999,42C18.795,42 19.558,41.684 20.121,41.121C20.683,40.559 20.999,39.796 20.999,39C20.999,38.204 20.683,37.441 20.121,36.879C19.558,36.316 18.795,36 17.999,36L15.999,36L15.999,33.618C17.418,33.287 18.77,32.719 19.999,31.938C22.475,33.528 25.417,34.23 28.344,33.928C31.271,33.626 34.008,32.338 36.107,30.276C38.206,28.214 39.541,25.5 39.894,22.579C40.248,19.657 39.598,16.703 38.051,14.2L42.127,10.124L44.585,12.582C44.866,12.862 45.223,13.053 45.613,13.13C46.002,13.207 46.405,13.166 46.771,13.013C47.137,12.86 47.449,12.601 47.668,12.27C47.887,11.939 48.002,11.551 47.999,11.154L47.979,2ZM5.999,21C5.995,19.844 6.278,18.704 6.823,17.685C7.368,16.665 8.158,15.797 9.122,15.158C10.086,14.52 11.194,14.131 12.346,14.028C13.497,13.924 14.657,14.108 15.719,14.564C14.593,16.522 13.999,18.741 13.999,21C13.999,23.259 14.593,25.478 15.719,27.436C14.657,27.892 13.497,28.076 12.346,27.972C11.194,27.869 10.086,27.48 9.122,26.842C8.158,26.203 7.368,25.335 6.823,24.315C6.278,23.296 5.995,22.156 5.999,21L5.999,21ZM26.999,28C25.615,28 24.261,27.589 23.11,26.82C21.959,26.051 21.062,24.958 20.532,23.679C20.002,22.4 19.864,20.992 20.134,19.634C20.404,18.276 21.071,17.029 22.05,16.05C23.029,15.071 24.276,14.405 25.634,14.135C26.992,13.864 28.399,14.003 29.678,14.533C30.957,15.063 32.05,15.96 32.82,17.111C33.589,18.262 33.999,19.616 33.999,21C33.999,22.857 33.262,24.637 31.949,25.95C30.636,27.263 28.856,28 26.999,28L26.999,28Z" fill="#374957"/>
</svg>
