<svg width="48" height="44" viewBox="0 0 48 44" fill="none" xmlns="http://www.w3.org/2000/svg" xmlns:xlink="http://www.w3.org/1999/xlink">
<path d="M48,35.999L48,5.999C48,4.407 47.368,2.881 46.243,1.756C45.117,0.631 43.591,-0.001 42,-0.001L6,-0.001C4.409,-0.001 2.883,0.631 1.757,1.756C0.632,2.881 0,4.407 0,5.999L0,35.999L22,35.999L22,39.999L12,39.999L12,43.999L36,43.999L36,39.999L26,39.999L26,35.999L48,35.999ZM18.07,19.999L6,19.999L6,15.999L15.93,15.999L21.248,8.023L27.248,20.023L29.93,15.999L42,15.999L42,19.999L32.07,19.999L26.752,27.975L20.752,15.975L18.07,19.999Z" fill="#374957"/>
</svg>
