<svg width="48" height="48" viewBox="0 0 48 48" fill="none" xmlns="http://www.w3.org/2000/svg" xmlns:xlink="http://www.w3.org/1999/xlink">
<path d="M24,0C19.253,0 14.613,1.408 10.666,4.045C6.72,6.682 3.643,10.43 1.827,14.816C0.01,19.201 -0.465,24.027 0.461,28.682C1.387,33.338 3.673,37.614 7.029,40.971C10.386,44.327 14.662,46.613 19.318,47.539C23.973,48.465 28.799,47.99 33.184,46.173C37.57,44.357 41.318,41.28 43.955,37.334C46.592,33.387 48,28.747 48,24C47.993,17.637 45.462,11.536 40.963,7.037C36.464,2.538 30.363,0.007 24,0L24,0ZM38.462,34.672C37.578,33.797 36.806,32.815 36.166,31.748C36.867,31.45 37.428,30.896 37.734,30.199C38.039,29.501 38.068,28.714 37.812,27.996C37.557,27.279 37.038,26.686 36.36,26.339C35.682,25.992 34.897,25.916 34.166,26.128C34.061,25.423 34.006,24.712 34,24C34.005,23.285 34.062,22.571 34.168,21.864C34.437,21.949 34.718,21.995 35,22C35.686,21.992 36.348,21.748 36.876,21.311C37.404,20.874 37.767,20.269 37.903,19.597C38.039,18.925 37.941,18.226 37.625,17.618C37.309,17.009 36.794,16.527 36.166,16.252C36.806,15.185 37.578,14.203 38.462,13.328C40.759,16.412 42,20.155 42,24C42,27.845 40.759,31.588 38.462,34.672L38.462,34.672ZM9.538,13.328C10.422,14.203 11.194,15.185 11.834,16.252C11.206,16.527 10.691,17.009 10.375,17.618C10.059,18.226 9.961,18.925 10.097,19.597C10.233,20.269 10.596,20.874 11.124,21.311C11.652,21.748 12.314,21.992 13,22C13.282,21.995 13.563,21.949 13.832,21.864C13.939,22.571 13.995,23.285 14,24C13.994,24.712 13.939,25.423 13.834,26.128C13.103,25.916 12.318,25.992 11.64,26.339C10.962,26.686 10.443,27.279 10.188,27.996C9.932,28.714 9.961,29.501 10.267,30.199C10.573,30.896 11.133,31.45 11.834,31.748C11.194,32.815 10.422,33.797 9.538,34.672C7.241,31.588 6,27.845 6,24C6,20.155 7.241,16.412 9.538,13.328L9.538,13.328ZM13.84,38.846C15.356,37.335 16.629,35.599 17.616,33.7L18.05,33.846C18.424,33.971 18.818,34.021 19.211,33.993C19.604,33.965 19.988,33.86 20.341,33.684C20.693,33.508 21.008,33.264 21.266,32.967C21.524,32.669 21.721,32.324 21.846,31.95C21.971,31.576 22.021,31.182 21.993,30.789C21.965,30.396 21.86,30.012 21.684,29.659C21.508,29.307 21.264,28.992 20.967,28.734C20.669,28.476 20.324,28.279 19.95,28.154L19.586,28.034C19.852,26.706 19.991,25.355 20,24C19.991,22.645 19.852,21.294 19.586,19.966L19.95,19.846C20.705,19.594 21.329,19.053 21.684,18.341C22.04,17.629 22.098,16.805 21.846,16.05C21.594,15.295 21.053,14.671 20.341,14.316C19.629,13.96 18.805,13.902 18.05,14.154L17.616,14.3C16.629,12.401 15.356,10.665 13.84,9.154C16.83,7.1 20.372,6 24,6C27.628,6 31.17,7.1 34.16,9.154C32.644,10.665 31.371,12.401 30.384,14.3L29.95,14.154C29.195,13.902 28.371,13.96 27.659,14.316C26.947,14.671 26.406,15.295 26.154,16.05C25.902,16.805 25.96,17.629 26.316,18.341C26.671,19.053 27.295,19.594 28.05,19.846L28.414,19.966C28.148,21.294 28.009,22.645 28,24C28.009,25.355 28.148,26.706 28.414,28.034L28.05,28.154C27.295,28.406 26.671,28.947 26.316,29.659C25.96,30.371 25.902,31.195 26.154,31.95C26.406,32.705 26.947,33.329 27.659,33.684C28.371,34.04 29.195,34.098 29.95,33.846L30.384,33.7C31.371,35.599 32.644,37.335 34.16,38.846C31.17,40.9 27.628,42 24,42C20.372,42 16.83,40.9 13.84,38.846L13.84,38.846Z" fill="#374957"/>
</svg>
