<svg width="36" height="48" viewBox="0 0 36 48" fill="none" xmlns="http://www.w3.org/2000/svg" xmlns:xlink="http://www.w3.org/1999/xlink">
<path d="M36,48L0,48L0,42C0.12,38.541 0.974,35.148 2.505,32.044C4.037,28.941 6.211,26.199 8.884,24C6.211,21.801 4.037,19.059 2.505,15.956C0.974,12.852 0.12,9.459 0,6C0,4.409 0.632,2.883 1.757,1.757C2.883,0.632 4.409,0 6,0L30,0C31.591,0 33.117,0.632 34.243,1.757C35.368,2.883 36,4.409 36,6C35.882,9.456 35.032,12.847 33.506,15.95C31.981,19.052 29.814,21.796 27.15,24C29.814,26.204 31.981,28.948 33.506,32.05C35.032,35.153 35.882,38.544 36,42L36,48ZM4,44L32,44L32,42C32,34.452 27,28.896 22.816,25.566L20.848,24L22.816,22.434C27,19.104 32,13.548 32,6C32,5.47 31.789,4.961 31.414,4.586C31.039,4.211 30.53,4 30,4L6,4C5.47,4 4.961,4.211 4.586,4.586C4.211,4.961 4,5.47 4,6C4,13.548 9.016,19.102 13.224,22.432L15.2,24L13.218,25.568C9.016,28.898 4,34.452 4,42L4,44ZM18.036,31.964C19.513,33.122 20.821,34.48 21.922,36L14.136,36L18.036,31.964ZM18.028,27.026C14.754,29.172 9.17,33.686 8.16,40L27.844,40C26.844,33.632 21.268,29.14 18.028,27.026L18.028,27.026Z" fill="#374957"/>
</svg>
