<svg width="48" height="48" viewBox="0 0 48 48" fill="none" xmlns="http://www.w3.org/2000/svg" xmlns:xlink="http://www.w3.org/1999/xlink">
<path d="M36.902,31.9C35.444,31.896 33.999,32.181 32.652,32.74C31.305,33.298 30.082,34.118 29.054,35.152C24.448,39.76 17.97,42 9.254,42L7.054,42C6.844,42.002 6.639,41.941 6.464,41.825C6.29,41.71 6.154,41.544 6.074,41.351C5.995,41.157 5.975,40.944 6.018,40.739C6.06,40.533 6.163,40.346 6.314,40.2L10.928,35.6L33.834,29.492C36.176,28.866 38.247,27.483 39.723,25.56C41.2,23.636 42,21.279 42,18.854L42,11C41.996,8.084 40.836,5.288 38.774,3.226C36.712,1.164 33.916,0.004 31,0L23.146,0C20.723,0.002 18.368,0.803 16.446,2.279C14.525,3.756 13.144,5.825 12.518,8.166L6.21,31.82L2.07,35.964C1.084,36.95 0.414,38.207 0.142,39.574C-0.13,40.942 0.01,42.359 0.544,43.647C1.077,44.935 1.981,46.036 3.14,46.811C4.299,47.586 5.662,47.999 7.056,48L9.256,48C19.5,48 27.59,45.106 33.298,39.4C34.01,38.688 34.918,38.202 35.907,38.006C36.895,37.809 37.919,37.91 38.851,38.295C39.782,38.68 40.578,39.333 41.138,40.17C41.699,41.008 41.999,41.992 42,43L42,45C42,45.796 42.316,46.559 42.878,47.121C43.441,47.684 44.204,48 45,48C45.795,48 46.558,47.684 47.121,47.121C47.684,46.559 48,45.796 48,45L48,43C47.997,40.057 46.827,37.236 44.746,35.155C42.666,33.074 39.845,31.903 36.902,31.9L36.902,31.9ZM18.314,9.712C18.538,8.882 18.972,8.124 19.576,7.512L27.4,14.876L34.658,7.616C35.517,8.533 35.997,9.743 36,11L36,18.854C35.997,19.984 35.612,21.079 34.908,21.962L27.4,14.876L13.322,28.742L13.234,28.766L18.314,9.712Z" fill="#374957"/>
</svg>
