<svg width="46" height="48" viewBox="0 0 46 48" fill="none" xmlns="http://www.w3.org/2000/svg" xmlns:xlink="http://www.w3.org/1999/xlink">
<path d="M15,44.873C14.366,44.874 13.748,44.673 13.235,44.3C12.722,43.927 12.341,43.402 12.145,42.798C11.95,42.195 11.951,41.546 12.147,40.943C12.344,40.34 12.726,39.815 13.24,39.443C18.264,35.803 18.97,29.081 18.996,22.985C19,22.191 19.318,21.431 19.881,20.872C20.444,20.312 21.206,19.998 22,19.999L22.012,19.999C22.406,20.001 22.796,20.08 23.16,20.233C23.523,20.385 23.853,20.607 24.131,20.887C24.408,21.167 24.628,21.499 24.777,21.864C24.926,22.229 25.002,22.619 25,23.013C24.98,27.613 24.934,38.385 16.76,44.301C16.249,44.674 15.633,44.875 15,44.873L15,44.873ZM27.056,46.861C28.682,44.836 30.018,42.593 31.026,40.199C31.337,39.467 31.345,38.641 31.047,37.902C30.749,37.164 30.171,36.575 29.438,36.263C28.705,35.952 27.879,35.944 27.141,36.242C26.403,36.54 25.813,37.119 25.502,37.851C24.717,39.731 23.673,41.493 22.4,43.083C21.899,43.702 21.664,44.494 21.747,45.285C21.83,46.076 22.224,46.802 22.842,47.303C23.46,47.804 24.252,48.039 25.044,47.956C25.835,47.873 26.561,47.48 27.062,46.861L27.056,46.861ZM33.872,27.185C34,25.143 34,23.325 34,21.999C34,20.079 33.54,18.187 32.658,16.482C31.775,14.777 30.497,13.308 28.929,12.2C27.362,11.091 25.551,10.375 23.649,10.111C21.747,9.847 19.81,10.043 18,10.683C17.623,10.81 17.274,11.01 16.975,11.273C16.676,11.535 16.432,11.855 16.257,12.213C16.083,12.571 15.981,12.96 15.959,13.357C15.936,13.755 15.993,14.153 16.125,14.528C16.258,14.903 16.464,15.248 16.732,15.543C16.999,15.838 17.322,16.077 17.683,16.245C18.044,16.414 18.434,16.509 18.832,16.525C19.23,16.541 19.627,16.478 20,16.339C20.905,16.019 21.874,15.921 22.825,16.053C23.776,16.185 24.682,16.544 25.465,17.098C26.249,17.653 26.888,18.387 27.33,19.24C27.771,20.093 28.001,21.039 28,21.999C28,23.317 28,24.957 27.884,26.813C27.859,27.207 27.912,27.602 28.039,27.976C28.167,28.349 28.367,28.693 28.628,28.989C28.889,29.285 29.206,29.527 29.56,29.7C29.915,29.874 30.3,29.975 30.694,29.999C30.755,29.999 30.817,29.999 30.88,29.999C31.643,29.999 32.378,29.708 32.934,29.185C33.491,28.663 33.827,27.947 33.874,27.185L33.872,27.185ZM7.382,37.911C8.685,37.759 9.942,37.338 11.074,36.675C15.956,33.745 15.98,27.541 16,23.011C16.002,22.617 15.925,22.227 15.776,21.862C15.627,21.497 15.407,21.166 15.129,20.886C14.851,20.606 14.521,20.384 14.158,20.232C13.794,20.08 13.404,20.001 13.01,19.999L13,19.999C12.206,19.999 11.445,20.314 10.883,20.874C10.321,21.434 10.003,22.194 10,22.987C9.982,27.757 9.656,30.531 8,31.529C7.576,31.763 7.109,31.91 6.628,31.961C5.872,32.058 5.181,32.438 4.695,33.025C4.209,33.613 3.965,34.363 4.012,35.124C4.06,35.885 4.395,36.599 4.95,37.121C5.505,37.644 6.238,37.936 7,37.937C7.128,37.937 7.255,37.929 7.382,37.911L7.382,37.911ZM39.438,46.255C42.7,38.597 44.256,30.32 44,21.999C44.003,19.223 43.477,16.471 42.452,13.891C42.158,13.152 41.583,12.56 40.852,12.244C40.121,11.929 39.295,11.917 38.556,12.211C37.817,12.505 37.224,13.081 36.909,13.811C36.594,14.542 36.582,15.368 36.876,16.107C37.622,17.982 38.003,19.982 38,21.999C38.243,29.452 36.874,36.868 33.988,43.743C33.655,44.466 33.623,45.292 33.898,46.038C34.173,46.785 34.734,47.391 35.457,47.724C36.18,48.057 37.005,48.09 37.752,47.814C38.498,47.539 39.105,46.978 39.438,46.255L39.438,46.255ZM6,24.999L6,21.999C6,19.232 6.718,16.513 8.084,14.106C9.449,11.699 11.415,9.688 13.791,8.268C16.166,6.848 18.868,6.068 21.635,6.005C24.401,5.942 27.137,6.597 29.574,7.907C30.273,8.271 31.086,8.345 31.839,8.114C32.592,7.883 33.224,7.365 33.598,6.672C33.972,5.979 34.059,5.167 33.84,4.411C33.621,3.654 33.113,3.015 32.426,2.629C29.075,0.826 25.313,-0.078 21.508,0.007C17.703,0.093 13.985,1.163 10.718,3.115C7.45,5.067 4.745,7.833 2.867,11.143C0.988,14.453 0,18.193 0,21.999L0,24.999C0,25.795 0.316,26.558 0.879,27.121C1.441,27.683 2.204,27.999 3,27.999C3.796,27.999 4.559,27.683 5.121,27.121C5.684,26.558 6,25.795 6,24.999L6,24.999Z" fill="#374957"/>
</svg>
