<svg width="48" height="48" viewBox="0 0 48 48" fill="none" xmlns="http://www.w3.org/2000/svg" xmlns:xlink="http://www.w3.org/1999/xlink">
<path d="M27,38L11,38C8.084,37.997 5.288,36.837 3.225,34.775C1.163,32.712 0.003,29.916 0,27L0,11C0.003,8.084 1.163,5.288 3.225,3.225C5.288,1.163 8.084,0.003 11,0L27,0C29.916,0.003 32.712,1.163 34.775,3.225C36.837,5.288 37.997,8.084 38,11L38,27C37.997,29.916 36.837,32.712 34.775,34.775C32.712,36.837 29.916,37.997 27,38L27,38ZM11,6C9.674,6 8.402,6.527 7.464,7.464C6.527,8.402 6,9.674 6,11L6,27C6,28.326 6.527,29.598 7.464,30.536C8.402,31.473 9.674,32 11,32L27,32C28.326,32 29.598,31.473 30.536,30.536C31.473,29.598 32,28.326 32,27L32,11C32,9.674 31.473,8.402 30.536,7.464C29.598,6.527 28.326,6 27,6L11,6ZM48,37L48,14C48,13.204 47.684,12.441 47.121,11.879C46.559,11.316 45.796,11 45,11C44.204,11 43.441,11.316 42.879,11.879C42.316,12.441 42,13.204 42,14L42,37C42,38.326 41.473,39.598 40.536,40.536C39.598,41.473 38.326,42 37,42L14,42C13.204,42 12.441,42.316 11.879,42.879C11.316,43.441 11,44.204 11,45C11,45.796 11.316,46.559 11.879,47.121C12.441,47.684 13.204,48 14,48L37,48C39.916,47.997 42.712,46.837 44.775,44.775C46.837,42.712 47.997,39.916 48,37Z" fill="#374957"/>
</svg>
