<svg width="48" height="40" viewBox="0 0 48 40" fill="none" xmlns="http://www.w3.org/2000/svg" xmlns:xlink="http://www.w3.org/1999/xlink">
<path d="M42.001,20.848L42.001,18C42.001,13.226 40.105,8.647 36.729,5.272C33.354,1.896 28.775,0 24.001,0C19.227,0 14.649,1.896 11.273,5.272C7.898,8.647 6.001,13.226 6.001,18L6.001,20.848C3.904,21.771 2.187,23.388 1.139,25.426C0.09,27.464 -0.226,29.8 0.242,32.044C0.711,34.288 1.936,36.302 3.713,37.751C5.489,39.199 7.709,39.993 10.001,40L14.001,40L14.001,20L10.001,20L10.001,18C10.001,14.286 11.476,10.726 14.102,8.1C16.727,5.475 20.288,4 24.001,4C27.714,4 31.275,5.475 33.901,8.1C36.526,10.726 38.001,14.286 38.001,18L38.001,20L34.001,20L34.001,40L38.001,40C40.293,39.993 42.513,39.199 44.29,37.751C46.066,36.302 47.292,34.288 47.76,32.044C48.229,29.8 47.912,27.464 46.864,25.426C45.816,23.388 44.099,21.771 42.001,20.848L42.001,20.848ZM10.001,36C8.41,36 6.884,35.367 5.759,34.242C4.634,33.117 4.001,31.591 4.001,30C4.001,28.408 4.634,26.882 5.759,25.757C6.884,24.632 8.41,24 10.001,24L10.001,36ZM38.001,36L38.001,24C39.593,24 41.119,24.632 42.244,25.757C43.369,26.882 44.001,28.408 44.001,30C44.001,31.591 43.369,33.117 42.244,34.242C41.119,35.367 39.593,36 38.001,36Z" fill="#374957"/>
</svg>
