<svg width="48" height="48" viewBox="0 0 48 48" fill="none" xmlns="http://www.w3.org/2000/svg" xmlns:xlink="http://www.w3.org/1999/xlink">
<path d="M31.999,31C31.999,31.593 31.824,32.173 31.494,32.667C31.164,33.16 30.696,33.544 30.148,33.771C29.599,33.999 28.996,34.058 28.414,33.942C27.832,33.826 27.298,33.541 26.878,33.121C26.459,32.702 26.173,32.167 26.057,31.585C25.941,31.003 26.001,30.4 26.228,29.852C26.455,29.304 26.839,28.835 27.333,28.505C27.826,28.176 28.406,28 28.999,28C29.795,28 30.558,28.316 31.121,28.878C31.683,29.441 31.999,30.204 31.999,31L31.999,31ZM33.999,31C33.999,31.593 34.175,32.173 34.505,32.667C34.835,33.16 35.303,33.544 35.851,33.771C36.4,33.999 37.003,34.058 37.585,33.942C38.167,33.826 38.701,33.541 39.121,33.121C39.54,32.702 39.826,32.167 39.942,31.585C40.058,31.003 39.998,30.4 39.771,29.852C39.544,29.304 39.16,28.835 38.666,28.505C38.173,28.176 37.593,28 36.999,28C36.204,28 35.441,28.316 34.878,28.878C34.316,29.441 33.999,30.204 33.999,31L33.999,31ZM35.999,25C35.999,24.406 35.824,23.826 35.494,23.333C35.164,22.84 34.696,22.455 34.148,22.228C33.599,22.001 32.996,21.942 32.414,22.057C31.832,22.173 31.298,22.459 30.878,22.878C30.459,23.298 30.173,23.833 30.057,24.415C29.941,24.996 30.001,25.6 30.228,26.148C30.455,26.696 30.839,27.165 31.333,27.494C31.826,27.824 32.406,28 32.999,28C33.795,28 34.558,27.684 35.121,27.121C35.683,26.559 35.999,25.795 35.999,25L35.999,25ZM47.999,31C48.004,34.134 47.141,37.208 45.505,39.882C43.87,42.556 41.526,44.725 38.734,46.148C35.941,47.572 32.809,48.194 29.685,47.947C26.56,47.7 23.565,46.593 21.031,44.748C20.263,45.752 19.275,46.567 18.143,47.13C17.012,47.694 15.766,47.991 14.502,48L9.502,48C7.871,47.987 6.28,47.5 4.922,46.596C3.565,45.693 2.5,44.413 1.86,42.914C0.597,39.954 -0.037,36.764 0,33.546C0.207,29.709 1.47,26.004 3.65,22.84C4.896,21.113 5.703,19.109 6,17C5.736,15.391 5.37,13.8 4.904,12.238C4.443,10.864 4.14,9.442 4,8C3.95,6.936 4.123,5.874 4.508,4.881C4.893,3.888 5.48,2.986 6.233,2.233C6.986,1.481 7.888,0.893 8.881,0.508C9.874,0.124 10.936,-0.049 12,0C13.063,-0.049 14.125,0.124 15.118,0.508C16.111,0.893 17.013,1.481 17.766,2.233C18.519,2.986 19.106,3.888 19.491,4.881C19.876,5.874 20.049,6.936 19.999,8C19.859,9.442 19.556,10.864 19.096,12.238C18.629,13.8 18.263,15.391 18,17C18.035,17.829 18.228,18.643 18.57,19.4C20.898,16.905 23.923,15.168 27.252,14.415C30.58,13.663 34.058,13.93 37.233,15.181C40.408,16.433 43.133,18.611 45.053,21.432C46.973,24.253 48,27.587 47.999,31L47.999,31ZM10,8C10.04,8.234 10.42,9.648 10.698,10.678C11.042,11.962 11.322,13.044 11.542,14L12.458,14C12.678,13.044 12.958,11.962 13.302,10.678C13.58,9.648 13.96,8.234 14,7.844C14,6.58 13.42,6 12,6C10.58,6 10,6.58 10,8ZM16.644,40.51C17.573,38.307 18.035,35.936 18,33.546C17.751,30.77 16.768,28.11 15.154,25.838C14.002,24.015 13.087,22.054 12.432,20L11.568,20C10.912,22.054 9.997,24.015 8.846,25.838C7.231,28.11 6.248,30.77 6,33.546C5.964,35.935 6.426,38.306 7.356,40.508C7.526,40.94 7.82,41.312 8.201,41.577C8.582,41.843 9.033,41.99 9.498,42L14.498,42C14.962,41.99 15.414,41.844 15.796,41.579C16.177,41.314 16.472,40.942 16.644,40.51L16.644,40.51ZM41.999,31C42.004,28.608 41.227,26.281 39.788,24.371C38.349,22.461 36.326,21.073 34.026,20.418C31.726,19.763 29.275,19.876 27.046,20.741C24.816,21.606 22.93,23.175 21.673,25.21C23.133,27.751 23.932,30.617 23.999,33.546C23.997,35.362 23.796,37.173 23.399,38.946C24.955,40.44 26.915,41.443 29.036,41.831C31.157,42.218 33.345,41.973 35.328,41.126C37.311,40.279 39.001,38.867 40.187,37.067C41.374,35.266 42.004,33.156 41.999,31L41.999,31Z" fill="#374957"/>
</svg>
