<svg width="40" height="48" viewBox="0 0 40 48" fill="none" xmlns="http://www.w3.org/2000/svg" xmlns:xlink="http://www.w3.org/1999/xlink">
<path d="M37.954,22.54C37.497,17.002 34.997,11.832 30.939,8.035C26.881,4.239 21.556,2.087 16,2L16,0L6,0C4.409,0 2.883,0.632 1.757,1.757C0.632,2.883 0,4.409 0,6L0,42C0,43.591 0.632,45.117 1.757,46.243C2.883,47.368 4.409,48 6,48L16,48L16,46C19.009,45.995 21.985,45.375 24.746,44.179C27.506,42.982 29.993,41.234 32.054,39.042C34.124,36.848 35.717,34.249 36.733,31.409C37.748,28.569 38.164,25.549 37.954,22.54L37.954,22.54ZM29.134,36.306C27.457,38.111 25.424,39.55 23.164,40.53C20.903,41.51 18.464,42.01 16,42L12,42L12,44L6,44C5.47,44 4.961,43.789 4.586,43.414C4.211,43.039 4,42.53 4,42L4,38L8,38L8,34L4,34L4,30L8,30L8,26L4,26L4,22L8,22L8,18L4,18L4,14L8,14L8,10L4,10L4,6C4,5.47 4.211,4.961 4.586,4.586C4.961,4.211 5.47,4 6,4L12,4L12,6L15.314,6C19.971,5.92 24.485,7.61 27.946,10.727C31.406,13.845 33.556,18.16 33.96,22.8C34.133,25.263 33.794,27.734 32.963,30.059C32.132,32.384 30.829,34.511 29.134,36.306L29.134,36.306ZM16,14L12,14L12,34L16,34C18.652,34 21.196,32.946 23.071,31.071C24.946,29.196 26,26.652 26,24C26,21.348 24.946,18.804 23.071,16.929C21.196,15.054 18.652,14 16,14L16,14ZM16,30L16,18C17.591,18 19.117,18.632 20.243,19.757C21.368,20.883 22,22.409 22,24C22,25.591 21.368,27.117 20.243,28.243C19.117,29.368 17.591,30 16,30L16,30Z" fill="#374957"/>
</svg>
