<svg width="48" height="48" viewBox="0 0 48 48" fill="none" xmlns="http://www.w3.org/2000/svg" xmlns:xlink="http://www.w3.org/1999/xlink">
<path d="M24,33.838L32.368,48L15.632,48L24,33.838ZM47.184,39.2L24,-0.026L0.816,39.2C0.291,40.085 0.01,41.094 0.001,42.123C-0.008,43.152 0.256,44.165 0.766,45.059C1.276,45.953 2.013,46.696 2.904,47.213C3.794,47.729 4.805,48.001 5.834,48L10.984,48L24,25.974L37.016,48L42.166,48C43.195,48.001 44.206,47.729 45.096,47.213C45.986,46.696 46.723,45.953 47.233,45.059C47.743,44.165 48.007,43.152 47.998,42.123C47.99,41.094 47.709,40.085 47.184,39.2L47.184,39.2Z" fill="#374957"/>
</svg>
