<svg width="48" height="48" viewBox="0 0 48 48" fill="none" xmlns="http://www.w3.org/2000/svg" xmlns:xlink="http://www.w3.org/1999/xlink">
<path d="M48,31L48,37C47.997,39.916 46.837,42.712 44.775,44.775C42.712,46.837 39.916,47.997 37,48L11,48C8.084,47.997 5.288,46.837 3.225,44.775C1.163,42.712 0.003,39.916 0,37L0,17C0.003,14.084 1.163,11.288 3.225,9.225C5.288,7.163 8.084,6.003 11,6L15,6C15.796,6 16.559,6.316 17.121,6.879C17.684,7.441 18,8.204 18,9C18,9.796 17.684,10.559 17.121,11.121C16.559,11.684 15.796,12 15,12L11,12C10.093,12.003 9.204,12.253 8.428,12.724C7.653,13.195 7.021,13.868 6.6,14.672L20.462,28.536C21.238,29.289 22.233,29.777 23.304,29.928C24.375,30.079 25.466,29.886 26.42,29.376C27.116,28.99 27.937,28.896 28.702,29.116C29.467,29.335 30.113,29.849 30.499,30.545C30.885,31.241 30.979,32.062 30.759,32.827C30.54,33.592 30.026,34.238 29.33,34.624C27.239,35.774 24.831,36.216 22.468,35.884C20.105,35.551 17.913,34.462 16.22,32.78L6,22.556L6,37C6,38.326 6.527,39.598 7.464,40.536C8.402,41.473 9.674,42 11,42L37,42C38.326,42 39.598,41.473 40.536,40.536C41.473,39.598 42,38.326 42,37L42,31C42,30.204 42.316,29.441 42.879,28.879C43.441,28.316 44.204,28 45,28C45.796,28 46.559,28.316 47.121,28.879C47.684,29.441 48,30.204 48,31L48,31ZM22,13C22.004,9.553 23.375,6.249 25.812,3.812C28.249,1.375 31.553,0.004 35,0C52.2,0.61 52.2,25.4 35,26C31.553,25.996 28.249,24.625 25.812,22.188C23.375,19.751 22.004,16.447 22,13L22,13ZM42,13C41.992,12.205 41.847,11.418 41.572,10.672L32.672,19.572C33.725,19.943 34.852,20.057 35.959,19.905C37.065,19.752 38.119,19.336 39.032,18.693C39.945,18.05 40.691,17.197 41.207,16.207C41.723,15.216 41.995,14.117 42,13L42,13ZM28,13C28.008,13.795 28.153,14.582 28.428,15.328L37.328,6.428C36.275,6.057 35.148,5.943 34.041,6.095C32.935,6.248 31.881,6.664 30.968,7.307C30.055,7.95 29.309,8.803 28.793,9.793C28.277,10.784 28.005,11.883 28,13L28,13Z" fill="#374957"/>
</svg>
