<svg width="40" height="48" viewBox="0 0 40 48" fill="none" xmlns="http://www.w3.org/2000/svg" xmlns:xlink="http://www.w3.org/1999/xlink">
<path d="M-0.001,0L-0.001,42C-0.001,43.591 0.631,45.117 1.756,46.243C2.882,47.368 4.408,48 5.999,48L33.999,48C35.59,48 37.116,47.368 38.242,46.243C39.367,45.117 39.999,43.591 39.999,42L39.999,0L-0.001,0ZM35.999,4L35.999,34L3.999,34L3.999,4L35.999,4ZM33.999,44L5.999,44C5.469,44 4.96,43.789 4.585,43.414C4.21,43.039 3.999,42.53 3.999,42L3.999,38L17.999,38L17.999,42L21.999,42L21.999,38L35.999,38L35.999,42C35.999,42.53 35.788,43.039 35.413,43.414C35.038,43.789 34.529,44 33.999,44Z" fill="#374957"/>
</svg>
