<svg width="48" height="18" viewBox="0 0 48 18" fill="none" xmlns="http://www.w3.org/2000/svg" xmlns:xlink="http://www.w3.org/1999/xlink">
<path d="M14,-0.001C12.226,-0.001 10.502,0.588 9.1,1.674C7.697,2.76 6.695,4.281 6.252,5.999L0,5.999L0,9.999L6.252,9.999C6.694,11.718 7.695,13.241 9.098,14.329C10.5,15.417 12.225,16.007 14,16.007C15.775,16.007 17.5,15.417 18.902,14.329C20.305,13.241 21.306,11.718 21.748,9.999L48,9.999L48,5.999L21.748,5.999C21.305,4.281 20.303,2.76 18.9,1.674C17.498,0.588 15.774,-0.001 14,-0.001L14,-0.001Z" fill="#374957"/>
</svg>
