<svg width="48" height="48" viewBox="0 0 48 48" fill="none" xmlns="http://www.w3.org/2000/svg" xmlns:xlink="http://www.w3.org/1999/xlink">
<path d="M29.92,12.278C28.126,10.809 25.879,10.004 23.56,10L17.542,10L14.906,0L2.058,0L4.694,10L0,10L0,14L23.56,14C24.956,14.004 26.307,14.489 27.386,15.374C30.211,17.753 32.515,20.69 34.154,24L29.4,24L23.4,28L0,28L0,32L24.6,32L30.6,28L43.882,28C43.385,32.397 41.288,36.458 37.99,39.408C34.693,42.359 30.425,43.993 26,44L0,44L0,48L26,48C31.833,47.993 37.424,45.673 41.549,41.549C45.673,37.424 47.993,31.833 48,26L48,24L38.574,24C36.647,19.469 33.682,15.454 29.92,12.278L29.92,12.278ZM7.25,4L11.824,4L13.4,10L8.83,10L7.25,4ZM24,22L0,22L0,18L24,18L24,22ZM6,40C5.604,40 5.218,39.883 4.889,39.663C4.56,39.443 4.304,39.131 4.152,38.765C4.001,38.4 3.961,37.998 4.038,37.61C4.116,37.222 4.306,36.865 4.586,36.586C4.865,36.306 5.222,36.116 5.61,36.038C5.998,35.961 6.4,36.001 6.765,36.152C7.131,36.304 7.443,36.56 7.663,36.889C7.883,37.218 8,37.604 8,38C8,38.53 7.789,39.039 7.414,39.414C7.039,39.789 6.53,40 6,40ZM14,40C13.604,40 13.218,39.883 12.889,39.663C12.56,39.443 12.304,39.131 12.152,38.765C12.001,38.4 11.961,37.998 12.038,37.61C12.116,37.222 12.306,36.865 12.586,36.586C12.865,36.306 13.222,36.116 13.61,36.038C13.998,35.961 14.4,36.001 14.765,36.152C15.131,36.304 15.443,36.56 15.663,36.889C15.883,37.218 16,37.604 16,38C16,38.53 15.789,39.039 15.414,39.414C15.039,39.789 14.53,40 14,40ZM22,40C21.604,40 21.218,39.883 20.889,39.663C20.56,39.443 20.304,39.131 20.152,38.765C20.001,38.4 19.961,37.998 20.038,37.61C20.116,37.222 20.306,36.865 20.586,36.586C20.865,36.306 21.222,36.116 21.61,36.038C21.998,35.961 22.4,36.001 22.765,36.152C23.131,36.304 23.443,36.56 23.663,36.889C23.883,37.218 24,37.604 24,38C24,38.53 23.789,39.039 23.414,39.414C23.039,39.789 22.53,40 22,40Z" fill="#374957"/>
</svg>
