<svg width="28" height="48" viewBox="0 0 28 48" fill="none" xmlns="http://www.w3.org/2000/svg" xmlns:xlink="http://www.w3.org/1999/xlink">
<path d="M8,14.001L8,7.239C8,6.496 8.207,5.768 8.598,5.136C8.988,4.504 9.547,3.993 10.212,3.661L17.106,0.215C17.411,0.063 17.749,-0.009 18.089,0.006C18.43,0.021 18.761,0.123 19.05,0.302C19.34,0.481 19.58,0.731 19.746,1.028C19.912,1.325 19.999,1.66 20,2.001L20,14.001L8,14.001ZM28,28.001L0,28.001L0,48.001L28,48.001L28,28.001ZM24,18.001L4,18.001L4,24.001L24,24.001L24,18.001Z" fill="#374957"/>
</svg>
