<svg width="48" height="48" viewBox="0 0 48 48" fill="none" xmlns="http://www.w3.org/2000/svg" xmlns:xlink="http://www.w3.org/1999/xlink">
<path d="M24,47.999C22.597,48.002 21.208,47.727 19.912,47.191C18.615,46.656 17.438,45.869 16.446,44.877L3.13,31.553C2.138,30.561 1.351,29.383 0.814,28.087C0.276,26.791 0,25.402 0,23.999C0,22.596 0.276,21.206 0.814,19.91C1.351,18.614 2.138,17.436 3.13,16.445L16.446,3.127C18.452,1.127 21.168,0.004 24,0.004C26.832,0.004 29.549,1.127 31.554,3.127L44.87,16.445C45.863,17.436 46.65,18.614 47.187,19.91C47.724,21.206 48,22.596 48,23.999C48,25.402 47.724,26.791 47.187,28.087C46.65,29.383 45.863,30.561 44.87,31.553L31.554,44.871C30.563,45.864 29.386,46.652 28.089,47.189C26.793,47.725 25.403,48.001 24,47.999L24,47.999ZM20.688,40.633C21.567,41.51 22.758,42.002 24,42.002C25.242,42.002 26.433,41.51 27.312,40.633L40.628,27.317C41.507,26.438 42,25.247 42,24.005C42,22.763 41.507,21.571 40.628,20.693L27.312,7.371C26.433,6.494 25.242,6.001 24,6.001C22.758,6.001 21.567,6.494 20.688,7.371L7.372,20.687C6.494,21.565 6,22.757 6,23.999C6,25.241 6.494,26.432 7.372,27.311L20.688,40.633Z" fill="#374957"/>
</svg>
