<svg width="50" height="48" viewBox="0 0 50 48" fill="none" xmlns="http://www.w3.org/2000/svg" xmlns:xlink="http://www.w3.org/1999/xlink">
<path d="M42.001,20L35.387,20L26.893,3.126C26.377,2.18 25.615,1.39 24.688,0.84C23.761,0.29 22.703,0 21.625,0L14.261,0L20.061,20L12.801,20L8.201,15.41C7.681,14.89 7.048,14.497 6.352,14.261C5.655,14.024 4.914,13.951 4.185,14.047C3.455,14.142 2.758,14.404 2.146,14.812C1.534,15.22 1.024,15.764 0.655,16.4C0.228,17.127 0.001,17.954 -0.002,18.798C-0.005,19.641 0.217,20.47 0.639,21.2L6.815,32L20.039,32L14.039,48L21.625,48C22.685,48.006 23.726,47.729 24.642,47.197C25.559,46.665 26.316,45.897 26.835,44.974L34.929,32L48.001,32L48.001,26C48.001,24.409 47.369,22.883 46.244,21.757C45.119,20.632 43.593,20 42.001,20ZM19.585,4L21.625,4C21.974,3.997 22.317,4.086 22.621,4.259C22.924,4.431 23.176,4.681 23.351,4.982L30.911,20L24.221,20L19.585,4ZM44.001,28L32.709,28L23.381,42.958C23.209,43.273 22.955,43.537 22.646,43.72C22.337,43.903 21.985,44 21.625,44L19.801,44L25.801,28L9.135,28L4.111,19.2C4.041,19.078 4.004,18.939 4.004,18.798C4.005,18.656 4.042,18.518 4.114,18.396C4.185,18.274 4.287,18.173 4.41,18.104C4.533,18.034 4.672,17.998 4.813,18C4.919,18 5.024,18.02 5.122,18.061C5.22,18.101 5.309,18.161 5.383,18.236L11.147,24L42.001,24C42.532,24 43.041,24.211 43.416,24.586C43.791,24.961 44.001,25.47 44.001,26L44.001,28Z" fill="#374957"/>
</svg>
