<svg width="48" height="50" viewBox="0 0 48 50" fill="none" xmlns="http://www.w3.org/2000/svg" xmlns:xlink="http://www.w3.org/1999/xlink">
<path d="M24,24C25.582,24 27.129,23.531 28.445,22.652C29.76,21.773 30.786,20.523 31.391,19.062C31.997,17.6 32.155,15.991 31.846,14.439C31.538,12.888 30.776,11.462 29.657,10.343C28.538,9.225 27.113,8.463 25.561,8.154C24.009,7.845 22.4,8.004 20.939,8.609C19.477,9.215 18.227,10.24 17.348,11.556C16.469,12.871 16,14.418 16,16C16,18.122 16.843,20.157 18.343,21.657C19.843,23.157 21.878,24 24,24ZM24,12C24.791,12 25.564,12.235 26.222,12.674C26.88,13.114 27.393,13.739 27.696,14.469C27.998,15.2 28.077,16.005 27.923,16.781C27.769,17.556 27.388,18.269 26.828,18.829C26.269,19.388 25.556,19.769 24.78,19.923C24.004,20.078 23.2,19.998 22.469,19.696C21.738,19.393 21.114,18.88 20.674,18.222C20.235,17.565 20,16.791 20,16C20,14.939 20.421,13.922 21.172,13.172C21.922,12.422 22.939,12 24,12ZM32,44.06L48,47.956L48,26.966C48,25.678 47.585,24.424 46.816,23.39C46.048,22.356 44.967,21.597 43.734,21.224L39.534,19.824C39.841,18.577 39.998,17.297 40,16.012C40,11.769 38.314,7.699 35.314,4.699C32.313,1.698 28.243,0.012 24,0.012C19.757,0.012 15.687,1.698 12.686,4.699C9.686,7.699 8,11.769 8,16.012C8.006,16.824 8.073,17.634 8.2,18.436C7.292,18.074 6.309,17.94 5.337,18.046C4.364,18.152 3.433,18.494 2.624,19.043C1.815,19.592 1.153,20.331 0.695,21.195C0.238,22.059 -0.001,23.022 0,24L0,43.504L15.966,48.066L32,44.06ZM15.514,7.528C17.768,5.306 20.81,4.064 23.976,4.074C27.141,4.084 30.175,5.344 32.416,7.581C34.656,9.817 35.922,12.848 35.938,16.014C35.954,19.18 34.718,22.224 32.5,24.482L24,32.8L15.514,24.498C13.264,22.248 12,19.196 12,16.013C12,12.831 13.264,9.779 15.514,7.528L15.514,7.528ZM4,24C3.997,23.67 4.078,23.345 4.234,23.054C4.39,22.764 4.616,22.517 4.892,22.336C5.181,22.147 5.514,22.035 5.858,22.011C6.203,21.987 6.548,22.052 6.86,22.2L9.728,23.236C10.495,24.756 11.499,26.144 12.702,27.348L24,38.4L35.314,27.334C36.427,26.223 37.37,24.955 38.114,23.57L42.548,25.052C42.966,25.172 43.333,25.424 43.595,25.771C43.856,26.117 43.998,26.54 43.998,26.974L43.998,42.872L32,39.94L16.04,43.94L4,40.492L4,24Z" fill="#374957"/>
</svg>
