<svg width="48" height="48" viewBox="0 0 48 48" fill="none" xmlns="http://www.w3.org/2000/svg" xmlns:xlink="http://www.w3.org/1999/xlink">
<path d="M47.964,6L0.036,6C0.025,4.803 0.373,3.63 1.036,2.634C1.586,1.823 2.326,1.159 3.191,0.7C4.056,0.241 5.021,0 6,0L42,0C42.982,-0.001 43.948,0.238 44.816,0.698C45.683,1.157 46.424,1.822 46.974,2.634C47.634,3.632 47.979,4.804 47.964,6ZM22,23.924L22,44L12,44L12,48L36,48L36,44L26,44L26,23.924C30.377,23.618 34.596,22.172 38.24,19.729C41.884,17.286 44.825,13.932 46.77,10L1.23,10C3.176,13.932 6.117,17.286 9.761,19.729C13.404,22.172 17.624,23.618 22,23.924L22,23.924Z" fill="#374957"/>
</svg>
