<svg width="48" height="48" viewBox="0 0 48 48" fill="none" xmlns="http://www.w3.org/2000/svg" xmlns:xlink="http://www.w3.org/1999/xlink">
<path d="M44.586,4.586L38,11.172L38,38L32,38L32,6C32,4.409 31.368,2.883 30.243,1.757C29.117,0.632 27.591,0 26,0L6,0C4.409,0 2.883,0.632 1.757,1.757C0.632,2.883 0,4.409 0,6L0,48L32,48L32,42L42,42L42,12.828L47.414,7.414L44.586,4.586ZM6,4L26,4C26.53,4 27.039,4.211 27.414,4.586C27.789,4.961 28,5.47 28,6L28,18L24,18C23.992,16.086 23.292,14.239 22.03,12.8L25.414,9.414L22.586,6.586L18.678,10.494C17.474,10.048 16.179,9.901 14.906,10.066C13.632,10.231 12.417,10.703 11.367,11.441C10.316,12.18 9.461,13.163 8.874,14.305C8.288,15.448 7.988,16.716 8,18L4,18L4,6C4,5.47 4.211,4.961 4.586,4.586C4.961,4.211 5.47,4 6,4L6,4ZM20,18L12,18C12,16.939 12.421,15.922 13.172,15.172C13.922,14.421 14.939,14 16,14C17.061,14 18.078,14.421 18.828,15.172C19.579,15.922 20,16.939 20,18L20,18ZM4,44L4,22L28,22L28,44L4,44Z" fill="#374957"/>
</svg>
