<svg width="48" height="48" viewBox="0 0 48 48" fill="none" xmlns="http://www.w3.org/2000/svg" xmlns:xlink="http://www.w3.org/1999/xlink">
<path d="M45.522,22L32,22L32,8L34.1,8C35.647,8.002 37.161,8.451 38.459,9.294C39.756,10.137 40.782,11.337 41.412,12.75L45.522,22ZM48,30.124L48,38L0,38L0,14C0,12.409 0.632,10.883 1.757,9.758C2.883,8.632 4.409,8 6,8L20,8L21.514,1.94C21.652,1.385 21.972,0.893 22.423,0.541C22.873,0.189 23.428,-0.002 24,-0.002C24.572,-0.002 25.127,0.189 25.577,0.541C26.028,0.893 26.348,1.385 26.486,1.94L28,8L28,26L47.254,26C47.745,27.32 47.997,28.716 48,30.124L48,30.124ZM20,22L16,22L16,18L12,18L12,22L8,22L8,26L12,26L12,30L16,30L16,26L20,26L20,22ZM6.116,42C6.043,42.329 6.004,42.664 6,43C6,44.326 6.527,45.598 7.464,46.536C8.402,47.473 9.674,48 11,48C12.326,48 13.598,47.473 14.536,46.536C15.473,45.598 16,44.326 16,43C15.996,42.664 15.957,42.329 15.884,42L6.116,42ZM34.116,42C34.043,42.329 34.004,42.664 34,43C34,44.326 34.527,45.598 35.464,46.536C36.402,47.473 37.674,48 39,48C40.326,48 41.598,47.473 42.536,46.536C43.473,45.598 44,44.326 44,43C43.996,42.664 43.957,42.329 43.884,42L34.116,42Z" fill="#374957"/>
</svg>
