<svg width="48" height="46" viewBox="0 0 48 46" fill="none" xmlns="http://www.w3.org/2000/svg" xmlns:xlink="http://www.w3.org/1999/xlink">
<path d="M48,6C48,4.409 47.368,2.883 46.243,1.757C45.117,0.632 43.591,0 42,0L6,0C4.409,0 2.883,0.632 1.757,1.757C0.632,2.883 0,4.409 0,6L0,12C0.005,13.481 0.561,14.907 1.56,16C0.561,17.093 0.005,18.519 0,20L0,26C0.005,27.481 0.561,28.907 1.56,30C0.561,31.093 0.005,32.519 0,34L0,46L48,46L48,34C47.995,32.519 47.439,31.093 46.44,30C47.439,28.907 47.995,27.481 48,26L48,20C47.995,18.519 47.439,17.093 46.44,16C47.439,14.907 47.995,13.481 48,12L48,6ZM4,6C4,5.47 4.211,4.961 4.586,4.586C4.961,4.211 5.47,4 6,4L10,4L10,8L14,8L14,4L18,4L18,8L22,8L22,4L42,4C42.53,4 43.039,4.211 43.414,4.586C43.789,4.961 44,5.47 44,6L44,12C44,12.53 43.789,13.039 43.414,13.414C43.039,13.789 42.53,14 42,14L6,14C5.47,14 4.961,13.789 4.586,13.414C4.211,13.039 4,12.53 4,12L4,6ZM44,20L44,26C44,26.53 43.789,27.039 43.414,27.414C43.039,27.789 42.53,28 42,28L6,28C5.47,28 4.961,27.789 4.586,27.414C4.211,27.039 4,26.53 4,26L4,20C4,19.47 4.211,18.961 4.586,18.586C4.961,18.211 5.47,18 6,18L10,18L10,22L14,22L14,18L18,18L18,22L22,22L22,18L42,18C42.53,18 43.039,18.211 43.414,18.586C43.789,18.961 44,19.47 44,20ZM44,42L4,42L4,34C4,33.47 4.211,32.961 4.586,32.586C4.961,32.211 5.47,32 6,32L10,32L10,36L14,36L14,32L18,32L18,36L22,36L22,32L42,32C42.53,32 43.039,32.211 43.414,32.586C43.789,32.961 44,33.47 44,34L44,42Z" fill="#374957"/>
</svg>
