<svg width="48" height="48" viewBox="0 0 48 48" fill="none" xmlns="http://www.w3.org/2000/svg" xmlns:xlink="http://www.w3.org/1999/xlink">
<path d="M33,34C31.612,34.002 30.256,34.416 29.104,35.19C27.952,35.964 27.056,37.063 26.53,38.348C24.875,37.884 23.125,37.884 21.47,38.348C20.832,36.8 19.658,35.533 18.164,34.777C16.67,34.021 14.954,33.827 13.329,34.23C11.704,34.633 10.277,35.606 9.309,36.972C8.341,38.338 7.895,40.006 8.053,41.673C8.212,43.34 8.963,44.895 10.171,46.054C11.379,47.214 12.963,47.901 14.635,47.991C16.307,48.08 17.956,47.567 19.281,46.543C20.607,45.52 21.52,44.054 21.856,42.414C22.545,42.165 23.268,42.026 24,42C24.732,42.025 25.455,42.165 26.144,42.414C26.411,43.711 27.041,44.905 27.96,45.858C28.879,46.811 30.049,47.484 31.335,47.799C32.621,48.114 33.969,48.058 35.225,47.637C36.48,47.216 37.59,46.448 38.426,45.422C39.263,44.395 39.791,43.153 39.949,41.839C40.108,40.524 39.891,39.192 39.322,37.996C38.754,36.8 37.859,35.79 36.74,35.083C35.621,34.376 34.324,34 33,34L33,34ZM15,44C14.407,44 13.827,43.824 13.333,43.494C12.84,43.165 12.455,42.696 12.228,42.148C12.001,41.6 11.942,40.997 12.058,40.415C12.173,39.833 12.459,39.298 12.879,38.879C13.298,38.459 13.833,38.173 14.415,38.058C14.997,37.942 15.6,38.001 16.148,38.228C16.696,38.455 17.165,38.84 17.494,39.333C17.824,39.827 18,40.407 18,41C18,41.796 17.684,42.559 17.121,43.121C16.559,43.684 15.796,44 15,44L15,44ZM33,44C32.407,44 31.827,43.824 31.333,43.494C30.84,43.165 30.455,42.696 30.228,42.148C30.001,41.6 29.942,40.997 30.058,40.415C30.173,39.833 30.459,39.298 30.879,38.879C31.298,38.459 31.833,38.173 32.415,38.058C32.997,37.942 33.6,38.001 34.148,38.228C34.696,38.455 35.165,38.84 35.494,39.333C35.824,39.827 36,40.407 36,41C36,41.796 35.684,42.559 35.121,43.121C34.559,43.684 33.796,44 33,44ZM39.954,17.8C39.27,0.22 30.4,0 30,0C27.749,0.1 25.613,1.026 24,2.6C22.387,1.025 20.252,0.1 18,0C17.6,0 8.73,0.22 8.046,17.8C2.726,19.238 0,21.314 0,24C0,30.314 15.086,32 24,32C32.914,32 48,30.314 48,24C48,21.314 45.274,19.238 39.954,17.8ZM17.978,4C18.876,4.067 19.74,4.37 20.483,4.878C21.226,5.386 21.822,6.082 22.21,6.894L24,10.472L25.8,6.894C26.182,6.095 26.764,5.409 27.489,4.902C28.215,4.395 29.059,4.084 29.94,4C29.998,4 35.634,4.544 35.982,18.616C32.076,19.652 28.04,20.118 24,20C19.959,20.115 15.923,19.648 12.016,18.612C12.366,4.542 18,4 17.978,4ZM24,28C11.912,28 4.546,25.342 3.988,24.084C4.118,23.756 5.32,22.684 8.93,21.702L9.106,21.79C9.286,21.878 13.646,24 24,24C34.354,24 38.712,21.878 38.894,21.79L39.07,21.702C40.875,22.021 42.573,22.782 44.012,23.916C43.454,25.342 36.088,28 24,28Z" fill="#374957"/>
</svg>
