<svg width="48" height="48" viewBox="0 0 48 48" fill="none" xmlns="http://www.w3.org/2000/svg" xmlns:xlink="http://www.w3.org/1999/xlink">
<path d="M45.826,0.098C44.714,0.15 18.524,1.44 9.724,10.24C6.256,13.718 4.2,18.357 3.952,23.262C3.704,28.167 5.282,32.99 8.382,36.8L0,45.182L2.83,48L11.21,39.632C15.02,42.732 19.843,44.311 24.749,44.063C29.655,43.815 34.295,41.757 37.772,38.288C46.748,29.314 47.872,3.288 47.914,2.176L48,0L45.826,0.098ZM34.944,35.46C32.217,38.18 28.593,39.814 24.749,40.057C20.906,40.301 17.105,39.137 14.056,36.784L33.33,17.51L30.502,14.682L11.228,33.956C8.875,30.907 7.711,27.106 7.955,23.263C8.198,19.419 9.832,15.795 12.552,13.068C18.91,6.71 37.366,4.744 43.782,4.244C43.314,10.63 41.432,28.972 34.944,35.46Z" fill="#374957"/>
</svg>
