<svg width="36" height="48" viewBox="0 0 36 48" fill="none" xmlns="http://www.w3.org/2000/svg" xmlns:xlink="http://www.w3.org/1999/xlink">
<path d="M16.382,26C16.508,25.476 16.676,24.964 16.886,24.468L18.036,22.082L19.114,24.466C19.324,24.963 19.492,25.476 19.618,26L16.382,26ZM36,14L36,48L0,48L0,6C0,4.409 0.632,2.883 1.757,1.757C2.883,0.632 4.409,0 6,0L22,0L22,14L36,14ZM17.92,38.912L15.08,36.096L11.354,39.858C11.263,39.95 11.139,40.003 11.01,40.006C10.88,40.008 10.755,39.96 10.66,39.872L8.928,38.104L6.072,40.904L7.818,42.686C8.663,43.529 9.809,44.003 11.003,44.003C12.197,44.003 13.343,43.529 14.188,42.686L17.92,38.912ZM20,30L20,32L24,32L24,28.6C24.002,26.611 23.579,24.645 22.758,22.834L21.714,20.528C21.421,19.791 20.915,19.158 20.261,18.709C19.607,18.26 18.834,18.016 18.041,18.007C17.248,17.999 16.47,18.226 15.806,18.661C15.143,19.095 14.623,19.718 14.314,20.448L13.236,22.836C12.417,24.647 11.996,26.612 12,28.6L12,32L16,32L16,30L20,30ZM30,38L22,38L22,42L30,42L30,38ZM35.57,10L26,10L26,0.438C27.192,0.817 28.278,1.469 29.172,2.344L33.656,6.828C34.535,7.72 35.191,8.807 35.57,10L35.57,10Z" fill="#374957"/>
</svg>
