<svg width="48" height="48" viewBox="0 0 48 48" fill="none" xmlns="http://www.w3.org/2000/svg" xmlns:xlink="http://www.w3.org/1999/xlink">
<path d="M24,48C17.635,48 11.53,45.471 7.029,40.971C2.529,36.47 0,30.365 0,24C0,17.635 2.529,11.53 7.029,7.029C11.53,2.529 17.635,0 24,0C24.774,0 25.538,0.042 26.292,0.114L27.94,0.268L28.096,1.916C28.541,6.536 30.58,10.857 33.862,14.138C37.143,17.42 41.464,19.459 46.084,19.904L47.732,20.06L47.886,21.708C47.958,22.462 48,23.226 48,24C47.993,30.363 45.462,36.464 40.963,40.963C36.464,45.462 30.363,47.993 24,48ZM24,4C20.044,4 16.178,5.173 12.889,7.371C9.6,9.568 7.036,12.692 5.522,16.346C4.009,20.001 3.613,24.022 4.384,27.902C5.156,31.781 7.061,35.345 9.858,38.142C12.655,40.939 16.219,42.844 20.098,43.616C23.978,44.387 27.999,43.991 31.654,42.478C35.308,40.964 38.432,38.4 40.629,35.111C42.827,31.822 44,27.956 44,24C44,23.886 44,23.774 44,23.66C39.088,22.827 34.558,20.487 31.035,16.965C27.513,13.442 25.173,8.912 24.34,4L24,4Z" fill="#374957"/>
</svg>
