<svg width="48" height="48" viewBox="0 0 48 48" fill="none" xmlns="http://www.w3.org/2000/svg" xmlns:xlink="http://www.w3.org/1999/xlink">
<path d="M26,22.001C26,22.792 25.766,23.565 25.326,24.223C24.887,24.881 24.262,25.393 23.531,25.696C22.8,25.999 21.996,26.078 21.22,25.924C20.444,25.769 19.731,25.389 19.172,24.829C18.612,24.27 18.231,23.557 18.077,22.781C17.923,22.005 18.002,21.201 18.305,20.47C18.607,19.739 19.12,19.114 19.778,18.675C20.436,18.235 21.209,18.001 22,18.001C23.061,18.001 24.079,18.422 24.829,19.172C25.579,19.922 26,20.94 26,22.001ZM48,25.577L48,30.001L43.34,30.001L42.442,36.789C42.248,38.229 41.538,39.551 40.445,40.509C39.352,41.468 37.948,41.997 36.494,42.001L32,42.001L32,48.001L6,48.001L6,38.583C6,37.66 5.676,36.767 5.086,36.059C2.583,33.048 0.929,29.424 0.294,25.56C-0.341,21.696 0.067,17.733 1.476,14.08C2.884,10.426 5.242,7.215 8.306,4.777C11.37,2.34 15.03,0.764 18.906,0.213C22.813,-0.358 26.802,0.142 30.447,1.662C34.092,3.181 37.256,5.661 39.6,8.839C42.423,13.032 44.753,17.537 46.544,22.265C46.972,23.245 48,25.577 48,25.577ZM29.678,19.879L33.4,17.733L31.4,14.269L27.7,16.401C26.681,15.374 25.402,14.642 24,14.285L24,10.001L20,10.001L20,14.285C18.598,14.642 17.319,15.374 16.3,16.401L12.6,14.269L10.6,17.733L14.322,19.879C14.119,20.568 14.011,21.282 14,22.001C14.011,22.719 14.119,23.433 14.322,24.123L10.6,26.269L12.6,29.733L16.3,27.601C17.319,28.628 18.598,29.359 20,29.717L20,34.001L24,34.001L24,29.717C25.402,29.359 26.681,28.628 27.7,27.601L31.4,29.733L33.4,26.269L29.686,24.123C29.887,23.433 29.992,22.719 30,22.001C29.99,21.282 29.881,20.568 29.678,19.879L29.678,19.879Z" fill="#374957"/>
</svg>
