<svg width="48" height="48" viewBox="0 0 48 48" fill="none" xmlns="http://www.w3.org/2000/svg" xmlns:xlink="http://www.w3.org/1999/xlink">
<path d="M24,0C19.253,0 14.613,1.408 10.666,4.045C6.72,6.682 3.643,10.43 1.827,14.816C0.01,19.201 -0.465,24.027 0.461,28.682C1.387,33.338 3.673,37.614 7.029,40.971C10.386,44.327 14.662,46.613 19.318,47.539C23.973,48.465 28.799,47.99 33.184,46.173C37.57,44.357 41.318,41.28 43.955,37.334C46.592,33.387 48,28.747 48,24C47.993,17.637 45.462,11.536 40.963,7.037C36.464,2.538 30.363,0.007 24,0L24,0ZM21.336,30.906L24,28.242L34.414,38.656C31.951,40.415 29.082,41.521 26.076,41.87C25.454,37.872 23.822,34.098 21.336,30.906L21.336,30.906ZM26.664,17.094L24,19.758L13.588,9.344C16.049,7.585 18.917,6.479 21.922,6.13C22.546,10.128 24.178,13.901 26.664,17.094L26.664,17.094ZM19.758,24L17.094,26.664C13.901,24.178 10.128,22.546 6.13,21.922C6.478,18.917 7.584,16.049 9.344,13.588L19.758,24ZM28.242,24L30.906,21.336C34.099,23.822 37.872,25.454 41.87,26.078C41.521,29.084 40.415,31.952 38.656,34.414L28.242,24ZM41.514,19.916C38.244,19.155 35.253,17.493 32.879,15.119C30.506,12.745 28.844,9.754 28.084,6.484C31.35,7.253 34.337,8.917 36.71,11.29C39.082,13.662 40.746,16.65 41.514,19.916L41.514,19.916ZM6.486,28.084C9.755,28.845 12.746,30.506 15.12,32.88C17.494,35.254 19.155,38.245 19.916,41.514C16.65,40.746 13.663,39.083 11.29,36.71C8.918,34.337 7.254,31.35 6.486,28.084L6.486,28.084Z" fill="#374957"/>
</svg>
