<svg width="28" height="48" viewBox="0 0 28 48" fill="none" xmlns="http://www.w3.org/2000/svg" xmlns:xlink="http://www.w3.org/1999/xlink">
<path d="M24,26.001L24,18.001L22,18.001L22,4.001C22,3.319 21.825,2.649 21.493,2.053C21.161,1.458 20.682,0.957 20.102,0.599C19.522,0.24 18.86,0.036 18.179,0.006C17.497,-0.024 16.82,0.12 16.21,0.425L9.316,3.873C8.317,4.368 7.477,5.133 6.891,6.082C6.305,7.03 5.996,8.124 6,9.239L6,18.001L4,18.001L4,26.001L0,26.001L0,48.001L28,48.001L28,26.001L24,26.001ZM10,9.239C10,8.867 10.104,8.504 10.299,8.188C10.494,7.872 10.774,7.617 11.106,7.451L18,4.001L18,18.001L10,18.001L10,9.239ZM8,22.001L20,22.001L20,26.001L8,26.001L8,22.001ZM24,44.001L4,44.001L4,30.001L24,30.001L24,44.001Z" fill="#374957"/>
</svg>
