<svg width="48" height="48" viewBox="0 0 48 48" fill="none" xmlns="http://www.w3.org/2000/svg" xmlns:xlink="http://www.w3.org/1999/xlink">
<path d="M48,45.178L35.5,32.678C42.49,24.13 41.226,11.534 32.678,4.545C24.13,-2.444 11.534,-1.181 4.545,7.368C-2.444,15.916 -1.181,28.511 7.368,35.501C14.73,41.521 25.315,41.521 32.678,35.501L45.178,48L48,45.178ZM20.055,36.024C11.235,36.024 4.086,28.874 4.086,20.055C4.086,11.235 11.235,4.086 20.055,4.086C28.874,4.086 36.023,11.235 36.023,20.055C36.014,28.87 28.87,36.014 20.055,36.024ZM23.997,12.07C22.544,12.053 21.135,12.569 20.037,13.522C18.916,12.566 17.486,12.051 16.013,12.07C12.598,12.188 9.921,15.043 10.024,18.458C10.024,23.931 17.947,29.694 18.851,30.333L20.005,31.149L21.157,30.333C22.061,29.694 29.985,23.931 29.985,18.458C30.087,15.043 27.411,12.189 23.997,12.07ZM20.005,26.205C17.21,23.985 14.017,20.602 14.017,18.458C13.917,17.249 14.805,16.183 16.013,16.063C17.071,15.992 17.986,16.793 18.056,17.851C18.061,17.92 18.062,17.99 18.059,18.059L22.051,18.059C21.957,17.052 22.697,16.16 23.703,16.066C23.801,16.057 23.899,16.056 23.997,16.063C25.204,16.184 26.092,17.249 25.993,18.458C25.993,20.602 22.791,23.985 20.005,26.205Z" fill="#374957"/>
</svg>
