<svg width="50" height="48" viewBox="0 0 50 48" fill="none" xmlns="http://www.w3.org/2000/svg" xmlns:xlink="http://www.w3.org/1999/xlink">
<path d="M40.34,3.999L29.8,0.485C27.019,-0.355 24.02,-0.067 21.45,1.288C18.881,2.643 16.949,4.956 16.072,7.725L16,7.999L11,7.999C8.084,8.003 5.288,9.163 3.225,11.225C1.163,13.287 0.003,16.083 0,18.999L0,36.999C0.003,39.916 1.163,42.712 3.225,44.774C5.288,46.836 8.084,47.996 11,47.999L21,47.999C22.636,47.999 24.252,47.633 25.729,46.928C27.206,46.223 28.506,45.197 29.536,43.925C32.112,44.266 34.724,43.676 36.904,42.262C39.083,40.847 40.687,38.702 41.426,36.211L47.6,17.599C48.407,14.833 48.099,11.862 46.742,9.32C45.385,6.778 43.087,4.868 40.34,3.999L40.34,3.999ZM26,36.999C26,38.325 25.473,39.597 24.536,40.535C23.598,41.473 22.326,41.999 21,41.999L11,41.999C9.674,41.999 8.402,41.473 7.464,40.535C6.527,39.597 6,38.325 6,36.999L6,18.999C6,17.673 6.527,16.402 7.464,15.464C8.402,14.526 9.674,13.999 11,13.999L21,13.999C22.326,13.999 23.598,14.526 24.536,15.464C25.473,16.402 26,17.673 26,18.999L26,36.999ZM41.872,15.799L35.7,34.421C35.446,35.283 34.964,36.06 34.305,36.67C33.646,37.28 32.835,37.701 31.956,37.887C31.978,37.593 32,37.299 32,36.999L32,18.999C31.997,16.348 31.036,13.786 29.294,11.786C27.552,9.787 25.146,8.484 22.52,8.117C23.115,7.268 23.961,6.627 24.939,6.283C25.917,5.939 26.978,5.91 27.974,6.199L38.51,9.713C39.75,10.093 40.795,10.941 41.422,12.076C42.049,13.212 42.211,14.547 41.872,15.799L41.872,15.799ZM24,25.999C24,28.899 20.912,32.781 18.572,34.755C17.853,35.364 16.942,35.697 16,35.697C15.058,35.697 14.147,35.364 13.428,34.755C11.088,32.781 8,28.899 8,25.999C8,24.938 8.421,23.921 9.172,23.171C9.922,22.421 10.939,21.999 12,21.999C13.061,21.999 14.078,22.421 14.828,23.171C15.579,23.921 16,24.938 16,25.999C16,24.938 16.421,23.921 17.172,23.171C17.922,22.421 18.939,21.999 20,21.999C21.061,21.999 22.078,22.421 22.828,23.171C23.579,23.921 24,24.938 24,25.999L24,25.999Z" fill="#374957"/>
</svg>
