<svg width="48" height="48" viewBox="0 0 48 48" fill="none" xmlns="http://www.w3.org/2000/svg" xmlns:xlink="http://www.w3.org/1999/xlink">
<path d="M48,24C48,28.747 46.592,33.387 43.955,37.334C41.318,41.28 37.57,44.357 33.184,46.173C28.799,47.99 23.973,48.465 19.318,47.539C14.662,46.613 10.386,44.327 7.029,40.971C3.673,37.614 1.387,33.338 0.461,28.682C-0.465,24.027 0.01,19.201 1.827,14.816C3.643,10.43 6.72,6.682 10.666,4.045C14.613,1.408 19.253,0 24,0C30.363,0.007 36.464,2.538 40.963,7.037C45.462,11.536 47.993,17.637 48,24ZM26,28.514C25.975,27.818 26.134,27.128 26.46,26.513C26.787,25.897 27.269,25.379 27.86,25.01C29.096,24.329 30.13,23.334 30.857,22.124C31.584,20.915 31.978,19.535 31.999,18.124C32.02,16.713 31.668,15.322 30.978,14.091C30.288,12.86 29.285,11.834 28.071,11.116C26.856,10.398 25.473,10.014 24.062,10.003C22.651,9.992 21.262,10.355 20.037,11.054C18.811,11.753 17.792,12.763 17.083,13.983C16.374,15.203 16.001,16.589 16,18L20,18C19.999,17.412 20.129,16.83 20.379,16.298C20.629,15.765 20.993,15.294 21.446,14.918C21.899,14.542 22.429,14.271 22.999,14.124C23.569,13.977 24.164,13.957 24.742,14.066C25.532,14.219 26.259,14.605 26.829,15.173C27.398,15.741 27.786,16.466 27.942,17.256C28.099,18.085 27.991,18.942 27.632,19.705C27.272,20.469 26.681,21.099 25.942,21.506C24.718,22.215 23.707,23.239 23.014,24.472C22.321,25.704 21.97,27.1 22,28.514L22,30L26,30L26,28.514ZM26,34L22,34L22,38L26,38L26,34Z" fill="#374957"/>
</svg>
