<svg width="48" height="50" viewBox="0 0 48 50" fill="none" xmlns="http://www.w3.org/2000/svg" xmlns:xlink="http://www.w3.org/1999/xlink">
<path d="M46.719,19.6C47.517,18.577 47.964,17.324 47.993,16.027C48.023,14.73 47.634,13.458 46.883,12.4L39.821,2.514C39.266,1.737 38.534,1.103 37.684,0.666C36.835,0.228 35.894,0 34.939,0L13.063,0C12.108,0 11.167,0.228 10.317,0.666C9.468,1.103 8.736,1.737 8.181,2.514L1.119,12.4C0.37,13.459 -0.018,14.731 0.012,16.028C0.043,17.325 0.491,18.577 1.289,19.6L24.001,48.216L46.719,19.6ZM14.507,18L20.107,36.864L5.125,18L14.507,18ZM42.877,18L27.905,36.864L33.495,18L42.877,18ZM29.323,18L24.001,35.958L18.679,18L29.323,18ZM18.653,14L21.509,4L26.493,4L29.349,14L18.653,14ZM36.567,4.838L43.111,14L33.511,14L30.653,4L34.939,4C35.257,4 35.571,4.076 35.855,4.222C36.138,4.368 36.382,4.579 36.567,4.838L36.567,4.838ZM11.435,4.838C11.62,4.579 11.864,4.368 12.147,4.222C12.431,4.076 12.744,4 13.063,4L17.349,4L14.493,14L4.893,14L11.435,4.838Z" fill="#374957"/>
</svg>
