<svg width="48" height="48" viewBox="0 0 48 48" fill="none" xmlns="http://www.w3.org/2000/svg" xmlns:xlink="http://www.w3.org/1999/xlink">
<path d="M41,14L33,14C31.143,14 29.363,14.738 28.05,16.051C26.737,17.363 26,19.144 26,21L26,30L22,30L22,23C21.996,20.784 21.323,18.62 20.07,16.792C18.816,14.964 17.04,13.557 14.974,12.754C16.203,11.907 17.129,10.688 17.616,9.277C18.104,7.866 18.127,6.336 17.683,4.911C17.24,3.485 16.352,2.239 15.149,1.354C13.947,0.469 12.493,-0.008 11,-0.008C9.507,-0.008 8.053,0.469 6.851,1.354C5.648,2.239 4.76,3.485 4.317,4.911C3.873,6.336 3.896,7.866 4.384,9.277C4.871,10.688 5.797,11.907 7.026,12.754C4.96,13.557 3.184,14.964 1.93,16.792C0.677,18.62 0.004,20.784 0,23L0,45C0,45.796 0.316,46.559 0.879,47.122C1.441,47.684 2.204,48 3,48C3.796,48 4.559,47.684 5.121,47.122C5.684,46.559 6,45.796 6,45L6,36L42,36L42,45C42,45.796 42.316,46.559 42.879,47.122C43.441,47.684 44.204,48 45,48C45.796,48 46.559,47.684 47.121,47.122C47.684,46.559 48,45.796 48,45L48,21C48,19.144 47.263,17.363 45.95,16.051C44.637,14.738 42.857,14 41,14L41,14ZM11,18C12.326,18 13.598,18.527 14.536,19.465C15.473,20.402 16,21.674 16,23L16,30L6,30L6,23C6,21.674 6.527,20.402 7.464,19.465C8.402,18.527 9.674,18 11,18L11,18ZM32,30L32,21C32,20.735 32.105,20.481 32.293,20.293C32.48,20.106 32.735,20 33,20L34,20L34,21C34,21.796 34.316,22.559 34.879,23.122C35.441,23.684 36.204,24 37,24C37.796,24 38.559,23.684 39.121,23.122C39.684,22.559 40,21.796 40,21L40,20L41,20C41.265,20 41.52,20.106 41.707,20.293C41.895,20.481 42,20.735 42,21L42,30L32,30Z" fill="#374957"/>
</svg>
