<svg width="44" height="48" viewBox="0 0 44 48" fill="none" xmlns="http://www.w3.org/2000/svg" xmlns:xlink="http://www.w3.org/1999/xlink">
<path d="M14,44.72C16.124,46.812 18.983,47.989 21.964,48C24.945,48.012 27.812,46.856 29.952,44.78L37.566,37.706C41.684,33.552 43.994,27.94 43.994,22.091C43.994,16.242 41.684,10.63 37.566,6.476C35.527,4.424 33.103,2.795 30.432,1.684C27.762,0.573 24.898,0 22.005,0C19.112,0 16.248,0.573 13.578,1.684C10.907,2.795 8.483,4.424 6.444,6.476C2.317,10.647 0.01,16.282 0.025,22.15C0.041,28.017 2.379,33.639 6.528,37.788L14,44.72ZM10.692,10.708C12.173,9.216 13.935,8.032 15.876,7.224C17.816,6.416 19.898,6 22,6C24.102,6 26.184,6.416 28.125,7.224C30.065,8.032 31.827,9.216 33.308,10.708L33.308,10.708C36.305,13.718 37.995,17.788 38.012,22.035C38.029,26.283 36.372,30.366 33.4,33.4L25.8,40.45C24.765,41.437 23.386,41.983 21.955,41.972C20.524,41.961 19.154,41.394 18.134,40.39L10.692,33.474C7.69,30.446 6.006,26.355 6.006,22.091C6.006,17.827 7.69,13.736 10.692,10.708L10.692,10.708ZM12,22C12,21.205 12.316,20.441 12.879,19.879C13.441,19.316 14.204,19 15,19L19,19L19,15C19,14.205 19.316,13.442 19.879,12.879C20.441,12.316 21.204,12 22,12C22.796,12 23.559,12.316 24.121,12.879C24.684,13.442 25,14.205 25,15L25,19L29,19C29.796,19 30.559,19.316 31.121,19.879C31.684,20.441 32,21.205 32,22C32,22.796 31.684,23.559 31.121,24.122C30.559,24.684 29.796,25 29,25L25,25L25,29C25,29.796 24.684,30.559 24.121,31.122C23.559,31.684 22.796,32 22,32C21.204,32 20.441,31.684 19.879,31.122C19.316,30.559 19,29.796 19,29L19,25L15,25C14.204,25 13.441,24.684 12.879,24.122C12.316,23.559 12,22.796 12,22Z" fill="#374957"/>
</svg>
