<svg width="48" height="48" viewBox="0 0 48 48" fill="none" xmlns="http://www.w3.org/2000/svg" xmlns:xlink="http://www.w3.org/1999/xlink">
<path d="M42.01,7C41.259,4.95 39.898,3.18 38.11,1.929C36.322,0.677 34.193,0.004 32.01,0L15.984,0C13.804,0.007 11.679,0.682 9.894,1.933C8.109,3.185 6.75,4.953 6,7L0.832,21.18C0.281,22.695 -0.001,24.296 0,25.908L0,31.364C0.006,33.355 0.572,35.304 1.633,36.988C2.694,38.672 4.207,40.025 6,40.89L6,44C6,45.061 6.421,46.078 7.172,46.828C7.922,47.579 8.939,48 10,48C11.061,48 12.078,47.579 12.828,46.828C13.579,46.078 14,45.061 14,44L14,42L34,42L34,44C34,45.061 34.421,46.078 35.172,46.828C35.922,47.579 36.939,48 38,48C39.061,48 40.078,47.579 40.828,46.828C41.579,46.078 42,45.061 42,44L42,40.89C43.793,40.025 45.306,38.672 46.367,36.988C47.428,35.304 47.994,33.355 48,31.364L48,25.908C48.001,24.296 47.719,22.695 47.168,21.18L42.01,7ZM11.626,9.052C11.953,8.159 12.547,7.388 13.326,6.842C14.105,6.296 15.033,6.002 15.984,6L32.016,6C32.967,6.002 33.895,6.296 34.674,6.842C35.453,7.388 36.047,8.159 36.374,9.052L41.08,22L6.92,22L11.626,9.052ZM37.364,36L10.636,36C9.407,35.998 8.229,35.509 7.36,34.64C6.491,33.771 6.002,32.593 6,31.364L6,28L10,28L10,29C10,29.796 10.316,30.559 10.879,31.121C11.441,31.684 12.204,32 13,32C13.796,32 14.559,31.684 15.121,31.121C15.684,30.559 16,29.796 16,29L16,28L32,28L32,29C32,29.796 32.316,30.559 32.879,31.121C33.441,31.684 34.204,32 35,32C35.796,32 36.559,31.684 37.121,31.121C37.684,30.559 38,29.796 38,29L38,28L42,28L42,31.364C41.998,32.593 41.509,33.771 40.64,34.64C39.771,35.509 38.593,35.998 37.364,36Z" fill="#374957"/>
</svg>
