<svg width="48" height="48" viewBox="0 0 48 48" fill="none" xmlns="http://www.w3.org/2000/svg" xmlns:xlink="http://www.w3.org/1999/xlink">
<path d="M6,42.968L6,45C6,45.796 6.316,46.559 6.879,47.121C7.441,47.684 8.204,48 9,48C9.796,48 10.559,47.684 11.121,47.121C11.684,46.559 12,45.796 12,45L12,44.182L36,44.182L36,45C36,45.796 36.316,46.559 36.879,47.121C37.441,47.684 38.204,48 39,48C39.796,48 40.559,47.684 41.121,47.121C41.684,46.559 42,45.796 42,45L42,42.968C43.804,42.047 45.319,40.646 46.378,38.92C47.436,37.193 47.998,35.207 48,33.182L48,25C47.997,22.084 46.837,19.288 44.775,17.225C42.712,15.163 39.916,14.003 37,14L34,14L34,10C34,7.348 32.946,4.804 31.071,2.929C29.196,1.054 26.652,0 24,0C21.348,0 18.804,1.054 16.929,2.929C15.054,4.804 14,7.348 14,10L14,14L11,14C8.084,14.003 5.288,15.163 3.225,17.225C1.163,19.288 0.003,22.084 0,25L0,33.182C0.002,35.207 0.564,37.193 1.622,38.92C2.681,40.646 4.196,42.047 6,42.968L6,42.968ZM20,10C20,8.939 20.421,7.922 21.172,7.172C21.922,6.421 22.939,6 24,6C25.061,6 26.078,6.421 26.828,7.172C27.579,7.922 28,8.939 28,10L28,14L20,14L20,10ZM6,25C6,23.674 6.527,22.402 7.464,21.464C8.402,20.527 9.674,20 11,20L37,20C38.326,20 39.598,20.527 40.536,21.464C41.473,22.402 42,23.674 42,25L42,33.182C42,34.508 41.473,35.78 40.536,36.718C39.598,37.655 38.326,38.182 37,38.182L11,38.182C9.674,38.182 8.402,37.655 7.464,36.718C6.527,35.78 6,34.508 6,33.182L6,25ZM14,27C14,26.204 14.316,25.441 14.879,24.879C15.441,24.316 16.204,24 17,24L31,24C31.796,24 32.559,24.316 33.121,24.879C33.684,25.441 34,26.204 34,27C34,27.796 33.684,28.559 33.121,29.121C32.559,29.684 31.796,30 31,30L17,30C16.204,30 15.441,29.684 14.879,29.121C14.316,28.559 14,27.796 14,27Z" fill="#374957"/>
</svg>
