<svg width="48" height="48" viewBox="0 0 48 48" fill="none" xmlns="http://www.w3.org/2000/svg" xmlns:xlink="http://www.w3.org/1999/xlink">
<path d="M35.225,25.696L28.399,32.524C22.576,30.057 17.945,25.415 15.491,19.586L22.291,12.774L9.773,0.244L3.433,6.584C2.332,7.689 1.461,9.002 0.872,10.447C0.282,11.892 -0.014,13.44 -0.001,15C-0.001,29.496 18.503,48 32.999,48C34.559,48.013 36.106,47.717 37.55,47.128C38.995,46.54 40.308,45.67 41.413,44.57L47.755,38.226L35.225,25.696ZM38.583,41.742C37.848,42.469 36.976,43.043 36.018,43.431C35.059,43.818 34.033,44.012 32.999,44C20.533,44 3.999,27.468 3.999,15C3.987,13.966 4.181,12.94 4.569,11.981C4.957,11.022 5.531,10.15 6.259,9.416L9.773,5.902L16.645,12.774L10.777,18.646L11.269,19.872C12.711,23.731 14.965,27.235 17.88,30.146C20.794,33.057 24.301,35.307 28.161,36.744L29.373,37.208L35.225,31.352L42.099,38.226L38.583,41.742ZM43.999,16L39.999,16L39.999,0L43.999,0L43.999,16ZM35.999,16L31.999,16L31.999,0L35.999,0L35.999,16Z" fill="#374957"/>
</svg>
