<svg width="36" height="48" viewBox="0 0 36 48" fill="none" xmlns="http://www.w3.org/2000/svg" xmlns:xlink="http://www.w3.org/1999/xlink">
<path d="M21,34C21,34.593 20.824,35.173 20.494,35.667C20.164,36.16 19.696,36.545 19.148,36.772C18.6,36.999 17.996,37.058 17.414,36.942C16.832,36.827 16.298,36.541 15.878,36.121C15.459,35.702 15.173,35.167 15.057,34.585C14.942,34.003 15.001,33.4 15.228,32.852C15.455,32.304 15.84,31.835 16.333,31.506C16.826,31.176 17.406,31 18,31C18.795,31 19.558,31.316 20.121,31.879C20.684,32.441 21,33.204 21,34ZM35.758,43.818C36.071,44.549 36.081,45.376 35.786,46.114C35.49,46.853 34.913,47.445 34.182,47.758C33.45,48.071 32.624,48.082 31.885,47.786C31.146,47.49 30.555,46.913 30.242,46.182L28.484,42.08C25.149,43.403 21.587,44.055 18,44C14.413,44.054 10.85,43.402 7.516,42.08L5.758,46.182C5.602,46.544 5.377,46.872 5.095,47.147C4.813,47.423 4.48,47.64 4.114,47.786C3.748,47.932 3.357,48.005 2.963,48C2.569,47.996 2.18,47.913 1.818,47.758C1.455,47.603 1.127,47.378 0.852,47.096C0.577,46.814 0.36,46.48 0.214,46.114C0.067,45.749 -0.006,45.357 -0.001,44.963C0.004,44.569 0.086,44.18 0.242,43.818L2.458,38.65C0.869,36.735 -0.001,34.324 0,31.836L0,11.968C-0.013,9.73 0.687,7.546 1.997,5.732C3.307,3.918 5.16,2.566 7.288,1.874C10.739,0.696 14.353,0.064 18,0C21.646,0.064 25.26,0.696 28.712,1.874C30.84,2.566 32.693,3.918 34.003,5.732C35.313,7.546 36.012,9.73 36,11.968L36,31.836C36.001,34.325 35.132,36.736 33.544,38.652L35.758,43.818ZM6,12.5C6,16.4 10.236,24 18,24C25.764,24 30,16.4 30,12.5L30,11.968C30.009,10.999 29.711,10.051 29.147,9.263C28.584,8.474 27.784,7.885 26.864,7.58C26.174,7.356 25.494,7.168 24.82,6.99C24.615,7.575 24.234,8.083 23.729,8.443C23.224,8.803 22.62,8.998 22,9L14,9C13.381,9 12.777,8.807 12.272,8.449C11.767,8.09 11.386,7.584 11.182,7C10.506,7.178 9.826,7.366 9.136,7.59C8.217,7.894 7.419,8.482 6.855,9.269C6.292,10.055 5.992,11 6,11.968L6,12.5ZM18,38C21.376,38.115 24.727,37.37 27.736,35.834C28.435,35.429 29.014,34.845 29.412,34.142C29.81,33.439 30.013,32.642 30,31.834L30,25.2C26.766,28.285 22.469,30.006 18,30.006C13.531,30.006 9.233,28.285 6,25.2L6,31.842C5.988,32.65 6.192,33.447 6.59,34.15C6.989,34.853 7.568,35.437 8.268,35.842C11.276,37.375 14.625,38.117 18,38Z" fill="#374957"/>
</svg>
