<svg width="48" height="48" viewBox="0 0 48 48" fill="none" xmlns="http://www.w3.org/2000/svg" xmlns:xlink="http://www.w3.org/1999/xlink">
<path d="M32.504,12.668C29.547,9.256 27.945,4.877 28,0.362C32.237,1.074 36.203,2.914 39.482,5.69L32.504,12.668ZM15.504,29.668L21.172,24L5.69,8.518C2.015,12.839 -0.002,18.327 0,24L0.646,24C6.111,24.08 11.372,26.09 15.498,29.674L15.504,29.668ZM42.31,8.518L35.332,15.496C38.773,18.404 43.133,20 47.638,20C46.926,15.763 45.086,11.797 42.31,8.518L42.31,8.518ZM29.674,15.498C26.09,11.372 24.08,6.111 24,0.646L24,0C18.327,-0.002 12.839,2.015 8.518,5.69L24,21.172L29.674,15.498ZM47.354,24C41.889,23.92 36.628,21.91 32.502,18.326L26.828,24L42.31,39.482C45.985,35.161 48.002,29.673 48,24L47.354,24ZM18.326,32.502C21.846,36.644 23.848,41.863 24,47.296L24,48C29.673,48.002 35.161,45.985 39.482,42.31L24,26.828L18.326,32.502ZM15.492,35.336L8.518,42.31C11.797,45.086 15.763,46.926 20,47.638C20.004,43.132 18.406,38.772 15.492,35.336L15.492,35.336ZM0.362,28C1.074,32.237 2.914,36.203 5.69,39.482L12.668,32.504C9.234,29.583 4.87,27.986 0.362,28L0.362,28Z" fill="#374957"/>
</svg>
