<svg width="48" height="46" viewBox="0 0 48 46" fill="none" xmlns="http://www.w3.org/2000/svg" xmlns:xlink="http://www.w3.org/1999/xlink">
<path d="M14,40L14,46L6,46L6,40L14,40ZM34,40L34,46L42,46L42,40L34,40ZM46.442,20C46.066,18.564 45.642,17.142 45.124,15.738L40.836,3.95C40.414,2.794 39.647,1.795 38.639,1.089C37.631,0.383 36.431,0.003 35.2,0L12.8,0C11.569,0.003 10.369,0.383 9.361,1.089C8.353,1.795 7.586,2.794 7.164,3.95L2.876,15.738C2.366,17.142 1.934,18.564 1.558,20L46.442,20ZM48,32.064L48,36L0,36L0,32.064C0.002,29.361 0.234,26.664 0.692,24L47.308,24C47.766,26.664 47.998,29.361 48,32.064L48,32.064ZM10,28C9.47,28 8.961,28.211 8.586,28.586C8.211,28.961 8,29.47 8,30L8,30C8,30.53 8.211,31.039 8.586,31.414C8.961,31.789 9.47,32 10,32C10.53,32 11.039,31.789 11.414,31.414C11.789,31.039 12,30.53 12,30C12,29.47 11.789,28.961 11.414,28.586C11.039,28.211 10.53,28 10,28ZM38,28C37.47,28 36.961,28.211 36.586,28.586C36.211,28.961 36,29.47 36,30C36,30.53 36.211,31.039 36.586,31.414C36.961,31.789 37.47,32 38,32C38.53,32 39.039,31.789 39.414,31.414C39.789,31.039 40,30.53 40,30C40,29.47 39.789,28.961 39.414,28.586C39.039,28.211 38.53,28 38,28Z" fill="#374957"/>
</svg>
