<svg width="48" height="42" viewBox="0 0 48 42" fill="none" xmlns="http://www.w3.org/2000/svg" xmlns:xlink="http://www.w3.org/1999/xlink">
<path d="M40.656,20.4C40.032,18.445 39.304,16.524 38.476,14.646C37.269,12.237 36.434,9.659 36,7C36,6.735 36.105,6.48 36.293,6.293C36.48,6.105 36.735,6 37,6C37.265,6 37.52,6.105 37.707,6.293C37.895,6.48 38,6.735 38,7C38,7.796 38.316,8.559 38.879,9.121C39.441,9.684 40.204,10 41,10C41.796,10 42.559,9.684 43.121,9.121C43.684,8.559 44,7.796 44,7C43.999,5.201 43.304,3.471 42.059,2.172C40.814,0.872 39.116,0.104 37.318,0.026C35.521,-0.051 33.762,0.569 32.41,1.756C31.058,2.944 30.217,4.607 30.062,6.4C30.021,6.597 30.001,6.798 30,7C30.034,8.297 30.246,9.583 30.628,10.822L23.2,16.6L14.2,10L17,10C17.796,10 18.559,9.684 19.121,9.121C19.684,8.559 20,7.796 20,7C20,6.204 19.684,5.441 19.121,4.879C18.559,4.316 17.796,4 17,4L10.942,4C9.9,4 8.885,4.329 8.042,4.94C7.199,5.552 6.57,6.414 6.247,7.404C5.923,8.394 5.921,9.461 6.241,10.453C6.56,11.444 7.185,12.309 8.026,12.924L18.278,20.428L16.092,22.128C14.356,20.758 12.211,20.008 10,20C8.022,20 6.089,20.587 4.444,21.685C2.8,22.784 1.518,24.346 0.761,26.173C0.004,28 -0.194,30.011 0.192,31.951C0.578,33.891 1.53,35.673 2.929,37.071C4.327,38.47 6.109,39.422 8.049,39.808C9.989,40.194 12,39.996 13.827,39.239C15.654,38.482 17.216,37.2 18.315,35.556C19.414,33.911 20,31.978 20,30C19.986,29.004 19.821,28.015 19.51,27.068L32.832,16.708C32.832,16.708 34.004,19.508 34.432,20.686C32.201,21.529 30.343,23.14 29.193,25.23C28.043,27.319 27.675,29.75 28.157,32.087C28.638,34.423 29.937,36.511 31.82,37.975C33.702,39.44 36.045,40.185 38.428,40.077C40.811,39.969 43.077,39.015 44.82,37.386C46.562,35.757 47.667,33.56 47.935,31.19C48.203,28.82 47.617,26.432 46.283,24.455C44.948,22.478 42.952,21.042 40.654,20.404L40.656,20.4ZM10,34C9.209,34 8.436,33.765 7.778,33.326C7.12,32.886 6.607,32.262 6.304,31.531C6.002,30.8 5.923,29.996 6.077,29.22C6.231,28.444 6.612,27.731 7.172,27.172C7.731,26.612 8.444,26.231 9.22,26.077C9.996,25.923 10.8,26.002 11.531,26.305C12.262,26.607 12.886,27.12 13.326,27.778C13.765,28.436 14,29.209 14,30C14,31.061 13.579,32.078 12.828,32.828C12.078,33.579 11.061,34 10,34ZM38,34C37.209,34 36.436,33.765 35.778,33.326C35.12,32.886 34.607,32.262 34.304,31.531C34.002,30.8 33.923,29.996 34.077,29.22C34.231,28.444 34.612,27.731 35.172,27.172C35.731,26.612 36.444,26.231 37.22,26.077C37.996,25.923 38.8,26.002 39.531,26.305C40.262,26.607 40.886,27.12 41.326,27.778C41.765,28.436 42,29.209 42,30C42,31.061 41.579,32.078 40.828,32.828C40.078,33.579 39.061,34 38,34Z" fill="#374957"/>
</svg>
