<svg width="48" height="48" viewBox="0 0 48 48" fill="none" xmlns="http://www.w3.org/2000/svg" xmlns:xlink="http://www.w3.org/1999/xlink">
<path d="M20,16C20,15.209 20.235,14.435 20.675,13.778C21.114,13.12 21.739,12.607 22.47,12.304C23.201,12.002 24.005,11.922 24.781,12.077C25.557,12.231 26.269,12.612 26.829,13.171C27.388,13.731 27.769,14.444 27.924,15.219C28.078,15.995 27.999,16.8 27.696,17.531C27.393,18.261 26.88,18.886 26.223,19.326C25.565,19.765 24.792,20 24,20C22.94,20 21.922,19.578 21.172,18.828C20.422,18.078 20,17.061 20,16ZM48,26.748L48,37.046C48.012,38.43 47.704,39.799 47.101,41.045C46.498,42.292 45.617,43.383 44.524,44.234C43.5,45.038 42.305,45.595 41.031,45.864C39.757,46.132 38.438,46.104 37.176,45.782C37.088,45.76 32.52,44.146 32.52,44.146C31.768,43.941 30.973,43.949 30.224,44.168L19.224,47.58C18.268,47.858 17.277,48 16.28,48C15.193,48.001 14.113,47.828 13.08,47.488L7.602,45.688C5.38,44.968 3.444,43.558 2.077,41.664C0.71,39.769 -0.017,37.488 0,35.152L0,27C-0.012,25.492 0.284,23.997 0.871,22.608C1.458,21.219 2.324,19.965 3.414,18.924C4.715,17.708 6.301,16.84 8.026,16.4C7.986,14.246 8.376,12.106 9.174,10.105C9.972,8.104 11.162,6.282 12.674,4.748C14.153,3.244 15.915,2.05 17.86,1.235C19.804,0.419 21.892,0 24,0C26.109,0 28.196,0.419 30.141,1.235C32.085,2.05 33.848,3.244 35.326,4.748C38.298,7.761 39.97,11.82 39.984,16.052L40.916,16.378C43.011,17.181 44.811,18.603 46.077,20.456C47.343,22.308 48.014,24.502 48,26.746L48,26.748ZM16.942,23.36L23.528,29.8C23.592,29.864 23.667,29.915 23.75,29.95C23.833,29.984 23.922,30.002 24.012,30.002C24.102,30.002 24.192,29.984 24.275,29.95C24.358,29.915 24.433,29.864 24.496,29.8L31.096,23.33C32.97,21.407 34.016,18.826 34.01,16.141C34.004,13.456 32.947,10.88 31.064,8.966L31.064,8.966C30.144,8.028 29.045,7.283 27.834,6.774C26.622,6.266 25.321,6.004 24.006,6.004C22.692,6.004 21.391,6.266 20.179,6.774C18.967,7.283 17.869,8.028 16.948,8.966C15.063,10.887 14.007,13.47 14.006,16.162C14.005,18.853 15.059,21.437 16.942,23.36ZM42,26.746C42.018,25.739 41.732,24.749 41.178,23.908C40.624,23.066 39.829,22.412 38.896,22.03C38.103,24.106 36.888,25.996 35.326,27.578L28.698,34.082C27.453,35.317 25.77,36.01 24.016,36.01C22.262,36.01 20.58,35.317 19.334,34.082L12.71,27.614C11.196,26.078 10.003,24.255 9.2,22.252C8.591,22.475 8.034,22.821 7.564,23.268C7.062,23.75 6.665,24.33 6.396,24.972C6.127,25.614 5.992,26.304 6,27L6,35.15C5.979,36.211 6.298,37.25 6.909,38.117C7.521,38.984 8.394,39.632 9.4,39.968L14.952,41.784C15.776,42.055 16.663,42.071 17.496,41.83L28.518,38.414C30.438,37.854 32.479,37.865 34.392,38.444L38.766,40C39.128,40.074 39.501,40.068 39.86,39.982C40.219,39.896 40.554,39.732 40.842,39.502C41.211,39.209 41.508,38.835 41.709,38.408C41.91,37.982 42.009,37.515 42,37.044L42,26.746Z" fill="#374957"/>
</svg>
