<svg width="16" height="26" viewBox="0 0 16 26" fill="none" xmlns="http://www.w3.org/2000/svg" xmlns:xlink="http://www.w3.org/1999/xlink">
<path d="M0,23.758L0,1.414C0,1.019 0.117,0.632 0.337,0.303C0.557,-0.026 0.869,-0.282 1.235,-0.433C1.6,-0.585 2.002,-0.624 2.39,-0.547C2.778,-0.47 3.134,-0.279 3.414,0L14.586,11.172C14.961,11.547 15.172,12.056 15.172,12.586C15.172,13.116 14.961,13.625 14.586,14L3.414,25.172C3.134,25.452 2.778,25.642 2.39,25.719C2.002,25.796 1.6,25.757 1.235,25.606C0.869,25.454 0.557,25.198 0.337,24.869C0.117,24.54 0,24.154 0,23.758Z" fill="#374957"/>
</svg>
