<svg width="50" height="48" viewBox="0 0 50 48" fill="none" xmlns="http://www.w3.org/2000/svg" xmlns:xlink="http://www.w3.org/1999/xlink">
<path d="M18.136,32.695L27.936,42.495L29.35,41.081C31.305,39.119 32.715,36.683 33.443,34.011C34.17,31.34 34.19,28.525 33.5,25.843L33.008,23.843L37.18,19.671L37.614,20.105C38.625,21.141 39.967,21.788 41.407,21.935C42.846,22.081 44.292,21.716 45.49,20.905C46.2,20.399 46.792,19.744 47.223,18.986C47.654,18.228 47.915,17.385 47.988,16.516C48.06,15.647 47.942,14.773 47.642,13.954C47.342,13.135 46.867,12.391 46.25,11.775L36.4,1.909C35.389,0.873 34.047,0.225 32.607,0.079C31.168,-0.067 29.722,0.297 28.524,1.109C27.814,1.615 27.222,2.27 26.791,3.028C26.36,3.786 26.099,4.629 26.026,5.498C25.954,6.367 26.072,7.241 26.372,8.06C26.672,8.879 27.147,9.622 27.764,10.239L28.35,10.825L24.17,15.001L22.2,14.517C19.514,13.821 16.693,13.838 14.015,14.564C11.337,15.291 8.894,16.703 6.928,18.661L5.514,20.075L15.314,29.865L0.586,44.587L3.414,47.415L18.136,32.695ZM21.214,18.401L25.414,19.429L34.014,10.829L30.586,7.415C30.379,7.208 30.22,6.959 30.119,6.684C30.019,6.409 29.981,6.116 30.006,5.824C30.032,5.533 30.121,5.251 30.267,4.997C30.414,4.744 30.614,4.526 30.854,4.359C31.281,4.101 31.784,3.997 32.278,4.066C32.772,4.136 33.227,4.373 33.566,4.739L43.414,14.587C43.621,14.793 43.78,15.043 43.881,15.318C43.981,15.593 44.019,15.886 43.994,16.177C43.968,16.469 43.879,16.751 43.733,17.004C43.586,17.257 43.386,17.475 43.146,17.643C42.719,17.901 42.216,18.004 41.722,17.935C41.228,17.866 40.773,17.629 40.434,17.263L37.172,14.001L28.572,22.601L29.608,26.823C30.044,28.503 30.109,30.259 29.799,31.967C29.488,33.676 28.808,35.296 27.808,36.715L11.292,20.201C12.715,19.197 14.34,18.516 16.054,18.205C17.768,17.894 19.529,17.961 21.214,18.401Z" fill="#374957"/>
</svg>
