<svg width="48" height="46" viewBox="0 0 48 46" fill="none" xmlns="http://www.w3.org/2000/svg" xmlns:xlink="http://www.w3.org/1999/xlink">
<path d="M44.814,30.924C40.374,26.482 32.718,24.026 24,24C15.27,24.042 7.492,26.628 3.2,30.924C2.191,31.912 1.389,33.09 0.84,34.391C0.29,35.691 0.005,37.088 0,38.5L0,46L16,46L16,37.488C18.513,36.511 21.184,36.006 23.88,36L24,36C26.735,36.03 29.443,36.541 32,37.51L32,46L48,46L48,38.502C47.997,37.091 47.714,35.694 47.167,34.393C46.62,33.093 45.82,31.913 44.814,30.924ZM44,42L36,42L36,34.834L34.786,34.314C31.385,32.829 27.721,32.043 24.01,32C20.277,31.994 16.585,32.788 13.184,34.328L12,34.858L12,42L4,42L4,38.498C4.004,37.613 4.185,36.738 4.531,35.923C4.876,35.108 5.381,34.37 6.014,33.752C9.53,30.238 16.424,28.036 24.014,28C31.604,27.964 38.354,30.114 41.99,33.752C42.623,34.371 43.127,35.109 43.472,35.924C43.817,36.739 43.996,37.615 44,38.5L44,42ZM10,14L6,14L6,4.942C6.009,3.624 6.54,2.364 7.478,1.437C8.415,0.51 9.682,-0.006 11,0L20,0L20,4L12.878,4L24.69,15.852C24.731,15.893 24.78,15.926 24.834,15.949C24.888,15.971 24.946,15.982 25.004,15.982L25.004,15.982C25.062,15.983 25.119,15.971 25.173,15.949C25.226,15.927 25.275,15.895 25.316,15.854L39.084,2.086L41.912,4.914L28.144,18.682C27.733,19.096 27.244,19.424 26.705,19.647C26.166,19.871 25.587,19.984 25.004,19.982L25.004,19.982C24.42,19.983 23.841,19.869 23.301,19.645C22.761,19.42 22.271,19.091 21.86,18.676L10,6.778L10,14Z" fill="#374957"/>
</svg>
