<svg width="48" height="48" viewBox="0 0 48 48" fill="none" xmlns="http://www.w3.org/2000/svg" xmlns:xlink="http://www.w3.org/1999/xlink">
<path d="M28.4,32.523C22.577,30.056 17.946,25.414 15.492,19.585L22.304,12.773L9.774,0.243L3.432,6.583C2.332,7.689 1.462,9.002 0.872,10.447C0.283,11.891 -0.013,13.439 0,14.999C0,29.495 18.504,47.999 33,47.999C34.56,48.013 36.108,47.717 37.552,47.128C38.996,46.538 40.309,45.668 41.414,44.567L47.756,38.225L35.226,25.697L28.4,32.523ZM38.584,41.741C37.849,42.468 36.977,43.042 36.019,43.43C35.06,43.817 34.034,44.011 33,43.999C20.532,43.999 4,27.465 4,14.999C3.989,13.965 4.182,12.938 4.57,11.979C4.958,11.02 5.533,10.148 6.26,9.413L9.774,5.899L16.648,12.773L10.776,18.643L11.268,19.871C12.711,23.73 14.966,27.233 17.881,30.144C20.796,33.055 24.302,35.306 28.162,36.743L29.374,37.205L35.226,31.353L42.098,38.225L38.584,41.741ZM41.828,8.999L47.914,15.085L45.086,17.913L39,11.827L32.914,17.913L30.086,15.085L36.172,8.999L30.086,2.913L32.914,0.085L39,6.171L45.086,0.085L47.914,2.913L41.828,8.999Z" fill="#374957"/>
</svg>
