<svg width="32" height="48" viewBox="0 0 32 48" fill="none" xmlns="http://www.w3.org/2000/svg" xmlns:xlink="http://www.w3.org/1999/xlink">
<path d="M21,0L11,0C8.084,0.003 5.288,1.163 3.225,3.225C1.163,5.288 0.003,8.084 0,11L0,37C0.003,39.916 1.163,42.712 3.225,44.775C5.288,46.837 8.084,47.997 11,48L21,48C23.916,47.997 26.712,46.837 28.775,44.775C30.837,42.712 31.997,39.916 32,37L32,11C31.997,8.084 30.837,5.288 28.775,3.225C26.712,1.163 23.916,0.003 21,0L21,0ZM11,6L21,6C22.326,6 23.598,6.527 24.536,7.464C25.473,8.402 26,9.674 26,11L26,36L6,36L6,11C6,9.674 6.527,8.402 7.464,7.464C8.402,6.527 9.674,6 11,6L11,6ZM16,44C15.47,44 14.961,43.789 14.586,43.414C14.211,43.039 14,42.53 14,42C14,41.47 14.211,40.961 14.586,40.586C14.961,40.211 15.47,40 16,40L16,40C16.53,40 17.039,40.211 17.414,40.586C17.789,40.961 18,41.47 18,42C18,42.53 17.789,43.039 17.414,43.414C17.039,43.789 16.53,44 16,44Z" fill="#374957"/>
</svg>
