<svg width="48" height="48" viewBox="0 0 48 48" fill="none" xmlns="http://www.w3.org/2000/svg" xmlns:xlink="http://www.w3.org/1999/xlink">
<path d="M48,24C48,30.365 45.471,36.47 40.971,40.971C36.47,45.471 30.365,48 24,48C17.635,48 11.53,45.471 7.029,40.971C2.529,36.47 0,30.365 0,24C0,23.204 0.316,22.441 0.879,21.879C1.441,21.316 2.204,21 3,21C3.796,21 4.559,21.316 5.121,21.879C5.684,22.441 6,23.204 6,24C6,27.56 7.056,31.04 9.034,34C11.011,36.96 13.823,39.267 17.112,40.63C20.401,41.992 24.02,42.349 27.512,41.654C31.003,40.96 34.211,39.245 36.728,36.728C39.245,34.211 40.96,31.003 41.654,27.512C42.349,24.02 41.992,20.401 40.63,17.112C39.267,13.823 36.96,11.011 34,9.034C31.04,7.056 27.56,6 24,6C23.204,6 22.441,5.684 21.879,5.121C21.316,4.559 21,3.796 21,3C21,2.204 21.316,1.441 21.879,0.879C22.441,0.316 23.204,0 24,0C30.363,0.007 36.464,2.538 40.963,7.037C45.462,11.536 47.993,17.637 48,24ZM14,24C14,24.796 14.316,25.559 14.879,26.121C15.441,26.684 16.204,27 17,27L21.38,27C22.14,27.669 23.126,28.023 24.138,27.991C25.149,27.959 26.111,27.542 26.827,26.827C27.542,26.111 27.959,25.149 27.991,24.138C28.023,23.126 27.669,22.14 27,21.38L27,13C27,12.204 26.684,11.441 26.121,10.879C25.559,10.316 24.796,10 24,10C23.204,10 22.441,10.316 21.879,10.879C21.316,11.441 21,12.204 21,13L21,21L17,21C16.204,21 15.441,21.316 14.879,21.879C14.316,22.441 14,23.204 14,24ZM13.48,9.788C14.073,9.788 14.653,9.612 15.147,9.282C15.64,8.953 16.025,8.484 16.252,7.936C16.479,7.388 16.538,6.785 16.422,6.203C16.307,5.621 16.021,5.086 15.601,4.667C15.182,4.247 14.647,3.961 14.065,3.846C13.483,3.73 12.88,3.789 12.332,4.016C11.784,4.243 11.315,4.628 10.986,5.121C10.656,5.615 10.48,6.195 10.48,6.788C10.48,7.584 10.796,8.347 11.359,8.909C11.921,9.472 12.684,9.788 13.48,9.788ZM5.826,17.5C6.419,17.5 6.999,17.324 7.493,16.994C7.986,16.665 8.371,16.196 8.598,15.648C8.825,15.1 8.884,14.497 8.768,13.915C8.653,13.333 8.367,12.798 7.947,12.379C7.528,11.959 6.993,11.673 6.411,11.558C5.829,11.442 5.226,11.501 4.678,11.728C4.13,11.955 3.661,12.34 3.332,12.833C3.002,13.327 2.826,13.907 2.826,14.5C2.826,15.296 3.142,16.059 3.705,16.621C4.267,17.184 5.03,17.5 5.826,17.5Z" fill="#374957"/>
</svg>
