<svg width="48" height="48" viewBox="0 0 48 48" fill="none" xmlns="http://www.w3.org/2000/svg" xmlns:xlink="http://www.w3.org/1999/xlink">
<path d="M32.45,48L15.548,48L15.148,47.8C11.167,45.769 7.725,42.822 5.106,39.2C2.487,35.579 0.766,31.387 0.084,26.97C-0.06,26.117 -0.016,25.243 0.213,24.408C0.442,23.574 0.85,22.8 1.41,22.14C1.976,21.469 2.682,20.93 3.477,20.56C4.273,20.191 5.141,20 6.018,20L41.98,20C42.856,20 43.722,20.192 44.517,20.562C45.311,20.931 46.015,21.47 46.58,22.14C47.141,22.799 47.55,23.573 47.78,24.408C48.009,25.242 48.054,26.117 47.91,26.97C47.229,31.386 45.508,35.577 42.891,39.198C40.273,42.82 36.833,45.768 32.854,47.8L32.45,48ZM16.45,44L31.54,44C34.823,42.191 37.649,39.656 39.803,36.589C41.957,33.522 43.382,30.004 43.97,26.302C44.018,26.023 44.004,25.736 43.928,25.463C43.853,25.19 43.717,24.937 43.532,24.722C43.342,24.496 43.104,24.314 42.836,24.189C42.568,24.064 42.276,24 41.98,24L6.018,24C5.722,24 5.43,24.064 5.162,24.189C4.894,24.314 4.656,24.496 4.466,24.722C4.281,24.937 4.146,25.19 4.07,25.463C3.993,25.736 3.979,26.022 4.026,26.302C4.615,30.004 6.041,33.522 8.195,36.589C10.35,39.656 13.176,42.191 16.458,44L16.45,44ZM24,12.828C24.003,11.668 23.777,10.519 23.333,9.447C22.889,8.375 22.237,7.402 21.414,6.584C20.964,6.137 20.607,5.606 20.364,5.02C20.122,4.434 19.998,3.806 20,3.172L20,0L16,0L16,3.172C15.997,4.332 16.223,5.48 16.667,6.552C17.11,7.623 17.762,8.596 18.584,9.414C19.488,10.321 19.996,11.548 20,12.828L20,16L24,16L24,12.828ZM32,10.828C32.004,9.668 31.777,8.519 31.333,7.448C30.889,6.376 30.237,5.403 29.414,4.586C28.512,3.678 28.004,2.452 28,1.172L28,0L24,0L24,1.172C24.007,3.512 24.936,5.755 26.584,7.416C27.034,7.863 27.391,8.394 27.634,8.98C27.878,9.566 28.002,10.194 28,10.828L28,14L32,14L32,10.828Z" fill="#374957"/>
</svg>
