<svg width="48" height="48" viewBox="0 0 48 48" fill="none" xmlns="http://www.w3.org/2000/svg" xmlns:xlink="http://www.w3.org/1999/xlink">
<path d="M42,8L30,8L30,6C30,4.409 29.368,2.883 28.243,1.757C27.117,0.632 25.591,0 24,0C22.409,0 20.883,0.632 19.757,1.757C18.632,2.883 18,4.409 18,6L18,8L6,8C4.409,8 2.883,8.632 1.757,9.757C0.632,10.883 0,12.409 0,14L0,48L48,48L48,14C48,12.409 47.368,10.883 46.243,9.757C45.117,8.632 43.591,8 42,8L42,8ZM20,38L6,38L6,18L20,18L20,38ZM22,6C22,5.47 22.211,4.961 22.586,4.586C22.961,4.211 23.47,4 24,4C24.53,4 25.039,4.211 25.414,4.586C25.789,4.961 26,5.47 26,6L26,12L22,12L22,6ZM38,38L26,38L26,34L38,34L38,38ZM42,30L26,30L26,26L42,26L42,30ZM42,22L26,22L26,18L42,18L42,22ZM16,34L10,34L10,22L16,22L16,34Z" fill="#374957"/>
</svg>
