<svg width="42" height="48" viewBox="0 0 42 48" fill="none" xmlns="http://www.w3.org/2000/svg" xmlns:xlink="http://www.w3.org/1999/xlink">
<path d="M29.8,8.064C29.329,5.813 28.098,3.793 26.313,2.343C24.529,0.893 22.299,0.101 20,0.101C17.7,0.101 15.471,0.893 13.686,2.343C11.901,3.793 10.67,5.813 10.2,8.064C8.289,8.297 6.466,9.002 4.897,10.117C3.328,11.232 2.062,12.721 1.213,14.448C0.364,16.176 -0.041,18.088 0.035,20.011C0.112,21.935 0.667,23.809 1.65,25.464L13.382,44.288C14.085,45.407 15.06,46.33 16.216,46.97C17.373,47.61 18.672,47.947 19.994,47.948C21.316,47.95 22.617,47.616 23.775,46.979C24.932,46.342 25.91,45.421 26.616,44.304L38.4,25.4C42.708,18.418 37.846,8.634 29.8,8.064ZM33.962,19.2C31.626,19.426 27.238,19.8 23.022,19.952L23,19.6C22.979,18.166 23.521,16.781 24.509,15.742C25.497,14.703 26.852,14.091 28.285,14.039C29.718,13.987 31.114,14.498 32.175,15.462C33.236,16.427 33.878,17.768 33.962,19.2L33.962,19.2ZM20,6C20.886,6.003 21.747,6.301 22.446,6.846C23.145,7.392 23.643,8.154 23.862,9.014C22.397,9.676 21.086,10.635 20.012,11.832C18.93,10.633 17.61,9.673 16.138,9.012C16.357,8.153 16.855,7.391 17.554,6.845C18.253,6.3 19.113,6.003 20,6L20,6ZM11.41,14C12.158,14.005 12.897,14.159 13.585,14.453C14.273,14.747 14.895,15.174 15.416,15.711C15.937,16.247 16.347,16.882 16.62,17.578C16.894,18.274 17.026,19.018 17.01,19.766L17.022,19.944C12.786,19.8 8.382,19.418 6.038,19.2C6.089,17.807 6.677,16.489 7.678,15.52C8.679,14.551 10.016,14.006 11.41,14L11.41,14ZM21.51,41.156C21.35,41.415 21.127,41.629 20.86,41.777C20.594,41.925 20.294,42.001 19.99,41.999C19.685,41.998 19.386,41.917 19.122,41.766C18.857,41.615 18.636,41.399 18.48,41.138L8.704,25.456C16.222,26.136 23.786,26.136 31.304,25.456L21.51,41.156Z" fill="#374957"/>
</svg>
