<svg width="40" height="50" viewBox="0 0 40 50" fill="none" xmlns="http://www.w3.org/2000/svg" xmlns:xlink="http://www.w3.org/1999/xlink">
<path d="M0,28C0,31.87 1.122,35.658 3.232,38.903C5.342,42.148 8.347,44.711 11.885,46.281C15.422,47.852 19.34,48.362 23.161,47.75C26.983,47.139 30.545,45.431 33.416,42.835C36.286,40.238 38.342,36.865 39.333,33.124C40.324,29.382 40.209,25.434 39,21.757C37.792,18.08 35.542,14.833 32.525,12.409C29.507,9.985 25.851,8.489 22,8.102L22,4L28,4L28,0L12,0L12,4L18,4L18,8.102C13.069,8.603 8.5,10.915 5.175,14.591C1.85,18.266 0.006,23.044 0,28L0,28ZM36,28C36,28.724 33.268,30.4 28,31.34L28,24.66C33.268,25.6 36,27.276 36,28ZM24,31.844C22.758,31.942 21.43,32 20,32C18.57,32 17.242,31.942 16,31.844L16,24.156C17.242,24.058 18.57,24 20,24C21.43,24 22.758,24.058 24,24.156L24,31.844ZM4,28C4,27.276 6.732,25.6 12,24.66L12,31.34C6.732,30.4 4,28.724 4,28ZM20,20C18.67,20 17.328,20.052 16,20.15L16,12.526C18.621,11.825 21.379,11.825 24,12.526L24,20.15C22.672,20.052 21.33,20 20,20ZM12,14.164L12,20.6C9.6,20.936 7.249,21.563 5,22.466C6.3,18.971 8.775,16.036 12,14.164L12,14.164ZM5,33.528C7.249,34.434 9.599,35.062 12,35.4L12,41.842C8.773,39.967 6.298,37.028 5,33.528L5,33.528ZM16,43.474L16,35.85C17.328,35.948 18.67,36 20,36C21.33,36 22.672,35.948 24,35.85L24,43.474C21.379,44.175 18.621,44.175 16,43.474L16,43.474ZM28,41.836L28,35.4C30.4,35.064 32.751,34.437 35,33.534C33.7,37.029 31.225,39.964 28,41.836ZM35,22.472C32.751,21.566 30.401,20.938 28,20.6L28,14.164C31.226,16.038 33.701,18.975 35,22.472L35,22.472Z" fill="#374957"/>
</svg>
