<svg width="16" height="16" viewBox="0 0 16 16" fill="none" xmlns="http://www.w3.org/2000/svg" xmlns:xlink="http://www.w3.org/1999/xlink">
<path d="M14.271,5.71C13.324,5.439 12.461,4.931 11.765,4.235C11.068,3.538 10.56,2.675 10.289,1.728L10.289,1.728C10.147,1.23 9.846,0.793 9.433,0.481C9.02,0.17 8.517,0.001 7.999,0.001C7.482,0.001 6.979,0.17 6.565,0.481C6.152,0.793 5.852,1.23 5.709,1.728L5.709,1.728C5.438,2.675 4.931,3.538 4.234,4.235C3.537,4.931 2.675,5.439 1.727,5.71L1.727,5.71C1.23,5.852 0.792,6.153 0.481,6.566C0.169,6.979 0.001,7.482 0.001,8C0.001,8.517 0.169,9.021 0.481,9.434C0.792,9.847 1.23,10.147 1.727,10.29L1.727,10.29C2.675,10.561 3.537,11.068 4.234,11.765C4.931,12.462 5.438,13.325 5.709,14.272L5.709,14.272C5.852,14.769 6.152,15.207 6.565,15.518C6.979,15.83 7.482,15.998 7.999,15.998C8.517,15.998 9.02,15.83 9.433,15.518C9.846,15.207 10.147,14.769 10.289,14.272L10.289,14.272C10.56,13.325 11.068,12.462 11.765,11.765C12.461,11.068 13.324,10.561 14.271,10.29L14.271,10.29C14.769,10.147 15.206,9.847 15.518,9.434C15.829,9.021 15.998,8.517 15.998,8C15.998,7.482 15.829,6.979 15.518,6.566C15.206,6.153 14.769,5.852 14.271,5.71L14.271,5.71Z" fill="#374957"/>
</svg>
