<svg width="48" height="50" viewBox="0 0 48 50" fill="none" xmlns="http://www.w3.org/2000/svg" xmlns:xlink="http://www.w3.org/1999/xlink">
<path d="M37,48L26.068,48C22.322,48.066 18.603,47.351 15.148,45.901C11.693,44.451 8.578,42.298 6,39.578C3.819,37.194 2.167,34.376 1.151,31.308C0.135,28.241 -0.221,24.993 0.106,21.778C0.602,16.548 2.798,11.623 6.357,7.758C9.917,3.893 14.644,1.301 19.816,0.376C23.214,-0.254 26.709,-0.12 30.049,0.769C33.389,1.658 36.489,3.279 39.124,5.514C41.914,7.859 44.155,10.789 45.688,14.095C47.222,17.401 48.011,21.004 48,24.648L48,37C47.996,39.917 46.836,42.712 44.774,44.774C42.712,46.836 39.916,47.997 37,48L37,48ZM24.06,6C19.569,5.996 15.238,7.668 11.914,10.687C8.589,13.707 6.511,17.858 6.084,22.328C5.839,24.713 6.101,27.123 6.853,29.399C7.604,31.676 8.828,33.768 10.444,35.538C12.458,37.639 14.887,39.299 17.577,40.411C20.267,41.524 23.158,42.065 26.068,42L37,42C38.326,42 39.598,41.473 40.535,40.536C41.473,39.598 42,38.326 42,37L42,24.648C42.009,21.88 41.411,19.143 40.248,16.631C39.085,14.119 37.385,11.892 35.268,10.108C32.139,7.451 28.165,5.994 24.06,6ZM21,34C20.342,34.001 19.691,33.872 19.083,33.621C18.475,33.37 17.923,33.001 17.458,32.536L11.912,27.154C11.348,26.599 11.026,25.843 11.017,25.051C11.008,24.26 11.312,23.497 11.863,22.928C12.414,22.36 13.167,22.032 13.958,22.017C14.75,22.002 15.515,22.3 16.088,22.846L21,27.6L31.9,16.862C32.179,16.578 32.511,16.353 32.878,16.199C33.245,16.045 33.639,15.965 34.037,15.965C34.435,15.965 34.829,16.043 35.196,16.197C35.564,16.35 35.897,16.575 36.176,16.859C36.456,17.142 36.676,17.478 36.824,17.847C36.972,18.217 37.045,18.612 37.04,19.01C37.034,19.408 36.948,19.801 36.789,20.165C36.63,20.53 36.4,20.859 36.112,21.134L24.52,32.55C24.058,33.012 23.509,33.378 22.905,33.627C22.301,33.876 21.653,34.003 21,34L21,34Z" fill="#374957"/>
</svg>
