<svg width="48" height="48" viewBox="0 0 48 48" fill="none" xmlns="http://www.w3.org/2000/svg" xmlns:xlink="http://www.w3.org/1999/xlink">
<path d="M24,16C22.417,16 20.87,16.469 19.554,17.348C18.238,18.227 17.213,19.476 16.607,20.938C16.001,22.401 15.843,24.009 16.152,25.562C16.46,27.114 17.223,28.539 18.342,29.658L24,35.2L29.672,29.652C30.79,28.532 31.551,27.106 31.858,25.553C32.165,24.001 32.005,22.392 31.398,20.931C30.791,19.469 29.764,18.221 28.447,17.343C27.13,16.466 25.583,15.998 24,16ZM24,25.984C23.604,25.984 23.218,25.867 22.889,25.647C22.56,25.427 22.304,25.115 22.152,24.75C22.001,24.384 21.961,23.982 22.038,23.594C22.116,23.206 22.306,22.85 22.586,22.57C22.866,22.29 23.222,22.1 23.61,22.023C23.998,21.946 24.4,21.985 24.765,22.136C25.131,22.288 25.443,22.544 25.663,22.873C25.883,23.202 26,23.589 26,23.984C26,24.515 25.789,25.023 25.414,25.398C25.039,25.774 24.53,25.984 24,25.984ZM45.698,15.36L27.698,1.274C26.642,0.447 25.339,-0.002 23.998,-0.002C22.657,-0.002 21.354,0.447 20.298,1.274L2.298,15.36C1.58,15.92 0.999,16.637 0.601,17.457C0.202,18.276 -0.003,19.175 0,20.086L0,48L48,48L48,20.086C48.003,19.175 47.797,18.275 47.398,17.456C46.999,16.637 46.417,15.92 45.698,15.36ZM32.486,32.486L24,40.786L15.53,32.5C14.415,31.387 13.53,30.065 12.925,28.609C12.321,27.154 12.009,25.594 12.008,24.018C12.006,22.442 12.315,20.881 12.917,19.425C13.519,17.968 14.402,16.645 15.515,15.529C16.628,14.414 17.951,13.529 19.406,12.924C20.861,12.32 22.422,12.008 23.997,12.007C25.573,12.006 27.134,12.315 28.591,12.916C30.047,13.518 31.371,14.401 32.486,15.514C34.733,17.767 35.995,20.819 35.995,24C35.995,27.182 34.733,30.234 32.486,32.486Z" fill="#374957"/>
</svg>
