<svg width="44" height="48" viewBox="0 0 44 48" fill="none" xmlns="http://www.w3.org/2000/svg" xmlns:xlink="http://www.w3.org/1999/xlink">
<path d="M44.001,24C44.001,22.409 43.369,20.883 42.244,19.757C41.118,18.632 39.592,18 38.001,18L36.001,18L36.001,12L34.001,12C33.996,10.828 33.735,9.671 33.235,8.611C32.736,7.55 32.01,6.612 31.108,5.863C30.207,5.113 29.153,4.57 28.019,4.272C26.886,3.973 25.7,3.927 24.547,4.136C23.73,2.892 22.619,1.868 21.311,1.157C20.004,0.447 18.54,0.07 17.052,0.062C15.564,0.053 14.096,0.413 12.781,1.109C11.465,1.805 10.342,2.815 9.511,4.05C7.483,4.171 5.577,5.061 4.182,6.538C2.786,8.015 2.007,9.968 2.001,12L0.001,12L0.001,42C0.001,43.591 0.633,45.117 1.758,46.243C2.884,47.368 4.41,48 6.001,48L30.001,48C31.592,48 33.118,47.368 34.244,46.243C35.369,45.117 36.001,43.591 36.001,42L36.001,38L44.001,38L44.001,24ZM10.001,8C10.119,8 11.839,8.284 11.839,8.284L12.479,6.908C12.898,6.024 13.566,5.282 14.403,4.774C15.239,4.266 16.205,4.015 17.183,4.051C18.161,4.087 19.106,4.409 19.902,4.978C20.699,5.546 21.311,6.335 21.663,7.248L22.417,9.248L24.361,8.368C24.969,8.095 25.635,7.978 26.3,8.027C26.965,8.077 27.606,8.292 28.167,8.653C28.727,9.014 29.188,9.509 29.509,10.094C29.829,10.678 29.998,11.333 30.001,12L16.001,12L16.001,26C16.001,26.53 15.79,27.039 15.415,27.414C15.04,27.789 14.531,28 14.001,28C13.471,28 12.962,27.789 12.587,27.414C12.212,27.039 12.001,26.53 12.001,26L12.001,12L6.001,12C6.001,10.939 6.422,9.922 7.173,9.172C7.923,8.421 8.94,8 10.001,8L10.001,8ZM32.001,42C32.001,42.53 31.79,43.039 31.415,43.414C31.04,43.789 30.531,44 30.001,44L6.001,44C5.471,44 4.962,43.789 4.587,43.414C4.212,43.039 4.001,42.53 4.001,42L4.001,16L8.001,16L8.001,26C8.001,27.591 8.633,29.117 9.758,30.243C10.884,31.368 12.41,32 14.001,32C15.592,32 17.118,31.368 18.244,30.243C19.369,29.117 20.001,27.591 20.001,26L20.001,16L32.001,16L32.001,42ZM40.001,34L36.001,34L36.001,22L38.001,22C38.531,22 39.04,22.211 39.415,22.586C39.79,22.961 40.001,23.47 40.001,24L40.001,34Z" fill="#374957"/>
</svg>
