<svg width="36" height="48" viewBox="0 0 36 48" fill="none" xmlns="http://www.w3.org/2000/svg" xmlns:xlink="http://www.w3.org/1999/xlink">
<path d="M24,48C20.498,48.002 17.038,47.239 13.863,45.762C10.688,44.285 7.874,42.132 5.619,39.452C3.365,36.772 1.724,33.632 0.812,30.251C-0.1,26.87 -0.261,23.33 0.34,19.88C0.941,16.43 2.29,13.154 4.291,10.281C6.293,7.407 8.9,5.007 11.928,3.248C14.956,1.489 18.332,0.414 21.819,0.098C25.307,-0.218 28.822,0.233 32.116,1.42C33.103,1.774 33.977,2.386 34.646,3.193C35.316,4 35.757,4.971 35.923,6.006C36.089,7.041 35.975,8.102 35.592,9.078C35.208,10.054 34.57,10.909 33.744,11.554C23.544,19.394 23.568,28.632 33.744,36.446C34.57,37.092 35.208,37.947 35.591,38.923C35.974,39.899 36.088,40.96 35.921,41.995C35.755,43.03 35.313,44.002 34.643,44.808C33.973,45.614 33.099,46.226 32.112,46.58C29.508,47.51 26.765,47.99 24,48L24,48ZM24,6C21.384,5.997 18.798,6.565 16.423,7.663C14.049,8.762 11.942,10.365 10.25,12.36C8.558,14.356 7.322,16.697 6.627,19.219C5.932,21.742 5.795,24.385 6.226,26.966C6.658,29.547 7.646,32.002 9.123,34.162C10.6,36.322 12.531,38.133 14.779,39.471C17.028,40.808 19.542,41.639 22.144,41.906C24.747,42.173 27.377,41.869 29.85,41.016C16.828,30.886 16.872,17.078 29.85,6.984C27.965,6.346 25.99,6.014 24,6L24,6Z" fill="#374957"/>
</svg>
