<svg width="48" height="48" viewBox="0 0 48 48" fill="none" xmlns="http://www.w3.org/2000/svg" xmlns:xlink="http://www.w3.org/1999/xlink">
<path d="M24,0C17.635,0 11.53,2.529 7.029,7.029C2.529,11.53 0,17.635 0,24C0,30.365 2.529,36.47 7.029,40.971C11.53,45.471 17.635,48 24,48L48,48L48,24C47.993,17.637 45.462,11.536 40.963,7.037C36.464,2.538 30.363,0.007 24,0L24,0ZM23.818,32.838C23.068,33.585 22.053,34.004 20.995,34.004C19.937,34.004 18.922,33.585 18.172,32.838L10.6,25.43L13.4,22.57L20.986,29.984L34.598,16.584L37.398,19.432L23.818,32.838Z" fill="#374957"/>
</svg>
