<svg width="48" height="48" viewBox="0 0 48 48" fill="none" xmlns="http://www.w3.org/2000/svg" xmlns:xlink="http://www.w3.org/1999/xlink">
<path d="M38,6C39.302,4.271 40.005,2.164 40,0L36,0C36,1.591 35.368,3.117 34.243,4.243C33.117,5.368 31.591,6 30,6L18,6C16.409,6 14.883,5.368 13.757,4.243C12.632,3.117 12,1.591 12,0L8,0C7.995,2.164 8.698,4.271 10,6L0,6L0,8C0.14,10.159 0.809,12.25 1.949,14.089C3.088,15.928 4.663,17.458 6.534,18.544L12,42.258C12.067,43.804 12.728,45.265 13.846,46.335C14.964,47.405 16.452,48.001 18,48L30,48C31.548,48.001 33.036,47.405 34.154,46.335C35.272,45.265 35.933,43.804 36,42.258L41.466,18.544C43.337,17.458 44.912,15.928 46.051,14.089C47.191,12.25 47.86,10.159 48,8L48,6L38,6ZM31.376,10C33.57,11.593 35.412,13.62 36.788,15.956C35.412,15.871 34.032,16.066 32.734,16.531C31.436,16.996 30.246,17.721 29.236,18.66C28.227,19.6 27.42,20.736 26.863,21.997C26.307,23.259 26.013,24.621 26,26L26,36L22,36L22,26C21.987,24.621 21.693,23.259 21.137,21.997C20.58,20.736 19.773,19.6 18.764,18.66C17.754,17.721 16.564,16.996 15.266,16.531C13.968,16.066 12.588,15.871 11.212,15.956C12.588,13.62 14.43,11.593 16.624,10L31.376,10ZM10.652,10C9.441,11.339 8.382,12.808 7.494,14.38C6.074,13.234 4.998,11.718 4.384,10L10.652,10ZM12,20C12.706,19.999 13.406,20.124 14.068,20.368C13.966,20.858 13.987,21.365 14.13,21.844C14.273,22.324 14.533,22.76 14.887,23.113C15.24,23.467 15.676,23.727 16.156,23.87C16.635,24.013 17.142,24.034 17.632,23.932C17.876,24.594 18.001,25.294 18,26L18,36C16.896,35.998 15.813,36.304 14.872,36.882L10.966,19.952C11.304,19.984 11.648,20 12,20ZM30,44L18,44C17.47,44 16.961,43.789 16.586,43.414C16.211,43.039 16,42.53 16,42C16,41.47 16.211,40.961 16.586,40.586C16.961,40.211 17.47,40 18,40L30,40C30.53,40 31.039,40.211 31.414,40.586C31.789,40.961 32,41.47 32,42C32,42.53 31.789,43.039 31.414,43.414C31.039,43.789 30.53,44 30,44ZM33.128,36.882C32.187,36.304 31.104,35.998 30,36L30,26C29.999,25.294 30.124,24.594 30.368,23.932C30.858,24.034 31.365,24.013 31.844,23.87C32.324,23.727 32.76,23.467 33.113,23.113C33.467,22.76 33.727,22.324 33.87,21.844C34.013,21.365 34.034,20.858 33.932,20.368C34.937,20.064 35.984,19.924 37.034,19.952L33.128,36.882ZM40.506,14.38C39.618,12.808 38.559,11.339 37.348,10L43.616,10C43.002,11.718 41.926,13.234 40.506,14.38L40.506,14.38Z" fill="#374957"/>
</svg>
