<svg width="48" height="48" viewBox="0 0 48 48" fill="none" xmlns="http://www.w3.org/2000/svg" xmlns:xlink="http://www.w3.org/1999/xlink">
<path d="M48,10L40.828,10L47.414,3.414L44.586,0.586L38,7.172L38,0L34,0L34,10.912C32.363,9.169 30.431,7.73 28.292,6.66C26.791,5.998 25.114,5.844 23.517,6.222C21.921,6.601 20.491,7.49 19.446,8.756C14.62,13.582 3.416,40.2 2.154,43.23L0.278,47.722L4.772,45.846C7.792,44.584 34.42,33.38 39.244,28.554C40.51,27.51 41.399,26.08 41.778,24.484C42.157,22.888 42.004,21.211 41.342,19.71C40.271,17.571 38.831,15.638 37.088,14L48,14L48,10ZM36.416,25.726C34.964,26.946 33.379,27.998 31.69,28.862L26.914,24.086L24.086,26.914L28,30.832C22.168,33.832 14.432,37.35 7.774,40.232C9.448,36.35 11.346,32.102 13.23,28.072L17.21,32.04L20.04,29.21L15.058,24.23C16.858,20.506 18.578,17.196 19.996,14.83L25.086,19.92L27.914,17.092L22.348,11.52C24.042,9.942 25.08,9.676 26.714,10.336C28.983,11.63 31.016,13.298 32.73,15.268C34.701,16.983 36.369,19.017 37.664,21.286C38.162,22.446 38.356,23.788 36.416,25.726Z" fill="#374957"/>
</svg>
