<svg width="48" height="48" viewBox="0 0 48 48" fill="none" xmlns="http://www.w3.org/2000/svg" xmlns:xlink="http://www.w3.org/1999/xlink">
<path d="M24,18.014C22.022,18.014 20.088,18.6 18.443,19.699C16.799,20.798 15.516,22.36 14.759,24.187C14.002,26.015 13.804,28.026 14.19,29.966C14.576,31.906 15.529,33.688 16.928,35.086L24,42.4L31.086,35.062C32.478,33.662 33.423,31.88 33.804,29.943C34.185,28.006 33.984,25.999 33.226,24.176C32.468,22.353 31.188,20.795 29.546,19.698C27.904,18.602 25.974,18.016 24,18.014ZM24,31.988C23.209,31.988 22.436,31.754 21.778,31.314C21.12,30.875 20.607,30.25 20.305,29.519C20.002,28.788 19.923,27.984 20.077,27.208C20.231,26.432 20.612,25.719 21.172,25.16C21.731,24.6 22.444,24.219 23.22,24.065C23.996,23.911 24.8,23.99 25.531,24.293C26.262,24.595 26.886,25.108 27.326,25.766C27.765,26.424 28,27.197 28,27.988C28,29.049 27.579,30.067 26.828,30.817C26.078,31.567 25.061,31.988 24,31.988ZM45.698,15.362L27.698,1.274C26.642,0.447 25.339,-0.002 23.998,-0.002C22.657,-0.002 21.354,0.447 20.298,1.274L2.298,15.358C1.58,15.919 0.999,16.637 0.601,17.457C0.202,18.277 -0.003,19.177 0,20.088L0,48L48,48L48,20.088C48.002,19.177 47.796,18.277 47.397,17.458C46.998,16.639 46.417,15.922 45.698,15.362L45.698,15.362ZM33.898,37.914L24.21,47.8L14.116,37.93C12.154,35.975 10.817,33.481 10.273,30.765C9.729,28.05 10.002,25.233 11.059,22.673C12.116,20.113 13.909,17.924 16.21,16.382C18.512,14.841 21.219,14.017 23.989,14.015C26.759,14.013 29.467,14.832 31.771,16.37C34.075,17.907 35.871,20.094 36.932,22.652C37.993,25.211 38.271,28.026 37.732,30.743C37.192,33.46 35.859,35.956 33.9,37.914L33.898,37.914Z" fill="#374957"/>
</svg>
