<svg width="50" height="48" viewBox="0 0 50 48" fill="none" xmlns="http://www.w3.org/2000/svg" xmlns:xlink="http://www.w3.org/1999/xlink">
<path d="M36,-0.001C33.341,-0.001 30.7,0.414 28.17,1.229C26.826,1.694 25.42,1.954 24,1.999C22.579,1.954 21.173,1.694 19.83,1.229C17.299,0.415 14.658,0 12,-0.001C10.407,-0.062 8.82,0.207 7.337,0.789C5.854,1.371 4.507,2.252 3.38,3.379C2.253,4.506 1.372,5.853 0.79,7.336C0.208,8.819 -0.061,10.406 0,11.999C0,26.121 8.058,39.999 12.866,47.999L20,47.999L20,30.213C19.978,29.239 20.299,28.289 20.908,27.528C21.516,26.767 22.373,26.245 23.328,26.053C23.902,25.955 24.49,25.983 25.052,26.137C25.614,26.29 26.136,26.564 26.581,26.94C27.025,27.316 27.383,27.784 27.628,28.312C27.873,28.841 28,29.416 28,29.999L28,47.999L35.134,47.999C39.944,39.999 48,26.119 48,11.999C48.06,10.406 47.791,8.819 47.209,7.336C46.627,5.853 45.746,4.506 44.619,3.379C43.492,2.252 42.145,1.371 40.662,0.789C39.179,0.207 37.592,-0.062 36,-0.001L36,-0.001Z" fill="#374957"/>
</svg>
