<svg width="48" height="18" viewBox="0 0 48 18" fill="none" xmlns="http://www.w3.org/2000/svg" xmlns:xlink="http://www.w3.org/1999/xlink">
<path d="M21.748,6C21.306,4.281 20.305,2.757 18.902,1.67C17.5,0.582 15.775,-0.008 14,-0.008C12.225,-0.008 10.5,0.582 9.098,1.67C7.695,2.757 6.694,4.281 6.252,6L0,6L0,10L6.252,10C6.694,11.719 7.695,13.242 9.098,14.33C10.5,15.417 12.225,16.007 14,16.007C15.775,16.007 17.5,15.417 18.902,14.33C20.305,13.242 21.306,11.719 21.748,10L48,10L48,6L21.748,6Z" fill="#374957"/>
</svg>
