<svg width="48" height="48" viewBox="0 0 48 48" fill="none" xmlns="http://www.w3.org/2000/svg" xmlns:xlink="http://www.w3.org/1999/xlink">
<path d="M42,3.998L32.92,3.998C31.799,2.74 30.425,1.734 28.888,1.044C27.351,0.355 25.685,-0.001 24,-0.001C22.315,-0.001 20.649,0.355 19.112,1.044C17.575,1.734 16.201,2.74 15.08,3.998L6,3.998C4.409,3.998 2.883,4.631 1.757,5.756C0.632,6.881 0,8.407 0,9.998L0,47.999L48,47.999L48,9.998C48,8.407 47.368,6.881 46.243,5.756C45.117,4.631 43.591,3.998 42,3.998ZM24,3.998C26.122,3.998 28.157,4.841 29.657,6.342C31.157,7.842 32,9.877 32,11.998L32,13.998L25.236,13.998L27.8,8.892L24.22,7.104L20.764,13.998L16,13.998L16,11.998C16,9.877 16.843,7.842 18.343,6.342C19.843,4.841 21.878,3.998 24,3.998L24,3.998ZM44,43.999L4,43.999L4,9.998C4,9.468 4.211,8.959 4.586,8.584C4.961,8.209 5.47,7.998 6,7.998L12.7,7.998C12.24,9.282 12.003,10.635 12,11.998L12,17.998L36,17.998L36,11.998C35.997,10.635 35.76,9.282 35.3,7.998L42,7.998C42.53,7.998 43.039,8.209 43.414,8.584C43.789,8.959 44,9.468 44,9.998L44,43.999Z" fill="#374957"/>
</svg>
