<svg width="48" height="46" viewBox="0 0 48 46" fill="none" xmlns="http://www.w3.org/2000/svg" xmlns:xlink="http://www.w3.org/1999/xlink">
<path d="M48,14.013L40,19.977L40,15.999C40,14.407 39.368,12.881 38.243,11.756C37.117,10.631 35.591,9.999 34,9.999L29.83,9.999L19.83,-0.001L0,-0.001L0,3.999L18.172,3.999L24.172,9.999L6,9.999C4.409,9.999 2.883,10.631 1.757,11.756C0.632,12.881 0,14.407 0,15.999L0,45.999L40,45.999L40,36.021L48,41.985L48,14.013ZM36,41.999L4,41.999L4,15.999C4,15.468 4.211,14.96 4.586,14.585C4.961,14.209 5.47,13.999 6,13.999L34,13.999C34.53,13.999 35.039,14.209 35.414,14.585C35.789,14.96 36,15.468 36,15.999L36,41.999ZM44,34.013L40,31.031L40,24.967L44,21.985L44,34.013Z" fill="#374957"/>
</svg>
