<svg width="48" height="44" viewBox="0 0 48 44" fill="none" xmlns="http://www.w3.org/2000/svg" xmlns:xlink="http://www.w3.org/1999/xlink">
<path d="M47.642,20.362C45.709,16.171 42.879,12.457 39.352,9.482L45.416,3.418L42.586,0.586L36,7.166C32.354,5.057 28.211,3.964 24,4C9,4 2.114,16.522 0.358,20.362C0.122,20.877 0,21.436 0,22.002C0,22.568 0.122,23.127 0.358,23.642C2.29,27.833 5.12,31.547 8.648,34.522L2.586,40.586L5.414,43.414L12,36.834C15.645,38.943 19.789,40.036 24,40C39,40 45.886,27.478 47.642,23.638C47.877,23.124 47.999,22.565 47.999,22C47.999,21.435 47.877,20.876 47.642,20.362L47.642,20.362ZM12,22C11.996,19.797 12.6,17.636 13.744,15.754C14.889,13.872 16.53,12.342 18.488,11.332C20.446,10.322 22.644,9.872 24.841,10.03C27.038,10.189 29.149,10.95 30.942,12.23L28.038,15.134C26.819,14.399 25.423,14.007 24,14C21.878,14 19.843,14.843 18.343,16.343C16.843,17.843 16,19.878 16,22C16.007,23.424 16.399,24.819 17.134,26.038L14.23,28.942C12.78,26.918 12,24.49 12,22L12,22ZM24,34C21.51,34 19.082,33.22 17.058,31.77L19.962,28.866C21.181,29.601 22.576,29.993 24,30C26.121,30 28.156,29.157 29.657,27.657C31.157,26.157 32,24.122 32,22C31.993,20.576 31.601,19.181 30.866,17.962L33.77,15.058C35.05,16.851 35.811,18.961 35.969,21.159C36.128,23.356 35.677,25.554 34.668,27.512C33.658,29.469 32.128,31.111 30.246,32.255C28.364,33.4 26.203,34.004 24,34L24,34Z" fill="#374957"/>
</svg>
