<svg width="48" height="40" viewBox="0 0 48 40" fill="none" xmlns="http://www.w3.org/2000/svg" xmlns:xlink="http://www.w3.org/1999/xlink">
<path d="M15.1,39.5C33.209,39.5 43.117,24.493 43.117,11.484C43.117,11.062 43.107,10.631 43.088,10.209C45.016,8.815 46.679,7.089 48,5.111C46.205,5.909 44.299,6.431 42.348,6.657C44.403,5.426 45.941,3.491 46.678,1.212C44.745,2.357 42.631,3.165 40.427,3.601C38.942,2.023 36.978,0.978 34.839,0.628C32.701,0.278 30.506,0.642 28.595,1.664C26.685,2.686 25.164,4.309 24.268,6.283C23.372,8.256 23.151,10.469 23.639,12.581C19.725,12.384 15.896,11.367 12.4,9.596C8.904,7.825 5.819,5.339 3.346,2.299C2.089,4.466 1.704,7.031 2.27,9.472C2.836,11.913 4.31,14.047 6.393,15.44C4.829,15.39 3.3,14.969 1.931,14.212L1.931,14.334C1.93,16.608 2.716,18.813 4.157,20.574C5.597,22.334 7.603,23.541 9.833,23.99C8.384,24.386 6.864,24.444 5.39,24.159C6.019,26.115 7.243,27.826 8.892,29.053C10.54,30.28 12.53,30.961 14.585,31.003C11.097,33.742 6.788,35.228 2.353,35.221C1.567,35.22 0.781,35.172 0,35.077C4.506,37.968 9.747,39.503 15.1,39.5Z" fill="#0059B1"/>
</svg>
