<svg width="48" height="48" viewBox="0 0 48 48" fill="none" xmlns="http://www.w3.org/2000/svg" xmlns:xlink="http://www.w3.org/1999/xlink">
<path d="M48,6C48,4.409 47.368,2.883 46.243,1.757C45.117,0.632 43.591,0 42,0L22,0C20.409,0 18.883,0.632 17.757,1.757C16.632,2.883 16,4.409 16,6L16,10L14,10C12.409,10 10.883,10.632 9.757,11.757C8.632,12.883 8,14.409 8,16L8,20L6,20C4.409,20 2.883,20.632 1.757,21.757C0.632,22.883 0,24.409 0,26L0,48L32,48L32,38L40,38L40,28L48,28L48,6ZM6,24L26,24C26.53,24 27.039,24.211 27.414,24.586C27.789,24.961 28,25.47 28,26L28,27.172L20,35.172L16.106,31.276L4,41.652L4,26C4,25.47 4.211,24.961 4.586,24.586C4.961,24.211 5.47,24 6,24L6,24ZM28,44L7.4,44L15.888,36.724L20,40.828L28,32.828L28,44ZM36,34L32,34L32,26C32,24.409 31.368,22.883 30.243,21.757C29.117,20.632 27.591,20 26,20L12,20L12,16C12,15.47 12.211,14.961 12.586,14.586C12.961,14.211 13.47,14 14,14L34,14C34.53,14 35.039,14.211 35.414,14.586C35.789,14.961 36,15.47 36,16L36,34ZM44,24L40,24L40,16C40,14.409 39.368,12.883 38.243,11.757C37.117,10.632 35.591,10 34,10L20,10L20,6C20,5.47 20.211,4.961 20.586,4.586C20.961,4.211 21.47,4 22,4L42,4C42.53,4 43.039,4.211 43.414,4.586C43.789,4.961 44,5.47 44,6L44,24ZM8,30C8,29.604 8.117,29.218 8.337,28.889C8.557,28.56 8.869,28.304 9.235,28.152C9.6,28.001 10.002,27.961 10.39,28.038C10.778,28.116 11.135,28.306 11.414,28.586C11.694,28.865 11.884,29.222 11.962,29.61C12.039,29.998 11.999,30.4 11.848,30.765C11.696,31.131 11.44,31.443 11.111,31.663C10.782,31.883 10.396,32 10,32C9.47,32 8.961,31.789 8.586,31.414C8.211,31.039 8,30.53 8,30Z" fill="#374957"/>
</svg>
