<svg width="48" height="48" viewBox="0 0 48 48" fill="none" xmlns="http://www.w3.org/2000/svg" xmlns:xlink="http://www.w3.org/1999/xlink">
<path d="M20,24C20.003,23.034 20.359,22.102 21,21.38L21,14C21,13.204 21.316,12.441 21.879,11.879C22.441,11.316 23.204,11 24,11C24.796,11 25.559,11.316 26.121,11.879C26.684,12.441 27,13.204 27,14L27,21.38C27.644,22.101 28,23.033 28,24C28,24.967 27.644,25.899 27,26.62L27,31C27,31.796 26.684,32.559 26.121,33.121C25.559,33.684 24.796,34 24,34C23.204,34 22.441,33.684 21.879,33.121C21.316,32.559 21,31.796 21,31L21,26.62C20.359,25.897 20.004,24.966 20,24L20,24ZM24,0C23.204,0 22.441,0.316 21.879,0.879C21.316,1.441 21,2.204 21,3C21,3.796 21.316,4.559 21.879,5.121C22.441,5.684 23.204,6 24,6C28.774,6 33.352,7.896 36.728,11.272C40.104,14.648 42,19.226 42,24C42,28.774 40.104,33.352 36.728,36.728C33.352,40.104 28.774,42 24,42C23.204,42 22.441,42.316 21.879,42.879C21.316,43.441 21,44.204 21,45C21,45.796 21.316,46.559 21.879,47.121C22.441,47.684 23.204,48 24,48C30.365,48 36.47,45.471 40.971,40.971C45.471,36.47 48,30.365 48,24C48,17.635 45.471,11.53 40.971,7.029C36.47,2.529 30.365,0 24,0L24,0ZM6,24C6,23.407 5.824,22.827 5.494,22.333C5.165,21.84 4.696,21.455 4.148,21.228C3.6,21.001 2.997,20.942 2.415,21.058C1.833,21.173 1.298,21.459 0.879,21.879C0.459,22.298 0.173,22.833 0.058,23.415C-0.058,23.997 0.001,24.6 0.228,25.148C0.455,25.696 0.84,26.165 1.333,26.494C1.827,26.824 2.407,27 3,27C3.796,27 4.559,26.684 5.121,26.121C5.684,25.559 6,24.796 6,24ZM13.48,2.788C12.887,2.788 12.307,2.964 11.813,3.294C11.32,3.623 10.935,4.092 10.708,4.64C10.481,5.188 10.422,5.791 10.538,6.373C10.653,6.955 10.939,7.49 11.359,7.909C11.778,8.329 12.313,8.615 12.895,8.73C13.477,8.846 14.08,8.787 14.628,8.56C15.176,8.333 15.645,7.948 15.974,7.455C16.304,6.961 16.48,6.381 16.48,5.788C16.48,4.992 16.164,4.229 15.601,3.667C15.039,3.104 14.276,2.788 13.48,2.788ZM5.826,10.5C5.233,10.5 4.653,10.676 4.159,11.006C3.666,11.335 3.281,11.804 3.054,12.352C2.827,12.9 2.768,13.503 2.884,14.085C2.999,14.667 3.285,15.202 3.705,15.621C4.124,16.041 4.659,16.327 5.241,16.442C5.823,16.558 6.426,16.499 6.974,16.272C7.522,16.045 7.991,15.66 8.32,15.167C8.65,14.673 8.826,14.093 8.826,13.5C8.826,12.704 8.51,11.941 7.947,11.379C7.385,10.816 6.622,10.5 5.826,10.5ZM13.48,39.212C12.887,39.212 12.307,39.388 11.813,39.718C11.32,40.047 10.935,40.516 10.708,41.064C10.481,41.612 10.422,42.215 10.538,42.797C10.653,43.379 10.939,43.914 11.359,44.333C11.778,44.753 12.313,45.039 12.895,45.154C13.477,45.27 14.08,45.211 14.628,44.984C15.176,44.757 15.645,44.372 15.974,43.879C16.304,43.385 16.48,42.805 16.48,42.212C16.48,41.416 16.164,40.653 15.601,40.091C15.039,39.528 14.276,39.212 13.48,39.212ZM5.826,31.5C5.233,31.5 4.653,31.676 4.159,32.006C3.666,32.335 3.281,32.804 3.054,33.352C2.827,33.9 2.768,34.503 2.884,35.085C2.999,35.667 3.285,36.202 3.705,36.621C4.124,37.041 4.659,37.327 5.241,37.442C5.823,37.558 6.426,37.499 6.974,37.272C7.522,37.045 7.991,36.66 8.32,36.167C8.65,35.673 8.826,35.093 8.826,34.5C8.826,33.704 8.51,32.941 7.947,32.379C7.385,31.816 6.622,31.5 5.826,31.5L5.826,31.5Z" fill="#374957"/>
</svg>
