<svg width="42" height="48" viewBox="0 0 42 48" fill="none" xmlns="http://www.w3.org/2000/svg" xmlns:xlink="http://www.w3.org/1999/xlink">
<path d="M19.999,47.998C19.58,47.998 19.165,47.91 18.781,47.74C17.999,47.398 -0.183,39.136 -0.183,23.998L-0.183,14.492C-0.185,12.183 0.54,9.931 1.891,8.058C3.241,6.184 5.148,4.784 7.339,4.056L19.049,0.152C19.666,-0.052 20.333,-0.052 20.949,0.152L32.659,4.056C34.851,4.784 36.757,6.184 38.108,8.058C39.458,9.931 40.184,12.183 40.181,14.492L40.181,23.998C40.181,41.234 21.733,47.582 20.949,47.844C20.643,47.946 20.322,47.998 19.999,47.998L19.999,47.998ZM19.999,6.16L9.237,9.748C8.242,10.08 7.375,10.716 6.761,11.568C6.148,12.419 5.817,13.442 5.817,14.492L5.817,23.998C5.817,33.468 16.659,39.902 20.153,41.728C23.667,40.262 34.181,34.962 34.181,23.998L34.181,14.492C34.181,13.442 33.851,12.419 33.237,11.568C32.623,10.716 31.757,10.08 30.761,9.748L19.999,6.16Z" fill="#374957"/>
</svg>
