<svg width="48" height="50" viewBox="0 0 48 50" fill="none" xmlns="http://www.w3.org/2000/svg" xmlns:xlink="http://www.w3.org/1999/xlink">
<path d="M48,40L29.632,40C29.333,39.164 28.852,38.404 28.224,37.776C27.596,37.148 26.836,36.667 26,36.368L26,28L32,28C34.516,28.001 36.94,27.054 38.789,25.347C40.637,23.639 41.774,21.298 41.973,18.79C42.172,16.281 41.417,13.79 39.861,11.813C38.304,9.837 36.059,8.519 33.574,8.124C32.881,5.553 31.277,3.321 29.06,1.845C26.843,0.368 24.166,-0.252 21.526,0.1C18.886,0.452 16.464,1.752 14.711,3.757C12.959,5.763 11.995,8.337 12,11C12.001,11.413 12.026,11.825 12.076,12.234C10.179,12.704 8.519,13.851 7.41,15.46C6.301,17.07 5.819,19.029 6.056,20.969C6.292,22.91 7.231,24.696 8.695,25.991C10.158,27.286 12.046,28.001 14,28L22,28L22,36.368C21.164,36.667 20.404,37.148 19.776,37.776C19.148,38.404 18.667,39.164 18.368,40L0,40L0,44L18.368,44C18.775,45.169 19.536,46.183 20.545,46.9C21.555,47.617 22.762,48.002 24,48.002C25.238,48.002 26.445,47.617 27.455,46.9C28.464,46.183 29.225,45.169 29.632,44L48,44L48,40ZM10,20C10.002,19.47 10.109,18.945 10.315,18.457C10.522,17.968 10.823,17.525 11.203,17.154C11.582,16.784 12.031,16.492 12.524,16.296C13.017,16.1 13.544,16.005 14.074,16.014L14.104,16.014L17.53,16.356L16.45,13.374C16.161,12.616 16.008,11.812 16,11C15.994,9.213 16.674,7.491 17.9,6.19C19.127,4.89 20.806,4.109 22.59,4.011C24.375,3.912 26.13,4.502 27.492,5.659C28.855,6.817 29.721,8.453 29.912,10.23L30.112,12.01L32.122,12.01C33.67,12.087 35.129,12.761 36.192,13.889C37.254,15.018 37.839,16.514 37.824,18.064C37.808,19.614 37.193,21.098 36.107,22.205C35.021,23.311 33.55,23.955 32,24L14,24C12.939,24 11.922,23.579 11.172,22.829C10.421,22.079 10,21.061 10,20ZM24,44C23.604,44 23.218,43.883 22.889,43.663C22.56,43.444 22.304,43.131 22.152,42.766C22.001,42.4 21.961,41.998 22.038,41.61C22.116,41.222 22.306,40.866 22.586,40.586C22.865,40.306 23.222,40.116 23.61,40.039C23.998,39.962 24.4,40.001 24.765,40.153C25.131,40.304 25.443,40.56 25.663,40.889C25.883,41.218 26,41.605 26,42C26,42.531 25.789,43.04 25.414,43.415C25.039,43.79 24.53,44 24,44Z" fill="#374957"/>
</svg>
