<svg width="50" height="48" viewBox="0 0 50 48" fill="none" xmlns="http://www.w3.org/2000/svg" xmlns:xlink="http://www.w3.org/1999/xlink">
<path d="M12,37.999C12,38.53 11.789,39.039 11.414,39.414C11.039,39.789 10.53,39.999 10,39.999C9.47,39.999 8.961,39.789 8.586,39.414C8.211,39.039 8,38.53 8,37.999C8,37.469 8.211,36.96 8.586,36.585C8.961,36.21 9.47,35.999 10,35.999C10.53,35.999 11.039,36.21 11.414,36.585C11.789,36.96 12,37.469 12,37.999L12,37.999ZM48,13.999C48.037,14.517 47.966,15.037 47.791,15.526C47.616,16.015 47.341,16.462 46.983,16.839C46.626,17.215 46.193,17.513 45.714,17.713C45.235,17.913 44.719,18.01 44.2,17.999L33.962,17.999C33.924,20.125 33.84,22.141 33.676,23.999L40.076,23.999L40.076,25.999C40.077,28.013 39.883,30.023 39.496,31.999C39.265,33.13 38.65,34.147 37.755,34.876C36.86,35.605 35.74,36.002 34.586,35.999L30.878,35.999C26.776,44.929 18.128,47.999 2,47.999L0,47.999L0,45.999C0,36.231 1.14,29.229 4,24.287L4,16.879C4,15.779 4.303,14.7 4.875,13.76C5.447,12.82 6.266,12.055 7.244,11.549C11.801,9.175 16.862,7.931 22,7.923L24,7.923L24,14.323C25.858,14.159 27.874,14.075 30,14.037L30,3.799C30.6,-2.985 40.744,0.163 41.81,6.199C43.558,6.634 45.113,7.635 46.233,9.046C47.353,10.456 47.974,12.198 48,13.999ZM8,16.879L8,19.575C11.507,16.95 15.648,15.302 20,14.799L20,11.999C16.195,12.293 12.488,13.345 9.096,15.093C8.767,15.262 8.491,15.518 8.298,15.833C8.105,16.148 8.002,16.51 8,16.879L8,16.879ZM4.016,43.983C8.579,44.046 13.129,43.482 17.538,42.307C16.843,39.436 15.369,36.811 13.278,34.723C11.188,32.634 8.562,31.162 5.69,30.469C4.517,34.876 3.954,39.423 4.016,43.983L4.016,43.983ZM29.984,18.015C17.552,18.215 10.714,20.391 7.212,26.747C10.568,27.671 13.626,29.45 16.088,31.911C18.549,34.372 20.33,37.43 21.254,40.785C27.6,37.285 29.784,30.447 29.984,18.015ZM33.2,27.999C32.983,29.347 32.693,30.683 32.332,31.999L34.588,31.999C34.816,32.004 35.039,31.929 35.219,31.787C35.398,31.646 35.523,31.447 35.572,31.223C35.779,30.158 35.922,29.082 36,27.999L33.2,27.999ZM44,13.999C43.973,12.947 43.542,11.946 42.798,11.201C42.054,10.457 41.052,10.027 40,9.999L38,9.999L38,7.999C37.975,6.947 37.545,5.944 36.8,5.199C36.056,4.454 35.053,4.025 34,3.999L34,13.999L44,13.999Z" fill="#374957"/>
</svg>
