<svg width="48" height="48" viewBox="0 0 48 48" fill="none" xmlns="http://www.w3.org/2000/svg" xmlns:xlink="http://www.w3.org/1999/xlink">
<path d="M42,32.001L42,24.001C41.999,21.311 41.392,18.656 40.225,16.232C39.058,13.808 37.36,11.679 35.258,10.001L40.554,10.001C40.997,10.756 41.677,11.344 42.488,11.674C43.299,12.004 44.197,12.057 45.041,11.825C45.886,11.594 46.63,11.09 47.16,10.393C47.689,9.695 47.974,8.843 47.97,7.967C47.966,7.091 47.674,6.242 47.138,5.549C46.602,4.856 45.853,4.359 45.007,4.135C44.16,3.912 43.263,3.973 42.455,4.31C41.647,4.647 40.972,5.241 40.536,6.001L31.716,6.001C31.279,4.285 30.284,2.765 28.887,1.678C27.489,0.592 25.77,0.002 24,0.002C22.23,0.002 20.511,0.592 19.113,1.678C17.716,2.765 16.721,4.285 16.284,6.001L7.446,6.001C7.003,5.245 6.323,4.657 5.512,4.327C4.701,3.998 3.803,3.944 2.959,4.176C2.114,4.407 1.37,4.911 0.84,5.608C0.311,6.306 0.026,7.158 0.03,8.034C0.034,8.91 0.326,9.76 0.862,10.452C1.398,11.145 2.147,11.642 2.993,11.866C3.84,12.09 4.737,12.028 5.545,11.691C6.353,11.354 7.028,10.76 7.464,10.001L12.742,10.001C10.64,11.679 8.942,13.808 7.775,16.232C6.608,18.656 6.001,21.311 6,24.001L6,32.001L0,32.001L0,42.001C0,43.592 0.632,45.118 1.757,46.243C2.883,47.368 4.409,48.001 6,48.001L16,48.001L16,32.001L10,32.001L10,24.001C10.003,21.538 10.656,19.12 11.892,16.991C13.129,14.862 14.906,13.097 17.044,11.875C17.726,13.124 18.732,14.166 19.956,14.892C21.18,15.618 22.577,16.001 24,16.001C25.423,16.001 26.82,15.618 28.044,14.892C29.268,14.166 30.274,13.124 30.956,11.875C33.094,13.097 34.871,14.862 36.108,16.991C37.344,19.12 37.997,21.538 38,24.001L38,32.001L32,32.001L32,48.001L42,48.001C43.591,48.001 45.117,47.368 46.243,46.243C47.368,45.118 48,43.592 48,42.001L48,32.001L42,32.001ZM12,44.001L6,44.001C5.47,44.001 4.961,43.79 4.586,43.415C4.211,43.04 4,42.531 4,42.001L4,36.001L12,36.001L12,44.001ZM24,12.001C23.209,12.001 22.436,11.766 21.778,11.326C21.12,10.887 20.607,10.262 20.304,9.531C20.002,8.8 19.923,7.996 20.077,7.22C20.231,6.444 20.612,5.732 21.172,5.172C21.731,4.613 22.444,4.232 23.22,4.077C23.996,3.923 24.8,4.002 25.531,4.305C26.262,4.608 26.886,5.121 27.326,5.778C27.765,6.436 28,7.209 28,8.001C28,9.061 27.579,10.079 26.828,10.829C26.078,11.579 25.061,12.001 24,12.001ZM44,42.001C44,42.531 43.789,43.04 43.414,43.415C43.039,43.79 42.53,44.001 42,44.001L36,44.001L36,36.001L44,36.001L44,42.001Z" fill="#374957"/>
</svg>
