<svg width="48" height="40" viewBox="0 0 48 40" fill="none" xmlns="http://www.w3.org/2000/svg" xmlns:xlink="http://www.w3.org/1999/xlink">
<path d="M48,6C48,4.409 47.368,2.883 46.243,1.758C45.117,0.633 43.591,0 42,0L15.516,0L0,20L15.516,40L42,40C43.591,40 45.117,39.368 46.243,38.243C47.368,37.118 48,35.592 48,34L48,6ZM35.918,25.086L33.09,27.914L28,22.828L22.914,27.914L20.086,25.086L25.172,20L20.086,14.914L22.914,12.086L28,17.172L33.086,12.086L35.914,14.914L30.828,20L35.918,25.086Z" fill="#374957"/>
</svg>
