<svg width="48" height="48" viewBox="0 0 48 48" fill="none" xmlns="http://www.w3.org/2000/svg" xmlns:xlink="http://www.w3.org/1999/xlink">
<path d="M40.001,26L40.001,22L47.899,22C47.42,16.353 44.959,11.057 40.951,7.049C36.944,3.042 31.648,0.581 26.001,0.102L26.001,8L22.001,8L22.001,0.102C16.353,0.581 11.057,3.042 7.05,7.049C3.042,11.057 0.581,16.353 0.103,22L8.001,22L8.001,26L0.103,26C0.581,31.648 3.042,36.943 7.05,40.951C11.057,44.959 16.353,47.419 22.001,47.898L22.001,40L26.001,40L26.001,47.898C31.648,47.419 36.944,44.959 40.951,40.951C44.959,36.943 47.42,31.648 47.899,26L40.001,26ZM30.001,26L26.001,26L26.001,30L22.001,30L22.001,26L18.001,26L18.001,22L22.001,22L22.001,18L26.001,18L26.001,22L30.001,22L30.001,26Z" fill="#374957"/>
</svg>
