<svg width="48" height="48" viewBox="0 0 48 48" fill="none" xmlns="http://www.w3.org/2000/svg" xmlns:xlink="http://www.w3.org/1999/xlink">
<path d="M20,47.999L0,47.999L0,43.999L20,43.999L20,47.999ZM16,35.999L0,35.999L0,39.999L16,39.999L16,35.999ZM12,27.999L0,27.999L0,31.999L12,31.999L12,27.999ZM47.982,23.051C48.106,26.279 47.578,29.499 46.429,32.518C45.28,35.537 43.533,38.294 41.295,40.623C39.056,42.952 36.37,44.806 33.399,46.073C30.427,47.34 27.231,47.995 24,47.999L24,43.999C24,42.938 23.579,41.92 22.828,41.17C22.078,40.42 21.061,39.999 20,39.999L20,35.999C20,34.938 19.579,33.92 18.828,33.17C18.078,32.42 17.061,31.999 16,31.999L16,27.999C16,26.938 15.579,25.92 14.828,25.17C14.078,24.42 13.061,23.999 12,23.999L0,23.999C0.004,20.768 0.659,17.571 1.927,14.6C3.194,11.628 5.048,8.943 7.377,6.704C9.706,4.465 12.463,2.719 15.482,1.57C18.502,0.421 21.722,-0.107 24.95,0.017C30.965,0.307 36.657,2.827 40.915,7.086C45.173,11.344 47.692,17.036 47.982,23.051ZM22,11.585L22,22.413L28.586,28.999L31.414,26.171L26,20.757L26,11.585L22,11.585Z" fill="#374957"/>
</svg>
