<svg width="34" height="48" viewBox="0 0 34 48" fill="none" xmlns="http://www.w3.org/2000/svg" xmlns:xlink="http://www.w3.org/1999/xlink">
<path d="M32.2,16C32.205,13.423 31.587,10.883 30.399,8.596C29.211,6.309 27.489,4.342 25.378,2.864C23.267,1.386 20.83,0.439 18.274,0.105C15.719,-0.229 13.121,0.059 10.701,0.945C8.28,1.831 6.11,3.288 4.374,5.193C2.638,7.098 1.388,9.394 0.73,11.886C0.072,14.377 0.026,16.991 0.595,19.505C1.165,22.018 2.333,24.357 4,26.322L4,42.294C3.998,43.369 4.299,44.422 4.87,45.332C5.441,46.243 6.258,46.973 7.227,47.439C8.195,47.904 9.276,48.086 10.344,47.964C11.411,47.841 12.422,47.419 13.26,46.746L16,44.546L18.738,46.746C19.577,47.417 20.588,47.838 21.655,47.959C22.722,48.081 23.802,47.899 24.77,47.433C25.738,46.968 26.554,46.239 27.126,45.33C27.698,44.42 28.001,43.368 28,42.294L28,26.774C30.701,23.836 32.199,19.991 32.2,16L32.2,16ZM16.2,6C18.178,6 20.111,6.586 21.756,7.685C23.4,8.784 24.682,10.346 25.439,12.173C26.196,14 26.394,16.011 26.008,17.951C25.622,19.891 24.67,21.673 23.271,23.071C21.873,24.47 20.091,25.422 18.151,25.808C16.211,26.194 14.201,25.996 12.373,25.239C10.546,24.482 8.984,23.2 7.885,21.556C6.787,19.911 6.2,17.978 6.2,16C6.203,13.349 7.258,10.807 9.133,8.932C11.007,7.058 13.549,6.003 16.2,6L16.2,6ZM18.62,38.974C17.877,38.373 16.95,38.045 15.994,38.045C15.038,38.045 14.111,38.373 13.368,38.974L10,41.67L10,30.746C13.826,32.364 18.134,32.418 22,30.898L22,41.67L18.62,38.974Z" fill="#374957"/>
</svg>
