<svg width="36" height="48" viewBox="0 0 36 48" fill="none" xmlns="http://www.w3.org/2000/svg" xmlns:xlink="http://www.w3.org/1999/xlink">
<path d="M16.382,18C16.508,17.476 16.676,16.964 16.886,16.468L18.036,14.082L19.112,16.466C19.322,16.963 19.491,17.476 19.618,18L16.382,18ZM36,6L36,48L0,48L0,6C0,4.409 0.632,2.883 1.757,1.757C2.883,0.632 4.409,0 6,0L30,0C31.591,0 33.117,0.632 34.243,1.757C35.368,2.883 36,4.409 36,6ZM12,24L16,24L16,22L20,22L20,24L24,24L24,20.586C24.002,18.597 23.579,16.631 22.758,14.82L21.714,12.516C21.421,11.779 20.915,11.146 20.261,10.697C19.607,10.248 18.835,10.003 18.041,9.994C17.248,9.986 16.47,10.213 15.807,10.647C15.143,11.082 14.623,11.704 14.314,12.434L13.242,14.822C12.421,16.633 11.997,18.598 12,20.586L12,24ZM20,40L16,40L16,44L20,44L20,40ZM26,28L10,28L10,32L26,32L26,28Z" fill="#374957"/>
</svg>
