<svg width="48" height="48" viewBox="0 0 48 48" fill="none" xmlns="http://www.w3.org/2000/svg" xmlns:xlink="http://www.w3.org/1999/xlink">
<path d="M24.001,48C22.49,48.012 21.014,47.55 19.78,46.679C18.545,45.807 17.615,44.571 17.121,43.144C17.06,42.971 16.963,42.814 16.837,42.681C16.711,42.549 16.558,42.445 16.389,42.376C16.221,42.304 16.039,42.269 15.857,42.274C15.674,42.278 15.495,42.322 15.331,42.402C13.969,43.049 12.44,43.258 10.954,43.001C9.469,42.744 8.099,42.034 7.033,40.968C5.967,39.902 5.257,38.532 5.001,37.046C4.744,35.56 4.954,34.032 5.601,32.67C5.68,32.504 5.724,32.324 5.729,32.14C5.735,31.957 5.701,31.774 5.631,31.604C5.561,31.435 5.456,31.281 5.323,31.155C5.19,31.028 5.032,30.931 4.859,30.87C3.438,30.365 2.208,29.432 1.339,28.2C0.47,26.969 0.003,25.498 0.003,23.99C0.003,22.482 0.47,21.011 1.339,19.78C2.208,18.548 3.438,17.615 4.859,17.11C5.031,17.048 5.189,16.951 5.322,16.824C5.455,16.698 5.559,16.544 5.629,16.375C5.699,16.205 5.732,16.023 5.727,15.839C5.722,15.656 5.678,15.475 5.599,15.31C4.959,13.949 4.755,12.423 5.015,10.942C5.274,9.46 5.985,8.095 7.05,7.033C8.115,5.97 9.482,5.263 10.964,5.006C12.446,4.75 13.971,4.957 15.331,5.6C15.496,5.68 15.676,5.724 15.86,5.729C16.044,5.734 16.226,5.701 16.396,5.631C16.566,5.561 16.719,5.456 16.846,5.323C16.972,5.189 17.069,5.031 17.131,4.858C17.636,3.437 18.568,2.208 19.8,1.339C21.032,0.469 22.503,0.002 24.011,0.002C25.518,0.002 26.989,0.469 28.221,1.339C29.453,2.208 30.385,3.437 30.891,4.858L30.891,4.858C30.952,5.031 31.049,5.189 31.176,5.323C31.302,5.456 31.455,5.561 31.625,5.631C31.795,5.701 31.978,5.734 32.161,5.729C32.345,5.724 32.525,5.68 32.691,5.6C34.052,4.961 35.577,4.757 37.058,5.017C38.539,5.277 39.904,5.987 40.966,7.052C42.028,8.116 42.736,9.482 42.993,10.964C43.25,12.446 43.043,13.97 42.401,15.33C42.32,15.495 42.276,15.676 42.27,15.86C42.265,16.043 42.298,16.226 42.368,16.396C42.438,16.566 42.543,16.72 42.677,16.846C42.81,16.972 42.969,17.069 43.143,17.13C44.563,17.635 45.793,18.568 46.662,19.8C47.531,21.031 47.998,22.502 47.998,24.01C47.998,25.518 47.531,26.989 46.662,28.22C45.793,29.452 44.563,30.385 43.143,30.89C42.969,30.951 42.81,31.048 42.677,31.174C42.543,31.3 42.438,31.454 42.368,31.624C42.298,31.794 42.265,31.977 42.27,32.16C42.276,32.344 42.32,32.525 42.401,32.69C43.04,34.051 43.244,35.576 42.984,37.057C42.724,38.538 42.013,39.903 40.949,40.965C39.885,42.028 38.518,42.735 37.037,42.992C35.555,43.249 34.03,43.042 32.671,42.4C32.506,42.322 32.327,42.28 32.144,42.276C31.962,42.271 31.781,42.305 31.613,42.374C31.443,42.443 31.29,42.547 31.164,42.679C31.038,42.812 30.941,42.969 30.881,43.142C30.386,44.569 29.456,45.806 28.222,46.677C26.988,47.549 25.511,48.011 24.001,48L24.001,48ZM15.891,36.278C17.399,36.277 18.87,36.743 20.102,37.613C21.334,38.482 22.267,39.711 22.773,41.132C22.853,41.392 23.017,41.618 23.239,41.775C23.461,41.932 23.729,42.011 24.001,42L24.001,42C24.272,42.011 24.54,41.932 24.762,41.775C24.984,41.618 25.148,41.392 25.229,41.132C25.571,40.169 26.112,39.289 26.817,38.548C27.521,37.807 28.373,37.223 29.317,36.832C30.261,36.441 31.277,36.252 32.299,36.279C33.321,36.305 34.326,36.545 35.249,36.984C35.492,37.099 35.764,37.136 36.029,37.09C36.294,37.044 36.538,36.917 36.728,36.727C36.918,36.537 37.044,36.293 37.09,36.028C37.136,35.763 37.099,35.491 36.985,35.248C36.546,34.325 36.305,33.32 36.279,32.298C36.253,31.277 36.441,30.261 36.832,29.316C37.223,28.372 37.808,27.52 38.549,26.816C39.289,26.112 40.17,25.571 41.133,25.228C41.387,25.138 41.607,24.972 41.763,24.752C41.918,24.532 42.002,24.269 42.002,24C42.002,23.731 41.918,23.468 41.763,23.248C41.607,23.028 41.387,22.862 41.133,22.772C40.17,22.429 39.289,21.888 38.549,21.184C37.808,20.48 37.223,19.628 36.832,18.684C36.441,17.739 36.253,16.723 36.279,15.702C36.305,14.68 36.546,13.675 36.985,12.752C37.099,12.509 37.136,12.237 37.09,11.972C37.044,11.707 36.918,11.463 36.728,11.273C36.538,11.083 36.294,10.956 36.029,10.91C35.764,10.864 35.492,10.901 35.249,11.016C34.326,11.455 33.321,11.695 32.299,11.721C31.277,11.748 30.261,11.559 29.317,11.168C28.373,10.777 27.521,10.193 26.817,9.452C26.112,8.711 25.571,7.831 25.229,6.868C25.139,6.614 24.973,6.394 24.753,6.238C24.533,6.082 24.27,5.999 24.001,5.999C23.731,5.999 23.468,6.082 23.248,6.238C23.028,6.394 22.862,6.614 22.773,6.868C22.43,7.831 21.889,8.711 21.185,9.452C20.481,10.193 19.629,10.777 18.685,11.168C17.741,11.559 16.725,11.748 15.704,11.721C14.682,11.695 13.677,11.455 12.755,11.016C12.512,10.901 12.239,10.863 11.974,10.909C11.708,10.955 11.464,11.081 11.274,11.271C11.083,11.461 10.956,11.706 10.91,11.971C10.864,12.236 10.901,12.509 11.017,12.752C11.455,13.675 11.695,14.68 11.721,15.701C11.748,16.723 11.559,17.738 11.169,18.683C10.778,19.627 10.194,20.479 9.453,21.183C8.713,21.887 7.833,22.429 6.871,22.772C6.616,22.862 6.396,23.028 6.241,23.248C6.085,23.468 6.001,23.731 6.001,24C6.001,24.269 6.085,24.532 6.241,24.752C6.396,24.972 6.616,25.138 6.871,25.228C7.833,25.571 8.714,26.112 9.454,26.816C10.195,27.52 10.78,28.372 11.171,29.316C11.562,30.261 11.75,31.277 11.724,32.298C11.698,33.32 11.457,34.325 11.019,35.248C10.903,35.491 10.866,35.764 10.912,36.029C10.958,36.294 11.085,36.539 11.276,36.729C11.466,36.919 11.71,37.045 11.976,37.091C12.241,37.137 12.514,37.099 12.757,36.984C13.736,36.519 14.806,36.278 15.891,36.278L15.891,36.278Z" fill="#374957"/>
</svg>
