<svg width="48" height="50" viewBox="0 0 48 50" fill="none" xmlns="http://www.w3.org/2000/svg" xmlns:xlink="http://www.w3.org/1999/xlink">
<path d="M48,40L29.632,40C29.333,39.164 28.852,38.404 28.224,37.776C27.596,37.148 26.836,36.667 26,36.368L26,28L32,28C34.516,28.001 36.94,27.054 38.789,25.347C40.637,23.639 41.774,21.298 41.973,18.79C42.172,16.281 41.417,13.79 39.861,11.813C38.304,9.837 36.059,8.519 33.574,8.124C32.881,5.553 31.277,3.321 29.06,1.845C26.843,0.368 24.166,-0.252 21.526,0.1C18.886,0.452 16.464,1.752 14.711,3.757C12.959,5.763 11.995,8.337 12,11C12.001,11.413 12.026,11.825 12.076,12.234C10.179,12.704 8.519,13.851 7.41,15.46C6.301,17.07 5.819,19.029 6.056,20.969C6.292,22.91 7.231,24.696 8.695,25.991C10.158,27.286 12.046,28.001 14,28L22,28L22,36.368C21.164,36.667 20.404,37.148 19.776,37.776C19.148,38.404 18.667,39.164 18.368,40L0,40L0,44L18.368,44C18.775,45.169 19.536,46.183 20.545,46.9C21.555,47.617 22.762,48.002 24,48.002C25.238,48.002 26.445,47.617 27.455,46.9C28.464,46.183 29.225,45.169 29.632,44L48,44L48,40Z" fill="#374957"/>
</svg>
