<svg width="48" height="48" viewBox="0 0 48 48" fill="none" xmlns="http://www.w3.org/2000/svg" xmlns:xlink="http://www.w3.org/1999/xlink">
<path d="M43.7,5.953L24.828,0.241C23.304,-0.202 21.667,-0.023 20.275,0.738C18.883,1.499 17.849,2.781 17.4,4.303L16.282,7.999L6,7.999C4.409,7.999 2.883,8.631 1.757,9.756C0.632,10.881 0,12.407 0,13.999L0,47.999L32,47.999L32,43.909L38.2,46.213L47.76,13.385C48.204,11.861 48.026,10.223 47.265,8.83C46.504,7.437 45.222,6.403 43.7,5.953L43.7,5.953ZM28,43.999L4,43.999L4,13.999C4,13.468 4.211,12.96 4.586,12.584C4.961,12.209 5.47,11.999 6,11.999L26,11.999C26.53,11.999 27.039,12.209 27.414,12.584C27.789,12.96 28,13.468 28,13.999L28,43.999ZM43.92,12.267L35.56,40.965L32,39.639L32,13.999C32,12.407 31.368,10.881 30.243,9.756C29.117,8.631 27.591,7.999 26,7.999L20.46,7.999L21.228,5.439C21.3,5.185 21.422,4.948 21.586,4.742C21.751,4.536 21.955,4.365 22.186,4.239C22.413,4.112 22.662,4.032 22.92,4.002C23.178,3.972 23.439,3.994 23.688,4.067L42.558,9.779C42.811,9.852 43.047,9.975 43.253,10.139C43.459,10.304 43.63,10.508 43.756,10.739C43.883,10.971 43.963,11.225 43.991,11.487C44.019,11.749 43.995,12.014 43.92,12.267L43.92,12.267ZM24,25.999C24,30.665 16,35.999 16,35.999C16,35.999 8,30.665 8,25.999C8,24.938 8.421,23.92 9.172,23.17C9.922,22.42 10.939,21.999 12,21.999C13.061,21.999 14.078,22.42 14.828,23.17C15.579,23.92 16,24.938 16,25.999C16,24.938 16.421,23.92 17.172,23.17C17.922,22.42 18.939,21.999 20,21.999C21.061,21.999 22.078,22.42 22.828,23.17C23.579,23.92 24,24.938 24,25.999L24,25.999Z" fill="#374957"/>
</svg>
