<svg width="48" height="40" viewBox="0 0 48 40" fill="none" xmlns="http://www.w3.org/2000/svg" xmlns:xlink="http://www.w3.org/1999/xlink">
<path d="M41.999,20.836L41.999,18C41.999,13.226 40.103,8.647 36.727,5.272C33.352,1.896 28.773,0 23.999,0C19.225,0 14.647,1.896 11.271,5.272C7.896,8.647 5.999,13.226 5.999,18L5.999,20.836C3.894,21.755 2.17,23.371 1.116,25.412C0.063,27.453 -0.256,29.794 0.213,32.043C0.682,34.291 1.911,36.31 3.693,37.759C5.476,39.208 7.702,39.999 9.999,40L13.999,40L13.999,20L9.999,20L9.999,18C9.999,14.286 11.474,10.726 14.1,8.1C16.725,5.475 20.286,4 23.999,4C27.712,4 31.273,5.475 33.899,8.1C36.524,10.726 37.999,14.286 37.999,18L37.999,20L33.999,20L33.999,36L25.999,36L25.999,40L37.999,40C40.296,39.999 42.523,39.208 44.305,37.759C46.087,36.31 47.316,34.291 47.786,32.043C48.255,29.794 47.936,27.453 46.882,25.412C45.829,23.371 44.104,21.755 41.999,20.836Z" fill="#374957"/>
</svg>
