<svg width="44" height="48" viewBox="0 0 44 48" fill="none" xmlns="http://www.w3.org/2000/svg" xmlns:xlink="http://www.w3.org/1999/xlink">
<path d="M37.56,6.476C35.522,4.424 33.097,2.795 30.427,1.684C27.756,0.573 24.892,0 21.999,0C19.107,0 16.242,0.573 13.572,1.684C10.901,2.795 8.477,4.424 6.438,6.476C2.312,10.648 0.004,16.283 0.021,22.15C0.037,28.017 2.375,33.64 6.524,37.788L14,44.72C16.125,46.812 18.984,47.989 21.965,48C24.947,48.012 27.814,46.856 29.954,44.78L37.568,37.706C41.684,33.551 43.991,27.938 43.99,22.09C43.988,16.241 41.678,10.63 37.56,6.476L37.56,6.476ZM33.4,33.4L25.8,40.45C24.765,41.437 23.386,41.983 21.956,41.972C20.526,41.961 19.156,41.393 18.136,40.39L10.692,33.474C7.69,30.446 6.006,26.355 6.006,22.091C6.006,17.827 7.69,13.736 10.692,10.708C12.173,9.216 13.935,8.032 15.875,7.224C17.816,6.416 19.897,6 21.999,6C24.101,6 26.183,6.416 28.123,7.224C30.064,8.032 31.825,9.216 33.306,10.708C36.303,13.718 37.993,17.788 38.011,22.035C38.029,26.282 36.372,30.366 33.4,33.4L33.4,33.4ZM29.13,29.13C28.852,29.409 28.521,29.63 28.157,29.781C27.793,29.932 27.402,30.01 27.008,30.01C26.614,30.01 26.224,29.932 25.86,29.781C25.496,29.63 25.165,29.409 24.886,29.13L19.886,24.13C19.605,23.851 19.382,23.519 19.23,23.154C19.078,22.788 19,22.396 19,22L19,15C19,14.205 19.316,13.442 19.879,12.879C20.442,12.316 21.205,12 22,12C22.796,12 23.559,12.316 24.122,12.879C24.684,13.442 25,14.205 25,15L25,20.758L29.122,24.878C29.401,25.157 29.622,25.488 29.773,25.852C29.924,26.216 30.002,26.606 30.002,27C30.002,27.394 29.924,27.785 29.773,28.149C29.622,28.513 29.401,28.844 29.122,29.122L29.13,29.13Z" fill="#374957"/>
</svg>
