<svg width="36" height="48" viewBox="0 0 36 48" fill="none" xmlns="http://www.w3.org/2000/svg" xmlns:xlink="http://www.w3.org/1999/xlink">
<path d="M26,13.044L26,10C26,9.966 26,9.934 25.99,9.9C27.204,9.653 28.284,8.965 29.019,7.967C29.755,6.97 30.094,5.735 29.97,4.502C29.847,3.27 29.27,2.126 28.352,1.294C27.434,0.463 26.239,0.001 25,0L11,0C9.761,0.001 8.566,0.463 7.648,1.294C6.73,2.126 6.153,3.27 6.03,4.502C5.906,5.735 6.245,6.97 6.981,7.967C7.716,8.965 8.796,9.653 10.01,9.9C10,9.934 10,9.966 10,10L10,13.044C7.268,13.297 4.729,14.56 2.88,16.587C1.03,18.613 0.003,21.257 0,24L0,37C0.003,39.916 1.163,42.712 3.225,44.775C5.288,46.837 8.084,47.997 11,48L25,48C27.916,47.997 30.712,46.837 32.775,44.775C34.837,42.712 35.997,39.916 36,37L36,24C35.997,21.257 34.97,18.613 33.12,16.587C31.271,14.56 28.732,13.297 26,13.044L26,13.044ZM30,37C30,38.326 29.473,39.598 28.536,40.536C27.598,41.473 26.326,42 25,42L11,42C9.674,42 8.402,41.473 7.464,40.536C6.527,39.598 6,38.326 6,37L6,24C6,22.674 6.527,21.402 7.464,20.464C8.402,19.527 9.674,19 11,19L13,19C13.796,19 14.559,18.684 15.121,18.121C15.684,17.559 16,16.796 16,16L16,10L20,10L20,16C20,16.796 20.316,17.559 20.879,18.121C21.441,18.684 22.204,19 23,19L25,19C26.326,19 27.598,19.527 28.536,20.464C29.473,21.402 30,22.674 30,24L30,37ZM26,30C26,30.796 25.684,31.559 25.121,32.121C24.559,32.684 23.796,33 23,33L21,33L21,35C21,35.796 20.684,36.559 20.121,37.121C19.559,37.684 18.796,38 18,38C17.204,38 16.441,37.684 15.879,37.121C15.316,36.559 15,35.796 15,35L15,33L13,33C12.204,33 11.441,32.684 10.879,32.121C10.316,31.559 10,30.796 10,30C10,29.204 10.316,28.441 10.879,27.879C11.441,27.316 12.204,27 13,27L15,27L15,25C15,24.204 15.316,23.441 15.879,22.879C16.441,22.316 17.204,22 18,22C18.796,22 19.559,22.316 20.121,22.879C20.684,23.441 21,24.204 21,25L21,27L23,27C23.796,27 24.559,27.316 25.121,27.879C25.684,28.441 26,29.204 26,30Z" fill="#374957"/>
</svg>
