<svg width="48" height="48" viewBox="0 0 48 48" fill="none" xmlns="http://www.w3.org/2000/svg" xmlns:xlink="http://www.w3.org/1999/xlink">
<path d="M3.434,29.4L11.7,48L16.612,48C17.528,47.999 18.43,47.77 19.236,47.333C20.041,46.895 20.724,46.264 21.224,45.495C21.723,44.727 22.023,43.846 22.096,42.933C22.168,42.019 22.012,41.102 21.64,40.264L17.078,30L22,30C24.651,30.003 27.193,31.058 29.068,32.932C30.942,34.807 31.997,37.349 32,40L36,40L36,0L32,0C31.997,2.651 30.942,5.193 29.068,7.068C27.193,8.942 24.651,9.997 22,10L6,10C4.409,10 2.883,10.632 1.757,11.757C0.632,12.883 0,14.409 0,16L0,24C0.004,25.132 0.329,26.24 0.937,27.196C1.545,28.152 2.41,28.916 3.434,29.4L3.434,29.4ZM17.984,41.886C18.086,42.115 18.129,42.365 18.11,42.615C18.09,42.865 18.009,43.106 17.872,43.316C17.736,43.526 17.549,43.698 17.329,43.818C17.109,43.937 16.862,44 16.612,44L14.3,44L8.078,30L12.7,30L17.984,41.886ZM4,16C4,15.47 4.211,14.961 4.586,14.586C4.961,14.211 5.47,14 6,14L22,14C23.864,14 25.71,13.627 27.428,12.902C29.145,12.177 30.7,11.114 32,9.778L32,30.222C30.7,28.886 29.145,27.823 27.428,27.098C25.71,26.373 23.864,26 22,26L6,26C5.47,26 4.961,25.789 4.586,25.414C4.211,25.039 4,24.53 4,24L4,16ZM44.586,31.414L40.01,26.838L42.838,24.01L47.414,28.586L44.586,31.414ZM42.914,15.914L40.086,13.086L44.586,8.586L47.414,11.414L42.914,15.914ZM42,18L48,18L48,22L42,22L42,18Z" fill="#374957"/>
</svg>
