<svg width="48" height="48" viewBox="0 0 48 48" fill="none" xmlns="http://www.w3.org/2000/svg" xmlns:xlink="http://www.w3.org/1999/xlink">
<path d="M45,21L38.698,21C38.31,19.12 37.563,17.333 36.498,15.736L40.962,11.272C41.508,10.706 41.811,9.948 41.804,9.162C41.797,8.375 41.482,7.623 40.925,7.067C40.369,6.51 39.617,6.195 38.83,6.188C38.044,6.181 37.286,6.484 36.72,7.03L32.264,11.494C30.667,10.429 28.88,9.682 27,9.294L27,3C27,2.204 26.684,1.441 26.121,0.879C25.559,0.316 24.796,0 24,0C23.204,0 22.441,0.316 21.879,0.879C21.316,1.441 21,2.204 21,3L21,9.302C19.12,9.69 17.333,10.437 15.736,11.502L11.272,7.03C10.706,6.484 9.948,6.181 9.162,6.188C8.375,6.195 7.623,6.51 7.067,7.067C6.51,7.623 6.195,8.375 6.188,9.162C6.181,9.948 6.484,10.706 7.03,11.272L11.494,15.736C10.429,17.333 9.682,19.12 9.294,21L3,21C2.204,21 1.441,21.316 0.879,21.879C0.316,22.441 0,23.204 0,24C0,24.796 0.316,25.559 0.879,26.121C1.441,26.684 2.204,27 3,27L9.302,27C9.69,28.88 10.437,30.667 11.502,32.264L7.03,36.728C6.484,37.294 6.181,38.052 6.188,38.838C6.195,39.625 6.51,40.377 7.067,40.933C7.623,41.49 8.375,41.805 9.162,41.812C9.948,41.819 10.706,41.516 11.272,40.97L15.736,36.506C17.333,37.571 19.12,38.318 21,38.706L21,45C21,45.796 21.316,46.559 21.879,47.121C22.441,47.684 23.204,48 24,48C24.796,48 25.559,47.684 26.121,47.121C26.684,46.559 27,45.796 27,45L27,38.698C28.88,38.31 30.667,37.563 32.264,36.498L36.728,40.962C37.294,41.508 38.052,41.811 38.838,41.804C39.625,41.797 40.377,41.482 40.933,40.925C41.49,40.369 41.805,39.617 41.812,38.83C41.819,38.044 41.516,37.286 40.97,36.72L36.506,32.256C37.571,30.659 38.318,28.872 38.706,26.992L45,26.992C45.768,26.952 46.491,26.619 47.021,26.062C47.55,25.504 47.845,24.765 47.845,23.996C47.845,23.227 47.55,22.488 47.021,21.93C46.491,21.373 45.768,21.04 45,21L45,21ZM24,33C21.613,33 19.324,32.052 17.636,30.364C15.948,28.676 15,26.387 15,24C15,21.613 15.948,19.324 17.636,17.636C19.324,15.948 21.613,15 24,15C26.387,15 28.676,15.948 30.364,17.636C32.052,19.324 33,21.613 33,24C33,26.387 32.052,28.676 30.364,30.364C28.676,32.052 26.387,33 24,33Z" fill="#374957"/>
</svg>
