<svg width="48" height="48" viewBox="0 0 48 48" fill="none" xmlns="http://www.w3.org/2000/svg" xmlns:xlink="http://www.w3.org/1999/xlink">
<path d="M0.83,24.001C0.84,18.414 2.799,13.005 6.369,8.707C9.939,4.41 14.897,1.492 20.388,0.458C25.878,-0.576 31.558,0.338 36.447,3.042C41.336,5.747 45.128,10.072 47.17,15.273L43.444,16.729C42.121,13.338 39.897,10.373 37.012,8.153C34.128,5.932 30.692,4.541 27.076,4.129C23.459,3.718 19.799,4.3 16.489,5.815C13.179,7.33 10.346,9.72 8.294,12.726C6.242,15.733 5.049,19.242 4.845,22.876C4.64,26.51 5.431,30.131 7.132,33.349C8.834,36.567 11.381,39.26 14.5,41.137C17.618,43.014 21.19,44.004 24.83,44.001C28.857,44.014 32.793,42.805 36.116,40.532C39.44,38.259 41.996,35.03 43.444,31.273L47.17,32.729C45.128,37.93 41.336,42.255 36.447,44.959C31.558,47.664 25.878,48.578 20.388,47.544C14.897,46.509 9.939,43.592 6.369,39.294C2.799,34.997 0.84,29.588 0.83,24.001L0.83,24.001Z" fill="#374957"/>
</svg>
