<svg width="48" height="50" viewBox="0 0 48 50" fill="none" xmlns="http://www.w3.org/2000/svg" xmlns:xlink="http://www.w3.org/1999/xlink">
<path d="M27.999,48.002C26.423,48.007 24.861,47.698 23.405,47.095C21.948,46.491 20.626,45.604 19.515,44.486C17.278,42.229 16.022,39.18 16.022,36.002C16.022,32.824 17.278,29.774 19.515,27.518L27.999,18.524L36.525,27.558C38.743,29.819 39.982,32.863 39.974,36.03C39.966,39.198 38.712,42.235 36.483,44.486L36.483,44.486C35.373,45.604 34.051,46.491 32.594,47.095C31.138,47.698 29.576,48.007 27.999,48.002L27.999,48.002ZM9.999,24.002C8.686,24.005 7.384,23.748 6.171,23.245C4.957,22.742 3.856,22.003 2.929,21.072C1.065,19.191 0.02,16.65 0.02,14.002C0.02,11.354 1.065,8.813 2.929,6.932L9.999,0.016L17.053,6.916C18.925,8.795 19.978,11.338 19.981,13.99C19.984,16.643 18.937,19.188 17.069,21.072C16.143,22.003 15.042,22.742 13.828,23.245C12.614,23.748 11.313,24.005 9.999,24.002L9.999,24.002ZM39.999,20.002C38.948,20.004 37.907,19.799 36.937,19.396C35.966,18.994 35.084,18.403 34.343,17.658C32.852,16.153 32.015,14.12 32.015,12.002C32.015,9.883 32.852,7.85 34.343,6.346L39.963,0.1L45.719,6.412C47.181,7.922 47.993,9.946 47.981,12.048C47.969,14.15 47.134,16.164 45.655,17.658L45.655,17.658C44.914,18.403 44.033,18.994 43.062,19.396C42.091,19.799 41.05,20.004 39.999,20.002Z" fill="#374957"/>
</svg>
