<svg width="44" height="50" viewBox="0 0 44 50" fill="none" xmlns="http://www.w3.org/2000/svg" xmlns:xlink="http://www.w3.org/1999/xlink">
<path d="M43.814,44.001L34.48,30.001L39.814,30.001L31.814,18.001L36.2,18.001L25.432,1.401C24.532,0.531 23.329,0.045 22.077,0.045C20.825,0.045 19.622,0.531 18.722,1.401L7.892,18.001L12.34,18.001L4.34,30.001L9.672,30.001L0.34,44.001L20.078,44.001L20.078,48.001L24.078,48.001L24.078,44.001L43.814,44.001ZM24,36.001C23.604,36.001 23.218,35.884 22.889,35.664C22.56,35.445 22.303,35.132 22.152,34.767C22.001,34.401 21.961,33.999 22.038,33.611C22.115,33.223 22.306,32.867 22.586,32.587C22.865,32.307 23.222,32.117 23.61,32.04C23.998,31.963 24.4,32.002 24.765,32.154C25.131,32.305 25.443,32.561 25.663,32.89C25.883,33.219 26,33.606 26,34.001C26,34.532 25.789,35.041 25.414,35.416C25.039,35.791 24.53,36.001 24,36.001ZM30,36.001C30.395,36.001 30.782,36.119 31.111,36.338C31.44,36.558 31.696,36.871 31.848,37.236C31.999,37.601 32.039,38.004 31.961,38.392C31.884,38.78 31.694,39.136 31.414,39.416C31.134,39.695 30.778,39.886 30.39,39.963C30.002,40.04 29.6,40.001 29.234,39.849C28.869,39.698 28.557,39.441 28.337,39.113C28.117,38.784 28,38.397 28,38.001C28,37.471 28.211,36.962 28.586,36.587C28.961,36.212 29.469,36.001 30,36.001L30,36.001ZM28,22.001C28.395,22.001 28.782,22.119 29.111,22.338C29.44,22.558 29.696,22.871 29.848,23.236C29.999,23.601 30.039,24.004 29.961,24.392C29.884,24.78 29.694,25.136 29.414,25.416C29.134,25.695 28.778,25.886 28.39,25.963C28.002,26.04 27.6,26.001 27.234,25.849C26.869,25.698 26.557,25.441 26.337,25.113C26.117,24.784 26,24.397 26,24.001C26,23.471 26.211,22.962 26.586,22.587C26.961,22.212 27.469,22.001 28,22.001L28,22.001ZM24,10.001C24.395,10.001 24.782,10.119 25.111,10.338C25.44,10.558 25.696,10.871 25.848,11.236C25.999,11.601 26.039,12.004 25.961,12.392C25.884,12.779 25.694,13.136 25.414,13.416C25.134,13.695 24.778,13.886 24.39,13.963C24.002,14.04 23.6,14 23.234,13.849C22.869,13.698 22.557,13.441 22.337,13.112C22.117,12.784 22,12.397 22,12.001C22,11.471 22.211,10.962 22.586,10.587C22.961,10.212 23.469,10.001 24,10.001L24,10.001ZM14,40.001C13.604,40.001 13.218,39.884 12.889,39.664C12.56,39.445 12.303,39.132 12.152,38.767C12.001,38.401 11.961,37.999 12.038,37.611C12.115,37.223 12.306,36.867 12.586,36.587C12.865,36.307 13.222,36.117 13.61,36.04C13.998,35.963 14.4,36.002 14.765,36.154C15.131,36.305 15.443,36.561 15.663,36.89C15.883,37.219 16,37.606 16,38.001C16,38.532 15.789,39.041 15.414,39.416C15.039,39.791 14.53,40.001 14,40.001L14,40.001ZM16,30.001C15.604,30.001 15.218,29.884 14.889,29.664C14.56,29.445 14.303,29.132 14.152,28.767C14.001,28.401 13.961,27.999 14.038,27.611C14.115,27.223 14.306,26.867 14.586,26.587C14.865,26.307 15.222,26.117 15.61,26.04C15.998,25.963 16.4,26.002 16.765,26.154C17.131,26.305 17.443,26.561 17.663,26.89C17.883,27.219 18,27.606 18,28.001C18,28.532 17.789,29.041 17.414,29.416C17.039,29.791 16.53,30.001 16,30.001ZM18,20.001C18,19.606 18.117,19.219 18.337,18.89C18.557,18.561 18.869,18.305 19.234,18.154C19.6,18.002 20.002,17.963 20.39,18.04C20.778,18.117 21.134,18.307 21.414,18.587C21.694,18.867 21.884,19.223 21.961,19.611C22.039,19.999 21.999,20.401 21.848,20.767C21.696,21.132 21.44,21.445 21.111,21.664C20.782,21.884 20.395,22.001 20,22.001C19.469,22.001 18.961,21.791 18.586,21.416C18.211,21.041 18,20.532 18,20.001Z" fill="#374957"/>
</svg>
