<svg width="48" height="44" viewBox="0 0 48 44" fill="none" xmlns="http://www.w3.org/2000/svg" xmlns:xlink="http://www.w3.org/1999/xlink">
<path d="M47.401,20.334L25.815,1.35C24.809,0.465 23.18,0.465 22.187,1.35L0.609,20.334C-0.397,21.219 -0.129,21.936 1.212,21.936L7.871,21.936L7.871,41.376C7.871,42.436 8.743,43.314 9.809,43.314L17.956,43.314L17.956,30.526C17.956,29.467 18.828,28.588 19.894,28.588L28.122,28.588C29.195,28.588 30.06,29.447 30.06,30.526L30.06,43.314L38.207,43.314C39.28,43.314 40.145,42.442 40.145,41.376L40.145,21.93L46.804,21.93C48.125,21.93 48.393,21.219 47.401,20.334Z" fill="#000000"/>
</svg>
