<svg width="48" height="48" viewBox="0 0 48 48" fill="none" xmlns="http://www.w3.org/2000/svg" xmlns:xlink="http://www.w3.org/1999/xlink">
<path d="M48,48L0,48L0,34C0,32.409 0.632,30.883 1.757,29.757C2.883,28.632 4.409,28 6,28L42,28C43.591,28 45.117,28.632 46.243,29.757C47.368,30.883 48,32.409 48,34L48,48ZM44,18L4,18L4,24L44,24L44,18ZM39.93,14C39.266,4.56 34.04,0.57 33.8,0.4L33.274,0L30,0L30,2C30.034,2.534 29.954,3.07 29.766,3.57C29.577,4.071 29.283,4.526 28.905,4.905C28.526,5.283 28.071,5.577 27.57,5.766C27.07,5.954 26.534,6.034 26,6L20,6C17.482,5.843 14.986,6.55 12.924,8.005C10.863,9.46 9.36,11.575 8.664,14L39.93,14Z" fill="#374957"/>
</svg>
