<svg width="40" height="48" viewBox="0 0 40 48" fill="none" xmlns="http://www.w3.org/2000/svg" xmlns:xlink="http://www.w3.org/1999/xlink">
<path d="M30,15.31L30,14C30,12.939 29.579,11.922 28.828,11.172C28.078,10.421 27.061,10 26,10L26,6L33,6C33.796,6 34.559,5.684 35.121,5.121C35.684,4.559 36,3.796 36,3C36,2.204 35.684,1.441 35.121,0.879C34.559,0.316 33.796,0 33,0L21,0C19.144,0 17.363,0.737 16.05,2.05C14.738,3.363 14,5.143 14,7L14,10C12.939,10 11.922,10.421 11.172,11.172C10.421,11.922 10,12.939 10,14L10,15.31C6.975,16.922 4.447,19.328 2.685,22.268C0.923,25.208 -0.005,28.572 0,32L0,35C0.004,38.447 1.375,41.751 3.812,44.188C6.249,46.625 9.553,47.996 13,48L27,48C30.447,47.996 33.751,46.625 36.188,44.188C38.625,41.751 39.996,38.447 40,35L40,32C40.005,28.572 39.077,25.208 37.315,22.268C35.554,19.328 33.025,16.922 30,15.31L30,15.31ZM34,35C34,36.857 33.263,38.637 31.95,39.95C30.637,41.263 28.857,42 27,42L13,42C11.144,42 9.363,41.263 8.05,39.95C6.738,38.637 6,36.857 6,35L6,32C5.993,29.43 6.752,26.917 8.179,24.779C9.607,22.642 11.638,20.979 14.014,20L25.986,20C28.362,20.979 30.393,22.642 31.821,24.779C33.248,26.917 34.007,29.43 34,32L34,35ZM30,34C30,35.061 29.579,36.078 28.828,36.828C28.078,37.579 27.061,38 26,38L14,38C12.939,38 11.922,37.579 11.172,36.828C10.421,36.078 10,35.061 10,34C10,32.939 10.421,31.922 11.172,31.172C11.922,30.421 12.939,30 14,30L26,30C27.061,30 28.078,30.421 28.828,31.172C29.579,31.922 30,32.939 30,34Z" fill="#374957"/>
</svg>
