<svg width="50" height="48" viewBox="0 0 50 48" fill="none" xmlns="http://www.w3.org/2000/svg" xmlns:xlink="http://www.w3.org/1999/xlink">
<path d="M30.042,13.008L30.714,8.247C30.89,6.99 30.773,5.701 30.376,4.515C29.978,3.329 29.314,2.289 28.453,1.505C27.593,0.721 26.567,0.221 25.484,0.058C24.402,-0.105 23.301,0.075 22.298,0.579C20.912,1.304 19.798,2.592 19.164,4.202L15.434,13.008L6,13.008C4.409,13.008 2.883,13.745 1.757,15.058C0.632,16.37 0,18.15 0,20.006L0,41.002C0,42.858 0.632,44.638 1.757,45.95C2.883,47.263 4.409,48 6,48L44.036,48L48,22.253L48.032,13.008L30.042,13.008ZM4,41.002L4,20.006C4,19.388 4.211,18.794 4.586,18.357C4.961,17.919 5.47,17.674 6,17.674L14,17.674L14,43.334L6,43.334C5.47,43.334 4.961,43.089 4.586,42.651C4.211,42.214 4,41.62 4,41.002L4,41.002ZM44,21.639L40.66,43.334L18,43.334L18,17.461L22.838,6.031C23.002,5.685 23.234,5.39 23.514,5.169C23.795,4.948 24.117,4.808 24.453,4.76C24.789,4.713 25.13,4.759 25.448,4.895C25.766,5.031 26.052,5.253 26.282,5.543C26.478,5.81 26.622,6.123 26.703,6.462C26.783,6.801 26.799,7.156 26.748,7.503L25.31,17.674L44,17.674L44,21.639Z" fill="#374957"/>
</svg>
