<svg width="40" height="48" viewBox="0 0 40 48" fill="none" xmlns="http://www.w3.org/2000/svg" xmlns:xlink="http://www.w3.org/1999/xlink">
<path d="M33.218,1.624C32.718,0.946 32.017,0.444 31.214,0.188C30.412,-0.067 29.549,-0.063 28.749,0.2C27.949,0.464 27.253,0.973 26.759,1.655C26.266,2.337 26,3.158 26,4L26,48L30,48L30,39.332C39.6,28.828 44.8,16.312 33.218,1.624ZM20,0L20,18C20,19.591 19.368,21.117 18.243,22.243C17.117,23.368 15.591,24 14,24L12,24L12,48L8,48L8,24L6,24C4.409,24 2.883,23.368 1.757,22.243C0.632,21.117 0,19.591 0,18L0,0L4,0L4,18C4,18.53 4.211,19.039 4.586,19.414C4.961,19.789 5.47,20 6,20L8,20L8,0L12,0L12,20L14,20C14.53,20 15.039,19.789 15.414,19.414C15.789,19.039 16,18.53 16,18L16,0L20,0Z" fill="#374957"/>
</svg>
