<svg width="48" height="48" viewBox="0 0 48 48" fill="none" xmlns="http://www.w3.org/2000/svg" xmlns:xlink="http://www.w3.org/1999/xlink">
<path d="M28.4,32.524C22.578,30.056 17.947,25.414 15.492,19.586L22.304,12.774L9.774,0.244L3.432,6.586C2.332,7.692 1.462,9.005 0.873,10.449C0.284,11.893 -0.013,13.44 0,15C0,29.496 18.504,48 33,48C34.56,48.013 36.107,47.717 37.551,47.127C38.996,46.538 40.309,45.668 41.414,44.568L47.756,38.226L35.226,25.696L28.4,32.524ZM38.588,41.74C37.853,42.468 36.98,43.042 36.021,43.43C35.062,43.818 34.035,44.012 33,44C20.534,44 4,27.466 4,15C3.989,13.966 4.183,12.939 4.571,11.981C4.959,11.022 5.533,10.149 6.26,9.414L9.774,5.9L16.648,12.774L10.778,18.644L11.27,19.872C12.712,23.731 14.967,27.234 17.882,30.145C20.796,33.056 24.302,35.307 28.162,36.744L29.374,37.206L35.226,31.352L42.1,38.226L38.588,41.74ZM48,5L48,14L44,14L44,6.886L32.818,18.068L30,15.24L41.23,4L34,4L34,0L43.058,0C44.376,0.009 45.637,0.541 46.564,1.478C47.49,2.415 48.007,3.682 48,5L48,5Z" fill="#374957"/>
</svg>
