<svg width="48" height="48" viewBox="0 0 48 48" fill="none" xmlns="http://www.w3.org/2000/svg" xmlns:xlink="http://www.w3.org/1999/xlink">
<path d="M40,36L48,36L48,40L40,40L40,48L36,48L36,40L28,40L28,36L36,36L36,28L40,28L40,36ZM22,12L22,21.172L16.586,26.586L19.414,29.414L26,22.828L26,12L22,12ZM4,24C3.998,21.288 4.547,18.603 5.615,16.11C6.682,13.617 8.246,11.367 10.21,9.497C12.175,7.627 14.499,6.176 17.042,5.232C19.584,4.289 22.293,3.872 25.001,4.008C27.71,4.144 30.363,4.829 32.799,6.022C35.234,7.215 37.402,8.891 39.169,10.949C40.937,13.006 42.268,15.401 43.081,17.988C43.893,20.576 44.172,23.302 43.898,26L47.898,26C47.954,25.338 48,24.676 48,24C48,19.253 46.592,14.613 43.955,10.666C41.318,6.72 37.57,3.643 33.184,1.827C28.799,0.01 23.973,-0.465 19.318,0.461C14.662,1.387 10.386,3.673 7.029,7.029C3.673,10.386 1.387,14.662 0.461,19.318C-0.465,23.973 0.01,28.799 1.827,33.184C3.643,37.57 6.72,41.318 10.666,43.955C14.613,46.592 19.253,48 24,48C24.676,48 25.338,47.954 26,47.898L26,43.898C23.219,44.18 20.409,43.875 17.753,43.004C15.096,42.132 12.652,40.712 10.579,38.837C8.506,36.962 6.849,34.672 5.715,32.117C4.582,29.561 3.998,26.796 4,24L4,24Z" fill="#374957"/>
</svg>
