<svg width="48" height="48" viewBox="0 0 48 48" fill="none" xmlns="http://www.w3.org/2000/svg" xmlns:xlink="http://www.w3.org/1999/xlink">
<path d="M47.928,20.833C47.325,16.389 45.492,12.202 42.636,8.744C39.78,5.285 36.015,2.694 31.765,1.261C27.516,-0.172 22.95,-0.39 18.583,0.633C14.216,1.656 10.222,3.878 7.051,7.049C3.879,10.22 1.657,14.214 0.634,18.581C-0.389,22.948 -0.172,27.513 1.261,31.763C2.693,36.013 5.285,39.779 8.743,42.634C12.201,45.49 16.388,47.324 20.832,47.927C21.189,47.975 21.548,47.999 21.908,47.999C24.212,47.981 26.416,47.054 28.04,45.419L45.418,28.041C46.359,27.112 47.075,25.978 47.51,24.729C47.945,23.479 48.088,22.147 47.928,20.833L47.928,20.833ZM6.114,22.001C6.585,17.943 8.416,14.163 11.309,11.278C14.202,8.393 17.987,6.572 22.047,6.114C26.107,5.655 30.203,6.585 33.667,8.751C37.132,10.918 39.76,14.194 41.124,18.045C35.076,18.273 29.337,20.778 25.057,25.057C20.777,29.337 18.272,35.075 18.044,41.123C14.176,39.77 10.885,37.138 8.716,33.661C6.547,30.184 5.629,26.071 6.114,22.001L6.114,22.001ZM24.054,40.915C24.324,36.531 26.187,32.397 29.293,29.291C32.399,26.185 36.534,24.322 40.918,24.053L24.054,40.915Z" fill="#374957"/>
</svg>
