<svg width="48" height="48" viewBox="0 0 48 48" fill="none" xmlns="http://www.w3.org/2000/svg" xmlns:xlink="http://www.w3.org/1999/xlink">
<path d="M42.033,26.85C40.413,26.85 38.864,27.513 37.743,28.684L33.195,26.75C33.506,25.82 33.669,24.847 33.68,23.867C33.669,18.599 29.402,14.331 24.134,14.32C23.337,14.33 22.545,14.441 21.777,14.65L19.162,9.994C21.376,7.567 21.204,3.805 18.777,1.59C16.35,-0.624 12.587,-0.452 10.373,1.975C8.159,4.402 8.331,8.165 10.758,10.379C11.858,11.383 13.296,11.938 14.786,11.933C15.072,11.925 15.357,11.897 15.639,11.848L18.211,16.422C14.348,19.43 13.432,24.894 16.101,28.998L8.575,36.279C5.496,34.913 1.892,36.302 0.526,39.381C-0.841,42.461 0.548,46.064 3.628,47.431C6.707,48.797 10.311,47.408 11.677,44.328C12.437,42.616 12.368,40.649 11.489,38.994L18.889,31.834C22.821,34.45 28.08,33.763 31.208,30.225L36.117,32.309C36.103,32.478 36.067,32.641 36.067,32.812C36.067,36.108 38.738,38.779 42.033,38.779C45.329,38.779 48,36.108 48,32.812C48,29.517 45.329,26.846 42.033,26.846L42.033,26.85L42.033,26.85Z" fill="#374957"/>
</svg>
