<svg width="48" height="48" viewBox="0 0 48 48" fill="none" xmlns="http://www.w3.org/2000/svg" xmlns:xlink="http://www.w3.org/1999/xlink">
<path d="M24,0C19.253,0 14.613,1.408 10.666,4.045C6.72,6.682 3.643,10.43 1.827,14.816C0.01,19.201 -0.465,24.027 0.461,28.682C1.387,33.338 3.673,37.614 7.029,40.971C10.386,44.327 14.662,46.613 19.318,47.539C23.973,48.465 28.799,47.99 33.184,46.173C37.57,44.357 41.318,41.28 43.955,37.334C46.592,33.387 48,28.747 48,24C47.993,17.637 45.462,11.536 40.963,7.037C36.464,2.538 30.363,0.007 24,0L24,0ZM44,24C44.001,27.898 42.856,31.711 40.708,34.964C38.984,33.044 38.02,30.56 38,27.98L38,24L26,24C25.47,24 24.961,23.789 24.586,23.414C24.211,23.039 24,22.53 24,22L24,20L30,20L30,12L35.828,12L38.046,9.782C39.932,11.638 41.43,13.851 42.453,16.292C43.475,18.733 44.001,21.354 44,24L44,24ZM4.098,25.926L12.172,34L20,34C20.53,34 21.039,34.211 21.414,34.586C21.789,34.961 22,35.47 22,36L22,43.898C17.4,43.428 13.105,41.382 9.842,38.107C6.579,34.831 4.55,30.527 4.098,25.926L4.098,25.926ZM26,43.898L26,36C26,34.409 25.368,32.883 24.243,31.757C23.117,30.632 21.591,30 20,30L13.828,30L4.326,20.498C4.898,17.244 6.269,14.184 8.316,11.591C10.363,8.998 13.022,6.953 16.054,5.641C19.085,4.329 22.395,3.79 25.687,4.073C28.978,4.355 32.148,5.45 34.912,7.26L34.172,8L26,8L26,16L20,16L20,22C20,23.591 20.632,25.117 21.757,26.243C22.883,27.368 24.409,28 26,28L34,28C33.995,31.789 35.484,35.427 38.144,38.126C34.886,41.398 30.594,43.438 26,43.898L26,43.898Z" fill="#374957"/>
</svg>
