<svg width="48" height="48" viewBox="0 0 48 48" fill="none" xmlns="http://www.w3.org/2000/svg" xmlns:xlink="http://www.w3.org/1999/xlink">
<path d="M42,0L6,0C4.409,0 2.883,0.632 1.757,1.757C0.632,2.883 0,4.409 0,6L0,40L13.8,40L21.416,46.436C22.138,47.046 23.053,47.381 23.998,47.381C24.943,47.381 25.858,47.046 26.58,46.436L34.2,40L48,40L48,6C48,4.409 47.368,2.883 46.243,1.757C45.117,0.632 43.591,0 42,0L42,0ZM12,10L24,10L24,14L12,14L12,10ZM36,30L12,30L12,26L36,26L36,30ZM36,22L12,22L12,18L36,18L36,22Z" fill="#374957"/>
</svg>
