<svg width="48" height="48" viewBox="0 0 48 48" fill="none" xmlns="http://www.w3.org/2000/svg" xmlns:xlink="http://www.w3.org/1999/xlink">
<path d="M31,14.001C27.638,14.001 24.351,14.998 21.555,16.866C18.76,18.734 16.581,21.389 15.294,24.495C14.007,27.601 13.671,31.019 14.327,34.317C14.983,37.615 16.602,40.644 18.979,43.021C21.357,45.399 24.386,47.018 27.683,47.674C30.981,48.33 34.399,47.993 37.506,46.707C40.612,45.42 43.267,43.241 45.135,40.445C47.003,37.65 48,34.363 48,31.001C47.995,26.494 46.202,22.173 43.015,18.986C39.828,15.799 35.507,14.006 31,14.001L31,14.001ZM31,42.001C28.824,42.001 26.698,41.355 24.889,40.147C23.08,38.938 21.67,37.22 20.837,35.21C20.005,33.2 19.787,30.988 20.211,28.855C20.636,26.721 21.683,24.761 23.222,23.222C24.76,21.684 26.72,20.636 28.854,20.212C30.988,19.787 33.199,20.005 35.209,20.838C37.219,21.67 38.937,23.08 40.146,24.889C41.355,26.698 42,28.825 42,31.001C41.996,33.917 40.836,36.713 38.774,38.775C36.712,40.837 33.916,41.997 31,42.001L31,42.001ZM37,28.001C37.796,28.001 38.559,28.317 39.121,28.879C39.684,29.442 40,30.205 40,31.001C40,31.796 39.684,32.559 39.121,33.122C38.559,33.685 37.796,34.001 37,34.001L34,34.001L34,37.001C34,37.796 33.684,38.559 33.121,39.122C32.559,39.685 31.796,40.001 31,40.001C30.204,40.001 29.441,39.685 28.879,39.122C28.316,38.559 28,37.796 28,37.001L28,34.001L25,34.001C24.204,34.001 23.441,33.685 22.879,33.122C22.316,32.559 22,31.796 22,31.001C22,30.205 22.316,29.442 22.879,28.879C23.441,28.317 24.204,28.001 25,28.001L28,28.001L28,25.001C28,24.205 28.316,23.442 28.879,22.879C29.441,22.317 30.204,22.001 31,22.001C31.796,22.001 32.559,22.317 33.121,22.879C33.684,23.442 34,24.205 34,25.001L34,28.001L37,28.001ZM15.49,15.491L11.79,22.891C11.624,23.224 11.369,23.504 11.053,23.7C10.737,23.896 10.372,24 10,24.001L9.962,24.001C9.585,23.993 9.217,23.879 8.902,23.672C8.586,23.465 8.336,23.172 8.18,22.829L0.292,5.479C0.007,4.753 -0.062,3.96 0.095,3.196C0.252,2.432 0.628,1.731 1.176,1.177C1.703,0.645 2.37,0.274 3.099,0.104C3.828,-0.065 4.59,-0.026 5.298,0.219C5.359,0.24 5.419,0.265 5.478,0.293L22.828,8.181C23.169,8.338 23.459,8.588 23.665,8.903C23.87,9.218 23.983,9.584 23.99,9.96C23.996,10.336 23.897,10.706 23.704,11.028C23.51,11.35 23.229,11.611 22.894,11.781L15.49,15.491Z" fill="#374957"/>
</svg>
