<svg width="48" height="48" viewBox="0 0 48 48" fill="none" xmlns="http://www.w3.org/2000/svg" xmlns:xlink="http://www.w3.org/1999/xlink">
<path d="M28.118,32L30,32C43.286,32 48,25 48,19C47.996,17.35 47.409,15.755 46.343,14.496C45.277,13.237 43.8,12.395 42.174,12.118C42.928,10.544 43.501,8.889 43.882,7.186C44.06,6.321 44.042,5.428 43.83,4.571C43.617,3.714 43.216,2.916 42.656,2.234C42.088,1.535 41.371,0.971 40.558,0.585C39.744,0.198 38.855,-0.001 37.954,0L10.046,0C9.145,-0.001 8.256,0.198 7.442,0.585C6.629,0.971 5.912,1.535 5.344,2.234C4.784,2.916 4.383,3.714 4.17,4.571C3.958,5.428 3.94,6.321 4.118,7.186C4.5,8.889 5.072,10.544 5.822,12.12C4.197,12.397 2.722,13.24 1.656,14.498C0.591,15.757 0.005,17.351 0,19C0,25 4.714,32 18,32L19.866,32C19.941,32.421 19.986,32.847 20,33.274L20,40C20.034,40.534 19.954,41.07 19.766,41.57C19.577,42.071 19.283,42.526 18.905,42.905C18.526,43.283 18.071,43.577 17.57,43.766C17.07,43.954 16.534,44.034 16,44L10,44L10,48L38,48L38,44L32,44C31.465,44.036 30.928,43.958 30.425,43.769C29.923,43.581 29.466,43.288 29.086,42.91C28.706,42.531 28.411,42.076 28.221,41.574C28.031,41.072 27.95,40.535 27.984,40L27.984,33.274C27.999,32.847 28.044,32.421 28.118,32L28.118,32ZM30.954,26.698C34.57,23.668 37.65,20.052 40.066,16L41,16C41.796,16 42.559,16.316 43.121,16.879C43.684,17.441 44,18.204 44,19C44,23.352 40.016,28 29.694,28C30.057,27.515 30.481,27.077 30.954,26.698L30.954,26.698ZM4,19C4,18.204 4.316,17.441 4.879,16.879C5.441,16.316 6.204,16 7,16L7.928,16C10.339,20.052 13.416,23.669 17.03,26.698C17.502,27.078 17.925,27.516 18.29,28C7.968,28 4,23.352 4,19L4,19Z" fill="#374957"/>
</svg>
