<svg width="48" height="48" viewBox="0 0 48 48" fill="none" xmlns="http://www.w3.org/2000/svg" xmlns:xlink="http://www.w3.org/1999/xlink">
<path d="M9.726,5.709L12.826,4.825L13.71,1.725C13.852,1.228 14.153,0.79 14.566,0.479C14.979,0.167 15.483,-0.001 16,-0.001C16.517,-0.001 17.021,0.167 17.434,0.479C17.847,0.79 18.148,1.228 18.29,1.725L19.174,4.825L22.274,5.709C22.772,5.852 23.209,6.152 23.521,6.565C23.832,6.979 24.001,7.482 24.001,7.999C24.001,8.517 23.832,9.02 23.521,9.433C23.209,9.847 22.772,10.147 22.274,10.289L19.174,11.173L18.29,14.273C18.148,14.771 17.847,15.208 17.434,15.52C17.021,15.831 16.517,16 16,16C15.483,16 14.979,15.831 14.566,15.52C14.153,15.208 13.852,14.771 13.71,14.273L12.826,11.173L9.726,10.289C9.229,10.147 8.791,9.847 8.48,9.433C8.168,9.02 8,8.517 8,7.999C8,7.482 8.168,6.979 8.48,6.565C8.791,6.152 9.229,5.852 9.726,5.709L9.726,5.709ZM46.274,29.709L43.174,28.825L42.29,25.725C42.148,25.228 41.847,24.79 41.434,24.479C41.021,24.167 40.518,23.999 40,23.999C39.483,23.999 38.979,24.167 38.566,24.479C38.153,24.79 37.853,25.228 37.71,25.725L36.826,28.825L33.726,29.709C33.229,29.852 32.791,30.152 32.48,30.565C32.168,30.979 32,31.482 32,31.999C32,32.517 32.168,33.02 32.48,33.433C32.791,33.846 33.229,34.147 33.726,34.289L36.826,35.173L37.71,38.273C37.853,38.771 38.153,39.208 38.566,39.52C38.979,39.831 39.483,40 40,40C40.518,40 41.021,39.831 41.434,39.52C41.847,39.208 42.148,38.771 42.29,38.273L43.174,35.173L46.274,34.289C46.772,34.147 47.209,33.846 47.521,33.433C47.832,33.02 48.001,32.517 48.001,31.999C48.001,31.482 47.832,30.979 47.521,30.565C47.209,30.152 46.772,29.852 46.274,29.709L46.274,29.709ZM35.51,8.999L38.222,9.773L39,12.487C39.127,12.92 39.39,13.299 39.751,13.57C40.111,13.84 40.55,13.986 41,13.986C41.451,13.986 41.889,13.84 42.25,13.57C42.61,13.299 42.873,12.92 43,12.487L43.774,9.777L46.49,8.999C46.922,8.873 47.302,8.609 47.572,8.249C47.842,7.888 47.988,7.45 47.988,6.999C47.988,6.549 47.842,6.111 47.572,5.75C47.302,5.389 46.922,5.126 46.49,4.999L43.778,4.225L43,1.509C42.873,1.077 42.61,0.697 42.25,0.427C41.889,0.157 41.451,0.011 41,0.011C40.55,0.011 40.111,0.157 39.751,0.427C39.39,0.697 39.127,1.077 39,1.509L38.226,4.221L35.51,4.999C35.078,5.126 34.698,5.389 34.428,5.75C34.158,6.111 34.012,6.549 34.012,6.999C34.012,7.45 34.158,7.888 34.428,8.249C34.698,8.609 35.078,8.873 35.51,8.999L35.51,8.999ZM34.31,25.295L13.372,45.727C11.897,47.187 9.905,48.004 7.83,47.999C5.755,47.994 3.766,47.168 2.298,45.701C0.828,44.228 0.003,42.232 0.003,40.151C0.003,38.07 0.828,36.075 2.298,34.601L23.346,14.065C24.454,12.984 25.857,12.254 27.378,11.968C28.9,11.681 30.472,11.852 31.897,12.457C33.322,13.063 34.536,14.077 35.386,15.371C36.236,16.665 36.684,18.181 36.674,19.729C36.671,20.769 36.46,21.797 36.053,22.754C35.647,23.71 35.053,24.576 34.306,25.299L34.31,25.295ZM21.95,28.973L19.332,26.363L6.514,38.869C6.177,39.218 5.992,39.685 5.997,40.169C6.002,40.654 6.198,41.116 6.542,41.457C6.893,41.794 7.361,41.983 7.848,41.983C8.335,41.983 8.803,41.794 9.154,41.457L21.95,28.973ZM30.678,19.689C30.68,19.325 30.575,18.968 30.374,18.664C30.174,18.359 29.889,18.121 29.553,17.978C29.218,17.835 28.848,17.795 28.49,17.862C28.131,17.929 27.801,18.101 27.54,18.355L23.63,22.169L26.244,24.783L30.118,20.999C30.293,20.829 30.432,20.626 30.527,20.402C30.623,20.178 30.673,19.937 30.674,19.693L30.678,19.689Z" fill="#374957"/>
</svg>
