<svg width="48" height="38" viewBox="0 0 48 38" fill="none" xmlns="http://www.w3.org/2000/svg" xmlns:xlink="http://www.w3.org/1999/xlink">
<path d="M48,6L8.484,6L8.4,5.298C8.228,3.839 7.527,2.493 6.429,1.517C5.331,0.54 3.913,0.001 2.444,0L0,0L0,4L2.444,4C2.934,4 3.407,4.18 3.773,4.505C4.139,4.831 4.373,5.28 4.43,5.766L7.6,32.702C7.772,34.161 8.473,35.507 9.571,36.483C10.669,37.46 12.087,37.999 13.556,38L40,38L40,34L13.556,34C13.066,34 12.593,33.82 12.227,33.494C11.861,33.168 11.627,32.719 11.57,32.232L11.308,30L43.672,30L48,6ZM40.328,26L10.838,26L8.956,10L43.214,10L40.328,26Z" fill="#374957"/>
</svg>
