<svg width="50" height="36" viewBox="0 0 50 36" fill="none" xmlns="http://www.w3.org/2000/svg" xmlns:xlink="http://www.w3.org/1999/xlink">
<path d="M42.812,2.456C42.254,1.696 41.526,1.078 40.685,0.651C39.844,0.225 38.915,0.002 37.972,0L10.029,0C9.086,0.002 8.157,0.225 7.316,0.651C6.475,1.078 5.747,1.696 5.189,2.456L1.095,8.042C0.233,9.214 -0.172,10.659 -0.046,12.108C0.081,13.556 0.731,14.91 1.783,15.914L24,35.862L46.292,15.846C47.318,14.838 47.944,13.494 48.057,12.061C48.17,10.628 47.761,9.202 46.906,8.046L42.812,2.456ZM14.619,14L19.229,26.2L5.633,14L14.619,14ZM29.106,14L24,27.514L18.895,14L29.106,14ZM18.955,10L21.354,4L26.646,4L29.046,10L18.955,10ZM33.382,14L42.364,14L28.764,26.2L33.382,14ZM39.582,4.818L43.384,10L33.354,10L30.954,4L37.972,4C38.287,4 38.597,4.074 38.877,4.216C39.158,4.358 39.401,4.564 39.586,4.818L39.582,4.818ZM8.411,4.818C8.597,4.564 8.84,4.357 9.122,4.215C9.403,4.073 9.713,3.999 10.029,4L17.047,4L14.647,10L4.617,10L8.411,4.818Z" fill="#374957"/>
</svg>
