<svg width="48" height="48" viewBox="0 0 48 48" fill="none" xmlns="http://www.w3.org/2000/svg" xmlns:xlink="http://www.w3.org/1999/xlink">
<path d="M45,17.998C45.796,17.998 46.559,17.682 47.121,17.119C47.684,16.556 48,15.793 48,14.998C48,14.202 47.684,13.439 47.121,12.876C46.559,12.314 45.796,11.998 45,11.998L37.744,11.998L38.97,3.422C39.026,3.032 39.004,2.634 38.906,2.253C38.808,1.871 38.636,1.513 38.4,1.197C38.164,0.882 37.867,0.617 37.528,0.416C37.189,0.215 36.814,0.083 36.424,0.028C36.034,-0.028 35.637,-0.006 35.255,0.091C34.874,0.189 34.515,0.361 34.2,0.598C33.885,0.834 33.619,1.13 33.418,1.469C33.218,1.808 33.086,2.184 33.03,2.574L31.684,11.998L19.744,11.998L20.97,3.422C21.026,3.032 21.004,2.634 20.906,2.253C20.808,1.871 20.636,1.513 20.4,1.197C20.164,0.882 19.867,0.617 19.528,0.416C19.189,0.215 18.814,0.083 18.424,0.028C18.034,-0.028 17.637,-0.006 17.255,0.091C16.874,0.189 16.515,0.361 16.2,0.598C15.885,0.834 15.619,1.13 15.418,1.469C15.218,1.808 15.086,2.184 15.03,2.574L13.684,11.998L5,11.998C4.204,11.998 3.441,12.314 2.879,12.876C2.316,13.439 2,14.202 2,14.998C2,15.793 2.316,16.556 2.879,17.119C3.441,17.682 4.204,17.998 5,17.998L12.826,17.998L11.112,29.998L3,29.998C2.204,29.998 1.441,30.314 0.879,30.876C0.316,31.439 0,32.202 0,32.998C0,33.793 0.316,34.556 0.879,35.119C1.441,35.682 2.204,35.998 3,35.998L10.256,35.998L9.03,44.574C8.974,44.964 8.996,45.361 9.094,45.743C9.192,46.124 9.364,46.483 9.6,46.798C10.078,47.435 10.788,47.855 11.576,47.968C12.364,48.08 13.164,47.875 13.8,47.398C14.115,47.161 14.381,46.865 14.582,46.526C14.782,46.187 14.914,45.812 14.97,45.422L16.316,35.998L28.256,35.998L27.03,44.574C26.918,45.361 27.123,46.162 27.6,46.798C28.078,47.435 28.788,47.855 29.576,47.968C30.364,48.08 31.164,47.875 31.8,47.398C32.437,46.92 32.858,46.209 32.97,45.422L34.316,35.998L43,35.998C43.796,35.998 44.559,35.682 45.121,35.119C45.684,34.556 46,33.793 46,32.998C46,32.202 45.684,31.439 45.121,30.876C44.559,30.314 43.796,29.998 43,29.998L35.174,29.998L36.888,17.998L45,17.998ZM29.112,29.998L17.174,29.998L18.888,17.998L30.826,17.998L29.112,29.998Z" fill="#374957"/>
</svg>
