<svg width="48" height="48" viewBox="0 0 48 48" fill="none" xmlns="http://www.w3.org/2000/svg" xmlns:xlink="http://www.w3.org/1999/xlink">
<path d="M38.454,0.001L34.62,0.001C33.366,-0.002 32.123,0.244 30.965,0.724C29.807,1.205 28.755,1.911 27.872,2.801L20.8,9.871C19.014,11.665 18.008,14.091 18,16.623L18,23.964C12.73,27.87 6.716,32.376 5.846,33.246C5.035,34.038 4.459,35.04 4.184,36.139C3.908,37.239 3.942,38.393 4.284,39.474L0.884,42.874C0.321,43.437 0.005,44.201 0.005,44.996C0.005,45.792 0.321,46.556 0.884,47.118C1.447,47.681 2.21,47.997 3.006,47.997C3.802,47.997 4.565,47.681 5.128,47.118L8.528,43.718C9.608,44.06 10.762,44.094 11.862,43.819C12.961,43.544 13.962,42.969 14.754,42.158C15.624,41.288 20.132,35.274 24.038,30.002L31.38,30.002C32.634,30.005 33.876,29.759 35.034,29.279C36.193,28.798 37.244,28.092 38.128,27.202L45.2,20.13C46.985,18.336 47.991,15.91 48,13.379L48,9.545C47.997,7.014 46.99,4.588 45.2,2.799C43.411,1.009 40.984,0.003 38.454,0.001L38.454,0.001ZM42,13.379C41.997,14.319 41.624,15.22 40.962,15.887L33.886,22.96C33.558,23.291 33.167,23.553 32.737,23.731C32.307,23.91 31.845,24.001 31.38,24L28.464,24L29.082,23.16L37.122,15.123C37.4,14.844 37.621,14.513 37.772,14.149C37.923,13.785 38.001,13.395 38.001,13.001C38.001,12.606 37.923,12.216 37.772,11.852C37.621,11.488 37.4,11.157 37.122,10.879C36.843,10.6 36.512,10.379 36.148,10.228C35.784,10.077 35.394,10 35,10C34.606,10 34.215,10.077 33.851,10.228C33.487,10.379 33.156,10.6 32.878,10.879L24.836,18.923L24,19.537L24,16.623C24.002,15.682 24.375,14.781 25.038,14.115L32.114,7.041C32.442,6.71 32.832,6.448 33.263,6.27C33.693,6.091 34.154,6 34.62,6.001L38.454,6.001C39.394,6.001 40.295,6.375 40.96,7.039C41.625,7.703 41.999,8.605 42,9.545L42,13.379Z" fill="#374957"/>
</svg>
