<svg width="48" height="48" viewBox="0 0 48 48" fill="none" xmlns="http://www.w3.org/2000/svg" xmlns:xlink="http://www.w3.org/1999/xlink">
<path d="M48,20L48,15.818C48,14.74 47.71,13.682 47.16,12.755C46.61,11.828 45.82,11.066 44.874,10.55L26.874,0.732C25.993,0.25 25.005,-0.003 24,-0.003C22.995,-0.003 22.007,0.25 21.126,0.732L3.126,10.55C2.18,11.066 1.39,11.828 0.84,12.755C0.29,13.682 0,14.74 0,15.818L0,20L6,20L6,38L2,38L2,44L0,44L0,48L48,48L48,44L46,44L46,38L42,38L42,20L48,20ZM28,20L28,38L20,38L20,20L28,20ZM10,20L16,20L16,38L10,38L10,20ZM38,38L32,38L32,20L38,20L38,38Z" fill="#374957"/>
</svg>
