<svg width="48" height="48" viewBox="0 0 48 48" fill="none" xmlns="http://www.w3.org/2000/svg" xmlns:xlink="http://www.w3.org/1999/xlink">
<path d="M47.999,14.999C48.005,12.212 47.232,9.479 45.769,7.108C44.306,4.736 42.209,2.82 39.716,1.575C37.223,0.331 34.432,-0.194 31.657,0.061C28.883,0.316 26.234,1.34 24.009,3.019C22.211,1.663 20.131,0.73 17.923,0.288C15.715,-0.155 13.436,-0.094 11.255,0.465C9.074,1.024 7.046,2.067 5.323,3.516C3.6,4.966 2.225,6.785 1.301,8.838C0.376,10.891 -0.074,13.126 -0.017,15.377C0.041,17.628 0.604,19.838 1.632,21.841C2.659,23.845 4.125,25.591 5.92,26.951C7.715,28.311 9.792,29.25 11.999,29.697L11.999,37.999L5.999,37.999L5.999,41.999L11.999,41.999L11.999,47.999L15.999,47.999L15.999,41.999L21.999,41.999L21.999,37.999L15.999,37.999L15.999,29.951C18.902,29.764 21.687,28.731 24.009,26.979C26.327,28.725 29.104,29.757 31.999,29.949L31.999,37.999L25.999,37.999L25.999,41.999L31.999,41.999L31.999,47.999L35.999,47.999L35.999,41.999L41.999,41.999L41.999,37.999L35.999,37.999L35.999,29.697C39.385,29.001 42.427,27.159 44.613,24.481C46.799,21.804 47.995,18.455 47.999,14.999L47.999,14.999ZM43.999,14.999C43.999,17.174 43.354,19.301 42.146,21.11C40.937,22.919 39.219,24.329 37.209,25.161C35.199,25.994 32.987,26.212 30.853,25.787C28.72,25.363 26.76,24.315 25.221,22.777C23.683,21.239 22.635,19.279 22.211,17.145C21.786,15.011 22.004,12.799 22.837,10.789C23.669,8.779 25.079,7.061 26.888,5.853C28.697,4.644 30.824,3.999 32.999,3.999C35.916,4.002 38.712,5.162 40.774,7.224C42.836,9.286 43.996,12.082 43.999,14.999L43.999,14.999ZM3.999,14.999C3.996,13.005 4.535,11.047 5.56,9.337C6.585,7.626 8.056,6.227 9.816,5.289C11.576,4.352 13.558,3.911 15.549,4.014C17.541,4.118 19.466,4.762 21.119,5.877C19.097,8.488 18,11.696 18,14.999C18,18.301 19.097,21.51 21.119,24.121C19.466,25.236 17.541,25.88 15.549,25.983C13.558,26.087 11.576,25.646 9.816,24.708C8.056,23.771 6.585,22.371 5.56,20.661C4.535,18.95 3.996,16.993 3.999,14.999L3.999,14.999Z" fill="#374957"/>
</svg>
