<svg width="48" height="50" viewBox="0 0 48 50" fill="none" xmlns="http://www.w3.org/2000/svg" xmlns:xlink="http://www.w3.org/1999/xlink">
<path d="M47.4,19.772C45.701,15.591 42.913,11.941 39.325,9.202C35.737,6.464 31.481,4.736 27,4.2L27,3C27,2.204 26.684,1.441 26.121,0.879C25.559,0.316 24.796,0 24,0C23.204,0 22.441,0.316 21.879,0.879C21.316,1.441 21,2.204 21,3L21,4.214C16.533,4.789 12.297,6.53 8.716,9.261C5.135,11.992 2.336,15.617 0.6,19.772C0.073,21.154 -0.109,22.643 0.068,24.111C0.245,25.58 0.776,26.983 1.616,28.2C2.409,29.364 3.473,30.318 4.716,30.98C5.96,31.642 7.345,31.992 8.754,32L21,32L21,40.5C21,40.883 20.853,41.251 20.59,41.529C20.327,41.807 19.968,41.975 19.586,41.997C19.204,42.019 18.828,41.894 18.535,41.647C18.242,41.401 18.054,41.052 18.01,40.672C17.923,39.881 17.525,39.157 16.904,38.659C16.283,38.161 15.49,37.93 14.699,38.017C13.908,38.104 13.184,38.502 12.686,39.123C12.188,39.744 11.957,40.537 12.044,41.328C12.252,43.237 13.184,44.994 14.648,46.236C16.112,47.478 17.997,48.112 19.914,48.005C21.832,47.899 23.635,47.062 24.954,45.665C26.272,44.269 27.004,42.42 27,40.5L27,32L39.246,32C40.655,31.992 42.04,31.642 43.284,30.98C44.527,30.318 45.591,29.364 46.384,28.2C47.224,26.983 47.755,25.58 47.932,24.111C48.109,22.643 47.927,21.154 47.4,19.772L47.4,19.772ZM41.444,24.8C41.203,25.165 40.877,25.465 40.493,25.674C40.11,25.883 39.681,25.995 39.244,26L8.754,26C8.317,25.995 7.888,25.883 7.504,25.674C7.121,25.465 6.794,25.165 6.554,24.8C6.261,24.385 6.075,23.903 6.013,23.399C5.952,22.894 6.016,22.382 6.2,21.908C7.682,18.4 10.159,15.403 13.325,13.287C16.491,11.171 20.208,10.028 24.016,10C27.819,10.031 31.53,11.175 34.691,13.292C37.851,15.408 40.323,18.403 41.8,21.908C41.984,22.382 42.048,22.894 41.986,23.399C41.923,23.903 41.737,24.385 41.444,24.8L41.444,24.8Z" fill="#374957"/>
</svg>
