<svg width="38" height="50" viewBox="0 0 38 50" fill="none" xmlns="http://www.w3.org/2000/svg" xmlns:xlink="http://www.w3.org/1999/xlink">
<path d="M12.052,10C12.052,7.846 14.586,3.766 16.36,0.934C16.54,0.648 16.79,0.413 17.085,0.25C17.381,0.087 17.713,0.001 18.051,0.001C18.388,0.001 18.72,0.087 19.016,0.25C19.312,0.413 19.561,0.648 19.742,0.934C21.516,3.766 24.052,7.846 24.052,10C24.052,11.591 23.42,13.117 22.294,14.242C21.169,15.367 19.643,16 18.052,16C16.46,16 14.934,15.367 13.809,14.242C12.684,13.117 12.052,11.591 12.052,10L12.052,10ZM32.052,44.051L32.052,40.051L4.052,40.051L4.052,44.051L0.052,44.051L0.052,48.051L36.052,48.051L36.052,44.051L32.052,44.051ZM24.078,20.051L28.052,20.051L28.052,16.052L8.052,16.052L8.052,20.051L12.026,20.051C11.898,27.597 10.016,32.077 5.3,36.051L30.8,36.051C26.086,32.077 24.2,27.599 24.076,20.051L24.078,20.051Z" fill="#374957"/>
</svg>
