<svg width="48" height="48" viewBox="0 0 48 48" fill="none" xmlns="http://www.w3.org/2000/svg" xmlns:xlink="http://www.w3.org/1999/xlink">
<path d="M0,44L40,44L40,48L0,48L0,44ZM48,16C48,21.548 43.63,28 38,28L35.93,28L33.656,40L6.344,40L0.13,7.236C-0.046,6.363 -0.028,5.462 0.185,4.598C0.398,3.733 0.799,2.926 1.36,2.235C1.921,1.543 2.628,0.984 3.43,0.598C4.232,0.212 5.11,0.007 6,0L34,0C34.899,0 35.786,0.202 36.597,0.591C37.407,0.98 38.119,1.546 38.682,2.247C39.244,2.949 39.641,3.768 39.844,4.643C40.048,5.519 40.052,6.429 39.856,7.306L39.704,8.106C44.92,8.614 48,11.468 48,16ZM44,16C44,15.066 44,12.338 38.958,12.03L36.69,24L38,24C41.09,24 44,19.492 44,16Z" fill="#374957"/>
</svg>
