<svg width="48" height="48" viewBox="0 0 48 48" fill="none" xmlns="http://www.w3.org/2000/svg" xmlns:xlink="http://www.w3.org/1999/xlink">
<path d="M19,15C19,13.674 19.527,12.402 20.464,11.464C21.402,10.527 22.674,10 24,10C25.326,10 26.598,10.527 27.536,11.464C28.473,12.402 29,13.674 29,15C29,16.326 28.473,17.598 27.536,18.536C26.598,19.473 25.326,20 24,20C22.674,20 21.402,19.473 20.464,18.536C19.527,17.598 19,16.326 19,15L19,15ZM27.24,46.13L34.656,40L37,40C39.916,39.996 42.712,38.836 44.774,36.774C46.836,34.712 47.996,31.916 48,29L48,11C47.996,8.084 46.836,5.288 44.774,3.226C42.712,1.164 39.916,0.004 37,0L11,0C8.084,0.003 5.288,1.163 3.225,3.225C1.163,5.288 0.003,8.084 0,11L0,29C0.003,31.916 1.163,34.712 3.225,36.775C5.288,38.837 8.084,39.997 11,40L13.482,40L20.682,46.06C21.605,46.881 22.797,47.334 24.032,47.332C25.213,47.34 26.355,46.912 27.24,46.13L27.24,46.13ZM37,6C38.326,6 39.598,6.527 40.536,7.464C41.473,8.402 42,9.674 42,11L42,29C42,30.326 41.473,31.598 40.536,32.536C39.598,33.473 38.326,34 37,34L33.576,34C32.878,34 32.202,34.243 31.664,34.688L24,41.022L16.51,34.706C15.969,34.25 15.285,34 14.578,34L11,34C9.674,34 8.402,33.473 7.464,32.536C6.527,31.598 6,30.326 6,29L6,11C6,9.674 6.527,8.402 7.464,7.464C8.402,6.527 9.674,6 11,6L37,6ZM15.962,28.464C15.932,28.656 15.944,28.853 15.998,29.04C16.053,29.227 16.147,29.4 16.276,29.547C16.404,29.693 16.563,29.81 16.741,29.888C16.92,29.967 17.113,30.005 17.308,30L30.63,30C30.825,30.005 31.018,29.967 31.197,29.888C31.375,29.81 31.534,29.693 31.662,29.547C31.791,29.4 31.885,29.227 31.94,29.04C31.994,28.853 32.006,28.656 31.976,28.464C30.256,19.932 17.682,19.936 15.962,28.464Z" fill="#374957"/>
</svg>
