<svg width="48" height="42" viewBox="0 0 48 42" fill="none" xmlns="http://www.w3.org/2000/svg" xmlns:xlink="http://www.w3.org/1999/xlink">
<path d="M42.001,37.898C42.001,32.928 37.971,28.898 33.001,28.898L21.665,28.898L21.665,32.258C21.66,34.704 19.674,36.683 17.228,36.678C16.004,36.676 14.836,36.167 14.001,35.272L1.557,21.882C-0.518,19.631 -0.518,16.164 1.557,13.913L14.001,0.522C15.664,-1.27 18.466,-1.375 20.258,0.288C21.162,1.127 21.675,2.304 21.675,3.536L21.675,6.898L29.001,6.898C39.489,6.911 47.989,15.41 48.001,25.898L48.001,37.898C48.001,39.555 46.657,40.898 45.001,40.898C43.344,40.898 42.001,39.555 42.001,37.898ZM42.001,25.898C41.992,18.722 36.177,12.907 29.001,12.898L18.665,12.898C17.008,12.898 15.665,11.555 15.665,9.898L15.665,7.498L5.955,17.801L15.665,28.257L15.665,25.899C15.665,24.242 17.008,22.899 18.665,22.899L33.001,22.899C36.248,22.894 39.408,23.95 42.001,25.905L42.001,25.898Z" fill="#374957"/>
</svg>
