<svg width="48" height="48" viewBox="0 0 48 48" fill="none" xmlns="http://www.w3.org/2000/svg" xmlns:xlink="http://www.w3.org/1999/xlink">
<path d="M38,28C36.539,28.005 35.098,28.333 33.778,28.959C32.458,29.585 31.292,30.494 30.364,31.622L19.564,26.746C19.839,25.856 19.986,24.931 20,24C19.987,23.079 19.845,22.164 19.578,21.282L30.366,16.382C31.88,18.163 33.973,19.355 36.277,19.746C38.582,20.138 40.951,19.706 42.968,18.524C44.985,17.343 46.522,15.489 47.308,13.288C48.095,11.086 48.08,8.678 47.268,6.486C46.455,4.295 44.896,2.459 42.865,1.302C40.834,0.145 38.46,-0.259 36.16,0.16C33.86,0.58 31.782,1.796 30.289,3.595C28.797,5.395 27.987,7.662 28,10C28,10.284 28.06,10.552 28.084,10.83L16.2,16.224C14.448,14.796 12.26,14.011 10,14C7.348,14 4.804,15.054 2.929,16.929C1.054,18.804 0,21.348 0,24C0,26.652 1.054,29.196 2.929,31.071C4.804,32.946 7.348,34 10,34C12.25,33.991 14.43,33.215 16.18,31.8L28.084,37.174C28.06,37.452 28,37.718 28,38C28,39.978 28.586,41.911 29.685,43.556C30.784,45.2 32.346,46.482 34.173,47.239C36,47.996 38.011,48.194 39.951,47.808C41.891,47.422 43.673,46.47 45.071,45.071C46.47,43.672 47.422,41.891 47.808,39.951C48.194,38.011 47.996,36 47.239,34.173C46.482,32.346 45.2,30.784 43.556,29.685C41.911,28.586 39.978,28 38,28L38,28ZM38,6C38.791,6 39.564,6.235 40.222,6.674C40.88,7.114 41.393,7.738 41.696,8.469C41.998,9.2 42.077,10.004 41.923,10.78C41.769,11.556 41.388,12.269 40.828,12.828C40.269,13.388 39.556,13.769 38.78,13.923C38.004,14.077 37.2,13.998 36.469,13.695C35.738,13.393 35.114,12.88 34.674,12.222C34.235,11.564 34,10.791 34,10C34,8.939 34.421,7.922 35.172,7.172C35.922,6.421 36.939,6 38,6L38,6ZM10,28C9.209,28 8.436,27.765 7.778,27.326C7.12,26.886 6.607,26.262 6.304,25.531C6.002,24.8 5.923,23.995 6.077,23.22C6.231,22.444 6.612,21.731 7.172,21.172C7.731,20.612 8.444,20.231 9.22,20.077C9.996,19.922 10.8,20.002 11.531,20.304C12.262,20.607 12.886,21.12 13.326,21.778C13.765,22.435 14,23.209 14,24C14,25.061 13.579,26.078 12.828,26.828C12.078,27.578 11.061,28 10,28ZM38,42C37.209,42 36.436,41.765 35.778,41.326C35.12,40.886 34.607,40.262 34.304,39.531C34.002,38.8 33.923,37.995 34.077,37.22C34.231,36.444 34.612,35.731 35.172,35.172C35.731,34.612 36.444,34.231 37.22,34.077C37.996,33.922 38.8,34.002 39.531,34.304C40.262,34.607 40.886,35.12 41.326,35.778C41.765,36.435 42,37.209 42,38C42,39.061 41.579,40.078 40.828,40.828C40.078,41.578 39.061,42 38,42Z" fill="#374957"/>
</svg>
