<svg width="36" height="48" viewBox="0 0 36 48" fill="none" xmlns="http://www.w3.org/2000/svg" xmlns:xlink="http://www.w3.org/1999/xlink">
<path d="M30,16L25.98,16L25.942,12L30,12L30,0L6,0L6,12L10,12L10,16L6,16C4.409,16 2.883,16.632 1.757,17.757C0.632,18.883 0,20.409 0,22L0,48L36,48L36,22C36,20.409 35.368,18.883 34.243,17.757C33.117,16.632 31.591,16 30,16ZM10,4L26,4L26,8L10,8L10,4ZM32,44L4,44L4,22C4,21.47 4.211,20.961 4.586,20.586C4.961,20.211 5.47,20 6,20L14,20L14,12L21.94,12L22.02,20L30,20C30.53,20 31.039,20.211 31.414,20.586C31.789,20.961 32,21.47 32,22L32,44ZM20,30L24,30L24,34L20,34L20,38L16,38L16,34L12,34L12,30L16,30L16,26L20,26L20,30Z" fill="#374957"/>
</svg>
