<svg width="48" height="48" viewBox="0 0 48 48" fill="none" xmlns="http://www.w3.org/2000/svg" xmlns:xlink="http://www.w3.org/1999/xlink">
<path d="M45.158,17.922L39.034,11.818L32.934,17.934L30.09,15.124L36.2,9L30.078,2.884L32.906,0.056C33.36,0.51 35.968,3.112 39.026,6.16L45.128,0.042L47.956,2.872L41.858,8.984L47.97,15.078L45.158,17.922ZM27.002,33.922C21.181,31.455 16.551,26.815 14.098,20.988L22.348,12.736L9.816,0.2L3.476,6.54C2.375,7.646 1.505,8.959 0.916,10.404C0.327,11.849 0.031,13.397 0.044,14.958C0.044,29.454 18.548,47.958 33.044,47.958C34.604,47.97 36.151,47.673 37.595,47.084C39.039,46.495 40.352,45.625 41.458,44.526L47.8,38.184L35.272,25.652L27.002,33.922Z" fill="#374957"/>
</svg>
