<svg width="50" height="48" viewBox="0 0 50 48" fill="none" xmlns="http://www.w3.org/2000/svg" xmlns:xlink="http://www.w3.org/1999/xlink">
<path d="M47.999,26L-0.001,26L-0.001,22L10.141,22C10.306,20.884 10.606,19.791 11.035,18.748L2.267,13.644L4.279,10.188L13.049,15.292C13.726,14.449 14.497,13.686 15.347,13.018L10.251,4.254L13.707,2.242L18.799,11C19.829,10.593 20.903,10.31 21.999,10.158L21.999,0L25.999,0L25.999,10.158C27.103,10.314 28.185,10.603 29.219,11.018L34.323,2.242L37.781,4.254L32.673,13.036C33.52,13.702 34.287,14.464 34.959,15.306L43.759,10.188L45.771,13.644L36.971,18.764C37.397,19.803 37.695,20.889 37.857,22L47.999,22L47.999,26ZM41.999,44C40.939,44 39.921,43.579 39.171,42.828C38.421,42.078 37.999,41.061 37.999,40L33.999,40C33.999,41.061 33.578,42.078 32.828,42.828C32.078,43.579 31.06,44 29.999,44C28.939,44 27.921,43.579 27.171,42.828C26.421,42.078 25.999,41.061 25.999,40L21.999,40C21.999,41.061 21.578,42.078 20.828,42.828C20.078,43.579 19.06,44 17.999,44C16.939,44 15.921,43.579 15.171,42.828C14.421,42.078 13.999,41.061 13.999,40L9.999,40C9.986,40.806 9.73,41.59 9.266,42.249C8.801,42.908 8.149,43.412 7.394,43.696C6.639,43.979 5.816,44.029 5.033,43.839C4.249,43.649 3.541,43.228 2.999,42.63L-0.019,45.264C0.735,46.115 1.662,46.795 2.699,47.261C3.736,47.726 4.86,47.965 5.997,47.963C7.133,47.96 8.257,47.715 9.292,47.245C10.327,46.775 11.25,46.09 11.999,45.236C12.749,46.089 13.672,46.772 14.707,47.24C15.741,47.709 16.864,47.951 17.999,47.951C19.135,47.951 20.258,47.709 21.292,47.24C22.327,46.772 23.25,46.089 23.999,45.236C24.749,46.089 25.672,46.772 26.707,47.24C27.741,47.709 28.864,47.951 29.999,47.951C31.135,47.951 32.258,47.709 33.292,47.24C34.327,46.772 35.25,46.089 35.999,45.236C36.749,46.091 37.672,46.776 38.708,47.246C39.743,47.717 40.866,47.961 42.004,47.964C43.141,47.966 44.265,47.727 45.302,47.261C46.34,46.795 47.266,46.114 48.019,45.262L44.999,42.632C44.626,43.061 44.165,43.405 43.648,43.641C43.13,43.877 42.568,43.999 41.999,44L41.999,44ZM11.999,35.236C12.749,36.089 13.672,36.772 14.707,37.24C15.741,37.709 16.864,37.951 17.999,37.951C19.135,37.951 20.258,37.709 21.292,37.24C22.327,36.772 23.25,36.089 23.999,35.236C24.749,36.089 25.672,36.772 26.707,37.24C27.741,37.709 28.864,37.951 29.999,37.951C31.135,37.951 32.258,37.709 33.292,37.24C34.327,36.772 35.25,36.089 35.999,35.236C36.749,36.091 37.672,36.776 38.708,37.246C39.743,37.717 40.866,37.961 42.004,37.964C43.141,37.966 44.265,37.727 45.302,37.261C46.34,36.795 47.266,36.114 48.019,35.262L44.999,32.632C44.458,33.23 43.75,33.651 42.966,33.841C42.182,34.031 41.359,33.981 40.604,33.697C39.849,33.413 39.197,32.909 38.732,32.25C38.268,31.59 38.013,30.806 37.999,30L33.999,30C33.999,31.061 33.578,32.078 32.828,32.828C32.078,33.579 31.06,34 29.999,34C28.939,34 27.921,33.579 27.171,32.828C26.421,32.078 25.999,31.061 25.999,30L21.999,30C21.999,31.061 21.578,32.078 20.828,32.828C20.078,33.579 19.06,34 17.999,34C16.939,34 15.921,33.579 15.171,32.828C14.421,32.078 13.999,31.061 13.999,30L9.999,30C9.986,30.806 9.73,31.59 9.266,32.249C8.801,32.908 8.149,33.412 7.394,33.696C6.639,33.979 5.816,34.029 5.033,33.839C4.249,33.649 3.541,33.228 2.999,32.63L-0.019,35.264C0.735,36.115 1.662,36.795 2.699,37.261C3.736,37.726 4.86,37.965 5.997,37.963C7.133,37.96 8.257,37.715 9.292,37.245C10.327,36.775 11.25,36.09 11.999,35.236L11.999,35.236Z" fill="#374957"/>
</svg>
