<svg width="34" height="50" viewBox="0 0 34 50" fill="none" xmlns="http://www.w3.org/2000/svg" xmlns:xlink="http://www.w3.org/1999/xlink">
<path d="M29.529,18.914L-0.041,0.036L-0.041,48.036L29.517,29.09C30.377,28.549 31.087,27.799 31.579,26.91C32.071,26.021 32.329,25.022 32.331,24.006C32.332,22.989 32.076,21.989 31.586,21.099C31.096,20.209 30.388,19.457 29.529,18.914L29.529,18.914ZM27.369,25.704L3.969,40.704L3.969,7.352L27.383,22.3C27.672,22.481 27.909,22.732 28.074,23.03C28.238,23.328 28.324,23.664 28.322,24.004C28.321,24.345 28.233,24.679 28.066,24.976C27.899,25.273 27.659,25.522 27.369,25.7L27.369,25.704Z" fill="#374957"/>
</svg>
