<svg width="22" height="48" viewBox="0 0 22 48" fill="none" xmlns="http://www.w3.org/2000/svg" xmlns:xlink="http://www.w3.org/1999/xlink">
<path d="M18.712,0L0.75,39.518C0.335,40.432 0.156,41.435 0.229,42.437C0.302,43.438 0.625,44.404 1.168,45.248C1.712,46.092 2.458,46.787 3.34,47.267C4.221,47.748 5.209,48 6.212,48L22,48L22,2.092L21.986,0L18.712,0ZM18,44L6.212,44C5.878,44 5.548,43.916 5.254,43.756C4.96,43.596 4.711,43.365 4.53,43.083C4.348,42.802 4.24,42.479 4.216,42.145C4.192,41.811 4.252,41.477 4.39,41.172L18,11.232L18,44Z" fill="#374957"/>
</svg>
