<svg width="50" height="50" viewBox="0 0 50 50" fill="none" xmlns="http://www.w3.org/2000/svg" xmlns:xlink="http://www.w3.org/1999/xlink">
<path d="M46.61,32.5C46.385,33.092 46.015,33.617 45.534,34.029C45.053,34.44 44.476,34.724 43.856,34.854C43.226,34.993 42.572,34.97 41.953,34.788C41.334,34.605 40.772,34.27 40.318,33.812L40.118,33.612C39.117,32.611 37.84,31.93 36.45,31.657C35.061,31.383 33.621,31.53 32.315,32.077C31.009,32.625 29.896,33.549 29.117,34.732C28.337,35.914 27.928,37.302 27.94,38.718L28.02,47.75L26.172,47.904C25.51,47.96 24.846,48.004 24.172,48.004C19.389,48.005 14.715,46.578 10.749,43.905C6.783,41.231 3.706,37.434 1.914,33C0.121,28.565 -0.306,23.697 0.688,19.018C1.681,14.34 4.05,10.065 7.49,6.742C9.8,4.491 12.543,2.734 15.553,1.578C18.564,0.421 21.778,-0.111 25,0.014C31.089,0.298 36.85,2.86 41.14,7.191C45.429,11.523 47.935,17.308 48.16,23.4C48.241,26.505 47.714,29.596 46.61,32.5L46.61,32.5ZM34.23,16.1C33.657,16.252 33.141,16.571 32.749,17.016C32.357,17.462 32.106,18.013 32.027,18.601C31.948,19.189 32.046,19.788 32.307,20.32C32.568,20.853 32.981,21.296 33.494,21.594C34.008,21.892 34.597,22.031 35.19,21.993C35.782,21.956 36.349,21.744 36.821,21.384C37.293,21.024 37.647,20.532 37.839,19.97C38.031,19.409 38.052,18.803 37.9,18.23C37.799,17.849 37.624,17.492 37.385,17.179C37.146,16.865 36.847,16.602 36.506,16.405C36.165,16.207 35.789,16.078 35.398,16.026C35.008,15.974 34.611,15.999 34.23,16.1ZM24.23,10.1C23.657,10.252 23.141,10.571 22.749,11.016C22.357,11.462 22.106,12.013 22.027,12.601C21.948,13.189 22.046,13.788 22.307,14.32C22.568,14.853 22.981,15.296 23.494,15.594C24.008,15.892 24.597,16.031 25.19,15.993C25.782,15.956 26.349,15.744 26.821,15.384C27.293,15.024 27.647,14.532 27.839,13.97C28.031,13.409 28.052,12.803 27.9,12.23C27.799,11.849 27.624,11.492 27.385,11.179C27.146,10.865 26.847,10.602 26.506,10.405C26.165,10.207 25.789,10.078 25.398,10.026C25.008,9.974 24.611,9.999 24.23,10.1L24.23,10.1ZM14.23,16.1C13.657,16.252 13.141,16.571 12.749,17.016C12.357,17.462 12.106,18.013 12.027,18.601C11.948,19.189 12.046,19.788 12.307,20.32C12.568,20.853 12.981,21.296 13.494,21.594C14.008,21.892 14.598,22.031 15.19,21.993C15.782,21.956 16.35,21.744 16.821,21.384C17.293,21.024 17.647,20.532 17.839,19.97C18.031,19.409 18.052,18.803 17.9,18.23C17.799,17.849 17.624,17.492 17.385,17.179C17.146,16.865 16.847,16.602 16.506,16.405C16.165,16.207 15.789,16.078 15.398,16.026C15.008,15.974 14.611,15.999 14.23,16.1L14.23,16.1ZM14.23,28.1C13.657,28.252 13.141,28.571 12.749,29.016C12.357,29.462 12.106,30.013 12.027,30.601C11.948,31.189 12.046,31.787 12.307,32.32C12.568,32.853 12.981,33.296 13.494,33.594C14.008,33.892 14.598,34.031 15.19,33.993C15.782,33.956 16.35,33.744 16.821,33.384C17.293,33.024 17.647,32.532 17.839,31.97C18.031,31.409 18.052,30.803 17.9,30.23C17.799,29.849 17.624,29.492 17.385,29.179C17.146,28.865 16.847,28.602 16.506,28.405C16.165,28.207 15.789,28.078 15.398,28.026C15.008,27.974 14.611,27.999 14.23,28.1L14.23,28.1Z" fill="#374957"/>
</svg>
