<svg width="48" height="48" viewBox="0 0 48 48" fill="none" xmlns="http://www.w3.org/2000/svg" xmlns:xlink="http://www.w3.org/1999/xlink">
<path d="M44.2,3.801C37.328,-3.061 18.744,-0.133 9.304,9.305C-0.136,18.743 -3.062,37.329 3.8,44.201C7.013,46.9 11.148,48.248 15.334,47.961C24.002,47.885 32.331,44.582 38.696,38.697C48.132,29.259 51.062,10.673 44.2,3.801L44.2,3.801ZM32.666,4.001C35.794,3.75 38.902,4.689 41.368,6.629C43.4,8.663 44.222,12.601 43.918,17.091L30.918,4.091C31.508,4.053 32.1,4.001 32.666,4.001L32.666,4.001ZM6.632,41.369C4.6,39.339 3.778,35.401 4.082,30.911L17.082,43.911C12.6,44.221 8.662,43.401 6.632,41.369ZM35.868,35.869C31.997,39.517 27.207,42.045 22.01,43.183L4.81,25.983C5.951,20.788 8.482,16.001 12.132,12.133C16.01,8.486 20.809,5.965 26.012,4.841L43.184,22.013C42.046,27.21 39.518,31.999 35.868,35.869L35.868,35.869ZM27.414,12.587L35.414,20.587L32.586,23.415L30,20.829L26.828,24.001L29.414,26.587L26.586,29.415L24,26.829L20.828,30.001L23.414,32.587L20.586,35.415L12.586,27.415L15.414,24.587L18,27.173L21.172,24.001L18.586,21.415L21.414,18.587L24,21.173L27.172,18.001L24.586,15.415L27.414,12.587Z" fill="#374957"/>
</svg>
