<svg width="44" height="48" viewBox="0 0 44 48" fill="none" xmlns="http://www.w3.org/2000/svg" xmlns:xlink="http://www.w3.org/1999/xlink">
<path d="M25,26C24.407,26 23.827,25.824 23.333,25.495C22.84,25.165 22.455,24.697 22.228,24.148C22.001,23.6 21.942,22.997 22.058,22.415C22.173,21.833 22.459,21.299 22.879,20.879C23.298,20.459 23.833,20.174 24.415,20.058C24.997,19.942 25.6,20.002 26.148,20.229C26.696,20.456 27.165,20.84 27.494,21.334C27.824,21.827 28,22.407 28,23C28,23.796 27.684,24.559 27.121,25.122C26.559,25.684 25.796,26 25,26ZM39.702,16.548C38.899,11.98 36.533,7.832 33.009,4.816C29.485,1.8 25.023,0.102 20.385,0.014C15.747,-0.074 11.223,1.452 7.587,4.332C3.951,7.212 1.428,11.266 0.452,15.8L-1,24L2,24C5.591,23.978 9.132,23.158 12.368,21.6C12.131,22.029 12.005,22.51 12,23C11.997,23.583 12.164,24.154 12.48,24.643C12.797,25.132 13.248,25.519 13.781,25.755C14.313,25.992 14.903,26.069 15.478,25.976C16.053,25.883 16.588,25.625 17.019,25.233C17.45,24.841 17.757,24.332 17.904,23.768C18.05,23.204 18.029,22.61 17.843,22.058C17.658,21.506 17.315,21.02 16.858,20.659C16.401,20.298 15.848,20.078 15.268,20.026C19.535,17.364 23.149,13.776 25.842,9.528C24.664,8.875 23.384,8.426 22.056,8.2C18.98,12.758 12.434,19.126 3.786,19.918L4.376,16.58C5.193,12.874 7.3,9.579 10.322,7.283C13.344,4.988 17.083,3.841 20.873,4.047C24.662,4.254 28.254,5.801 31.009,8.412C33.763,11.023 35.499,14.527 35.908,18.3L36.064,19.79L37.54,20.056C38.269,20.199 38.919,20.606 39.364,21.2C39.81,21.794 40.019,22.533 39.952,23.272C39.885,24.011 39.546,24.7 39,25.204C38.455,25.708 37.742,25.991 37,26C36.828,26 34.826,25.65 34.826,25.65L34.262,27.25C32.43,32.442 26.26,38 20,38C13.948,38 7.954,32.762 5.918,27.694C4.621,27.891 3.312,27.993 2,28L1.76,28C1.884,28.362 1.972,28.6 2,28.678C3.901,33.479 7.445,37.448 12,39.878L12,48L16,48L16,41.464C17.305,41.813 18.649,41.993 20,42L20,42C21.35,41.995 22.694,41.817 24,41.472L24,48L28,48L28,39.908C32.128,37.689 35.443,34.213 37.464,29.984C39.036,29.877 40.525,29.243 41.692,28.184C42.858,27.126 43.634,25.705 43.892,24.151C44.151,22.597 43.878,21.001 43.118,19.622C42.358,18.242 41.154,17.159 39.702,16.548L39.702,16.548Z" fill="#374957"/>
</svg>
