<svg width="50" height="48" viewBox="0 0 50 48" fill="none" xmlns="http://www.w3.org/2000/svg" xmlns:xlink="http://www.w3.org/1999/xlink">
<path d="M34.642,0L13.362,0C11.949,-0.002 10.581,0.495 9.5,1.404C8.418,2.312 7.693,3.574 7.452,4.966L-0.078,48L48.122,48L40.552,4.96C40.307,3.57 39.581,2.311 38.5,1.404C37.419,0.497 36.053,0 34.642,0L34.642,0ZM4.682,44L11.4,5.656C11.481,5.194 11.721,4.774 12.08,4.472C12.439,4.169 12.893,4.002 13.362,4L34.642,4C35.112,4 35.568,4.166 35.928,4.468C36.288,4.771 36.53,5.191 36.612,5.654L43.358,44L4.682,44ZM22,8L26,8L26,16L22,16L22,8ZM22,20L26,20L26,28L22,28L22,20ZM22,32L26,32L26,40L22,40L22,32Z" fill="#374957"/>
</svg>
