<svg width="48" height="48" viewBox="0 0 48 48" fill="none" xmlns="http://www.w3.org/2000/svg" xmlns:xlink="http://www.w3.org/1999/xlink">
<path d="M24,0C19.253,0 14.613,1.408 10.666,4.045C6.72,6.682 3.643,10.43 1.827,14.816C0.01,19.201 -0.465,24.027 0.461,28.682C1.387,33.338 3.673,37.614 7.029,40.971C10.386,44.327 14.662,46.613 19.318,47.539C23.973,48.465 28.799,47.99 33.184,46.173C37.57,44.357 41.318,41.28 43.955,37.334C46.592,33.387 48,28.747 48,24C47.993,17.637 45.462,11.536 40.963,7.037C36.464,2.538 30.363,0.007 24,0L24,0ZM16.928,31.072C18.806,32.944 21.349,33.995 24,33.995C26.651,33.995 29.194,32.944 31.072,31.072L33.9,33.9C31.942,35.858 29.447,37.191 26.732,37.731C24.016,38.271 21.201,37.994 18.643,36.934C16.085,35.875 13.899,34.08 12.36,31.778C10.822,29.476 10.001,26.769 10.001,24C10.001,21.231 10.822,18.524 12.36,16.222C13.899,13.92 16.085,12.126 18.643,11.066C21.201,10.006 24.016,9.729 26.732,10.269C29.447,10.809 31.942,12.142 33.9,14.1L31.072,16.928C29.196,15.052 26.653,13.999 24,13.999C21.347,13.999 18.804,15.052 16.928,16.928C15.052,18.804 13.999,21.347 13.999,24C13.999,26.653 15.052,29.196 16.928,31.072L16.928,31.072Z" fill="#374957"/>
</svg>
