<svg width="34" height="50" viewBox="0 0 34 50" fill="none" xmlns="http://www.w3.org/2000/svg" xmlns:xlink="http://www.w3.org/1999/xlink">
<path d="M33.038,21.801L11.332,1.697C10.349,0.826 9.136,0.258 7.838,0.061C6.54,-0.137 5.213,0.045 4.016,0.585C2.819,1.124 1.803,1.997 1.09,3.1C0.378,4.203 -0.001,5.488 0,6.801L0,37.001C0,37.584 0.17,38.155 0.49,38.644C0.81,39.132 1.265,39.517 1.8,39.75C2.335,39.984 2.926,40.056 3.502,39.959C4.077,39.861 4.612,39.598 5.04,39.201L12.384,32.401L18.228,45.221C18.844,46.427 19.913,47.34 21.202,47.757C21.84,47.964 22.512,48.044 23.18,47.991C23.849,47.938 24.501,47.753 25.098,47.449C25.695,47.144 26.227,46.724 26.662,46.214C27.097,45.704 27.428,45.113 27.635,44.475C27.842,43.837 27.921,43.165 27.868,42.496C27.815,41.828 27.631,41.176 27.326,40.579L21.706,28.339L31.416,26.977C31.978,26.898 32.506,26.661 32.939,26.294C33.372,25.927 33.692,25.445 33.862,24.903C34.032,24.362 34.045,23.783 33.899,23.235C33.753,22.686 33.454,22.19 33.038,21.805L33.038,21.801ZM14.122,23.339C13.515,23.423 12.949,23.693 12.5,24.111L6,30.131L6,6.801C5.994,6.642 6.036,6.486 6.122,6.353C6.208,6.221 6.333,6.118 6.48,6.059C6.596,6.004 6.722,5.975 6.85,5.973C7.018,5.971 7.18,6.034 7.304,6.147L24.324,21.909L14.122,23.339Z" fill="#374957"/>
</svg>
