<svg width="38" height="50" viewBox="0 0 38 50" fill="none" xmlns="http://www.w3.org/2000/svg" xmlns:xlink="http://www.w3.org/1999/xlink">
<path d="M32.051,44.052L32.051,37.09L31.301,36.49C26.201,32.4 24.201,27.874 24.077,20.052L28.051,20.052L28.051,16.052L24.939,16.052C25.66,14.842 26.043,13.461 26.051,12.052C26.051,9.502 23.869,5.806 21.437,1.922C21.077,1.35 20.577,0.878 19.985,0.551C19.393,0.225 18.728,0.053 18.052,0.053C17.376,0.053 16.71,0.225 16.118,0.551C15.527,0.878 15.027,1.35 14.667,1.922C12.235,5.8 10.053,9.502 10.053,12.052C10.061,13.461 10.445,14.841 11.165,16.052L8.053,16.052L8.053,20.052L12.027,20.052C11.897,27.874 9.909,32.4 4.801,36.49L4.051,37.09L4.051,44.052L0.051,44.052L0.051,48.052L36.051,48.052L36.051,44.052L32.051,44.052ZM14.051,12.052C14.051,10.44 16.851,5.958 18.051,4.052C19.251,5.964 22.051,10.452 22.051,12.052C22.051,13.113 21.629,14.13 20.879,14.881C20.129,15.631 19.112,16.052 18.051,16.052C16.99,16.052 15.973,15.631 15.222,14.881C14.472,14.13 14.051,13.113 14.051,12.052ZM20.051,20.052C20.133,26.13 21.181,31.35 25.121,36.052L10.973,36.052C14.913,31.35 15.961,26.13 16.043,20.052L20.051,20.052ZM8.051,40.052L28.051,40.052L28.051,44.052L8.051,44.052L8.051,40.052Z" fill="#374957"/>
</svg>
