<svg width="48" height="44" viewBox="0 0 48 44" fill="none" xmlns="http://www.w3.org/2000/svg" xmlns:xlink="http://www.w3.org/1999/xlink">
<path d="M48,36L48,6C48,4.408 47.368,2.882 46.243,1.757C45.117,0.632 43.591,0 42,0L6,0C4.409,0 2.883,0.632 1.757,1.757C0.632,2.882 0,4.408 0,6L0,36L22,36L22,40L12,40L12,44L36,44L36,40L26,40L26,36L48,36ZM6,4L42,4C42.53,4 43.039,4.21 43.414,4.585C43.789,4.96 44,5.469 44,6L44,24L4,24L4,6C4,5.469 4.211,4.96 4.586,4.585C4.961,4.21 5.47,4 6,4L6,4ZM4,28L44,28L44,32L4,32L4,28Z" fill="#374957"/>
</svg>
