<svg width="40" height="48" viewBox="0 0 40 48" fill="none" xmlns="http://www.w3.org/2000/svg" xmlns:xlink="http://www.w3.org/1999/xlink">
<path d="M18.724,28L22.756,28L21.252,40L17.22,40L18.724,28ZM39.854,15.306L35.766,48L4.234,48L0.112,15.112C-0.044,14.247 -0.009,13.358 0.215,12.508C0.438,11.657 0.844,10.866 1.405,10.189C1.965,9.511 2.667,8.965 3.461,8.587C4.254,8.209 5.121,8.008 6,8L21.23,8L22.23,0L36,0L36,4L25.766,4L25.264,8L34,8C34.899,8 35.786,8.202 36.597,8.591C37.407,8.98 38.12,9.546 38.682,10.247C39.244,10.949 39.641,11.768 39.845,12.643C40.048,13.519 40.052,14.429 39.856,15.306L39.854,15.306ZM24.762,12L23.762,20L35.246,20L35.92,14.624C36.01,14.305 36.024,13.97 35.962,13.645C35.9,13.32 35.763,13.013 35.562,12.75C35.375,12.516 35.137,12.327 34.867,12.197C34.596,12.067 34.3,12 34,12L24.762,12ZM4.048,14.432L4.748,20L19.728,20L20.728,12L6,12C5.702,12.002 5.407,12.071 5.139,12.201C4.87,12.331 4.634,12.52 4.447,12.753C4.26,12.985 4.127,13.257 4.058,13.547C3.989,13.838 3.986,14.14 4.048,14.432ZM32.234,44L34.742,24L5.25,24L7.764,44L32.234,44Z" fill="#374957"/>
</svg>
