<svg width="48" height="44" viewBox="0 0 48 44" fill="none" xmlns="http://www.w3.org/2000/svg" xmlns:xlink="http://www.w3.org/1999/xlink">
<path d="M42,0L22,0C20.409,0 18.883,0.633 17.757,1.758C16.632,2.883 16,4.409 16,6L16,26C14.198,24.649 11.992,23.945 9.74,24.004C7.488,24.062 5.322,24.879 3.593,26.323C1.863,27.766 0.672,29.751 0.211,31.957C-0.249,34.162 0.048,36.458 1.056,38.473C2.063,40.487 3.721,42.103 5.762,43.058C7.802,44.013 10.105,44.25 12.298,43.733C14.49,43.215 16.443,41.973 17.841,40.206C19.239,38.44 20,36.253 20,34L20,6C20,5.47 20.211,4.961 20.586,4.586C20.961,4.211 21.47,4 22,4L42,4C42.53,4 43.039,4.211 43.414,4.586C43.789,4.961 44,5.47 44,6L44,26C42.198,24.649 39.992,23.945 37.74,24.004C35.488,24.062 33.322,24.879 31.593,26.323C29.863,27.766 28.672,29.751 28.211,31.957C27.751,34.162 28.048,36.458 29.056,38.473C30.063,40.487 31.721,42.103 33.762,43.058C35.802,44.013 38.105,44.25 40.298,43.733C42.49,43.215 44.443,41.973 45.841,40.206C47.239,38.44 48,36.253 48,34L48,6C48,4.409 47.368,2.883 46.243,1.758C45.117,0.633 43.591,0 42,0L42,0Z" fill="#374957"/>
</svg>
