<svg width="48" height="40" viewBox="0 0 48 40" fill="none" xmlns="http://www.w3.org/2000/svg" xmlns:xlink="http://www.w3.org/1999/xlink">
<path d="M13.2,34.244L9.354,33.044L11,27.932C11.339,27.972 11.679,27.995 12.02,28C14.182,27.994 16.285,27.288 18.012,25.987C19.739,24.686 20.998,22.86 21.6,20.784L24,13.672L26.366,20.672C26.959,22.961 28.362,24.958 30.316,26.292C32.269,27.626 34.639,28.206 36.988,27.926L38.588,33.038L34.728,34.238L35.916,38.058L47.474,34.458L46.288,30.638L42.41,31.838L40.81,26.718C42.808,25.636 44.374,23.901 45.247,21.804C46.121,19.707 46.249,17.374 45.61,15.194L41.914,4.264C41.45,2.769 40.424,1.512 39.053,0.758C37.681,0.003 36.071,-0.189 34.56,0.22L26.856,2.368C25.751,2.675 24.759,3.296 24,4.156C23.241,3.296 22.249,2.675 21.144,2.368L13.438,0.22C11.938,-0.194 10.336,-0.011 8.969,0.731C7.601,1.473 6.575,2.717 6.104,4.2L2.37,15.314C1.759,17.478 1.9,19.787 2.773,21.861C3.645,23.934 5.195,25.65 7.17,26.728L5.536,31.864L1.642,30.664L0.46,34.474L12.022,38.074L13.2,34.244ZM41.214,20.946C40.827,21.632 40.308,22.235 39.688,22.721C39.068,23.207 38.358,23.566 37.599,23.778C36.84,23.989 36.047,24.049 35.264,23.954C34.482,23.859 33.726,23.611 33.04,23.224C32.339,22.826 31.725,22.292 31.233,21.654C30.742,21.015 30.383,20.285 30.178,19.506L28.328,14L40.974,14L41.774,16.388C41.988,17.146 42.049,17.939 41.955,18.722C41.86,19.504 41.611,20.26 41.222,20.946L41.214,20.946ZM26.714,7.184C26.841,6.949 27.015,6.743 27.224,6.577C27.432,6.412 27.673,6.29 27.93,6.22L35.632,4.074C35.804,4.025 35.981,4.001 36.16,4C36.6,4.004 37.027,4.15 37.377,4.417C37.727,4.683 37.982,5.055 38.104,5.478L39.626,10L26.98,10L26.55,8.726C26.473,8.471 26.448,8.203 26.476,7.938C26.505,7.673 26.585,7.417 26.714,7.184L26.714,7.184ZM11.836,4C12.015,4 12.193,4.024 12.366,4.072L20.07,6.22C20.579,6.36 21.012,6.696 21.274,7.154C21.536,7.612 21.607,8.156 21.47,8.666L21.02,10L8.374,10L9.914,5.42C10.041,5.009 10.296,4.65 10.642,4.394C10.988,4.139 11.406,4 11.836,4L11.836,4ZM6.2,16.49L7.028,14L19.672,14L17.784,19.6C17.465,20.741 16.814,21.763 15.915,22.535C15.015,23.307 13.907,23.796 12.73,23.939C11.554,24.082 10.361,23.873 9.302,23.339C8.244,22.805 7.368,21.969 6.784,20.938C6.011,19.59 5.801,17.991 6.2,16.49L6.2,16.49Z" fill="#374957"/>
</svg>
