<svg width="50" height="48" viewBox="0 0 50 48" fill="none" xmlns="http://www.w3.org/2000/svg" xmlns:xlink="http://www.w3.org/1999/xlink">
<path d="M47.736,10.624C47.995,9.871 48.07,9.066 47.955,8.278C47.84,7.49 47.538,6.74 47.075,6.092C46.611,5.444 46,4.916 45.291,4.552C44.582,4.188 43.797,3.999 43,4L37.898,4C38.033,3.587 38.077,3.15 38.028,2.718C37.979,2.286 37.837,1.87 37.612,1.497C37.387,1.125 37.084,0.806 36.725,0.562C36.366,0.317 35.958,0.153 35.529,0.08C35.101,0.007 34.661,0.028 34.241,0.141C33.821,0.253 33.431,0.455 33.096,0.732C32.761,1.009 32.49,1.355 32.301,1.747C32.112,2.138 32.009,2.566 32,3C32,3.265 31.895,3.52 31.707,3.707C31.52,3.895 31.266,4 31,4L17,4C16.735,4 16.481,3.895 16.293,3.707C16.106,3.52 16,3.265 16,3C15.991,2.566 15.889,2.138 15.7,1.747C15.511,1.355 15.24,1.009 14.905,0.732C14.57,0.455 14.179,0.253 13.759,0.141C13.339,0.028 12.9,0.007 12.471,0.08C12.043,0.153 11.635,0.317 11.275,0.562C10.916,0.806 10.614,1.125 10.389,1.497C10.164,1.87 10.022,2.286 9.973,2.718C9.923,3.15 9.967,3.587 10.102,4L5,4C4.204,3.999 3.418,4.188 2.709,4.552C2.001,4.916 1.389,5.444 0.926,6.092C0.462,6.74 0.161,7.49 0.046,8.278C-0.069,9.066 0.005,9.871 0.264,10.624C0.941,12.88 2.07,14.974 3.584,16.778L10.062,43.612C10.208,44.82 10.79,45.934 11.7,46.742C12.609,47.55 13.783,47.998 15,48L33,48C34.217,47.998 35.391,47.55 36.301,46.742C37.21,45.934 37.793,44.82 37.938,43.612L44.416,16.778C45.93,14.974 47.06,12.88 47.736,10.624ZM33.118,38.012L27,38L27,29C27.009,26.914 27.75,24.896 29.094,23.3C29.581,23.692 30.179,23.922 30.803,23.958C31.427,23.994 32.047,23.834 32.575,23.5C33.104,23.167 33.516,22.676 33.752,22.098C33.988,21.519 34.038,20.881 33.894,20.272C34.583,20.098 35.29,20.007 36,20C36,20 37.312,19.98 37.472,19.974L33.118,38.012ZM14.882,38.012L10.528,19.974C10.688,19.98 12,20 12,20C12.708,20.008 13.412,20.099 14.098,20.272C13.954,20.881 14.004,21.519 14.241,22.098C14.477,22.676 14.888,23.167 15.417,23.5C15.946,23.834 16.566,23.994 17.19,23.958C17.814,23.922 18.411,23.692 18.898,23.3C20.245,24.895 20.989,26.913 21,29L21,38L14.882,38.012ZM33.068,10C34.788,11.168 36.408,12.476 37.91,13.912C37.616,13.966 36,14 36,14C33.671,14.001 31.374,14.545 29.291,15.588C27.208,16.632 25.396,18.145 24,20.01C22.604,18.145 20.793,16.632 18.71,15.588C16.627,14.545 14.33,14.001 12,14C12,14 10.384,13.966 10.09,13.912C11.593,12.476 13.213,11.168 14.932,10L33.068,10Z" fill="#374957"/>
</svg>
