<svg width="48" height="48" viewBox="0 0 48 48" fill="none" xmlns="http://www.w3.org/2000/svg" xmlns:xlink="http://www.w3.org/1999/xlink">
<path d="M20.313,47.686C15.935,47.008 11.831,45.13 8.455,42.262C5.079,39.393 2.563,35.646 1.187,31.435C-0.19,27.224 -0.373,22.714 0.658,18.405C1.688,14.097 3.892,10.158 7.025,7.025C10.157,3.892 14.096,1.689 18.405,0.658C22.714,-0.372 27.224,-0.189 31.435,1.187C35.646,2.563 39.393,5.079 42.262,8.455C45.13,11.831 47.007,15.936 47.685,20.314C43.953,19.701 40.128,19.986 36.527,21.145C32.926,22.304 29.653,24.303 26.978,26.978C24.303,29.653 22.304,32.926 21.145,36.527C19.986,40.128 19.701,43.953 20.313,47.686L20.313,47.686ZM47.999,24.4C44.76,23.737 41.406,23.889 38.239,24.84C35.072,25.792 32.19,27.514 29.852,29.852C27.514,32.191 25.792,35.072 24.84,38.239C23.889,41.406 23.737,44.76 24.399,48L47.999,24.4Z" fill="#374957"/>
</svg>
