<svg width="48" height="48" viewBox="0 0 48 48" fill="none" xmlns="http://www.w3.org/2000/svg" xmlns:xlink="http://www.w3.org/1999/xlink">
<path d="M24,20C18.546,20.11 13.13,19.077 8.1,16.966C9.04,0.24 17.614,0 18,0C18.3,0 20.872,0.2 24,5.026C27.026,0.256 29.7,0 30,0C30.386,0 38.962,0.24 39.9,16.966C34.87,19.077 29.454,20.111 24,20L24,20ZM44.158,19.332C37.953,22.598 31.009,24.206 24,24C16.991,24.207 10.047,22.599 3.842,19.332C1.308,20.6 0,22.15 0,24C0,30.314 15.086,32 24,32C32.914,32 48,30.314 48,24C48,22.15 46.692,20.6 44.158,19.332ZM33,34C31.612,34.002 30.256,34.416 29.104,35.19C27.952,35.964 27.056,37.063 26.53,38.348C24.875,37.884 23.125,37.884 21.47,38.348C20.832,36.8 19.658,35.533 18.164,34.777C16.67,34.021 14.954,33.827 13.329,34.23C11.704,34.633 10.277,35.606 9.309,36.972C8.341,38.338 7.895,40.006 8.053,41.673C8.211,43.34 8.963,44.895 10.171,46.054C11.379,47.214 12.963,47.901 14.635,47.991C16.307,48.08 17.956,47.567 19.281,46.543C20.607,45.52 21.52,44.054 21.856,42.414C22.545,42.165 23.268,42.026 24,42C24.732,42.025 25.455,42.165 26.144,42.414C26.411,43.711 27.041,44.905 27.96,45.858C28.879,46.811 30.049,47.484 31.335,47.799C32.621,48.114 33.969,48.058 35.225,47.637C36.48,47.216 37.59,46.448 38.426,45.422C39.263,44.395 39.791,43.153 39.949,41.839C40.108,40.524 39.891,39.192 39.322,37.996C38.754,36.8 37.859,35.79 36.74,35.083C35.621,34.376 34.324,34 33,34L33,34Z" fill="#374957"/>
</svg>
