<svg width="48" height="50" viewBox="0 0 48 50" fill="none" xmlns="http://www.w3.org/2000/svg" xmlns:xlink="http://www.w3.org/1999/xlink">
<path d="M38.665,29.335C37.152,29.335 35.662,29.703 34.323,30.408C32.984,31.113 31.836,32.133 30.979,33.381L17.979,27.511C18.891,25.272 18.898,22.766 17.999,20.523L30.987,14.624C32.254,16.462 34.137,17.785 36.295,18.352C38.454,18.92 40.744,18.696 42.751,17.72C44.758,16.743 46.348,15.08 47.234,13.032C48.119,10.983 48.241,8.685 47.577,6.554C46.913,4.424 45.508,2.602 43.616,1.419C41.723,0.235 39.47,-0.23 37.264,0.106C35.057,0.442 33.045,1.558 31.591,3.251C30.137,4.945 29.338,7.103 29.339,9.334C29.339,9.865 29.384,10.395 29.473,10.918L15.691,17.174C14.363,15.935 12.701,15.111 10.911,14.802C9.121,14.493 7.279,14.714 5.612,15.437C3.945,16.159 2.526,17.353 1.527,18.871C0.529,20.388 -0.005,22.165 -0.009,23.981C-0.012,25.798 0.514,27.577 1.506,29.098C2.499,30.62 3.913,31.82 5.577,32.549C7.241,33.279 9.082,33.507 10.873,33.205C12.665,32.904 14.33,32.086 15.663,30.853L29.463,37.087C29.139,38.973 29.402,40.913 30.218,42.644C31.033,44.376 32.36,45.815 34.021,46.767C35.681,47.718 37.594,48.137 39.5,47.965C41.406,47.793 43.213,47.04 44.677,45.806C46.14,44.573 47.189,42.92 47.682,41.071C48.175,39.221 48.087,37.265 47.43,35.468C46.774,33.67 45.581,32.117 44.013,31.02C42.445,29.923 40.577,29.335 38.663,29.335L38.665,29.335Z" fill="#374957"/>
</svg>
