<svg width="48" height="48" viewBox="0 0 48 48" fill="none" xmlns="http://www.w3.org/2000/svg" xmlns:xlink="http://www.w3.org/1999/xlink">
<path d="M37,48L11,48C8.084,47.997 5.288,46.837 3.225,44.775C1.163,42.712 0.003,39.916 0,37L0,11C0.003,8.084 1.163,5.288 3.225,3.225C5.288,1.163 8.084,0.003 11,0L37,0C39.916,0.003 42.712,1.163 44.775,3.225C46.837,5.288 47.997,8.084 48,11L48,37C47.997,39.916 46.837,42.712 44.775,44.775C42.712,46.837 39.916,47.997 37,48ZM11,6C9.674,6 8.402,6.527 7.464,7.464C6.527,8.402 6,9.674 6,11L6,37C6,38.326 6.527,39.598 7.464,40.536C8.402,41.473 9.674,42 11,42L37,42C38.326,42 39.598,41.473 40.536,40.536C41.473,39.598 42,38.326 42,37L42,11C42,9.674 41.473,8.402 40.536,7.464C39.598,6.527 38.326,6 37,6L11,6ZM38,14C38,12.939 37.579,11.922 36.828,11.172C36.078,10.421 35.061,10 34,10L14,10C12.939,10 11.922,10.421 11.172,11.172C10.421,11.922 10,12.939 10,14C10,15.061 10.421,16.078 11.172,16.828C11.922,17.579 12.939,18 14,18L34,18C35.061,18 36.078,17.579 36.828,16.828C37.579,16.078 38,15.061 38,14ZM13,23C12.407,23 11.827,23.176 11.333,23.506C10.84,23.835 10.455,24.304 10.228,24.852C10.001,25.4 9.942,26.003 10.058,26.585C10.173,27.167 10.459,27.702 10.879,28.121C11.298,28.541 11.833,28.827 12.415,28.942C12.997,29.058 13.6,28.999 14.148,28.772C14.696,28.545 15.165,28.16 15.494,27.667C15.824,27.173 16,26.593 16,26C16,25.204 15.684,24.441 15.121,23.879C14.559,23.316 13.796,23 13,23ZM23,23C22.407,23 21.827,23.176 21.333,23.506C20.84,23.835 20.455,24.304 20.228,24.852C20.001,25.4 19.942,26.003 20.058,26.585C20.173,27.167 20.459,27.702 20.879,28.121C21.298,28.541 21.833,28.827 22.415,28.942C22.997,29.058 23.6,28.999 24.148,28.772C24.696,28.545 25.165,28.16 25.494,27.667C25.824,27.173 26,26.593 26,26C26,25.204 25.684,24.441 25.121,23.879C24.559,23.316 23.796,23 23,23ZM13,32C12.407,32 11.827,32.176 11.333,32.506C10.84,32.835 10.455,33.304 10.228,33.852C10.001,34.4 9.942,35.003 10.058,35.585C10.173,36.167 10.459,36.702 10.879,37.121C11.298,37.541 11.833,37.827 12.415,37.942C12.997,38.058 13.6,37.999 14.148,37.772C14.696,37.545 15.165,37.16 15.494,36.667C15.824,36.173 16,35.593 16,35C16,34.204 15.684,33.441 15.121,32.879C14.559,32.316 13.796,32 13,32ZM23,32C22.407,32 21.827,32.176 21.333,32.506C20.84,32.835 20.455,33.304 20.228,33.852C20.001,34.4 19.942,35.003 20.058,35.585C20.173,36.167 20.459,36.702 20.879,37.121C21.298,37.541 21.833,37.827 22.415,37.942C22.997,38.058 23.6,37.999 24.148,37.772C24.696,37.545 25.165,37.16 25.494,36.667C25.824,36.173 26,35.593 26,35C26,34.204 25.684,33.441 25.121,32.879C24.559,32.316 23.796,32 23,32ZM38,35C38,34.204 37.684,33.441 37.121,32.879C36.559,32.316 35.796,32 35,32L33,32C32.204,32 31.441,32.316 30.879,32.879C30.316,33.441 30,34.204 30,35C30,35.796 30.316,36.559 30.879,37.121C31.441,37.684 32.204,38 33,38L35,38C35.796,38 36.559,37.684 37.121,37.121C37.684,36.559 38,35.796 38,35ZM38,26C38,25.204 37.684,24.441 37.121,23.879C36.559,23.316 35.796,23 35,23L33,23C32.204,23 31.441,23.316 30.879,23.879C30.316,24.441 30,25.204 30,26C30,26.796 30.316,27.559 30.879,28.121C31.441,28.684 32.204,29 33,29L35,29C35.796,29 36.559,28.684 37.121,28.121C37.684,27.559 38,26.796 38,26Z" fill="#374957"/>
</svg>
