<svg width="44" height="48" viewBox="0 0 44 48" fill="none" xmlns="http://www.w3.org/2000/svg" xmlns:xlink="http://www.w3.org/1999/xlink">
<path d="M22,0C19.107,-0.007 16.241,0.561 13.569,1.673C10.898,2.784 8.474,4.416 6.44,6.474C2.309,10.646 -0.001,16.284 0.015,22.154C0.03,28.025 2.371,33.651 6.524,37.8L14,44.718C16.124,46.811 18.983,47.989 21.965,48C24.946,48.012 27.814,46.856 29.954,44.78L37.568,37.708C41.686,33.554 43.996,27.941 43.996,22.092C43.996,16.243 41.686,10.63 37.568,6.476C35.533,4.417 33.109,2.784 30.436,1.672C27.763,0.56 24.895,-0.008 22,0L22,0ZM33.4,33.4L25.8,40.452C24.766,41.441 23.387,41.987 21.956,41.976C20.525,41.964 19.155,41.395 18.136,40.39L10.692,33.472C7.691,30.444 6.006,26.354 6.006,22.09C6.006,17.827 7.691,13.736 10.692,10.708C12.173,9.216 13.935,8.032 15.876,7.224C17.817,6.416 19.898,6 22,6C24.102,6 26.184,6.416 28.125,7.224C30.065,8.032 31.827,9.216 33.308,10.708L33.308,10.708C36.305,13.718 37.996,17.788 38.013,22.035C38.03,26.283 36.373,30.366 33.4,33.4L33.4,33.4ZM32,20.256L32,28C32,28.531 31.79,29.039 31.414,29.414C31.039,29.789 30.531,30 30,30L28,30C27.47,30 26.961,29.789 26.586,29.414C26.211,29.039 26,28.531 26,28L26,24C26,23.47 25.79,22.961 25.414,22.586C25.039,22.211 24.531,22 24,22L20,22C19.47,22 18.961,22.211 18.586,22.586C18.211,22.961 18,23.47 18,24L18,28C18,28.531 17.79,29.039 17.415,29.414C17.039,29.789 16.531,30 16,30L14,30C13.47,30 12.961,29.789 12.586,29.414C12.211,29.039 12,28.531 12,28L12,20.256C12,19.61 12.157,18.974 12.456,18.402C12.756,17.829 13.19,17.338 13.72,16.97L19.72,12.806C20.39,12.342 21.185,12.093 22,12.093C22.815,12.093 23.611,12.342 24.28,12.806L30.28,16.97C30.811,17.338 31.245,17.829 31.544,18.402C31.844,18.974 32,19.61 32,20.256Z" fill="#374957"/>
</svg>
