<svg width="48" height="50" viewBox="0 0 48 50" fill="none" xmlns="http://www.w3.org/2000/svg" xmlns:xlink="http://www.w3.org/1999/xlink">
<path d="M40,16L40,20L45,20C45.796,20 46.559,20.316 47.121,20.879C47.684,21.441 48,22.204 48,23C48,23.796 47.684,24.559 47.121,25.121C46.559,25.684 45.796,26 45,26L40,26L40,30L45,30C45.796,30 46.559,30.316 47.121,30.879C47.684,31.441 48,32.204 48,33C48,33.796 47.684,34.559 47.121,35.121C46.559,35.684 45.796,36 45,36L40,36L40,45C40,45.796 39.684,46.559 39.121,47.121C38.559,47.684 37.796,48 37,48C36.204,48 35.441,47.684 34.879,47.121C34.316,46.559 34,45.796 34,45L34,9C34.003,6.614 34.952,4.326 36.639,2.639C38.326,0.952 40.614,0.003 43,0L45,0C45.796,0 46.559,0.316 47.121,0.879C47.684,1.441 48,2.204 48,3C48,3.796 47.684,4.559 47.121,5.121C46.559,5.684 45.796,6 45,6L43,6C42.204,6 41.441,6.316 40.879,6.879C40.316,7.441 40,8.204 40,9L40,10L45,10C45.796,10 46.559,10.316 47.121,10.879C47.684,11.441 48,12.204 48,13C48,13.796 47.684,14.559 47.121,15.121C46.559,15.684 45.796,16 45,16L40,16ZM32,38.5C32.007,40.356 31.469,42.174 30.452,43.727C29.435,45.28 27.984,46.499 26.279,47.235C24.574,47.97 22.691,48.188 20.864,47.861C19.037,47.535 17.345,46.679 16,45.4C15.04,46.307 13.902,47.003 12.657,47.444C11.412,47.886 10.089,48.062 8.773,47.962C7.456,47.862 6.175,47.488 5.011,46.863C3.847,46.239 2.827,45.379 2.015,44.337C1.203,43.296 0.618,42.096 0.297,40.815C-0.024,39.534 -0.074,38.2 0.151,36.899C0.375,35.598 0.869,34.358 1.601,33.259C2.333,32.159 3.286,31.225 4.4,30.516C6.708,27.716 9.824,23.516 12.426,19.568C8.98,13.892 6,7.658 6,3C6,2.204 6.316,1.441 6.879,0.879C7.441,0.316 8.205,0 9,0C9.796,0 10.559,0.316 11.121,0.879C11.684,1.441 12,2.204 12,3C12,5.616 13.654,9.536 16,13.73C18.346,9.53 20,5.614 20,3C20,2.204 20.316,1.441 20.879,0.879C21.441,0.316 22.204,0 23,0C23.796,0 24.559,0.316 25.121,0.879C25.684,1.441 26,2.204 26,3C26,7.658 23.018,13.894 19.566,19.562C22.166,23.512 25.282,27.716 27.592,30.508C28.94,31.361 30.051,32.541 30.821,33.938C31.592,35.336 31.997,36.905 32,38.5L32,38.5ZM13,38.5C13,37.808 12.795,37.131 12.41,36.556C12.026,35.98 11.479,35.531 10.84,35.266C10.2,35.002 9.496,34.932 8.817,35.067C8.138,35.202 7.515,35.536 7.025,36.025C6.536,36.515 6.202,37.138 6.067,37.817C5.932,38.496 6.002,39.2 6.267,39.839C6.531,40.479 6.98,41.026 7.556,41.41C8.131,41.795 8.808,42 9.5,42C10.428,41.999 11.318,41.63 11.974,40.974C12.63,40.318 12.999,39.428 13,38.5ZM16,31.6C16.951,30.715 18.074,30.034 19.298,29.6C18.298,28.284 17.172,26.724 16,25.032C14.828,26.724 13.696,28.284 12.702,29.6C13.927,30.034 15.049,30.715 16,31.6L16,31.6ZM26,38.492C25.998,37.8 25.792,37.124 25.406,36.55C25.021,35.975 24.474,35.528 23.834,35.264C23.194,35 22.491,34.932 21.812,35.068C21.134,35.204 20.511,35.538 20.022,36.028C19.534,36.518 19.201,37.141 19.067,37.82C18.932,38.499 19.002,39.202 19.267,39.841C19.532,40.48 19.981,41.026 20.556,41.411C21.132,41.795 21.808,42 22.5,42C23.428,41.999 24.318,41.63 24.974,40.974C25.63,40.318 25.999,39.428 26,38.5L26,38.492Z" fill="#374957"/>
</svg>
