<svg width="48" height="48" viewBox="0 0 48 48" fill="none" xmlns="http://www.w3.org/2000/svg" xmlns:xlink="http://www.w3.org/1999/xlink">
<path d="M46.248,1.751C45.627,1.124 44.874,0.644 44.043,0.346C43.213,0.048 42.326,-0.06 41.448,0.029C36.904,0.471 25.42,2.429 16.922,10.921C9.547,18.295 3.925,27.233 0.474,37.075L0,38.291L3.44,41.731L31.172,13.999L34,16.827L6.268,44.559L9.708,47.999L10.926,47.523C20.767,44.073 29.705,38.452 37.078,31.077C45.574,22.581 47.528,11.095 47.97,6.551C48.057,5.673 47.948,4.787 47.65,3.957C47.352,3.126 46.873,2.373 46.248,1.751L46.248,1.751Z" fill="#374957"/>
</svg>
