<svg width="48" height="48" viewBox="0 0 48 48" fill="none" xmlns="http://www.w3.org/2000/svg" xmlns:xlink="http://www.w3.org/1999/xlink">
<path d="M48,14.999C48.006,12.212 47.233,9.479 45.77,7.108C44.306,4.736 42.21,2.82 39.717,1.575C37.224,0.331 34.433,-0.194 31.658,0.061C28.883,0.316 26.235,1.34 24.01,3.019C22.212,1.663 20.132,0.73 17.924,0.288C15.716,-0.155 13.437,-0.094 11.256,0.465C9.075,1.024 7.047,2.067 5.324,3.516C3.601,4.966 2.226,6.785 1.302,8.838C0.377,10.891 -0.073,13.126 -0.016,15.377C0.042,17.628 0.605,19.838 1.633,21.841C2.66,23.845 4.126,25.591 5.921,26.951C7.715,28.311 9.793,29.25 12,29.697L12,37.999L6,37.999L6,41.999L12,41.999L12,47.999L16,47.999L16,41.999L22,41.999L22,37.999L16,37.999L16,29.951C18.903,29.764 21.688,28.731 24.01,26.979C26.328,28.725 29.105,29.757 32,29.949L32,37.999L26,37.999L26,41.999L32,41.999L32,47.999L36,47.999L36,41.999L42,41.999L42,37.999L36,37.999L36,29.697C39.386,29.001 42.428,27.159 44.614,24.481C46.8,21.804 47.996,18.455 48,14.999L48,14.999ZM44,14.999C44,17.174 43.355,19.301 42.146,21.11C40.938,22.919 39.22,24.329 37.21,25.161C35.2,25.994 32.988,26.212 30.854,25.787C28.72,25.363 26.76,24.315 25.222,22.777C23.684,21.239 22.636,19.279 22.212,17.145C21.787,15.011 22.005,12.799 22.838,10.789C23.67,8.779 25.08,7.061 26.889,5.853C28.698,4.644 30.825,3.999 33,3.999C35.917,4.002 38.713,5.162 40.775,7.224C42.837,9.286 43.997,12.082 44,14.999L44,14.999ZM4,14.999C3.997,13.005 4.536,11.047 5.561,9.337C6.586,7.626 8.057,6.227 9.817,5.289C11.577,4.352 13.559,3.911 15.55,4.014C17.542,4.118 19.467,4.762 21.12,5.877C19.098,8.488 18.001,11.696 18.001,14.999C18.001,18.301 19.098,21.51 21.12,24.121C19.467,25.236 17.542,25.88 15.55,25.983C13.559,26.087 11.577,25.646 9.817,24.708C8.057,23.771 6.586,22.371 5.561,20.661C4.536,18.95 3.997,16.993 4,14.999L4,14.999Z" fill="#374957"/>
</svg>
