<svg width="50" height="48" viewBox="0 0 50 48" fill="none" xmlns="http://www.w3.org/2000/svg" xmlns:xlink="http://www.w3.org/1999/xlink">
<path d="M36.636,27.435L46.536,17.535C47,17.071 47.369,16.52 47.62,15.913C47.872,15.306 48.001,14.656 48.001,13.999C48.001,13.343 47.872,12.692 47.62,12.086C47.369,11.479 47,10.928 46.536,10.463L36.636,0.563L33.8,3.399L42.4,11.999L6.2,11.999C4.596,11.962 3.043,12.563 1.881,13.668C0.719,14.774 0.042,16.296 0,17.899L0,40.099C0.042,41.703 0.719,43.225 1.881,44.33C3.043,45.436 4.596,46.036 6.2,45.999L44,45.999L44,41.999L6.2,41.999C5.657,42.036 5.122,41.857 4.71,41.501C4.298,41.145 4.043,40.642 4,40.099L4,17.899C4.043,17.357 4.298,16.853 4.71,16.498C5.122,16.142 5.657,15.963 6.2,15.999L42.414,15.999L33.814,24.599L36.636,27.435Z" fill="#374957"/>
</svg>
