<svg width="48" height="38" viewBox="0 0 48 38" fill="none" xmlns="http://www.w3.org/2000/svg" xmlns:xlink="http://www.w3.org/1999/xlink">
<path d="M40.8,0L7.2,0L6.6,0.6C2.4,5.4 0,11.6 0,18C0,29 4.4,38 10,38C14.4,38 16.6,31.6 17.6,28L30.4,28C31.4,31.6 33.6,38 38,38C43.6,38 48,29 48,18C48,11.6 45.6,5.4 41.4,0.6L40.8,0ZM38,34C36.8,34 34.8,29.8 34,25.6L33.6,24L14.4,24L14,25.6C13.2,29.8 11.2,34 10,34C8,34 4,27.8 4,18C4,13 5.8,8 9,4L39.2,4C42.4,8 44,13 44,18C44,27.8 40,34 38,34Z" fill="#374957"/>
</svg>
