<svg width="48" height="48" viewBox="0 0 48 48" fill="none" xmlns="http://www.w3.org/2000/svg" xmlns:xlink="http://www.w3.org/1999/xlink">
<path d="M39.358,5.26C38.785,3.872 37.853,2.662 36.656,1.756C35.593,0.945 34.356,0.393 33.042,0.145C31.729,-0.104 30.376,-0.044 29.09,0.322L25.89,1.218C25.221,1.405 24.585,1.695 24.004,2.078C23.424,1.696 22.788,1.406 22.12,1.218L18.908,0.322C17.622,-0.043 16.27,-0.104 14.957,0.145C13.644,0.394 12.407,0.945 11.344,1.756C10.147,2.662 9.215,3.872 8.642,5.26C6.195,5.8 4.005,7.159 2.434,9.111C0.863,11.064 0.004,13.494 0,16L0,27C0.004,29.916 1.164,32.712 3.226,34.774C5.288,36.836 8.084,37.996 11,38L21,38L21,42L17,42C16.204,42 15.441,42.316 14.879,42.878C14.316,43.441 14,44.204 14,45C14,45.795 14.316,46.559 14.879,47.121C15.441,47.684 16.204,48 17,48L31,48C31.796,48 32.559,47.684 33.121,47.121C33.684,46.559 34,45.795 34,45C34,44.204 33.684,43.441 33.121,42.878C32.559,42.316 31.796,42 31,42L27,42L27,38L37,38C39.916,37.996 42.712,36.836 44.774,34.774C46.836,32.712 47.996,29.916 48,27L48,16C47.996,13.494 47.137,11.064 45.566,9.111C43.995,7.159 41.805,5.8 39.358,5.26L39.358,5.26ZM27,7.6C27.008,7.459 27.061,7.325 27.152,7.217C27.242,7.109 27.365,7.033 27.502,7L30.702,6.104C30.942,6.037 31.189,6.002 31.438,6C32.016,5.998 32.579,6.187 33.038,6.538C33.339,6.759 33.584,7.048 33.752,7.382C33.921,7.716 34.008,8.084 34.008,8.458L34.008,15.614C33.997,16.154 33.811,16.675 33.477,17.1C33.143,17.524 32.68,17.828 32.158,17.966L27,19.4L27,7.6ZM14.97,6.536C15.428,6.187 15.987,5.999 16.562,6C16.809,6.001 17.054,6.036 17.292,6.102L20.492,6.998C20.629,7.031 20.751,7.107 20.841,7.215C20.931,7.323 20.984,7.457 20.992,7.598L20.992,19.4L15.848,17.966C15.326,17.828 14.863,17.524 14.53,17.099C14.196,16.675 14.01,16.153 14,15.614L14,8.456C14,8.082 14.087,7.714 14.256,7.38C14.424,7.046 14.669,6.757 14.97,6.536L14.97,6.536ZM42,27C42,28.326 41.473,29.598 40.536,30.535C39.598,31.473 38.326,32 37,32L11,32C9.674,32 8.402,31.473 7.464,30.535C6.527,29.598 6,28.326 6,27L6,16C6.002,15.227 6.184,14.466 6.531,13.776C6.878,13.086 7.381,12.486 8,12.024L8,15.624C8.013,17.472 8.629,19.266 9.754,20.733C10.878,22.2 12.45,23.261 14.232,23.754L20.632,25.554C22.83,26.167 25.154,26.167 27.352,25.554L33.752,23.754C35.538,23.263 37.115,22.202 38.243,20.733C39.371,19.264 39.988,17.466 40,15.614L40,12.014C40.62,12.477 41.124,13.078 41.471,13.77C41.819,14.462 42,15.226 42,16L42,27Z" fill="#374957"/>
</svg>
