<svg width="12" height="36" viewBox="0 0 12 36" fill="none" xmlns="http://www.w3.org/2000/svg" xmlns:xlink="http://www.w3.org/1999/xlink">
<path d="M6,0C4.409,0 2.883,0.632 1.757,1.757C0.632,2.883 0,4.409 0,6L0,30C0,31.591 0.632,33.117 1.757,34.243C2.883,35.368 4.409,36 6,36C7.591,36 9.117,35.368 10.243,34.243C11.368,33.117 12,31.591 12,30L12,6C12,4.409 11.368,2.883 10.243,1.757C9.117,0.632 7.591,0 6,0ZM8,30C8,30.53 7.789,31.039 7.414,31.414C7.039,31.789 6.53,32 6,32C5.47,32 4.961,31.789 4.586,31.414C4.211,31.039 4,30.53 4,30L4,6C4,5.47 4.211,4.961 4.586,4.586C4.961,4.211 5.47,4 6,4C6.53,4 7.039,4.211 7.414,4.586C7.789,4.961 8,5.47 8,6L8,30Z" fill="#374957"/>
</svg>
