<svg width="48" height="48" viewBox="0 0 48 48" fill="none" xmlns="http://www.w3.org/2000/svg" xmlns:xlink="http://www.w3.org/1999/xlink">
<path d="M48,24L32,24L32,20L48,20L48,24ZM29.948,12C29.948,9.627 29.244,7.307 27.926,5.333C26.607,3.36 24.733,1.822 22.54,0.913C20.347,0.005 17.935,-0.232 15.607,0.231C13.279,0.694 11.141,1.836 9.463,3.515C7.784,5.193 6.642,7.331 6.179,9.659C5.716,11.987 5.953,14.4 6.861,16.592C7.77,18.785 9.308,20.659 11.281,21.978C13.255,23.296 15.575,24 17.948,24C21.13,23.997 24.18,22.732 26.43,20.482C28.68,18.232 29.945,15.182 29.948,12L29.948,12ZM25.948,12C25.948,13.582 25.479,15.129 24.6,16.445C23.721,17.76 22.471,18.786 21.009,19.391C19.548,19.997 17.939,20.155 16.387,19.846C14.835,19.538 13.41,18.776 12.291,17.657C11.172,16.538 10.41,15.113 10.102,13.561C9.793,12.009 9.951,10.4 10.557,8.939C11.162,7.477 12.188,6.227 13.503,5.348C14.819,4.469 16.366,4 17.948,4C20.07,4 22.105,4.843 23.605,6.343C25.105,7.843 25.948,9.878 25.948,12ZM36,38C35.997,35.349 34.942,32.807 33.068,30.932C31.193,29.058 28.651,28.003 26,28L10,28C7.349,28.003 4.807,29.058 2.932,30.932C1.058,32.807 0.003,35.349 0,38L0,48L4,48L4,38C4,36.409 4.632,34.883 5.757,33.757C6.883,32.632 8.409,32 10,32L26,32C27.591,32 29.117,32.632 30.243,33.757C31.368,34.883 32,36.409 32,38L32,48L36,48L36,38Z" fill="#374957"/>
</svg>
