<svg width="48" height="48" viewBox="0 0 48 48" fill="none" xmlns="http://www.w3.org/2000/svg" xmlns:xlink="http://www.w3.org/1999/xlink">
<path d="M37.878,44.919C37.878,46.571 36.539,47.909 34.888,47.909L2.99,47.909C1.339,47.909 0,46.571 0,44.919C0,43.267 1.339,41.929 2.99,41.929L34.888,41.929C36.539,41.929 37.878,43.267 37.878,44.919ZM48,17.009C48,23.001 43.215,29.967 37.035,29.967L34.069,29.967C32.944,34.66 28.749,37.97 23.923,37.971L13.955,37.971C8.816,37.982 4.429,34.26 3.602,29.187L0.126,10.188C-0.686,5.494 2.462,1.03 7.156,0.219C7.64,0.135 8.13,0.093 8.62,0.093L29.258,0.093C33.773,0.09 37.519,3.585 37.83,8.089C44.202,8.35 48,11.626 48,17.009ZM31.868,9.11C32.087,7.669 31.096,6.323 29.655,6.104C29.524,6.084 29.391,6.074 29.258,6.074L8.62,6.074C7.162,6.079 5.985,7.265 5.991,8.723C5.991,8.869 6.004,9.014 6.028,9.158L9.511,28.159C9.849,30.355 11.733,31.979 13.955,31.99L23.923,31.99C26.137,31.993 28.024,30.388 28.377,28.203L28.377,28.155L31.868,9.11ZM42.019,17.009C42.019,16.113 42.019,14.018 37.049,14.018L35.223,23.986L37.035,23.986C39.318,23.986 42.019,20.198 42.019,17.009Z" fill="#374957"/>
</svg>
