<svg width="48" height="44" viewBox="0 0 48 44" fill="none" xmlns="http://www.w3.org/2000/svg" xmlns:xlink="http://www.w3.org/1999/xlink">
<path d="M40.836,3.95C40.413,2.794 39.646,1.796 38.639,1.089C37.631,0.383 36.431,0.003 35.2,0L12.8,0C11.569,0.003 10.369,0.383 9.361,1.089C8.354,1.796 7.587,2.794 7.164,3.95L2.876,15.738C0.969,20.969 -0.004,26.494 0,32.062L0,36L4,36L4,44L16,44L16,36L32,36L32,44L44,44L44,36L48,36L48,32.062C48.004,26.494 47.031,20.969 45.124,15.738L40.836,3.95ZM10.922,5.316C11.062,4.931 11.318,4.598 11.654,4.362C11.99,4.127 12.39,4 12.8,4L35.2,4C35.61,4 36.01,4.127 36.346,4.362C36.682,4.598 36.938,4.931 37.078,5.316L41.366,17.116C41.712,18.07 42,19.04 42.278,20.01L5.722,20.01C6,19.04 6.288,18.07 6.634,17.116L10.922,5.316ZM12,40L8,40L8,36L12,36L12,40ZM40,40L36,40L36,36L40,36L40,40ZM4,32C4.009,29.316 4.265,26.638 4.764,24L8,24L8,26C8,26.53 8.211,27.039 8.586,27.414C8.961,27.789 9.47,28 10,28C10.53,28 11.039,27.789 11.414,27.414C11.789,27.039 12,26.53 12,26L12,24L36,24L36,26C36,26.53 36.211,27.039 36.586,27.414C36.961,27.789 37.47,28 38,28C38.53,28 39.039,27.789 39.414,27.414C39.789,27.039 40,26.53 40,26L40,24L43.236,24C43.735,26.638 43.991,29.316 44,32L4,32Z" fill="#374957"/>
</svg>
