<svg width="40" height="48" viewBox="0 0 40 48" fill="none" xmlns="http://www.w3.org/2000/svg" xmlns:xlink="http://www.w3.org/1999/xlink">
<path d="M27.122,27.122L24.242,30L27.122,32.878C27.685,33.441 28.001,34.204 28.001,35C28.001,35.796 27.685,36.559 27.122,37.122C26.559,37.685 25.796,38.001 25,38.001C24.204,38.001 23.441,37.685 22.878,37.122L20,34.242L17.122,37.122C16.559,37.685 15.796,38.001 15,38.001C14.204,38.001 13.441,37.685 12.878,37.122C12.315,36.559 11.999,35.796 11.999,35C11.999,34.204 12.315,33.441 12.878,32.878L15.758,30L12.878,27.122C12.315,26.559 11.999,25.796 11.999,25C11.999,24.204 12.315,23.441 12.878,22.878C13.441,22.315 14.204,21.999 15,21.999C15.796,21.999 16.559,22.315 17.122,22.878L20,25.758L22.878,22.878C23.157,22.599 23.487,22.378 23.852,22.228C24.216,22.077 24.606,21.999 25,21.999C25.394,21.999 25.784,22.077 26.148,22.228C26.513,22.378 26.843,22.599 27.122,22.878C27.401,23.157 27.622,23.488 27.773,23.852C27.923,24.216 28.001,24.606 28.001,25C28.001,25.394 27.923,25.784 27.773,26.148C27.622,26.513 27.401,26.843 27.122,27.122ZM40,16.314L40,37C39.997,39.916 38.837,42.712 36.775,44.775C34.712,46.837 31.916,47.997 29,48L11,48C8.084,47.997 5.288,46.837 3.225,44.775C1.163,42.712 0.003,39.916 0,37L0,11C0.003,8.084 1.163,5.288 3.225,3.225C5.288,1.163 8.084,0.003 11,0L23.686,0C25.131,-0.004 26.563,0.279 27.898,0.832C29.233,1.385 30.445,2.197 31.464,3.222L36.778,8.536C37.803,9.555 38.615,10.767 39.168,12.102C39.721,13.437 40.004,14.869 40,16.314L40,16.314ZM34,37L34,18L26,18C24.939,18 23.922,17.579 23.172,16.828C22.421,16.078 22,15.061 22,14L22,6L11,6C9.674,6 8.402,6.527 7.464,7.465C6.527,8.402 6,9.674 6,11L6,37C6,38.326 6.527,39.598 7.464,40.536C8.402,41.473 9.674,42 11,42L29,42C30.326,42 31.598,41.473 32.536,40.536C33.473,39.598 34,38.326 34,37Z" fill="#374957"/>
</svg>
