<svg width="48" height="48" viewBox="0 0 48 48" fill="none" xmlns="http://www.w3.org/2000/svg" xmlns:xlink="http://www.w3.org/1999/xlink">
<path d="M42,32.001L42,24.001C41.999,21.311 41.392,18.656 40.225,16.232C39.058,13.809 37.36,11.679 35.258,10.001L40.554,10.001C40.997,10.756 41.677,11.344 42.488,11.674C43.299,12.004 44.197,12.057 45.041,11.826C45.886,11.594 46.63,11.091 47.16,10.393C47.689,9.696 47.974,8.843 47.97,7.967C47.966,7.092 47.674,6.242 47.138,5.549C46.602,4.856 45.853,4.36 45.007,4.136C44.16,3.912 43.263,3.973 42.455,4.31C41.647,4.647 40.972,5.242 40.536,6.001L31.716,6.001C31.279,4.286 30.284,2.765 28.887,1.679C27.489,0.592 25.77,0.003 24,0.003C22.23,0.003 20.511,0.592 19.113,1.679C17.716,2.765 16.721,4.286 16.284,6.001L7.446,6.001C7.003,5.246 6.323,4.658 5.512,4.328C4.701,3.998 3.803,3.944 2.959,4.176C2.114,4.408 1.37,4.911 0.84,5.609C0.311,6.306 0.026,7.159 0.03,8.034C0.034,8.91 0.326,9.76 0.862,10.453C1.398,11.145 2.147,11.642 2.993,11.866C3.84,12.09 4.737,12.028 5.545,11.691C6.353,11.354 7.028,10.76 7.464,10.001L12.742,10.001C10.64,11.679 8.942,13.809 7.775,16.232C6.608,18.656 6.001,21.311 6,24.001L6,32.001L0,32.001L0,42.001C0,43.592 0.632,45.118 1.757,46.243C2.883,47.369 4.409,48.001 6,48.001L16,48.001L16,32.001L10,32.001L10,24.001C10.003,21.538 10.656,19.12 11.892,16.991C13.129,14.862 14.906,13.097 17.044,11.875C17.726,13.124 18.732,14.166 19.956,14.892C21.18,15.618 22.577,16.001 24,16.001C25.423,16.001 26.82,15.618 28.044,14.892C29.268,14.166 30.274,13.124 30.956,11.875C33.094,13.097 34.871,14.862 36.108,16.991C37.344,19.12 37.997,21.538 38,24.001L38,32.001L32,32.001L32,48.001L42,48.001C43.591,48.001 45.117,47.369 46.243,46.243C47.368,45.118 48,43.592 48,42.001L48,32.001L42,32.001Z" fill="#374957"/>
</svg>
