<svg width="38" height="48" viewBox="0 0 38 48" fill="none" xmlns="http://www.w3.org/2000/svg" xmlns:xlink="http://www.w3.org/1999/xlink">
<path d="M34.8,33.341L34.77,33.299L32.54,30.179C32.912,29.799 33.227,29.367 33.476,28.897C33.957,27.94 34.162,26.868 34.066,25.801C33.97,24.735 33.578,23.716 32.934,22.861L29.882,18.721C30.505,18.228 31.017,17.607 31.382,16.901C31.857,15.991 32.067,14.967 31.99,13.944C31.912,12.921 31.55,11.94 30.944,11.113C30.864,11.001 22.4,1.979 22.4,1.979C21.848,1.369 21.176,0.881 20.425,0.545C19.675,0.209 18.863,0.032 18.041,0.026C17.219,0.02 16.405,0.184 15.65,0.509C14.894,0.834 14.215,1.312 13.654,1.913C13.654,1.913 5.136,11.001 5.054,11.113C4.448,11.941 4.086,12.922 4.009,13.945C3.932,14.968 4.143,15.992 4.618,16.901C4.987,17.613 5.504,18.237 6.134,18.733L3.076,22.933C2.463,23.773 2.097,24.766 2.017,25.803C1.937,26.839 2.147,27.877 2.624,28.801C2.888,29.3 3.225,29.757 3.624,30.157L1.2,33.341C0.496,34.362 0.085,35.556 0.01,36.793C-0.064,38.031 0.201,39.266 0.778,40.363C1.355,41.461 2.221,42.38 3.282,43.021C4.343,43.662 5.56,44.001 6.8,44.001L15,44.001L15,45.001C15,45.796 15.316,46.56 15.878,47.122C16.441,47.685 17.204,48.001 18,48.001C18.795,48.001 19.559,47.685 20.121,47.122C20.684,46.56 21,45.796 21,45.001L21,44.001L29.2,44.001C30.44,44.001 31.656,43.662 32.718,43.021C33.779,42.38 34.645,41.461 35.221,40.363C35.798,39.266 36.064,38.031 35.989,36.793C35.915,35.556 35.504,34.362 34.8,33.341L34.8,33.341ZM29.91,37.573C29.846,37.705 29.744,37.816 29.618,37.892C29.492,37.968 29.347,38.006 29.2,38.001L6.8,38.001C6.653,38.006 6.508,37.968 6.382,37.892C6.257,37.816 6.156,37.705 6.092,37.573C6.025,37.466 5.988,37.343 5.983,37.218C5.978,37.092 6.006,36.967 6.064,36.855L9.746,32.001L17,32.001C17.795,32.001 18.559,31.685 19.121,31.122C19.684,30.56 20,29.796 20,29.001C20,28.205 19.684,27.442 19.121,26.88C18.559,26.317 17.795,26.001 17,26.001L8.266,26.001L12.632,20.001L15,20.001C15.795,20.001 16.559,19.685 17.121,19.122C17.684,18.56 18,17.797 18,17.001C18,16.205 17.684,15.442 17.121,14.88C16.559,14.317 15.795,14.001 15,14.001L10.532,14.001L17.97,6.021L25.462,14.001L24.894,14.001C24.339,14.001 23.795,14.155 23.323,14.445C22.85,14.735 22.468,15.151 22.217,15.646C21.967,16.141 21.858,16.695 21.904,17.248C21.949,17.801 22.147,18.33 22.476,18.777L27.778,26.001C27.247,26.04 26.735,26.22 26.297,26.522C25.858,26.825 25.508,27.238 25.282,27.721C25.056,28.203 24.963,28.737 25.012,29.267C25.061,29.798 25.25,30.306 25.56,30.739L29.862,36.753C29.946,36.871 29.995,37.012 30.002,37.157C30.009,37.302 29.974,37.447 29.902,37.573L29.91,37.573Z" fill="#374957"/>
</svg>
