<svg width="50" height="48" viewBox="0 0 50 48" fill="none" xmlns="http://www.w3.org/2000/svg" xmlns:xlink="http://www.w3.org/1999/xlink">
<path d="M14,26L0.018,26L0.018,22L10.154,22C10.314,20.882 10.61,19.788 11.036,18.742L2.286,13.644L4.296,10.188L13.056,15.29C13.73,14.442 14.499,13.674 15.348,13L10.262,4.254L13.716,2.242L18.8,11C19.828,10.586 20.903,10.297 22,10.14L22,0L26,0L26,10.142C27.105,10.302 28.187,10.594 29.222,11.012L34.318,2.242L37.772,4.254L32.674,13.024C33.519,13.695 34.283,14.459 34.954,15.304L43.736,10.188L45.746,13.644L36.97,18.758C37.392,19.799 37.687,20.888 37.846,22L47.982,22L47.982,26L34,26L34,24C33.57,10.78 14.426,10.8 14,24L14,26ZM41.978,44C40.917,44 39.9,43.579 39.15,42.828C38.399,42.078 37.978,41.061 37.978,40L34,40C34,41.061 33.579,42.078 32.828,42.828C32.078,43.579 31.061,44 30,44C28.939,44 27.922,43.579 27.172,42.828C26.421,42.078 26,41.061 26,40L22,40C22,41.061 21.579,42.078 20.828,42.828C20.078,43.579 19.061,44 18,44C16.939,44 15.922,43.579 15.172,42.828C14.421,42.078 14,41.061 14,40L10,40C9.989,40.808 9.736,41.593 9.271,42.255C8.807,42.916 8.154,43.421 7.398,43.705C6.642,43.989 5.818,44.039 5.033,43.847C4.248,43.655 3.54,43.231 3,42.63L0,45.264C0.753,46.111 1.677,46.79 2.711,47.256C3.745,47.721 4.866,47.963 6,47.965C7.134,47.967 8.256,47.729 9.291,47.268C10.327,46.806 11.254,46.131 12.01,45.286C12.766,46.128 13.692,46.801 14.725,47.262C15.759,47.723 16.878,47.961 18.01,47.961C19.142,47.961 20.261,47.723 21.295,47.262C22.328,46.801 23.254,46.128 24.01,45.286C24.766,46.128 25.692,46.801 26.725,47.262C27.759,47.723 28.878,47.961 30.01,47.961C31.142,47.961 32.261,47.723 33.295,47.262C34.328,46.801 35.254,46.128 36.01,45.286C36.766,46.129 37.692,46.803 38.727,47.264C39.762,47.725 40.883,47.961 42.015,47.959C43.148,47.957 44.268,47.716 45.301,47.251C46.334,46.786 47.257,46.108 48.01,45.262L44.998,42.632C44.623,43.063 44.161,43.408 43.641,43.644C43.121,43.88 42.557,44.001 41.986,44L41.978,44ZM6.014,38C7.15,38.001 8.272,37.759 9.307,37.291C10.342,36.823 11.265,36.139 12.014,35.286C12.77,36.128 13.696,36.801 14.729,37.262C15.763,37.723 16.882,37.961 18.014,37.961C19.146,37.961 20.265,37.723 21.299,37.262C22.332,36.801 23.258,36.128 24.014,35.286C24.77,36.128 25.696,36.801 26.729,37.262C27.763,37.723 28.882,37.961 30.014,37.961C31.146,37.961 32.265,37.723 33.299,37.262C34.332,36.801 35.258,36.128 36.014,35.286C36.77,36.129 37.696,36.803 38.731,37.264C39.766,37.725 40.887,37.961 42.019,37.959C43.152,37.957 44.272,37.716 45.305,37.251C46.338,36.786 47.261,36.108 48.014,35.262L45.002,32.632C44.462,33.234 43.753,33.659 42.968,33.851C42.183,34.043 41.358,33.994 40.601,33.709C39.845,33.425 39.191,32.919 38.727,32.257C38.263,31.595 38.01,30.808 38,30L34,30C34,31.061 33.579,32.078 32.828,32.828C32.078,33.579 31.061,34 30,34C28.939,34 27.922,33.579 27.172,32.828C26.421,32.078 26,31.061 26,30L22,30C22,31.061 21.579,32.078 20.828,32.828C20.078,33.579 19.061,34 18,34C16.939,34 15.922,33.579 15.172,32.828C14.421,32.078 14,31.061 14,30L10,30C9.989,30.808 9.736,31.593 9.271,32.255C8.807,32.916 8.154,33.421 7.398,33.705C6.642,33.989 5.818,34.039 5.033,33.847C4.248,33.655 3.54,33.231 3,32.63L0,35.264C0.749,36.123 1.673,36.811 2.711,37.283C3.748,37.755 4.874,37.999 6.014,38L6.014,38Z" fill="#374957"/>
</svg>
