<svg width="50" height="40" viewBox="0 0 50 40" fill="none" xmlns="http://www.w3.org/2000/svg" xmlns:xlink="http://www.w3.org/1999/xlink">
<path d="M32,6.001C29.74,6.003 27.506,6.486 25.446,7.417C23.386,8.348 21.548,9.706 20.052,11.401C19.1,10.938 18.096,10.587 17.063,10.353L20.434,3.601L16.829,0.001L11.173,0.001L7.573,3.601L10.945,10.343C8.886,10.797 6.957,11.709 5.301,13.011C3.644,14.314 2.303,15.974 1.378,17.867C0.452,19.76 -0.034,21.838 -0.045,23.945C-0.055,26.053 0.41,28.135 1.316,30.038C2.223,31.94 3.547,33.613 5.19,34.933C6.833,36.252 8.753,37.183 10.807,37.657C12.86,38.131 14.994,38.135 17.049,37.67C19.104,37.204 21.028,36.28 22.676,34.967C24.723,36.447 27.091,37.421 29.586,37.81C32.082,38.199 34.634,37.992 37.034,37.206C39.434,36.419 41.613,35.076 43.394,33.285C45.176,31.495 46.507,29.308 47.281,26.904C48.055,24.5 48.249,21.947 47.847,19.454C47.445,16.96 46.458,14.598 44.967,12.559C43.477,10.52 41.525,8.863 39.271,7.723C37.018,6.583 34.526,5.994 32,6.001L32,6.001ZM22.468,29.261C21.14,27.536 20.312,25.479 20.072,23.314C19.833,21.15 20.193,18.961 21.112,16.987C22.697,18.576 23.695,20.656 23.941,22.887C24.187,25.117 23.668,27.365 22.468,29.261L22.468,29.261ZM4.001,24.001C3.996,22.362 4.396,20.747 5.165,19.299C5.934,17.851 7.048,16.615 8.408,15.7C9.768,14.785 11.333,14.219 12.964,14.053C14.595,13.887 16.242,14.126 17.759,14.747C16.331,17.526 15.754,20.663 16.097,23.768C16.441,26.873 17.69,29.808 19.691,32.207C18.193,33.252 16.437,33.866 14.615,33.982C12.793,34.098 10.973,33.712 9.355,32.866C7.737,32.02 6.382,30.746 5.438,29.183C4.494,27.62 3.997,25.827 4.001,24.001L4.001,24.001ZM32,34.001C29.67,34.002 27.391,33.32 25.444,32.039C27.414,29.256 28.293,25.847 27.916,22.458C27.54,19.069 25.933,15.937 23.4,13.653C24.78,12.229 26.49,11.169 28.379,10.567C30.268,9.966 32.276,9.842 34.225,10.206C36.174,10.57 38.002,11.411 39.546,12.654C41.09,13.897 42.302,15.504 43.074,17.33C43.846,19.156 44.153,21.145 43.969,23.118C43.784,25.092 43.114,26.99 42.017,28.641C40.92,30.292 39.431,31.646 37.683,32.582C35.935,33.517 33.983,34.005 32,34.001L32,34.001Z" fill="#374957"/>
</svg>
