<svg width="40" height="48" viewBox="0 0 40 48" fill="none" xmlns="http://www.w3.org/2000/svg" xmlns:xlink="http://www.w3.org/1999/xlink">
<path d="M29.801,8.041C29.327,5.793 28.094,3.777 26.31,2.33C24.526,0.883 22.298,0.094 20.001,0.094C17.704,0.094 15.477,0.883 13.692,2.33C11.908,3.777 10.676,5.793 10.201,8.041C8.35,8.188 6.565,8.801 5.014,9.823C3.463,10.845 2.196,12.242 1.33,13.885C0.464,15.528 0.027,17.364 0.06,19.221C0.094,21.078 0.596,22.896 1.521,24.507L20.001,47.981L38.481,24.507C39.406,22.896 39.909,21.078 39.943,19.22C39.977,17.363 39.54,15.528 38.674,13.884C37.808,12.241 36.54,10.844 34.989,9.822C33.437,8.8 31.653,8.188 29.801,8.041L29.801,8.041ZM36.001,19.001C35.998,19.336 35.97,19.67 35.917,20.001L22.091,20.001C21.019,10.151 35.601,9.099 36.001,19.001ZM20.001,4.001C21.327,4.006 22.614,4.45 23.661,5.264C24.707,6.078 25.455,7.215 25.787,8.499C23.448,9.214 21.413,10.686 20.001,12.683C18.589,10.686 16.554,9.214 14.215,8.499C14.547,7.215 15.295,6.078 16.341,5.264C17.388,4.45 18.675,4.006 20.001,4.001L20.001,4.001ZM11.001,12.001C12.003,12.003 12.993,12.221 13.904,12.64C14.815,13.058 15.625,13.667 16.28,14.425C16.935,15.184 17.42,16.074 17.701,17.036C17.983,17.998 18.054,19.009 17.911,20.001L4.085,20.001C3.942,19.008 4.013,17.997 4.295,17.034C4.577,16.072 5.062,15.181 5.718,14.423C6.374,13.664 7.185,13.056 8.096,12.638C9.008,12.22 9.998,12.003 11.001,12.001L11.001,12.001ZM6.201,24.001L33.821,24.001L20.001,41.521L6.201,24.001Z" fill="#374957"/>
</svg>
