<svg width="40" height="50" viewBox="0 0 40 50" fill="none" xmlns="http://www.w3.org/2000/svg" xmlns:xlink="http://www.w3.org/1999/xlink">
<path d="M22,29.999L18,29.999L18,9.999L22,9.999L22,29.999ZM21.586,47.415C25.906,45.679 40,38.855 40,23.981L40,10.933C40,9.674 39.604,8.447 38.866,7.426C38.128,6.406 37.088,5.644 35.892,5.249L20,-0.021L4.108,5.249C2.912,5.644 1.872,6.406 1.134,7.426C0.397,8.447 0,9.674 0,10.933L0,23.981C0,37.107 14.01,45.133 18.306,47.283L19.906,48.083L21.586,47.415ZM34.632,9.045C35.029,9.177 35.374,9.43 35.62,9.769C35.865,10.108 35.998,10.515 36,10.933L36,23.981C36,36.347 23.826,42.205 20.094,43.705C16.318,41.815 4,34.813 4,23.981L4,10.933C4.002,10.515 4.135,10.108 4.38,9.769C4.626,9.43 4.971,9.177 5.368,9.045L20,4.199L34.632,9.045ZM22,33.999L18,33.999L18,37.999L22,37.999L22,33.999Z" fill="#374957"/>
</svg>
