<svg width="30" height="20" viewBox="0 0 30 20" fill="none" xmlns="http://www.w3.org/2000/svg" xmlns:xlink="http://www.w3.org/1999/xlink">
<path d="M26.944,4.388L23.662,-0.584L20.326,1.616L23.6,6.6C23.831,6.936 23.964,7.33 23.984,7.738C24.004,8.145 23.91,8.55 23.712,8.908C23.513,9.28 23.215,9.591 22.851,9.805C22.487,10.02 22.071,10.13 21.648,10.124L5.759,10.124L8.714,7.174L5.891,4.342L0.845,9.376C0.472,9.75 0.177,10.194 -0.023,10.683C-0.224,11.171 -0.326,11.695 -0.324,12.223C-0.322,12.751 -0.216,13.273 -0.012,13.76C0.192,14.248 0.49,14.69 0.865,15.062L5.903,20L8.702,17.146L5.619,14.116L21.656,14.116C22.8,14.119 23.924,13.813 24.907,13.229C25.891,12.645 26.698,11.805 27.242,10.8C27.788,9.807 28.048,8.683 27.996,7.552C27.943,6.42 27.579,5.325 26.944,4.388L26.944,4.388Z" fill="#374957"/>
</svg>
