<svg width="40" height="48" viewBox="0 0 40 48" fill="none" xmlns="http://www.w3.org/2000/svg" xmlns:xlink="http://www.w3.org/1999/xlink">
<path d="M34.926,15.425L16.726,2.071C15.141,0.908 13.265,0.207 11.306,0.046C9.347,-0.115 7.382,0.27 5.628,1.158C3.875,2.046 2.402,3.403 1.373,5.078C0.344,6.753 -0.2,8.68 -0.2,10.645L-0.2,37.353C-0.204,39.32 0.338,41.249 1.366,42.925C2.394,44.602 3.866,45.96 5.621,46.849C7.375,47.738 9.341,48.122 11.301,47.96C13.26,47.797 15.136,47.093 16.72,45.927L34.93,32.573C36.277,31.586 37.372,30.295 38.128,28.806C38.883,27.316 39.276,25.67 39.276,23.999C39.276,22.329 38.883,20.683 38.128,19.193C37.372,17.703 36.277,16.413 34.93,15.425L34.926,15.425ZM31.378,27.735L13.178,41.089C12.487,41.597 11.67,41.903 10.816,41.973C9.962,42.044 9.105,41.876 8.34,41.489C7.576,41.102 6.934,40.511 6.485,39.781C6.037,39.051 5.8,38.21 5.8,37.353L5.8,10.645C5.791,9.787 6.024,8.944 6.474,8.213C6.923,7.482 7.57,6.893 8.34,6.513C8.992,6.179 9.713,6.003 10.446,5.999C11.428,6.004 12.382,6.323 13.17,6.909L31.37,20.263C31.957,20.694 32.434,21.256 32.763,21.905C33.092,22.554 33.264,23.272 33.264,23.999C33.264,24.727 33.092,25.445 32.763,26.094C32.434,26.743 31.957,27.305 31.37,27.735L31.378,27.735Z" fill="#374957"/>
</svg>
