<svg width="20" height="26" viewBox="0 0 20 26" fill="none" xmlns="http://www.w3.org/2000/svg" xmlns:xlink="http://www.w3.org/1999/xlink">
<path d="M16.665,16.396C15.493,17.675 14.002,18.474 12.297,18.633C12.137,18.633 11.978,18.687 11.818,18.687C11.498,18.687 11.179,18.633 10.859,18.58C9.155,18.261 7.717,17.195 6.918,15.597C6.492,14.745 6.278,13.68 6.278,12.508C6.278,11.336 6.545,10.271 6.971,9.366C7.77,7.768 9.208,6.703 10.966,6.436C11.285,6.383 11.551,6.383 11.871,6.383C11.978,6.383 12.137,6.383 12.244,6.383C14.002,6.49 15.386,7.235 16.665,8.62L19.594,3.507C18.369,2.442 16.878,1.643 15.28,1.217C14.268,0.95 13.203,0.791 12.031,0.791C10.593,0.791 9.261,1.004 8.036,1.376C6.385,1.909 4.947,2.708 3.775,3.826C1.485,5.957 0.153,8.993 0.153,12.561C0.153,16.077 1.485,19.113 3.722,21.243C4.894,22.362 6.332,23.161 7.983,23.693C9.208,24.066 10.593,24.333 12.084,24.333C13.256,24.333 14.374,24.173 15.386,23.906C17.038,23.48 18.476,22.681 19.701,21.563L16.665,16.396Z" fill="#374957"/>
</svg>
