<svg width="48" height="48" viewBox="0 0 48 48" fill="none" xmlns="http://www.w3.org/2000/svg" xmlns:xlink="http://www.w3.org/1999/xlink">
<path d="M33.586,30C33.65,30 33.524,30 33.586,30L33.586,30ZM42.386,27.13C48.944,33.6 44.986,43.77 41.872,47.028L41.072,47.948L39.888,47.65C34.6,46.174 29.805,43.309 26,39.352L26,44.038L22,44.038L22,39.352C18.198,43.311 13.405,46.179 8.12,47.658L6.936,47.956L6.136,47.036C2.966,43.57 -0.916,34.036 5.736,27.226C4.049,26.001 2.66,24.412 1.671,22.577C0.683,20.742 0.121,18.708 0.026,16.626C-0.031,12.576 0.912,8.576 2.77,4.978C3.506,3.711 4.68,2.757 6.071,2.297C7.462,1.836 8.973,1.901 10.32,2.478C15.565,5.051 20.222,8.679 24,13.136C27.778,8.679 32.435,5.051 37.68,2.478C39.026,1.901 40.537,1.837 41.927,2.297C43.317,2.757 44.491,3.71 45.228,4.976C47.093,8.574 48.041,12.577 47.988,16.63C47.897,18.689 47.347,20.701 46.377,22.519C45.407,24.338 44.042,25.916 42.382,27.138L42.386,27.13ZM22,28.6C19.588,29.563 17.009,30.039 14.412,30C12.706,30.04 11.008,29.769 9.4,29.2C4.6,33.28 5.654,39.57 8.4,43.412C15.016,41.238 22,35.134 22,31.286L22,28.6ZM22,16.954C18.42,12.449 13.909,8.772 8.776,6.174C8.332,5.974 7.83,5.943 7.364,6.087C6.899,6.231 6.502,6.54 6.248,6.956C4.754,9.907 3.984,13.17 4,16.478C4.188,19.086 5.364,21.524 7.29,23.294C9.215,25.063 11.743,26.031 14.358,26C17.056,26.163 19.735,25.454 22,23.978L22,16.954ZM42,36.018C41.974,34.699 41.663,33.401 41.087,32.214C40.511,31.028 39.684,29.98 38.664,29.144C37.031,29.714 35.313,30.004 33.584,30.004C30.988,30.041 28.41,29.564 26,28.6L26,31.282C26,35.13 32.984,41.234 39.584,43.4C41.075,41.221 41.914,38.661 42,36.022L42,36.018ZM44,16.478C44.019,13.171 43.25,9.907 41.758,6.956C41.504,6.54 41.108,6.232 40.642,6.088C40.177,5.944 39.676,5.974 39.232,6.174C34.095,8.772 29.581,12.451 26,16.958L26,23.978C28.264,25.453 30.942,26.162 33.64,26C36.264,26.063 38.81,25.106 40.742,23.33C42.675,21.554 43.843,19.098 44,16.478L44,16.478ZM24,7.97C25.063,7.97 26.082,7.547 26.833,6.796C27.585,6.044 28.007,5.025 28.007,3.963C28.007,2.9 27.585,1.881 26.833,1.129C26.082,0.378 25.063,-0.044 24,-0.044C22.937,-0.044 21.918,0.378 21.166,1.129C20.415,1.881 19.993,2.9 19.993,3.963C19.993,5.025 20.415,6.044 21.166,6.796C21.918,7.547 22.937,7.97 24,7.97L24,7.97Z" fill="#374957"/>
</svg>
