<svg width="44" height="50" viewBox="0 0 44 50" fill="none" xmlns="http://www.w3.org/2000/svg" xmlns:xlink="http://www.w3.org/1999/xlink">
<path d="M44,26C43.993,20.515 41.938,15.23 38.239,11.179C34.54,7.129 29.462,4.605 24,4.102L24,0L20,0L20,4.102C15.909,4.468 12.002,5.974 8.724,8.449C5.446,10.925 2.928,14.27 1.457,18.105C-0.015,21.94 -0.381,26.112 0.401,30.144C1.182,34.177 3.079,37.91 5.876,40.918L2.02,45.154L4.98,47.846L8.848,43.6C12.637,46.459 17.254,48.006 22,48.006C26.746,48.006 31.364,46.459 35.152,43.6L39.02,47.852L41.98,45.16L38.124,40.924C41.9,36.872 43.999,31.539 44,26L44,26ZM22,44C18.44,44 14.96,42.944 12,40.966C9.04,38.989 6.733,36.177 5.37,32.888C4.008,29.599 3.651,25.98 4.346,22.488C5.04,18.997 6.755,15.789 9.272,13.272C11.789,10.755 14.997,9.04 18.488,8.346C21.98,7.651 25.599,8.008 28.888,9.37C32.177,10.733 34.989,13.04 36.966,16C38.944,18.96 40,22.44 40,26C39.994,30.772 38.096,35.347 34.722,38.721C31.347,42.096 26.772,43.994 22,44L22,44Z" fill="#374957"/>
</svg>
