<svg width="40" height="48" viewBox="0 0 40 48" fill="none" xmlns="http://www.w3.org/2000/svg" xmlns:xlink="http://www.w3.org/1999/xlink">
<path d="M29.908,21.326C31.219,19.208 31.94,16.777 31.996,14.287C32.053,11.796 31.442,9.336 30.227,7.16C29.012,4.985 27.238,3.174 25.089,1.915C22.939,0.656 20.491,-0.005 18,0L0,0L0,48L24,48C27.187,48.003 30.279,46.918 32.766,44.925C35.252,42.931 36.983,40.148 37.672,37.037C38.361,33.925 37.967,30.672 36.555,27.815C35.143,24.958 32.798,22.669 29.908,21.326L29.908,21.326ZM8,8L18,8C19.591,8 21.117,8.632 22.243,9.757C23.368,10.883 24,12.409 24,14C24,15.591 23.368,17.117 22.243,18.243C21.117,19.368 19.591,20 18,20L8,20L8,8ZM24,40L8,40L8,28L24,28C25.591,28 27.117,28.632 28.243,29.757C29.368,30.883 30,32.409 30,34C30,35.591 29.368,37.117 28.243,38.243C27.117,39.368 25.591,40 24,40L24,40Z" fill="#374957"/>
</svg>
