<svg width="48" height="48" viewBox="0 0 48 48" fill="none" xmlns="http://www.w3.org/2000/svg" xmlns:xlink="http://www.w3.org/1999/xlink">
<path d="M4.8,30.001L0,30.001L0,26.001L4.102,26.001C4.046,25.339 4,24.677 4,24.001C4,23.325 4.046,22.663 4.102,22.001L0,22.001L0,18.001L4.8,18.001C5.904,13.718 8.171,9.824 11.351,6.75C14.53,3.675 18.498,1.54 22.815,0.58C27.132,-0.38 31.631,-0.127 35.813,1.311C39.996,2.749 43.699,5.315 46.514,8.727L43.43,11.275C41.139,8.497 38.141,6.39 34.752,5.174C31.363,3.959 27.709,3.681 24.175,4.37C20.641,5.059 17.358,6.689 14.674,9.088C11.989,11.487 10.002,14.566 8.922,18.001L32,18.001L32,22.001L8.102,22.001C7.966,23.331 7.966,24.671 8.102,26.001L32,26.001L32,30.001L8.922,30.001C10.002,33.435 11.989,36.515 14.674,38.914C17.358,41.313 20.641,42.943 24.175,43.632C27.709,44.32 31.363,44.042 34.752,42.827C38.141,41.612 41.139,39.504 43.43,36.727L46.514,39.275C43.699,42.686 39.996,45.253 35.813,46.69C31.631,48.128 27.132,48.381 22.815,47.421C18.498,46.461 14.53,44.326 11.351,41.252C8.171,38.177 5.904,34.283 4.8,30.001L4.8,30.001Z" fill="#374957"/>
</svg>
