<svg width="48" height="48" viewBox="0 0 48 48" fill="none" xmlns="http://www.w3.org/2000/svg" xmlns:xlink="http://www.w3.org/1999/xlink">
<path d="M2.4,16.874L16.96,2.898C18.838,1.036 21.377,-0.006 24.021,0C26.665,0.006 29.2,1.058 31.07,2.928L45.61,16.874L28.242,34.244C27.099,35.334 25.58,35.942 24,35.942C22.42,35.942 20.901,35.334 19.758,34.244L2.4,16.874ZM31.08,37.074C29.205,38.949 26.662,40.002 24.01,40.002C21.358,40.002 18.815,38.949 16.94,37.074L0.32,20.46C0.12,21.142 0.012,21.849 0,22.56L0,48L48,48L48,22.56C47.988,21.849 47.88,21.142 47.68,20.46L31.08,37.074Z" fill="#374957"/>
</svg>
