<svg width="48" height="48" viewBox="0 0 48 48" fill="none" xmlns="http://www.w3.org/2000/svg" xmlns:xlink="http://www.w3.org/1999/xlink">
<path d="M44,22.703L44,19.001C43.995,17.309 43.376,15.677 42.259,14.408C41.142,13.138 39.603,12.316 37.926,12.095C37.74,8.132 36.627,4.268 34.678,0.813C34.476,0.538 34.206,0.32 33.895,0.179C33.584,0.039 33.242,-0.019 32.902,0.011C32.562,0.041 32.235,0.158 31.954,0.351C31.672,0.544 31.445,0.806 31.294,1.113C30.7,2.576 29.68,3.828 28.365,4.704C27.051,5.58 25.504,6.041 23.924,6.027L20,6.027C13.84,6.027 11.48,9.427 10.572,12.045C8.798,12.153 7.132,12.932 5.912,14.224C4.691,15.516 4.008,17.224 4,19.001L4,22.703C2.807,23.268 1.799,24.16 1.091,25.274C0.383,26.389 0.005,27.68 0,29.001L0,37.001C0.004,39.917 1.164,42.713 3.226,44.775C5.288,46.837 8.084,47.997 11,48.001L37,48.001C39.916,47.997 42.712,46.837 44.774,44.775C46.836,42.713 47.996,39.917 48,37.001L48,29.001C47.995,27.68 47.617,26.389 46.909,25.274C46.201,24.16 45.193,23.268 44,22.703ZM11,18.001L37,18.001C37.265,18.001 37.52,18.106 37.707,18.293C37.895,18.481 38,18.735 38,19.001L38,22.001L10,22.001L10,19.001C10,18.735 10.105,18.481 10.293,18.293C10.48,18.106 10.735,18.001 11,18.001L11,18.001ZM42,37.001C42,38.327 41.473,39.598 40.536,40.536C39.598,41.474 38.326,42.001 37,42.001L11,42.001C9.674,42.001 8.402,41.474 7.464,40.536C6.527,39.598 6,38.327 6,37.001L6,29.001C6,28.735 6.105,28.481 6.293,28.293C6.48,28.106 6.735,28.001 7,28.001L41,28.001C41.265,28.001 41.52,28.106 41.707,28.293C41.895,28.481 42,28.735 42,29.001L42,37.001Z" fill="#374957"/>
</svg>
