<svg width="50" height="24" viewBox="0 0 50 24" fill="none" xmlns="http://www.w3.org/2000/svg" xmlns:xlink="http://www.w3.org/1999/xlink">
<path d="M3.02,0.158C3.414,0.157 3.804,0.235 4.168,0.386C4.532,0.537 4.862,0.759 5.14,1.038L20.486,16.382C20.95,16.846 21.502,17.215 22.108,17.466C22.715,17.717 23.365,17.847 24.022,17.847C24.679,17.847 25.329,17.717 25.936,17.466C26.542,17.215 27.094,16.846 27.558,16.382L42.88,1.058C43.157,0.771 43.488,0.543 43.854,0.386C44.22,0.228 44.613,0.146 45.012,0.142C45.41,0.139 45.805,0.215 46.174,0.365C46.543,0.516 46.877,0.739 47.159,1.021C47.441,1.302 47.664,1.637 47.814,2.006C47.965,2.375 48.041,2.77 48.038,3.168C48.034,3.566 47.951,3.96 47.794,4.326C47.637,4.692 47.408,5.023 47.122,5.3L31.8,20.624C29.736,22.684 26.938,23.841 24.022,23.841C21.105,23.841 18.308,22.684 16.244,20.624L0.898,5.28C0.478,4.86 0.192,4.326 0.076,3.744C-0.04,3.161 0.02,2.558 0.247,2.01C0.474,1.461 0.859,0.993 1.352,0.663C1.846,0.333 2.426,0.158 3.02,0.158L3.02,0.158Z" fill="#374957"/>
</svg>
