<svg width="36" height="48" viewBox="0 0 36 48" fill="none" xmlns="http://www.w3.org/2000/svg" xmlns:xlink="http://www.w3.org/1999/xlink">
<path d="M33,42L32,42L32,40.69C31.996,39.484 31.75,38.292 31.277,37.183C30.805,36.074 30.115,35.07 29.248,34.232C27.607,32.649 26.306,30.748 25.427,28.645C24.548,26.541 24.108,24.28 24.134,22L26,22C26.796,22 27.559,21.684 28.121,21.121C28.684,20.559 29,19.796 29,19C29,18.204 28.684,17.441 28.121,16.879C27.559,16.316 26.796,16 26,16L24.556,16C25.525,14.653 26.047,13.036 26.05,11.376C25.612,8.216 24.463,5.196 22.688,2.544C22.193,1.763 21.509,1.119 20.698,0.674C19.887,0.229 18.977,-0.003 18.052,0C17.127,-0.003 16.216,0.229 15.406,0.674C14.595,1.119 13.91,1.762 13.416,2.544C11.64,5.195 10.489,8.215 10.052,11.376C10.054,13.036 10.578,14.653 11.548,16L11,16C10.204,16 9.441,16.316 8.879,16.879C8.316,17.441 8,18.204 8,19C8,19.796 8.316,20.559 8.879,21.121C9.441,21.684 10.204,22 11,22L11.914,22C11.932,24.283 11.483,26.546 10.595,28.649C9.707,30.753 8.399,32.653 6.75,34.232C5.884,35.071 5.195,36.074 4.722,37.183C4.25,38.292 4.004,39.485 4,40.69L4,42L3,42C2.204,42 1.441,42.316 0.879,42.879C0.316,43.441 0,44.204 0,45C0,45.796 0.316,46.559 0.879,47.121C1.441,47.684 2.204,48 3,48L33,48C33.796,48 34.559,47.684 35.121,47.121C35.684,46.559 36,45.796 36,45C36,44.204 35.684,43.441 35.121,42.879C34.559,42.316 33.796,42 33,42L33,42ZM18.116,22C18.122,27.962 20.425,33.693 24.548,38L11.452,38C15.593,33.701 17.914,27.969 17.932,22L18.116,22Z" fill="#374957"/>
</svg>
