<svg width="38" height="48" viewBox="0 0 38 48" fill="none" xmlns="http://www.w3.org/2000/svg" xmlns:xlink="http://www.w3.org/1999/xlink">
<path d="M34,40.888L34,48L30,44L26,48L26,40.888C24.475,40.007 23.283,38.648 22.609,37.021C21.935,35.394 21.817,33.59 22.273,31.889C22.728,30.188 23.733,28.685 25.13,27.613C26.527,26.541 28.239,25.96 30,25.96C31.761,25.96 33.473,26.541 34.87,27.613C36.267,28.685 37.272,30.188 37.727,31.889C38.183,33.59 38.065,35.394 37.391,37.021C36.717,38.648 35.525,40.007 34,40.888ZM22,42.926L22,44L0,44L0,6C0,4.409 0.632,2.883 1.757,1.757C2.883,0.632 4.409,0 6,0L30,0C31.591,0 33.117,0.632 34.243,1.757C35.368,2.883 36,4.409 36,6L36,23.618C33.432,22.127 30.403,21.641 27.498,22.256C24.593,22.871 22.019,24.542 20.276,26.946C18.533,29.35 17.744,32.316 18.063,35.268C18.381,38.22 19.784,40.949 22,42.926L22,42.926ZM8,12L28,12L28,8L8,8L8,12ZM8,20L28,20L28,16L8,16L8,20ZM8,28L18,28L18,24L8,24L8,28Z" fill="#374957"/>
</svg>
