<svg width="44" height="48" viewBox="0 0 44 48" fill="none" xmlns="http://www.w3.org/2000/svg" xmlns:xlink="http://www.w3.org/1999/xlink">
<path d="M38,28.282L38,24C37.996,21.196 37.254,18.441 35.85,16.014C34.446,13.586 32.429,11.57 30,10.168L30,8C30,5.878 29.157,3.843 27.657,2.343C26.157,0.843 24.122,0 22,0C19.878,0 17.843,0.843 16.343,2.343C14.843,3.843 14,5.878 14,8L14,10.168C11.571,11.57 9.554,13.586 8.15,16.014C6.746,18.441 6.004,21.196 6,24L6,28.282C4.286,28.721 2.766,29.718 1.68,31.115C0.594,32.512 0.003,34.23 0,36L0,40C0,42.122 0.843,44.157 2.343,45.657C3.843,47.157 5.878,48 8,48L36,48C38.122,48 40.157,47.157 41.657,45.657C43.157,44.157 44,42.122 44,40L44,36C43.997,34.23 43.406,32.512 42.32,31.115C41.234,29.718 39.714,28.721 38,28.282L38,28.282ZM32,42L12,42L12,41.484C13.072,39.803 14.55,38.42 16.298,37.461C18.045,36.503 20.007,36 22,36C23.993,36 25.955,36.503 27.702,37.461C29.45,38.42 30.928,39.803 32,41.484L32,42ZM32,33.074C29.05,31.071 25.566,29.999 22,29.999C18.434,29.999 14.95,31.071 12,33.074L12,24C12,21.348 13.054,18.804 14.929,16.929C16.804,15.054 19.348,14 22,14C24.652,14 27.196,15.054 29.071,16.929C30.946,18.804 32,21.348 32,24L32,33.074ZM28,23C28,23.796 27.684,24.559 27.121,25.121C26.559,25.684 25.796,26 25,26L19,26C18.204,26 17.441,25.684 16.879,25.121C16.316,24.559 16,23.796 16,23C16,22.204 16.316,21.441 16.879,20.879C17.441,20.316 18.204,20 19,20L25,20C25.796,20 26.559,20.316 27.121,20.879C27.684,21.441 28,22.204 28,23Z" fill="#374957"/>
</svg>
