<svg width="50" height="48" viewBox="0 0 50 48" fill="none" xmlns="http://www.w3.org/2000/svg" xmlns:xlink="http://www.w3.org/1999/xlink">
<path d="M5.08,41C4.658,41 4.241,40.911 3.855,40.739C3.47,40.567 3.125,40.315 2.844,40C1.67,38.698 0.826,37.133 0.384,35.436C-0.219,33.077 -0.06,30.588 0.838,28.324C1.736,26.061 3.327,24.14 5.384,22.836C4.048,19.807 3.67,16.441 4.302,13.19C4.91,9.888 6.534,6.857 8.949,4.524C11.363,2.19 14.447,0.669 17.768,0.174C21.721,-0.415 25.753,0.462 29.104,2.64C32.455,4.819 34.893,8.148 35.958,12C40.073,13.133 43.59,15.816 45.77,19.486C46.137,20.17 46.224,20.969 46.015,21.715C45.805,22.462 45.314,23.098 44.645,23.491C43.977,23.884 43.182,24.002 42.428,23.822C41.673,23.641 41.018,23.175 40.6,22.522C39.797,21.169 38.698,20.015 37.386,19.147C36.074,18.278 34.583,17.717 33.024,17.506C32.371,17.419 31.765,17.12 31.299,16.655C30.833,16.189 30.533,15.583 30.446,14.93C30.267,13.582 29.821,12.283 29.134,11.109C28.448,9.934 27.534,8.909 26.446,8.092C25.34,7.259 24.079,6.654 22.737,6.314C21.394,5.975 19.997,5.906 18.628,6.112C16.545,6.429 14.613,7.388 13.102,8.856C11.591,10.324 10.577,12.227 10.2,14.3C9.759,16.54 10.079,18.863 11.11,20.9C11.729,22.06 11.863,23.418 11.482,24.676C11.102,25.934 10.238,26.99 9.08,27.612C7.95,28.177 7.048,29.111 6.524,30.26C6,31.409 5.886,32.703 6.2,33.926C6.398,34.697 6.781,35.409 7.314,36C7.7,36.432 7.953,36.966 8.042,37.538C8.131,38.11 8.053,38.695 7.817,39.224C7.581,39.753 7.197,40.202 6.711,40.517C6.225,40.832 5.659,41 5.08,41L5.08,41ZM37.7,48C38.445,47.986 39.187,47.896 39.914,47.732C42.181,47.234 44.213,45.986 45.681,44.188C47.15,42.391 47.968,40.151 48.004,37.83C48.039,35.51 47.29,33.245 45.878,31.404C44.465,29.562 42.472,28.251 40.222,27.684C39.991,27.64 39.766,27.573 39.548,27.484C38.458,24.969 36.568,22.883 34.17,21.554C31.773,20.224 29.003,19.723 26.292,20.13C23.464,20.581 20.885,22.011 19.004,24.17C17.123,26.328 16.06,29.079 16,31.942C15.988,32.578 16.027,33.213 16.116,33.842C14.754,34.525 13.634,35.608 12.907,36.946C12.179,38.285 11.879,39.814 12.047,41.328C12.214,42.842 12.841,44.268 13.844,45.415C14.846,46.562 16.176,47.374 17.654,47.742C18.273,47.901 18.909,47.987 19.548,48L37.7,48ZM34.024,29.828C34.427,30.784 35.068,31.621 35.885,32.26C36.702,32.898 37.669,33.318 38.694,33.478C39.651,33.697 40.504,34.237 41.112,35.008C41.719,35.779 42.044,36.735 42.033,37.716C42.022,38.698 41.676,39.646 41.051,40.403C40.427,41.16 39.562,41.681 38.6,41.878C38.286,41.951 37.965,41.992 37.642,42.002L19.628,42.002C19.291,41.968 18.97,41.847 18.694,41.65C18.418,41.454 18.199,41.189 18.056,40.882C17.81,39.966 18.656,39.232 19.256,38.982C20.313,38.539 21.181,37.74 21.709,36.723C22.236,35.705 22.39,34.535 22.144,33.416C22.045,32.97 22,32.513 22.01,32.056C22.044,30.62 22.573,29.239 23.509,28.148C24.445,27.057 25.729,26.324 27.144,26.072C27.459,26.026 27.776,26.002 28.094,26C29.349,25.987 30.58,26.342 31.634,27.023C32.689,27.704 33.52,28.679 34.024,29.828L34.024,29.828Z" fill="#374957"/>
</svg>
