<svg width="48" height="44" viewBox="0 0 48 44" fill="none" xmlns="http://www.w3.org/2000/svg" xmlns:xlink="http://www.w3.org/1999/xlink">
<path d="M24,0C18.898,-0.002 13.929,1.623 9.813,4.638C5.698,7.653 2.651,11.902 1.115,16.767C-0.421,21.632 -0.366,26.861 1.272,31.692C2.91,36.524 6.046,40.708 10.224,43.636L10.742,44L37.258,44L37.776,43.636C41.954,40.708 45.09,36.524 46.728,31.692C48.366,26.861 48.421,21.632 46.885,16.767C45.349,11.902 42.302,7.653 38.187,4.638C34.072,1.623 29.102,-0.002 24,0L24,0ZM35.976,40L12.024,40C8.66,37.485 6.173,33.974 4.917,29.966C3.66,25.959 3.696,21.657 5.022,17.671C6.347,13.686 8.893,10.218 12.3,7.761C15.706,5.304 19.8,3.982 24,3.982C28.2,3.982 32.294,5.304 35.7,7.761C39.107,10.218 41.653,13.686 42.979,17.671C44.304,21.657 44.341,25.959 43.084,29.966C41.827,33.974 39.34,37.485 35.976,40L35.976,40ZM40,24C40.006,26.13 39.583,28.24 38.756,30.204C37.929,32.168 36.716,33.945 35.188,35.43L32.388,32.57C33.915,31.088 35.016,29.224 35.577,27.172C36.138,25.121 36.139,22.956 35.578,20.904L38.728,17.754C39.568,19.729 40.001,21.853 40,24ZM12,24C11.994,25.597 12.31,27.178 12.929,28.651C13.547,30.123 14.456,31.456 15.6,32.57L12.8,35.43C10.141,32.821 8.475,29.367 8.089,25.662C7.704,21.957 8.623,18.233 10.689,15.133C12.755,12.034 15.838,9.752 19.406,8.681C22.973,7.611 26.803,7.819 30.234,9.27L27.096,12.42C25.319,11.935 23.454,11.868 21.647,12.224C19.84,12.579 18.14,13.347 16.678,14.468C15.217,15.589 14.034,17.033 13.223,18.686C12.411,20.339 11.993,22.158 12,24L12,24ZM27.852,22.976C28.093,23.841 28.04,24.762 27.702,25.594C27.364,26.427 26.76,27.124 25.984,27.577C25.208,28.029 24.304,28.213 23.414,28.097C22.523,27.982 21.695,27.575 21.06,26.94C20.424,26.305 20.017,25.477 19.902,24.586C19.787,23.695 19.97,22.791 20.423,22.015C20.876,21.24 21.573,20.635 22.405,20.298C23.238,19.96 24.159,19.907 25.024,20.148L33.586,11.586L36.414,14.414L27.852,22.976Z" fill="#374957"/>
</svg>
