<svg width="48" height="48" viewBox="0 0 48 48" fill="none" xmlns="http://www.w3.org/2000/svg" xmlns:xlink="http://www.w3.org/1999/xlink">
<path d="M42.936,38.692C46.218,34.498 48,29.326 48,24C48,18.675 46.218,13.503 42.936,9.308L46.122,6.122C46.685,5.559 47.001,4.796 47.001,4C47.001,3.204 46.685,2.441 46.122,1.878C45.844,1.6 45.513,1.378 45.149,1.228C44.785,1.077 44.394,0.999 44,0.999C43.204,0.999 42.441,1.315 41.878,1.878L38.692,5.064C34.498,1.783 29.326,0 24,0C18.675,0 13.503,1.783 9.308,5.064L6.122,1.878C5.559,1.315 4.796,0.999 4,0.999C3.204,0.999 2.441,1.315 1.878,1.878C1.315,2.441 0.999,3.204 0.999,4C0.999,4.796 1.315,5.559 1.878,6.122L5.064,9.308C1.783,13.503 0,18.675 0,24C0,29.326 1.783,34.498 5.064,38.692L1.878,41.878C1.315,42.441 0.999,43.204 0.999,44C0.999,44.796 1.315,45.559 1.878,46.122C2.441,46.685 3.204,47.001 4,47.001C4.796,47.001 5.559,46.685 6.122,46.122L9.308,42.936C13.503,46.218 18.675,48 24,48C29.326,48 34.498,46.218 38.692,42.936L41.878,46.122C42.441,46.685 43.204,47.001 44,47.001C44.796,47.001 45.559,46.685 46.122,46.122C46.685,45.559 47.001,44.796 47.001,44C47.001,43.204 46.685,42.441 46.122,41.878L42.936,38.692ZM42,24C42,27.735 40.831,31.376 38.656,34.412L33.3,29.058C34.176,27.516 34.636,25.773 34.636,24C34.636,22.227 34.176,20.484 33.3,18.942L38.656,13.588C40.831,16.625 42,20.265 42,24ZM19.364,24C19.364,23.083 19.636,22.187 20.145,21.425C20.655,20.662 21.379,20.068 22.226,19.717C23.073,19.366 24.005,19.274 24.905,19.453C25.804,19.632 26.63,20.074 27.278,20.722C27.927,21.37 28.368,22.196 28.547,23.096C28.726,23.995 28.634,24.927 28.283,25.774C27.932,26.621 27.338,27.345 26.576,27.855C25.813,28.364 24.917,28.636 24,28.636C22.771,28.635 21.593,28.146 20.724,27.277C19.855,26.408 19.366,25.229 19.364,24L19.364,24ZM24,6C27.735,6 31.376,7.17 34.412,9.344L29.058,14.7C27.516,13.824 25.773,13.364 24,13.364C22.227,13.364 20.484,13.824 18.942,14.7L13.588,9.344C16.625,7.17 20.265,6 24,6L24,6ZM6,24C6,20.265 7.17,16.625 9.344,13.588L14.7,18.942C13.824,20.484 13.364,22.227 13.364,24C13.364,25.773 13.824,27.516 14.7,29.058L9.344,34.412C7.17,31.376 6,27.735 6,24L6,24ZM24,42C20.265,42 16.625,40.831 13.588,38.656L18.942,33.3C20.484,34.176 22.227,34.636 24,34.636C25.773,34.636 27.516,34.176 29.058,33.3L34.412,38.656C31.376,40.831 27.735,42 24,42L24,42Z" fill="#374957"/>
</svg>
