<svg width="48" height="50" viewBox="0 0 48 50" fill="none" xmlns="http://www.w3.org/2000/svg" xmlns:xlink="http://www.w3.org/1999/xlink">
<path d="M38.001,27.998C36.7,28 35.412,28.256 34.211,28.754L27.895,21.124L41.311,4.912C41.565,4.609 41.758,4.259 41.877,3.881C41.995,3.504 42.038,3.106 42.003,2.712C41.967,2.318 41.854,1.935 41.67,1.584C41.486,1.234 41.234,0.923 40.929,0.671C40.624,0.418 40.272,0.229 39.894,0.113C39.515,-0.003 39.118,-0.043 38.724,-0.005C38.33,0.034 37.947,0.15 37.598,0.336C37.249,0.523 36.941,0.778 36.691,1.084L24.001,16.418L11.312,1.084C10.805,0.471 10.074,0.085 9.282,0.01C8.489,-0.065 7.7,0.179 7.086,0.686C6.473,1.194 6.087,1.924 6.012,2.717C5.938,3.509 6.181,4.299 6.688,4.912L20.107,21.122L13.8,28.754C11.575,27.829 9.092,27.731 6.801,28.48C4.51,29.228 2.563,30.773 1.313,32.834C0.063,34.895 -0.406,37.335 -0.011,39.713C0.384,42.09 1.619,44.247 3.468,45.793C5.318,47.338 7.66,48.17 10.07,48.137C12.48,48.103 14.798,47.208 16.604,45.612C18.41,44.016 19.584,41.825 19.914,39.438C20.244,37.05 19.707,34.624 18.4,32.598L24.001,25.828L29.601,32.598C28.405,34.466 27.865,36.679 28.066,38.887C28.267,41.096 29.197,43.175 30.711,44.796C32.224,46.417 34.235,47.488 36.424,47.84C38.614,48.192 40.859,47.804 42.804,46.739C44.749,45.674 46.284,43.991 47.167,41.957C48.05,39.922 48.23,37.652 47.68,35.503C47.129,33.355 45.879,31.451 44.126,30.092C42.374,28.733 40.218,27.997 38.001,27.998L38.001,27.998ZM10,41.998C9.209,41.998 8.436,41.764 7.778,41.324C7.12,40.885 6.608,40.26 6.305,39.529C6.002,38.798 5.923,37.994 6.077,37.218C6.232,36.442 6.613,35.729 7.172,35.17C7.731,34.61 8.444,34.229 9.22,34.075C9.996,33.921 10.8,34 11.531,34.303C12.262,34.606 12.887,35.118 13.326,35.776C13.766,36.434 14,37.207 14,37.998C14,39.059 13.579,40.077 12.829,40.827C12.079,41.577 11.061,41.998 10,41.998ZM38.001,41.998C37.209,41.998 36.436,41.764 35.778,41.324C35.12,40.885 34.608,40.26 34.305,39.529C34.002,38.798 33.923,37.994 34.077,37.218C34.232,36.442 34.613,35.729 35.172,35.17C35.732,34.61 36.444,34.229 37.22,34.075C37.996,33.921 38.8,34 39.531,34.303C40.262,34.606 40.887,35.118 41.326,35.776C41.766,36.434 42.001,37.207 42.001,37.998C42.001,39.059 41.579,40.077 40.829,40.827C40.079,41.577 39.061,41.998 38.001,41.998Z" fill="#374957"/>
</svg>
