<svg width="44" height="50" viewBox="0 0 44 50" fill="none" xmlns="http://www.w3.org/2000/svg" xmlns:xlink="http://www.w3.org/1999/xlink">
<path d="M33,0L11,0C8.084,0.004 5.288,1.164 3.226,3.226C1.164,5.288 0.004,8.084 0,11L0,40.944C0.002,42.345 0.423,43.713 1.211,44.871C1.998,46.03 3.115,46.925 4.417,47.442C5.718,47.959 7.145,48.074 8.513,47.771C9.881,47.468 11.126,46.762 12.088,45.744L21.912,35.344L31.938,45.844C32.903,46.854 34.148,47.553 35.514,47.85C36.879,48.146 38.302,48.027 39.599,47.509C40.897,46.99 42.009,46.095 42.793,44.938C43.578,43.782 43.998,42.417 44,41.02L44,11C43.996,8.084 42.836,5.288 40.774,3.226C38.712,1.164 35.916,0.004 33,0L33,0ZM38,41.02C38,41.219 37.94,41.414 37.828,41.579C37.716,41.744 37.557,41.872 37.372,41.946C37.187,42.021 36.984,42.038 36.789,41.996C36.594,41.953 36.416,41.854 36.278,41.71L24.078,28.928C23.797,28.634 23.459,28.4 23.084,28.24C22.71,28.081 22.307,27.999 21.9,28C21.493,28.001 21.091,28.085 20.717,28.247C20.344,28.408 20.007,28.644 19.728,28.94L7.728,41.63C7.594,41.781 7.416,41.886 7.219,41.93C7.021,41.974 6.815,41.954 6.63,41.874C6.439,41.807 6.275,41.681 6.161,41.513C6.048,41.346 5.991,41.146 6,40.944L6,11C6,9.674 6.527,8.402 7.464,7.464C8.402,6.527 9.674,6 11,6L33,6C34.326,6 35.598,6.527 36.536,7.464C37.473,8.402 38,9.674 38,11L38,41.02Z" fill="#374957"/>
</svg>
