<svg width="30" height="32" viewBox="0 0 30 32" fill="none" xmlns="http://www.w3.org/2000/svg" xmlns:xlink="http://www.w3.org/1999/xlink">
<path d="M14,1C11.033,1 8.133,1.88 5.666,3.528C3.2,5.176 1.277,7.519 0.142,10.26C-0.994,13.001 -1.291,16.017 -0.712,18.926C-0.133,21.836 1.296,24.509 3.393,26.607C5.491,28.704 8.164,30.133 11.074,30.712C13.983,31.291 16.999,30.994 19.74,29.858C22.481,28.723 24.824,26.8 26.472,24.334C28.12,21.867 29,18.967 29,16C28.996,12.023 27.414,8.21 24.602,5.398C21.79,2.586 17.977,1.004 14,1L14,1ZM14,25C12.22,25 10.48,24.472 9,23.483C7.52,22.494 6.366,21.089 5.685,19.444C5.004,17.8 4.826,15.99 5.173,14.244C5.52,12.498 6.377,10.895 7.636,9.636C8.895,8.377 10.498,7.52 12.244,7.173C13.99,6.826 15.8,7.004 17.444,7.685C19.089,8.366 20.494,9.52 21.483,11C22.472,12.48 23,14.22 23,16C22.997,18.386 22.048,20.674 20.361,22.361C18.674,24.048 16.386,24.997 14,25L14,25Z" fill="#374957"/>
</svg>
