<svg width="48" height="48" viewBox="0 0 48 48" fill="none" xmlns="http://www.w3.org/2000/svg" xmlns:xlink="http://www.w3.org/1999/xlink">
<path d="M24,0C19.253,0 14.613,1.408 10.666,4.045C6.72,6.682 3.643,10.43 1.827,14.816C0.01,19.201 -0.465,24.027 0.461,28.682C1.387,33.338 3.673,37.614 7.029,40.971C10.386,44.327 14.662,46.613 19.318,47.539C23.973,48.465 28.799,47.99 33.184,46.173C37.57,44.357 41.318,41.28 43.955,37.334C46.592,33.387 48,28.747 48,24C47.993,17.637 45.462,11.536 40.963,7.037C36.464,2.538 30.363,0.007 24,0L24,0ZM12,20C12,18.939 12.421,17.922 13.172,17.172C13.922,16.421 14.939,16 16,16C17.061,16 18.078,16.421 18.828,17.172C19.579,17.922 20,18.939 20,20L20,22L12,22L12,20ZM32,34L16,34L16,30L32,30L32,34ZM28,22L28,20C28,18.939 28.421,17.922 29.172,17.172C29.922,16.421 30.939,16 32,16C33.061,16 34.078,16.421 34.828,17.172C35.579,17.922 36,18.939 36,20L36,22L28,22Z" fill="#374957"/>
</svg>
