<svg width="40" height="48" viewBox="0 0 40 48" fill="none" xmlns="http://www.w3.org/2000/svg" xmlns:xlink="http://www.w3.org/1999/xlink">
<path d="M20,0.014C16.043,0.014 12.175,1.188 8.885,3.388C5.596,5.587 3.033,8.713 1.52,12.37C0.008,16.027 -0.386,20.05 0.389,23.93C1.164,27.811 3.073,31.374 5.874,34.17L15.924,44L6,44L6,48L34,48L34,44L24.076,44L34.142,34.154C36.938,31.356 38.842,27.793 39.614,23.914C40.385,20.034 39.989,16.014 38.475,12.36C36.961,8.706 34.398,5.582 31.11,3.385C27.821,1.187 23.955,0.014 20,0.014L20,0.014ZM31.33,31.31L20,42.4L8.686,31.326C6.449,29.089 4.925,26.239 4.308,23.136C3.69,20.033 4.006,16.817 5.216,13.894C6.425,10.971 8.474,8.472 11.104,6.713C13.733,4.954 16.825,4.014 19.988,4.012C23.152,4.01 26.245,4.946 28.877,6.701C31.509,8.456 33.562,10.952 34.775,13.873C35.989,16.795 36.31,20.01 35.696,23.114C35.083,26.217 33.563,29.069 31.33,31.31L31.33,31.31ZM10,12.764L10,25.236L20,30.236L30,25.236L30,12.764L20,7.764L10,12.764ZM26,22.764L20,25.764L14,22.764L14,15.236L14.236,15.118L20,18L25.764,15.118L26,15.236L26,22.764Z" fill="#374957"/>
</svg>
