<svg width="40" height="48" viewBox="0 0 40 48" fill="none" xmlns="http://www.w3.org/2000/svg" xmlns:xlink="http://www.w3.org/1999/xlink">
<path d="M25.765,4L25.263,8L21.231,8L22.231,0L35.999,0L35.999,4L25.765,4ZM1.321,10.244C0.773,10.916 0.38,11.701 0.173,12.543C-0.035,13.385 -0.052,14.262 0.121,15.112L0.723,20L19.723,20L21.227,8L5.999,8C5.101,7.998 4.213,8.199 3.403,8.587C2.594,8.976 1.882,9.542 1.321,10.244L1.321,10.244ZM38.681,10.244C38.12,9.542 37.407,8.975 36.597,8.586C35.786,8.198 34.898,7.997 33.999,8L25.263,8L23.759,20L39.265,20L39.853,15.306C40.051,14.429 40.049,13.519 39.846,12.644C39.643,11.768 39.245,10.95 38.681,10.25L38.681,10.244ZM21.251,40L17.219,40L19.219,24L1.219,24L4.219,48L35.765,48L38.765,24L23.257,24L21.251,40Z" fill="#374957"/>
</svg>
