<svg width="48" height="48" viewBox="0 0 48 48" fill="none" xmlns="http://www.w3.org/2000/svg" xmlns:xlink="http://www.w3.org/1999/xlink">
<path d="M37,0L11,0C8.084,0.004 5.288,1.164 3.226,3.226C1.164,5.288 0.004,8.084 0,11L0,21C0.004,24.977 1.586,28.79 4.398,31.602C7.21,34.414 11.023,35.996 15,36L16,36L16,40C16,42.122 16.843,44.157 18.343,45.657C19.843,47.157 21.878,48 24,48C26.122,48 28.157,47.157 29.657,45.657C31.157,44.157 32,42.122 32,40L32,36L33,36C36.977,35.996 40.79,34.414 43.602,31.602C46.414,28.79 47.996,24.977 48,21L48,11C47.996,8.084 46.836,5.288 44.774,3.226C42.712,1.164 39.916,0.004 37,0L37,0ZM11,6L12,6L12,7C12,7.796 12.316,8.559 12.879,9.121C13.441,9.684 14.204,10 15,10C15.796,10 16.559,9.684 17.121,9.121C17.684,8.559 18,7.796 18,7L18,6L22,6L22,11C22,11.796 22.316,12.559 22.879,13.121C23.441,13.684 24.204,14 25,14C25.796,14 26.559,13.684 27.121,13.121C27.684,12.559 28,11.796 28,11L28,6L32,6L32,15C32,15.796 32.316,16.559 32.879,17.121C33.441,17.684 34.204,18 35,18C35.796,18 36.559,17.684 37.121,17.121C37.684,16.559 38,15.796 38,15L38,6.102C39.129,6.332 40.144,6.946 40.873,7.838C41.602,8.731 42,9.848 42,11L42,20L6,20L6,11C6,9.674 6.527,8.402 7.464,7.464C8.402,6.527 9.674,6 11,6L11,6ZM33,30L29,30C28.204,30 27.441,30.316 26.879,30.879C26.316,31.441 26,32.204 26,33L26,40C26,40.53 25.789,41.039 25.414,41.414C25.039,41.789 24.53,42 24,42C23.47,42 22.961,41.789 22.586,41.414C22.211,41.039 22,40.53 22,40L22,33C22,32.204 21.684,31.441 21.121,30.879C20.559,30.316 19.796,30 19,30L15,30C13.521,29.999 12.065,29.633 10.761,28.936C9.458,28.238 8.346,27.23 7.524,26L40.476,26C39.654,27.23 38.542,28.238 37.239,28.936C35.935,29.633 34.479,29.999 33,30L33,30Z" fill="#374957"/>
</svg>
