<svg width="48" height="48" viewBox="0 0 48 48" fill="none" xmlns="http://www.w3.org/2000/svg" xmlns:xlink="http://www.w3.org/1999/xlink">
<path d="M8,26L14,26L14,30L8,30L8,26ZM18,30L24,30L24,26L18,26L18,30ZM8,38L14,38L14,34L8,34L8,38ZM18,38L24,38L24,34L18,34L18,38ZM8,14L14,14L14,10L8,10L8,14ZM18,14L24,14L24,10L18,10L18,14ZM8,22L14,22L14,18L8,18L8,22ZM18,22L24,22L24,18L18,18L18,22ZM48,16L48,48L0,48L0,6C0,4.409 0.632,2.883 1.757,1.757C2.883,0.632 4.409,0 6,0L26,0C27.591,0 29.117,0.632 30.243,1.757C31.368,2.883 32,4.409 32,6L32,10L42,10C43.591,10 45.117,10.632 46.243,11.757C47.368,12.883 48,14.409 48,16ZM28,6C28,5.47 27.789,4.961 27.414,4.586C27.039,4.211 26.53,4 26,4L6,4C5.47,4 4.961,4.211 4.586,4.586C4.211,4.961 4,5.47 4,6L4,44L28,44L28,6ZM44,16C44,15.47 43.789,14.961 43.414,14.586C43.039,14.211 42.53,14 42,14L32,14L32,44L44,44L44,16ZM36,30L40,30L40,26L36,26L36,30ZM36,38L40,38L40,34L36,34L36,38ZM36,22L40,22L40,18L36,18L36,22Z" fill="#374957"/>
</svg>
