<svg width="36" height="48" viewBox="0 0 36 48" fill="none" xmlns="http://www.w3.org/2000/svg" xmlns:xlink="http://www.w3.org/1999/xlink">
<path d="M30,0L6,0C4.409,0 2.883,0.632 1.757,1.757C0.632,2.883 0,4.409 0,6L0,48L36,48L36,6C36,4.409 35.368,2.883 34.243,1.757C33.117,0.632 31.591,0 30,0L30,0ZM32,44L20,44L20,40L16,40L16,44L4,44L4,6C4,5.47 4.211,4.961 4.586,4.586C4.961,4.211 5.47,4 6,4L30,4C30.53,4 31.039,4.211 31.414,4.586C31.789,4.961 32,5.47 32,6L32,44ZM16,22L20,22L20,24L24,24L24,20.586C24.002,18.597 23.579,16.631 22.758,14.82L21.714,12.516C21.421,11.779 20.915,11.146 20.261,10.697C19.607,10.248 18.835,10.003 18.041,9.994C17.248,9.986 16.47,10.213 15.807,10.647C15.143,11.082 14.623,11.704 14.314,12.434L13.242,14.822C12.421,16.633 11.997,18.598 12,20.586L12,24L16,24L16,22ZM18.036,14.082L19.112,16.466C19.322,16.963 19.491,17.476 19.618,18L16.382,18C16.508,17.476 16.676,16.964 16.886,16.468L18.036,14.082ZM10,28L26,28L26,32L10,32L10,28Z" fill="#374957"/>
</svg>
