<svg width="48" height="48" viewBox="0 0 48 48" fill="none" xmlns="http://www.w3.org/2000/svg" xmlns:xlink="http://www.w3.org/1999/xlink">
<path d="M47.4,48L26.95,11.2C28.104,10.548 29.01,9.533 29.526,8.312C30.042,7.09 30.14,5.733 29.803,4.451C29.466,3.168 28.713,2.034 27.664,1.224C26.614,0.415 25.325,-0.024 24,-0.024C22.674,-0.024 21.385,0.415 20.336,1.224C19.286,2.034 18.534,3.168 18.197,4.451C17.86,5.733 17.957,7.09 18.473,8.312C18.989,9.533 19.895,10.548 21.05,11.2L0.6,48L47.4,48ZM20.8,44L16.47,44L28.542,22.294L30.818,26.388L20.8,44ZM33.086,30.48L35.356,34.568L29.972,44L25.4,44L33.086,30.48ZM11.892,44L7.4,44L24,14.118L26.254,18.176L11.892,44ZM34.578,44L37.632,38.654L40.6,44L34.578,44Z" fill="#374957"/>
</svg>
