<svg width="48" height="48" viewBox="0 0 48 48" fill="none" xmlns="http://www.w3.org/2000/svg" xmlns:xlink="http://www.w3.org/1999/xlink">
<path d="M45.071,14.648L47.931,11.848L36.431,0.102L33.571,2.902L38.083,7.502L33.725,11.584L31.901,9.758C31.344,9.201 30.682,8.759 29.954,8.457C29.226,8.156 28.446,8.001 27.658,8.001C26.87,8.001 26.09,8.156 25.362,8.457C24.634,8.759 23.972,9.201 23.415,9.758L6.001,27.172L6.001,39.172L0.087,45.086L2.915,47.914L8.829,42L20.829,42L38.243,24.586C38.8,24.029 39.242,23.368 39.544,22.64C39.845,21.912 40.001,21.131 40.001,20.343C40.001,19.555 39.845,18.775 39.544,18.047C39.242,17.319 38.8,16.657 38.243,16.1L36.555,14.414L40.881,10.368L45.071,14.648ZM35.415,21.758L19.173,38L10.001,38L10.001,30.578L13.837,34.414L16.665,31.586L11.955,26.876L15.127,23.704L19.837,28.414L22.665,25.586L17.955,20.876L21.127,17.704L25.837,22.414L28.665,19.586L23.955,14.876L26.243,12.586C26.429,12.4 26.649,12.253 26.892,12.152C27.135,12.052 27.395,12 27.658,12C27.921,12 28.181,12.052 28.424,12.152C28.667,12.253 28.887,12.4 29.073,12.586L35.415,18.928C35.601,19.114 35.748,19.335 35.849,19.577C35.95,19.82 36.002,20.08 36.002,20.343C36.002,20.606 35.95,20.866 35.849,21.109C35.748,21.352 35.601,21.572 35.415,21.758L35.415,21.758Z" fill="#374957"/>
</svg>
