<svg width="36" height="36" viewBox="0 0 36 36" fill="none" xmlns="http://www.w3.org/2000/svg" xmlns:xlink="http://www.w3.org/1999/xlink">
<path d="M28.001,11.333C28.001,13.174 26.508,14.667 24.667,14.667C22.826,14.667 21.334,13.174 21.334,11.333C21.334,9.493 22.826,8 24.667,8C26.508,8 28.001,9.493 28.001,11.333Z" fill="#EE6611"/>
<path d="M17.905,0.083L18.096,0.083C21.944,0.083 24.959,0.083 27.311,0.4C29.719,0.723 31.619,1.399 33.11,2.89C34.602,4.382 35.277,6.282 35.601,8.69C35.917,11.042 35.917,14.057 35.917,17.905L35.917,18.052C35.917,21.233 35.917,23.837 35.745,25.958C35.571,28.089 35.215,29.869 34.419,31.348C34.068,32 33.636,32.584 33.11,33.11C31.619,34.601 29.719,35.277 27.311,35.6C24.959,35.917 21.944,35.917 18.096,35.917L17.905,35.917C14.058,35.917 11.043,35.917 8.69,35.6C6.282,35.277 4.382,34.601 2.891,33.11C1.569,31.788 0.886,30.142 0.523,28.101C0.166,26.095 0.101,23.601 0.087,20.503C0.084,19.715 0.084,18.881 0.084,18.002L0.084,17.905C0.084,14.057 0.084,11.042 0.4,8.69C0.724,6.282 1.4,4.382 2.891,2.89C4.382,1.399 6.282,0.723 8.69,0.4C11.043,0.083 14.058,0.083 17.905,0.083ZM9.023,2.877C6.893,3.164 5.608,3.709 4.659,4.658C3.709,5.608 3.164,6.892 2.878,9.023C2.587,11.189 2.584,14.036 2.584,18C2.584,18.484 2.584,18.953 2.585,19.406L4.253,17.946C5.772,16.617 8.061,16.693 9.488,18.12L16.637,25.27C17.783,26.415 19.586,26.571 20.911,25.64L21.408,25.291C23.315,23.95 25.895,24.106 27.628,25.665L32.345,29.911C32.82,28.913 33.102,27.603 33.253,25.755C33.416,23.747 33.417,21.243 33.417,18C33.417,14.036 33.415,11.189 33.123,9.023C32.837,6.892 32.292,5.608 31.343,4.658C30.393,3.709 29.109,3.164 26.978,2.877C24.811,2.586 21.964,2.583 18.001,2.583C14.037,2.583 11.19,2.586 9.023,2.877Z" clip-rule="evenodd" fill-rule="evenodd" fill="#EE6611"/>
</svg>
