<svg width="48" height="48" viewBox="0 0 48 48" fill="none" xmlns="http://www.w3.org/2000/svg" xmlns:xlink="http://www.w3.org/1999/xlink">
<path d="M47.755,38.226L41.413,44.57C40.308,45.67 38.995,46.54 37.55,47.128C36.106,47.717 34.559,48.013 32.999,48C18.503,48 -0.001,29.496 -0.001,15C-0.014,13.44 0.282,11.892 0.872,10.447C1.461,9.002 2.332,7.689 3.433,6.584L9.773,0.244L22.301,12.774L14.053,21.024C16.506,26.853 21.136,31.496 26.959,33.962L35.225,25.696L47.755,38.226ZM43.999,0L39.999,0L39.999,16L43.999,16L43.999,0ZM35.999,0L31.999,0L31.999,16L35.999,16L35.999,0Z" fill="#374957"/>
</svg>
