<svg width="46" height="48" viewBox="0 0 46 48" fill="none" xmlns="http://www.w3.org/2000/svg" xmlns:xlink="http://www.w3.org/1999/xlink">
<path d="M16,24.001C16,22.409 16.632,20.883 17.757,19.758C18.882,18.633 20.409,18.001 22,18.001C23.591,18.001 25.117,18.633 26.243,19.758C27.368,20.883 28,22.409 28,24.001C28,25.592 27.368,27.118 26.243,28.243C25.117,29.369 23.591,30.001 22,30.001C20.409,30.001 18.882,29.369 17.757,28.243C16.632,27.118 16,25.592 16,24.001ZM31.906,41.151C41.272,42.497 47.734,31.241 41.624,23.971C42.956,22.303 43.758,20.275 43.927,18.147C44.096,16.019 43.625,13.89 42.573,12.032C41.522,10.175 39.938,8.675 38.027,7.726C36.115,6.776 33.963,6.421 31.848,6.705C31.054,4.743 29.693,3.064 27.938,1.881C26.184,0.698 24.116,0.066 22,0.066C19.884,0.066 17.816,0.698 16.062,1.881C14.307,3.064 12.946,4.743 12.152,6.705C10.037,6.42 7.884,6.775 5.973,7.724C4.061,8.673 2.477,10.173 1.426,12.031C0.374,13.888 -0.098,16.018 0.072,18.145C0.241,20.273 1.044,22.301 2.376,23.969C-3.736,31.243 2.73,42.495 12.094,41.149C12.854,43.162 14.208,44.895 15.978,46.119C17.748,47.343 19.848,47.998 22,47.998C24.151,47.998 26.252,47.343 28.022,46.119C29.791,44.895 31.146,43.162 31.906,41.149L31.906,41.151ZM12.876,34.779C7.576,37.273 2.988,29.779 8.44,26.633C8.906,26.369 9.294,25.987 9.564,25.525C9.835,25.062 9.977,24.536 9.977,24.001C9.977,23.465 9.835,22.939 9.564,22.477C9.294,22.014 8.906,21.632 8.44,21.369C3.134,18.297 7.4,10.211 12.884,13.233C13.34,13.5 13.859,13.642 14.388,13.644C14.917,13.646 15.437,13.508 15.895,13.245C16.353,12.981 16.734,12.601 16.998,12.143C17.263,11.685 17.401,11.165 17.4,10.637C17.4,9.417 17.884,8.247 18.747,7.384C19.61,6.521 20.78,6.037 22,6.037C23.22,6.037 24.39,6.521 25.253,7.384C26.115,8.247 26.6,9.417 26.6,10.637C26.6,11.165 26.74,11.683 27.004,12.14C27.269,12.597 27.65,12.976 28.108,13.239C28.566,13.501 29.086,13.638 29.614,13.636C30.142,13.633 30.66,13.492 31.116,13.225C36.6,10.211 40.864,18.301 35.56,21.369C35.093,21.632 34.705,22.014 34.435,22.477C34.165,22.939 34.023,23.465 34.023,24.001C34.023,24.536 34.165,25.062 34.435,25.525C34.705,25.987 35.093,26.369 35.56,26.633C41.014,29.785 36.418,37.273 31.124,34.779C30.668,34.51 30.149,34.366 29.62,34.363C29.091,34.359 28.57,34.496 28.111,34.758C27.652,35.021 27.27,35.4 27.005,35.858C26.739,36.316 26.6,36.836 26.6,37.365C26.6,38.585 26.115,39.755 25.253,40.617C24.39,41.48 23.22,41.965 22,41.965C20.78,41.965 19.61,41.48 18.747,40.617C17.884,39.755 17.4,38.585 17.4,37.365C17.4,36.836 17.261,36.316 16.995,35.858C16.73,35.4 16.348,35.021 15.889,34.758C15.429,34.496 14.909,34.359 14.379,34.363C13.85,34.366 13.332,34.51 12.876,34.779L12.876,34.779Z" fill="#374957"/>
</svg>
