<svg width="28" height="50" viewBox="0 0 28 50" fill="none" xmlns="http://www.w3.org/2000/svg" xmlns:xlink="http://www.w3.org/1999/xlink">
<path d="M15.999,28.345L15.999,16.001L11.999,16.001L11.999,28.345C10.665,28.817 9.54,29.745 8.824,30.966C8.108,32.187 7.846,33.621 8.085,35.016C8.325,36.411 9.05,37.677 10.132,38.589C11.214,39.501 12.584,40.002 13.999,40.002C15.414,40.002 16.784,39.501 17.866,38.589C18.948,37.677 19.673,36.411 19.913,35.016C20.152,33.621 19.89,32.187 19.174,30.966C18.458,29.745 17.333,28.817 15.999,28.345L15.999,28.345ZM23.999,24.223L23.999,10.001C23.577,-3.217 4.417,-3.199 3.999,10.001L3.999,24.223C2.07,26.192 0.765,28.687 0.248,31.395C-0.27,34.103 0.024,36.903 1.092,39.444C2.16,41.986 3.955,44.156 6.251,45.681C8.547,47.207 11.242,48.021 13.999,48.021C16.756,48.021 19.451,47.207 21.747,45.681C24.043,44.156 25.838,41.986 26.906,39.444C27.974,36.903 28.268,34.103 27.751,31.395C27.233,28.687 25.928,26.192 23.999,24.223L23.999,24.223ZM13.999,44.001C11.986,43.978 10.026,43.351 8.375,42.2C6.723,41.049 5.455,39.429 4.737,37.548C4.018,35.668 3.882,33.615 4.345,31.656C4.808,29.697 5.85,27.922 7.335,26.563L7.999,25.963L7.999,10.001C7.999,8.41 8.631,6.884 9.756,5.758C10.882,4.633 12.408,4.001 13.999,4.001C15.59,4.001 17.116,4.633 18.242,5.758C19.367,6.884 19.999,8.41 19.999,10.001L19.999,25.967L20.663,26.567C22.146,27.926 23.187,29.701 23.649,31.659C24.112,33.617 23.975,35.669 23.257,37.549C22.538,39.428 21.271,41.049 19.62,42.199C17.97,43.35 16.011,43.977 13.999,44.001L13.999,44.001Z" fill="#374957"/>
</svg>
