<svg width="48" height="48" viewBox="0 0 48 48" fill="none" xmlns="http://www.w3.org/2000/svg" xmlns:xlink="http://www.w3.org/1999/xlink">
<path d="M48,48L36,48L36,44L44,44L44,36L48,36L48,48ZM48,6C48,4.409 47.368,2.883 46.243,1.757C45.117,0.632 43.591,0 42,0L36,0L36,4L42,4C42.53,4 43.039,4.211 43.414,4.586C43.789,4.961 44,5.47 44,6L44,12L48,12L48,6ZM48,18L44,18L44,30L48,30L48,18ZM12,44L4,44L4,36L0,36L0,48L12,48L12,44ZM4,6C4,5.47 4.211,4.961 4.586,4.586C4.961,4.211 5.47,4 6,4L12,4L12,0L6,0C4.409,0 2.883,0.632 1.757,1.757C0.632,2.883 0,4.409 0,6L0,12L4,12L4,6ZM4,18L0,18L0,30L4,30L4,18ZM30,0L18,0L18,4L30,4L30,0ZM30,44L18,44L18,48L30,48L30,44Z" fill="#374957"/>
</svg>
