<svg width="48" height="48" viewBox="0 0 48 48" fill="none" xmlns="http://www.w3.org/2000/svg" xmlns:xlink="http://www.w3.org/1999/xlink">
<path d="M47.999,42.484L47.999,48L43.999,48L43.999,42.484C43.999,41.202 43.618,39.948 42.906,38.882C42.193,37.816 41.18,36.985 39.996,36.494C38.811,36.004 37.508,35.875 36.25,36.125C34.992,36.375 33.837,36.992 32.929,37.898L26.929,43.898C25.633,45.202 24.091,46.236 22.392,46.94C20.694,47.644 18.872,48.004 17.033,48L6.245,48C5.011,48 3.804,47.634 2.777,46.948C1.751,46.262 0.951,45.287 0.478,44.147C0.006,43.006 -0.118,41.751 0.123,40.54C0.364,39.329 0.958,38.217 1.831,37.344L8.199,30.97L15.277,4.454C15.434,3.878 15.678,3.329 15.999,2.826L26.173,13L8.211,30.964L11.039,33.8L28.999,15.83L39.173,26C38.67,26.321 38.121,26.564 37.545,26.72L11.039,33.8L4.659,40.18C4.348,40.494 4.137,40.893 4.052,41.327C3.967,41.76 4.012,42.209 4.181,42.618C4.351,43.026 4.637,43.375 5.004,43.621C5.372,43.867 5.803,43.999 6.245,44L17.033,44C18.347,44.003 19.649,43.746 20.863,43.243C22.077,42.74 23.179,42.001 24.105,41.07L30.105,35.07C31.572,33.605 33.44,32.607 35.473,32.204C37.506,31.8 39.613,32.008 41.528,32.801C43.443,33.595 45.08,34.938 46.232,36.661C47.384,38.385 47.999,40.411 47.999,42.484L47.999,42.484ZM38.573,0.6C37.771,0.21 36.892,0.005 35.999,0L21.071,0C20.417,0.001 19.767,0.109 19.147,0.32L28.999,10.174L38.573,0.6ZM41.679,22.852C41.89,22.232 41.998,21.582 41.999,20.928L41.999,6C41.995,5.11 41.79,4.232 41.399,3.432L31.829,13L41.679,22.852Z" fill="#374957"/>
</svg>
