<svg width="40" height="48" viewBox="0 0 40 48" fill="none" xmlns="http://www.w3.org/2000/svg" xmlns:xlink="http://www.w3.org/1999/xlink">
<path d="M38.828,10L30,10L30,1.172L38.828,10ZM40,14L40,48L0,48L0,6C0,4.409 0.632,2.883 1.757,1.757C2.883,0.632 4.409,0 6,0L26,0L26,14L40,14ZM29.222,27.072L26.4,24.244L19.22,31.414C18.84,31.778 18.333,31.981 17.807,31.981C17.281,31.981 16.774,31.778 16.394,31.414L13.222,28.244L10.4,31.072L13.57,34.242C14.127,34.799 14.789,35.241 15.517,35.543C16.245,35.844 17.025,36 17.813,36C18.601,36 19.381,35.844 20.109,35.543C20.837,35.241 21.499,34.799 22.056,34.242L29.222,27.072Z" fill="#374957"/>
</svg>
