<svg width="48" height="48" viewBox="0 0 48 48" fill="none" xmlns="http://www.w3.org/2000/svg" xmlns:xlink="http://www.w3.org/1999/xlink">
<path d="M37,0L11,0C8.084,0.003 5.288,1.163 3.225,3.225C1.163,5.288 0.003,8.084 0,11L0,27C0.003,29.916 1.163,32.712 3.225,34.775C5.288,36.837 8.084,37.997 11,38L21,38L21,42L16,42C15.204,42 14.441,42.316 13.879,42.879C13.316,43.441 13,44.204 13,45C13,45.796 13.316,46.559 13.879,47.121C14.441,47.684 15.204,48 16,48L32,48C32.796,48 33.559,47.684 34.121,47.121C34.684,46.559 35,45.796 35,45C35,44.204 34.684,43.441 34.121,42.879C33.559,42.316 32.796,42 32,42L27,42L27,38L37,38C39.916,37.997 42.712,36.837 44.775,34.775C46.837,32.712 47.997,29.916 48,27L48,11C47.997,8.084 46.837,5.288 44.775,3.225C42.712,1.163 39.916,0.003 37,0L37,0ZM11,6L37,6C38.326,6 39.598,6.527 40.536,7.464C41.473,8.402 42,9.674 42,11L42,26L6,26L6,11C6,9.674 6.527,8.402 7.464,7.464C8.402,6.527 9.674,6 11,6L11,6Z" fill="#374957"/>
</svg>
