<svg width="48" height="44" viewBox="0 0 48 44" fill="none" xmlns="http://www.w3.org/2000/svg" xmlns:xlink="http://www.w3.org/1999/xlink">
<path d="M10,21C10,20.204 10.316,19.441 10.879,18.879C11.441,18.316 12.204,18 13,18L35,18C35.796,18 36.559,18.316 37.121,18.879C37.684,19.441 38,20.204 38,21C38,21.796 37.684,22.559 37.121,23.121C36.559,23.684 35.796,24 35,24L13,24C12.204,24 11.441,23.684 10.879,23.121C10.316,22.559 10,21.796 10,21ZM13,34L27,34C27.796,34 28.559,33.684 29.121,33.121C29.684,32.559 30,31.796 30,31C30,30.204 29.684,29.441 29.121,28.879C28.559,28.316 27.796,28 27,28L13,28C12.204,28 11.441,28.316 10.879,28.879C10.316,29.441 10,30.204 10,31C10,31.796 10.316,32.559 10.879,33.121C11.441,33.684 12.204,34 13,34L13,34ZM48,11L48,33C47.997,35.916 46.837,38.712 44.775,40.775C42.712,42.837 39.916,43.997 37,44L11,44C8.084,43.997 5.288,42.837 3.225,40.775C1.163,38.712 0.003,35.916 0,33L0,11C0.003,8.084 1.163,5.288 3.225,3.225C5.288,1.163 8.084,0.003 11,0L37,0C39.916,0.003 42.712,1.163 44.775,3.225C46.837,5.288 47.997,8.084 48,11ZM16,7C16,7.593 16.176,8.173 16.506,8.667C16.835,9.16 17.304,9.545 17.852,9.772C18.4,9.999 19.003,10.058 19.585,9.942C20.167,9.827 20.702,9.541 21.121,9.121C21.541,8.702 21.827,8.167 21.942,7.585C22.058,7.003 21.999,6.4 21.772,5.852C21.545,5.304 21.16,4.835 20.667,4.506C20.173,4.176 19.593,4 19,4C18.204,4 17.441,4.316 16.879,4.879C16.316,5.441 16,6.204 16,7L16,7ZM6,7C6,7.593 6.176,8.173 6.506,8.667C6.835,9.16 7.304,9.545 7.852,9.772C8.4,9.999 9.003,10.058 9.585,9.942C10.167,9.827 10.702,9.541 11.121,9.121C11.541,8.702 11.827,8.167 11.942,7.585C12.058,7.003 11.999,6.4 11.772,5.852C11.545,5.304 11.16,4.835 10.667,4.506C10.173,4.176 9.593,4 9,4C8.204,4 7.441,4.316 6.879,4.879C6.316,5.441 6,6.204 6,7ZM42,14L6,14L6,33C6,34.326 6.527,35.598 7.464,36.536C8.402,37.473 9.674,38 11,38L37,38C38.326,38 39.598,37.473 40.536,36.536C41.473,35.598 42,34.326 42,33L42,14Z" fill="#374957"/>
</svg>
