<svg width="48" height="48" viewBox="0 0 48 48" fill="none" xmlns="http://www.w3.org/2000/svg" xmlns:xlink="http://www.w3.org/1999/xlink">
<path d="M37,10L31.95,10C31.698,7.269 30.436,4.73 28.411,2.881C26.385,1.031 23.743,0.004 21,0L11,0C8.084,0.003 5.288,1.163 3.225,3.225C1.163,5.288 0.003,8.084 0,11L0,37C0.003,39.916 1.163,42.712 3.225,44.775C5.288,46.837 8.084,47.997 11,48L37,48C39.916,47.997 42.712,46.837 44.775,44.775C46.837,42.712 47.997,39.916 48,37L48,21C47.997,18.084 46.837,15.288 44.775,13.225C42.712,11.163 39.916,10.003 37,10ZM6,37L6,11C6,9.674 6.527,8.402 7.464,7.464C8.402,6.527 9.674,6 11,6L21,6C22.326,6 23.598,6.527 24.536,7.464C25.473,8.402 26,9.674 26,11L26,42L11,42C9.674,42 8.402,41.473 7.464,40.536C6.527,39.598 6,38.326 6,37ZM42,37C42,38.326 41.473,39.598 40.536,40.536C39.598,41.473 38.326,42 37,42L32,42L32,16L37,16C38.326,16 39.598,16.527 40.536,17.464C41.473,18.402 42,19.674 42,21L42,37ZM40,23C40,23.593 39.824,24.173 39.494,24.667C39.165,25.16 38.696,25.545 38.148,25.772C37.6,25.999 36.997,26.058 36.415,25.942C35.833,25.827 35.298,25.541 34.879,25.121C34.459,24.702 34.173,24.167 34.058,23.585C33.942,23.003 34.001,22.4 34.228,21.852C34.455,21.304 34.84,20.835 35.333,20.506C35.827,20.176 36.407,20 37,20C37.796,20 38.559,20.316 39.121,20.879C39.684,21.441 40,22.204 40,23ZM40,33C40,33.593 39.824,34.173 39.494,34.667C39.165,35.16 38.696,35.545 38.148,35.772C37.6,35.999 36.997,36.058 36.415,35.942C35.833,35.827 35.298,35.541 34.879,35.121C34.459,34.702 34.173,34.167 34.058,33.585C33.942,33.003 34.001,32.4 34.228,31.852C34.455,31.304 34.84,30.835 35.333,30.506C35.827,30.176 36.407,30 37,30C37.796,30 38.559,30.316 39.121,30.879C39.684,31.441 40,32.204 40,33ZM14,13C14,13.593 13.824,14.173 13.494,14.667C13.165,15.16 12.696,15.545 12.148,15.772C11.6,15.999 10.997,16.058 10.415,15.942C9.833,15.827 9.298,15.541 8.879,15.121C8.459,14.702 8.173,14.167 8.058,13.585C7.942,13.003 8.001,12.4 8.228,11.852C8.455,11.304 8.84,10.835 9.333,10.506C9.827,10.176 10.407,10 11,10C11.796,10 12.559,10.316 13.121,10.879C13.684,11.441 14,12.204 14,13L14,13ZM14,23C14,23.593 13.824,24.173 13.494,24.667C13.165,25.16 12.696,25.545 12.148,25.772C11.6,25.999 10.997,26.058 10.415,25.942C9.833,25.827 9.298,25.541 8.879,25.121C8.459,24.702 8.173,24.167 8.058,23.585C7.942,23.003 8.001,22.4 8.228,21.852C8.455,21.304 8.84,20.835 9.333,20.506C9.827,20.176 10.407,20 11,20C11.796,20 12.559,20.316 13.121,20.879C13.684,21.441 14,22.204 14,23L14,23ZM24,13C24,13.593 23.824,14.173 23.494,14.667C23.165,15.16 22.696,15.545 22.148,15.772C21.6,15.999 20.997,16.058 20.415,15.942C19.833,15.827 19.298,15.541 18.879,15.121C18.459,14.702 18.173,14.167 18.058,13.585C17.942,13.003 18.001,12.4 18.228,11.852C18.455,11.304 18.84,10.835 19.333,10.506C19.827,10.176 20.407,10 21,10C21.796,10 22.559,10.316 23.121,10.879C23.684,11.441 24,12.204 24,13ZM24,23C24,23.593 23.824,24.173 23.494,24.667C23.165,25.16 22.696,25.545 22.148,25.772C21.6,25.999 20.997,26.058 20.415,25.942C19.833,25.827 19.298,25.541 18.879,25.121C18.459,24.702 18.173,24.167 18.058,23.585C17.942,23.003 18.001,22.4 18.228,21.852C18.455,21.304 18.84,20.835 19.333,20.506C19.827,20.176 20.407,20 21,20C21.796,20 22.559,20.316 23.121,20.879C23.684,21.441 24,22.204 24,23ZM14,33C14,33.593 13.824,34.173 13.494,34.667C13.165,35.16 12.696,35.545 12.148,35.772C11.6,35.999 10.997,36.058 10.415,35.942C9.833,35.827 9.298,35.541 8.879,35.121C8.459,34.702 8.173,34.167 8.058,33.585C7.942,33.003 8.001,32.4 8.228,31.852C8.455,31.304 8.84,30.835 9.333,30.506C9.827,30.176 10.407,30 11,30C11.796,30 12.559,30.316 13.121,30.879C13.684,31.441 14,32.204 14,33L14,33ZM24,33C24,33.593 23.824,34.173 23.494,34.667C23.165,35.16 22.696,35.545 22.148,35.772C21.6,35.999 20.997,36.058 20.415,35.942C19.833,35.827 19.298,35.541 18.879,35.121C18.459,34.702 18.173,34.167 18.058,33.585C17.942,33.003 18.001,32.4 18.228,31.852C18.455,31.304 18.84,30.835 19.333,30.506C19.827,30.176 20.407,30 21,30C21.796,30 22.559,30.316 23.121,30.879C23.684,31.441 24,32.204 24,33Z" fill="#374957"/>
</svg>
