<svg width="48" height="48" viewBox="0 0 48 48" fill="none" xmlns="http://www.w3.org/2000/svg" xmlns:xlink="http://www.w3.org/1999/xlink">
<path d="M39,12L38,12L38,9C37.997,6.614 37.048,4.326 35.361,2.639C33.674,0.952 31.386,0.003 29,0L19,0C16.614,0.003 14.326,0.952 12.639,2.639C10.952,4.326 10.003,6.614 10,9L10,12L9,12C6.614,12.003 4.326,12.952 2.639,14.639C0.952,16.326 0.003,18.614 0,21L0,33C0.003,35.386 0.952,37.674 2.639,39.361C4.326,41.048 6.614,41.997 9,42L10.552,42C11.169,43.75 12.312,45.266 13.824,46.34C15.337,47.414 17.145,47.994 19,48L29,48C30.855,47.994 32.663,47.414 34.176,46.34C35.688,45.266 36.831,43.75 37.448,42L39,42C41.386,41.997 43.674,41.048 45.361,39.361C47.048,37.674 47.997,35.386 48,33L48,21C47.997,18.614 47.048,16.326 45.361,14.639C43.674,12.952 41.386,12.003 39,12L39,12ZM16,9C16,8.204 16.316,7.441 16.879,6.879C17.441,6.316 18.204,6 19,6L29,6C29.796,6 30.559,6.316 31.121,6.879C31.684,7.441 32,8.204 32,9L32,12L16,12L16,9ZM32,39C32,39.796 31.684,40.559 31.121,41.121C30.559,41.684 29.796,42 29,42L19,42C18.204,42 17.441,41.684 16.879,41.121C16.316,40.559 16,39.796 16,39L16,35C16,34.204 16.316,33.441 16.879,32.879C17.441,32.316 18.204,32 19,32L29,32C29.796,32 30.559,32.316 31.121,32.879C31.684,33.441 32,34.204 32,35L32,39ZM42,33C42,33.796 41.684,34.559 41.121,35.121C40.559,35.684 39.796,36 39,36L38,36L38,35C37.997,32.614 37.048,30.326 35.361,28.639C33.674,26.952 31.386,26.003 29,26L19,26C16.614,26.003 14.326,26.952 12.639,28.639C10.952,30.326 10.003,32.614 10,35L10,36L9,36C8.204,36 7.441,35.684 6.879,35.121C6.316,34.559 6,33.796 6,33L6,21C6,20.204 6.316,19.441 6.879,18.879C7.441,18.316 8.204,18 9,18L39,18C39.796,18 40.559,18.316 41.121,18.879C41.684,19.441 42,20.204 42,21L42,33Z" fill="#374957"/>
</svg>
