<svg width="36" height="36" viewBox="0 0 36 36" fill="none" xmlns="http://www.w3.org/2000/svg" xmlns:xlink="http://www.w3.org/1999/xlink">
<path d="M27.001,11.333C27.001,13.174 25.508,14.667 23.667,14.667C21.826,14.667 20.334,13.174 20.334,11.333C20.334,9.493 21.826,8 23.667,8C25.508,8 27.001,9.493 27.001,11.333Z" fill="#EE6611"/>
<path d="M16.905,0.083L17.096,0.083C20.944,0.083 23.959,0.083 26.311,0.4C28.719,0.723 30.619,1.399 32.11,2.89C33.602,4.382 34.277,6.282 34.601,8.69C34.917,11.042 34.917,14.057 34.917,17.905L34.917,18.052C34.917,21.233 34.917,23.837 34.745,25.958C34.571,28.089 34.215,29.869 33.419,31.348C33.068,32 32.636,32.584 32.11,33.11C30.619,34.601 28.719,35.277 26.311,35.6C23.959,35.917 20.944,35.917 17.096,35.917L16.905,35.917C13.058,35.917 10.043,35.917 7.69,35.6C5.282,35.277 3.382,34.601 1.891,33.11C0.569,31.788 -0.114,30.142 -0.477,28.101C-0.834,26.095 -0.899,23.601 -0.913,20.503C-0.916,19.715 -0.916,18.881 -0.916,18.002L-0.916,17.905C-0.916,14.057 -0.916,11.042 -0.6,8.69C-0.276,6.282 0.4,4.382 1.891,2.89C3.382,1.399 5.282,0.723 7.69,0.4C10.043,0.083 13.058,0.083 16.905,0.083ZM8.023,2.877C5.893,3.164 4.608,3.709 3.659,4.658C2.709,5.608 2.164,6.892 1.878,9.023C1.587,11.189 1.584,14.036 1.584,18C1.584,18.484 1.584,18.953 1.585,19.406L3.253,17.946C4.772,16.617 7.061,16.693 8.488,18.12L15.637,25.27C16.783,26.415 18.586,26.571 19.911,25.64L20.408,25.291C22.315,23.95 24.895,24.106 26.628,25.665L31.345,29.911C31.82,28.913 32.102,27.603 32.253,25.755C32.416,23.747 32.417,21.243 32.417,18C32.417,14.036 32.415,11.189 32.123,9.023C31.837,6.892 31.292,5.608 30.343,4.658C29.393,3.709 28.109,3.164 25.978,2.877C23.811,2.586 20.964,2.583 17.001,2.583C13.037,2.583 10.19,2.586 8.023,2.877Z" clip-rule="evenodd" fill-rule="evenodd" fill="#EE6611"/>
</svg>
