<svg width="48" height="48" viewBox="0 0 48 48" fill="none" xmlns="http://www.w3.org/2000/svg" xmlns:xlink="http://www.w3.org/1999/xlink">
<path d="M48,20.183L45.502,8.615C44.971,6.166 43.614,3.974 41.659,2.405C39.704,0.837 37.27,-0.012 34.764,0.001L13.236,0.001C10.73,-0.012 8.296,0.837 6.341,2.405C4.386,3.974 3.029,6.166 2.498,8.615L0.072,19.533L0,22.093C0.009,24.1 0.716,26.041 2,27.583L2,37.001C2.003,39.917 3.163,42.713 5.225,44.776C7.288,46.838 10.084,47.998 13,48.001L35,48.001C37.916,47.998 40.712,46.838 42.775,44.776C44.837,42.713 45.997,39.917 46,37.001L46,27.583C47.284,26.041 47.991,24.1 48,22.093L48,20.183ZM6,20.513L8.354,9.913C8.601,8.803 9.22,7.81 10.108,7.099C10.995,6.388 12.099,6 13.236,6.001L14,6.001L14,9.001C14,9.797 14.316,10.56 14.879,11.122C15.441,11.685 16.204,12.001 17,12.001C17.796,12.001 18.559,11.685 19.121,11.122C19.684,10.56 20,9.797 20,9.001L20,6.001L28,6.001L28,9.001C28,9.797 28.316,10.56 28.879,11.122C29.441,11.685 30.204,12.001 31,12.001L31,12.001C31.796,12.001 32.559,11.685 33.121,11.122C33.684,10.56 34,9.797 34,9.001L34,6.001L34.764,6.001C35.902,6.001 37.006,6.389 37.893,7.101C38.781,7.813 39.399,8.806 39.646,9.917L42,20.513L42,22.093C41.981,22.803 41.685,23.478 41.176,23.974C40.666,24.47 39.984,24.747 39.273,24.747C38.562,24.747 37.88,24.47 37.37,23.974C36.861,23.478 36.565,22.803 36.546,22.093C36.559,21.44 36.442,20.791 36.201,20.184C35.96,19.577 35.601,19.024 35.144,18.557C34.687,18.091 34.141,17.72 33.539,17.467C32.937,17.214 32.29,17.084 31.637,17.084C30.984,17.084 30.337,17.214 29.735,17.467C29.133,17.72 28.587,18.091 28.13,18.557C27.673,19.024 27.314,19.577 27.073,20.184C26.832,20.791 26.715,21.44 26.728,22.093C26.728,22.816 26.441,23.51 25.929,24.022C25.417,24.534 24.724,24.821 24,24.821C23.276,24.821 22.583,24.534 22.071,24.022C21.559,23.51 21.272,22.816 21.272,22.093C21.285,21.44 21.168,20.791 20.927,20.184C20.686,19.577 20.327,19.024 19.87,18.557C19.413,18.091 18.867,17.72 18.265,17.467C17.663,17.214 17.016,17.084 16.363,17.084C15.71,17.084 15.063,17.214 14.461,17.467C13.859,17.72 13.313,18.091 12.856,18.557C12.399,19.024 12.04,19.577 11.799,20.184C11.558,20.791 11.441,21.44 11.454,22.093C11.435,22.803 11.139,23.478 10.63,23.974C10.12,24.47 9.438,24.747 8.727,24.747C8.016,24.747 7.334,24.47 6.824,23.974C6.315,23.478 6.019,22.803 6,22.093L6,20.513ZM35,42.001L13,42.001C11.674,42.001 10.402,41.474 9.464,40.536C8.527,39.599 8,38.327 8,37.001L8,30.745C8.244,30.767 8.478,30.819 8.728,30.819C10.287,30.818 11.818,30.399 13.16,29.607C14.503,28.815 15.609,27.677 16.364,26.313C17.118,27.678 18.224,28.815 19.567,29.608C20.91,30.4 22.441,30.818 24,30.818C25.559,30.818 27.09,30.4 28.433,29.608C29.776,28.815 30.882,27.678 31.636,26.313C32.391,27.677 33.497,28.815 34.84,29.607C36.182,30.399 37.713,30.818 39.272,30.819C39.522,30.819 39.756,30.767 40,30.745L40,37.001C40,37.658 39.871,38.308 39.619,38.914C39.368,39.521 39,40.072 38.536,40.536C38.071,41.001 37.52,41.369 36.913,41.62C36.307,41.872 35.657,42.001 35,42.001Z" fill="#374957"/>
</svg>
