<svg width="48" height="50" viewBox="0 0 48 50" fill="none" xmlns="http://www.w3.org/2000/svg" xmlns:xlink="http://www.w3.org/1999/xlink">
<path d="M40,0.116C37.878,0.116 35.843,0.959 34.343,2.459C32.843,3.96 32,5.994 32,8.116L36,8.116C36,7.055 36.421,6.038 37.172,5.288C37.922,4.538 38.939,4.116 40,4.116L44,4.116L44,30.166C42.279,28.844 40.171,28.124 38,28.116C35.695,28.119 33.462,28.916 31.677,30.373C29.892,31.831 28.664,33.859 28.2,36.116L19.8,36.116C19.336,33.859 18.108,31.831 16.323,30.373C14.538,28.916 12.305,28.119 10,28.116C7.829,28.124 5.721,28.844 4,30.166L4,4.116L8,4.116C9.061,4.116 10.078,4.538 10.828,5.288C11.579,6.038 12,7.055 12,8.116L16,8.116C16,5.994 15.157,3.96 13.657,2.459C12.157,0.959 10.122,0.116 8,0.116L0,0.116L0,38.116C-0.002,40.596 0.917,42.988 2.579,44.829C4.241,46.669 6.528,47.826 8.995,48.076C11.462,48.325 13.934,47.648 15.931,46.178C17.928,44.707 19.307,42.547 19.8,40.116L28.2,40.116C28.693,42.547 30.072,44.707 32.069,46.178C34.066,47.648 36.538,48.325 39.005,48.076C41.472,47.826 43.759,46.669 45.421,44.829C47.083,42.988 48.002,40.596 48,38.116L48,0.116L40,0.116Z" fill="#374957"/>
</svg>
