<svg width="48" height="48" viewBox="0 0 48 48" fill="none" xmlns="http://www.w3.org/2000/svg" xmlns:xlink="http://www.w3.org/1999/xlink">
<path d="M24,0C19.253,0 14.613,1.408 10.666,4.045C6.72,6.682 3.643,10.43 1.827,14.816C0.01,19.201 -0.465,24.027 0.461,28.682C1.387,33.338 3.673,37.614 7.029,40.971C10.386,44.327 14.662,46.613 19.318,47.539C23.973,48.465 28.799,47.99 33.184,46.173C37.57,44.357 41.318,41.28 43.955,37.334C46.592,33.387 48,28.747 48,24C47.993,17.637 45.462,11.536 40.963,7.037C36.464,2.538 30.363,0.007 24,0L24,0ZM30.508,14.664C28.039,11.655 26.509,7.986 26.108,4.114C29.973,4.521 33.634,6.05 36.64,8.514L30.508,14.664ZM27.672,17.5L24,21.172L11.352,8.524C14.416,6.011 18.161,4.469 22.106,4.096C22.525,9.033 24.47,13.718 27.672,17.5L27.672,17.5ZM21.172,24L17.498,27.674C13.718,24.471 9.035,22.525 4.098,22.106C4.47,18.161 6.011,14.416 8.524,11.352L21.172,24ZM14.664,30.508L8.524,36.648C6.06,33.642 4.531,29.981 4.124,26.116C7.992,26.516 11.657,28.043 14.664,30.508L14.664,30.508ZM17.492,33.336C19.961,36.345 21.491,40.014 21.892,43.886C18.026,43.476 14.365,41.943 11.36,39.476L17.492,33.336ZM20.326,30.502L24,26.828L36.648,39.476C33.584,41.99 29.84,43.532 25.894,43.904C25.476,38.967 23.53,34.282 20.326,30.502L20.326,30.502ZM26.828,24L30.5,20.328C34.281,23.529 38.964,25.474 43.9,25.894C43.527,29.839 41.985,33.584 39.472,36.648L26.828,24ZM33.336,17.492L39.476,11.352C41.943,14.357 43.476,18.018 43.886,21.884C40.015,21.485 36.347,19.958 33.336,17.492L33.336,17.492Z" fill="#374957"/>
</svg>
