<svg width="50" height="46" viewBox="0 0 50 46" fill="none" xmlns="http://www.w3.org/2000/svg" xmlns:xlink="http://www.w3.org/1999/xlink">
<path d="M44.838,18C42.645,15.022 39.517,12.865 35.954,11.874C34.992,8.386 32.911,5.31 30.03,3.12C27.142,0.938 23.612,-0.224 19.992,-0.185C16.372,-0.145 12.868,1.094 10.029,3.339C7.189,5.584 5.175,8.708 4.301,12.221C3.427,15.733 3.743,19.437 5.2,22.75C3.17,24.083 1.612,26.021 0.746,28.29C-0.12,30.558 -0.249,33.042 0.376,35.388C1.063,37.9 2.568,40.111 4.653,41.671C6.738,43.231 9.284,44.051 11.888,44L31.16,44C35.078,44.072 38.895,42.754 41.934,40.279C44.973,37.805 47.037,34.334 47.76,30.482C48.145,28.312 48.084,26.087 47.582,23.941C47.079,21.795 46.146,19.774 44.838,18L44.838,18ZM41.838,29.466C41.328,31.908 39.983,34.096 38.034,35.654C36.085,37.211 33.654,38.041 31.16,38L11.888,38C10.624,38.035 9.383,37.655 8.355,36.917C7.328,36.18 6.571,35.125 6.2,33.916C6.005,33.201 5.955,32.454 6.051,31.719C6.147,30.984 6.388,30.276 6.76,29.635C7.132,28.993 7.628,28.433 8.218,27.984C8.809,27.536 9.482,27.21 10.2,27.024C10.676,26.901 11.114,26.663 11.476,26.331C11.838,26 12.113,25.584 12.277,25.121C12.441,24.658 12.489,24.161 12.416,23.675C12.343,23.19 12.152,22.729 11.86,22.334C10.794,20.901 10.117,19.216 9.896,17.443C9.674,15.671 9.916,13.871 10.597,12.219C11.278,10.568 12.375,9.121 13.781,8.019C15.188,6.918 16.855,6.2 18.622,5.934C19.136,5.86 19.655,5.823 20.174,5.822C22.425,5.816 24.616,6.548 26.41,7.906C27.502,8.734 28.42,9.769 29.111,10.952C29.803,12.135 30.254,13.443 30.44,14.8C30.527,15.453 30.826,16.058 31.291,16.524C31.757,16.989 32.362,17.289 33.014,17.376C34.398,17.57 35.729,18.039 36.929,18.755C38.129,19.472 39.173,20.422 40,21.548C40.827,22.674 41.417,23.956 41.734,25.317C42.051,26.678 42.087,28.089 41.842,29.464L41.838,29.466Z" fill="#374957"/>
</svg>
