<svg width="48" height="36" viewBox="0 0 48 36" fill="none" xmlns="http://www.w3.org/2000/svg" xmlns:xlink="http://www.w3.org/1999/xlink">
<path d="M37,0L11,0C8.084,0.003 5.288,1.163 3.225,3.225C1.163,5.288 0.003,8.084 0,11L0,25C0.003,27.916 1.163,30.712 3.225,32.775C5.288,34.837 8.084,35.997 11,36L37,36C39.916,35.997 42.712,34.837 44.775,32.775C46.837,30.712 47.997,27.916 48,25L48,11C47.997,8.084 46.837,5.288 44.775,3.225C42.712,1.163 39.916,0.003 37,0ZM11,6L37,6C38.152,6 39.269,6.398 40.162,7.127C41.054,7.856 41.668,8.871 41.898,10L6.102,10C6.332,8.871 6.946,7.856 7.838,7.127C8.731,6.398 9.848,6 11,6L11,6ZM37,30L11,30C9.674,30 8.402,29.473 7.464,28.536C6.527,27.598 6,26.326 6,25L6,16L42,16L42,25C42,26.326 41.473,27.598 40.536,28.536C39.598,29.473 38.326,30 37,30Z" fill="#374957"/>
</svg>
