<svg width="48" height="48" viewBox="0 0 48 48" fill="none" xmlns="http://www.w3.org/2000/svg" xmlns:xlink="http://www.w3.org/1999/xlink">
<path d="M48,6C48,4.409 47.368,2.883 46.243,1.757C45.117,0.632 43.591,0 42,0L18,0C16.409,0 14.883,0.632 13.757,1.757C12.632,2.883 12,4.409 12,6L12,22L6,22C4.409,22 2.883,22.632 1.757,23.757C0.632,24.883 0,26.409 0,28L0,48L26,48L26,36L48,36L48,6ZM22,44L4,44L4,28C4,27.47 4.211,26.961 4.586,26.586C4.961,26.211 5.47,26 6,26L12,26L12,36L22,36L22,44ZM22,28L22,32L16,32L16,26L20,26C20.53,26 21.039,26.211 21.414,26.586C21.789,26.961 22,27.47 22,28ZM44,32L26,32L26,28C25.997,27.109 25.791,26.23 25.4,25.43L36,14.83L36,22L40,22L40,8L26,8L26,12L33.172,12L22.572,22.6C21.771,22.208 20.892,22.003 20,22L16,22L16,6C16,5.47 16.211,4.961 16.586,4.586C16.961,4.211 17.47,4 18,4L42,4C42.53,4 43.039,4.211 43.414,4.586C43.789,4.961 44,5.47 44,6L44,32Z" fill="#374957"/>
</svg>
