<svg width="48" height="48" viewBox="0 0 48 48" fill="none" xmlns="http://www.w3.org/2000/svg" xmlns:xlink="http://www.w3.org/1999/xlink">
<path d="M41.013,0L33.026,0C31.372,0 30.031,1.341 30.031,2.995C30.031,4.649 31.372,5.99 33.026,5.99L37.776,5.99L26.737,17.029C19.028,11.659 8.425,13.555 3.055,21.264C-2.315,28.973 -0.419,39.576 7.29,44.946C14.999,50.316 25.602,48.42 30.972,40.711C35.042,34.868 35.042,27.107 30.972,21.264L42.011,10.225L42.011,14.975C42.011,16.629 43.352,17.97 45.006,17.97C46.66,17.97 48.001,16.629 48.001,14.975L48.001,6.988C48.001,3.129 44.872,0 41.013,0ZM17.053,41.929C10.989,41.929 6.072,37.012 6.072,30.947C6.072,24.883 10.989,19.966 17.053,19.966C23.118,19.966 28.035,24.883 28.035,30.947C28.028,37.01 23.116,41.922 17.053,41.929Z" fill="#374957"/>
</svg>
