<svg width="48" height="40" viewBox="0 0 48 40" fill="none" xmlns="http://www.w3.org/2000/svg" xmlns:xlink="http://www.w3.org/1999/xlink">
<path d="M42,39.414L6,39.414C4.409,39.414 2.883,38.782 1.757,37.657C0.632,36.531 0,35.005 0,33.414L0,0.586L12,12.586L24,0.586L36,12.586L48,0.586L48,33.414C48,35.005 47.368,36.531 46.243,37.657C45.117,38.782 43.591,39.414 42,39.414ZM4,10.242L4,33.414C4,33.944 4.211,34.453 4.586,34.828C4.961,35.203 5.47,35.414 6,35.414L42,35.414C42.53,35.414 43.039,35.203 43.414,34.828C43.789,34.453 44,33.944 44,33.414L44,10.242L36,18.242L24,6.242L12,18.242L4,10.242Z" fill="#374957"/>
</svg>
