<svg width="48" height="48" viewBox="0 0 48 48" fill="none" xmlns="http://www.w3.org/2000/svg" xmlns:xlink="http://www.w3.org/1999/xlink">
<path d="M24,20C22.813,20 21.653,19.648 20.667,18.989C19.68,18.33 18.911,17.392 18.457,16.296C18.003,15.2 17.884,13.993 18.115,12.829C18.347,11.666 18.918,10.596 19.757,9.757C20.596,8.918 21.666,8.347 22.829,8.115C23.993,7.884 25.2,8.003 26.296,8.457C27.392,8.911 28.33,9.68 28.989,10.667C29.648,11.653 30,12.813 30,14C30,15.591 29.368,17.117 28.243,18.243C27.117,19.368 25.591,20 24,20L24,20ZM34,28C34,26.409 33.368,24.883 32.243,23.757C31.117,22.632 29.591,22 28,22L20,22C18.409,22 16.883,22.632 15.757,23.757C14.632,24.883 14,26.409 14,28L14,32L18,32L18,28C18,27.47 18.211,26.961 18.586,26.586C18.961,26.211 19.47,26 20,26L28,26C28.53,26 29.039,26.211 29.414,26.586C29.789,26.961 30,27.47 30,28L30,32L34,32L34,28ZM24.018,47.33C23.031,47.331 22.079,46.968 21.342,46.312L13.846,40L0,40L0,6C0,4.409 0.632,2.883 1.757,1.757C2.883,0.632 4.409,0 6,0L42,0C43.591,0 45.117,0.632 46.243,1.757C47.368,2.883 48,4.409 48,6L48,40L34.294,40L26.6,46.36C25.887,46.989 24.968,47.334 24.018,47.33L24.018,47.33ZM4,36L15.308,36L23.958,43.29L32.858,36L44,36L44,6C44,5.47 43.789,4.961 43.414,4.586C43.039,4.211 42.53,4 42,4L6,4C5.47,4 4.961,4.211 4.586,4.586C4.211,4.961 4,5.47 4,6L4,36Z" fill="#374957"/>
</svg>
