<svg width="48" height="48" viewBox="0 0 48 48" fill="none" xmlns="http://www.w3.org/2000/svg" xmlns:xlink="http://www.w3.org/1999/xlink">
<path d="M34.063,24L20.415,48L12.355,48L29.887,16.478L34.063,24ZM36.337,28.092L25.017,48L33.401,48L40.497,35.582L36.337,28.092ZM42.771,39.674L38.013,48L47.401,48L42.771,39.674ZM25.085,7.832C26.015,7.57 26.818,6.98 27.347,6.172C27.876,5.364 28.095,4.391 27.963,3.434C27.831,2.477 27.357,1.6 26.628,0.966C25.9,0.331 24.967,-0.019 24.001,-0.019C23.035,-0.019 22.101,0.331 21.373,0.966C20.644,1.6 20.17,2.477 20.038,3.434C19.906,4.391 20.125,5.364 20.654,6.172C21.183,6.98 21.987,7.57 22.917,7.832L0.601,48L7.779,48L27.601,12.36L25.085,7.832Z" fill="#374957"/>
</svg>
