<svg width="48" height="44" viewBox="0 0 48 44" fill="none" xmlns="http://www.w3.org/2000/svg" xmlns:xlink="http://www.w3.org/1999/xlink">
<path d="M47.642,20.362C45.709,16.171 42.879,12.457 39.352,9.482L45.416,3.418L42.586,0.586L36,7.166C32.354,5.057 28.211,3.964 24,4C9,4 2.114,16.522 0.358,20.362C0.122,20.877 0,21.436 0,22.002C0,22.568 0.122,23.127 0.358,23.642C2.29,27.833 5.12,31.547 8.648,34.522L2.586,40.586L5.414,43.414L12,36.834C15.645,38.943 19.789,40.036 24,40C39,40 45.886,27.478 47.642,23.638C47.877,23.124 47.999,22.565 47.999,22C47.999,21.435 47.877,20.876 47.642,20.362L47.642,20.362ZM4,22.022C5.5,18.732 11.386,8 24,8C27.139,7.982 30.237,8.714 33.036,10.136L29.506,13.666C27.586,12.391 25.284,11.82 22.99,12.049C20.697,12.279 18.553,13.294 16.924,14.924C15.294,16.554 14.278,18.697 14.049,20.99C13.82,23.284 14.391,25.586 15.666,27.506L11.508,31.664C8.308,29.059 5.741,25.762 4,22.022L4,22.022ZM30,22C30,23.591 29.368,25.117 28.242,26.243C27.117,27.368 25.591,28 24,28C23.109,27.997 22.23,27.791 21.43,27.4L29.4,19.43C29.791,20.23 29.996,21.109 30,22L30,22ZM18,22C18,20.409 18.632,18.883 19.757,17.757C20.882,16.632 22.408,16 24,16C24.891,16.003 25.769,16.209 26.57,16.6L18.6,24.57C18.208,23.77 18.003,22.891 18,22ZM24,36C20.861,36.018 17.762,35.286 14.964,33.864L18.494,30.334C20.414,31.609 22.716,32.18 25.009,31.951C27.303,31.721 29.446,30.706 31.076,29.076C32.705,27.446 33.721,25.303 33.95,23.01C34.18,20.716 33.609,18.414 32.334,16.494L36.49,12.338C39.695,14.946 42.264,18.25 44,22C42.472,25.314 36.584,36 24,36Z" fill="#374957"/>
</svg>
