<svg width="40" height="40" viewBox="0 0 40 40" fill="none" xmlns="http://www.w3.org/2000/svg" xmlns:xlink="http://www.w3.org/1999/xlink">
<path d="M37.82,12.411L23.5,1.208C22.502,0.424 21.269,-0.002 20,-0.002C18.731,-0.002 17.498,0.424 16.5,1.208L2.18,12.411C1.499,12.941 0.949,13.62 0.571,14.396C0.193,15.172 -0.002,16.024 0,16.886L0,40L40,40L40,16.886C40.002,16.024 39.807,15.172 39.429,14.396C39.052,13.62 38.501,12.941 37.82,12.411L37.82,12.411ZM35,35L5,35L5,16.886C5,16.783 5.024,16.681 5.069,16.588C5.115,16.495 5.18,16.414 5.262,16.35L19.58,5.145C19.699,5.052 19.846,5.002 19.997,5.002C20.148,5.002 20.294,5.052 20.413,5.145L34.738,16.35C34.82,16.414 34.885,16.495 34.931,16.588C34.976,16.681 35,16.783 35,16.886L35,35ZM20,13.333C18.35,13.333 16.737,13.824 15.365,14.742C13.994,15.66 12.926,16.965 12.297,18.491C11.668,20.016 11.507,21.695 11.833,23.313C12.159,24.93 12.958,26.415 14.128,27.578L20,33.323L25.892,27.56C27.057,26.394 27.851,24.91 28.173,23.293C28.495,21.676 28.33,20.001 27.699,18.478C27.068,16.955 26,15.654 24.63,14.738C23.26,13.822 21.648,13.333 20,13.333L20,13.333ZM20,25C19.341,25 18.696,24.804 18.148,24.438C17.6,24.072 17.173,23.551 16.92,22.942C16.668,22.333 16.602,21.663 16.731,21.016C16.859,20.37 17.177,19.776 17.643,19.309C18.109,18.843 18.703,18.526 19.35,18.397C19.996,18.269 20.667,18.335 21.276,18.587C21.885,18.839 22.405,19.266 22.772,19.815C23.138,20.363 23.333,21.007 23.333,21.666C23.333,22.55 22.982,23.398 22.357,24.023C21.732,24.649 20.884,25 20,25Z" fill="#EE6611"/>
</svg>
