<svg width="48" height="44" viewBox="0 0 48 44" fill="none" xmlns="http://www.w3.org/2000/svg" xmlns:xlink="http://www.w3.org/1999/xlink">
<path d="M48,13.999L48,37.999L44,37.999L44,16.579L28.24,26.743C26.978,27.563 25.505,27.999 24,27.999C22.495,27.999 21.022,27.563 19.76,26.743L0,13.999L19.76,1.253C21.023,0.435 22.495,0 24,0C25.505,0 26.977,0.435 28.24,1.253L48,13.999ZM24,31.999C21.729,31.997 19.506,31.34 17.6,30.105L8,23.919L8,38.827L8.586,39.413C8.774,39.599 13.294,43.999 24,43.999C34.706,43.999 39.226,39.599 39.414,39.413L40,38.827L40,23.919L30.4,30.105C28.494,31.34 26.271,31.997 24,31.999Z" fill="#374957"/>
</svg>
