<svg width="48" height="50" viewBox="0 0 48 50" fill="none" xmlns="http://www.w3.org/2000/svg" xmlns:xlink="http://www.w3.org/1999/xlink">
<path d="M43.441,42.001L39.441,30.001L25.999,30.001C25.468,30.001 24.96,29.79 24.585,29.415C24.21,29.04 23.999,28.532 23.999,28.001L23.999,26.001L37.999,26.001L37.999,22.001L23.999,22.001L23.999,15.717C25.884,15.23 27.527,14.073 28.62,12.461C29.713,10.85 30.181,8.895 29.935,6.963C29.69,5.032 28.748,3.256 27.287,1.969C25.826,0.681 23.946,-0.029 21.999,-0.029C20.052,-0.029 18.171,0.681 16.71,1.969C15.249,3.256 14.308,5.032 14.063,6.963C13.817,8.895 14.285,10.85 15.378,12.461C16.47,14.073 18.114,15.23 19.999,15.717L19.999,28.001C19.999,29.592 20.631,31.119 21.756,32.244C22.881,33.369 24.408,34.001 25.999,34.001L27.819,34.001C27.438,36.258 26.419,38.358 24.883,40.054C23.347,41.751 21.359,42.973 19.151,43.576C16.944,44.18 14.61,44.14 12.425,43.46C10.239,42.781 8.294,41.491 6.818,39.742C5.341,37.994 4.396,35.86 4.093,33.592C3.789,31.323 4.141,29.016 5.106,26.941C6.071,24.866 7.609,23.11 9.539,21.88C11.469,20.651 13.71,19.999 15.999,20.001L15.999,16.001C12.919,15.999 9.904,16.885 7.316,18.554C4.728,20.223 2.676,22.603 1.407,25.41C0.138,28.216 -0.293,31.329 0.163,34.374C0.62,37.42 1.946,40.269 3.982,42.579C6.018,44.89 8.678,46.564 11.642,47.4C14.606,48.236 17.748,48.199 20.692,47.294C23.635,46.388 26.255,44.652 28.236,42.294C30.217,39.936 31.476,37.057 31.861,34.001L36.557,34.001L40.557,46.001L47.999,46.001L47.999,42.001L43.441,42.001ZM17.999,8.001C17.999,7.21 18.233,6.437 18.673,5.779C19.112,5.121 19.737,4.608 20.468,4.306C21.199,4.003 22.003,3.924 22.779,4.078C23.555,4.232 24.268,4.613 24.827,5.173C25.387,5.732 25.768,6.445 25.922,7.221C26.076,7.997 25.997,8.801 25.694,9.532C25.392,10.263 24.879,10.888 24.221,11.327C23.563,11.767 22.79,12.001 21.999,12.001C20.938,12.001 19.921,11.58 19.17,10.83C18.42,10.079 17.999,9.062 17.999,8.001Z" fill="#374957"/>
</svg>
