<svg width="26" height="30" viewBox="0 0 26 30" fill="none" xmlns="http://www.w3.org/2000/svg" xmlns:xlink="http://www.w3.org/1999/xlink">
<path d="M21.798,7.832C18.967,6.446 15.881,5.656 12.733,5.51C9.825,5.51 8.36,6.539 8.36,8.096C8.36,9.654 10.411,10.146 12.997,10.532L15.519,10.911C21.677,11.854 25.113,14.611 25.113,19.426C25.113,25.291 20.298,29.078 12.054,29.078C8.182,29.078 3.103,28.363 -0.591,25.734L2.431,19.919C5.291,21.83 8.673,22.809 12.111,22.72C15.683,22.72 17.369,21.719 17.369,20.048C17.369,18.669 15.94,17.905 12.64,17.433L10.325,17.112C3.753,16.204 0.495,13.325 0.495,8.482C0.495,2.645 5.01,-0.805 12.497,-0.805C16.617,-0.88 20.694,0.046 24.377,1.895L21.798,7.832Z" fill="#374957"/>
</svg>
