<svg width="34" height="48" viewBox="0 0 34 48" fill="none" xmlns="http://www.w3.org/2000/svg" xmlns:xlink="http://www.w3.org/1999/xlink">
<path d="M29,19C29.796,19 30.559,18.684 31.122,18.121C31.684,17.559 32,16.796 32,16L32,14.626C31.997,11.809 30.876,9.108 28.884,7.116C26.892,5.124 24.191,4.004 21.374,4L19,4L19,3C19,2.204 18.684,1.441 18.122,0.879C17.559,0.316 16.796,0 16,0C15.205,0 14.442,0.316 13.879,0.879C13.316,1.441 13,2.204 13,3L13,4L10.626,4C8.075,3.996 5.608,4.91 3.675,6.575C1.742,8.24 0.473,10.545 0.099,13.069C-0.275,15.592 0.272,18.166 1.639,20.32C3.006,22.474 5.102,24.064 7.544,24.8L13,26.292L13,38L10.626,38C9.4,37.998 8.224,37.511 7.357,36.643C6.49,35.776 6.002,34.6 6,33.374L6,32C6,31.204 5.684,30.441 5.122,29.879C4.559,29.316 3.796,29 3,29C2.205,29 1.442,29.316 0.879,29.879C0.316,30.441 0,31.204 0,32L0,33.374C0.004,36.191 1.125,38.892 3.117,40.884C5.109,42.876 7.809,43.996 10.626,44L13,44L13,45C13,45.796 13.316,46.559 13.879,47.121C14.442,47.684 15.205,48 16,48C16.796,48 17.559,47.684 18.122,47.121C18.684,46.559 19,45.796 19,45L19,44L21.374,44C23.925,44.004 26.393,43.09 28.325,41.425C30.258,39.76 31.527,37.455 31.901,34.931C32.275,32.408 31.729,29.834 30.362,27.68C28.995,25.526 26.899,23.936 24.456,23.2L19,21.712L19,10L21.374,10C22.601,10.002 23.776,10.489 24.644,11.357C25.511,12.224 25.999,13.4 26,14.626L26,16C26,16.796 26.316,17.559 26.879,18.121C27.442,18.684 28.205,19 29,19ZM22.764,28.958C23.819,29.29 24.72,29.99 25.304,30.93C25.888,31.869 26.116,32.987 25.947,34.08C25.777,35.173 25.222,36.17 24.382,36.889C23.541,37.608 22.471,38.002 21.364,38L19,38L19,27.93L22.764,28.958ZM13,20.07L9.236,19.042C8.182,18.71 7.281,18.011 6.698,17.073C6.114,16.134 5.885,15.017 6.053,13.925C6.221,12.832 6.774,11.836 7.613,11.116C8.452,10.396 9.521,10 10.626,10L13,10L13,20.07Z" fill="#374957"/>
</svg>
