<svg width="48" height="48" viewBox="0 0 48 48" fill="none" xmlns="http://www.w3.org/2000/svg" xmlns:xlink="http://www.w3.org/1999/xlink">
<path d="M48,0L48,16.03C37.622,16.58 26.274,22.572 26,37.986L26,40L22,40L22,38L22,37.986C22,24.052 12.068,18.824 6.28,16.96C4.247,16.324 2.13,16.001 0,16L0,0L2,0C4.417,-0.038 6.787,0.667 8.79,2.02C10.793,3.373 12.333,5.308 13.2,7.564C16.721,6.594 20.349,6.069 24,6C27.651,6.068 31.279,6.594 34.8,7.564C35.667,5.308 37.207,3.373 39.21,2.02C41.213,0.667 43.583,-0.038 46,0L48,0ZM42.982,20.704C41.962,21.018 40.965,21.405 40,21.86C39.653,23.538 38.751,25.051 37.44,26.155C36.129,27.258 34.485,27.888 32.772,27.944C30.866,30.94 29.901,34.437 30,37.986L30,40C30,41.061 29.579,42.078 28.828,42.828C28.078,43.579 27.061,44 26,44L22,44C20.939,44 19.922,43.579 19.172,42.828C18.421,42.078 18,41.061 18,40L18,35.986C18.13,33.051 17.139,30.176 15.228,27.944C13.515,27.888 11.871,27.258 10.56,26.155C9.249,25.051 8.347,23.538 8,21.86C5.514,20.626 2.776,19.985 0,19.988L0,23.858C0,27.04 1.264,30.092 3.514,32.342L17.414,46.242C17.971,46.799 18.633,47.242 19.361,47.543C20.089,47.845 20.87,48 21.658,48L26.344,48C27.934,48 29.459,47.368 30.584,46.244L44.484,32.344C45.599,31.23 46.483,29.906 47.086,28.45C47.69,26.993 48,25.432 48,23.856L48,19.988C46.301,19.977 44.61,20.218 42.982,20.704L42.982,20.704Z" fill="#374957"/>
</svg>
