<svg width="48" height="48" viewBox="0 0 48 48" fill="none" xmlns="http://www.w3.org/2000/svg" xmlns:xlink="http://www.w3.org/1999/xlink">
<path d="M44.654,36.844C46.11,38.912 48,41.302 48,43C48,44.326 47.473,45.598 46.535,46.536C45.597,47.473 44.326,48 43,48C41.674,48 40.402,47.473 39.464,46.536C38.526,45.598 38,44.326 38,43C38,41.45 39.922,38.984 41.384,36.862C41.567,36.599 41.811,36.384 42.094,36.235C42.378,36.086 42.693,36.007 43.014,36.005C43.335,36.003 43.651,36.079 43.936,36.225C44.222,36.371 44.468,36.583 44.654,36.844ZM42.904,29.138L27.264,44.778C25.199,46.837 22.402,47.993 19.486,47.993C16.57,47.993 13.773,46.837 11.708,44.778L3.222,36.292C1.159,34.229 0,31.431 0,28.514C0,25.597 1.159,22.799 3.222,20.736L10.858,13.1L4.878,7.122C4.315,6.559 3.999,5.796 3.999,5C3.999,4.204 4.315,3.441 4.878,2.878C5.44,2.315 6.204,1.999 7,1.999C7.796,1.999 8.559,2.315 9.122,2.878L15.1,8.858L18.862,5.096C18.34,4.524 18.06,3.772 18.079,2.998C18.099,2.224 18.417,1.488 18.968,0.943C19.518,0.398 20.257,0.087 21.032,0.075C21.806,0.063 22.555,0.351 23.122,0.878L47.122,24.878C47.649,25.445 47.937,26.194 47.925,26.968C47.913,27.742 47.602,28.482 47.057,29.032C46.512,29.582 45.776,29.901 45.002,29.92C44.227,29.94 43.476,29.66 42.904,29.138L42.904,29.138ZM38.658,24.9L23.1,9.342L19.342,13.1L27.122,20.878C27.684,21.441 28.001,22.204 28.001,23C28.001,23.796 27.684,24.559 27.122,25.122C26.559,25.685 25.796,26.001 25,26.001C24.204,26.001 23.44,25.685 22.878,25.122L15.1,17.342L7.464,24.978C6.999,25.442 6.631,25.994 6.379,26.6C6.128,27.207 5.999,27.857 5.999,28.514C5.999,29.171 6.128,29.821 6.379,30.428C6.631,31.035 6.999,31.586 7.464,32.05L15.95,40.536C16.414,41.001 16.965,41.369 17.572,41.62C18.179,41.872 18.829,42.001 19.486,42.001C20.142,42.001 20.793,41.872 21.399,41.62C22.006,41.369 22.557,41.001 23.022,40.536L38.658,24.9Z" fill="#374957"/>
</svg>
