<svg width="48" height="50" viewBox="0 0 48 50" fill="none" xmlns="http://www.w3.org/2000/svg" xmlns:xlink="http://www.w3.org/1999/xlink">
<path d="M37,48L26.068,48C22.322,48.066 18.603,47.351 15.148,45.901C11.693,44.451 8.578,42.298 6,39.578C3.819,37.194 2.167,34.376 1.151,31.308C0.135,28.241 -0.221,24.993 0.106,21.778C0.602,16.548 2.798,11.623 6.357,7.758C9.917,3.893 14.644,1.301 19.816,0.376C23.214,-0.254 26.709,-0.12 30.049,0.769C33.389,1.658 36.489,3.279 39.124,5.514C41.914,7.859 44.155,10.789 45.688,14.095C47.222,17.401 48.011,21.004 48,24.648L48,37C47.996,39.917 46.836,42.712 44.774,44.774C42.712,46.836 39.916,47.997 37,48L37,48ZM24.06,6C19.569,5.996 15.238,7.668 11.914,10.687C8.589,13.707 6.511,17.858 6.084,22.328C5.839,24.713 6.101,27.123 6.853,29.399C7.604,31.676 8.828,33.768 10.444,35.538C12.458,37.639 14.887,39.299 17.577,40.411C20.267,41.524 23.158,42.065 26.068,42L37,42C38.326,42 39.598,41.473 40.535,40.536C41.473,39.598 42,38.326 42,37L42,24.648C42.009,21.88 41.411,19.143 40.248,16.631C39.085,14.119 37.385,11.892 35.268,10.108C32.139,7.451 28.165,5.994 24.06,6ZM24,12C23.204,12 22.441,12.316 21.879,12.879C21.316,13.442 21,14.205 21,15C21,15.796 21.316,16.559 21.879,17.122C22.441,17.684 23.204,18 24,18C24.796,18 25.559,17.684 26.121,17.122C26.684,16.559 27,15.796 27,15C27,14.205 26.684,13.442 26.121,12.879C25.559,12.316 24.796,12 24,12ZM25,38C24.204,38 23.441,37.684 22.879,37.122C22.316,36.559 22,35.796 22,35L22,26L21,26C20.204,26 19.441,25.684 18.879,25.122C18.316,24.559 18,23.796 18,23C18,22.205 18.316,21.442 18.879,20.879C19.441,20.316 20.204,20 21,20L23,20C24.326,20 25.598,20.527 26.535,21.465C27.473,22.402 28,23.674 28,25L28,35C28,35.796 27.684,36.559 27.121,37.122C26.559,37.684 25.796,38 25,38L25,38Z" fill="#374957"/>
</svg>
