<svg width="48" height="48" viewBox="0 0 48 48" fill="none" xmlns="http://www.w3.org/2000/svg" xmlns:xlink="http://www.w3.org/1999/xlink">
<path d="M24,0C19.253,0 14.613,1.408 10.666,4.045C6.72,6.682 3.643,10.43 1.827,14.816C0.01,19.201 -0.465,24.027 0.461,28.682C1.387,33.338 3.673,37.614 7.029,40.971C10.386,44.327 14.662,46.613 19.318,47.539C23.973,48.465 28.799,47.99 33.184,46.173C37.57,44.357 41.318,41.28 43.955,37.334C46.592,33.387 48,28.747 48,24C48,17.635 45.471,11.53 40.971,7.029C36.47,2.529 30.365,0 24,0L24,0ZM43.898,22L26,22L26,4.102C30.588,4.569 34.874,6.605 38.134,9.866C41.395,13.126 43.431,17.412 43.898,22L43.898,22ZM4,24C4.006,19.044 5.85,14.266 9.175,10.591C12.5,6.915 17.069,4.603 22,4.102L22,24.828L36.648,39.476C33.72,41.875 30.17,43.393 26.413,43.853C22.655,44.313 18.845,43.696 15.424,42.075C12.003,40.453 9.114,37.894 7.091,34.694C5.069,31.494 3.997,27.785 4,24L4,24ZM39.476,36.648L28.828,26L43.898,26C43.508,29.908 41.969,33.613 39.476,36.648Z" fill="#374957"/>
</svg>
