<svg width="48" height="48" viewBox="0 0 48 48" fill="none" xmlns="http://www.w3.org/2000/svg" xmlns:xlink="http://www.w3.org/1999/xlink">
<path d="M25.899,0.103L25.899,8.129C23.645,7.842 21.357,8.038 19.185,8.705C17.013,9.371 15.008,10.493 13.303,11.994C11.599,13.496 10.233,15.343 9.298,17.413C8.363,19.484 7.879,21.729 7.879,24.001C7.879,26.272 8.363,28.518 9.298,30.588C10.233,32.659 11.599,34.506 13.303,36.007C15.008,37.509 17.013,38.63 19.185,39.297C21.357,39.963 23.645,40.16 25.899,39.873L25.899,47.899C31.9,47.407 37.496,44.676 41.576,40.249C45.657,35.821 47.922,30.02 47.922,23.999C47.922,17.978 45.657,12.177 41.576,7.749C37.496,3.321 31.9,0.59 25.899,0.099L25.899,0.103ZM25.899,27.447L25.899,34.001L21.899,34.001L21.899,27.447C21.291,27.1 20.786,26.598 20.435,25.993C20.083,25.388 19.898,24.701 19.898,24.001C19.898,23.301 20.083,22.614 20.435,22.008C20.786,21.403 21.291,20.902 21.899,20.555L21.899,12.001L25.899,12.001L25.899,20.555C26.507,20.902 27.012,21.403 27.363,22.008C27.714,22.614 27.9,23.301 27.9,24.001C27.9,24.701 27.714,25.388 27.363,25.993C27.012,26.598 26.507,27.1 25.899,27.447L25.899,27.447ZM2.719,12.721C3.469,11.313 4.357,9.982 5.369,8.749L8.401,11.363C7.596,12.349 6.886,13.409 6.281,14.529L2.719,12.721ZM4.737,18.293C4.363,19.561 4.117,20.864 4.001,22.181L0.021,21.781C0.163,20.196 0.463,18.63 0.917,17.105L4.737,18.293ZM14.575,6.315C13.409,6.929 12.306,7.658 11.283,8.489L8.801,5.363C10.01,4.38 11.312,3.517 12.689,2.787L14.575,6.315ZM22.089,4.093C20.781,4.21 19.488,4.457 18.229,4.829L17.095,1.001C18.605,0.552 20.157,0.253 21.727,0.111L22.089,4.093ZM6.289,33.473C6.892,34.592 7.599,35.652 8.401,36.639L5.369,39.253C4.357,38.019 3.469,36.689 2.719,35.281L6.289,33.473ZM0.917,30.897C0.459,29.369 0.155,27.799 0.011,26.211L4.001,25.821C4.12,27.138 4.37,28.441 4.747,29.709L0.917,30.897ZM12.689,45.215C11.312,44.484 10.01,43.622 8.801,42.639L11.291,39.513C12.314,40.344 13.417,41.072 14.583,41.687L12.689,45.215ZM21.727,47.891C20.157,47.748 18.605,47.45 17.095,47.001L18.229,43.167C19.488,43.539 20.781,43.786 22.089,43.903L21.727,47.891Z" fill="#374957"/>
</svg>
