<svg width="48" height="48" viewBox="0 0 48 48" fill="none" xmlns="http://www.w3.org/2000/svg" xmlns:xlink="http://www.w3.org/1999/xlink">
<path d="M46,0C43.583,-0.038 41.213,0.667 39.21,2.02C37.207,3.373 35.667,5.308 34.8,7.564C31.279,6.594 27.651,6.068 24,6C20.349,6.069 16.721,6.594 13.2,7.564C12.333,5.308 10.793,3.373 8.79,2.02C6.787,0.667 4.417,-0.038 2,0L0,0L0,23.858C-0.004,25.434 0.304,26.996 0.907,28.452C1.51,29.908 2.396,31.231 3.514,32.342L17.414,46.242C17.97,46.801 18.631,47.245 19.36,47.547C20.088,47.848 20.869,48.003 21.658,48L26.344,48C27.132,48.002 27.913,47.848 28.641,47.546C29.369,47.245 30.03,46.801 30.586,46.242L44.484,32.344C45.602,31.233 46.489,29.91 47.093,28.453C47.696,26.997 48.005,25.435 48,23.858L48,0L46,0ZM18,41.172L6.342,29.514C5.597,28.773 5.007,27.891 4.605,26.921C4.203,25.95 3.997,24.909 4,23.858L4,20.43C5.376,20.785 6.715,21.269 8,21.874C8.342,23.56 9.244,25.08 10.56,26.188C11.876,27.296 13.529,27.925 15.248,27.974C17.141,30.969 18.099,34.459 18,38L18,41.172ZM44,23.858C44.003,24.909 43.798,25.95 43.395,26.921C42.993,27.892 42.402,28.773 41.656,29.514L30,41.172L30,38C29.901,34.459 30.859,30.969 32.752,27.974C34.472,27.925 36.124,27.296 37.44,26.188C38.756,25.08 39.658,23.56 40,21.874C41.285,21.269 42.625,20.785 44,20.43L44,23.858ZM44,16.346C39.138,17.464 26,21.976 26,38L26,40L22,40L22,38C22,21.974 8.862,17.464 4,16.346L4,4.218C5.501,4.638 6.86,5.456 7.934,6.585C9.008,7.714 9.757,9.112 10.102,10.632L10.736,12.528L12.63,11.898C16.314,10.744 20.141,10.105 24,10C27.859,10.105 31.686,10.744 35.37,11.898L37.266,12.528L37.896,10.632C38.242,9.112 38.992,7.714 40.066,6.585C41.14,5.457 42.499,4.639 44,4.218L44,16.346Z" fill="#374957"/>
</svg>
