<svg width="48" height="48" viewBox="0 0 48 48" fill="none" xmlns="http://www.w3.org/2000/svg" xmlns:xlink="http://www.w3.org/1999/xlink">
<path d="M40.971,7.032C37.615,3.679 33.341,1.397 28.688,0.473C24.035,-0.451 19.213,0.026 14.831,1.842C10.449,3.658 6.704,6.733 4.069,10.677C1.435,14.621 0.028,19.258 0.028,24.002C0.028,28.745 1.435,33.382 4.069,37.326C6.704,41.271 10.449,44.345 14.831,46.161C19.213,47.978 24.035,48.454 28.688,47.53C33.341,46.607 37.615,44.324 40.971,40.972C45.465,36.467 47.989,30.364 47.989,24.002C47.989,17.639 45.465,11.536 40.971,7.032L40.971,7.032ZM43.869,21.866C41.47,22.157 39.037,21.898 36.753,21.11C34.47,20.322 32.395,19.024 30.687,17.316C28.979,15.607 27.682,13.533 26.894,11.249C26.106,8.965 25.847,6.532 26.139,4.134C30.678,4.611 34.916,6.633 38.143,9.86C41.371,13.088 43.392,17.326 43.869,21.866L43.869,21.866ZM4.132,26.138C6.531,25.847 8.964,26.105 11.248,26.893C13.531,27.682 15.606,28.979 17.314,30.688C19.022,32.396 20.32,34.471 21.108,36.754C21.896,39.038 22.154,41.471 21.863,43.87C17.323,43.392 13.085,41.371 9.858,38.143C6.63,34.915 4.609,30.677 4.132,26.138L4.132,26.138ZM38.143,38.138C34.857,41.431 30.521,43.468 25.889,43.896C26.176,40.962 25.809,38.002 24.814,35.227C23.82,32.452 22.223,29.932 20.139,27.849C18.054,25.765 15.533,24.17 12.758,23.177C9.983,22.184 7.022,21.819 4.088,22.108C4.524,17.476 6.563,13.142 9.854,9.855C13.145,6.567 17.481,4.532 22.113,4.102C21.844,6.875 22.158,9.673 23.035,12.318C23.912,14.962 25.333,17.394 27.206,19.457C29.079,21.519 31.363,23.167 33.911,24.294C36.459,25.421 39.214,26.003 42.001,26.002C42.635,26.002 43.271,25.97 43.907,25.91C43.472,30.535 41.433,34.863 38.143,38.144L38.143,38.138Z" fill="#374957"/>
</svg>
