<svg width="44" height="44" viewBox="0 0 44 44" fill="none" xmlns="http://www.w3.org/2000/svg" xmlns:xlink="http://www.w3.org/1999/xlink">
<path d="M22.001,43.94C16.182,43.94 10.601,41.628 6.487,37.514C2.372,33.399 0.061,27.819 0.061,22C0.061,16.181 2.372,10.601 6.487,6.486C10.601,2.372 16.182,0.06 22.001,0.06L24.001,0.06L24.027,2.06L24.001,20L43.941,20L43.941,22C43.934,27.817 41.621,33.394 37.508,37.507C33.394,41.62 27.818,43.934 22.001,43.94L22.001,43.94ZM20.025,4.17C16.666,4.543 13.482,5.856 10.837,7.958C8.193,10.061 6.196,12.868 5.076,16.056C3.956,19.243 3.76,22.683 4.509,25.977C5.257,29.272 6.922,32.288 9.309,34.678C11.697,37.069 14.711,38.737 18.005,39.49C21.298,40.242 24.738,40.05 27.927,38.934C31.116,37.818 33.925,35.825 36.031,33.183C38.137,30.541 39.454,27.358 39.831,24L20.001,24L20.025,4.17Z" fill="#374957"/>
</svg>
