<svg width="48" height="48" viewBox="0 0 48 48" fill="none" xmlns="http://www.w3.org/2000/svg" xmlns:xlink="http://www.w3.org/1999/xlink">
<path d="M16,26L0,26L0,22L16,22L16,26ZM41.83,22.212C42.823,20.962 43.502,19.492 43.811,17.926C44.12,16.359 44.049,14.741 43.605,13.208C43.16,11.674 42.355,10.27 41.256,9.111C40.158,7.952 38.798,7.074 37.29,6.548C35.782,6.023 34.171,5.867 32.59,6.092C31.009,6.317 29.506,6.917 28.204,7.842C26.903,8.768 25.843,9.991 25.111,11.41C24.38,12.83 23.999,14.403 24,16L24,18L28,18L28,16C28,14.813 28.352,13.653 29.011,12.667C29.67,11.68 30.608,10.911 31.704,10.457C32.8,10.003 34.007,9.884 35.171,10.115C36.334,10.347 37.404,10.918 38.243,11.757C39.082,12.596 39.653,13.666 39.885,14.829C40.116,15.993 39.997,17.2 39.543,18.296C39.089,19.392 38.32,20.33 37.333,20.989C36.347,21.648 35.187,22 34,22L20,22L20,26L40,26C40.791,26 41.564,26.235 42.222,26.674C42.88,27.114 43.393,27.738 43.696,28.469C43.998,29.2 44.077,30.004 43.923,30.78C43.769,31.556 43.388,32.269 42.828,32.828C42.269,33.388 41.556,33.769 40.78,33.923C40.004,34.077 39.2,33.998 38.469,33.696C37.738,33.393 37.114,32.88 36.674,32.222C36.235,31.564 36,30.791 36,30L32,30C32,31.504 32.424,32.977 33.223,34.251C34.022,35.525 35.164,36.548 36.517,37.202C37.871,37.857 39.382,38.116 40.877,37.952C42.371,37.787 43.789,37.204 44.968,36.27C46.147,35.337 47.038,34.09 47.54,32.672C48.043,31.255 48.135,29.725 47.808,28.257C47.48,26.79 46.746,25.444 45.688,24.375C44.631,23.306 43.294,22.556 41.83,22.212L41.83,22.212ZM22,32L0,32L0,36L22,36C22.791,36 23.564,36.235 24.222,36.674C24.88,37.114 25.393,37.738 25.696,38.469C25.998,39.2 26.077,40.004 25.923,40.78C25.769,41.556 25.388,42.269 24.828,42.828C24.269,43.388 23.556,43.769 22.78,43.923C22.004,44.077 21.2,43.998 20.469,43.696C19.738,43.393 19.114,42.88 18.674,42.222C18.235,41.564 18,40.791 18,40L14,40C14,41.582 14.469,43.129 15.348,44.445C16.227,45.76 17.477,46.786 18.939,47.391C20.4,47.997 22.009,48.155 23.561,47.846C25.113,47.538 26.538,46.776 27.657,45.657C28.776,44.538 29.538,43.113 29.846,41.561C30.155,40.009 29.997,38.4 29.391,36.939C28.786,35.477 27.76,34.227 26.445,33.348C25.129,32.469 23.582,32 22,32ZM22,8C22,5.878 21.157,3.843 19.657,2.343C18.157,0.843 16.122,0 14,0C11.878,0 9.843,0.843 8.343,2.343C6.843,3.843 6,5.878 6,8L10,8C10,7.209 10.235,6.436 10.674,5.778C11.114,5.12 11.738,4.607 12.469,4.304C13.2,4.002 14.004,3.923 14.78,4.077C15.556,4.231 16.269,4.612 16.828,5.172C17.388,5.731 17.769,6.444 17.923,7.22C18.077,7.996 17.998,8.8 17.696,9.531C17.393,10.262 16.88,10.886 16.222,11.326C15.564,11.765 14.791,12 14,12L0,12L0,16L14,16C16.122,16 18.157,15.157 19.657,13.657C21.157,12.157 22,10.122 22,8Z" fill="#374957"/>
</svg>
