<svg width="48" height="48" viewBox="0 0 48 48" fill="none" xmlns="http://www.w3.org/2000/svg" xmlns:xlink="http://www.w3.org/1999/xlink">
<path d="M15.4,28.015C14.837,28.578 14.075,28.894 13.279,28.894C12.484,28.894 11.721,28.578 11.158,28.015L1.716,18.565C0.617,17.466 0,15.975 0,14.42C0,12.866 0.617,11.375 1.716,10.275L11.166,0.825C11.737,0.307 12.486,0.028 13.257,0.046C14.028,0.065 14.762,0.38 15.307,0.926C15.852,1.472 16.166,2.207 16.183,2.978C16.2,3.749 15.92,4.497 15.4,5.067L8.934,11.401L37.36,11.401C40.181,11.404 42.885,12.526 44.88,14.52C46.875,16.514 47.997,19.219 48,22.039L48,35.401C47.997,38.221 46.876,40.925 44.882,42.919C42.888,44.913 40.184,46.035 37.364,46.037L10.636,46.037C9.84,46.037 9.077,45.721 8.515,45.159C7.952,44.596 7.636,43.833 7.636,43.037C7.636,42.242 7.952,41.479 8.515,40.916C9.077,40.353 9.84,40.037 10.636,40.037L37.362,40.037C38.591,40.036 39.77,39.548 40.64,38.678C41.509,37.809 41.998,36.631 42,35.401L42,22.039C41.999,20.809 41.51,19.63 40.64,18.76C39.77,17.891 38.59,17.402 37.36,17.401L9.044,17.401L15.4,23.773C15.962,24.336 16.278,25.099 16.278,25.894C16.278,26.69 15.962,27.453 15.4,28.015L15.4,28.015Z" fill="#374957"/>
</svg>
