<svg width="44" height="48" viewBox="0 0 44 48" fill="none" xmlns="http://www.w3.org/2000/svg" xmlns:xlink="http://www.w3.org/1999/xlink">
<path d="M18,35C18.003,32.453 18.753,29.963 20.159,27.838C21.565,25.714 23.563,24.05 25.907,23.052C28.25,22.054 30.835,21.767 33.341,22.225C35.846,22.684 38.162,23.869 40,25.632L40,0L6,0C4.409,0 2.883,0.632 1.757,1.757C0.632,2.883 0,4.409 0,6L0,42C0,43.591 0.632,45.117 1.757,46.243C2.883,47.368 4.409,48 6,48L31,48C27.552,48 24.246,46.63 21.808,44.192C19.37,41.754 18,38.448 18,35L18,35ZM10,10L30,10L30,14L10,14L10,10ZM41.086,47.914L35.772,42.6C34.346,43.51 32.691,43.995 31,44C29.22,44 27.48,43.472 26,42.483C24.52,41.494 23.366,40.089 22.685,38.444C22.004,36.8 21.826,34.99 22.173,33.244C22.52,31.498 23.377,29.895 24.636,28.636C25.895,27.377 27.498,26.52 29.244,26.173C30.99,25.826 32.8,26.004 34.444,26.685C36.089,27.366 37.494,28.52 38.483,30C39.472,31.48 40,33.22 40,35C39.995,36.691 39.51,38.346 38.6,39.772L43.914,45.086L41.086,47.914Z" fill="#374957"/>
</svg>
