<svg width="50" height="48" viewBox="0 0 50 48" fill="none" xmlns="http://www.w3.org/2000/svg" xmlns:xlink="http://www.w3.org/1999/xlink">
<path d="M45.454,2.546C44.4,1.483 43.087,0.714 41.645,0.312C40.203,-0.089 38.681,-0.107 37.23,0.258C27.218,2.887 18.048,8.043 10.6,15.232C8.027,17.807 6.428,21.195 6.075,24.818C5.721,28.441 6.636,32.074 8.662,35.098L0.878,42.878C0.315,43.441 -0.001,44.204 -0.001,45C-0.001,45.796 0.315,46.559 0.878,47.122C1.441,47.685 2.204,48.001 3,48.001C3.796,48.001 4.559,47.685 5.122,47.122L12.908,39.334C15.435,41.063 18.423,41.991 21.484,42C23.725,41.992 25.942,41.53 28,40.644C30.059,39.757 31.916,38.463 33.462,36.84C40.305,29.437 45.212,20.457 47.748,10.7C48.107,9.259 48.084,7.749 47.681,6.319C47.279,4.889 46.511,3.589 45.454,2.546L45.454,2.546ZM38.678,6.082C39.126,5.968 39.596,5.973 40.042,6.098C40.487,6.223 40.892,6.462 41.216,6.792C41.539,7.107 41.774,7.501 41.898,7.935C42.021,8.369 42.029,8.828 41.92,9.266C40.95,12.979 39.584,16.578 37.846,20L32.246,20L35.126,17.122C35.405,16.843 35.626,16.512 35.776,16.148C35.927,15.784 36.005,15.394 36.005,15C36.005,14.606 35.927,14.216 35.776,13.852C35.626,13.487 35.405,13.157 35.126,12.878C34.847,12.599 34.516,12.378 34.152,12.227C33.788,12.077 33.398,11.999 33.004,11.999C32.61,11.999 32.22,12.077 31.856,12.227C31.491,12.378 31.161,12.599 30.882,12.878L22,21.758L22,13.688C27.107,10.259 32.741,7.69 38.678,6.082L38.678,6.082ZM12.012,26.836C11.947,25.479 12.166,24.123 12.654,22.855C13.142,21.587 13.888,20.434 14.846,19.47C15.214,19.1 15.618,18.77 16,18.416L16,27.758L13.024,30.734C12.418,29.519 12.074,28.192 12.012,26.836L12.012,26.836ZM29.13,32.68C27.653,34.279 25.705,35.367 23.569,35.784C21.432,36.201 19.218,35.926 17.248,35L21.12,31.128L26.242,26L34.386,26C32.839,28.38 31.08,30.616 29.13,32.68L29.13,32.68Z" fill="#374957"/>
</svg>
