<svg width="48" height="48" viewBox="0 0 48 48" fill="none" xmlns="http://www.w3.org/2000/svg" xmlns:xlink="http://www.w3.org/1999/xlink">
<path d="M24,0C19.253,0 14.613,1.408 10.666,4.045C6.72,6.682 3.643,10.43 1.827,14.816C0.01,19.201 -0.465,24.027 0.461,28.682C1.387,33.338 3.673,37.614 7.029,40.971C10.386,44.327 14.662,46.613 19.318,47.539C23.973,48.465 28.799,47.99 33.184,46.173C37.57,44.357 41.318,41.28 43.955,37.334C46.592,33.387 48,28.747 48,24C47.993,17.637 45.462,11.536 40.963,7.037C36.464,2.538 30.363,0.007 24,0L24,0ZM35.624,30.97L39.156,29.916L38.012,26.084L34.346,27.176C34.125,26.132 34.009,25.068 34,24C34.009,22.932 34.125,21.868 34.346,20.824L38.012,21.916L39.156,18.084L35.624,17.03C36.609,14.989 38.019,13.181 39.758,11.728C42.506,15.228 44,19.55 44,24C44,28.45 42.506,32.772 39.758,36.272C38.019,34.819 36.609,33.011 35.624,30.97L35.624,30.97ZM8.242,11.728C9.981,13.181 11.391,14.989 12.376,17.03L8.844,18.084L9.988,21.916L13.654,20.824C13.875,21.868 13.991,22.932 14,24C13.991,25.068 13.875,26.132 13.654,27.176L9.988,26.084L8.844,29.916L12.376,30.97C11.391,33.011 9.981,34.819 8.242,36.272C5.494,32.772 4,28.45 4,24C4,19.55 5.494,15.228 8.242,11.728L8.242,11.728ZM11.014,39.18C13.26,37.245 15.046,34.834 16.242,32.122L20.344,33.346L21.488,29.512L17.502,28.312C17.824,26.897 17.991,25.451 18,24C17.991,22.546 17.824,21.096 17.502,19.678L21.488,18.478L20.344,14.644L16.242,15.868C15.044,13.16 13.258,10.752 11.014,8.82C14.626,5.71 19.234,4 24,4C28.766,4 33.374,5.71 36.986,8.82C34.74,10.755 32.954,13.166 31.758,15.878L27.656,14.654L26.512,18.488L30.498,19.688C29.834,22.531 29.834,25.489 30.498,28.332L26.512,29.532L27.656,33.366L31.758,32.142C32.954,34.854 34.74,37.265 36.986,39.2C33.374,42.31 28.766,44.02 24,44.02C19.234,44.02 14.626,42.31 11.014,39.2L11.014,39.18Z" fill="#374957"/>
</svg>
