<svg width="48" height="48" viewBox="0 0 48 48" fill="none" xmlns="http://www.w3.org/2000/svg" xmlns:xlink="http://www.w3.org/1999/xlink">
<path d="M8.589,43.737C2.676,42.353 -0.996,36.438 0.387,30.525C1.098,27.489 3.063,24.898 5.795,23.395C1.693,15.59 4.695,5.938 12.5,1.836C20.305,-2.266 29.958,0.736 34.06,8.541C34.716,9.789 35.203,11.119 35.51,12.495C42.814,14.181 47.966,20.715 47.903,28.211C46.653,26.96 45.176,25.961 43.551,25.265C42.402,20.464 38.425,16.861 33.534,16.189L32.02,15.989L31.82,14.477C30.944,7.929 24.925,3.331 18.377,4.207C11.829,5.084 7.231,11.102 8.108,17.65C8.376,19.653 9.147,21.556 10.349,23.18L12.398,26.047C11.34,25.974 10.277,26.058 9.243,26.299C5.518,27.301 3.311,31.134 4.314,34.859C4.843,36.824 6.202,38.46 8.036,39.34C7.922,40.828 8.11,42.324 8.589,43.737ZM47.903,38.021C47.898,33.119 44.336,28.944 39.495,28.167C35.74,15.249 16.815,18.841 18.044,32.268C13.77,33.37 11.198,37.728 12.3,42.003C13.203,45.506 16.347,47.965 19.964,48L37.925,48C43.433,47.993 47.897,43.529 47.903,38.021ZM23.357,36.026L22.405,33.36C19.337,23.541 34.281,20.079 35.851,30.268L36.051,32.044L38.047,32.044C41.349,32.209 43.893,35.019 43.729,38.321C43.574,41.441 41.047,43.917 37.925,44.008L19.964,44.008C17.76,44.008 15.973,42.221 15.973,40.017C15.973,37.813 17.76,36.026 19.964,36.026L23.357,36.026L23.357,36.026Z" fill="#374957"/>
</svg>
