<svg width="48" height="48" viewBox="0 0 48 48" fill="none" xmlns="http://www.w3.org/2000/svg" xmlns:xlink="http://www.w3.org/1999/xlink">
<path d="M48,20L48,48L0,48L0,20L48,20ZM48,16L48,10C48,8.409 47.368,6.883 46.243,5.757C45.117,4.632 43.591,4 42,4L36,4L36,0L32,0L32,4L16,4L16,0L12,0L12,4L6,4C4.409,4 2.883,4.632 1.757,5.757C0.632,6.883 0,8.409 0,10L0,16L48,16ZM36,28L32,28L32,32L36,32L36,28ZM26,28L22,28L22,32L26,32L26,28ZM16,28L12,28L12,32L16,32L16,28ZM36,36L32,36L32,40L36,40L36,36ZM26,36L22,36L22,40L26,40L26,36ZM16,36L12,36L12,40L16,40L16,36Z" fill="#374957"/>
</svg>
