<svg width="48" height="48" viewBox="0 0 48 48" fill="none" xmlns="http://www.w3.org/2000/svg" xmlns:xlink="http://www.w3.org/1999/xlink">
<path d="M48,30.124C48.002,28.444 47.65,26.783 46.966,25.248L41.412,12.75C40.782,11.337 39.756,10.137 38.459,9.294C37.161,8.451 35.647,8.002 34.1,8L28,8L26.486,1.94C26.348,1.385 26.028,0.893 25.577,0.541C25.127,0.189 24.572,-0.002 24,-0.002C23.428,-0.002 22.873,0.189 22.423,0.541C21.972,0.893 21.652,1.385 21.514,1.94L20,8L6,8C4.409,8 2.883,8.632 1.757,9.758C0.632,10.883 0,12.409 0,14L0,40L4.082,40C4.031,40.331 4.003,40.665 4,41C4,42.857 4.737,44.637 6.05,45.95C7.363,47.263 9.143,48 11,48C12.857,48 14.637,47.263 15.95,45.95C17.263,44.637 18,42.857 18,41C17.997,40.665 17.969,40.331 17.918,40L30.082,40C30.031,40.331 30.003,40.665 30,41C30,42.857 30.737,44.637 32.05,45.95C33.363,47.263 35.143,48 37,48C38.857,48 40.637,47.263 41.95,45.95C43.263,44.637 44,42.857 44,41C43.997,40.665 43.969,40.331 43.918,40L48,40L48,30.124ZM37.756,14.376L41.144,22L32,22L32,12L34.1,12C34.874,12 35.631,12.224 36.28,12.646C36.929,13.068 37.442,13.669 37.756,14.376L37.756,14.376ZM14,41C14,41.796 13.684,42.559 13.121,43.122C12.559,43.684 11.796,44 11,44C10.204,44 9.441,43.684 8.879,43.122C8.316,42.559 8,41.796 8,41C8.001,40.658 8.064,40.32 8.186,40L13.814,40C13.936,40.32 13.999,40.658 14,41ZM40,41C40,41.796 39.684,42.559 39.121,43.122C38.559,43.684 37.796,44 37,44C36.204,44 35.441,43.684 34.879,43.122C34.316,42.559 34,41.796 34,41C34.001,40.658 34.064,40.32 34.186,40L39.814,40C39.936,40.32 39.999,40.658 40,41L40,41ZM44,36L4,36L4,14C4,13.47 4.211,12.961 4.586,12.586C4.961,12.211 5.47,12 6,12L28,12L28,26L42.922,26L43.31,26.874C43.767,27.897 44.002,29.004 44,30.124L44,36ZM18,22L22,22L22,26L18,26L18,30L14,30L14,26L10,26L10,22L14,22L14,18L18,18L18,22Z" fill="#374957"/>
</svg>
