<svg width="44" height="48" viewBox="0 0 44 48" fill="none" xmlns="http://www.w3.org/2000/svg" xmlns:xlink="http://www.w3.org/1999/xlink">
<path d="M8,16.001C8,12.836 8.938,9.743 10.696,7.111C12.454,4.48 14.953,2.429 17.877,1.218C20.8,0.007 24.018,-0.309 27.121,0.308C30.225,0.925 33.076,2.449 35.314,4.687C37.551,6.924 39.075,9.775 39.692,12.879C40.31,15.983 39.993,19.2 38.782,22.124C37.571,25.047 35.52,27.546 32.889,29.304C30.258,31.062 27.164,32.001 24,32.001C19.758,31.996 15.691,30.309 12.691,27.309C9.692,24.31 8.005,20.243 8,16.001L8,16.001ZM43.814,29.547L40.512,27.287C38.964,29.547 36.968,31.465 34.648,32.922C32.329,34.379 29.734,35.344 27.026,35.757C24.318,36.17 21.554,36.022 18.905,35.323C16.257,34.624 13.78,33.388 11.629,31.692C9.477,29.996 7.697,27.876 6.399,25.464C5.101,23.052 4.312,20.399 4.082,17.669C3.851,14.939 4.184,12.191 5.059,9.595C5.934,7 7.333,4.611 9.17,2.579L6.2,-0.105C3.198,3.211 1.183,7.301 0.383,11.703C-0.416,16.104 0.031,20.642 1.674,24.803C3.318,28.963 6.092,32.582 9.684,35.249C13.276,37.915 17.542,39.525 22,39.895L22,44.001L14,44.001L14,48.001L34,48.001L34,44.001L26,44.001L26,39.879C29.55,39.587 32.991,38.509 36.072,36.722C39.154,34.935 41.798,32.484 43.814,29.547L43.814,29.547Z" fill="#374957"/>
</svg>
