<svg width="48" height="42" viewBox="0 0 48 42" fill="none" xmlns="http://www.w3.org/2000/svg" xmlns:xlink="http://www.w3.org/1999/xlink">
<path d="M45.504,14.018C43.428,11.445 40.297,9.953 36.99,9.96L32.93,9.96L33.109,8.908C33.84,4.622 30.958,0.555 26.673,-0.176C26.201,-0.257 25.723,-0.294 25.245,-0.288C22.239,-0.303 19.482,1.377 18.12,4.056L15.107,9.96L10.959,9.96C4.909,9.966 0.007,14.869 0,20.918L0,30.881C0.007,36.93 4.909,41.833 10.959,41.839L34.884,41.839C40.055,41.821 44.517,38.205 45.606,33.15L47.712,23.188C48.403,19.955 47.591,16.583 45.504,14.018ZM5.977,30.881L5.977,20.918C5.977,18.167 8.208,15.937 10.959,15.937L13.947,15.937L13.947,35.862L10.959,35.862C8.208,35.862 5.977,33.632 5.977,30.881ZM41.864,21.95L39.756,31.913C39.262,34.21 37.234,35.854 34.884,35.862L19.925,35.862L19.925,13.668L23.444,6.772C23.816,6.074 24.558,5.653 25.348,5.69C26.396,5.691 27.245,6.54 27.244,7.588C27.244,7.694 27.235,7.799 27.217,7.903L25.848,15.937L36.99,15.937C39.741,15.937 41.972,18.167 41.972,20.918C41.972,21.265 41.936,21.611 41.864,21.95Z" fill="#374957"/>
</svg>
