<svg width="48" height="50" viewBox="0 0 48 50" fill="none" xmlns="http://www.w3.org/2000/svg" xmlns:xlink="http://www.w3.org/1999/xlink">
<path d="M46.934,27.274L38.024,29.652L34.178,27.484L34.178,20.62L38.022,18.452L46.934,20.828L48,16.964L40.24,14.896L42.344,7.264L38.416,6.216L36,14.98L32.348,17.04L26.036,13.456L26.036,9.302L32.564,2.882L29.686,0.05L24,5.642L18.314,0.05L15.436,2.882L21.964,9.302L21.964,13.456L15.652,17.04L12,14.98L9.584,6.216L5.656,7.264L7.76,14.896L0,16.964L1.066,20.828L9.976,18.452L13.822,20.62L13.822,27.484L9.976,29.652L1.066,27.274L0,31.138L7.76,33.2L5.656,40.84L9.584,41.888L12,33.122L16,30.87L21.966,34.256L21.966,38.8L15.436,45.22L18.314,48.05L24,42.46L29.686,48.05L32.564,45.22L26.036,38.8L26.036,34.256L32,30.87L36,33.122L38.418,41.888L42.346,40.84L40.24,33.2L48,31.138L46.934,27.274ZM30.106,27.324L24,30.8L17.894,27.324L17.894,20.4L24,16.922L30.106,20.4L30.106,27.324Z" fill="#374957"/>
</svg>
