<svg width="48" height="48" viewBox="0 0 48 48" fill="none" xmlns="http://www.w3.org/2000/svg" xmlns:xlink="http://www.w3.org/1999/xlink">
<path d="M22,0L6,0C4.409,0 2.883,0.632 1.757,1.757C0.632,2.883 0,4.409 0,6L0,48L28,48L28,6C28,4.409 27.368,2.883 26.243,1.757C25.117,0.632 23.591,0 22,0L22,0ZM12,38L6,38L6,34L12,34L12,38ZM12,30L6,30L6,26L12,26L12,30ZM12,22L6,22L6,18L12,18L12,22ZM12,14L6,14L6,10L12,10L12,14ZM22,38L16,38L16,34L22,34L22,38ZM22,30L16,30L16,26L22,26L22,30ZM22,22L16,22L16,18L22,18L22,22ZM22,14L16,14L16,10L22,10L22,14ZM42,10L32,10L32,48L48,48L48,16C48,14.409 47.368,12.883 46.243,11.757C45.117,10.632 43.591,10 42,10ZM42,38L38,38L38,34L42,34L42,38ZM42,30L38,30L38,26L42,26L42,30ZM42,22L38,22L38,18L42,18L42,22Z" fill="#374957"/>
</svg>
