<svg width="48" height="48" viewBox="0 0 48 48" fill="none" xmlns="http://www.w3.org/2000/svg" xmlns:xlink="http://www.w3.org/1999/xlink">
<path d="M37.52,32C36.143,31.996 34.779,32.265 33.506,32.792C32.233,33.319 31.078,34.093 30.106,35.07L24.106,41.07C23.18,42.001 22.078,42.74 20.864,43.243C19.65,43.746 18.348,44.003 17.034,44L6.246,44C5.803,44 5.369,43.869 5,43.623C4.631,43.376 4.344,43.026 4.174,42.616C4.004,42.206 3.96,41.755 4.046,41.32C4.133,40.885 4.347,40.486 4.66,40.172L11.04,33.8L37.546,26.73C38.825,26.389 39.954,25.635 40.76,24.586C41.565,23.537 42.001,22.251 42,20.928L42,6C42,4.409 41.368,2.883 40.243,1.757C39.118,0.632 37.592,0 36,0L21.072,0C19.75,-0.001 18.464,0.436 17.415,1.241C16.367,2.047 15.613,3.176 15.272,4.454L8.2,30.97L1.832,37.344C0.959,38.217 0.365,39.329 0.124,40.54C-0.117,41.751 0.007,43.006 0.479,44.147C0.952,45.287 1.752,46.262 2.778,46.948C3.805,47.634 5.012,48 6.246,48L17.034,48C18.874,48.005 20.696,47.645 22.395,46.941C24.095,46.237 25.637,45.202 26.934,43.898L32.934,37.898C33.842,36.993 34.997,36.377 36.254,36.128C37.511,35.879 38.814,36.008 39.998,36.499C41.181,36.989 42.193,37.82 42.906,38.885C43.618,39.95 43.999,41.203 44,42.484L44,48L48,48L48,42.484C47.997,39.705 46.892,37.041 44.927,35.076C42.963,33.111 40.299,32.005 37.52,32L37.52,32ZM38,6.832L38,19.172L31.83,13L38,6.832ZM29,10.174L22.828,4L35.176,4L29,10.174ZM36.132,22.962L16.684,28.148L29,15.83L36.132,22.962ZM19.038,5.866L26.174,13L13.85,25.326L19.038,5.866Z" fill="#374957"/>
</svg>
