<svg width="24" height="48" viewBox="0 0 24 48" fill="none" xmlns="http://www.w3.org/2000/svg" xmlns:xlink="http://www.w3.org/1999/xlink">
<path d="M23.842,3.01C23.841,3.806 23.525,4.568 22.962,5.13L7.618,20.474C7.153,20.938 6.785,21.49 6.534,22.096C6.282,22.703 6.153,23.353 6.153,24.01C6.153,24.667 6.282,25.317 6.534,25.924C6.785,26.531 7.153,27.082 7.618,27.546L22.942,42.87C23.488,43.436 23.791,44.194 23.784,44.98C23.777,45.767 23.462,46.519 22.905,47.076C22.349,47.632 21.597,47.947 20.81,47.954C20.024,47.961 19.266,47.659 18.7,47.112L3.376,31.8C1.315,29.736 0.158,26.938 0.158,24.021C0.158,21.104 1.315,18.307 3.376,16.242L18.72,0.888C19.139,0.468 19.674,0.182 20.256,0.067C20.838,-0.049 21.442,0.01 21.99,0.237C22.538,0.464 23.007,0.849 23.337,1.343C23.666,1.836 23.842,2.417 23.842,3.01L23.842,3.01Z" fill="#374957"/>
</svg>
