<svg width="40" height="48" viewBox="0 0 40 48" fill="none" xmlns="http://www.w3.org/2000/svg" xmlns:xlink="http://www.w3.org/1999/xlink">
<path d="M30,25C30,25.796 29.684,26.559 29.121,27.121C28.559,27.684 27.796,28 27,28L13,28C12.204,28 11.441,27.684 10.879,27.121C10.316,26.559 10,25.796 10,25C10,24.204 10.316,23.441 10.879,22.879C11.441,22.316 12.204,22 13,22L27,22C27.796,22 28.559,22.316 29.121,22.879C29.684,23.441 30,24.204 30,25L30,25ZM21,32L13,32C12.204,32 11.441,32.316 10.879,32.879C10.316,33.441 10,34.204 10,35C10,35.796 10.316,36.559 10.879,37.121C11.441,37.684 12.204,38 13,38L21,38C21.796,38 22.559,37.684 23.121,37.121C23.684,36.559 24,35.796 24,35C24,34.204 23.684,33.441 23.121,32.879C22.559,32.316 21.796,32 21,32L21,32ZM40,16.314L40,37C39.997,39.916 38.837,42.713 36.775,44.775C34.712,46.837 31.916,47.997 29,48L11,48C8.084,47.997 5.288,46.837 3.225,44.775C1.163,42.713 0.003,39.916 0,37L0,11C0.003,8.084 1.163,5.288 3.225,3.225C5.288,1.163 8.084,0.003 11,0L23.686,0C25.131,-0.004 26.563,0.279 27.898,0.832C29.233,1.385 30.445,2.197 31.464,3.222L36.778,8.536C37.803,9.555 38.615,10.767 39.168,12.102C39.721,13.437 40.004,14.869 40,16.314L40,16.314ZM34,37L34,18L26,18C24.939,18 23.922,17.579 23.172,16.828C22.421,16.078 22,15.061 22,14L22,6L11,6C9.674,6 8.402,6.527 7.464,7.465C6.527,8.402 6,9.674 6,11L6,37C6,38.326 6.527,39.598 7.464,40.536C8.402,41.473 9.674,42 11,42L29,42C30.326,42 31.598,41.473 32.536,40.536C33.473,39.598 34,38.326 34,37Z" fill="#374957"/>
</svg>
