<svg width="32" height="16" viewBox="0 0 32 16" fill="none" xmlns="http://www.w3.org/2000/svg" xmlns:xlink="http://www.w3.org/1999/xlink">
<path d="M30.122,10.878L20.95,1.708C19.617,0.434 17.844,-0.276 16,-0.276C14.156,-0.276 12.383,0.434 11.05,1.708L1.878,10.878C1.315,11.441 0.999,12.204 0.999,13C0.999,13.796 1.315,14.559 1.878,15.122C2.441,15.685 3.204,16.001 4,16.001C4.796,16.001 5.559,15.685 6.122,15.122L15.294,5.95C15.482,5.763 15.736,5.657 16.001,5.657C16.266,5.657 16.52,5.763 16.708,5.95L25.878,15.122C26.441,15.685 27.204,16.001 28,16.001C28.796,16.001 29.559,15.685 30.122,15.122C30.685,14.559 31.001,13.796 31.001,13C31.001,12.204 30.685,11.441 30.122,10.878Z" fill="#374957"/>
</svg>
