<svg width="48" height="48" viewBox="0 0 48 48" fill="none" xmlns="http://www.w3.org/2000/svg" xmlns:xlink="http://www.w3.org/1999/xlink">
<path d="M14,42L14,48L6,48L6,42L14,42ZM34,42L34,48L42,48L42,42L34,42ZM48,32L48,38L0,38L0,32C0,30.409 0.632,28.883 1.757,27.757C2.883,26.632 4.409,26 6,26L42,26C43.591,26 45.117,26.632 46.243,27.757C47.368,28.883 48,30.409 48,32ZM10,30C9.47,30 8.961,30.211 8.586,30.586C8.211,30.961 8,31.47 8,32L8,32C8,32.53 8.211,33.039 8.586,33.414C8.961,33.789 9.47,34 10,34C10.53,34 11.039,33.789 11.414,33.414C11.789,33.039 12,32.53 12,32C12,31.47 11.789,30.961 11.414,30.586C11.039,30.211 10.53,30 10,30ZM38,30C37.47,30 36.961,30.211 36.586,30.586C36.211,30.961 36,31.47 36,32C36,32.53 36.211,33.039 36.586,33.414C36.961,33.789 37.47,34 38,34C38.53,34 39.039,33.789 39.414,33.414C39.789,33.039 40,32.53 40,32C40,31.47 39.789,30.961 39.414,30.586C39.039,30.211 38.53,30 38,30ZM30.216,4L29.8,2.736C29.534,1.939 29.024,1.245 28.342,0.754C27.66,0.263 26.841,-0.001 26,0L22.216,0C21.375,-0.001 20.556,0.263 19.874,0.754C19.192,1.245 18.682,1.939 18.416,2.736L18,4L30.216,4ZM41.334,18L38.912,10.736C38.647,9.939 38.137,9.246 37.456,8.755C36.774,8.264 35.956,8 35.116,8L12.884,8C12.043,7.999 11.224,8.263 10.542,8.754C9.86,9.245 9.35,9.939 9.084,10.736L6.666,18L0,18L0,22L48,22L48,18L41.334,18Z" fill="#374957"/>
</svg>
