<svg width="48" height="48" viewBox="0 0 48 48" fill="none" xmlns="http://www.w3.org/2000/svg" xmlns:xlink="http://www.w3.org/1999/xlink">
<path d="M44,35.502L44,12.498C44.985,12.087 45.854,11.44 46.529,10.614C47.205,9.788 47.667,8.808 47.874,7.761C48.081,6.714 48.027,5.632 47.717,4.611C47.406,3.589 46.849,2.66 46.094,1.906C45.339,1.151 44.41,0.594 43.389,0.283C42.368,-0.027 41.286,-0.081 40.239,0.126C39.192,0.333 38.212,0.795 37.386,1.47C36.559,2.146 35.912,3.015 35.502,4L12.498,4C12.087,3.015 11.44,2.146 10.614,1.47C9.787,0.795 8.808,0.333 7.76,0.126C6.713,-0.081 5.631,-0.027 4.61,0.283C3.589,0.594 2.66,1.151 1.905,1.906C1.15,2.66 0.593,3.589 0.283,4.611C-0.028,5.632 -0.082,6.714 0.125,7.761C0.332,8.808 0.794,9.788 1.47,10.614C2.146,11.44 3.014,12.087 4,12.498L4,35.498C3.015,35.909 2.147,36.556 1.471,37.382C0.796,38.208 0.334,39.188 0.127,40.235C-0.08,41.282 -0.026,42.363 0.285,43.384C0.595,44.405 1.152,45.334 1.906,46.089C2.66,46.843 3.589,47.401 4.61,47.711C5.631,48.022 6.712,48.077 7.759,47.87C8.806,47.664 9.786,47.203 10.612,46.528C11.439,45.853 12.086,44.985 12.498,44L35.498,44C35.909,44.985 36.556,45.853 37.382,46.529C38.208,47.204 39.188,47.666 40.234,47.872C41.281,48.079 42.363,48.025 43.384,47.715C44.405,47.405 45.334,46.848 46.088,46.094C46.843,45.339 47.4,44.411 47.711,43.39C48.022,42.369 48.076,41.288 47.87,40.241C47.663,39.194 47.202,38.214 46.527,37.387C45.852,36.561 44.984,35.913 44,35.502L44,35.502ZM10,36.038L10,11.962C10.787,11.457 11.456,10.788 11.962,10L36.038,10C36.543,10.788 37.212,11.457 38,11.962L38,36.038C37.212,36.544 36.543,37.213 36.038,38L11.962,38C11.456,37.213 10.787,36.544 10,36.038L10,36.038ZM27,28L27,29C27,29.265 27.105,29.52 27.293,29.707C27.48,29.895 27.734,30 28,30L29,30C29.795,30 30.558,30.316 31.121,30.879C31.684,31.441 32,32.204 32,33C32,33.796 31.684,34.559 31.121,35.121C30.558,35.684 29.795,36 29,36L28,36C26.567,35.998 25.171,35.555 24,34.73C22.829,35.555 21.432,35.998 20,36L19,36C18.204,36 17.441,35.684 16.878,35.121C16.316,34.559 16,33.796 16,33C16,32.204 16.316,31.441 16.878,30.879C17.441,30.316 18.204,30 19,30L20,30C20.265,30 20.519,29.895 20.707,29.707C20.894,29.52 21,29.265 21,29L21,28C20.204,28 19.441,27.684 18.878,27.121C18.316,26.559 18,25.796 18,25C18,24.204 18.316,23.441 18.878,22.879C19.441,22.316 20.204,22 21,22L21,19C21,18.735 20.894,18.481 20.707,18.293C20.519,18.106 20.265,18 20,18L19,18C18.204,18 17.441,17.684 16.878,17.121C16.316,16.559 16,15.796 16,15C16,14.205 16.316,13.441 16.878,12.879C17.441,12.316 18.204,12 19,12L20,12C21.432,12.002 22.829,12.445 24,13.27C25.171,12.445 26.567,12.002 28,12L29,12C29.795,12 30.558,12.316 31.121,12.879C31.684,13.441 32,14.205 32,15C32,15.796 31.684,16.559 31.121,17.121C30.558,17.684 29.795,18 29,18L28,18C27.734,18 27.48,18.106 27.293,18.293C27.105,18.481 27,18.735 27,19L27,22C27.795,22 28.558,22.316 29.121,22.879C29.684,23.441 30,24.204 30,25C30,25.796 29.684,26.559 29.121,27.121C28.558,27.684 27.795,28 27,28L27,28Z" fill="#374957"/>
</svg>
