<svg width="48" height="40" viewBox="0 0 48 40" fill="none" xmlns="http://www.w3.org/2000/svg" xmlns:xlink="http://www.w3.org/1999/xlink">
<path d="M39,8L29,8C26.614,8.003 24.326,8.952 22.639,10.639C20.952,12.326 20.003,14.614 20,17L20,24L6,24L6,3C6,2.204 5.684,1.441 5.121,0.879C4.559,0.316 3.796,0 3,0C2.204,0 1.441,0.316 0.879,0.879C0.316,1.441 0,2.204 0,3L0,37C0,37.796 0.316,38.559 0.879,39.121C1.441,39.684 2.204,40 3,40C3.796,40 4.559,39.684 5.121,39.121C5.684,38.559 6,37.796 6,37L6,34L42,34L42,37C42,37.796 42.316,38.559 42.879,39.121C43.441,39.684 44.204,40 45,40C45.796,40 46.559,39.684 47.121,39.121C47.684,38.559 48,37.796 48,37L48,17C47.997,14.614 47.048,12.326 45.361,10.639C43.674,8.952 41.386,8.003 39,8L39,8ZM42,24L26,24L26,17C26,16.204 26.316,15.441 26.879,14.879C27.441,14.316 28.204,14 29,14L39,14C39.796,14 40.559,14.316 41.121,14.879C41.684,15.441 42,16.204 42,17L42,24ZM13,24C12.011,24 11.044,23.707 10.222,23.157C9.4,22.608 8.759,21.827 8.381,20.913C8.002,20 7.903,18.994 8.096,18.025C8.289,17.055 8.765,16.164 9.464,15.464C10.164,14.765 11.055,14.289 12.025,14.096C12.994,13.903 14,14.002 14.913,14.381C15.827,14.759 16.608,15.4 17.157,16.222C17.707,17.044 18,18.011 18,19C18,20.326 17.473,21.598 16.536,22.536C15.598,23.473 14.326,24 13,24L13,24Z" fill="#374957"/>
</svg>
