<svg width="48" height="40" viewBox="0 0 48 40" fill="none" xmlns="http://www.w3.org/2000/svg" xmlns:xlink="http://www.w3.org/1999/xlink">
<path d="M42,0L15.52,0L0,20L15.52,40L42,40C43.591,40 45.117,39.368 46.243,38.243C47.368,37.118 48,35.592 48,34L48,6C48,4.409 47.368,2.883 46.243,1.758C45.117,0.633 43.591,0 42,0ZM44,34C44,34.531 43.789,35.04 43.414,35.415C43.039,35.79 42.53,36 42,36L17.48,36L5.08,20L17.48,4L42,4C42.53,4 43.039,4.211 43.414,4.586C43.789,4.961 44,5.47 44,6L44,34ZM35.914,14.914L30.828,20L35.914,25.086L33.086,27.914L28,22.828L22.914,27.914L20.086,25.086L25.172,20L20.086,14.914L22.914,12.086L28,17.172L33.086,12.086L35.914,14.914Z" fill="#374957"/>
</svg>
