<svg width="48" height="48" viewBox="0 0 48 48" fill="none" xmlns="http://www.w3.org/2000/svg" xmlns:xlink="http://www.w3.org/1999/xlink">
<path d="M35.486,32.656C38.733,28.683 40.329,23.614 39.944,18.498C39.558,13.382 37.221,8.609 33.416,5.167C29.611,1.725 24.628,-0.122 19.499,0.006C14.37,0.135 9.486,2.23 5.858,5.858C2.23,9.486 0.135,14.37 0.006,19.499C-0.122,24.628 1.725,29.611 5.167,33.416C8.609,37.221 13.382,39.558 18.498,39.944C23.614,40.329 28.683,38.733 32.656,35.486L45.172,48L48,45.172L35.486,32.656ZM28,22L22,22L22,28L18,28L18,22L12,22L12,18L18,18L18,12L22,12L22,18L28,18L28,22Z" fill="#374957"/>
</svg>
