<svg width="40" height="48" viewBox="0 0 40 48" fill="none" xmlns="http://www.w3.org/2000/svg" xmlns:xlink="http://www.w3.org/1999/xlink">
<path d="M34,5.214L34,3C34,2.204 33.684,1.441 33.121,0.879C32.559,0.316 31.796,0 31,0C30.204,0 29.441,0.316 28.879,0.879C28.316,1.441 28,2.204 28,3L28,4L23,4L23,3C23,2.204 22.684,1.441 22.121,0.879C21.559,0.316 20.796,0 20,0C19.204,0 18.441,0.316 17.879,0.879C17.316,1.441 17,2.204 17,3L17,4L12,4L12,3C12,2.204 11.684,1.441 11.121,0.879C10.559,0.316 9.796,0 9,0C8.204,0 7.441,0.316 6.879,0.879C6.316,1.441 6,2.204 6,3L6,5.214C4.196,6.135 2.681,7.536 1.622,9.262C0.564,10.989 0.002,12.975 0,15L0,37C0.003,39.916 1.163,42.712 3.225,44.775C5.288,46.837 8.084,47.997 11,48L29,48C31.916,47.996 34.712,46.836 36.774,44.774C38.836,42.712 39.996,39.916 40,37L40,15C39.998,12.975 39.436,10.989 38.378,9.262C37.319,7.536 35.804,6.135 34,5.214L34,5.214ZM34,37C34,38.326 33.473,39.598 32.536,40.536C31.598,41.473 30.326,42 29,42L11,42C9.674,42 8.402,41.473 7.464,40.536C6.527,39.598 6,38.326 6,37L6,15C6,13.674 6.527,12.402 7.464,11.464C8.402,10.527 9.674,10 11,10L29,10C30.326,10 31.598,10.527 32.536,11.464C33.473,12.402 34,13.674 34,15L34,37ZM30,17C30,17.796 29.684,18.559 29.121,19.121C28.559,19.684 27.796,20 27,20L13,20C12.204,20 11.441,19.684 10.879,19.121C10.316,18.559 10,17.796 10,17C10,16.204 10.316,15.441 10.879,14.879C11.441,14.316 12.204,14 13,14L27,14C27.796,14 28.559,14.316 29.121,14.879C29.684,15.441 30,16.204 30,17L30,17ZM23,27C23,27.796 22.684,28.559 22.121,29.121C21.559,29.684 20.796,30 20,30L13,30C12.204,30 11.441,29.684 10.879,29.121C10.316,28.559 10,27.796 10,27C10,26.204 10.316,25.441 10.879,24.879C11.441,24.316 12.204,24 13,24L20,24C20.796,24 21.559,24.316 22.121,24.879C22.684,25.441 23,26.204 23,27Z" fill="#374957"/>
</svg>
