<svg width="28" height="48" viewBox="0 0 28 48" fill="none" xmlns="http://www.w3.org/2000/svg" xmlns:xlink="http://www.w3.org/1999/xlink">
<path d="M25,0L3,0C2.204,0 1.441,0.316 0.879,0.879C0.316,1.441 0,2.204 0,3C0,3.796 0.316,4.559 0.879,5.121C1.441,5.684 2.204,6 3,6L4,6L4,38C4,40.652 5.054,43.196 6.929,45.071C8.804,46.946 11.348,48 14,48C16.652,48 19.196,46.946 21.071,45.071C22.946,43.196 24,40.652 24,38L24,6L25,6C25.796,6 26.559,5.684 27.121,5.121C27.684,4.559 28,3.796 28,3C28,2.204 27.684,1.441 27.121,0.879C26.559,0.316 25.796,0 25,0L25,0ZM14,42C12.939,42 11.922,41.579 11.172,40.828C10.421,40.078 10,39.061 10,38L10,20L18,20L18,38C18,39.061 17.579,40.078 16.828,40.828C16.078,41.579 15.061,42 14,42ZM18,14L10,14L10,6L18,6L18,14Z" fill="#374957"/>
</svg>
