<svg width="48" height="36" viewBox="0 0 48 36" fill="none" xmlns="http://www.w3.org/2000/svg" xmlns:xlink="http://www.w3.org/1999/xlink">
<path d="M48,35.999L44,35.999L44,23.999C42.898,-2.541 5.092,-2.519 4,23.999L4,35.999L0,35.999L0,23.999C1.322,-7.849 46.69,-7.823 48,23.999L48,35.999ZM40,23.999C39.2,2.799 8.8,2.813 8,23.999L8,35.999L12,35.999L12,23.999C12.506,8.135 35.5,8.147 36,23.999L36,35.999L40,35.999L40,23.999ZM32,23.999C32,21.878 31.157,19.843 29.657,18.342C28.157,16.842 26.122,15.999 24,15.999C21.878,15.999 19.843,16.842 18.343,18.342C16.843,19.843 16,21.878 16,23.999L16,35.999L20,35.999L20,23.999C20,22.938 20.421,21.921 21.172,21.171C21.922,20.421 22.939,19.999 24,19.999C25.061,19.999 26.078,20.421 26.828,21.171C27.579,21.921 28,22.938 28,23.999L28,35.999L32,35.999L32,23.999Z" fill="#374957"/>
</svg>
