<svg width="40" height="48" viewBox="0 0 40 48" fill="none" xmlns="http://www.w3.org/2000/svg" xmlns:xlink="http://www.w3.org/1999/xlink">
<path d="M40,8.29L31.972,0L16,0C14.409,0 12.883,0.632 11.757,1.757C10.632,2.883 10,4.409 10,6L10,8L6,8C4.409,8 2.883,8.632 1.757,9.757C0.632,10.883 0,12.409 0,14L0,48L32,48L32,38L40,38L40,8.29ZM28,44L4,44L4,14C4,13.47 4.211,12.961 4.586,12.586C4.961,12.211 5.47,12 6,12L10,12L10,38L28,38L28,44ZM14,34L14,6C14,5.47 14.211,4.961 14.586,4.586C14.961,4.211 15.47,4 16,4L28,4L28,12L36,12L36,34L14,34Z" fill="#374957"/>
</svg>
