<svg width="40" height="48" viewBox="0 0 40 48" fill="none" xmlns="http://www.w3.org/2000/svg" xmlns:xlink="http://www.w3.org/1999/xlink">
<path d="M36.778,8.536L31.464,3.222C30.445,2.197 29.233,1.385 27.898,0.832C26.563,0.279 25.131,-0.004 23.686,0L11,0C8.084,0.003 5.288,1.163 3.225,3.225C1.163,5.288 0.003,8.084 0,11L0,37C0.003,39.916 1.163,42.713 3.225,44.775C5.288,46.837 8.084,47.997 11,48L29,48C31.916,47.997 34.712,46.837 36.775,44.775C38.837,42.713 39.997,39.916 40,37L40,16.314C40.004,14.869 39.721,13.437 39.168,12.102C38.615,10.767 37.803,9.555 36.778,8.536L36.778,8.536ZM29,42L11,42C9.674,42 8.402,41.473 7.464,40.536C6.527,39.598 6,38.326 6,37L6,11C6,9.674 6.527,8.402 7.464,7.465C8.402,6.527 9.674,6 11,6L22,6L22,14C22,15.061 22.421,16.078 23.172,16.828C23.922,17.579 24.939,18 26,18L34,18L34,37C34,38.326 33.473,39.598 32.536,40.536C31.598,41.473 30.326,42 29,42ZM30.172,22.932C30.72,23.508 31.017,24.278 30.998,25.074C30.978,25.869 30.644,26.623 30.068,27.172L22.896,34C21.579,35.29 19.806,36.008 17.963,35.999C16.119,35.989 14.354,35.253 13.05,33.95L10,31.24C9.706,30.977 9.466,30.659 9.295,30.304C9.124,29.949 9.024,29.563 9.002,29.17C8.98,28.776 9.035,28.382 9.165,28.009C9.295,27.637 9.497,27.294 9.76,27C10.023,26.706 10.341,26.466 10.696,26.295C11.051,26.124 11.437,26.024 11.83,26.002C12.224,25.98 12.618,26.035 12.991,26.165C13.363,26.295 13.706,26.497 14,26.76L17.172,29.588C17.275,29.709 17.401,29.809 17.543,29.879C17.686,29.95 17.841,29.991 18,30C18.265,30 18.519,29.895 18.706,29.708L25.932,22.828C26.508,22.28 27.278,21.983 28.074,22.002C28.869,22.022 29.623,22.356 30.172,22.932L30.172,22.932Z" fill="#374957"/>
</svg>
