<svg width="48" height="50" viewBox="0 0 48 50" fill="none" xmlns="http://www.w3.org/2000/svg" xmlns:xlink="http://www.w3.org/1999/xlink">
<path d="M13.967,48.014C11.194,48.02 8.482,47.204 6.174,45.667C3.867,44.13 2.067,41.943 1.004,39.382C-0.059,36.822 -0.338,34.003 0.202,31.284C0.743,28.565 2.079,26.067 4.041,24.108L25.241,2.938C27.117,1.057 29.664,-0.001 32.32,-0.004C34.977,-0.007 37.526,1.046 39.407,2.922C41.287,4.798 42.346,7.345 42.349,10.002C42.352,12.658 41.299,15.207 39.423,17.088L18.221,38.256C17.074,39.349 15.551,39.958 13.967,39.958C12.383,39.958 10.859,39.349 9.713,38.256C9.155,37.699 8.712,37.037 8.41,36.309C8.108,35.58 7.953,34.799 7.953,34.011C7.953,33.222 8.108,32.442 8.41,31.713C8.712,30.985 9.155,30.323 9.713,29.766L29.501,10.014L32.337,12.844L12.549,32.6C12.174,32.975 11.963,33.484 11.963,34.014C11.963,34.544 12.174,35.053 12.549,35.428C12.931,35.792 13.439,35.996 13.967,35.996C14.495,35.996 15.003,35.792 15.385,35.428L36.601,14.258C37.727,13.129 38.358,11.6 38.356,10.006C38.354,8.412 37.719,6.884 36.591,5.758C35.462,4.632 33.933,4.001 32.339,4.003C30.745,4.004 29.217,4.639 28.091,5.768L6.877,26.936C5,28.816 3.947,31.365 3.95,34.022C3.952,36.678 5.01,39.225 6.891,41.102C8.771,42.979 11.32,44.031 13.977,44.029C16.633,44.026 19.18,42.968 21.057,41.088L45.099,17.088L47.935,19.918L23.893,43.918C22.589,45.22 21.041,46.252 19.338,46.955C17.635,47.658 15.809,48.018 13.967,48.014L13.967,48.014Z" fill="#374957"/>
</svg>
