<svg width="48" height="48" viewBox="0 0 48 48" fill="none" xmlns="http://www.w3.org/2000/svg" xmlns:xlink="http://www.w3.org/1999/xlink">
<path d="M6.282,14.528L2.718,12.728C3.468,11.317 4.355,9.984 5.368,8.748L8.4,11.362C7.596,12.349 6.887,13.409 6.282,14.528L6.282,14.528ZM4.736,18.292L0.916,17.104C0.458,18.635 0.154,20.208 0.01,21.8L3.99,22.2C4.108,20.876 4.358,19.567 4.736,18.292L4.736,18.292ZM14.574,6.314L12.688,2.786C11.312,3.517 10.009,4.38 8.8,5.362L11.282,8.488C12.305,7.657 13.408,6.929 14.574,6.314L14.574,6.314ZM22.088,4.092L21.726,0.11C20.156,0.253 18.605,0.551 17.094,1L18.228,4.834C19.487,4.46 20.78,4.211 22.088,4.092L22.088,4.092ZM47.898,24C47.846,30.157 45.431,36.059 41.15,40.484C36.869,44.91 31.052,47.521 24.9,47.778C18.748,48.035 12.733,45.918 8.099,41.864C3.464,37.811 0.565,32.131 0,26L8.046,26C7.954,25.337 7.905,24.669 7.898,24C7.895,21.73 8.377,19.484 9.31,17.414C10.243,15.344 11.607,13.497 13.31,11.995C15.013,10.493 17.017,9.372 19.187,8.705C21.358,8.038 23.645,7.842 25.898,8.128L25.898,0.102C31.891,0.608 37.477,3.343 41.551,7.768C45.624,12.193 47.889,17.986 47.898,24L47.898,24ZM27.898,24C27.896,23.301 27.711,22.614 27.359,22.009C27.008,21.405 26.504,20.903 25.898,20.554L25.898,12L21.898,12L21.898,20.556C21.299,20.904 20.802,21.402 20.454,22L13.898,22L13.898,26L20.454,26C20.892,26.763 21.57,27.36 22.383,27.697C23.196,28.034 24.097,28.093 24.947,27.865C25.796,27.637 26.547,27.134 27.081,26.435C27.615,25.736 27.903,24.88 27.9,24L27.898,24Z" fill="#374957"/>
</svg>
