<svg width="40" height="48" viewBox="0 0 40 48" fill="none" xmlns="http://www.w3.org/2000/svg" xmlns:xlink="http://www.w3.org/1999/xlink">
<path d="M34,16L34,14C34,10.287 32.525,6.726 29.899,4.1C27.274,1.475 23.713,0 20,0C16.287,0 12.726,1.475 10.101,4.1C7.475,6.726 6,10.287 6,14L6,16L0,16L0,42C0,43.591 0.632,45.117 1.757,46.243C2.883,47.368 4.409,48 6,48L34,48C35.591,48 37.117,47.368 38.243,46.243C39.368,45.117 40,43.591 40,42L40,16L34,16ZM22,36L18,36L18,28L22,28L22,36ZM30,16L10,16L10,14C10,11.348 11.054,8.804 12.929,6.929C14.804,5.054 17.348,4 20,4C22.652,4 25.196,5.054 27.071,6.929C28.946,8.804 30,11.348 30,14L30,16Z" fill="#374957"/>
</svg>
