<svg width="48" height="48" viewBox="0 0 48 48" fill="none" xmlns="http://www.w3.org/2000/svg" xmlns:xlink="http://www.w3.org/1999/xlink">
<path d="M24,12C21.627,12 19.307,12.704 17.333,14.022C15.36,15.341 13.822,17.215 12.913,19.408C12.005,21.601 11.768,24.013 12.231,26.341C12.694,28.669 13.836,30.807 15.515,32.485C17.193,34.164 19.331,35.306 21.659,35.769C23.987,36.232 26.399,35.995 28.592,35.087C30.785,34.178 32.659,32.64 33.978,30.667C35.296,28.693 36,26.373 36,24C35.997,20.818 34.732,17.768 32.482,15.518C30.232,13.268 27.182,12.003 24,12L24,12ZM30,20.896L23.776,32.92L20.224,31.08L24.924,22L18,22L18,18L30,18L30,20.896ZM24,0C19.253,0 14.613,1.408 10.666,4.045C6.72,6.682 3.643,10.43 1.827,14.816C0.01,19.201 -0.465,24.027 0.461,28.682C1.387,33.338 3.673,37.614 7.029,40.971C10.386,44.327 14.662,46.613 19.318,47.539C23.973,48.465 28.799,47.99 33.184,46.173C37.57,44.357 41.318,41.28 43.955,37.334C46.592,33.387 48,28.747 48,24C47.993,17.637 45.462,11.536 40.963,7.037C36.464,2.538 30.363,0.007 24,0L24,0ZM24,40C20.836,40 17.742,39.062 15.111,37.304C12.48,35.545 10.429,33.047 9.218,30.123C8.007,27.199 7.69,23.982 8.307,20.879C8.925,17.775 10.449,14.924 12.686,12.686C14.924,10.449 17.775,8.925 20.879,8.307C23.982,7.69 27.199,8.007 30.123,9.218C33.047,10.429 35.545,12.48 37.304,15.111C39.062,17.742 40,20.836 40,24C39.995,28.242 38.308,32.309 35.308,35.308C32.309,38.308 28.242,39.995 24,40L24,40Z" fill="#374957"/>
</svg>
