<svg width="48" height="50" viewBox="0 0 48 50" fill="none" xmlns="http://www.w3.org/2000/svg" xmlns:xlink="http://www.w3.org/1999/xlink">
<path d="M38.819,14.052C32.579,16.76 31.787,15.786 26.001,16L26.001,12C26.074,8.086 24.983,4.238 22.865,0.946C22.689,0.648 22.525,0.37 22.381,0.104L18.871,2.02C19.033,2.32 19.219,2.636 19.417,2.974C21.174,5.651 22.075,8.799 22.001,12L22.001,12.818C11.101,9.126 -0.133,18.2 0.001,30C-0.213,42.662 12.835,51.906 24.001,46.4C44.919,55.238 57.587,24.888 38.819,14.052ZM39.067,8.972C36.524,11.069 33.293,12.148 30.001,12C29.753,4.454 34.331,-0.374 41.985,0.016C42.187,3.264 41.144,6.467 39.067,8.972L39.067,8.972Z" fill="#374957"/>
</svg>
