<svg width="48" height="48" viewBox="0 0 48 48" fill="none" xmlns="http://www.w3.org/2000/svg" xmlns:xlink="http://www.w3.org/1999/xlink">
<path d="M0.048,47.952L0.2,45.852C0.352,43.652 1.29,32.476 4.814,28.95C6.711,27.098 9.262,26.069 11.913,26.085C14.564,26.102 17.101,27.163 18.975,29.039C20.848,30.914 21.907,33.453 21.921,36.104C21.935,38.755 20.903,41.304 19.05,43.2C15.526,46.724 4.352,47.66 2.146,47.812L0.048,47.952ZM46.2,1.736C45.033,0.621 43.481,-0.001 41.867,-0.001C40.253,-0.001 38.701,0.621 37.534,1.736L16.504,22.774C18.515,23.458 20.343,24.593 21.848,26.092C23.353,27.59 24.495,29.414 25.188,31.422L46.2,10.4C47.347,9.25 47.991,7.692 47.991,6.068C47.991,4.443 47.347,2.886 46.2,1.736L46.2,1.736Z" fill="#374957"/>
</svg>
