<svg width="48" height="32" viewBox="0 0 48 32" fill="none" xmlns="http://www.w3.org/2000/svg" xmlns:xlink="http://www.w3.org/1999/xlink">
<path d="M22,11C22,11.593 21.824,12.173 21.494,12.667C21.165,13.16 20.696,13.545 20.148,13.772C19.6,13.999 18.997,14.058 18.415,13.942C17.833,13.827 17.298,13.541 16.879,13.121C16.459,12.702 16.173,12.167 16.058,11.585C15.942,11.003 16.001,10.4 16.228,9.852C16.455,9.304 16.84,8.835 17.333,8.506C17.827,8.176 18.407,8 19,8C19.796,8 20.559,8.316 21.121,8.879C21.684,9.441 22,10.204 22,11ZM29,8C28.407,8 27.827,8.176 27.333,8.506C26.84,8.835 26.455,9.304 26.228,9.852C26.001,10.4 25.942,11.003 26.058,11.585C26.173,12.167 26.459,12.702 26.879,13.121C27.298,13.541 27.833,13.827 28.415,13.942C28.997,14.058 29.6,13.999 30.148,13.772C30.696,13.545 31.165,13.16 31.494,12.667C31.824,12.173 32,11.593 32,11C32,10.204 31.684,9.441 31.121,8.879C30.559,8.316 29.796,8 29,8L29,8ZM19,18C18.407,18 17.827,18.176 17.333,18.506C16.84,18.835 16.455,19.304 16.228,19.852C16.001,20.4 15.942,21.003 16.058,21.585C16.173,22.167 16.459,22.702 16.879,23.121C17.298,23.541 17.833,23.827 18.415,23.942C18.997,24.058 19.6,23.999 20.148,23.772C20.696,23.545 21.165,23.16 21.494,22.667C21.824,22.173 22,21.593 22,21C22,20.204 21.684,19.441 21.121,18.879C20.559,18.316 19.796,18 19,18ZM29,18C28.407,18 27.827,18.176 27.333,18.506C26.84,18.835 26.455,19.304 26.228,19.852C26.001,20.4 25.942,21.003 26.058,21.585C26.173,22.167 26.459,22.702 26.879,23.121C27.298,23.541 27.833,23.827 28.415,23.942C28.997,24.058 29.6,23.999 30.148,23.772C30.696,23.545 31.165,23.16 31.494,22.667C31.824,22.173 32,21.593 32,21C32,20.204 31.684,19.441 31.121,18.879C30.559,18.316 29.796,18 29,18ZM48,11L48,21C47.997,23.916 46.837,26.712 44.775,28.775C42.712,30.837 39.916,31.997 37,32L11,32C8.084,31.997 5.288,30.837 3.225,28.775C1.163,26.712 0.003,23.916 0,21L0,11C0.003,8.084 1.163,5.288 3.225,3.225C5.288,1.163 8.084,0.003 11,0L37,0C39.916,0.003 42.712,1.163 44.775,3.225C46.837,5.288 47.997,8.084 48,11L48,11ZM37,26C37.336,26 37.671,25.966 38,25.898L38,6.098C37.671,6.032 37.336,5.999 37,6L11,6C10.664,6 10.329,6.034 10,6.102L10,25.902C10.329,25.968 10.664,26.001 11,26L37,26Z" fill="#374957"/>
</svg>
