<svg width="48" height="50" viewBox="0 0 48 50" fill="none" xmlns="http://www.w3.org/2000/svg" xmlns:xlink="http://www.w3.org/1999/xlink">
<path d="M25.999,0C13.869,0 3.999,8.074 3.999,18C4.018,20.141 4.49,22.254 5.383,24.2C4.674,25.041 4.215,26.064 4.059,27.152C3.903,28.241 4.055,29.352 4.499,30.358C1.787,32.853 0.169,36.318 -0.001,40C-0.032,41.059 0.154,42.113 0.545,43.098C0.936,44.082 1.524,44.977 2.274,45.726C3.023,46.475 3.917,47.063 4.902,47.454C5.886,47.845 6.94,48.031 7.999,48L8.015,44C7.48,44.036 6.943,43.957 6.441,43.769C5.938,43.581 5.482,43.288 5.101,42.91C4.721,42.531 4.426,42.076 4.236,41.574C4.046,41.072 3.965,40.535 3.999,40C4.184,37.364 5.393,34.905 7.367,33.148C9.592,33.804 11.908,34.097 14.225,34.018C14.825,34.018 15.379,34.004 15.911,33.986C19.107,35.32 22.536,36.005 25.999,36C38.129,36 47.999,27.926 47.999,18C47.999,8.074 38.129,0 25.999,0ZM8.579,29.376C8.395,29.193 8.248,28.975 8.148,28.734C8.048,28.494 7.996,28.236 7.996,27.976C7.996,27.716 8.048,27.458 8.148,27.218C8.248,26.977 8.395,26.759 8.579,26.576C8.763,26.391 8.981,26.244 9.221,26.144C9.461,26.044 9.719,25.992 9.979,25.992C10.24,25.992 10.498,26.044 10.738,26.144C10.978,26.244 11.196,26.391 11.379,26.576C12.211,27.63 12.914,28.779 13.473,30C11.819,30.065 10.165,29.855 8.579,29.376L8.579,29.376ZM25.999,32C23.33,31.998 20.683,31.516 18.185,30.576C17.175,28.13 15.834,25.833 14.199,23.752C13.5,23.076 12.648,22.578 11.716,22.3C10.784,22.022 9.799,21.971 8.843,22.152C8.3,20.835 8.013,19.425 7.999,18C7.999,10.282 16.073,4 25.999,4C35.925,4 43.999,10.282 43.999,18C43.999,25.718 35.925,32 25.999,32Z" fill="#374957"/>
</svg>
