<svg width="48" height="48" viewBox="0 0 48 48" fill="none" xmlns="http://www.w3.org/2000/svg" xmlns:xlink="http://www.w3.org/1999/xlink">
<path d="M24,0C19.253,0 14.613,1.408 10.666,4.045C6.72,6.682 3.643,10.43 1.827,14.816C0.01,19.201 -0.465,24.027 0.461,28.682C1.387,33.338 3.673,37.614 7.029,40.971C10.386,44.327 14.662,46.613 19.318,47.539C23.973,48.465 28.799,47.99 33.184,46.173C37.57,44.357 41.318,41.28 43.955,37.334C46.592,33.387 48,28.747 48,24C47.993,17.637 45.462,11.536 40.963,7.037C36.464,2.538 30.363,0.007 24,0L24,0ZM24,44C20.044,44 16.178,42.827 12.889,40.629C9.6,38.432 7.036,35.308 5.522,31.654C4.009,27.999 3.613,23.978 4.384,20.098C5.156,16.219 7.061,12.655 9.858,9.858C12.655,7.061 16.219,5.156 20.098,4.384C23.978,3.613 27.999,4.009 31.654,5.522C35.308,7.036 38.432,9.6 40.629,12.889C42.827,16.178 44,20.044 44,24C43.994,29.303 41.885,34.386 38.136,38.136C34.386,41.885 29.303,43.994 24,44L24,44ZM28,24C28.003,24.703 27.821,25.394 27.472,26.004C27.123,26.614 26.619,27.122 26.012,27.475C25.404,27.829 24.714,28.016 24.011,28.018C23.308,28.02 22.617,27.837 22.008,27.487C21.398,27.137 20.892,26.632 20.539,26.024C20.187,25.416 20.001,24.726 20,24.023C19.999,23.32 20.184,22.629 20.535,22.02C20.886,21.411 21.391,20.905 22,20.554L22,12L26,12L26,20.554C26.606,20.903 27.11,21.405 27.461,22.009C27.812,22.614 27.998,23.301 28,24L28,24Z" fill="#374957"/>
</svg>
