<svg width="48" height="48" viewBox="0 0 48 48" fill="none" xmlns="http://www.w3.org/2000/svg" xmlns:xlink="http://www.w3.org/1999/xlink">
<path d="M2.074,11.778L-0.012,8.378L13.458,0.124L15.542,3.536L2.074,11.778ZM44.548,32.434L36.298,45.8L39.698,47.902L47.948,34.534L44.548,32.434ZM41.848,29.2L32,45.166C31.551,45.926 30.934,46.573 30.195,47.056C29.456,47.54 28.616,47.847 27.74,47.954C27.488,47.985 27.234,48 26.98,48C26.217,48.001 25.462,47.85 24.757,47.557C24.053,47.264 23.413,46.834 22.876,46.292L20.95,44.366C19.12,45.647 16.898,46.242 14.673,46.047C12.448,45.852 10.363,44.879 8.784,43.299C7.205,41.719 6.233,39.634 6.039,37.409C5.845,35.184 6.441,32.961 7.722,31.132L1.706,25.114C1.096,24.504 0.629,23.765 0.339,22.952C0.049,22.14 -0.056,21.272 0.03,20.414C0.117,19.555 0.393,18.726 0.839,17.987C1.286,17.249 1.891,16.618 2.61,16.142L18.134,6.642C21.069,4.761 24.518,3.844 28,4.019C31.481,4.195 34.821,5.454 37.552,7.62L41.336,3.836L44.164,6.664L40.364,10.464C42.439,13.089 43.687,16.271 43.951,19.607C44.216,22.942 43.484,26.281 41.848,29.2L41.848,29.2ZM18.02,41.436L10.636,34.046C10.087,35.08 9.886,36.263 10.063,37.42C10.24,38.577 10.785,39.646 11.618,40.468C12.458,41.266 13.522,41.787 14.667,41.96C15.812,42.133 16.983,41.95 18.02,41.436L18.02,41.436ZM36.26,11.8C34.197,9.721 31.483,8.412 28.571,8.092C25.659,7.773 22.725,8.462 20.26,10.044L4.756,19.516C4.544,19.664 4.367,19.857 4.238,20.082C4.109,20.306 4.032,20.556 4.01,20.814C3.981,21.083 4.014,21.355 4.104,21.61C4.195,21.865 4.342,22.096 4.534,22.286L25.706,43.464C25.9,43.664 26.139,43.815 26.403,43.906C26.667,43.996 26.948,44.023 27.224,43.984C27.501,43.951 27.765,43.854 27.998,43.701C28.23,43.547 28.424,43.343 28.564,43.102L38.404,27.156C39.761,24.71 40.286,21.89 39.899,19.12C39.512,16.35 38.235,13.78 36.26,11.8L36.26,11.8Z" fill="#374957"/>
</svg>
