<svg width="48" height="48" viewBox="0 0 48 48" fill="none" xmlns="http://www.w3.org/2000/svg" xmlns:xlink="http://www.w3.org/1999/xlink">
<path d="M14.186,22.142L13.97,22.086L30.2,17.8L25.972,34L22.534,25.458L14.186,22.142ZM48,24C48,28.747 46.592,33.387 43.955,37.334C41.318,41.28 37.57,44.357 33.184,46.173C28.799,47.99 23.973,48.465 19.318,47.539C14.662,46.613 10.386,44.327 7.029,40.971C3.673,37.614 1.387,33.338 0.461,28.682C-0.465,24.027 0.01,19.201 1.827,14.816C3.643,10.43 6.72,6.682 10.666,4.045C14.613,1.408 19.253,0 24,0C30.363,0.007 36.464,2.538 40.963,7.037C45.462,11.536 47.993,17.637 48,24ZM35.8,12.2L12.922,18.226C12.081,18.455 11.339,18.955 10.811,19.649C10.282,20.342 9.997,21.19 10,22.062C9.98,22.903 10.233,23.728 10.721,24.413C11.209,25.098 11.906,25.607 12.708,25.862L19.466,28.546L22.164,35.226C22.419,36.035 22.926,36.741 23.611,37.24C24.297,37.739 25.124,38.006 25.972,38L26,38C26.877,38 27.729,37.71 28.424,37.175C29.12,36.641 29.619,35.892 29.844,35.044L35.8,12.2Z" fill="#374957"/>
</svg>
