<svg width="48" height="50" viewBox="0 0 48 50" fill="none" xmlns="http://www.w3.org/2000/svg" xmlns:xlink="http://www.w3.org/1999/xlink">
<path d="M20,30C20,30.396 19.883,30.782 19.663,31.111C19.443,31.44 19.131,31.697 18.765,31.848C18.4,31.999 17.998,32.039 17.61,31.962C17.222,31.885 16.866,31.694 16.586,31.414C16.306,31.135 16.116,30.778 16.038,30.39C15.961,30.002 16.001,29.6 16.152,29.235C16.304,28.869 16.56,28.557 16.889,28.337C17.218,28.117 17.605,28 18,28C18.53,28 19.039,28.211 19.414,28.586C19.789,28.961 20,29.47 20,30ZM26.906,23.922L35.386,15.522C37.152,17.719 38.072,20.476 37.979,23.293C37.887,26.109 36.788,28.8 34.882,30.876C34.098,31.66 33.189,32.309 32.192,32.796C32.139,32.819 32.092,32.856 32.057,32.903C32.022,32.949 31.999,33.004 31.992,33.062C32.109,35.006 31.822,36.952 31.149,38.779C30.476,40.606 29.432,42.274 28.082,43.677C26.733,45.081 25.107,46.19 23.308,46.934C21.509,47.678 19.575,48.041 17.628,48C12.977,47.945 8.537,46.051 5.278,42.732C-1.27,36.188 -1.784,26.052 4.128,20.132C5.545,18.735 7.236,17.648 9.096,16.94C10.955,16.232 12.941,15.919 14.928,16.02C15.042,15.981 15.138,15.903 15.2,15.8C15.687,14.804 16.336,13.896 17.12,13.112C19.213,11.196 21.927,10.099 24.763,10.021C27.599,9.943 30.369,10.89 32.564,12.688L24.094,21.074L26.906,23.922ZM13.906,39.086L8.906,34.086L6.086,36.914L11.086,41.914L13.906,39.086ZM24,30C24,28.813 23.648,27.653 22.989,26.667C22.33,25.68 21.393,24.911 20.296,24.457C19.2,24.003 17.993,23.884 16.83,24.115C15.666,24.347 14.597,24.918 13.757,25.758C12.918,26.597 12.347,27.666 12.115,28.83C11.884,29.994 12.003,31.2 12.457,32.296C12.911,33.393 13.68,34.33 14.667,34.989C15.653,35.648 16.813,36 18,36C19.591,36 21.118,35.368 22.243,34.243C23.368,33.118 24,31.591 24,30L24,30ZM46.964,1.036C46.636,0.708 46.246,0.447 45.817,0.269C45.388,0.092 44.928,0 44.464,0C44,0 43.54,0.092 43.111,0.269C42.682,0.447 42.292,0.708 41.964,1.036L38,5L38,7.312L32.564,12.692C33.093,13.071 33.593,13.487 34.062,13.938C34.543,14.437 34.986,14.972 35.386,15.538L40.97,10L43,10L46.964,6.036C47.293,5.708 47.553,5.318 47.731,4.889C47.909,4.46 48,4.001 48,3.536C48,3.072 47.909,2.612 47.731,2.183C47.553,1.754 47.293,1.364 46.964,1.036L46.964,1.036Z" fill="#374957"/>
</svg>
