<svg width="48" height="44" viewBox="0 0 48 44" fill="none" xmlns="http://www.w3.org/2000/svg" xmlns:xlink="http://www.w3.org/1999/xlink">
<path d="M42,0L6,0C4.409,0 2.883,0.633 1.757,1.758C0.632,2.883 0,4.409 0,6L0,44L48,44L48,6C48,4.409 47.368,2.883 46.243,1.758C45.117,0.633 43.591,0 42,0L42,0ZM6,4L42,4C42.53,4 43.039,4.211 43.414,4.586C43.789,4.961 44,5.47 44,6L44,7.334L28.244,23.092C27.117,24.215 25.591,24.845 24,24.845C22.409,24.845 20.883,24.215 19.756,23.092L4,7.334L4,6C4,5.47 4.211,4.961 4.586,4.586C4.961,4.211 5.47,4 6,4L6,4ZM4,40L4,13L16.928,25.92C18.805,27.793 21.349,28.844 24,28.844C26.651,28.844 29.195,27.793 31.072,25.92L44,13L44,40L4,40Z" fill="#374957"/>
</svg>
