<svg width="48" height="48" viewBox="0 0 48 48" fill="none" xmlns="http://www.w3.org/2000/svg" xmlns:xlink="http://www.w3.org/1999/xlink">
<path d="M38,28.014C38,25.71 37.432,23.443 36.346,21.411C35.26,19.38 33.69,17.648 31.774,16.37C29.859,15.091 27.657,14.304 25.365,14.079C23.072,13.855 20.76,14.199 18.633,15.082C16.505,15.965 14.629,17.36 13.169,19.142C11.71,20.923 10.713,23.038 10.266,25.297C9.819,27.557 9.937,29.892 10.608,32.095C11.28,34.298 12.485,36.302 14.116,37.928L24,47.6L33.9,37.918C35.205,36.62 36.239,35.077 36.943,33.377C37.647,31.677 38.006,29.854 38,28.014ZM24,42L16.928,35.084C15.53,33.686 14.578,31.905 14.192,29.966C13.806,28.028 14.003,26.018 14.758,24.191C15.514,22.364 16.794,20.802 18.436,19.703C20.079,18.603 22.011,18.015 23.988,18.013C25.965,18.01 27.898,18.594 29.543,19.69C31.188,20.786 32.472,22.345 33.231,24.17C33.991,25.995 34.193,28.004 33.811,29.944C33.429,31.884 32.481,33.667 31.086,35.068L24,42ZM24,22C22.813,22 21.653,22.352 20.667,23.011C19.68,23.67 18.911,24.607 18.457,25.704C18.003,26.8 17.884,28.006 18.115,29.17C18.347,30.334 18.918,31.403 19.757,32.242C20.596,33.081 21.666,33.653 22.829,33.884C23.993,34.116 25.2,33.997 26.296,33.543C27.392,33.089 28.33,32.32 28.989,31.333C29.648,30.346 30,29.186 30,28C30,26.408 29.368,24.882 28.243,23.757C27.117,22.632 25.591,22 24,22ZM48,20.092L48,48L29.306,48L33.4,44L44,44L44,20.086C44.001,19.782 43.932,19.482 43.799,19.209C43.666,18.936 43.472,18.698 43.232,18.512L25.232,4.424C24.88,4.149 24.447,3.999 24,3.999C23.553,3.999 23.12,4.149 22.768,4.424L4.768,18.508C4.528,18.694 4.334,18.934 4.2,19.207C4.067,19.481 3.999,19.781 4,20.086L4,44L14.6,44L18.69,48L0,48L0,20.086C-0.002,19.174 0.204,18.275 0.603,17.456C1.002,16.636 1.583,15.92 2.302,15.36L20.302,1.276C21.358,0.449 22.661,-0.001 24.002,-0.001C25.343,-0.001 26.646,0.449 27.702,1.276L45.702,15.364C46.42,15.923 47.001,16.64 47.399,17.458C47.797,18.277 48.003,19.175 48,20.086L48,20.092Z" fill="#374957"/>
</svg>
