<svg width="48" height="50" viewBox="0 0 48 50" fill="none" xmlns="http://www.w3.org/2000/svg" xmlns:xlink="http://www.w3.org/1999/xlink">
<path d="M48,7.882C48.011,6.842 47.813,5.811 47.418,4.849C47.023,3.887 46.44,3.014 45.702,2.282C44.238,0.829 42.262,0.008 40.2,-0.004C38.137,-0.017 36.152,0.779 34.67,2.214L14.328,22.066C12.702,22.014 11.082,22.295 9.569,22.893C8.055,23.49 6.68,24.391 5.528,25.54C2.294,28.778 0.492,37.084 0.07,40.014C-0.074,41.008 -0.002,42.022 0.281,42.986C0.563,43.95 1.049,44.843 1.706,45.603C2.363,46.363 3.176,46.973 4.089,47.392C5.003,47.81 5.995,48.028 7,48.03C7.343,48.03 7.686,48.005 8.026,47.956C10.952,47.536 19.256,45.736 22.496,42.496C23.756,41.226 24.714,39.69 25.299,38C25.885,36.31 26.083,34.51 25.878,32.734L45.638,13.452C46.383,12.728 46.976,11.862 47.382,10.905C47.788,9.949 47.998,8.921 48,7.882L48,7.882ZM18.246,38.254C16.942,39.556 11.554,41.386 7.164,42.018C7.007,42.042 6.846,42.029 6.695,41.98C6.544,41.931 6.407,41.847 6.295,41.734C6.182,41.622 6.098,41.485 6.048,41.334C5.999,41.183 5.986,41.023 6.01,40.866C6.642,36.466 8.472,31.086 9.774,29.782C10.899,28.66 12.422,28.031 14.01,28.031C15.598,28.031 17.121,28.66 18.246,29.782C18.926,30.473 19.426,31.32 19.702,32.25C19.738,32.495 19.805,32.734 19.902,32.962C20.073,33.912 20.012,34.889 19.723,35.811C19.435,36.732 18.928,37.57 18.246,38.254L18.246,38.254ZM41.446,9.156L23.446,26.714C23.152,26.302 22.832,25.91 22.488,25.54C21.965,25.022 21.395,24.553 20.786,24.14L38.86,6.512C39.209,6.173 39.677,5.985 40.163,5.988C40.649,5.991 41.115,6.185 41.46,6.528C41.633,6.7 41.77,6.906 41.863,7.132C41.957,7.358 42.004,7.6 42.002,7.845C42.001,8.089 41.951,8.331 41.855,8.556C41.759,8.781 41.619,8.985 41.444,9.156L41.446,9.156Z" fill="#374957"/>
</svg>
