<svg width="48" height="48" viewBox="0 0 48 48" fill="none" xmlns="http://www.w3.org/2000/svg" xmlns:xlink="http://www.w3.org/1999/xlink">
<path d="M46.242,14.244L41.414,9.414L45.414,5.414L42.586,2.586L38.586,6.586L33.758,1.758C33.201,1.201 32.539,0.759 31.811,0.457C31.083,0.156 30.303,0 29.515,0C28.727,0 27.946,0.156 27.218,0.457C26.49,0.759 25.829,1.201 25.272,1.758L19.616,7.414L28.686,16.486L16.486,28.686L7.414,19.616L1.758,25.272C0.633,26.397 0.001,27.923 0.001,29.514C0.001,31.105 0.633,32.631 1.758,33.756L6.586,38.586L2.586,42.586L5.414,45.414L9.414,41.414L14.242,46.242C14.799,46.799 15.46,47.241 16.188,47.543C16.916,47.845 17.697,48 18.485,48C19.273,48 20.053,47.845 20.781,47.543C21.509,47.241 22.171,46.799 22.728,46.242L28.384,40.586L19.314,31.514L31.514,19.314L40.584,28.384L46.24,22.728C47.365,21.603 47.996,20.077 47.996,18.486C47.996,16.895 47.365,15.369 46.24,14.244L46.242,14.244ZM19.9,43.414C19.714,43.6 19.493,43.748 19.251,43.848C19.008,43.949 18.748,44.001 18.485,44.001C18.222,44.001 17.962,43.949 17.719,43.848C17.476,43.748 17.255,43.6 17.07,43.414L4.586,30.928C4.211,30.553 4,30.044 4,29.514C4,28.984 4.211,28.475 4.586,28.1L7.414,25.272L22.728,40.586L19.9,43.414ZM43.414,19.898L40.586,22.728L25.272,7.414L28.1,4.586C28.285,4.4 28.506,4.253 28.749,4.152C28.992,4.051 29.252,4 29.515,4C29.778,4 30.038,4.051 30.281,4.152C30.523,4.253 30.744,4.4 30.93,4.586L43.414,17.072C43.788,17.447 43.998,17.955 43.998,18.485C43.998,19.015 43.788,19.523 43.414,19.898L43.414,19.898Z" fill="#374957"/>
</svg>
