<svg width="48" height="48" viewBox="0 0 48 48" fill="none" xmlns="http://www.w3.org/2000/svg" xmlns:xlink="http://www.w3.org/1999/xlink">
<path d="M48,32L48,28L44,28L44,6C44,4.409 43.368,2.883 42.243,1.757C41.117,0.632 39.591,0 38,0L10,0C8.409,0 6.883,0.632 5.757,1.757C4.632,2.883 4,4.409 4,6L4,28L0,28L0,32L22,32L22,40L18,40C16.409,40 14.883,40.632 13.757,41.757C12.632,42.883 12,44.409 12,46L12,48L16,48L16,46C16,45.47 16.211,44.961 16.586,44.586C16.961,44.211 17.47,44 18,44L30,44C30.53,44 31.039,44.211 31.414,44.586C31.789,44.961 32,45.47 32,46L32,48L36,48L36,46C36,44.409 35.368,42.883 34.243,41.757C33.117,40.632 31.591,40 30,40L26,40L26,32L48,32ZM8,6C8,5.47 8.211,4.961 8.586,4.586C8.961,4.211 9.47,4 10,4L38,4C38.53,4 39.039,4.211 39.414,4.586C39.789,4.961 40,5.47 40,6L40,28L8,28L8,6Z" fill="#374957"/>
</svg>
