<svg width="48" height="48" viewBox="0 0 48 48" fill="none" xmlns="http://www.w3.org/2000/svg" xmlns:xlink="http://www.w3.org/1999/xlink">
<path d="M45.734,27.999C41.911,27.847 38.11,28.64 34.668,30.309C31.226,31.978 28.248,34.47 26,37.565L26,27.837C28.795,27.359 31.33,25.909 33.16,23.743C34.99,21.577 35.995,18.835 36,15.999C36,10.399 32.112,5.681 28.312,1.799C27.16,0.672 25.611,0.04 23.999,0.04C22.387,0.04 20.838,0.672 19.686,1.799C15.886,5.671 12,10.399 12,15.999C12.002,18.836 13.007,21.581 14.837,23.749C16.667,25.917 19.204,27.369 22,27.847L22,37.575C19.753,34.478 16.776,31.984 13.333,30.314C9.891,28.643 6.089,27.848 2.266,27.999L0,27.999L0.282,30.251C1.856,42.867 13.718,47.153 21.508,47.901C23.167,48.027 24.833,48.027 26.492,47.901C34.282,47.155 46.142,42.869 47.718,30.251L48,27.999L45.734,27.999ZM4.722,32.121C8.263,32.369 11.666,33.592 14.556,35.653C17.445,37.714 19.709,40.534 21.096,43.801C16.324,43.187 7.17,40.867 4.722,32.121ZM16,15.999C16,11.847 19.62,7.647 22.856,4.341C21.163,8.707 20.198,13.321 20,17.999L24,17.999C24.199,13.815 25.073,9.69 26.586,5.783C29.42,8.821 32,12.323 32,15.999C32,18.121 31.157,20.156 29.657,21.656C28.157,23.157 26.122,23.999 24,23.999C21.878,23.999 19.843,23.157 18.343,21.656C16.843,20.156 16,18.121 16,15.999L16,15.999ZM26.904,43.799C28.292,40.533 30.555,37.713 33.445,35.651C36.334,33.59 39.737,32.368 43.278,32.119C40.83,40.867 31.676,43.187 26.904,43.799Z" fill="#374957"/>
</svg>
