<svg width="46" height="50" viewBox="0 0 46 50" fill="none" xmlns="http://www.w3.org/2000/svg" xmlns:xlink="http://www.w3.org/1999/xlink">
<path d="M40.076,8.904L41.836,10.664L44.664,7.836L38.29,1.46L35.46,4.29L37.244,6.072L35.148,8.4C31.904,5.959 28.043,4.471 24,4.102L24,0L20,0L20,4.102C15.957,4.471 12.096,5.959 8.852,8.4L6.756,6.072L8.664,4.164L5.836,1.336L-0.664,7.836L2.164,10.664L3.924,8.904L5.88,11.078C2.966,14.216 1.031,18.135 0.312,22.357C-0.407,26.578 0.122,30.917 1.833,34.842C3.545,38.767 6.365,42.108 9.947,44.454C13.529,46.8 17.718,48.049 22,48.049C26.282,48.049 30.471,46.8 34.053,44.454C37.635,42.108 40.455,38.767 42.166,34.842C43.878,30.917 44.407,26.578 43.688,22.357C42.969,18.135 41.034,14.216 38.12,11.078L40.076,8.904ZM22,30C21.12,30.003 20.264,29.715 19.565,29.181C18.866,28.647 18.363,27.896 18.135,27.047C17.907,26.197 17.966,25.296 18.303,24.483C18.641,23.67 19.237,22.992 20,22.554L20,12L24,12L24,22.554C24.763,22.992 25.359,23.67 25.697,24.483C26.034,25.296 26.093,26.197 25.865,27.047C25.637,27.896 25.134,28.647 24.435,29.181C23.736,29.715 22.88,30.003 22,30L22,30Z" fill="#374957"/>
</svg>
