<svg width="32" height="48" viewBox="0 0 32 48" fill="none" xmlns="http://www.w3.org/2000/svg" xmlns:xlink="http://www.w3.org/1999/xlink">
<path d="M32,15.999C32.002,12.919 31.116,9.904 29.447,7.316C27.778,4.727 25.398,2.676 22.592,1.407C19.785,0.138 16.673,-0.294 13.627,0.163C10.581,0.62 7.732,1.946 5.422,3.982C3.111,6.018 1.437,8.678 0.601,11.642C-0.235,14.606 -0.198,17.748 0.708,20.692C1.613,23.635 3.349,26.255 5.707,28.236C8.065,30.217 10.944,31.476 14,31.861L14,37.999L8,37.999L8,41.999L14,41.999L14,47.999L18,47.999L18,41.999L24,41.999L24,37.999L18,37.999L18,31.861C21.863,31.37 25.415,29.49 27.992,26.57C30.569,23.651 31.994,19.893 32,15.999Z" fill="#374957"/>
</svg>
