<svg width="48" height="48" viewBox="0 0 48 48" fill="none" xmlns="http://www.w3.org/2000/svg" xmlns:xlink="http://www.w3.org/1999/xlink">
<path d="M45.93,12.038C46.585,11.383 47.105,10.606 47.46,9.75C47.814,8.894 47.997,7.977 47.997,7.051C47.997,6.124 47.814,5.207 47.46,4.352C47.105,3.496 46.585,2.718 45.93,2.064C44.588,0.783 42.803,0.068 40.948,0.068C39.092,0.068 37.308,0.783 35.966,2.064L33.094,4.94C31.426,6.61 27.658,6.14 25.126,4.74C23.811,4.021 22.281,3.802 20.818,4.124C19.355,4.447 18.058,5.288 17.167,6.492C16.276,7.697 15.851,9.183 15.971,10.676C16.091,12.17 16.748,13.569 17.82,14.616L19.974,16.77L4.344,32.878C3.261,33.947 2.511,35.307 2.184,36.794C1.857,38.281 1.967,39.83 2.502,41.256L0.878,42.878C0.315,43.44 -0.001,44.204 -0.001,45C-0.001,45.796 0.315,46.559 0.878,47.122C1.441,47.684 2.204,48.001 3,48.001C3.796,48.001 4.559,47.684 5.122,47.122L6.534,45.708C8.028,46.447 9.718,46.695 11.362,46.417C13.006,46.139 14.52,45.349 15.688,44.16L31.288,28.084L33.384,30.18C34.432,31.245 35.829,31.896 37.319,32.013C38.809,32.13 40.291,31.705 41.492,30.816C42.694,29.927 43.533,28.634 43.857,27.175C44.181,25.716 43.967,24.189 43.254,22.876C41.854,20.342 41.39,16.576 43.054,14.906L45.93,12.038ZM11.414,39.95C11.226,40.133 11.004,40.279 10.76,40.376C10.516,40.474 10.255,40.523 9.992,40.52C9.729,40.518 9.469,40.463 9.228,40.36C8.986,40.256 8.767,40.107 8.583,39.919C8.399,39.731 8.254,39.508 8.156,39.264C8.058,39.02 8.009,38.76 8.012,38.497C8.015,38.234 8.07,37.974 8.173,37.732C8.276,37.491 8.426,37.271 8.614,37.088L24.214,21.012L27.04,23.84L11.414,39.95ZM41.692,7.8L38.818,10.664C34.95,14.53 35.478,21.188 37.928,25.938C37.888,25.977 37.833,25.999 37.777,25.999C37.721,25.999 37.666,25.977 37.626,25.938L22.062,10.374C22,10.302 22,10.142 22.232,10C26.81,12.52 33.47,13.048 37.336,9.182L40.214,6.304C40.413,6.12 40.676,6.021 40.947,6.026C41.218,6.032 41.476,6.143 41.667,6.335C41.858,6.527 41.968,6.785 41.972,7.056C41.977,7.327 41.876,7.589 41.692,7.788L41.692,7.8Z" fill="#374957"/>
</svg>
