<svg width="48" height="48" viewBox="0 0 48 48" fill="none" xmlns="http://www.w3.org/2000/svg" xmlns:xlink="http://www.w3.org/1999/xlink">
<path d="M46.587,22.141C46.038,21.491 45.357,20.965 44.589,20.599C43.822,20.232 42.985,20.033 42.135,20.015C43.178,16.113 43.804,12.112 44.001,8.079L44.087,5.901L41.909,5.999C39.453,6.13 37.007,6.408 34.585,6.831C35.559,4.687 36.043,2.353 36.001,-0.001L32.001,-0.001C32.023,1.541 31.751,3.074 31.201,4.515C30.821,3.704 30.304,2.965 29.675,2.329C28.277,0.934 26.41,0.109 24.438,0.013C22.466,-0.084 20.528,0.557 19.001,1.809C17.519,0.583 15.642,-0.063 13.72,-0.009C11.797,0.045 9.96,0.795 8.548,2.102C7.137,3.408 6.249,5.183 6.047,7.096C5.846,9.008 6.346,10.929 7.455,12.501C6.324,13.468 5.428,14.679 4.834,16.043C4.239,17.407 3.962,18.888 4.023,20.375C2.687,20.825 1.556,21.737 0.834,22.947C0.111,24.157 -0.155,25.585 0.083,26.975C0.766,31.39 2.488,35.58 5.106,39.201C7.725,42.821 11.165,45.768 15.145,47.799L15.545,47.999L32.447,47.999L32.847,47.799C36.828,45.767 40.269,42.818 42.887,39.195C45.506,35.573 47.226,31.38 47.907,26.963C48.051,26.111 48.008,25.239 47.78,24.406C47.552,23.573 47.145,22.8 46.587,22.141L46.587,22.141ZM37.947,19.999L32.829,19.999L35.415,17.413L32.585,14.585L27.171,19.999L24.073,19.999C23.927,18.947 24.027,17.875 24.366,16.869C24.705,15.862 25.273,14.948 26.025,14.199C28.289,11.935 34.953,10.631 39.839,10.167C39.571,13.503 38.936,16.801 37.947,19.999L37.947,19.999ZM8.001,19.999C8.001,18.407 8.633,16.881 9.758,15.756C10.883,14.631 12.409,13.999 14.001,13.999C15.592,13.999 17.118,14.631 18.243,15.756C19.369,16.881 20.001,18.407 20.001,19.999L8.001,19.999ZM11.157,5.157C11.898,4.417 12.903,4.002 13.95,4.002C14.997,4.002 16.001,4.417 16.743,5.157C16.933,5.357 18.999,7.617 18.999,7.617C18.999,7.617 21.067,5.349 21.255,5.159C21.841,4.563 22.602,4.171 23.427,4.038C24.251,3.906 25.097,4.04 25.84,4.422C26.583,4.804 27.185,5.413 27.557,6.161C27.93,6.908 28.054,7.756 27.911,8.579C25.257,9.388 22.993,11.142 21.545,13.509C20.28,12.014 18.598,10.931 16.714,10.399C14.831,9.866 12.831,9.908 10.971,10.519C10.32,9.766 9.978,8.795 10.012,7.801C10.047,6.807 10.456,5.862 11.157,5.157L11.157,5.157ZM43.971,26.303C43.383,30.004 41.957,33.522 39.803,36.589C37.649,39.655 34.823,42.19 31.541,43.999L16.459,43.999C13.176,42.19 10.35,39.655 8.196,36.588C6.042,33.521 4.616,30.002 4.029,26.301C3.981,26.021 3.996,25.735 4.071,25.462C4.147,25.189 4.282,24.936 4.467,24.721C4.657,24.495 4.895,24.313 5.163,24.188C5.431,24.063 5.723,23.999 6.019,23.999L41.981,23.999C42.276,23.999 42.568,24.063 42.837,24.188C43.105,24.313 43.342,24.495 43.533,24.721C43.717,24.936 43.852,25.19 43.928,25.463C44.003,25.736 44.018,26.023 43.971,26.303Z" fill="#374957"/>
</svg>
