<svg width="42" height="48" viewBox="0 0 42 48" fill="none" xmlns="http://www.w3.org/2000/svg" xmlns:xlink="http://www.w3.org/1999/xlink">
<path d="M33.156,18.106L26,16.674L26,8C26,5.878 25.157,3.843 23.657,2.343C22.157,0.843 20.122,0 18,0C15.878,0 13.844,0.843 12.343,2.343C10.843,3.843 10,5.878 10,8L10,16.9L2.556,25.946C0.83,27.967 -0.074,30.562 0.023,33.218C0.12,35.874 1.211,38.397 3.08,40.286L7.48,44.734C8.505,45.765 9.724,46.584 11.065,47.145C12.407,47.705 13.846,47.996 15.3,48L31,48C33.916,47.997 36.713,46.837 38.775,44.775C40.837,42.712 41.997,39.916 42,37L42,28.892C41.995,26.35 41.112,23.888 39.5,21.923C37.889,19.957 35.648,18.609 33.156,18.106L33.156,18.106ZM36,37C36,38.326 35.473,39.598 34.536,40.536C33.598,41.473 32.326,42 31,42L15.3,42C13.965,41.996 12.686,41.462 11.744,40.516L7.344,36.056C6.532,35.23 6.062,34.128 6.027,32.97C5.992,31.812 6.395,30.683 7.156,29.81L10,26.342L10,33C10,33.796 10.316,34.559 10.879,35.121C11.441,35.684 12.204,36 13,36C13.796,36 14.559,35.684 15.121,35.121C15.684,34.559 16,33.796 16,33L16,8C16,7.47 16.211,6.961 16.586,6.586C16.961,6.211 17.47,6 18,6C18.531,6 19.039,6.211 19.414,6.586C19.789,6.961 20,7.47 20,8L20,19.132C20,19.826 20.24,20.498 20.68,21.034C21.12,21.571 21.732,21.938 22.412,22.074L31.98,23.988C33.112,24.217 34.131,24.831 34.863,25.724C35.596,26.618 35.997,27.737 36,28.892L36,37Z" fill="#374957"/>
</svg>
