<svg width="48" height="48" viewBox="0 0 48 48" fill="none" xmlns="http://www.w3.org/2000/svg" xmlns:xlink="http://www.w3.org/1999/xlink">
<path d="M44.612,15.654L31.522,3.114C29.534,1.127 26.841,0.007 24.031,0C21.22,-0.008 18.521,1.096 16.522,3.072L3.388,15.654C2.319,16.683 1.468,17.917 0.886,19.283C0.304,20.648 0.002,22.116 0,23.6L0,37C0.003,39.917 1.163,42.713 3.225,44.775C5.288,46.837 8.084,47.997 11,48L37,48C39.916,47.997 42.712,46.837 44.775,44.775C46.837,42.713 47.997,39.917 48,37L48,23.6C47.998,22.116 47.696,20.648 47.114,19.283C46.532,17.917 45.681,16.683 44.612,15.654L44.612,15.654ZM20.72,7.36C21.156,6.929 21.672,6.587 22.24,6.356C22.808,6.124 23.416,6.007 24.029,6.011C24.642,6.014 25.248,6.139 25.813,6.378C26.378,6.617 26.89,6.965 27.32,7.402L38.084,17.714L27.532,28.536C26.579,29.446 25.313,29.953 23.996,29.953C22.679,29.953 21.413,29.446 20.46,28.536L9.774,17.846L20.72,7.36ZM42,37C42,38.326 41.473,39.598 40.536,40.536C39.598,41.474 38.326,42 37,42L11,42C9.674,42 8.402,41.474 7.464,40.536C6.527,39.598 6,38.326 6,37L6,23.6C6.001,23.283 6.034,22.966 6.098,22.654L16.222,32.78C18.296,34.836 21.099,35.987 24.018,35.982C26.938,35.977 29.737,34.817 31.804,32.754L41.852,22.452C41.946,22.828 41.996,23.213 42,23.6L42,37Z" fill="#374957"/>
</svg>
