<svg width="48" height="50" viewBox="0 0 48 50" fill="none" xmlns="http://www.w3.org/2000/svg" xmlns:xlink="http://www.w3.org/1999/xlink">
<path d="M45,38L30.298,38C29.607,36.557 28.443,35.393 27,34.702L27,30L33,30C35.386,29.997 37.674,29.048 39.361,27.361C41.048,25.674 41.997,23.386 42,21L42,11C42,9.143 41.263,7.363 39.95,6.05C38.637,4.738 36.857,4 35,4L24.932,4L19.88,0.528C19.38,0.184 18.788,0 18.182,0L13,0C11.143,0 9.363,0.737 8.05,2.05C6.737,3.363 6,5.143 6,7L6,21C6.003,23.386 6.952,25.674 8.639,27.361C10.326,29.048 12.614,29.997 15,30L21,30L21,34.702C19.557,35.393 18.393,36.557 17.702,38L3,38C2.204,38 1.441,38.316 0.879,38.879C0.316,39.441 0,40.204 0,41C0,41.796 0.316,42.559 0.879,43.121C1.441,43.684 2.204,44 3,44L17.702,44C18.263,45.197 19.154,46.209 20.27,46.919C21.385,47.628 22.68,48.004 24.002,48.004C25.324,48.004 26.619,47.628 27.734,46.919C28.85,46.209 29.741,45.197 30.302,44L45,44C45.796,44 46.559,43.684 47.121,43.121C47.684,42.559 48,41.796 48,41C48,40.204 47.684,39.441 47.121,38.879C46.559,38.316 45.796,38 45,38ZM15,24C14.204,24 13.441,23.684 12.879,23.121C12.316,22.559 12,21.796 12,21L12,14L36,14L36,21C36,21.796 35.684,22.559 35.121,23.121C34.559,23.684 33.796,24 33,24L15,24Z" fill="#374957"/>
</svg>
