<svg width="48" height="48" viewBox="0 0 48 48" fill="none" xmlns="http://www.w3.org/2000/svg" xmlns:xlink="http://www.w3.org/1999/xlink">
<path d="M24,-0.026L0.816,39.2C0.291,40.085 0.01,41.094 0.001,42.123C-0.008,43.152 0.256,44.165 0.766,45.059C1.276,45.953 2.013,46.696 2.904,47.213C3.794,47.729 4.805,48.001 5.834,48L42.166,48C43.195,48.001 44.206,47.729 45.096,47.213C45.986,46.696 46.723,45.953 47.233,45.059C47.743,44.165 48.007,43.152 47.998,42.123C47.99,41.094 47.709,40.085 47.184,39.2L24,-0.026ZM18,44L24,33.838L30,44L18,44ZM43.76,43.078C43.602,43.36 43.372,43.595 43.092,43.757C42.813,43.919 42.495,44.003 42.172,44L34.652,44L24,25.974L13.348,44L5.834,44C5.511,44.001 5.195,43.916 4.916,43.754C4.637,43.592 4.405,43.36 4.246,43.08C4.086,42.8 4.003,42.482 4.005,42.16C4.008,41.838 4.095,41.522 4.26,41.244L24,7.838L43.74,41.238C43.907,41.515 43.997,41.832 44,42.156C44.002,42.48 43.917,42.799 43.754,43.078L43.76,43.078Z" fill="#374957"/>
</svg>
