<svg width="40" height="48" viewBox="0 0 40 48" fill="none" xmlns="http://www.w3.org/2000/svg" xmlns:xlink="http://www.w3.org/1999/xlink">
<path d="M29,29C29,29.796 28.684,30.559 28.121,31.121C27.559,31.684 26.796,32 26,32L23,32L23,35C23,35.796 22.684,36.559 22.121,37.121C21.559,37.684 20.796,38 20,38C19.204,38 18.441,37.684 17.879,37.121C17.316,36.559 17,35.796 17,35L17,32L14,32C13.204,32 12.441,31.684 11.879,31.121C11.316,30.559 11,29.796 11,29C11,28.204 11.316,27.441 11.879,26.879C12.441,26.316 13.204,26 14,26L17,26L17,23C17,22.204 17.316,21.441 17.879,20.879C18.441,20.316 19.204,20 20,20C20.796,20 21.559,20.316 22.121,20.879C22.684,21.441 23,22.204 23,23L23,26L26,26C26.796,26 27.559,26.316 28.121,26.879C28.684,27.441 29,28.204 29,29ZM40,16.314L40,37C39.997,39.916 38.837,42.712 36.775,44.775C34.712,46.837 31.916,47.997 29,48L11,48C8.084,47.997 5.288,46.837 3.225,44.775C1.163,42.712 0.003,39.916 0,37L0,11C0.003,8.084 1.163,5.288 3.225,3.225C5.288,1.163 8.084,0.003 11,0L23.686,0C25.131,-0.004 26.563,0.279 27.898,0.832C29.233,1.385 30.445,2.197 31.464,3.222L36.778,8.536C37.803,9.555 38.615,10.767 39.168,12.102C39.721,13.437 40.004,14.869 40,16.314L40,16.314ZM34,37L34,18L26,18C24.939,18 23.922,17.579 23.172,16.828C22.421,16.078 22,15.061 22,14L22,6L11,6C9.674,6 8.402,6.527 7.464,7.465C6.527,8.402 6,9.674 6,11L6,37C6,38.326 6.527,39.598 7.464,40.536C8.402,41.473 9.674,42 11,42L29,42C30.326,42 31.598,41.473 32.536,40.536C33.473,39.598 34,38.326 34,37Z" fill="#374957"/>
</svg>
