<svg width="50" height="46" viewBox="0 0 50 46" fill="none" xmlns="http://www.w3.org/2000/svg" xmlns:xlink="http://www.w3.org/1999/xlink">
<path d="M35,-0.166C32.748,-0.13 30.545,0.498 28.613,1.657C26.682,2.816 25.091,4.464 24,6.434C22.909,4.464 21.318,2.816 19.386,1.657C17.455,0.498 15.252,-0.13 13,-0.166C9.41,-0.01 6.027,1.561 3.591,4.203C1.156,6.845 -0.136,10.344 0,13.934C0,27.484 21.912,43.134 22.844,43.798L24,44.616L25.156,43.798C26.088,43.138 48,27.484 48,13.934C48.135,10.344 46.844,6.845 44.408,4.203C41.972,1.561 38.59,-0.01 35,-0.166L35,-0.166ZM24,39.692C17.494,34.832 4,22.892 4,13.934C3.863,11.404 4.733,8.922 6.419,7.03C8.105,5.138 10.47,3.989 13,3.834C15.529,3.989 17.895,5.138 19.581,7.03C21.267,8.922 22.137,11.404 22,13.934L26,13.934C25.863,11.404 26.733,8.922 28.419,7.03C30.105,5.138 32.47,3.989 35,3.834C37.529,3.989 39.895,5.138 41.581,7.03C43.267,8.922 44.137,11.404 44,13.934C44,22.896 30.506,34.832 24,39.692Z" fill="#374957"/>
</svg>
