<svg width="48" height="48" viewBox="0 0 48 48" fill="none" xmlns="http://www.w3.org/2000/svg" xmlns:xlink="http://www.w3.org/1999/xlink">
<path d="M30,24L18,24L18,20L30,20L30,24ZM48,26L48,38C47.997,40.651 46.942,43.193 45.068,45.068C43.193,46.942 40.651,47.997 38,48L10,48C7.349,47.997 4.807,46.942 2.932,45.068C1.058,43.193 0.003,40.651 0,38L0,26L8,26L8,24C8.004,21.195 8.745,18.44 10.149,16.012C11.553,13.583 13.571,11.567 16,10.164L16,8C16,5.878 16.843,3.843 18.343,2.343C19.843,0.843 21.878,0 24,0C26.122,0 28.157,0.843 29.657,2.343C31.157,3.843 32,5.878 32,8L32,10.164C34.429,11.567 36.447,13.583 37.851,16.012C39.255,18.44 39.996,21.195 40,24L40,26L48,26ZM20,8.526C22.621,7.825 25.379,7.825 28,8.526L28,8C28,6.939 27.579,5.922 26.828,5.172C26.078,4.421 25.061,4 24,4C22.939,4 21.922,4.421 21.172,5.172C20.421,5.922 20,6.939 20,8L20,8.526ZM12,24L12,33.452C13.495,31.74 15.34,30.367 17.41,29.427C19.48,28.486 21.727,28 24,28C26.273,28 28.52,28.486 30.59,29.427C32.66,30.367 34.505,31.74 36,33.452L36,24C36,20.817 34.736,17.765 32.485,15.515C30.235,13.264 27.183,12 24,12C20.817,12 17.765,13.264 15.515,15.515C13.264,17.765 12,20.817 12,24L12,24ZM8,43.632L8,30L4,30L4,38C4.005,39.237 4.392,40.441 5.108,41.449C5.824,42.458 6.834,43.22 8,43.632ZM12,44L36,44C36,40.817 34.736,37.765 32.485,35.515C30.235,33.264 27.183,32 24,32C20.817,32 17.765,33.264 15.515,35.515C13.264,37.765 12,40.817 12,44L12,44ZM44,30L40,30L40,43.632C41.166,43.22 42.176,42.458 42.892,41.449C43.608,40.441 43.995,39.237 44,38L44,30Z" fill="#374957"/>
</svg>
