<svg width="48" height="48" viewBox="0 0 48 48" fill="none" xmlns="http://www.w3.org/2000/svg" xmlns:xlink="http://www.w3.org/1999/xlink">
<path d="M48,39.999L48,11.999C48,10.408 47.368,8.882 46.243,7.757C45.117,6.631 43.591,5.999 42,5.999L40,5.999C40,5.071 39.784,4.155 39.37,3.324C38.956,2.493 38.354,1.769 37.613,1.21C36.871,0.651 36.01,0.272 35.098,0.102C34.185,-0.068 33.245,-0.024 32.352,0.231L26.352,1.947C25.479,2.197 24.674,2.643 24,3.251C23.326,2.643 22.521,2.197 21.648,1.947L15.648,0.231C14.755,-0.024 13.815,-0.068 12.902,0.102C11.99,0.272 11.129,0.651 10.387,1.21C9.646,1.769 9.044,2.493 8.63,3.324C8.216,4.155 8,5.071 8,5.999L6,5.999C4.409,5.999 2.883,6.631 1.757,7.757C0.632,8.882 0,10.408 0,11.999L0,39.999L22,39.999L22,43.999L14,43.999L14,47.999L34,47.999L34,43.999L26,43.999L26,39.999L48,39.999ZM26,7.715C26,7.281 26.142,6.858 26.403,6.512C26.665,6.165 27.032,5.913 27.45,5.793L33.45,4.079C33.629,4.027 33.814,4.001 34,3.999C34.53,3.999 35.039,4.21 35.414,4.585C35.789,4.96 36,5.469 36,5.999L36,18.491L26,21.347L26,7.715ZM12,5.999C12,5.69 12.073,5.385 12.211,5.108C12.349,4.831 12.55,4.59 12.797,4.404C13.044,4.218 13.331,4.092 13.635,4.036C13.939,3.979 14.253,3.994 14.55,4.079L20.55,5.793C20.968,5.913 21.335,6.165 21.597,6.512C21.858,6.858 22,7.281 22,7.715L22,21.347L12,18.491L12,5.999ZM4,11.999C4,11.469 4.211,10.96 4.586,10.585C4.961,10.21 5.47,9.999 6,9.999L8,9.999L8,21.507L24,26.079L40,21.507L40,9.999L42,9.999C42.53,9.999 43.039,10.21 43.414,10.585C43.789,10.96 44,11.469 44,11.999L44,35.999L4,35.999L4,11.999Z" fill="#374957"/>
</svg>
