<svg width="50" height="48" viewBox="0 0 50 48" fill="none" xmlns="http://www.w3.org/2000/svg" xmlns:xlink="http://www.w3.org/1999/xlink">
<path d="M37,0L27,0C24.186,0.004 21.48,1.086 19.439,3.024C17.398,4.963 16.178,7.609 16.03,10.42C13.819,11.043 11.859,12.342 10.425,14.136C8.99,15.929 8.153,18.127 8.03,20.42C5.722,21.069 3.69,22.454 2.24,24.363C0.791,26.273 0.004,28.603 0,31L0,37C0.004,39.916 1.164,42.712 3.226,44.774C5.288,46.836 8.084,47.996 11,48L21,48C23.916,47.996 26.712,46.836 28.774,44.774C30.836,42.712 31.996,39.916 32,37L32,36.574C34,36.002 35.797,34.876 37.184,33.326C38.571,31.776 39.491,29.865 39.838,27.814C42.274,27.299 44.441,25.92 45.941,23.933C47.441,21.946 48.172,19.484 48,17L48,11C47.996,8.084 46.836,5.288 44.774,3.226C42.712,1.164 39.916,0.004 37,0L37,0ZM6,31C6,29.674 6.527,28.402 7.464,27.464C8.402,26.527 9.674,26 11,26L21,26C22.326,26 23.598,26.527 24.536,27.464C25.473,28.402 26,29.674 26,31L26,31.4L21.77,35.63C21.584,35.816 21.364,35.963 21.121,36.064C20.878,36.165 20.618,36.217 20.355,36.217C20.092,36.217 19.832,36.165 19.589,36.064C19.346,35.963 19.126,35.816 18.94,35.63L18,34.67C17.647,34.317 17.175,34.109 16.677,34.087C16.178,34.064 15.689,34.229 15.306,34.548L7.906,40.9C7.314,40.436 6.835,39.844 6.505,39.169C6.175,38.493 6.002,37.752 6,37L6,31ZM34,26C33.998,26.783 33.811,27.555 33.455,28.253C33.099,28.951 32.583,29.555 31.95,30.016C31.702,27.282 30.441,24.739 28.416,22.887C26.39,21.034 23.745,20.004 21,20L14.102,20C14.332,18.871 14.946,17.856 15.838,17.127C16.731,16.398 17.848,16 19,16L29,16C30.326,16 31.598,16.527 32.536,17.464C33.473,18.402 34,19.674 34,21L34,26ZM42,17C42.037,17.847 41.875,18.69 41.528,19.463C41.18,20.236 40.657,20.917 40,21.452L40,21C39.996,18.084 38.836,15.288 36.774,13.226C34.712,11.164 31.916,10.004 29,10L22.102,10C22.332,8.871 22.946,7.856 23.838,7.127C24.731,6.398 25.848,6 27,6L37,6C38.326,6 39.598,6.527 40.536,7.464C41.473,8.402 42,9.674 42,11L42,17ZM8,31C8,30.407 8.176,29.827 8.506,29.333C8.835,28.84 9.304,28.455 9.852,28.228C10.4,28.001 11.003,27.942 11.585,28.058C12.167,28.173 12.702,28.459 13.121,28.879C13.541,29.298 13.827,29.833 13.942,30.415C14.058,30.997 13.999,31.6 13.772,32.148C13.545,32.696 13.16,33.165 12.667,33.494C12.173,33.824 11.593,34 11,34C10.204,34 9.441,33.684 8.879,33.121C8.316,32.559 8,31.796 8,31L8,31Z" fill="#374957"/>
</svg>
