<svg width="40" height="48" viewBox="0 0 40 48" fill="none" xmlns="http://www.w3.org/2000/svg" xmlns:xlink="http://www.w3.org/1999/xlink">
<path d="M28,22L12,22L12,18L28,18L28,22ZM5.874,34.158C3.073,31.364 1.164,27.801 0.388,23.921C-0.388,20.042 0.005,16.019 1.516,12.362C3.027,8.705 5.589,5.579 8.877,3.378C12.165,1.178 16.032,0.002 19.989,0C23.945,-0.002 27.814,1.169 31.104,3.366C34.395,5.563 36.96,8.686 38.475,12.341C39.991,15.996 40.388,20.018 39.616,23.899C38.845,27.78 36.94,31.345 34.142,34.142L20,47.974L5.874,34.158ZM4,20C3.994,22.102 4.405,24.185 5.21,26.127C6.014,28.069 7.196,29.832 8.686,31.314L20,42.378L31.33,31.298C33.187,29.436 34.557,27.144 35.317,24.626C36.077,22.108 36.205,19.442 35.689,16.863C35.173,14.283 34.03,11.871 32.359,9.84C30.689,7.808 28.543,6.219 26.113,5.215C23.682,4.21 21.041,3.82 18.424,4.079C15.806,4.338 13.293,5.238 11.106,6.7C8.92,8.162 7.128,10.141 5.888,12.461C4.649,14.78 4,17.37 4,20L4,20Z" fill="#374957"/>
</svg>
