<svg width="48" height="48" viewBox="0 0 48 48" fill="none" xmlns="http://www.w3.org/2000/svg" xmlns:xlink="http://www.w3.org/1999/xlink">
<path d="M36,16.4L36,0L40,0L40,16.4L44.484,11.916L47.312,14.744L41.494,20.562C40.567,21.488 39.31,22.008 38,22.008C36.69,22.008 35.433,21.488 34.506,20.562L28.764,14.812L31.6,11.984L36,16.4ZM44.322,23.4C44.222,23.5 44.104,23.572 44,23.666L44,44L4,44L4,18.14L16.93,31.072C18.805,32.947 21.348,34 24,34C26.652,34 29.195,32.947 31.07,31.072L36.306,25.834C34.896,25.557 33.576,24.939 32.46,24.034L28.242,28.252C27.099,29.342 25.58,29.95 24,29.95C22.42,29.95 20.901,29.342 19.758,28.252L4,12.484L4,12C4,11.47 4.211,10.961 4.586,10.586C4.961,10.211 5.47,10 6,10L28,10L32,6L6,6C4.409,6 2.883,6.632 1.757,7.757C0.632,8.883 0,10.409 0,12L0,48L48,48L48,19.704L44.322,23.4Z" fill="#374957"/>
</svg>
