<svg width="50" height="48" viewBox="0 0 50 48" fill="none" xmlns="http://www.w3.org/2000/svg" xmlns:xlink="http://www.w3.org/1999/xlink">
<path d="M41.001,14C39.144,14 37.364,13.262 36.051,11.95C34.738,10.637 34.001,8.857 34.001,7C34.001,5.143 34.738,3.363 36.051,2.05C37.364,0.737 39.144,0 41.001,0C42.857,0 44.638,0.737 45.95,2.05C47.263,3.363 48.001,5.143 48.001,7C48.001,8.857 47.263,10.637 45.95,11.95C44.638,13.262 42.857,14 41.001,14L41.001,14ZM42.125,48L25.873,48C24.845,48.009 23.833,47.747 22.939,47.239C22.046,46.731 21.302,45.996 20.785,45.108C20.278,44.253 20.006,43.279 19.998,42.285C19.989,41.291 20.243,40.312 20.735,39.448L28.867,24.978C29.393,24.084 30.144,23.343 31.044,22.828C31.945,22.313 32.965,22.042 34.003,22.042C35.04,22.042 36.06,22.313 36.961,22.828C37.861,23.343 38.612,24.084 39.139,24.978L47.265,39.442C47.757,40.306 48.012,41.286 48.003,42.281C47.994,43.276 47.722,44.25 47.215,45.106C46.697,45.994 45.953,46.73 45.059,47.238C44.165,47.747 43.153,48.009 42.125,48L42.125,48ZM33.983,28.046L26.215,42L41.839,42L33.983,28.046ZM16.001,45C16.001,44.204 15.684,43.441 15.122,42.879C14.559,42.316 13.796,42 13.001,42L7.425,42C7.178,42.004 6.935,41.942 6.721,41.82C6.507,41.698 6.33,41.52 6.209,41.306C6.081,41.096 6.011,40.856 6.006,40.61C6.001,40.364 6.06,40.121 6.179,39.906L18.701,16.744C18.822,16.519 19.001,16.331 19.22,16.2C19.44,16.069 19.69,16 19.946,16C20.201,16 20.451,16.069 20.671,16.2C20.89,16.331 21.069,16.519 21.191,16.744L22.435,19.044C22.61,19.409 22.859,19.735 23.164,20.002C23.469,20.269 23.826,20.471 24.211,20.596C24.597,20.722 25.004,20.767 25.408,20.731C25.812,20.694 26.204,20.576 26.561,20.384C26.918,20.191 27.232,19.928 27.485,19.611C27.738,19.294 27.923,18.929 28.031,18.538C28.138,18.147 28.165,17.738 28.11,17.336C28.055,16.934 27.919,16.548 27.711,16.2L26.467,13.898C25.82,12.736 24.874,11.767 23.727,11.093C22.581,10.419 21.275,10.064 19.945,10.064C18.614,10.064 17.308,10.419 16.162,11.093C15.015,11.767 14.069,12.736 13.423,13.898L0.901,37.042C0.289,38.173 -0.018,39.442 0.008,40.727C0.035,42.012 0.395,43.269 1.052,44.373C1.71,45.477 2.642,46.392 3.759,47.028C4.876,47.664 6.139,47.999 7.425,48L13.001,48C13.796,48 14.559,47.684 15.122,47.121C15.684,46.559 16.001,45.796 16.001,45Z" fill="#374957"/>
</svg>
