<svg width="48" height="48" viewBox="0 0 48 48" fill="none" xmlns="http://www.w3.org/2000/svg" xmlns:xlink="http://www.w3.org/1999/xlink">
<path d="M44.639,3.221C42.347,0.929 39.312,-0.204 36.091,0.03C32.759,0.272 29.468,1.931 26.573,4.825C23.703,7.696 22.187,10.879 22.191,14.031C22.192,15.1 22.364,16.154 22.699,17.176L20.456,25.41L3.779,42.087L2.131,40.439L0.137,42.433L5.426,47.723L7.421,45.729L5.773,44.081L22.45,27.404L30.684,25.16C31.706,25.495 32.76,25.668 33.829,25.669L33.841,25.669C36.989,25.669 40.168,24.154 43.034,21.287C45.929,18.392 47.587,15.101 47.83,11.769C48.064,8.548 46.931,5.513 44.639,3.221ZM44.783,8.839L41.401,12.221L39.517,10.337L43.563,6.291C44.135,7.084 44.54,7.941 44.783,8.839ZM44.86,12.75C44.707,13.48 44.464,14.217 44.131,14.951L43.395,14.215L44.86,12.75ZM31.247,22.375C30.428,22.068 29.627,21.61 28.852,21.002L32.39,17.465L34.274,19.349L31.247,22.375ZM36.268,21.343L37.057,22.132C36.315,22.456 35.574,22.67 34.837,22.774L36.268,21.343ZM25.485,16.613L28.511,13.586L30.395,15.47L26.858,19.008C26.25,18.234 25.792,17.432 25.485,16.613ZM25.086,13.023C25.189,12.286 25.404,11.545 25.728,10.803L26.517,11.592L25.086,13.023ZM39.02,3.078C39.918,3.321 40.774,3.727 41.567,4.299L37.523,8.343L35.639,6.459L39.02,3.078ZM33.645,4.465L32.909,3.729C33.643,3.396 34.38,3.152 35.11,2.999L33.645,4.465ZM35.529,10.337L32.39,13.476L30.506,11.592L33.645,8.453L35.529,10.337ZM34.384,15.47L37.523,12.332L39.407,14.215L36.268,17.354L34.384,15.47ZM30.41,5.219L31.65,6.459L28.511,9.598L27.235,8.321C27.627,7.817 28.071,7.316 28.568,6.82C29.168,6.219 29.784,5.686 30.41,5.219ZM23.727,24.133L24.647,20.756C24.997,21.202 25.381,21.637 25.802,22.058C26.223,22.478 26.658,22.863 27.104,23.213L23.727,24.133ZM39.539,20.625L38.262,19.348L41.401,16.21L42.641,17.45C42.174,18.076 41.641,18.692 41.04,19.292C40.544,19.789 40.043,20.233 39.539,20.625Z" fill="#000000"/>
<path d="M36.19,31.289C35.388,30.487 34.322,30.045 33.188,30.045C32.054,30.045 30.987,30.487 30.185,31.289L28.405,33.069L21.493,37.131L19.469,41.179L26.289,47.999L30.247,46.089L34.408,39.076L36.19,37.294C36.992,36.492 37.434,35.425 37.434,34.291C37.434,33.157 36.992,32.091 36.19,31.289C36.19,31.289 36.19,31.289 36.19,31.289ZM32.18,33.283C32.449,33.014 32.807,32.865 33.188,32.865C33.569,32.865 33.927,33.014 34.196,33.283L34.196,33.283C34.465,33.552 34.614,33.91 34.614,34.291C34.614,34.672 34.465,35.03 34.196,35.299L33.286,36.21L31.27,34.194L32.18,33.283ZM28.256,43.919L26.867,44.589L25.876,43.597L27.645,41.828L25.651,39.834L23.881,41.603L22.901,40.622L23.642,39.139L29.049,35.962L31.514,38.427L28.256,43.919Z" fill="#000000"/>
</svg>
